G04 #@! TF.GenerationSoftware,KiCad,Pcbnew,5.1.5+dfsg1-2build2*
G04 #@! TF.CreationDate,2021-07-26T09:56:11+01:00*
G04 #@! TF.ProjectId,picopak,7069636f-7061-46b2-9e6b-696361645f70,rev?*
G04 #@! TF.SameCoordinates,Original*
G04 #@! TF.FileFunction,Paste,Bot*
G04 #@! TF.FilePolarity,Positive*
%FSLAX46Y46*%
G04 Gerber Fmt 4.6, Leading zero omitted, Abs format (unit mm)*
G04 Created by KiCad (PCBNEW 5.1.5+dfsg1-2build2) date 2021-07-26 09:56:11*
%MOMM*%
%LPD*%
G04 APERTURE LIST*
%ADD10C,0.100000*%
%ADD11R,1.800000X2.100000*%
%ADD12R,1.050000X0.650000*%
%ADD13R,1.750000X0.600000*%
%ADD14R,2.000000X1.500000*%
%ADD15R,2.000000X3.800000*%
G04 APERTURE END LIST*
D10*
G36*
X207046958Y-79980710D02*
G01*
X207061276Y-79982834D01*
X207075317Y-79986351D01*
X207088946Y-79991228D01*
X207102031Y-79997417D01*
X207114447Y-80004858D01*
X207126073Y-80013481D01*
X207136798Y-80023202D01*
X207146519Y-80033927D01*
X207155142Y-80045553D01*
X207162583Y-80057969D01*
X207168772Y-80071054D01*
X207173649Y-80084683D01*
X207177166Y-80098724D01*
X207179290Y-80113042D01*
X207180000Y-80127500D01*
X207180000Y-80472500D01*
X207179290Y-80486958D01*
X207177166Y-80501276D01*
X207173649Y-80515317D01*
X207168772Y-80528946D01*
X207162583Y-80542031D01*
X207155142Y-80554447D01*
X207146519Y-80566073D01*
X207136798Y-80576798D01*
X207126073Y-80586519D01*
X207114447Y-80595142D01*
X207102031Y-80602583D01*
X207088946Y-80608772D01*
X207075317Y-80613649D01*
X207061276Y-80617166D01*
X207046958Y-80619290D01*
X207032500Y-80620000D01*
X206737500Y-80620000D01*
X206723042Y-80619290D01*
X206708724Y-80617166D01*
X206694683Y-80613649D01*
X206681054Y-80608772D01*
X206667969Y-80602583D01*
X206655553Y-80595142D01*
X206643927Y-80586519D01*
X206633202Y-80576798D01*
X206623481Y-80566073D01*
X206614858Y-80554447D01*
X206607417Y-80542031D01*
X206601228Y-80528946D01*
X206596351Y-80515317D01*
X206592834Y-80501276D01*
X206590710Y-80486958D01*
X206590000Y-80472500D01*
X206590000Y-80127500D01*
X206590710Y-80113042D01*
X206592834Y-80098724D01*
X206596351Y-80084683D01*
X206601228Y-80071054D01*
X206607417Y-80057969D01*
X206614858Y-80045553D01*
X206623481Y-80033927D01*
X206633202Y-80023202D01*
X206643927Y-80013481D01*
X206655553Y-80004858D01*
X206667969Y-79997417D01*
X206681054Y-79991228D01*
X206694683Y-79986351D01*
X206708724Y-79982834D01*
X206723042Y-79980710D01*
X206737500Y-79980000D01*
X207032500Y-79980000D01*
X207046958Y-79980710D01*
G37*
G36*
X206076958Y-79980710D02*
G01*
X206091276Y-79982834D01*
X206105317Y-79986351D01*
X206118946Y-79991228D01*
X206132031Y-79997417D01*
X206144447Y-80004858D01*
X206156073Y-80013481D01*
X206166798Y-80023202D01*
X206176519Y-80033927D01*
X206185142Y-80045553D01*
X206192583Y-80057969D01*
X206198772Y-80071054D01*
X206203649Y-80084683D01*
X206207166Y-80098724D01*
X206209290Y-80113042D01*
X206210000Y-80127500D01*
X206210000Y-80472500D01*
X206209290Y-80486958D01*
X206207166Y-80501276D01*
X206203649Y-80515317D01*
X206198772Y-80528946D01*
X206192583Y-80542031D01*
X206185142Y-80554447D01*
X206176519Y-80566073D01*
X206166798Y-80576798D01*
X206156073Y-80586519D01*
X206144447Y-80595142D01*
X206132031Y-80602583D01*
X206118946Y-80608772D01*
X206105317Y-80613649D01*
X206091276Y-80617166D01*
X206076958Y-80619290D01*
X206062500Y-80620000D01*
X205767500Y-80620000D01*
X205753042Y-80619290D01*
X205738724Y-80617166D01*
X205724683Y-80613649D01*
X205711054Y-80608772D01*
X205697969Y-80602583D01*
X205685553Y-80595142D01*
X205673927Y-80586519D01*
X205663202Y-80576798D01*
X205653481Y-80566073D01*
X205644858Y-80554447D01*
X205637417Y-80542031D01*
X205631228Y-80528946D01*
X205626351Y-80515317D01*
X205622834Y-80501276D01*
X205620710Y-80486958D01*
X205620000Y-80472500D01*
X205620000Y-80127500D01*
X205620710Y-80113042D01*
X205622834Y-80098724D01*
X205626351Y-80084683D01*
X205631228Y-80071054D01*
X205637417Y-80057969D01*
X205644858Y-80045553D01*
X205653481Y-80033927D01*
X205663202Y-80023202D01*
X205673927Y-80013481D01*
X205685553Y-80004858D01*
X205697969Y-79997417D01*
X205711054Y-79991228D01*
X205724683Y-79986351D01*
X205738724Y-79982834D01*
X205753042Y-79980710D01*
X205767500Y-79980000D01*
X206062500Y-79980000D01*
X206076958Y-79980710D01*
G37*
G36*
X166446958Y-69780710D02*
G01*
X166461276Y-69782834D01*
X166475317Y-69786351D01*
X166488946Y-69791228D01*
X166502031Y-69797417D01*
X166514447Y-69804858D01*
X166526073Y-69813481D01*
X166536798Y-69823202D01*
X166546519Y-69833927D01*
X166555142Y-69845553D01*
X166562583Y-69857969D01*
X166568772Y-69871054D01*
X166573649Y-69884683D01*
X166577166Y-69898724D01*
X166579290Y-69913042D01*
X166580000Y-69927500D01*
X166580000Y-70272500D01*
X166579290Y-70286958D01*
X166577166Y-70301276D01*
X166573649Y-70315317D01*
X166568772Y-70328946D01*
X166562583Y-70342031D01*
X166555142Y-70354447D01*
X166546519Y-70366073D01*
X166536798Y-70376798D01*
X166526073Y-70386519D01*
X166514447Y-70395142D01*
X166502031Y-70402583D01*
X166488946Y-70408772D01*
X166475317Y-70413649D01*
X166461276Y-70417166D01*
X166446958Y-70419290D01*
X166432500Y-70420000D01*
X166137500Y-70420000D01*
X166123042Y-70419290D01*
X166108724Y-70417166D01*
X166094683Y-70413649D01*
X166081054Y-70408772D01*
X166067969Y-70402583D01*
X166055553Y-70395142D01*
X166043927Y-70386519D01*
X166033202Y-70376798D01*
X166023481Y-70366073D01*
X166014858Y-70354447D01*
X166007417Y-70342031D01*
X166001228Y-70328946D01*
X165996351Y-70315317D01*
X165992834Y-70301276D01*
X165990710Y-70286958D01*
X165990000Y-70272500D01*
X165990000Y-69927500D01*
X165990710Y-69913042D01*
X165992834Y-69898724D01*
X165996351Y-69884683D01*
X166001228Y-69871054D01*
X166007417Y-69857969D01*
X166014858Y-69845553D01*
X166023481Y-69833927D01*
X166033202Y-69823202D01*
X166043927Y-69813481D01*
X166055553Y-69804858D01*
X166067969Y-69797417D01*
X166081054Y-69791228D01*
X166094683Y-69786351D01*
X166108724Y-69782834D01*
X166123042Y-69780710D01*
X166137500Y-69780000D01*
X166432500Y-69780000D01*
X166446958Y-69780710D01*
G37*
G36*
X165476958Y-69780710D02*
G01*
X165491276Y-69782834D01*
X165505317Y-69786351D01*
X165518946Y-69791228D01*
X165532031Y-69797417D01*
X165544447Y-69804858D01*
X165556073Y-69813481D01*
X165566798Y-69823202D01*
X165576519Y-69833927D01*
X165585142Y-69845553D01*
X165592583Y-69857969D01*
X165598772Y-69871054D01*
X165603649Y-69884683D01*
X165607166Y-69898724D01*
X165609290Y-69913042D01*
X165610000Y-69927500D01*
X165610000Y-70272500D01*
X165609290Y-70286958D01*
X165607166Y-70301276D01*
X165603649Y-70315317D01*
X165598772Y-70328946D01*
X165592583Y-70342031D01*
X165585142Y-70354447D01*
X165576519Y-70366073D01*
X165566798Y-70376798D01*
X165556073Y-70386519D01*
X165544447Y-70395142D01*
X165532031Y-70402583D01*
X165518946Y-70408772D01*
X165505317Y-70413649D01*
X165491276Y-70417166D01*
X165476958Y-70419290D01*
X165462500Y-70420000D01*
X165167500Y-70420000D01*
X165153042Y-70419290D01*
X165138724Y-70417166D01*
X165124683Y-70413649D01*
X165111054Y-70408772D01*
X165097969Y-70402583D01*
X165085553Y-70395142D01*
X165073927Y-70386519D01*
X165063202Y-70376798D01*
X165053481Y-70366073D01*
X165044858Y-70354447D01*
X165037417Y-70342031D01*
X165031228Y-70328946D01*
X165026351Y-70315317D01*
X165022834Y-70301276D01*
X165020710Y-70286958D01*
X165020000Y-70272500D01*
X165020000Y-69927500D01*
X165020710Y-69913042D01*
X165022834Y-69898724D01*
X165026351Y-69884683D01*
X165031228Y-69871054D01*
X165037417Y-69857969D01*
X165044858Y-69845553D01*
X165053481Y-69833927D01*
X165063202Y-69823202D01*
X165073927Y-69813481D01*
X165085553Y-69804858D01*
X165097969Y-69797417D01*
X165111054Y-69791228D01*
X165124683Y-69786351D01*
X165138724Y-69782834D01*
X165153042Y-69780710D01*
X165167500Y-69780000D01*
X165462500Y-69780000D01*
X165476958Y-69780710D01*
G37*
G36*
X203276958Y-70180710D02*
G01*
X203291276Y-70182834D01*
X203305317Y-70186351D01*
X203318946Y-70191228D01*
X203332031Y-70197417D01*
X203344447Y-70204858D01*
X203356073Y-70213481D01*
X203366798Y-70223202D01*
X203376519Y-70233927D01*
X203385142Y-70245553D01*
X203392583Y-70257969D01*
X203398772Y-70271054D01*
X203403649Y-70284683D01*
X203407166Y-70298724D01*
X203409290Y-70313042D01*
X203410000Y-70327500D01*
X203410000Y-70672500D01*
X203409290Y-70686958D01*
X203407166Y-70701276D01*
X203403649Y-70715317D01*
X203398772Y-70728946D01*
X203392583Y-70742031D01*
X203385142Y-70754447D01*
X203376519Y-70766073D01*
X203366798Y-70776798D01*
X203356073Y-70786519D01*
X203344447Y-70795142D01*
X203332031Y-70802583D01*
X203318946Y-70808772D01*
X203305317Y-70813649D01*
X203291276Y-70817166D01*
X203276958Y-70819290D01*
X203262500Y-70820000D01*
X202967500Y-70820000D01*
X202953042Y-70819290D01*
X202938724Y-70817166D01*
X202924683Y-70813649D01*
X202911054Y-70808772D01*
X202897969Y-70802583D01*
X202885553Y-70795142D01*
X202873927Y-70786519D01*
X202863202Y-70776798D01*
X202853481Y-70766073D01*
X202844858Y-70754447D01*
X202837417Y-70742031D01*
X202831228Y-70728946D01*
X202826351Y-70715317D01*
X202822834Y-70701276D01*
X202820710Y-70686958D01*
X202820000Y-70672500D01*
X202820000Y-70327500D01*
X202820710Y-70313042D01*
X202822834Y-70298724D01*
X202826351Y-70284683D01*
X202831228Y-70271054D01*
X202837417Y-70257969D01*
X202844858Y-70245553D01*
X202853481Y-70233927D01*
X202863202Y-70223202D01*
X202873927Y-70213481D01*
X202885553Y-70204858D01*
X202897969Y-70197417D01*
X202911054Y-70191228D01*
X202924683Y-70186351D01*
X202938724Y-70182834D01*
X202953042Y-70180710D01*
X202967500Y-70180000D01*
X203262500Y-70180000D01*
X203276958Y-70180710D01*
G37*
G36*
X204246958Y-70180710D02*
G01*
X204261276Y-70182834D01*
X204275317Y-70186351D01*
X204288946Y-70191228D01*
X204302031Y-70197417D01*
X204314447Y-70204858D01*
X204326073Y-70213481D01*
X204336798Y-70223202D01*
X204346519Y-70233927D01*
X204355142Y-70245553D01*
X204362583Y-70257969D01*
X204368772Y-70271054D01*
X204373649Y-70284683D01*
X204377166Y-70298724D01*
X204379290Y-70313042D01*
X204380000Y-70327500D01*
X204380000Y-70672500D01*
X204379290Y-70686958D01*
X204377166Y-70701276D01*
X204373649Y-70715317D01*
X204368772Y-70728946D01*
X204362583Y-70742031D01*
X204355142Y-70754447D01*
X204346519Y-70766073D01*
X204336798Y-70776798D01*
X204326073Y-70786519D01*
X204314447Y-70795142D01*
X204302031Y-70802583D01*
X204288946Y-70808772D01*
X204275317Y-70813649D01*
X204261276Y-70817166D01*
X204246958Y-70819290D01*
X204232500Y-70820000D01*
X203937500Y-70820000D01*
X203923042Y-70819290D01*
X203908724Y-70817166D01*
X203894683Y-70813649D01*
X203881054Y-70808772D01*
X203867969Y-70802583D01*
X203855553Y-70795142D01*
X203843927Y-70786519D01*
X203833202Y-70776798D01*
X203823481Y-70766073D01*
X203814858Y-70754447D01*
X203807417Y-70742031D01*
X203801228Y-70728946D01*
X203796351Y-70715317D01*
X203792834Y-70701276D01*
X203790710Y-70686958D01*
X203790000Y-70672500D01*
X203790000Y-70327500D01*
X203790710Y-70313042D01*
X203792834Y-70298724D01*
X203796351Y-70284683D01*
X203801228Y-70271054D01*
X203807417Y-70257969D01*
X203814858Y-70245553D01*
X203823481Y-70233927D01*
X203833202Y-70223202D01*
X203843927Y-70213481D01*
X203855553Y-70204858D01*
X203867969Y-70197417D01*
X203881054Y-70191228D01*
X203894683Y-70186351D01*
X203908724Y-70182834D01*
X203923042Y-70180710D01*
X203937500Y-70180000D01*
X204232500Y-70180000D01*
X204246958Y-70180710D01*
G37*
G36*
X185954221Y-76896487D02*
G01*
X185978490Y-76900087D01*
X186002288Y-76906048D01*
X186025388Y-76914313D01*
X186047566Y-76924803D01*
X186068610Y-76937416D01*
X186088315Y-76952030D01*
X186106494Y-76968506D01*
X186122970Y-76986685D01*
X186137584Y-77006390D01*
X186150197Y-77027434D01*
X186160687Y-77049612D01*
X186168952Y-77072712D01*
X186174913Y-77096510D01*
X186178513Y-77120779D01*
X186179717Y-77145283D01*
X186179717Y-77729717D01*
X186178513Y-77754221D01*
X186174913Y-77778490D01*
X186168952Y-77802288D01*
X186160687Y-77825388D01*
X186150197Y-77847566D01*
X186137584Y-77868610D01*
X186122970Y-77888315D01*
X186106494Y-77906494D01*
X186088315Y-77922970D01*
X186068610Y-77937584D01*
X186047566Y-77950197D01*
X186025388Y-77960687D01*
X186002288Y-77968952D01*
X185978490Y-77974913D01*
X185954221Y-77978513D01*
X185929717Y-77979717D01*
X185345283Y-77979717D01*
X185320779Y-77978513D01*
X185296510Y-77974913D01*
X185272712Y-77968952D01*
X185249612Y-77960687D01*
X185227434Y-77950197D01*
X185206390Y-77937584D01*
X185186685Y-77922970D01*
X185168506Y-77906494D01*
X185152030Y-77888315D01*
X185137416Y-77868610D01*
X185124803Y-77847566D01*
X185114313Y-77825388D01*
X185106048Y-77802288D01*
X185100087Y-77778490D01*
X185096487Y-77754221D01*
X185095283Y-77729717D01*
X185095283Y-77145283D01*
X185096487Y-77120779D01*
X185100087Y-77096510D01*
X185106048Y-77072712D01*
X185114313Y-77049612D01*
X185124803Y-77027434D01*
X185137416Y-77006390D01*
X185152030Y-76986685D01*
X185168506Y-76968506D01*
X185186685Y-76952030D01*
X185206390Y-76937416D01*
X185227434Y-76924803D01*
X185249612Y-76914313D01*
X185272712Y-76906048D01*
X185296510Y-76900087D01*
X185320779Y-76896487D01*
X185345283Y-76895283D01*
X185929717Y-76895283D01*
X185954221Y-76896487D01*
G37*
G36*
X184679221Y-76896487D02*
G01*
X184703490Y-76900087D01*
X184727288Y-76906048D01*
X184750388Y-76914313D01*
X184772566Y-76924803D01*
X184793610Y-76937416D01*
X184813315Y-76952030D01*
X184831494Y-76968506D01*
X184847970Y-76986685D01*
X184862584Y-77006390D01*
X184875197Y-77027434D01*
X184885687Y-77049612D01*
X184893952Y-77072712D01*
X184899913Y-77096510D01*
X184903513Y-77120779D01*
X184904717Y-77145283D01*
X184904717Y-77729717D01*
X184903513Y-77754221D01*
X184899913Y-77778490D01*
X184893952Y-77802288D01*
X184885687Y-77825388D01*
X184875197Y-77847566D01*
X184862584Y-77868610D01*
X184847970Y-77888315D01*
X184831494Y-77906494D01*
X184813315Y-77922970D01*
X184793610Y-77937584D01*
X184772566Y-77950197D01*
X184750388Y-77960687D01*
X184727288Y-77968952D01*
X184703490Y-77974913D01*
X184679221Y-77978513D01*
X184654717Y-77979717D01*
X184070283Y-77979717D01*
X184045779Y-77978513D01*
X184021510Y-77974913D01*
X183997712Y-77968952D01*
X183974612Y-77960687D01*
X183952434Y-77950197D01*
X183931390Y-77937584D01*
X183911685Y-77922970D01*
X183893506Y-77906494D01*
X183877030Y-77888315D01*
X183862416Y-77868610D01*
X183849803Y-77847566D01*
X183839313Y-77825388D01*
X183831048Y-77802288D01*
X183825087Y-77778490D01*
X183821487Y-77754221D01*
X183820283Y-77729717D01*
X183820283Y-77145283D01*
X183821487Y-77120779D01*
X183825087Y-77096510D01*
X183831048Y-77072712D01*
X183839313Y-77049612D01*
X183849803Y-77027434D01*
X183862416Y-77006390D01*
X183877030Y-76986685D01*
X183893506Y-76968506D01*
X183911685Y-76952030D01*
X183931390Y-76937416D01*
X183952434Y-76924803D01*
X183974612Y-76914313D01*
X183997712Y-76906048D01*
X184021510Y-76900087D01*
X184045779Y-76896487D01*
X184070283Y-76895283D01*
X184654717Y-76895283D01*
X184679221Y-76896487D01*
G37*
G36*
X185954221Y-75621487D02*
G01*
X185978490Y-75625087D01*
X186002288Y-75631048D01*
X186025388Y-75639313D01*
X186047566Y-75649803D01*
X186068610Y-75662416D01*
X186088315Y-75677030D01*
X186106494Y-75693506D01*
X186122970Y-75711685D01*
X186137584Y-75731390D01*
X186150197Y-75752434D01*
X186160687Y-75774612D01*
X186168952Y-75797712D01*
X186174913Y-75821510D01*
X186178513Y-75845779D01*
X186179717Y-75870283D01*
X186179717Y-76454717D01*
X186178513Y-76479221D01*
X186174913Y-76503490D01*
X186168952Y-76527288D01*
X186160687Y-76550388D01*
X186150197Y-76572566D01*
X186137584Y-76593610D01*
X186122970Y-76613315D01*
X186106494Y-76631494D01*
X186088315Y-76647970D01*
X186068610Y-76662584D01*
X186047566Y-76675197D01*
X186025388Y-76685687D01*
X186002288Y-76693952D01*
X185978490Y-76699913D01*
X185954221Y-76703513D01*
X185929717Y-76704717D01*
X185345283Y-76704717D01*
X185320779Y-76703513D01*
X185296510Y-76699913D01*
X185272712Y-76693952D01*
X185249612Y-76685687D01*
X185227434Y-76675197D01*
X185206390Y-76662584D01*
X185186685Y-76647970D01*
X185168506Y-76631494D01*
X185152030Y-76613315D01*
X185137416Y-76593610D01*
X185124803Y-76572566D01*
X185114313Y-76550388D01*
X185106048Y-76527288D01*
X185100087Y-76503490D01*
X185096487Y-76479221D01*
X185095283Y-76454717D01*
X185095283Y-75870283D01*
X185096487Y-75845779D01*
X185100087Y-75821510D01*
X185106048Y-75797712D01*
X185114313Y-75774612D01*
X185124803Y-75752434D01*
X185137416Y-75731390D01*
X185152030Y-75711685D01*
X185168506Y-75693506D01*
X185186685Y-75677030D01*
X185206390Y-75662416D01*
X185227434Y-75649803D01*
X185249612Y-75639313D01*
X185272712Y-75631048D01*
X185296510Y-75625087D01*
X185320779Y-75621487D01*
X185345283Y-75620283D01*
X185929717Y-75620283D01*
X185954221Y-75621487D01*
G37*
G36*
X184679221Y-75621487D02*
G01*
X184703490Y-75625087D01*
X184727288Y-75631048D01*
X184750388Y-75639313D01*
X184772566Y-75649803D01*
X184793610Y-75662416D01*
X184813315Y-75677030D01*
X184831494Y-75693506D01*
X184847970Y-75711685D01*
X184862584Y-75731390D01*
X184875197Y-75752434D01*
X184885687Y-75774612D01*
X184893952Y-75797712D01*
X184899913Y-75821510D01*
X184903513Y-75845779D01*
X184904717Y-75870283D01*
X184904717Y-76454717D01*
X184903513Y-76479221D01*
X184899913Y-76503490D01*
X184893952Y-76527288D01*
X184885687Y-76550388D01*
X184875197Y-76572566D01*
X184862584Y-76593610D01*
X184847970Y-76613315D01*
X184831494Y-76631494D01*
X184813315Y-76647970D01*
X184793610Y-76662584D01*
X184772566Y-76675197D01*
X184750388Y-76685687D01*
X184727288Y-76693952D01*
X184703490Y-76699913D01*
X184679221Y-76703513D01*
X184654717Y-76704717D01*
X184070283Y-76704717D01*
X184045779Y-76703513D01*
X184021510Y-76699913D01*
X183997712Y-76693952D01*
X183974612Y-76685687D01*
X183952434Y-76675197D01*
X183931390Y-76662584D01*
X183911685Y-76647970D01*
X183893506Y-76631494D01*
X183877030Y-76613315D01*
X183862416Y-76593610D01*
X183849803Y-76572566D01*
X183839313Y-76550388D01*
X183831048Y-76527288D01*
X183825087Y-76503490D01*
X183821487Y-76479221D01*
X183820283Y-76454717D01*
X183820283Y-75870283D01*
X183821487Y-75845779D01*
X183825087Y-75821510D01*
X183831048Y-75797712D01*
X183839313Y-75774612D01*
X183849803Y-75752434D01*
X183862416Y-75731390D01*
X183877030Y-75711685D01*
X183893506Y-75693506D01*
X183911685Y-75677030D01*
X183931390Y-75662416D01*
X183952434Y-75649803D01*
X183974612Y-75639313D01*
X183997712Y-75631048D01*
X184021510Y-75625087D01*
X184045779Y-75621487D01*
X184070283Y-75620283D01*
X184654717Y-75620283D01*
X184679221Y-75621487D01*
G37*
G36*
X187654901Y-79800241D02*
G01*
X187659755Y-79800961D01*
X187664514Y-79802153D01*
X187669134Y-79803806D01*
X187673570Y-79805904D01*
X187677779Y-79808427D01*
X187681720Y-79811349D01*
X187685355Y-79814645D01*
X187688651Y-79818280D01*
X187691573Y-79822221D01*
X187694096Y-79826430D01*
X187696194Y-79830866D01*
X187697847Y-79835486D01*
X187699039Y-79840245D01*
X187699759Y-79845099D01*
X187700000Y-79850000D01*
X187700000Y-80625000D01*
X187699759Y-80629901D01*
X187699039Y-80634755D01*
X187697847Y-80639514D01*
X187696194Y-80644134D01*
X187694096Y-80648570D01*
X187691573Y-80652779D01*
X187688651Y-80656720D01*
X187685355Y-80660355D01*
X187681720Y-80663651D01*
X187677779Y-80666573D01*
X187673570Y-80669096D01*
X187669134Y-80671194D01*
X187664514Y-80672847D01*
X187659755Y-80674039D01*
X187654901Y-80674759D01*
X187650000Y-80675000D01*
X187550000Y-80675000D01*
X187545099Y-80674759D01*
X187540245Y-80674039D01*
X187535486Y-80672847D01*
X187530866Y-80671194D01*
X187526430Y-80669096D01*
X187522221Y-80666573D01*
X187518280Y-80663651D01*
X187514645Y-80660355D01*
X187511349Y-80656720D01*
X187508427Y-80652779D01*
X187505904Y-80648570D01*
X187503806Y-80644134D01*
X187502153Y-80639514D01*
X187500961Y-80634755D01*
X187500241Y-80629901D01*
X187500000Y-80625000D01*
X187500000Y-79850000D01*
X187500241Y-79845099D01*
X187500961Y-79840245D01*
X187502153Y-79835486D01*
X187503806Y-79830866D01*
X187505904Y-79826430D01*
X187508427Y-79822221D01*
X187511349Y-79818280D01*
X187514645Y-79814645D01*
X187518280Y-79811349D01*
X187522221Y-79808427D01*
X187526430Y-79805904D01*
X187530866Y-79803806D01*
X187535486Y-79802153D01*
X187540245Y-79800961D01*
X187545099Y-79800241D01*
X187550000Y-79800000D01*
X187650000Y-79800000D01*
X187654901Y-79800241D01*
G37*
G36*
X187254901Y-79800241D02*
G01*
X187259755Y-79800961D01*
X187264514Y-79802153D01*
X187269134Y-79803806D01*
X187273570Y-79805904D01*
X187277779Y-79808427D01*
X187281720Y-79811349D01*
X187285355Y-79814645D01*
X187288651Y-79818280D01*
X187291573Y-79822221D01*
X187294096Y-79826430D01*
X187296194Y-79830866D01*
X187297847Y-79835486D01*
X187299039Y-79840245D01*
X187299759Y-79845099D01*
X187300000Y-79850000D01*
X187300000Y-80625000D01*
X187299759Y-80629901D01*
X187299039Y-80634755D01*
X187297847Y-80639514D01*
X187296194Y-80644134D01*
X187294096Y-80648570D01*
X187291573Y-80652779D01*
X187288651Y-80656720D01*
X187285355Y-80660355D01*
X187281720Y-80663651D01*
X187277779Y-80666573D01*
X187273570Y-80669096D01*
X187269134Y-80671194D01*
X187264514Y-80672847D01*
X187259755Y-80674039D01*
X187254901Y-80674759D01*
X187250000Y-80675000D01*
X187150000Y-80675000D01*
X187145099Y-80674759D01*
X187140245Y-80674039D01*
X187135486Y-80672847D01*
X187130866Y-80671194D01*
X187126430Y-80669096D01*
X187122221Y-80666573D01*
X187118280Y-80663651D01*
X187114645Y-80660355D01*
X187111349Y-80656720D01*
X187108427Y-80652779D01*
X187105904Y-80648570D01*
X187103806Y-80644134D01*
X187102153Y-80639514D01*
X187100961Y-80634755D01*
X187100241Y-80629901D01*
X187100000Y-80625000D01*
X187100000Y-79850000D01*
X187100241Y-79845099D01*
X187100961Y-79840245D01*
X187102153Y-79835486D01*
X187103806Y-79830866D01*
X187105904Y-79826430D01*
X187108427Y-79822221D01*
X187111349Y-79818280D01*
X187114645Y-79814645D01*
X187118280Y-79811349D01*
X187122221Y-79808427D01*
X187126430Y-79805904D01*
X187130866Y-79803806D01*
X187135486Y-79802153D01*
X187140245Y-79800961D01*
X187145099Y-79800241D01*
X187150000Y-79800000D01*
X187250000Y-79800000D01*
X187254901Y-79800241D01*
G37*
G36*
X186854901Y-79800241D02*
G01*
X186859755Y-79800961D01*
X186864514Y-79802153D01*
X186869134Y-79803806D01*
X186873570Y-79805904D01*
X186877779Y-79808427D01*
X186881720Y-79811349D01*
X186885355Y-79814645D01*
X186888651Y-79818280D01*
X186891573Y-79822221D01*
X186894096Y-79826430D01*
X186896194Y-79830866D01*
X186897847Y-79835486D01*
X186899039Y-79840245D01*
X186899759Y-79845099D01*
X186900000Y-79850000D01*
X186900000Y-80625000D01*
X186899759Y-80629901D01*
X186899039Y-80634755D01*
X186897847Y-80639514D01*
X186896194Y-80644134D01*
X186894096Y-80648570D01*
X186891573Y-80652779D01*
X186888651Y-80656720D01*
X186885355Y-80660355D01*
X186881720Y-80663651D01*
X186877779Y-80666573D01*
X186873570Y-80669096D01*
X186869134Y-80671194D01*
X186864514Y-80672847D01*
X186859755Y-80674039D01*
X186854901Y-80674759D01*
X186850000Y-80675000D01*
X186750000Y-80675000D01*
X186745099Y-80674759D01*
X186740245Y-80674039D01*
X186735486Y-80672847D01*
X186730866Y-80671194D01*
X186726430Y-80669096D01*
X186722221Y-80666573D01*
X186718280Y-80663651D01*
X186714645Y-80660355D01*
X186711349Y-80656720D01*
X186708427Y-80652779D01*
X186705904Y-80648570D01*
X186703806Y-80644134D01*
X186702153Y-80639514D01*
X186700961Y-80634755D01*
X186700241Y-80629901D01*
X186700000Y-80625000D01*
X186700000Y-79850000D01*
X186700241Y-79845099D01*
X186700961Y-79840245D01*
X186702153Y-79835486D01*
X186703806Y-79830866D01*
X186705904Y-79826430D01*
X186708427Y-79822221D01*
X186711349Y-79818280D01*
X186714645Y-79814645D01*
X186718280Y-79811349D01*
X186722221Y-79808427D01*
X186726430Y-79805904D01*
X186730866Y-79803806D01*
X186735486Y-79802153D01*
X186740245Y-79800961D01*
X186745099Y-79800241D01*
X186750000Y-79800000D01*
X186850000Y-79800000D01*
X186854901Y-79800241D01*
G37*
G36*
X186454901Y-79800241D02*
G01*
X186459755Y-79800961D01*
X186464514Y-79802153D01*
X186469134Y-79803806D01*
X186473570Y-79805904D01*
X186477779Y-79808427D01*
X186481720Y-79811349D01*
X186485355Y-79814645D01*
X186488651Y-79818280D01*
X186491573Y-79822221D01*
X186494096Y-79826430D01*
X186496194Y-79830866D01*
X186497847Y-79835486D01*
X186499039Y-79840245D01*
X186499759Y-79845099D01*
X186500000Y-79850000D01*
X186500000Y-80625000D01*
X186499759Y-80629901D01*
X186499039Y-80634755D01*
X186497847Y-80639514D01*
X186496194Y-80644134D01*
X186494096Y-80648570D01*
X186491573Y-80652779D01*
X186488651Y-80656720D01*
X186485355Y-80660355D01*
X186481720Y-80663651D01*
X186477779Y-80666573D01*
X186473570Y-80669096D01*
X186469134Y-80671194D01*
X186464514Y-80672847D01*
X186459755Y-80674039D01*
X186454901Y-80674759D01*
X186450000Y-80675000D01*
X186350000Y-80675000D01*
X186345099Y-80674759D01*
X186340245Y-80674039D01*
X186335486Y-80672847D01*
X186330866Y-80671194D01*
X186326430Y-80669096D01*
X186322221Y-80666573D01*
X186318280Y-80663651D01*
X186314645Y-80660355D01*
X186311349Y-80656720D01*
X186308427Y-80652779D01*
X186305904Y-80648570D01*
X186303806Y-80644134D01*
X186302153Y-80639514D01*
X186300961Y-80634755D01*
X186300241Y-80629901D01*
X186300000Y-80625000D01*
X186300000Y-79850000D01*
X186300241Y-79845099D01*
X186300961Y-79840245D01*
X186302153Y-79835486D01*
X186303806Y-79830866D01*
X186305904Y-79826430D01*
X186308427Y-79822221D01*
X186311349Y-79818280D01*
X186314645Y-79814645D01*
X186318280Y-79811349D01*
X186322221Y-79808427D01*
X186326430Y-79805904D01*
X186330866Y-79803806D01*
X186335486Y-79802153D01*
X186340245Y-79800961D01*
X186345099Y-79800241D01*
X186350000Y-79800000D01*
X186450000Y-79800000D01*
X186454901Y-79800241D01*
G37*
G36*
X186054901Y-79800241D02*
G01*
X186059755Y-79800961D01*
X186064514Y-79802153D01*
X186069134Y-79803806D01*
X186073570Y-79805904D01*
X186077779Y-79808427D01*
X186081720Y-79811349D01*
X186085355Y-79814645D01*
X186088651Y-79818280D01*
X186091573Y-79822221D01*
X186094096Y-79826430D01*
X186096194Y-79830866D01*
X186097847Y-79835486D01*
X186099039Y-79840245D01*
X186099759Y-79845099D01*
X186100000Y-79850000D01*
X186100000Y-80625000D01*
X186099759Y-80629901D01*
X186099039Y-80634755D01*
X186097847Y-80639514D01*
X186096194Y-80644134D01*
X186094096Y-80648570D01*
X186091573Y-80652779D01*
X186088651Y-80656720D01*
X186085355Y-80660355D01*
X186081720Y-80663651D01*
X186077779Y-80666573D01*
X186073570Y-80669096D01*
X186069134Y-80671194D01*
X186064514Y-80672847D01*
X186059755Y-80674039D01*
X186054901Y-80674759D01*
X186050000Y-80675000D01*
X185950000Y-80675000D01*
X185945099Y-80674759D01*
X185940245Y-80674039D01*
X185935486Y-80672847D01*
X185930866Y-80671194D01*
X185926430Y-80669096D01*
X185922221Y-80666573D01*
X185918280Y-80663651D01*
X185914645Y-80660355D01*
X185911349Y-80656720D01*
X185908427Y-80652779D01*
X185905904Y-80648570D01*
X185903806Y-80644134D01*
X185902153Y-80639514D01*
X185900961Y-80634755D01*
X185900241Y-80629901D01*
X185900000Y-80625000D01*
X185900000Y-79850000D01*
X185900241Y-79845099D01*
X185900961Y-79840245D01*
X185902153Y-79835486D01*
X185903806Y-79830866D01*
X185905904Y-79826430D01*
X185908427Y-79822221D01*
X185911349Y-79818280D01*
X185914645Y-79814645D01*
X185918280Y-79811349D01*
X185922221Y-79808427D01*
X185926430Y-79805904D01*
X185930866Y-79803806D01*
X185935486Y-79802153D01*
X185940245Y-79800961D01*
X185945099Y-79800241D01*
X185950000Y-79800000D01*
X186050000Y-79800000D01*
X186054901Y-79800241D01*
G37*
G36*
X185654901Y-79800241D02*
G01*
X185659755Y-79800961D01*
X185664514Y-79802153D01*
X185669134Y-79803806D01*
X185673570Y-79805904D01*
X185677779Y-79808427D01*
X185681720Y-79811349D01*
X185685355Y-79814645D01*
X185688651Y-79818280D01*
X185691573Y-79822221D01*
X185694096Y-79826430D01*
X185696194Y-79830866D01*
X185697847Y-79835486D01*
X185699039Y-79840245D01*
X185699759Y-79845099D01*
X185700000Y-79850000D01*
X185700000Y-80625000D01*
X185699759Y-80629901D01*
X185699039Y-80634755D01*
X185697847Y-80639514D01*
X185696194Y-80644134D01*
X185694096Y-80648570D01*
X185691573Y-80652779D01*
X185688651Y-80656720D01*
X185685355Y-80660355D01*
X185681720Y-80663651D01*
X185677779Y-80666573D01*
X185673570Y-80669096D01*
X185669134Y-80671194D01*
X185664514Y-80672847D01*
X185659755Y-80674039D01*
X185654901Y-80674759D01*
X185650000Y-80675000D01*
X185550000Y-80675000D01*
X185545099Y-80674759D01*
X185540245Y-80674039D01*
X185535486Y-80672847D01*
X185530866Y-80671194D01*
X185526430Y-80669096D01*
X185522221Y-80666573D01*
X185518280Y-80663651D01*
X185514645Y-80660355D01*
X185511349Y-80656720D01*
X185508427Y-80652779D01*
X185505904Y-80648570D01*
X185503806Y-80644134D01*
X185502153Y-80639514D01*
X185500961Y-80634755D01*
X185500241Y-80629901D01*
X185500000Y-80625000D01*
X185500000Y-79850000D01*
X185500241Y-79845099D01*
X185500961Y-79840245D01*
X185502153Y-79835486D01*
X185503806Y-79830866D01*
X185505904Y-79826430D01*
X185508427Y-79822221D01*
X185511349Y-79818280D01*
X185514645Y-79814645D01*
X185518280Y-79811349D01*
X185522221Y-79808427D01*
X185526430Y-79805904D01*
X185530866Y-79803806D01*
X185535486Y-79802153D01*
X185540245Y-79800961D01*
X185545099Y-79800241D01*
X185550000Y-79800000D01*
X185650000Y-79800000D01*
X185654901Y-79800241D01*
G37*
G36*
X185254901Y-79800241D02*
G01*
X185259755Y-79800961D01*
X185264514Y-79802153D01*
X185269134Y-79803806D01*
X185273570Y-79805904D01*
X185277779Y-79808427D01*
X185281720Y-79811349D01*
X185285355Y-79814645D01*
X185288651Y-79818280D01*
X185291573Y-79822221D01*
X185294096Y-79826430D01*
X185296194Y-79830866D01*
X185297847Y-79835486D01*
X185299039Y-79840245D01*
X185299759Y-79845099D01*
X185300000Y-79850000D01*
X185300000Y-80625000D01*
X185299759Y-80629901D01*
X185299039Y-80634755D01*
X185297847Y-80639514D01*
X185296194Y-80644134D01*
X185294096Y-80648570D01*
X185291573Y-80652779D01*
X185288651Y-80656720D01*
X185285355Y-80660355D01*
X185281720Y-80663651D01*
X185277779Y-80666573D01*
X185273570Y-80669096D01*
X185269134Y-80671194D01*
X185264514Y-80672847D01*
X185259755Y-80674039D01*
X185254901Y-80674759D01*
X185250000Y-80675000D01*
X185150000Y-80675000D01*
X185145099Y-80674759D01*
X185140245Y-80674039D01*
X185135486Y-80672847D01*
X185130866Y-80671194D01*
X185126430Y-80669096D01*
X185122221Y-80666573D01*
X185118280Y-80663651D01*
X185114645Y-80660355D01*
X185111349Y-80656720D01*
X185108427Y-80652779D01*
X185105904Y-80648570D01*
X185103806Y-80644134D01*
X185102153Y-80639514D01*
X185100961Y-80634755D01*
X185100241Y-80629901D01*
X185100000Y-80625000D01*
X185100000Y-79850000D01*
X185100241Y-79845099D01*
X185100961Y-79840245D01*
X185102153Y-79835486D01*
X185103806Y-79830866D01*
X185105904Y-79826430D01*
X185108427Y-79822221D01*
X185111349Y-79818280D01*
X185114645Y-79814645D01*
X185118280Y-79811349D01*
X185122221Y-79808427D01*
X185126430Y-79805904D01*
X185130866Y-79803806D01*
X185135486Y-79802153D01*
X185140245Y-79800961D01*
X185145099Y-79800241D01*
X185150000Y-79800000D01*
X185250000Y-79800000D01*
X185254901Y-79800241D01*
G37*
G36*
X184854901Y-79800241D02*
G01*
X184859755Y-79800961D01*
X184864514Y-79802153D01*
X184869134Y-79803806D01*
X184873570Y-79805904D01*
X184877779Y-79808427D01*
X184881720Y-79811349D01*
X184885355Y-79814645D01*
X184888651Y-79818280D01*
X184891573Y-79822221D01*
X184894096Y-79826430D01*
X184896194Y-79830866D01*
X184897847Y-79835486D01*
X184899039Y-79840245D01*
X184899759Y-79845099D01*
X184900000Y-79850000D01*
X184900000Y-80625000D01*
X184899759Y-80629901D01*
X184899039Y-80634755D01*
X184897847Y-80639514D01*
X184896194Y-80644134D01*
X184894096Y-80648570D01*
X184891573Y-80652779D01*
X184888651Y-80656720D01*
X184885355Y-80660355D01*
X184881720Y-80663651D01*
X184877779Y-80666573D01*
X184873570Y-80669096D01*
X184869134Y-80671194D01*
X184864514Y-80672847D01*
X184859755Y-80674039D01*
X184854901Y-80674759D01*
X184850000Y-80675000D01*
X184750000Y-80675000D01*
X184745099Y-80674759D01*
X184740245Y-80674039D01*
X184735486Y-80672847D01*
X184730866Y-80671194D01*
X184726430Y-80669096D01*
X184722221Y-80666573D01*
X184718280Y-80663651D01*
X184714645Y-80660355D01*
X184711349Y-80656720D01*
X184708427Y-80652779D01*
X184705904Y-80648570D01*
X184703806Y-80644134D01*
X184702153Y-80639514D01*
X184700961Y-80634755D01*
X184700241Y-80629901D01*
X184700000Y-80625000D01*
X184700000Y-79850000D01*
X184700241Y-79845099D01*
X184700961Y-79840245D01*
X184702153Y-79835486D01*
X184703806Y-79830866D01*
X184705904Y-79826430D01*
X184708427Y-79822221D01*
X184711349Y-79818280D01*
X184714645Y-79814645D01*
X184718280Y-79811349D01*
X184722221Y-79808427D01*
X184726430Y-79805904D01*
X184730866Y-79803806D01*
X184735486Y-79802153D01*
X184740245Y-79800961D01*
X184745099Y-79800241D01*
X184750000Y-79800000D01*
X184850000Y-79800000D01*
X184854901Y-79800241D01*
G37*
G36*
X184454901Y-79800241D02*
G01*
X184459755Y-79800961D01*
X184464514Y-79802153D01*
X184469134Y-79803806D01*
X184473570Y-79805904D01*
X184477779Y-79808427D01*
X184481720Y-79811349D01*
X184485355Y-79814645D01*
X184488651Y-79818280D01*
X184491573Y-79822221D01*
X184494096Y-79826430D01*
X184496194Y-79830866D01*
X184497847Y-79835486D01*
X184499039Y-79840245D01*
X184499759Y-79845099D01*
X184500000Y-79850000D01*
X184500000Y-80625000D01*
X184499759Y-80629901D01*
X184499039Y-80634755D01*
X184497847Y-80639514D01*
X184496194Y-80644134D01*
X184494096Y-80648570D01*
X184491573Y-80652779D01*
X184488651Y-80656720D01*
X184485355Y-80660355D01*
X184481720Y-80663651D01*
X184477779Y-80666573D01*
X184473570Y-80669096D01*
X184469134Y-80671194D01*
X184464514Y-80672847D01*
X184459755Y-80674039D01*
X184454901Y-80674759D01*
X184450000Y-80675000D01*
X184350000Y-80675000D01*
X184345099Y-80674759D01*
X184340245Y-80674039D01*
X184335486Y-80672847D01*
X184330866Y-80671194D01*
X184326430Y-80669096D01*
X184322221Y-80666573D01*
X184318280Y-80663651D01*
X184314645Y-80660355D01*
X184311349Y-80656720D01*
X184308427Y-80652779D01*
X184305904Y-80648570D01*
X184303806Y-80644134D01*
X184302153Y-80639514D01*
X184300961Y-80634755D01*
X184300241Y-80629901D01*
X184300000Y-80625000D01*
X184300000Y-79850000D01*
X184300241Y-79845099D01*
X184300961Y-79840245D01*
X184302153Y-79835486D01*
X184303806Y-79830866D01*
X184305904Y-79826430D01*
X184308427Y-79822221D01*
X184311349Y-79818280D01*
X184314645Y-79814645D01*
X184318280Y-79811349D01*
X184322221Y-79808427D01*
X184326430Y-79805904D01*
X184330866Y-79803806D01*
X184335486Y-79802153D01*
X184340245Y-79800961D01*
X184345099Y-79800241D01*
X184350000Y-79800000D01*
X184450000Y-79800000D01*
X184454901Y-79800241D01*
G37*
G36*
X184054901Y-79800241D02*
G01*
X184059755Y-79800961D01*
X184064514Y-79802153D01*
X184069134Y-79803806D01*
X184073570Y-79805904D01*
X184077779Y-79808427D01*
X184081720Y-79811349D01*
X184085355Y-79814645D01*
X184088651Y-79818280D01*
X184091573Y-79822221D01*
X184094096Y-79826430D01*
X184096194Y-79830866D01*
X184097847Y-79835486D01*
X184099039Y-79840245D01*
X184099759Y-79845099D01*
X184100000Y-79850000D01*
X184100000Y-80625000D01*
X184099759Y-80629901D01*
X184099039Y-80634755D01*
X184097847Y-80639514D01*
X184096194Y-80644134D01*
X184094096Y-80648570D01*
X184091573Y-80652779D01*
X184088651Y-80656720D01*
X184085355Y-80660355D01*
X184081720Y-80663651D01*
X184077779Y-80666573D01*
X184073570Y-80669096D01*
X184069134Y-80671194D01*
X184064514Y-80672847D01*
X184059755Y-80674039D01*
X184054901Y-80674759D01*
X184050000Y-80675000D01*
X183950000Y-80675000D01*
X183945099Y-80674759D01*
X183940245Y-80674039D01*
X183935486Y-80672847D01*
X183930866Y-80671194D01*
X183926430Y-80669096D01*
X183922221Y-80666573D01*
X183918280Y-80663651D01*
X183914645Y-80660355D01*
X183911349Y-80656720D01*
X183908427Y-80652779D01*
X183905904Y-80648570D01*
X183903806Y-80644134D01*
X183902153Y-80639514D01*
X183900961Y-80634755D01*
X183900241Y-80629901D01*
X183900000Y-80625000D01*
X183900000Y-79850000D01*
X183900241Y-79845099D01*
X183900961Y-79840245D01*
X183902153Y-79835486D01*
X183903806Y-79830866D01*
X183905904Y-79826430D01*
X183908427Y-79822221D01*
X183911349Y-79818280D01*
X183914645Y-79814645D01*
X183918280Y-79811349D01*
X183922221Y-79808427D01*
X183926430Y-79805904D01*
X183930866Y-79803806D01*
X183935486Y-79802153D01*
X183940245Y-79800961D01*
X183945099Y-79800241D01*
X183950000Y-79800000D01*
X184050000Y-79800000D01*
X184054901Y-79800241D01*
G37*
G36*
X183654901Y-79800241D02*
G01*
X183659755Y-79800961D01*
X183664514Y-79802153D01*
X183669134Y-79803806D01*
X183673570Y-79805904D01*
X183677779Y-79808427D01*
X183681720Y-79811349D01*
X183685355Y-79814645D01*
X183688651Y-79818280D01*
X183691573Y-79822221D01*
X183694096Y-79826430D01*
X183696194Y-79830866D01*
X183697847Y-79835486D01*
X183699039Y-79840245D01*
X183699759Y-79845099D01*
X183700000Y-79850000D01*
X183700000Y-80625000D01*
X183699759Y-80629901D01*
X183699039Y-80634755D01*
X183697847Y-80639514D01*
X183696194Y-80644134D01*
X183694096Y-80648570D01*
X183691573Y-80652779D01*
X183688651Y-80656720D01*
X183685355Y-80660355D01*
X183681720Y-80663651D01*
X183677779Y-80666573D01*
X183673570Y-80669096D01*
X183669134Y-80671194D01*
X183664514Y-80672847D01*
X183659755Y-80674039D01*
X183654901Y-80674759D01*
X183650000Y-80675000D01*
X183550000Y-80675000D01*
X183545099Y-80674759D01*
X183540245Y-80674039D01*
X183535486Y-80672847D01*
X183530866Y-80671194D01*
X183526430Y-80669096D01*
X183522221Y-80666573D01*
X183518280Y-80663651D01*
X183514645Y-80660355D01*
X183511349Y-80656720D01*
X183508427Y-80652779D01*
X183505904Y-80648570D01*
X183503806Y-80644134D01*
X183502153Y-80639514D01*
X183500961Y-80634755D01*
X183500241Y-80629901D01*
X183500000Y-80625000D01*
X183500000Y-79850000D01*
X183500241Y-79845099D01*
X183500961Y-79840245D01*
X183502153Y-79835486D01*
X183503806Y-79830866D01*
X183505904Y-79826430D01*
X183508427Y-79822221D01*
X183511349Y-79818280D01*
X183514645Y-79814645D01*
X183518280Y-79811349D01*
X183522221Y-79808427D01*
X183526430Y-79805904D01*
X183530866Y-79803806D01*
X183535486Y-79802153D01*
X183540245Y-79800961D01*
X183545099Y-79800241D01*
X183550000Y-79800000D01*
X183650000Y-79800000D01*
X183654901Y-79800241D01*
G37*
G36*
X183254901Y-79800241D02*
G01*
X183259755Y-79800961D01*
X183264514Y-79802153D01*
X183269134Y-79803806D01*
X183273570Y-79805904D01*
X183277779Y-79808427D01*
X183281720Y-79811349D01*
X183285355Y-79814645D01*
X183288651Y-79818280D01*
X183291573Y-79822221D01*
X183294096Y-79826430D01*
X183296194Y-79830866D01*
X183297847Y-79835486D01*
X183299039Y-79840245D01*
X183299759Y-79845099D01*
X183300000Y-79850000D01*
X183300000Y-80625000D01*
X183299759Y-80629901D01*
X183299039Y-80634755D01*
X183297847Y-80639514D01*
X183296194Y-80644134D01*
X183294096Y-80648570D01*
X183291573Y-80652779D01*
X183288651Y-80656720D01*
X183285355Y-80660355D01*
X183281720Y-80663651D01*
X183277779Y-80666573D01*
X183273570Y-80669096D01*
X183269134Y-80671194D01*
X183264514Y-80672847D01*
X183259755Y-80674039D01*
X183254901Y-80674759D01*
X183250000Y-80675000D01*
X183150000Y-80675000D01*
X183145099Y-80674759D01*
X183140245Y-80674039D01*
X183135486Y-80672847D01*
X183130866Y-80671194D01*
X183126430Y-80669096D01*
X183122221Y-80666573D01*
X183118280Y-80663651D01*
X183114645Y-80660355D01*
X183111349Y-80656720D01*
X183108427Y-80652779D01*
X183105904Y-80648570D01*
X183103806Y-80644134D01*
X183102153Y-80639514D01*
X183100961Y-80634755D01*
X183100241Y-80629901D01*
X183100000Y-80625000D01*
X183100000Y-79850000D01*
X183100241Y-79845099D01*
X183100961Y-79840245D01*
X183102153Y-79835486D01*
X183103806Y-79830866D01*
X183105904Y-79826430D01*
X183108427Y-79822221D01*
X183111349Y-79818280D01*
X183114645Y-79814645D01*
X183118280Y-79811349D01*
X183122221Y-79808427D01*
X183126430Y-79805904D01*
X183130866Y-79803806D01*
X183135486Y-79802153D01*
X183140245Y-79800961D01*
X183145099Y-79800241D01*
X183150000Y-79800000D01*
X183250000Y-79800000D01*
X183254901Y-79800241D01*
G37*
G36*
X182854901Y-79800241D02*
G01*
X182859755Y-79800961D01*
X182864514Y-79802153D01*
X182869134Y-79803806D01*
X182873570Y-79805904D01*
X182877779Y-79808427D01*
X182881720Y-79811349D01*
X182885355Y-79814645D01*
X182888651Y-79818280D01*
X182891573Y-79822221D01*
X182894096Y-79826430D01*
X182896194Y-79830866D01*
X182897847Y-79835486D01*
X182899039Y-79840245D01*
X182899759Y-79845099D01*
X182900000Y-79850000D01*
X182900000Y-80625000D01*
X182899759Y-80629901D01*
X182899039Y-80634755D01*
X182897847Y-80639514D01*
X182896194Y-80644134D01*
X182894096Y-80648570D01*
X182891573Y-80652779D01*
X182888651Y-80656720D01*
X182885355Y-80660355D01*
X182881720Y-80663651D01*
X182877779Y-80666573D01*
X182873570Y-80669096D01*
X182869134Y-80671194D01*
X182864514Y-80672847D01*
X182859755Y-80674039D01*
X182854901Y-80674759D01*
X182850000Y-80675000D01*
X182750000Y-80675000D01*
X182745099Y-80674759D01*
X182740245Y-80674039D01*
X182735486Y-80672847D01*
X182730866Y-80671194D01*
X182726430Y-80669096D01*
X182722221Y-80666573D01*
X182718280Y-80663651D01*
X182714645Y-80660355D01*
X182711349Y-80656720D01*
X182708427Y-80652779D01*
X182705904Y-80648570D01*
X182703806Y-80644134D01*
X182702153Y-80639514D01*
X182700961Y-80634755D01*
X182700241Y-80629901D01*
X182700000Y-80625000D01*
X182700000Y-79850000D01*
X182700241Y-79845099D01*
X182700961Y-79840245D01*
X182702153Y-79835486D01*
X182703806Y-79830866D01*
X182705904Y-79826430D01*
X182708427Y-79822221D01*
X182711349Y-79818280D01*
X182714645Y-79814645D01*
X182718280Y-79811349D01*
X182722221Y-79808427D01*
X182726430Y-79805904D01*
X182730866Y-79803806D01*
X182735486Y-79802153D01*
X182740245Y-79800961D01*
X182745099Y-79800241D01*
X182750000Y-79800000D01*
X182850000Y-79800000D01*
X182854901Y-79800241D01*
G37*
G36*
X182454901Y-79800241D02*
G01*
X182459755Y-79800961D01*
X182464514Y-79802153D01*
X182469134Y-79803806D01*
X182473570Y-79805904D01*
X182477779Y-79808427D01*
X182481720Y-79811349D01*
X182485355Y-79814645D01*
X182488651Y-79818280D01*
X182491573Y-79822221D01*
X182494096Y-79826430D01*
X182496194Y-79830866D01*
X182497847Y-79835486D01*
X182499039Y-79840245D01*
X182499759Y-79845099D01*
X182500000Y-79850000D01*
X182500000Y-80625000D01*
X182499759Y-80629901D01*
X182499039Y-80634755D01*
X182497847Y-80639514D01*
X182496194Y-80644134D01*
X182494096Y-80648570D01*
X182491573Y-80652779D01*
X182488651Y-80656720D01*
X182485355Y-80660355D01*
X182481720Y-80663651D01*
X182477779Y-80666573D01*
X182473570Y-80669096D01*
X182469134Y-80671194D01*
X182464514Y-80672847D01*
X182459755Y-80674039D01*
X182454901Y-80674759D01*
X182450000Y-80675000D01*
X182350000Y-80675000D01*
X182345099Y-80674759D01*
X182340245Y-80674039D01*
X182335486Y-80672847D01*
X182330866Y-80671194D01*
X182326430Y-80669096D01*
X182322221Y-80666573D01*
X182318280Y-80663651D01*
X182314645Y-80660355D01*
X182311349Y-80656720D01*
X182308427Y-80652779D01*
X182305904Y-80648570D01*
X182303806Y-80644134D01*
X182302153Y-80639514D01*
X182300961Y-80634755D01*
X182300241Y-80629901D01*
X182300000Y-80625000D01*
X182300000Y-79850000D01*
X182300241Y-79845099D01*
X182300961Y-79840245D01*
X182302153Y-79835486D01*
X182303806Y-79830866D01*
X182305904Y-79826430D01*
X182308427Y-79822221D01*
X182311349Y-79818280D01*
X182314645Y-79814645D01*
X182318280Y-79811349D01*
X182322221Y-79808427D01*
X182326430Y-79805904D01*
X182330866Y-79803806D01*
X182335486Y-79802153D01*
X182340245Y-79800961D01*
X182345099Y-79800241D01*
X182350000Y-79800000D01*
X182450000Y-79800000D01*
X182454901Y-79800241D01*
G37*
G36*
X181954901Y-79300241D02*
G01*
X181959755Y-79300961D01*
X181964514Y-79302153D01*
X181969134Y-79303806D01*
X181973570Y-79305904D01*
X181977779Y-79308427D01*
X181981720Y-79311349D01*
X181985355Y-79314645D01*
X181988651Y-79318280D01*
X181991573Y-79322221D01*
X181994096Y-79326430D01*
X181996194Y-79330866D01*
X181997847Y-79335486D01*
X181999039Y-79340245D01*
X181999759Y-79345099D01*
X182000000Y-79350000D01*
X182000000Y-79450000D01*
X181999759Y-79454901D01*
X181999039Y-79459755D01*
X181997847Y-79464514D01*
X181996194Y-79469134D01*
X181994096Y-79473570D01*
X181991573Y-79477779D01*
X181988651Y-79481720D01*
X181985355Y-79485355D01*
X181981720Y-79488651D01*
X181977779Y-79491573D01*
X181973570Y-79494096D01*
X181969134Y-79496194D01*
X181964514Y-79497847D01*
X181959755Y-79499039D01*
X181954901Y-79499759D01*
X181950000Y-79500000D01*
X181175000Y-79500000D01*
X181170099Y-79499759D01*
X181165245Y-79499039D01*
X181160486Y-79497847D01*
X181155866Y-79496194D01*
X181151430Y-79494096D01*
X181147221Y-79491573D01*
X181143280Y-79488651D01*
X181139645Y-79485355D01*
X181136349Y-79481720D01*
X181133427Y-79477779D01*
X181130904Y-79473570D01*
X181128806Y-79469134D01*
X181127153Y-79464514D01*
X181125961Y-79459755D01*
X181125241Y-79454901D01*
X181125000Y-79450000D01*
X181125000Y-79350000D01*
X181125241Y-79345099D01*
X181125961Y-79340245D01*
X181127153Y-79335486D01*
X181128806Y-79330866D01*
X181130904Y-79326430D01*
X181133427Y-79322221D01*
X181136349Y-79318280D01*
X181139645Y-79314645D01*
X181143280Y-79311349D01*
X181147221Y-79308427D01*
X181151430Y-79305904D01*
X181155866Y-79303806D01*
X181160486Y-79302153D01*
X181165245Y-79300961D01*
X181170099Y-79300241D01*
X181175000Y-79300000D01*
X181950000Y-79300000D01*
X181954901Y-79300241D01*
G37*
G36*
X181954901Y-78900241D02*
G01*
X181959755Y-78900961D01*
X181964514Y-78902153D01*
X181969134Y-78903806D01*
X181973570Y-78905904D01*
X181977779Y-78908427D01*
X181981720Y-78911349D01*
X181985355Y-78914645D01*
X181988651Y-78918280D01*
X181991573Y-78922221D01*
X181994096Y-78926430D01*
X181996194Y-78930866D01*
X181997847Y-78935486D01*
X181999039Y-78940245D01*
X181999759Y-78945099D01*
X182000000Y-78950000D01*
X182000000Y-79050000D01*
X181999759Y-79054901D01*
X181999039Y-79059755D01*
X181997847Y-79064514D01*
X181996194Y-79069134D01*
X181994096Y-79073570D01*
X181991573Y-79077779D01*
X181988651Y-79081720D01*
X181985355Y-79085355D01*
X181981720Y-79088651D01*
X181977779Y-79091573D01*
X181973570Y-79094096D01*
X181969134Y-79096194D01*
X181964514Y-79097847D01*
X181959755Y-79099039D01*
X181954901Y-79099759D01*
X181950000Y-79100000D01*
X181175000Y-79100000D01*
X181170099Y-79099759D01*
X181165245Y-79099039D01*
X181160486Y-79097847D01*
X181155866Y-79096194D01*
X181151430Y-79094096D01*
X181147221Y-79091573D01*
X181143280Y-79088651D01*
X181139645Y-79085355D01*
X181136349Y-79081720D01*
X181133427Y-79077779D01*
X181130904Y-79073570D01*
X181128806Y-79069134D01*
X181127153Y-79064514D01*
X181125961Y-79059755D01*
X181125241Y-79054901D01*
X181125000Y-79050000D01*
X181125000Y-78950000D01*
X181125241Y-78945099D01*
X181125961Y-78940245D01*
X181127153Y-78935486D01*
X181128806Y-78930866D01*
X181130904Y-78926430D01*
X181133427Y-78922221D01*
X181136349Y-78918280D01*
X181139645Y-78914645D01*
X181143280Y-78911349D01*
X181147221Y-78908427D01*
X181151430Y-78905904D01*
X181155866Y-78903806D01*
X181160486Y-78902153D01*
X181165245Y-78900961D01*
X181170099Y-78900241D01*
X181175000Y-78900000D01*
X181950000Y-78900000D01*
X181954901Y-78900241D01*
G37*
G36*
X181954901Y-78500241D02*
G01*
X181959755Y-78500961D01*
X181964514Y-78502153D01*
X181969134Y-78503806D01*
X181973570Y-78505904D01*
X181977779Y-78508427D01*
X181981720Y-78511349D01*
X181985355Y-78514645D01*
X181988651Y-78518280D01*
X181991573Y-78522221D01*
X181994096Y-78526430D01*
X181996194Y-78530866D01*
X181997847Y-78535486D01*
X181999039Y-78540245D01*
X181999759Y-78545099D01*
X182000000Y-78550000D01*
X182000000Y-78650000D01*
X181999759Y-78654901D01*
X181999039Y-78659755D01*
X181997847Y-78664514D01*
X181996194Y-78669134D01*
X181994096Y-78673570D01*
X181991573Y-78677779D01*
X181988651Y-78681720D01*
X181985355Y-78685355D01*
X181981720Y-78688651D01*
X181977779Y-78691573D01*
X181973570Y-78694096D01*
X181969134Y-78696194D01*
X181964514Y-78697847D01*
X181959755Y-78699039D01*
X181954901Y-78699759D01*
X181950000Y-78700000D01*
X181175000Y-78700000D01*
X181170099Y-78699759D01*
X181165245Y-78699039D01*
X181160486Y-78697847D01*
X181155866Y-78696194D01*
X181151430Y-78694096D01*
X181147221Y-78691573D01*
X181143280Y-78688651D01*
X181139645Y-78685355D01*
X181136349Y-78681720D01*
X181133427Y-78677779D01*
X181130904Y-78673570D01*
X181128806Y-78669134D01*
X181127153Y-78664514D01*
X181125961Y-78659755D01*
X181125241Y-78654901D01*
X181125000Y-78650000D01*
X181125000Y-78550000D01*
X181125241Y-78545099D01*
X181125961Y-78540245D01*
X181127153Y-78535486D01*
X181128806Y-78530866D01*
X181130904Y-78526430D01*
X181133427Y-78522221D01*
X181136349Y-78518280D01*
X181139645Y-78514645D01*
X181143280Y-78511349D01*
X181147221Y-78508427D01*
X181151430Y-78505904D01*
X181155866Y-78503806D01*
X181160486Y-78502153D01*
X181165245Y-78500961D01*
X181170099Y-78500241D01*
X181175000Y-78500000D01*
X181950000Y-78500000D01*
X181954901Y-78500241D01*
G37*
G36*
X181954901Y-78100241D02*
G01*
X181959755Y-78100961D01*
X181964514Y-78102153D01*
X181969134Y-78103806D01*
X181973570Y-78105904D01*
X181977779Y-78108427D01*
X181981720Y-78111349D01*
X181985355Y-78114645D01*
X181988651Y-78118280D01*
X181991573Y-78122221D01*
X181994096Y-78126430D01*
X181996194Y-78130866D01*
X181997847Y-78135486D01*
X181999039Y-78140245D01*
X181999759Y-78145099D01*
X182000000Y-78150000D01*
X182000000Y-78250000D01*
X181999759Y-78254901D01*
X181999039Y-78259755D01*
X181997847Y-78264514D01*
X181996194Y-78269134D01*
X181994096Y-78273570D01*
X181991573Y-78277779D01*
X181988651Y-78281720D01*
X181985355Y-78285355D01*
X181981720Y-78288651D01*
X181977779Y-78291573D01*
X181973570Y-78294096D01*
X181969134Y-78296194D01*
X181964514Y-78297847D01*
X181959755Y-78299039D01*
X181954901Y-78299759D01*
X181950000Y-78300000D01*
X181175000Y-78300000D01*
X181170099Y-78299759D01*
X181165245Y-78299039D01*
X181160486Y-78297847D01*
X181155866Y-78296194D01*
X181151430Y-78294096D01*
X181147221Y-78291573D01*
X181143280Y-78288651D01*
X181139645Y-78285355D01*
X181136349Y-78281720D01*
X181133427Y-78277779D01*
X181130904Y-78273570D01*
X181128806Y-78269134D01*
X181127153Y-78264514D01*
X181125961Y-78259755D01*
X181125241Y-78254901D01*
X181125000Y-78250000D01*
X181125000Y-78150000D01*
X181125241Y-78145099D01*
X181125961Y-78140245D01*
X181127153Y-78135486D01*
X181128806Y-78130866D01*
X181130904Y-78126430D01*
X181133427Y-78122221D01*
X181136349Y-78118280D01*
X181139645Y-78114645D01*
X181143280Y-78111349D01*
X181147221Y-78108427D01*
X181151430Y-78105904D01*
X181155866Y-78103806D01*
X181160486Y-78102153D01*
X181165245Y-78100961D01*
X181170099Y-78100241D01*
X181175000Y-78100000D01*
X181950000Y-78100000D01*
X181954901Y-78100241D01*
G37*
G36*
X181954901Y-77700241D02*
G01*
X181959755Y-77700961D01*
X181964514Y-77702153D01*
X181969134Y-77703806D01*
X181973570Y-77705904D01*
X181977779Y-77708427D01*
X181981720Y-77711349D01*
X181985355Y-77714645D01*
X181988651Y-77718280D01*
X181991573Y-77722221D01*
X181994096Y-77726430D01*
X181996194Y-77730866D01*
X181997847Y-77735486D01*
X181999039Y-77740245D01*
X181999759Y-77745099D01*
X182000000Y-77750000D01*
X182000000Y-77850000D01*
X181999759Y-77854901D01*
X181999039Y-77859755D01*
X181997847Y-77864514D01*
X181996194Y-77869134D01*
X181994096Y-77873570D01*
X181991573Y-77877779D01*
X181988651Y-77881720D01*
X181985355Y-77885355D01*
X181981720Y-77888651D01*
X181977779Y-77891573D01*
X181973570Y-77894096D01*
X181969134Y-77896194D01*
X181964514Y-77897847D01*
X181959755Y-77899039D01*
X181954901Y-77899759D01*
X181950000Y-77900000D01*
X181175000Y-77900000D01*
X181170099Y-77899759D01*
X181165245Y-77899039D01*
X181160486Y-77897847D01*
X181155866Y-77896194D01*
X181151430Y-77894096D01*
X181147221Y-77891573D01*
X181143280Y-77888651D01*
X181139645Y-77885355D01*
X181136349Y-77881720D01*
X181133427Y-77877779D01*
X181130904Y-77873570D01*
X181128806Y-77869134D01*
X181127153Y-77864514D01*
X181125961Y-77859755D01*
X181125241Y-77854901D01*
X181125000Y-77850000D01*
X181125000Y-77750000D01*
X181125241Y-77745099D01*
X181125961Y-77740245D01*
X181127153Y-77735486D01*
X181128806Y-77730866D01*
X181130904Y-77726430D01*
X181133427Y-77722221D01*
X181136349Y-77718280D01*
X181139645Y-77714645D01*
X181143280Y-77711349D01*
X181147221Y-77708427D01*
X181151430Y-77705904D01*
X181155866Y-77703806D01*
X181160486Y-77702153D01*
X181165245Y-77700961D01*
X181170099Y-77700241D01*
X181175000Y-77700000D01*
X181950000Y-77700000D01*
X181954901Y-77700241D01*
G37*
G36*
X181954901Y-77300241D02*
G01*
X181959755Y-77300961D01*
X181964514Y-77302153D01*
X181969134Y-77303806D01*
X181973570Y-77305904D01*
X181977779Y-77308427D01*
X181981720Y-77311349D01*
X181985355Y-77314645D01*
X181988651Y-77318280D01*
X181991573Y-77322221D01*
X181994096Y-77326430D01*
X181996194Y-77330866D01*
X181997847Y-77335486D01*
X181999039Y-77340245D01*
X181999759Y-77345099D01*
X182000000Y-77350000D01*
X182000000Y-77450000D01*
X181999759Y-77454901D01*
X181999039Y-77459755D01*
X181997847Y-77464514D01*
X181996194Y-77469134D01*
X181994096Y-77473570D01*
X181991573Y-77477779D01*
X181988651Y-77481720D01*
X181985355Y-77485355D01*
X181981720Y-77488651D01*
X181977779Y-77491573D01*
X181973570Y-77494096D01*
X181969134Y-77496194D01*
X181964514Y-77497847D01*
X181959755Y-77499039D01*
X181954901Y-77499759D01*
X181950000Y-77500000D01*
X181175000Y-77500000D01*
X181170099Y-77499759D01*
X181165245Y-77499039D01*
X181160486Y-77497847D01*
X181155866Y-77496194D01*
X181151430Y-77494096D01*
X181147221Y-77491573D01*
X181143280Y-77488651D01*
X181139645Y-77485355D01*
X181136349Y-77481720D01*
X181133427Y-77477779D01*
X181130904Y-77473570D01*
X181128806Y-77469134D01*
X181127153Y-77464514D01*
X181125961Y-77459755D01*
X181125241Y-77454901D01*
X181125000Y-77450000D01*
X181125000Y-77350000D01*
X181125241Y-77345099D01*
X181125961Y-77340245D01*
X181127153Y-77335486D01*
X181128806Y-77330866D01*
X181130904Y-77326430D01*
X181133427Y-77322221D01*
X181136349Y-77318280D01*
X181139645Y-77314645D01*
X181143280Y-77311349D01*
X181147221Y-77308427D01*
X181151430Y-77305904D01*
X181155866Y-77303806D01*
X181160486Y-77302153D01*
X181165245Y-77300961D01*
X181170099Y-77300241D01*
X181175000Y-77300000D01*
X181950000Y-77300000D01*
X181954901Y-77300241D01*
G37*
G36*
X181954901Y-76900241D02*
G01*
X181959755Y-76900961D01*
X181964514Y-76902153D01*
X181969134Y-76903806D01*
X181973570Y-76905904D01*
X181977779Y-76908427D01*
X181981720Y-76911349D01*
X181985355Y-76914645D01*
X181988651Y-76918280D01*
X181991573Y-76922221D01*
X181994096Y-76926430D01*
X181996194Y-76930866D01*
X181997847Y-76935486D01*
X181999039Y-76940245D01*
X181999759Y-76945099D01*
X182000000Y-76950000D01*
X182000000Y-77050000D01*
X181999759Y-77054901D01*
X181999039Y-77059755D01*
X181997847Y-77064514D01*
X181996194Y-77069134D01*
X181994096Y-77073570D01*
X181991573Y-77077779D01*
X181988651Y-77081720D01*
X181985355Y-77085355D01*
X181981720Y-77088651D01*
X181977779Y-77091573D01*
X181973570Y-77094096D01*
X181969134Y-77096194D01*
X181964514Y-77097847D01*
X181959755Y-77099039D01*
X181954901Y-77099759D01*
X181950000Y-77100000D01*
X181175000Y-77100000D01*
X181170099Y-77099759D01*
X181165245Y-77099039D01*
X181160486Y-77097847D01*
X181155866Y-77096194D01*
X181151430Y-77094096D01*
X181147221Y-77091573D01*
X181143280Y-77088651D01*
X181139645Y-77085355D01*
X181136349Y-77081720D01*
X181133427Y-77077779D01*
X181130904Y-77073570D01*
X181128806Y-77069134D01*
X181127153Y-77064514D01*
X181125961Y-77059755D01*
X181125241Y-77054901D01*
X181125000Y-77050000D01*
X181125000Y-76950000D01*
X181125241Y-76945099D01*
X181125961Y-76940245D01*
X181127153Y-76935486D01*
X181128806Y-76930866D01*
X181130904Y-76926430D01*
X181133427Y-76922221D01*
X181136349Y-76918280D01*
X181139645Y-76914645D01*
X181143280Y-76911349D01*
X181147221Y-76908427D01*
X181151430Y-76905904D01*
X181155866Y-76903806D01*
X181160486Y-76902153D01*
X181165245Y-76900961D01*
X181170099Y-76900241D01*
X181175000Y-76900000D01*
X181950000Y-76900000D01*
X181954901Y-76900241D01*
G37*
G36*
X181954901Y-76500241D02*
G01*
X181959755Y-76500961D01*
X181964514Y-76502153D01*
X181969134Y-76503806D01*
X181973570Y-76505904D01*
X181977779Y-76508427D01*
X181981720Y-76511349D01*
X181985355Y-76514645D01*
X181988651Y-76518280D01*
X181991573Y-76522221D01*
X181994096Y-76526430D01*
X181996194Y-76530866D01*
X181997847Y-76535486D01*
X181999039Y-76540245D01*
X181999759Y-76545099D01*
X182000000Y-76550000D01*
X182000000Y-76650000D01*
X181999759Y-76654901D01*
X181999039Y-76659755D01*
X181997847Y-76664514D01*
X181996194Y-76669134D01*
X181994096Y-76673570D01*
X181991573Y-76677779D01*
X181988651Y-76681720D01*
X181985355Y-76685355D01*
X181981720Y-76688651D01*
X181977779Y-76691573D01*
X181973570Y-76694096D01*
X181969134Y-76696194D01*
X181964514Y-76697847D01*
X181959755Y-76699039D01*
X181954901Y-76699759D01*
X181950000Y-76700000D01*
X181175000Y-76700000D01*
X181170099Y-76699759D01*
X181165245Y-76699039D01*
X181160486Y-76697847D01*
X181155866Y-76696194D01*
X181151430Y-76694096D01*
X181147221Y-76691573D01*
X181143280Y-76688651D01*
X181139645Y-76685355D01*
X181136349Y-76681720D01*
X181133427Y-76677779D01*
X181130904Y-76673570D01*
X181128806Y-76669134D01*
X181127153Y-76664514D01*
X181125961Y-76659755D01*
X181125241Y-76654901D01*
X181125000Y-76650000D01*
X181125000Y-76550000D01*
X181125241Y-76545099D01*
X181125961Y-76540245D01*
X181127153Y-76535486D01*
X181128806Y-76530866D01*
X181130904Y-76526430D01*
X181133427Y-76522221D01*
X181136349Y-76518280D01*
X181139645Y-76514645D01*
X181143280Y-76511349D01*
X181147221Y-76508427D01*
X181151430Y-76505904D01*
X181155866Y-76503806D01*
X181160486Y-76502153D01*
X181165245Y-76500961D01*
X181170099Y-76500241D01*
X181175000Y-76500000D01*
X181950000Y-76500000D01*
X181954901Y-76500241D01*
G37*
G36*
X181954901Y-76100241D02*
G01*
X181959755Y-76100961D01*
X181964514Y-76102153D01*
X181969134Y-76103806D01*
X181973570Y-76105904D01*
X181977779Y-76108427D01*
X181981720Y-76111349D01*
X181985355Y-76114645D01*
X181988651Y-76118280D01*
X181991573Y-76122221D01*
X181994096Y-76126430D01*
X181996194Y-76130866D01*
X181997847Y-76135486D01*
X181999039Y-76140245D01*
X181999759Y-76145099D01*
X182000000Y-76150000D01*
X182000000Y-76250000D01*
X181999759Y-76254901D01*
X181999039Y-76259755D01*
X181997847Y-76264514D01*
X181996194Y-76269134D01*
X181994096Y-76273570D01*
X181991573Y-76277779D01*
X181988651Y-76281720D01*
X181985355Y-76285355D01*
X181981720Y-76288651D01*
X181977779Y-76291573D01*
X181973570Y-76294096D01*
X181969134Y-76296194D01*
X181964514Y-76297847D01*
X181959755Y-76299039D01*
X181954901Y-76299759D01*
X181950000Y-76300000D01*
X181175000Y-76300000D01*
X181170099Y-76299759D01*
X181165245Y-76299039D01*
X181160486Y-76297847D01*
X181155866Y-76296194D01*
X181151430Y-76294096D01*
X181147221Y-76291573D01*
X181143280Y-76288651D01*
X181139645Y-76285355D01*
X181136349Y-76281720D01*
X181133427Y-76277779D01*
X181130904Y-76273570D01*
X181128806Y-76269134D01*
X181127153Y-76264514D01*
X181125961Y-76259755D01*
X181125241Y-76254901D01*
X181125000Y-76250000D01*
X181125000Y-76150000D01*
X181125241Y-76145099D01*
X181125961Y-76140245D01*
X181127153Y-76135486D01*
X181128806Y-76130866D01*
X181130904Y-76126430D01*
X181133427Y-76122221D01*
X181136349Y-76118280D01*
X181139645Y-76114645D01*
X181143280Y-76111349D01*
X181147221Y-76108427D01*
X181151430Y-76105904D01*
X181155866Y-76103806D01*
X181160486Y-76102153D01*
X181165245Y-76100961D01*
X181170099Y-76100241D01*
X181175000Y-76100000D01*
X181950000Y-76100000D01*
X181954901Y-76100241D01*
G37*
G36*
X181954901Y-75700241D02*
G01*
X181959755Y-75700961D01*
X181964514Y-75702153D01*
X181969134Y-75703806D01*
X181973570Y-75705904D01*
X181977779Y-75708427D01*
X181981720Y-75711349D01*
X181985355Y-75714645D01*
X181988651Y-75718280D01*
X181991573Y-75722221D01*
X181994096Y-75726430D01*
X181996194Y-75730866D01*
X181997847Y-75735486D01*
X181999039Y-75740245D01*
X181999759Y-75745099D01*
X182000000Y-75750000D01*
X182000000Y-75850000D01*
X181999759Y-75854901D01*
X181999039Y-75859755D01*
X181997847Y-75864514D01*
X181996194Y-75869134D01*
X181994096Y-75873570D01*
X181991573Y-75877779D01*
X181988651Y-75881720D01*
X181985355Y-75885355D01*
X181981720Y-75888651D01*
X181977779Y-75891573D01*
X181973570Y-75894096D01*
X181969134Y-75896194D01*
X181964514Y-75897847D01*
X181959755Y-75899039D01*
X181954901Y-75899759D01*
X181950000Y-75900000D01*
X181175000Y-75900000D01*
X181170099Y-75899759D01*
X181165245Y-75899039D01*
X181160486Y-75897847D01*
X181155866Y-75896194D01*
X181151430Y-75894096D01*
X181147221Y-75891573D01*
X181143280Y-75888651D01*
X181139645Y-75885355D01*
X181136349Y-75881720D01*
X181133427Y-75877779D01*
X181130904Y-75873570D01*
X181128806Y-75869134D01*
X181127153Y-75864514D01*
X181125961Y-75859755D01*
X181125241Y-75854901D01*
X181125000Y-75850000D01*
X181125000Y-75750000D01*
X181125241Y-75745099D01*
X181125961Y-75740245D01*
X181127153Y-75735486D01*
X181128806Y-75730866D01*
X181130904Y-75726430D01*
X181133427Y-75722221D01*
X181136349Y-75718280D01*
X181139645Y-75714645D01*
X181143280Y-75711349D01*
X181147221Y-75708427D01*
X181151430Y-75705904D01*
X181155866Y-75703806D01*
X181160486Y-75702153D01*
X181165245Y-75700961D01*
X181170099Y-75700241D01*
X181175000Y-75700000D01*
X181950000Y-75700000D01*
X181954901Y-75700241D01*
G37*
G36*
X181954901Y-75300241D02*
G01*
X181959755Y-75300961D01*
X181964514Y-75302153D01*
X181969134Y-75303806D01*
X181973570Y-75305904D01*
X181977779Y-75308427D01*
X181981720Y-75311349D01*
X181985355Y-75314645D01*
X181988651Y-75318280D01*
X181991573Y-75322221D01*
X181994096Y-75326430D01*
X181996194Y-75330866D01*
X181997847Y-75335486D01*
X181999039Y-75340245D01*
X181999759Y-75345099D01*
X182000000Y-75350000D01*
X182000000Y-75450000D01*
X181999759Y-75454901D01*
X181999039Y-75459755D01*
X181997847Y-75464514D01*
X181996194Y-75469134D01*
X181994096Y-75473570D01*
X181991573Y-75477779D01*
X181988651Y-75481720D01*
X181985355Y-75485355D01*
X181981720Y-75488651D01*
X181977779Y-75491573D01*
X181973570Y-75494096D01*
X181969134Y-75496194D01*
X181964514Y-75497847D01*
X181959755Y-75499039D01*
X181954901Y-75499759D01*
X181950000Y-75500000D01*
X181175000Y-75500000D01*
X181170099Y-75499759D01*
X181165245Y-75499039D01*
X181160486Y-75497847D01*
X181155866Y-75496194D01*
X181151430Y-75494096D01*
X181147221Y-75491573D01*
X181143280Y-75488651D01*
X181139645Y-75485355D01*
X181136349Y-75481720D01*
X181133427Y-75477779D01*
X181130904Y-75473570D01*
X181128806Y-75469134D01*
X181127153Y-75464514D01*
X181125961Y-75459755D01*
X181125241Y-75454901D01*
X181125000Y-75450000D01*
X181125000Y-75350000D01*
X181125241Y-75345099D01*
X181125961Y-75340245D01*
X181127153Y-75335486D01*
X181128806Y-75330866D01*
X181130904Y-75326430D01*
X181133427Y-75322221D01*
X181136349Y-75318280D01*
X181139645Y-75314645D01*
X181143280Y-75311349D01*
X181147221Y-75308427D01*
X181151430Y-75305904D01*
X181155866Y-75303806D01*
X181160486Y-75302153D01*
X181165245Y-75300961D01*
X181170099Y-75300241D01*
X181175000Y-75300000D01*
X181950000Y-75300000D01*
X181954901Y-75300241D01*
G37*
G36*
X181954901Y-74900241D02*
G01*
X181959755Y-74900961D01*
X181964514Y-74902153D01*
X181969134Y-74903806D01*
X181973570Y-74905904D01*
X181977779Y-74908427D01*
X181981720Y-74911349D01*
X181985355Y-74914645D01*
X181988651Y-74918280D01*
X181991573Y-74922221D01*
X181994096Y-74926430D01*
X181996194Y-74930866D01*
X181997847Y-74935486D01*
X181999039Y-74940245D01*
X181999759Y-74945099D01*
X182000000Y-74950000D01*
X182000000Y-75050000D01*
X181999759Y-75054901D01*
X181999039Y-75059755D01*
X181997847Y-75064514D01*
X181996194Y-75069134D01*
X181994096Y-75073570D01*
X181991573Y-75077779D01*
X181988651Y-75081720D01*
X181985355Y-75085355D01*
X181981720Y-75088651D01*
X181977779Y-75091573D01*
X181973570Y-75094096D01*
X181969134Y-75096194D01*
X181964514Y-75097847D01*
X181959755Y-75099039D01*
X181954901Y-75099759D01*
X181950000Y-75100000D01*
X181175000Y-75100000D01*
X181170099Y-75099759D01*
X181165245Y-75099039D01*
X181160486Y-75097847D01*
X181155866Y-75096194D01*
X181151430Y-75094096D01*
X181147221Y-75091573D01*
X181143280Y-75088651D01*
X181139645Y-75085355D01*
X181136349Y-75081720D01*
X181133427Y-75077779D01*
X181130904Y-75073570D01*
X181128806Y-75069134D01*
X181127153Y-75064514D01*
X181125961Y-75059755D01*
X181125241Y-75054901D01*
X181125000Y-75050000D01*
X181125000Y-74950000D01*
X181125241Y-74945099D01*
X181125961Y-74940245D01*
X181127153Y-74935486D01*
X181128806Y-74930866D01*
X181130904Y-74926430D01*
X181133427Y-74922221D01*
X181136349Y-74918280D01*
X181139645Y-74914645D01*
X181143280Y-74911349D01*
X181147221Y-74908427D01*
X181151430Y-74905904D01*
X181155866Y-74903806D01*
X181160486Y-74902153D01*
X181165245Y-74900961D01*
X181170099Y-74900241D01*
X181175000Y-74900000D01*
X181950000Y-74900000D01*
X181954901Y-74900241D01*
G37*
G36*
X181954901Y-74500241D02*
G01*
X181959755Y-74500961D01*
X181964514Y-74502153D01*
X181969134Y-74503806D01*
X181973570Y-74505904D01*
X181977779Y-74508427D01*
X181981720Y-74511349D01*
X181985355Y-74514645D01*
X181988651Y-74518280D01*
X181991573Y-74522221D01*
X181994096Y-74526430D01*
X181996194Y-74530866D01*
X181997847Y-74535486D01*
X181999039Y-74540245D01*
X181999759Y-74545099D01*
X182000000Y-74550000D01*
X182000000Y-74650000D01*
X181999759Y-74654901D01*
X181999039Y-74659755D01*
X181997847Y-74664514D01*
X181996194Y-74669134D01*
X181994096Y-74673570D01*
X181991573Y-74677779D01*
X181988651Y-74681720D01*
X181985355Y-74685355D01*
X181981720Y-74688651D01*
X181977779Y-74691573D01*
X181973570Y-74694096D01*
X181969134Y-74696194D01*
X181964514Y-74697847D01*
X181959755Y-74699039D01*
X181954901Y-74699759D01*
X181950000Y-74700000D01*
X181175000Y-74700000D01*
X181170099Y-74699759D01*
X181165245Y-74699039D01*
X181160486Y-74697847D01*
X181155866Y-74696194D01*
X181151430Y-74694096D01*
X181147221Y-74691573D01*
X181143280Y-74688651D01*
X181139645Y-74685355D01*
X181136349Y-74681720D01*
X181133427Y-74677779D01*
X181130904Y-74673570D01*
X181128806Y-74669134D01*
X181127153Y-74664514D01*
X181125961Y-74659755D01*
X181125241Y-74654901D01*
X181125000Y-74650000D01*
X181125000Y-74550000D01*
X181125241Y-74545099D01*
X181125961Y-74540245D01*
X181127153Y-74535486D01*
X181128806Y-74530866D01*
X181130904Y-74526430D01*
X181133427Y-74522221D01*
X181136349Y-74518280D01*
X181139645Y-74514645D01*
X181143280Y-74511349D01*
X181147221Y-74508427D01*
X181151430Y-74505904D01*
X181155866Y-74503806D01*
X181160486Y-74502153D01*
X181165245Y-74500961D01*
X181170099Y-74500241D01*
X181175000Y-74500000D01*
X181950000Y-74500000D01*
X181954901Y-74500241D01*
G37*
G36*
X181954901Y-74100241D02*
G01*
X181959755Y-74100961D01*
X181964514Y-74102153D01*
X181969134Y-74103806D01*
X181973570Y-74105904D01*
X181977779Y-74108427D01*
X181981720Y-74111349D01*
X181985355Y-74114645D01*
X181988651Y-74118280D01*
X181991573Y-74122221D01*
X181994096Y-74126430D01*
X181996194Y-74130866D01*
X181997847Y-74135486D01*
X181999039Y-74140245D01*
X181999759Y-74145099D01*
X182000000Y-74150000D01*
X182000000Y-74250000D01*
X181999759Y-74254901D01*
X181999039Y-74259755D01*
X181997847Y-74264514D01*
X181996194Y-74269134D01*
X181994096Y-74273570D01*
X181991573Y-74277779D01*
X181988651Y-74281720D01*
X181985355Y-74285355D01*
X181981720Y-74288651D01*
X181977779Y-74291573D01*
X181973570Y-74294096D01*
X181969134Y-74296194D01*
X181964514Y-74297847D01*
X181959755Y-74299039D01*
X181954901Y-74299759D01*
X181950000Y-74300000D01*
X181175000Y-74300000D01*
X181170099Y-74299759D01*
X181165245Y-74299039D01*
X181160486Y-74297847D01*
X181155866Y-74296194D01*
X181151430Y-74294096D01*
X181147221Y-74291573D01*
X181143280Y-74288651D01*
X181139645Y-74285355D01*
X181136349Y-74281720D01*
X181133427Y-74277779D01*
X181130904Y-74273570D01*
X181128806Y-74269134D01*
X181127153Y-74264514D01*
X181125961Y-74259755D01*
X181125241Y-74254901D01*
X181125000Y-74250000D01*
X181125000Y-74150000D01*
X181125241Y-74145099D01*
X181125961Y-74140245D01*
X181127153Y-74135486D01*
X181128806Y-74130866D01*
X181130904Y-74126430D01*
X181133427Y-74122221D01*
X181136349Y-74118280D01*
X181139645Y-74114645D01*
X181143280Y-74111349D01*
X181147221Y-74108427D01*
X181151430Y-74105904D01*
X181155866Y-74103806D01*
X181160486Y-74102153D01*
X181165245Y-74100961D01*
X181170099Y-74100241D01*
X181175000Y-74100000D01*
X181950000Y-74100000D01*
X181954901Y-74100241D01*
G37*
G36*
X182454901Y-72925241D02*
G01*
X182459755Y-72925961D01*
X182464514Y-72927153D01*
X182469134Y-72928806D01*
X182473570Y-72930904D01*
X182477779Y-72933427D01*
X182481720Y-72936349D01*
X182485355Y-72939645D01*
X182488651Y-72943280D01*
X182491573Y-72947221D01*
X182494096Y-72951430D01*
X182496194Y-72955866D01*
X182497847Y-72960486D01*
X182499039Y-72965245D01*
X182499759Y-72970099D01*
X182500000Y-72975000D01*
X182500000Y-73750000D01*
X182499759Y-73754901D01*
X182499039Y-73759755D01*
X182497847Y-73764514D01*
X182496194Y-73769134D01*
X182494096Y-73773570D01*
X182491573Y-73777779D01*
X182488651Y-73781720D01*
X182485355Y-73785355D01*
X182481720Y-73788651D01*
X182477779Y-73791573D01*
X182473570Y-73794096D01*
X182469134Y-73796194D01*
X182464514Y-73797847D01*
X182459755Y-73799039D01*
X182454901Y-73799759D01*
X182450000Y-73800000D01*
X182350000Y-73800000D01*
X182345099Y-73799759D01*
X182340245Y-73799039D01*
X182335486Y-73797847D01*
X182330866Y-73796194D01*
X182326430Y-73794096D01*
X182322221Y-73791573D01*
X182318280Y-73788651D01*
X182314645Y-73785355D01*
X182311349Y-73781720D01*
X182308427Y-73777779D01*
X182305904Y-73773570D01*
X182303806Y-73769134D01*
X182302153Y-73764514D01*
X182300961Y-73759755D01*
X182300241Y-73754901D01*
X182300000Y-73750000D01*
X182300000Y-72975000D01*
X182300241Y-72970099D01*
X182300961Y-72965245D01*
X182302153Y-72960486D01*
X182303806Y-72955866D01*
X182305904Y-72951430D01*
X182308427Y-72947221D01*
X182311349Y-72943280D01*
X182314645Y-72939645D01*
X182318280Y-72936349D01*
X182322221Y-72933427D01*
X182326430Y-72930904D01*
X182330866Y-72928806D01*
X182335486Y-72927153D01*
X182340245Y-72925961D01*
X182345099Y-72925241D01*
X182350000Y-72925000D01*
X182450000Y-72925000D01*
X182454901Y-72925241D01*
G37*
G36*
X182854901Y-72925241D02*
G01*
X182859755Y-72925961D01*
X182864514Y-72927153D01*
X182869134Y-72928806D01*
X182873570Y-72930904D01*
X182877779Y-72933427D01*
X182881720Y-72936349D01*
X182885355Y-72939645D01*
X182888651Y-72943280D01*
X182891573Y-72947221D01*
X182894096Y-72951430D01*
X182896194Y-72955866D01*
X182897847Y-72960486D01*
X182899039Y-72965245D01*
X182899759Y-72970099D01*
X182900000Y-72975000D01*
X182900000Y-73750000D01*
X182899759Y-73754901D01*
X182899039Y-73759755D01*
X182897847Y-73764514D01*
X182896194Y-73769134D01*
X182894096Y-73773570D01*
X182891573Y-73777779D01*
X182888651Y-73781720D01*
X182885355Y-73785355D01*
X182881720Y-73788651D01*
X182877779Y-73791573D01*
X182873570Y-73794096D01*
X182869134Y-73796194D01*
X182864514Y-73797847D01*
X182859755Y-73799039D01*
X182854901Y-73799759D01*
X182850000Y-73800000D01*
X182750000Y-73800000D01*
X182745099Y-73799759D01*
X182740245Y-73799039D01*
X182735486Y-73797847D01*
X182730866Y-73796194D01*
X182726430Y-73794096D01*
X182722221Y-73791573D01*
X182718280Y-73788651D01*
X182714645Y-73785355D01*
X182711349Y-73781720D01*
X182708427Y-73777779D01*
X182705904Y-73773570D01*
X182703806Y-73769134D01*
X182702153Y-73764514D01*
X182700961Y-73759755D01*
X182700241Y-73754901D01*
X182700000Y-73750000D01*
X182700000Y-72975000D01*
X182700241Y-72970099D01*
X182700961Y-72965245D01*
X182702153Y-72960486D01*
X182703806Y-72955866D01*
X182705904Y-72951430D01*
X182708427Y-72947221D01*
X182711349Y-72943280D01*
X182714645Y-72939645D01*
X182718280Y-72936349D01*
X182722221Y-72933427D01*
X182726430Y-72930904D01*
X182730866Y-72928806D01*
X182735486Y-72927153D01*
X182740245Y-72925961D01*
X182745099Y-72925241D01*
X182750000Y-72925000D01*
X182850000Y-72925000D01*
X182854901Y-72925241D01*
G37*
G36*
X183254901Y-72925241D02*
G01*
X183259755Y-72925961D01*
X183264514Y-72927153D01*
X183269134Y-72928806D01*
X183273570Y-72930904D01*
X183277779Y-72933427D01*
X183281720Y-72936349D01*
X183285355Y-72939645D01*
X183288651Y-72943280D01*
X183291573Y-72947221D01*
X183294096Y-72951430D01*
X183296194Y-72955866D01*
X183297847Y-72960486D01*
X183299039Y-72965245D01*
X183299759Y-72970099D01*
X183300000Y-72975000D01*
X183300000Y-73750000D01*
X183299759Y-73754901D01*
X183299039Y-73759755D01*
X183297847Y-73764514D01*
X183296194Y-73769134D01*
X183294096Y-73773570D01*
X183291573Y-73777779D01*
X183288651Y-73781720D01*
X183285355Y-73785355D01*
X183281720Y-73788651D01*
X183277779Y-73791573D01*
X183273570Y-73794096D01*
X183269134Y-73796194D01*
X183264514Y-73797847D01*
X183259755Y-73799039D01*
X183254901Y-73799759D01*
X183250000Y-73800000D01*
X183150000Y-73800000D01*
X183145099Y-73799759D01*
X183140245Y-73799039D01*
X183135486Y-73797847D01*
X183130866Y-73796194D01*
X183126430Y-73794096D01*
X183122221Y-73791573D01*
X183118280Y-73788651D01*
X183114645Y-73785355D01*
X183111349Y-73781720D01*
X183108427Y-73777779D01*
X183105904Y-73773570D01*
X183103806Y-73769134D01*
X183102153Y-73764514D01*
X183100961Y-73759755D01*
X183100241Y-73754901D01*
X183100000Y-73750000D01*
X183100000Y-72975000D01*
X183100241Y-72970099D01*
X183100961Y-72965245D01*
X183102153Y-72960486D01*
X183103806Y-72955866D01*
X183105904Y-72951430D01*
X183108427Y-72947221D01*
X183111349Y-72943280D01*
X183114645Y-72939645D01*
X183118280Y-72936349D01*
X183122221Y-72933427D01*
X183126430Y-72930904D01*
X183130866Y-72928806D01*
X183135486Y-72927153D01*
X183140245Y-72925961D01*
X183145099Y-72925241D01*
X183150000Y-72925000D01*
X183250000Y-72925000D01*
X183254901Y-72925241D01*
G37*
G36*
X183654901Y-72925241D02*
G01*
X183659755Y-72925961D01*
X183664514Y-72927153D01*
X183669134Y-72928806D01*
X183673570Y-72930904D01*
X183677779Y-72933427D01*
X183681720Y-72936349D01*
X183685355Y-72939645D01*
X183688651Y-72943280D01*
X183691573Y-72947221D01*
X183694096Y-72951430D01*
X183696194Y-72955866D01*
X183697847Y-72960486D01*
X183699039Y-72965245D01*
X183699759Y-72970099D01*
X183700000Y-72975000D01*
X183700000Y-73750000D01*
X183699759Y-73754901D01*
X183699039Y-73759755D01*
X183697847Y-73764514D01*
X183696194Y-73769134D01*
X183694096Y-73773570D01*
X183691573Y-73777779D01*
X183688651Y-73781720D01*
X183685355Y-73785355D01*
X183681720Y-73788651D01*
X183677779Y-73791573D01*
X183673570Y-73794096D01*
X183669134Y-73796194D01*
X183664514Y-73797847D01*
X183659755Y-73799039D01*
X183654901Y-73799759D01*
X183650000Y-73800000D01*
X183550000Y-73800000D01*
X183545099Y-73799759D01*
X183540245Y-73799039D01*
X183535486Y-73797847D01*
X183530866Y-73796194D01*
X183526430Y-73794096D01*
X183522221Y-73791573D01*
X183518280Y-73788651D01*
X183514645Y-73785355D01*
X183511349Y-73781720D01*
X183508427Y-73777779D01*
X183505904Y-73773570D01*
X183503806Y-73769134D01*
X183502153Y-73764514D01*
X183500961Y-73759755D01*
X183500241Y-73754901D01*
X183500000Y-73750000D01*
X183500000Y-72975000D01*
X183500241Y-72970099D01*
X183500961Y-72965245D01*
X183502153Y-72960486D01*
X183503806Y-72955866D01*
X183505904Y-72951430D01*
X183508427Y-72947221D01*
X183511349Y-72943280D01*
X183514645Y-72939645D01*
X183518280Y-72936349D01*
X183522221Y-72933427D01*
X183526430Y-72930904D01*
X183530866Y-72928806D01*
X183535486Y-72927153D01*
X183540245Y-72925961D01*
X183545099Y-72925241D01*
X183550000Y-72925000D01*
X183650000Y-72925000D01*
X183654901Y-72925241D01*
G37*
G36*
X184054901Y-72925241D02*
G01*
X184059755Y-72925961D01*
X184064514Y-72927153D01*
X184069134Y-72928806D01*
X184073570Y-72930904D01*
X184077779Y-72933427D01*
X184081720Y-72936349D01*
X184085355Y-72939645D01*
X184088651Y-72943280D01*
X184091573Y-72947221D01*
X184094096Y-72951430D01*
X184096194Y-72955866D01*
X184097847Y-72960486D01*
X184099039Y-72965245D01*
X184099759Y-72970099D01*
X184100000Y-72975000D01*
X184100000Y-73750000D01*
X184099759Y-73754901D01*
X184099039Y-73759755D01*
X184097847Y-73764514D01*
X184096194Y-73769134D01*
X184094096Y-73773570D01*
X184091573Y-73777779D01*
X184088651Y-73781720D01*
X184085355Y-73785355D01*
X184081720Y-73788651D01*
X184077779Y-73791573D01*
X184073570Y-73794096D01*
X184069134Y-73796194D01*
X184064514Y-73797847D01*
X184059755Y-73799039D01*
X184054901Y-73799759D01*
X184050000Y-73800000D01*
X183950000Y-73800000D01*
X183945099Y-73799759D01*
X183940245Y-73799039D01*
X183935486Y-73797847D01*
X183930866Y-73796194D01*
X183926430Y-73794096D01*
X183922221Y-73791573D01*
X183918280Y-73788651D01*
X183914645Y-73785355D01*
X183911349Y-73781720D01*
X183908427Y-73777779D01*
X183905904Y-73773570D01*
X183903806Y-73769134D01*
X183902153Y-73764514D01*
X183900961Y-73759755D01*
X183900241Y-73754901D01*
X183900000Y-73750000D01*
X183900000Y-72975000D01*
X183900241Y-72970099D01*
X183900961Y-72965245D01*
X183902153Y-72960486D01*
X183903806Y-72955866D01*
X183905904Y-72951430D01*
X183908427Y-72947221D01*
X183911349Y-72943280D01*
X183914645Y-72939645D01*
X183918280Y-72936349D01*
X183922221Y-72933427D01*
X183926430Y-72930904D01*
X183930866Y-72928806D01*
X183935486Y-72927153D01*
X183940245Y-72925961D01*
X183945099Y-72925241D01*
X183950000Y-72925000D01*
X184050000Y-72925000D01*
X184054901Y-72925241D01*
G37*
G36*
X184454901Y-72925241D02*
G01*
X184459755Y-72925961D01*
X184464514Y-72927153D01*
X184469134Y-72928806D01*
X184473570Y-72930904D01*
X184477779Y-72933427D01*
X184481720Y-72936349D01*
X184485355Y-72939645D01*
X184488651Y-72943280D01*
X184491573Y-72947221D01*
X184494096Y-72951430D01*
X184496194Y-72955866D01*
X184497847Y-72960486D01*
X184499039Y-72965245D01*
X184499759Y-72970099D01*
X184500000Y-72975000D01*
X184500000Y-73750000D01*
X184499759Y-73754901D01*
X184499039Y-73759755D01*
X184497847Y-73764514D01*
X184496194Y-73769134D01*
X184494096Y-73773570D01*
X184491573Y-73777779D01*
X184488651Y-73781720D01*
X184485355Y-73785355D01*
X184481720Y-73788651D01*
X184477779Y-73791573D01*
X184473570Y-73794096D01*
X184469134Y-73796194D01*
X184464514Y-73797847D01*
X184459755Y-73799039D01*
X184454901Y-73799759D01*
X184450000Y-73800000D01*
X184350000Y-73800000D01*
X184345099Y-73799759D01*
X184340245Y-73799039D01*
X184335486Y-73797847D01*
X184330866Y-73796194D01*
X184326430Y-73794096D01*
X184322221Y-73791573D01*
X184318280Y-73788651D01*
X184314645Y-73785355D01*
X184311349Y-73781720D01*
X184308427Y-73777779D01*
X184305904Y-73773570D01*
X184303806Y-73769134D01*
X184302153Y-73764514D01*
X184300961Y-73759755D01*
X184300241Y-73754901D01*
X184300000Y-73750000D01*
X184300000Y-72975000D01*
X184300241Y-72970099D01*
X184300961Y-72965245D01*
X184302153Y-72960486D01*
X184303806Y-72955866D01*
X184305904Y-72951430D01*
X184308427Y-72947221D01*
X184311349Y-72943280D01*
X184314645Y-72939645D01*
X184318280Y-72936349D01*
X184322221Y-72933427D01*
X184326430Y-72930904D01*
X184330866Y-72928806D01*
X184335486Y-72927153D01*
X184340245Y-72925961D01*
X184345099Y-72925241D01*
X184350000Y-72925000D01*
X184450000Y-72925000D01*
X184454901Y-72925241D01*
G37*
G36*
X184854901Y-72925241D02*
G01*
X184859755Y-72925961D01*
X184864514Y-72927153D01*
X184869134Y-72928806D01*
X184873570Y-72930904D01*
X184877779Y-72933427D01*
X184881720Y-72936349D01*
X184885355Y-72939645D01*
X184888651Y-72943280D01*
X184891573Y-72947221D01*
X184894096Y-72951430D01*
X184896194Y-72955866D01*
X184897847Y-72960486D01*
X184899039Y-72965245D01*
X184899759Y-72970099D01*
X184900000Y-72975000D01*
X184900000Y-73750000D01*
X184899759Y-73754901D01*
X184899039Y-73759755D01*
X184897847Y-73764514D01*
X184896194Y-73769134D01*
X184894096Y-73773570D01*
X184891573Y-73777779D01*
X184888651Y-73781720D01*
X184885355Y-73785355D01*
X184881720Y-73788651D01*
X184877779Y-73791573D01*
X184873570Y-73794096D01*
X184869134Y-73796194D01*
X184864514Y-73797847D01*
X184859755Y-73799039D01*
X184854901Y-73799759D01*
X184850000Y-73800000D01*
X184750000Y-73800000D01*
X184745099Y-73799759D01*
X184740245Y-73799039D01*
X184735486Y-73797847D01*
X184730866Y-73796194D01*
X184726430Y-73794096D01*
X184722221Y-73791573D01*
X184718280Y-73788651D01*
X184714645Y-73785355D01*
X184711349Y-73781720D01*
X184708427Y-73777779D01*
X184705904Y-73773570D01*
X184703806Y-73769134D01*
X184702153Y-73764514D01*
X184700961Y-73759755D01*
X184700241Y-73754901D01*
X184700000Y-73750000D01*
X184700000Y-72975000D01*
X184700241Y-72970099D01*
X184700961Y-72965245D01*
X184702153Y-72960486D01*
X184703806Y-72955866D01*
X184705904Y-72951430D01*
X184708427Y-72947221D01*
X184711349Y-72943280D01*
X184714645Y-72939645D01*
X184718280Y-72936349D01*
X184722221Y-72933427D01*
X184726430Y-72930904D01*
X184730866Y-72928806D01*
X184735486Y-72927153D01*
X184740245Y-72925961D01*
X184745099Y-72925241D01*
X184750000Y-72925000D01*
X184850000Y-72925000D01*
X184854901Y-72925241D01*
G37*
G36*
X185254901Y-72925241D02*
G01*
X185259755Y-72925961D01*
X185264514Y-72927153D01*
X185269134Y-72928806D01*
X185273570Y-72930904D01*
X185277779Y-72933427D01*
X185281720Y-72936349D01*
X185285355Y-72939645D01*
X185288651Y-72943280D01*
X185291573Y-72947221D01*
X185294096Y-72951430D01*
X185296194Y-72955866D01*
X185297847Y-72960486D01*
X185299039Y-72965245D01*
X185299759Y-72970099D01*
X185300000Y-72975000D01*
X185300000Y-73750000D01*
X185299759Y-73754901D01*
X185299039Y-73759755D01*
X185297847Y-73764514D01*
X185296194Y-73769134D01*
X185294096Y-73773570D01*
X185291573Y-73777779D01*
X185288651Y-73781720D01*
X185285355Y-73785355D01*
X185281720Y-73788651D01*
X185277779Y-73791573D01*
X185273570Y-73794096D01*
X185269134Y-73796194D01*
X185264514Y-73797847D01*
X185259755Y-73799039D01*
X185254901Y-73799759D01*
X185250000Y-73800000D01*
X185150000Y-73800000D01*
X185145099Y-73799759D01*
X185140245Y-73799039D01*
X185135486Y-73797847D01*
X185130866Y-73796194D01*
X185126430Y-73794096D01*
X185122221Y-73791573D01*
X185118280Y-73788651D01*
X185114645Y-73785355D01*
X185111349Y-73781720D01*
X185108427Y-73777779D01*
X185105904Y-73773570D01*
X185103806Y-73769134D01*
X185102153Y-73764514D01*
X185100961Y-73759755D01*
X185100241Y-73754901D01*
X185100000Y-73750000D01*
X185100000Y-72975000D01*
X185100241Y-72970099D01*
X185100961Y-72965245D01*
X185102153Y-72960486D01*
X185103806Y-72955866D01*
X185105904Y-72951430D01*
X185108427Y-72947221D01*
X185111349Y-72943280D01*
X185114645Y-72939645D01*
X185118280Y-72936349D01*
X185122221Y-72933427D01*
X185126430Y-72930904D01*
X185130866Y-72928806D01*
X185135486Y-72927153D01*
X185140245Y-72925961D01*
X185145099Y-72925241D01*
X185150000Y-72925000D01*
X185250000Y-72925000D01*
X185254901Y-72925241D01*
G37*
G36*
X185654901Y-72925241D02*
G01*
X185659755Y-72925961D01*
X185664514Y-72927153D01*
X185669134Y-72928806D01*
X185673570Y-72930904D01*
X185677779Y-72933427D01*
X185681720Y-72936349D01*
X185685355Y-72939645D01*
X185688651Y-72943280D01*
X185691573Y-72947221D01*
X185694096Y-72951430D01*
X185696194Y-72955866D01*
X185697847Y-72960486D01*
X185699039Y-72965245D01*
X185699759Y-72970099D01*
X185700000Y-72975000D01*
X185700000Y-73750000D01*
X185699759Y-73754901D01*
X185699039Y-73759755D01*
X185697847Y-73764514D01*
X185696194Y-73769134D01*
X185694096Y-73773570D01*
X185691573Y-73777779D01*
X185688651Y-73781720D01*
X185685355Y-73785355D01*
X185681720Y-73788651D01*
X185677779Y-73791573D01*
X185673570Y-73794096D01*
X185669134Y-73796194D01*
X185664514Y-73797847D01*
X185659755Y-73799039D01*
X185654901Y-73799759D01*
X185650000Y-73800000D01*
X185550000Y-73800000D01*
X185545099Y-73799759D01*
X185540245Y-73799039D01*
X185535486Y-73797847D01*
X185530866Y-73796194D01*
X185526430Y-73794096D01*
X185522221Y-73791573D01*
X185518280Y-73788651D01*
X185514645Y-73785355D01*
X185511349Y-73781720D01*
X185508427Y-73777779D01*
X185505904Y-73773570D01*
X185503806Y-73769134D01*
X185502153Y-73764514D01*
X185500961Y-73759755D01*
X185500241Y-73754901D01*
X185500000Y-73750000D01*
X185500000Y-72975000D01*
X185500241Y-72970099D01*
X185500961Y-72965245D01*
X185502153Y-72960486D01*
X185503806Y-72955866D01*
X185505904Y-72951430D01*
X185508427Y-72947221D01*
X185511349Y-72943280D01*
X185514645Y-72939645D01*
X185518280Y-72936349D01*
X185522221Y-72933427D01*
X185526430Y-72930904D01*
X185530866Y-72928806D01*
X185535486Y-72927153D01*
X185540245Y-72925961D01*
X185545099Y-72925241D01*
X185550000Y-72925000D01*
X185650000Y-72925000D01*
X185654901Y-72925241D01*
G37*
G36*
X186054901Y-72925241D02*
G01*
X186059755Y-72925961D01*
X186064514Y-72927153D01*
X186069134Y-72928806D01*
X186073570Y-72930904D01*
X186077779Y-72933427D01*
X186081720Y-72936349D01*
X186085355Y-72939645D01*
X186088651Y-72943280D01*
X186091573Y-72947221D01*
X186094096Y-72951430D01*
X186096194Y-72955866D01*
X186097847Y-72960486D01*
X186099039Y-72965245D01*
X186099759Y-72970099D01*
X186100000Y-72975000D01*
X186100000Y-73750000D01*
X186099759Y-73754901D01*
X186099039Y-73759755D01*
X186097847Y-73764514D01*
X186096194Y-73769134D01*
X186094096Y-73773570D01*
X186091573Y-73777779D01*
X186088651Y-73781720D01*
X186085355Y-73785355D01*
X186081720Y-73788651D01*
X186077779Y-73791573D01*
X186073570Y-73794096D01*
X186069134Y-73796194D01*
X186064514Y-73797847D01*
X186059755Y-73799039D01*
X186054901Y-73799759D01*
X186050000Y-73800000D01*
X185950000Y-73800000D01*
X185945099Y-73799759D01*
X185940245Y-73799039D01*
X185935486Y-73797847D01*
X185930866Y-73796194D01*
X185926430Y-73794096D01*
X185922221Y-73791573D01*
X185918280Y-73788651D01*
X185914645Y-73785355D01*
X185911349Y-73781720D01*
X185908427Y-73777779D01*
X185905904Y-73773570D01*
X185903806Y-73769134D01*
X185902153Y-73764514D01*
X185900961Y-73759755D01*
X185900241Y-73754901D01*
X185900000Y-73750000D01*
X185900000Y-72975000D01*
X185900241Y-72970099D01*
X185900961Y-72965245D01*
X185902153Y-72960486D01*
X185903806Y-72955866D01*
X185905904Y-72951430D01*
X185908427Y-72947221D01*
X185911349Y-72943280D01*
X185914645Y-72939645D01*
X185918280Y-72936349D01*
X185922221Y-72933427D01*
X185926430Y-72930904D01*
X185930866Y-72928806D01*
X185935486Y-72927153D01*
X185940245Y-72925961D01*
X185945099Y-72925241D01*
X185950000Y-72925000D01*
X186050000Y-72925000D01*
X186054901Y-72925241D01*
G37*
G36*
X186454901Y-72925241D02*
G01*
X186459755Y-72925961D01*
X186464514Y-72927153D01*
X186469134Y-72928806D01*
X186473570Y-72930904D01*
X186477779Y-72933427D01*
X186481720Y-72936349D01*
X186485355Y-72939645D01*
X186488651Y-72943280D01*
X186491573Y-72947221D01*
X186494096Y-72951430D01*
X186496194Y-72955866D01*
X186497847Y-72960486D01*
X186499039Y-72965245D01*
X186499759Y-72970099D01*
X186500000Y-72975000D01*
X186500000Y-73750000D01*
X186499759Y-73754901D01*
X186499039Y-73759755D01*
X186497847Y-73764514D01*
X186496194Y-73769134D01*
X186494096Y-73773570D01*
X186491573Y-73777779D01*
X186488651Y-73781720D01*
X186485355Y-73785355D01*
X186481720Y-73788651D01*
X186477779Y-73791573D01*
X186473570Y-73794096D01*
X186469134Y-73796194D01*
X186464514Y-73797847D01*
X186459755Y-73799039D01*
X186454901Y-73799759D01*
X186450000Y-73800000D01*
X186350000Y-73800000D01*
X186345099Y-73799759D01*
X186340245Y-73799039D01*
X186335486Y-73797847D01*
X186330866Y-73796194D01*
X186326430Y-73794096D01*
X186322221Y-73791573D01*
X186318280Y-73788651D01*
X186314645Y-73785355D01*
X186311349Y-73781720D01*
X186308427Y-73777779D01*
X186305904Y-73773570D01*
X186303806Y-73769134D01*
X186302153Y-73764514D01*
X186300961Y-73759755D01*
X186300241Y-73754901D01*
X186300000Y-73750000D01*
X186300000Y-72975000D01*
X186300241Y-72970099D01*
X186300961Y-72965245D01*
X186302153Y-72960486D01*
X186303806Y-72955866D01*
X186305904Y-72951430D01*
X186308427Y-72947221D01*
X186311349Y-72943280D01*
X186314645Y-72939645D01*
X186318280Y-72936349D01*
X186322221Y-72933427D01*
X186326430Y-72930904D01*
X186330866Y-72928806D01*
X186335486Y-72927153D01*
X186340245Y-72925961D01*
X186345099Y-72925241D01*
X186350000Y-72925000D01*
X186450000Y-72925000D01*
X186454901Y-72925241D01*
G37*
G36*
X186854901Y-72925241D02*
G01*
X186859755Y-72925961D01*
X186864514Y-72927153D01*
X186869134Y-72928806D01*
X186873570Y-72930904D01*
X186877779Y-72933427D01*
X186881720Y-72936349D01*
X186885355Y-72939645D01*
X186888651Y-72943280D01*
X186891573Y-72947221D01*
X186894096Y-72951430D01*
X186896194Y-72955866D01*
X186897847Y-72960486D01*
X186899039Y-72965245D01*
X186899759Y-72970099D01*
X186900000Y-72975000D01*
X186900000Y-73750000D01*
X186899759Y-73754901D01*
X186899039Y-73759755D01*
X186897847Y-73764514D01*
X186896194Y-73769134D01*
X186894096Y-73773570D01*
X186891573Y-73777779D01*
X186888651Y-73781720D01*
X186885355Y-73785355D01*
X186881720Y-73788651D01*
X186877779Y-73791573D01*
X186873570Y-73794096D01*
X186869134Y-73796194D01*
X186864514Y-73797847D01*
X186859755Y-73799039D01*
X186854901Y-73799759D01*
X186850000Y-73800000D01*
X186750000Y-73800000D01*
X186745099Y-73799759D01*
X186740245Y-73799039D01*
X186735486Y-73797847D01*
X186730866Y-73796194D01*
X186726430Y-73794096D01*
X186722221Y-73791573D01*
X186718280Y-73788651D01*
X186714645Y-73785355D01*
X186711349Y-73781720D01*
X186708427Y-73777779D01*
X186705904Y-73773570D01*
X186703806Y-73769134D01*
X186702153Y-73764514D01*
X186700961Y-73759755D01*
X186700241Y-73754901D01*
X186700000Y-73750000D01*
X186700000Y-72975000D01*
X186700241Y-72970099D01*
X186700961Y-72965245D01*
X186702153Y-72960486D01*
X186703806Y-72955866D01*
X186705904Y-72951430D01*
X186708427Y-72947221D01*
X186711349Y-72943280D01*
X186714645Y-72939645D01*
X186718280Y-72936349D01*
X186722221Y-72933427D01*
X186726430Y-72930904D01*
X186730866Y-72928806D01*
X186735486Y-72927153D01*
X186740245Y-72925961D01*
X186745099Y-72925241D01*
X186750000Y-72925000D01*
X186850000Y-72925000D01*
X186854901Y-72925241D01*
G37*
G36*
X187254901Y-72925241D02*
G01*
X187259755Y-72925961D01*
X187264514Y-72927153D01*
X187269134Y-72928806D01*
X187273570Y-72930904D01*
X187277779Y-72933427D01*
X187281720Y-72936349D01*
X187285355Y-72939645D01*
X187288651Y-72943280D01*
X187291573Y-72947221D01*
X187294096Y-72951430D01*
X187296194Y-72955866D01*
X187297847Y-72960486D01*
X187299039Y-72965245D01*
X187299759Y-72970099D01*
X187300000Y-72975000D01*
X187300000Y-73750000D01*
X187299759Y-73754901D01*
X187299039Y-73759755D01*
X187297847Y-73764514D01*
X187296194Y-73769134D01*
X187294096Y-73773570D01*
X187291573Y-73777779D01*
X187288651Y-73781720D01*
X187285355Y-73785355D01*
X187281720Y-73788651D01*
X187277779Y-73791573D01*
X187273570Y-73794096D01*
X187269134Y-73796194D01*
X187264514Y-73797847D01*
X187259755Y-73799039D01*
X187254901Y-73799759D01*
X187250000Y-73800000D01*
X187150000Y-73800000D01*
X187145099Y-73799759D01*
X187140245Y-73799039D01*
X187135486Y-73797847D01*
X187130866Y-73796194D01*
X187126430Y-73794096D01*
X187122221Y-73791573D01*
X187118280Y-73788651D01*
X187114645Y-73785355D01*
X187111349Y-73781720D01*
X187108427Y-73777779D01*
X187105904Y-73773570D01*
X187103806Y-73769134D01*
X187102153Y-73764514D01*
X187100961Y-73759755D01*
X187100241Y-73754901D01*
X187100000Y-73750000D01*
X187100000Y-72975000D01*
X187100241Y-72970099D01*
X187100961Y-72965245D01*
X187102153Y-72960486D01*
X187103806Y-72955866D01*
X187105904Y-72951430D01*
X187108427Y-72947221D01*
X187111349Y-72943280D01*
X187114645Y-72939645D01*
X187118280Y-72936349D01*
X187122221Y-72933427D01*
X187126430Y-72930904D01*
X187130866Y-72928806D01*
X187135486Y-72927153D01*
X187140245Y-72925961D01*
X187145099Y-72925241D01*
X187150000Y-72925000D01*
X187250000Y-72925000D01*
X187254901Y-72925241D01*
G37*
G36*
X187654901Y-72925241D02*
G01*
X187659755Y-72925961D01*
X187664514Y-72927153D01*
X187669134Y-72928806D01*
X187673570Y-72930904D01*
X187677779Y-72933427D01*
X187681720Y-72936349D01*
X187685355Y-72939645D01*
X187688651Y-72943280D01*
X187691573Y-72947221D01*
X187694096Y-72951430D01*
X187696194Y-72955866D01*
X187697847Y-72960486D01*
X187699039Y-72965245D01*
X187699759Y-72970099D01*
X187700000Y-72975000D01*
X187700000Y-73750000D01*
X187699759Y-73754901D01*
X187699039Y-73759755D01*
X187697847Y-73764514D01*
X187696194Y-73769134D01*
X187694096Y-73773570D01*
X187691573Y-73777779D01*
X187688651Y-73781720D01*
X187685355Y-73785355D01*
X187681720Y-73788651D01*
X187677779Y-73791573D01*
X187673570Y-73794096D01*
X187669134Y-73796194D01*
X187664514Y-73797847D01*
X187659755Y-73799039D01*
X187654901Y-73799759D01*
X187650000Y-73800000D01*
X187550000Y-73800000D01*
X187545099Y-73799759D01*
X187540245Y-73799039D01*
X187535486Y-73797847D01*
X187530866Y-73796194D01*
X187526430Y-73794096D01*
X187522221Y-73791573D01*
X187518280Y-73788651D01*
X187514645Y-73785355D01*
X187511349Y-73781720D01*
X187508427Y-73777779D01*
X187505904Y-73773570D01*
X187503806Y-73769134D01*
X187502153Y-73764514D01*
X187500961Y-73759755D01*
X187500241Y-73754901D01*
X187500000Y-73750000D01*
X187500000Y-72975000D01*
X187500241Y-72970099D01*
X187500961Y-72965245D01*
X187502153Y-72960486D01*
X187503806Y-72955866D01*
X187505904Y-72951430D01*
X187508427Y-72947221D01*
X187511349Y-72943280D01*
X187514645Y-72939645D01*
X187518280Y-72936349D01*
X187522221Y-72933427D01*
X187526430Y-72930904D01*
X187530866Y-72928806D01*
X187535486Y-72927153D01*
X187540245Y-72925961D01*
X187545099Y-72925241D01*
X187550000Y-72925000D01*
X187650000Y-72925000D01*
X187654901Y-72925241D01*
G37*
G36*
X188829901Y-74100241D02*
G01*
X188834755Y-74100961D01*
X188839514Y-74102153D01*
X188844134Y-74103806D01*
X188848570Y-74105904D01*
X188852779Y-74108427D01*
X188856720Y-74111349D01*
X188860355Y-74114645D01*
X188863651Y-74118280D01*
X188866573Y-74122221D01*
X188869096Y-74126430D01*
X188871194Y-74130866D01*
X188872847Y-74135486D01*
X188874039Y-74140245D01*
X188874759Y-74145099D01*
X188875000Y-74150000D01*
X188875000Y-74250000D01*
X188874759Y-74254901D01*
X188874039Y-74259755D01*
X188872847Y-74264514D01*
X188871194Y-74269134D01*
X188869096Y-74273570D01*
X188866573Y-74277779D01*
X188863651Y-74281720D01*
X188860355Y-74285355D01*
X188856720Y-74288651D01*
X188852779Y-74291573D01*
X188848570Y-74294096D01*
X188844134Y-74296194D01*
X188839514Y-74297847D01*
X188834755Y-74299039D01*
X188829901Y-74299759D01*
X188825000Y-74300000D01*
X188050000Y-74300000D01*
X188045099Y-74299759D01*
X188040245Y-74299039D01*
X188035486Y-74297847D01*
X188030866Y-74296194D01*
X188026430Y-74294096D01*
X188022221Y-74291573D01*
X188018280Y-74288651D01*
X188014645Y-74285355D01*
X188011349Y-74281720D01*
X188008427Y-74277779D01*
X188005904Y-74273570D01*
X188003806Y-74269134D01*
X188002153Y-74264514D01*
X188000961Y-74259755D01*
X188000241Y-74254901D01*
X188000000Y-74250000D01*
X188000000Y-74150000D01*
X188000241Y-74145099D01*
X188000961Y-74140245D01*
X188002153Y-74135486D01*
X188003806Y-74130866D01*
X188005904Y-74126430D01*
X188008427Y-74122221D01*
X188011349Y-74118280D01*
X188014645Y-74114645D01*
X188018280Y-74111349D01*
X188022221Y-74108427D01*
X188026430Y-74105904D01*
X188030866Y-74103806D01*
X188035486Y-74102153D01*
X188040245Y-74100961D01*
X188045099Y-74100241D01*
X188050000Y-74100000D01*
X188825000Y-74100000D01*
X188829901Y-74100241D01*
G37*
G36*
X188829901Y-74500241D02*
G01*
X188834755Y-74500961D01*
X188839514Y-74502153D01*
X188844134Y-74503806D01*
X188848570Y-74505904D01*
X188852779Y-74508427D01*
X188856720Y-74511349D01*
X188860355Y-74514645D01*
X188863651Y-74518280D01*
X188866573Y-74522221D01*
X188869096Y-74526430D01*
X188871194Y-74530866D01*
X188872847Y-74535486D01*
X188874039Y-74540245D01*
X188874759Y-74545099D01*
X188875000Y-74550000D01*
X188875000Y-74650000D01*
X188874759Y-74654901D01*
X188874039Y-74659755D01*
X188872847Y-74664514D01*
X188871194Y-74669134D01*
X188869096Y-74673570D01*
X188866573Y-74677779D01*
X188863651Y-74681720D01*
X188860355Y-74685355D01*
X188856720Y-74688651D01*
X188852779Y-74691573D01*
X188848570Y-74694096D01*
X188844134Y-74696194D01*
X188839514Y-74697847D01*
X188834755Y-74699039D01*
X188829901Y-74699759D01*
X188825000Y-74700000D01*
X188050000Y-74700000D01*
X188045099Y-74699759D01*
X188040245Y-74699039D01*
X188035486Y-74697847D01*
X188030866Y-74696194D01*
X188026430Y-74694096D01*
X188022221Y-74691573D01*
X188018280Y-74688651D01*
X188014645Y-74685355D01*
X188011349Y-74681720D01*
X188008427Y-74677779D01*
X188005904Y-74673570D01*
X188003806Y-74669134D01*
X188002153Y-74664514D01*
X188000961Y-74659755D01*
X188000241Y-74654901D01*
X188000000Y-74650000D01*
X188000000Y-74550000D01*
X188000241Y-74545099D01*
X188000961Y-74540245D01*
X188002153Y-74535486D01*
X188003806Y-74530866D01*
X188005904Y-74526430D01*
X188008427Y-74522221D01*
X188011349Y-74518280D01*
X188014645Y-74514645D01*
X188018280Y-74511349D01*
X188022221Y-74508427D01*
X188026430Y-74505904D01*
X188030866Y-74503806D01*
X188035486Y-74502153D01*
X188040245Y-74500961D01*
X188045099Y-74500241D01*
X188050000Y-74500000D01*
X188825000Y-74500000D01*
X188829901Y-74500241D01*
G37*
G36*
X188829901Y-74900241D02*
G01*
X188834755Y-74900961D01*
X188839514Y-74902153D01*
X188844134Y-74903806D01*
X188848570Y-74905904D01*
X188852779Y-74908427D01*
X188856720Y-74911349D01*
X188860355Y-74914645D01*
X188863651Y-74918280D01*
X188866573Y-74922221D01*
X188869096Y-74926430D01*
X188871194Y-74930866D01*
X188872847Y-74935486D01*
X188874039Y-74940245D01*
X188874759Y-74945099D01*
X188875000Y-74950000D01*
X188875000Y-75050000D01*
X188874759Y-75054901D01*
X188874039Y-75059755D01*
X188872847Y-75064514D01*
X188871194Y-75069134D01*
X188869096Y-75073570D01*
X188866573Y-75077779D01*
X188863651Y-75081720D01*
X188860355Y-75085355D01*
X188856720Y-75088651D01*
X188852779Y-75091573D01*
X188848570Y-75094096D01*
X188844134Y-75096194D01*
X188839514Y-75097847D01*
X188834755Y-75099039D01*
X188829901Y-75099759D01*
X188825000Y-75100000D01*
X188050000Y-75100000D01*
X188045099Y-75099759D01*
X188040245Y-75099039D01*
X188035486Y-75097847D01*
X188030866Y-75096194D01*
X188026430Y-75094096D01*
X188022221Y-75091573D01*
X188018280Y-75088651D01*
X188014645Y-75085355D01*
X188011349Y-75081720D01*
X188008427Y-75077779D01*
X188005904Y-75073570D01*
X188003806Y-75069134D01*
X188002153Y-75064514D01*
X188000961Y-75059755D01*
X188000241Y-75054901D01*
X188000000Y-75050000D01*
X188000000Y-74950000D01*
X188000241Y-74945099D01*
X188000961Y-74940245D01*
X188002153Y-74935486D01*
X188003806Y-74930866D01*
X188005904Y-74926430D01*
X188008427Y-74922221D01*
X188011349Y-74918280D01*
X188014645Y-74914645D01*
X188018280Y-74911349D01*
X188022221Y-74908427D01*
X188026430Y-74905904D01*
X188030866Y-74903806D01*
X188035486Y-74902153D01*
X188040245Y-74900961D01*
X188045099Y-74900241D01*
X188050000Y-74900000D01*
X188825000Y-74900000D01*
X188829901Y-74900241D01*
G37*
G36*
X188829901Y-75300241D02*
G01*
X188834755Y-75300961D01*
X188839514Y-75302153D01*
X188844134Y-75303806D01*
X188848570Y-75305904D01*
X188852779Y-75308427D01*
X188856720Y-75311349D01*
X188860355Y-75314645D01*
X188863651Y-75318280D01*
X188866573Y-75322221D01*
X188869096Y-75326430D01*
X188871194Y-75330866D01*
X188872847Y-75335486D01*
X188874039Y-75340245D01*
X188874759Y-75345099D01*
X188875000Y-75350000D01*
X188875000Y-75450000D01*
X188874759Y-75454901D01*
X188874039Y-75459755D01*
X188872847Y-75464514D01*
X188871194Y-75469134D01*
X188869096Y-75473570D01*
X188866573Y-75477779D01*
X188863651Y-75481720D01*
X188860355Y-75485355D01*
X188856720Y-75488651D01*
X188852779Y-75491573D01*
X188848570Y-75494096D01*
X188844134Y-75496194D01*
X188839514Y-75497847D01*
X188834755Y-75499039D01*
X188829901Y-75499759D01*
X188825000Y-75500000D01*
X188050000Y-75500000D01*
X188045099Y-75499759D01*
X188040245Y-75499039D01*
X188035486Y-75497847D01*
X188030866Y-75496194D01*
X188026430Y-75494096D01*
X188022221Y-75491573D01*
X188018280Y-75488651D01*
X188014645Y-75485355D01*
X188011349Y-75481720D01*
X188008427Y-75477779D01*
X188005904Y-75473570D01*
X188003806Y-75469134D01*
X188002153Y-75464514D01*
X188000961Y-75459755D01*
X188000241Y-75454901D01*
X188000000Y-75450000D01*
X188000000Y-75350000D01*
X188000241Y-75345099D01*
X188000961Y-75340245D01*
X188002153Y-75335486D01*
X188003806Y-75330866D01*
X188005904Y-75326430D01*
X188008427Y-75322221D01*
X188011349Y-75318280D01*
X188014645Y-75314645D01*
X188018280Y-75311349D01*
X188022221Y-75308427D01*
X188026430Y-75305904D01*
X188030866Y-75303806D01*
X188035486Y-75302153D01*
X188040245Y-75300961D01*
X188045099Y-75300241D01*
X188050000Y-75300000D01*
X188825000Y-75300000D01*
X188829901Y-75300241D01*
G37*
G36*
X188829901Y-75700241D02*
G01*
X188834755Y-75700961D01*
X188839514Y-75702153D01*
X188844134Y-75703806D01*
X188848570Y-75705904D01*
X188852779Y-75708427D01*
X188856720Y-75711349D01*
X188860355Y-75714645D01*
X188863651Y-75718280D01*
X188866573Y-75722221D01*
X188869096Y-75726430D01*
X188871194Y-75730866D01*
X188872847Y-75735486D01*
X188874039Y-75740245D01*
X188874759Y-75745099D01*
X188875000Y-75750000D01*
X188875000Y-75850000D01*
X188874759Y-75854901D01*
X188874039Y-75859755D01*
X188872847Y-75864514D01*
X188871194Y-75869134D01*
X188869096Y-75873570D01*
X188866573Y-75877779D01*
X188863651Y-75881720D01*
X188860355Y-75885355D01*
X188856720Y-75888651D01*
X188852779Y-75891573D01*
X188848570Y-75894096D01*
X188844134Y-75896194D01*
X188839514Y-75897847D01*
X188834755Y-75899039D01*
X188829901Y-75899759D01*
X188825000Y-75900000D01*
X188050000Y-75900000D01*
X188045099Y-75899759D01*
X188040245Y-75899039D01*
X188035486Y-75897847D01*
X188030866Y-75896194D01*
X188026430Y-75894096D01*
X188022221Y-75891573D01*
X188018280Y-75888651D01*
X188014645Y-75885355D01*
X188011349Y-75881720D01*
X188008427Y-75877779D01*
X188005904Y-75873570D01*
X188003806Y-75869134D01*
X188002153Y-75864514D01*
X188000961Y-75859755D01*
X188000241Y-75854901D01*
X188000000Y-75850000D01*
X188000000Y-75750000D01*
X188000241Y-75745099D01*
X188000961Y-75740245D01*
X188002153Y-75735486D01*
X188003806Y-75730866D01*
X188005904Y-75726430D01*
X188008427Y-75722221D01*
X188011349Y-75718280D01*
X188014645Y-75714645D01*
X188018280Y-75711349D01*
X188022221Y-75708427D01*
X188026430Y-75705904D01*
X188030866Y-75703806D01*
X188035486Y-75702153D01*
X188040245Y-75700961D01*
X188045099Y-75700241D01*
X188050000Y-75700000D01*
X188825000Y-75700000D01*
X188829901Y-75700241D01*
G37*
G36*
X188829901Y-76100241D02*
G01*
X188834755Y-76100961D01*
X188839514Y-76102153D01*
X188844134Y-76103806D01*
X188848570Y-76105904D01*
X188852779Y-76108427D01*
X188856720Y-76111349D01*
X188860355Y-76114645D01*
X188863651Y-76118280D01*
X188866573Y-76122221D01*
X188869096Y-76126430D01*
X188871194Y-76130866D01*
X188872847Y-76135486D01*
X188874039Y-76140245D01*
X188874759Y-76145099D01*
X188875000Y-76150000D01*
X188875000Y-76250000D01*
X188874759Y-76254901D01*
X188874039Y-76259755D01*
X188872847Y-76264514D01*
X188871194Y-76269134D01*
X188869096Y-76273570D01*
X188866573Y-76277779D01*
X188863651Y-76281720D01*
X188860355Y-76285355D01*
X188856720Y-76288651D01*
X188852779Y-76291573D01*
X188848570Y-76294096D01*
X188844134Y-76296194D01*
X188839514Y-76297847D01*
X188834755Y-76299039D01*
X188829901Y-76299759D01*
X188825000Y-76300000D01*
X188050000Y-76300000D01*
X188045099Y-76299759D01*
X188040245Y-76299039D01*
X188035486Y-76297847D01*
X188030866Y-76296194D01*
X188026430Y-76294096D01*
X188022221Y-76291573D01*
X188018280Y-76288651D01*
X188014645Y-76285355D01*
X188011349Y-76281720D01*
X188008427Y-76277779D01*
X188005904Y-76273570D01*
X188003806Y-76269134D01*
X188002153Y-76264514D01*
X188000961Y-76259755D01*
X188000241Y-76254901D01*
X188000000Y-76250000D01*
X188000000Y-76150000D01*
X188000241Y-76145099D01*
X188000961Y-76140245D01*
X188002153Y-76135486D01*
X188003806Y-76130866D01*
X188005904Y-76126430D01*
X188008427Y-76122221D01*
X188011349Y-76118280D01*
X188014645Y-76114645D01*
X188018280Y-76111349D01*
X188022221Y-76108427D01*
X188026430Y-76105904D01*
X188030866Y-76103806D01*
X188035486Y-76102153D01*
X188040245Y-76100961D01*
X188045099Y-76100241D01*
X188050000Y-76100000D01*
X188825000Y-76100000D01*
X188829901Y-76100241D01*
G37*
G36*
X188829901Y-76500241D02*
G01*
X188834755Y-76500961D01*
X188839514Y-76502153D01*
X188844134Y-76503806D01*
X188848570Y-76505904D01*
X188852779Y-76508427D01*
X188856720Y-76511349D01*
X188860355Y-76514645D01*
X188863651Y-76518280D01*
X188866573Y-76522221D01*
X188869096Y-76526430D01*
X188871194Y-76530866D01*
X188872847Y-76535486D01*
X188874039Y-76540245D01*
X188874759Y-76545099D01*
X188875000Y-76550000D01*
X188875000Y-76650000D01*
X188874759Y-76654901D01*
X188874039Y-76659755D01*
X188872847Y-76664514D01*
X188871194Y-76669134D01*
X188869096Y-76673570D01*
X188866573Y-76677779D01*
X188863651Y-76681720D01*
X188860355Y-76685355D01*
X188856720Y-76688651D01*
X188852779Y-76691573D01*
X188848570Y-76694096D01*
X188844134Y-76696194D01*
X188839514Y-76697847D01*
X188834755Y-76699039D01*
X188829901Y-76699759D01*
X188825000Y-76700000D01*
X188050000Y-76700000D01*
X188045099Y-76699759D01*
X188040245Y-76699039D01*
X188035486Y-76697847D01*
X188030866Y-76696194D01*
X188026430Y-76694096D01*
X188022221Y-76691573D01*
X188018280Y-76688651D01*
X188014645Y-76685355D01*
X188011349Y-76681720D01*
X188008427Y-76677779D01*
X188005904Y-76673570D01*
X188003806Y-76669134D01*
X188002153Y-76664514D01*
X188000961Y-76659755D01*
X188000241Y-76654901D01*
X188000000Y-76650000D01*
X188000000Y-76550000D01*
X188000241Y-76545099D01*
X188000961Y-76540245D01*
X188002153Y-76535486D01*
X188003806Y-76530866D01*
X188005904Y-76526430D01*
X188008427Y-76522221D01*
X188011349Y-76518280D01*
X188014645Y-76514645D01*
X188018280Y-76511349D01*
X188022221Y-76508427D01*
X188026430Y-76505904D01*
X188030866Y-76503806D01*
X188035486Y-76502153D01*
X188040245Y-76500961D01*
X188045099Y-76500241D01*
X188050000Y-76500000D01*
X188825000Y-76500000D01*
X188829901Y-76500241D01*
G37*
G36*
X188829901Y-76900241D02*
G01*
X188834755Y-76900961D01*
X188839514Y-76902153D01*
X188844134Y-76903806D01*
X188848570Y-76905904D01*
X188852779Y-76908427D01*
X188856720Y-76911349D01*
X188860355Y-76914645D01*
X188863651Y-76918280D01*
X188866573Y-76922221D01*
X188869096Y-76926430D01*
X188871194Y-76930866D01*
X188872847Y-76935486D01*
X188874039Y-76940245D01*
X188874759Y-76945099D01*
X188875000Y-76950000D01*
X188875000Y-77050000D01*
X188874759Y-77054901D01*
X188874039Y-77059755D01*
X188872847Y-77064514D01*
X188871194Y-77069134D01*
X188869096Y-77073570D01*
X188866573Y-77077779D01*
X188863651Y-77081720D01*
X188860355Y-77085355D01*
X188856720Y-77088651D01*
X188852779Y-77091573D01*
X188848570Y-77094096D01*
X188844134Y-77096194D01*
X188839514Y-77097847D01*
X188834755Y-77099039D01*
X188829901Y-77099759D01*
X188825000Y-77100000D01*
X188050000Y-77100000D01*
X188045099Y-77099759D01*
X188040245Y-77099039D01*
X188035486Y-77097847D01*
X188030866Y-77096194D01*
X188026430Y-77094096D01*
X188022221Y-77091573D01*
X188018280Y-77088651D01*
X188014645Y-77085355D01*
X188011349Y-77081720D01*
X188008427Y-77077779D01*
X188005904Y-77073570D01*
X188003806Y-77069134D01*
X188002153Y-77064514D01*
X188000961Y-77059755D01*
X188000241Y-77054901D01*
X188000000Y-77050000D01*
X188000000Y-76950000D01*
X188000241Y-76945099D01*
X188000961Y-76940245D01*
X188002153Y-76935486D01*
X188003806Y-76930866D01*
X188005904Y-76926430D01*
X188008427Y-76922221D01*
X188011349Y-76918280D01*
X188014645Y-76914645D01*
X188018280Y-76911349D01*
X188022221Y-76908427D01*
X188026430Y-76905904D01*
X188030866Y-76903806D01*
X188035486Y-76902153D01*
X188040245Y-76900961D01*
X188045099Y-76900241D01*
X188050000Y-76900000D01*
X188825000Y-76900000D01*
X188829901Y-76900241D01*
G37*
G36*
X188829901Y-77300241D02*
G01*
X188834755Y-77300961D01*
X188839514Y-77302153D01*
X188844134Y-77303806D01*
X188848570Y-77305904D01*
X188852779Y-77308427D01*
X188856720Y-77311349D01*
X188860355Y-77314645D01*
X188863651Y-77318280D01*
X188866573Y-77322221D01*
X188869096Y-77326430D01*
X188871194Y-77330866D01*
X188872847Y-77335486D01*
X188874039Y-77340245D01*
X188874759Y-77345099D01*
X188875000Y-77350000D01*
X188875000Y-77450000D01*
X188874759Y-77454901D01*
X188874039Y-77459755D01*
X188872847Y-77464514D01*
X188871194Y-77469134D01*
X188869096Y-77473570D01*
X188866573Y-77477779D01*
X188863651Y-77481720D01*
X188860355Y-77485355D01*
X188856720Y-77488651D01*
X188852779Y-77491573D01*
X188848570Y-77494096D01*
X188844134Y-77496194D01*
X188839514Y-77497847D01*
X188834755Y-77499039D01*
X188829901Y-77499759D01*
X188825000Y-77500000D01*
X188050000Y-77500000D01*
X188045099Y-77499759D01*
X188040245Y-77499039D01*
X188035486Y-77497847D01*
X188030866Y-77496194D01*
X188026430Y-77494096D01*
X188022221Y-77491573D01*
X188018280Y-77488651D01*
X188014645Y-77485355D01*
X188011349Y-77481720D01*
X188008427Y-77477779D01*
X188005904Y-77473570D01*
X188003806Y-77469134D01*
X188002153Y-77464514D01*
X188000961Y-77459755D01*
X188000241Y-77454901D01*
X188000000Y-77450000D01*
X188000000Y-77350000D01*
X188000241Y-77345099D01*
X188000961Y-77340245D01*
X188002153Y-77335486D01*
X188003806Y-77330866D01*
X188005904Y-77326430D01*
X188008427Y-77322221D01*
X188011349Y-77318280D01*
X188014645Y-77314645D01*
X188018280Y-77311349D01*
X188022221Y-77308427D01*
X188026430Y-77305904D01*
X188030866Y-77303806D01*
X188035486Y-77302153D01*
X188040245Y-77300961D01*
X188045099Y-77300241D01*
X188050000Y-77300000D01*
X188825000Y-77300000D01*
X188829901Y-77300241D01*
G37*
G36*
X188829901Y-77700241D02*
G01*
X188834755Y-77700961D01*
X188839514Y-77702153D01*
X188844134Y-77703806D01*
X188848570Y-77705904D01*
X188852779Y-77708427D01*
X188856720Y-77711349D01*
X188860355Y-77714645D01*
X188863651Y-77718280D01*
X188866573Y-77722221D01*
X188869096Y-77726430D01*
X188871194Y-77730866D01*
X188872847Y-77735486D01*
X188874039Y-77740245D01*
X188874759Y-77745099D01*
X188875000Y-77750000D01*
X188875000Y-77850000D01*
X188874759Y-77854901D01*
X188874039Y-77859755D01*
X188872847Y-77864514D01*
X188871194Y-77869134D01*
X188869096Y-77873570D01*
X188866573Y-77877779D01*
X188863651Y-77881720D01*
X188860355Y-77885355D01*
X188856720Y-77888651D01*
X188852779Y-77891573D01*
X188848570Y-77894096D01*
X188844134Y-77896194D01*
X188839514Y-77897847D01*
X188834755Y-77899039D01*
X188829901Y-77899759D01*
X188825000Y-77900000D01*
X188050000Y-77900000D01*
X188045099Y-77899759D01*
X188040245Y-77899039D01*
X188035486Y-77897847D01*
X188030866Y-77896194D01*
X188026430Y-77894096D01*
X188022221Y-77891573D01*
X188018280Y-77888651D01*
X188014645Y-77885355D01*
X188011349Y-77881720D01*
X188008427Y-77877779D01*
X188005904Y-77873570D01*
X188003806Y-77869134D01*
X188002153Y-77864514D01*
X188000961Y-77859755D01*
X188000241Y-77854901D01*
X188000000Y-77850000D01*
X188000000Y-77750000D01*
X188000241Y-77745099D01*
X188000961Y-77740245D01*
X188002153Y-77735486D01*
X188003806Y-77730866D01*
X188005904Y-77726430D01*
X188008427Y-77722221D01*
X188011349Y-77718280D01*
X188014645Y-77714645D01*
X188018280Y-77711349D01*
X188022221Y-77708427D01*
X188026430Y-77705904D01*
X188030866Y-77703806D01*
X188035486Y-77702153D01*
X188040245Y-77700961D01*
X188045099Y-77700241D01*
X188050000Y-77700000D01*
X188825000Y-77700000D01*
X188829901Y-77700241D01*
G37*
G36*
X188829901Y-78100241D02*
G01*
X188834755Y-78100961D01*
X188839514Y-78102153D01*
X188844134Y-78103806D01*
X188848570Y-78105904D01*
X188852779Y-78108427D01*
X188856720Y-78111349D01*
X188860355Y-78114645D01*
X188863651Y-78118280D01*
X188866573Y-78122221D01*
X188869096Y-78126430D01*
X188871194Y-78130866D01*
X188872847Y-78135486D01*
X188874039Y-78140245D01*
X188874759Y-78145099D01*
X188875000Y-78150000D01*
X188875000Y-78250000D01*
X188874759Y-78254901D01*
X188874039Y-78259755D01*
X188872847Y-78264514D01*
X188871194Y-78269134D01*
X188869096Y-78273570D01*
X188866573Y-78277779D01*
X188863651Y-78281720D01*
X188860355Y-78285355D01*
X188856720Y-78288651D01*
X188852779Y-78291573D01*
X188848570Y-78294096D01*
X188844134Y-78296194D01*
X188839514Y-78297847D01*
X188834755Y-78299039D01*
X188829901Y-78299759D01*
X188825000Y-78300000D01*
X188050000Y-78300000D01*
X188045099Y-78299759D01*
X188040245Y-78299039D01*
X188035486Y-78297847D01*
X188030866Y-78296194D01*
X188026430Y-78294096D01*
X188022221Y-78291573D01*
X188018280Y-78288651D01*
X188014645Y-78285355D01*
X188011349Y-78281720D01*
X188008427Y-78277779D01*
X188005904Y-78273570D01*
X188003806Y-78269134D01*
X188002153Y-78264514D01*
X188000961Y-78259755D01*
X188000241Y-78254901D01*
X188000000Y-78250000D01*
X188000000Y-78150000D01*
X188000241Y-78145099D01*
X188000961Y-78140245D01*
X188002153Y-78135486D01*
X188003806Y-78130866D01*
X188005904Y-78126430D01*
X188008427Y-78122221D01*
X188011349Y-78118280D01*
X188014645Y-78114645D01*
X188018280Y-78111349D01*
X188022221Y-78108427D01*
X188026430Y-78105904D01*
X188030866Y-78103806D01*
X188035486Y-78102153D01*
X188040245Y-78100961D01*
X188045099Y-78100241D01*
X188050000Y-78100000D01*
X188825000Y-78100000D01*
X188829901Y-78100241D01*
G37*
G36*
X188829901Y-78500241D02*
G01*
X188834755Y-78500961D01*
X188839514Y-78502153D01*
X188844134Y-78503806D01*
X188848570Y-78505904D01*
X188852779Y-78508427D01*
X188856720Y-78511349D01*
X188860355Y-78514645D01*
X188863651Y-78518280D01*
X188866573Y-78522221D01*
X188869096Y-78526430D01*
X188871194Y-78530866D01*
X188872847Y-78535486D01*
X188874039Y-78540245D01*
X188874759Y-78545099D01*
X188875000Y-78550000D01*
X188875000Y-78650000D01*
X188874759Y-78654901D01*
X188874039Y-78659755D01*
X188872847Y-78664514D01*
X188871194Y-78669134D01*
X188869096Y-78673570D01*
X188866573Y-78677779D01*
X188863651Y-78681720D01*
X188860355Y-78685355D01*
X188856720Y-78688651D01*
X188852779Y-78691573D01*
X188848570Y-78694096D01*
X188844134Y-78696194D01*
X188839514Y-78697847D01*
X188834755Y-78699039D01*
X188829901Y-78699759D01*
X188825000Y-78700000D01*
X188050000Y-78700000D01*
X188045099Y-78699759D01*
X188040245Y-78699039D01*
X188035486Y-78697847D01*
X188030866Y-78696194D01*
X188026430Y-78694096D01*
X188022221Y-78691573D01*
X188018280Y-78688651D01*
X188014645Y-78685355D01*
X188011349Y-78681720D01*
X188008427Y-78677779D01*
X188005904Y-78673570D01*
X188003806Y-78669134D01*
X188002153Y-78664514D01*
X188000961Y-78659755D01*
X188000241Y-78654901D01*
X188000000Y-78650000D01*
X188000000Y-78550000D01*
X188000241Y-78545099D01*
X188000961Y-78540245D01*
X188002153Y-78535486D01*
X188003806Y-78530866D01*
X188005904Y-78526430D01*
X188008427Y-78522221D01*
X188011349Y-78518280D01*
X188014645Y-78514645D01*
X188018280Y-78511349D01*
X188022221Y-78508427D01*
X188026430Y-78505904D01*
X188030866Y-78503806D01*
X188035486Y-78502153D01*
X188040245Y-78500961D01*
X188045099Y-78500241D01*
X188050000Y-78500000D01*
X188825000Y-78500000D01*
X188829901Y-78500241D01*
G37*
G36*
X188829901Y-78900241D02*
G01*
X188834755Y-78900961D01*
X188839514Y-78902153D01*
X188844134Y-78903806D01*
X188848570Y-78905904D01*
X188852779Y-78908427D01*
X188856720Y-78911349D01*
X188860355Y-78914645D01*
X188863651Y-78918280D01*
X188866573Y-78922221D01*
X188869096Y-78926430D01*
X188871194Y-78930866D01*
X188872847Y-78935486D01*
X188874039Y-78940245D01*
X188874759Y-78945099D01*
X188875000Y-78950000D01*
X188875000Y-79050000D01*
X188874759Y-79054901D01*
X188874039Y-79059755D01*
X188872847Y-79064514D01*
X188871194Y-79069134D01*
X188869096Y-79073570D01*
X188866573Y-79077779D01*
X188863651Y-79081720D01*
X188860355Y-79085355D01*
X188856720Y-79088651D01*
X188852779Y-79091573D01*
X188848570Y-79094096D01*
X188844134Y-79096194D01*
X188839514Y-79097847D01*
X188834755Y-79099039D01*
X188829901Y-79099759D01*
X188825000Y-79100000D01*
X188050000Y-79100000D01*
X188045099Y-79099759D01*
X188040245Y-79099039D01*
X188035486Y-79097847D01*
X188030866Y-79096194D01*
X188026430Y-79094096D01*
X188022221Y-79091573D01*
X188018280Y-79088651D01*
X188014645Y-79085355D01*
X188011349Y-79081720D01*
X188008427Y-79077779D01*
X188005904Y-79073570D01*
X188003806Y-79069134D01*
X188002153Y-79064514D01*
X188000961Y-79059755D01*
X188000241Y-79054901D01*
X188000000Y-79050000D01*
X188000000Y-78950000D01*
X188000241Y-78945099D01*
X188000961Y-78940245D01*
X188002153Y-78935486D01*
X188003806Y-78930866D01*
X188005904Y-78926430D01*
X188008427Y-78922221D01*
X188011349Y-78918280D01*
X188014645Y-78914645D01*
X188018280Y-78911349D01*
X188022221Y-78908427D01*
X188026430Y-78905904D01*
X188030866Y-78903806D01*
X188035486Y-78902153D01*
X188040245Y-78900961D01*
X188045099Y-78900241D01*
X188050000Y-78900000D01*
X188825000Y-78900000D01*
X188829901Y-78900241D01*
G37*
G36*
X188829901Y-79300241D02*
G01*
X188834755Y-79300961D01*
X188839514Y-79302153D01*
X188844134Y-79303806D01*
X188848570Y-79305904D01*
X188852779Y-79308427D01*
X188856720Y-79311349D01*
X188860355Y-79314645D01*
X188863651Y-79318280D01*
X188866573Y-79322221D01*
X188869096Y-79326430D01*
X188871194Y-79330866D01*
X188872847Y-79335486D01*
X188874039Y-79340245D01*
X188874759Y-79345099D01*
X188875000Y-79350000D01*
X188875000Y-79450000D01*
X188874759Y-79454901D01*
X188874039Y-79459755D01*
X188872847Y-79464514D01*
X188871194Y-79469134D01*
X188869096Y-79473570D01*
X188866573Y-79477779D01*
X188863651Y-79481720D01*
X188860355Y-79485355D01*
X188856720Y-79488651D01*
X188852779Y-79491573D01*
X188848570Y-79494096D01*
X188844134Y-79496194D01*
X188839514Y-79497847D01*
X188834755Y-79499039D01*
X188829901Y-79499759D01*
X188825000Y-79500000D01*
X188050000Y-79500000D01*
X188045099Y-79499759D01*
X188040245Y-79499039D01*
X188035486Y-79497847D01*
X188030866Y-79496194D01*
X188026430Y-79494096D01*
X188022221Y-79491573D01*
X188018280Y-79488651D01*
X188014645Y-79485355D01*
X188011349Y-79481720D01*
X188008427Y-79477779D01*
X188005904Y-79473570D01*
X188003806Y-79469134D01*
X188002153Y-79464514D01*
X188000961Y-79459755D01*
X188000241Y-79454901D01*
X188000000Y-79450000D01*
X188000000Y-79350000D01*
X188000241Y-79345099D01*
X188000961Y-79340245D01*
X188002153Y-79335486D01*
X188003806Y-79330866D01*
X188005904Y-79326430D01*
X188008427Y-79322221D01*
X188011349Y-79318280D01*
X188014645Y-79314645D01*
X188018280Y-79311349D01*
X188022221Y-79308427D01*
X188026430Y-79305904D01*
X188030866Y-79303806D01*
X188035486Y-79302153D01*
X188040245Y-79300961D01*
X188045099Y-79300241D01*
X188050000Y-79300000D01*
X188825000Y-79300000D01*
X188829901Y-79300241D01*
G37*
D11*
X176000000Y-77550000D03*
X176000000Y-80450000D03*
X178300000Y-80450000D03*
X178300000Y-77550000D03*
D12*
X189550000Y-88875000D03*
X189525000Y-86725000D03*
X193675000Y-88875000D03*
X193675000Y-86725000D03*
X196150000Y-88875000D03*
X196125000Y-86725000D03*
X200275000Y-88875000D03*
X200275000Y-86725000D03*
X182950000Y-88875000D03*
X182925000Y-86725000D03*
X187075000Y-88875000D03*
X187075000Y-86725000D03*
X176350000Y-88875000D03*
X176325000Y-86725000D03*
X180475000Y-88875000D03*
X180475000Y-86725000D03*
D13*
X176925000Y-71700000D03*
X178675000Y-72700000D03*
X178675000Y-70700000D03*
D10*
G36*
X191664703Y-79995722D02*
G01*
X191679264Y-79997882D01*
X191693543Y-80001459D01*
X191707403Y-80006418D01*
X191720710Y-80012712D01*
X191733336Y-80020280D01*
X191745159Y-80029048D01*
X191756066Y-80038934D01*
X191765952Y-80049841D01*
X191774720Y-80061664D01*
X191782288Y-80074290D01*
X191788582Y-80087597D01*
X191793541Y-80101457D01*
X191797118Y-80115736D01*
X191799278Y-80130297D01*
X191800000Y-80145000D01*
X191800000Y-80445000D01*
X191799278Y-80459703D01*
X191797118Y-80474264D01*
X191793541Y-80488543D01*
X191788582Y-80502403D01*
X191782288Y-80515710D01*
X191774720Y-80528336D01*
X191765952Y-80540159D01*
X191756066Y-80551066D01*
X191745159Y-80560952D01*
X191733336Y-80569720D01*
X191720710Y-80577288D01*
X191707403Y-80583582D01*
X191693543Y-80588541D01*
X191679264Y-80592118D01*
X191664703Y-80594278D01*
X191650000Y-80595000D01*
X190350000Y-80595000D01*
X190335297Y-80594278D01*
X190320736Y-80592118D01*
X190306457Y-80588541D01*
X190292597Y-80583582D01*
X190279290Y-80577288D01*
X190266664Y-80569720D01*
X190254841Y-80560952D01*
X190243934Y-80551066D01*
X190234048Y-80540159D01*
X190225280Y-80528336D01*
X190217712Y-80515710D01*
X190211418Y-80502403D01*
X190206459Y-80488543D01*
X190202882Y-80474264D01*
X190200722Y-80459703D01*
X190200000Y-80445000D01*
X190200000Y-80145000D01*
X190200722Y-80130297D01*
X190202882Y-80115736D01*
X190206459Y-80101457D01*
X190211418Y-80087597D01*
X190217712Y-80074290D01*
X190225280Y-80061664D01*
X190234048Y-80049841D01*
X190243934Y-80038934D01*
X190254841Y-80029048D01*
X190266664Y-80020280D01*
X190279290Y-80012712D01*
X190292597Y-80006418D01*
X190306457Y-80001459D01*
X190320736Y-79997882D01*
X190335297Y-79995722D01*
X190350000Y-79995000D01*
X191650000Y-79995000D01*
X191664703Y-79995722D01*
G37*
G36*
X191664703Y-81265722D02*
G01*
X191679264Y-81267882D01*
X191693543Y-81271459D01*
X191707403Y-81276418D01*
X191720710Y-81282712D01*
X191733336Y-81290280D01*
X191745159Y-81299048D01*
X191756066Y-81308934D01*
X191765952Y-81319841D01*
X191774720Y-81331664D01*
X191782288Y-81344290D01*
X191788582Y-81357597D01*
X191793541Y-81371457D01*
X191797118Y-81385736D01*
X191799278Y-81400297D01*
X191800000Y-81415000D01*
X191800000Y-81715000D01*
X191799278Y-81729703D01*
X191797118Y-81744264D01*
X191793541Y-81758543D01*
X191788582Y-81772403D01*
X191782288Y-81785710D01*
X191774720Y-81798336D01*
X191765952Y-81810159D01*
X191756066Y-81821066D01*
X191745159Y-81830952D01*
X191733336Y-81839720D01*
X191720710Y-81847288D01*
X191707403Y-81853582D01*
X191693543Y-81858541D01*
X191679264Y-81862118D01*
X191664703Y-81864278D01*
X191650000Y-81865000D01*
X190350000Y-81865000D01*
X190335297Y-81864278D01*
X190320736Y-81862118D01*
X190306457Y-81858541D01*
X190292597Y-81853582D01*
X190279290Y-81847288D01*
X190266664Y-81839720D01*
X190254841Y-81830952D01*
X190243934Y-81821066D01*
X190234048Y-81810159D01*
X190225280Y-81798336D01*
X190217712Y-81785710D01*
X190211418Y-81772403D01*
X190206459Y-81758543D01*
X190202882Y-81744264D01*
X190200722Y-81729703D01*
X190200000Y-81715000D01*
X190200000Y-81415000D01*
X190200722Y-81400297D01*
X190202882Y-81385736D01*
X190206459Y-81371457D01*
X190211418Y-81357597D01*
X190217712Y-81344290D01*
X190225280Y-81331664D01*
X190234048Y-81319841D01*
X190243934Y-81308934D01*
X190254841Y-81299048D01*
X190266664Y-81290280D01*
X190279290Y-81282712D01*
X190292597Y-81276418D01*
X190306457Y-81271459D01*
X190320736Y-81267882D01*
X190335297Y-81265722D01*
X190350000Y-81265000D01*
X191650000Y-81265000D01*
X191664703Y-81265722D01*
G37*
G36*
X191664703Y-82535722D02*
G01*
X191679264Y-82537882D01*
X191693543Y-82541459D01*
X191707403Y-82546418D01*
X191720710Y-82552712D01*
X191733336Y-82560280D01*
X191745159Y-82569048D01*
X191756066Y-82578934D01*
X191765952Y-82589841D01*
X191774720Y-82601664D01*
X191782288Y-82614290D01*
X191788582Y-82627597D01*
X191793541Y-82641457D01*
X191797118Y-82655736D01*
X191799278Y-82670297D01*
X191800000Y-82685000D01*
X191800000Y-82985000D01*
X191799278Y-82999703D01*
X191797118Y-83014264D01*
X191793541Y-83028543D01*
X191788582Y-83042403D01*
X191782288Y-83055710D01*
X191774720Y-83068336D01*
X191765952Y-83080159D01*
X191756066Y-83091066D01*
X191745159Y-83100952D01*
X191733336Y-83109720D01*
X191720710Y-83117288D01*
X191707403Y-83123582D01*
X191693543Y-83128541D01*
X191679264Y-83132118D01*
X191664703Y-83134278D01*
X191650000Y-83135000D01*
X190350000Y-83135000D01*
X190335297Y-83134278D01*
X190320736Y-83132118D01*
X190306457Y-83128541D01*
X190292597Y-83123582D01*
X190279290Y-83117288D01*
X190266664Y-83109720D01*
X190254841Y-83100952D01*
X190243934Y-83091066D01*
X190234048Y-83080159D01*
X190225280Y-83068336D01*
X190217712Y-83055710D01*
X190211418Y-83042403D01*
X190206459Y-83028543D01*
X190202882Y-83014264D01*
X190200722Y-82999703D01*
X190200000Y-82985000D01*
X190200000Y-82685000D01*
X190200722Y-82670297D01*
X190202882Y-82655736D01*
X190206459Y-82641457D01*
X190211418Y-82627597D01*
X190217712Y-82614290D01*
X190225280Y-82601664D01*
X190234048Y-82589841D01*
X190243934Y-82578934D01*
X190254841Y-82569048D01*
X190266664Y-82560280D01*
X190279290Y-82552712D01*
X190292597Y-82546418D01*
X190306457Y-82541459D01*
X190320736Y-82537882D01*
X190335297Y-82535722D01*
X190350000Y-82535000D01*
X191650000Y-82535000D01*
X191664703Y-82535722D01*
G37*
G36*
X191664703Y-83805722D02*
G01*
X191679264Y-83807882D01*
X191693543Y-83811459D01*
X191707403Y-83816418D01*
X191720710Y-83822712D01*
X191733336Y-83830280D01*
X191745159Y-83839048D01*
X191756066Y-83848934D01*
X191765952Y-83859841D01*
X191774720Y-83871664D01*
X191782288Y-83884290D01*
X191788582Y-83897597D01*
X191793541Y-83911457D01*
X191797118Y-83925736D01*
X191799278Y-83940297D01*
X191800000Y-83955000D01*
X191800000Y-84255000D01*
X191799278Y-84269703D01*
X191797118Y-84284264D01*
X191793541Y-84298543D01*
X191788582Y-84312403D01*
X191782288Y-84325710D01*
X191774720Y-84338336D01*
X191765952Y-84350159D01*
X191756066Y-84361066D01*
X191745159Y-84370952D01*
X191733336Y-84379720D01*
X191720710Y-84387288D01*
X191707403Y-84393582D01*
X191693543Y-84398541D01*
X191679264Y-84402118D01*
X191664703Y-84404278D01*
X191650000Y-84405000D01*
X190350000Y-84405000D01*
X190335297Y-84404278D01*
X190320736Y-84402118D01*
X190306457Y-84398541D01*
X190292597Y-84393582D01*
X190279290Y-84387288D01*
X190266664Y-84379720D01*
X190254841Y-84370952D01*
X190243934Y-84361066D01*
X190234048Y-84350159D01*
X190225280Y-84338336D01*
X190217712Y-84325710D01*
X190211418Y-84312403D01*
X190206459Y-84298543D01*
X190202882Y-84284264D01*
X190200722Y-84269703D01*
X190200000Y-84255000D01*
X190200000Y-83955000D01*
X190200722Y-83940297D01*
X190202882Y-83925736D01*
X190206459Y-83911457D01*
X190211418Y-83897597D01*
X190217712Y-83884290D01*
X190225280Y-83871664D01*
X190234048Y-83859841D01*
X190243934Y-83848934D01*
X190254841Y-83839048D01*
X190266664Y-83830280D01*
X190279290Y-83822712D01*
X190292597Y-83816418D01*
X190306457Y-83811459D01*
X190320736Y-83807882D01*
X190335297Y-83805722D01*
X190350000Y-83805000D01*
X191650000Y-83805000D01*
X191664703Y-83805722D01*
G37*
G36*
X198864703Y-83805722D02*
G01*
X198879264Y-83807882D01*
X198893543Y-83811459D01*
X198907403Y-83816418D01*
X198920710Y-83822712D01*
X198933336Y-83830280D01*
X198945159Y-83839048D01*
X198956066Y-83848934D01*
X198965952Y-83859841D01*
X198974720Y-83871664D01*
X198982288Y-83884290D01*
X198988582Y-83897597D01*
X198993541Y-83911457D01*
X198997118Y-83925736D01*
X198999278Y-83940297D01*
X199000000Y-83955000D01*
X199000000Y-84255000D01*
X198999278Y-84269703D01*
X198997118Y-84284264D01*
X198993541Y-84298543D01*
X198988582Y-84312403D01*
X198982288Y-84325710D01*
X198974720Y-84338336D01*
X198965952Y-84350159D01*
X198956066Y-84361066D01*
X198945159Y-84370952D01*
X198933336Y-84379720D01*
X198920710Y-84387288D01*
X198907403Y-84393582D01*
X198893543Y-84398541D01*
X198879264Y-84402118D01*
X198864703Y-84404278D01*
X198850000Y-84405000D01*
X197550000Y-84405000D01*
X197535297Y-84404278D01*
X197520736Y-84402118D01*
X197506457Y-84398541D01*
X197492597Y-84393582D01*
X197479290Y-84387288D01*
X197466664Y-84379720D01*
X197454841Y-84370952D01*
X197443934Y-84361066D01*
X197434048Y-84350159D01*
X197425280Y-84338336D01*
X197417712Y-84325710D01*
X197411418Y-84312403D01*
X197406459Y-84298543D01*
X197402882Y-84284264D01*
X197400722Y-84269703D01*
X197400000Y-84255000D01*
X197400000Y-83955000D01*
X197400722Y-83940297D01*
X197402882Y-83925736D01*
X197406459Y-83911457D01*
X197411418Y-83897597D01*
X197417712Y-83884290D01*
X197425280Y-83871664D01*
X197434048Y-83859841D01*
X197443934Y-83848934D01*
X197454841Y-83839048D01*
X197466664Y-83830280D01*
X197479290Y-83822712D01*
X197492597Y-83816418D01*
X197506457Y-83811459D01*
X197520736Y-83807882D01*
X197535297Y-83805722D01*
X197550000Y-83805000D01*
X198850000Y-83805000D01*
X198864703Y-83805722D01*
G37*
G36*
X198864703Y-82535722D02*
G01*
X198879264Y-82537882D01*
X198893543Y-82541459D01*
X198907403Y-82546418D01*
X198920710Y-82552712D01*
X198933336Y-82560280D01*
X198945159Y-82569048D01*
X198956066Y-82578934D01*
X198965952Y-82589841D01*
X198974720Y-82601664D01*
X198982288Y-82614290D01*
X198988582Y-82627597D01*
X198993541Y-82641457D01*
X198997118Y-82655736D01*
X198999278Y-82670297D01*
X199000000Y-82685000D01*
X199000000Y-82985000D01*
X198999278Y-82999703D01*
X198997118Y-83014264D01*
X198993541Y-83028543D01*
X198988582Y-83042403D01*
X198982288Y-83055710D01*
X198974720Y-83068336D01*
X198965952Y-83080159D01*
X198956066Y-83091066D01*
X198945159Y-83100952D01*
X198933336Y-83109720D01*
X198920710Y-83117288D01*
X198907403Y-83123582D01*
X198893543Y-83128541D01*
X198879264Y-83132118D01*
X198864703Y-83134278D01*
X198850000Y-83135000D01*
X197550000Y-83135000D01*
X197535297Y-83134278D01*
X197520736Y-83132118D01*
X197506457Y-83128541D01*
X197492597Y-83123582D01*
X197479290Y-83117288D01*
X197466664Y-83109720D01*
X197454841Y-83100952D01*
X197443934Y-83091066D01*
X197434048Y-83080159D01*
X197425280Y-83068336D01*
X197417712Y-83055710D01*
X197411418Y-83042403D01*
X197406459Y-83028543D01*
X197402882Y-83014264D01*
X197400722Y-82999703D01*
X197400000Y-82985000D01*
X197400000Y-82685000D01*
X197400722Y-82670297D01*
X197402882Y-82655736D01*
X197406459Y-82641457D01*
X197411418Y-82627597D01*
X197417712Y-82614290D01*
X197425280Y-82601664D01*
X197434048Y-82589841D01*
X197443934Y-82578934D01*
X197454841Y-82569048D01*
X197466664Y-82560280D01*
X197479290Y-82552712D01*
X197492597Y-82546418D01*
X197506457Y-82541459D01*
X197520736Y-82537882D01*
X197535297Y-82535722D01*
X197550000Y-82535000D01*
X198850000Y-82535000D01*
X198864703Y-82535722D01*
G37*
G36*
X198864703Y-81265722D02*
G01*
X198879264Y-81267882D01*
X198893543Y-81271459D01*
X198907403Y-81276418D01*
X198920710Y-81282712D01*
X198933336Y-81290280D01*
X198945159Y-81299048D01*
X198956066Y-81308934D01*
X198965952Y-81319841D01*
X198974720Y-81331664D01*
X198982288Y-81344290D01*
X198988582Y-81357597D01*
X198993541Y-81371457D01*
X198997118Y-81385736D01*
X198999278Y-81400297D01*
X199000000Y-81415000D01*
X199000000Y-81715000D01*
X198999278Y-81729703D01*
X198997118Y-81744264D01*
X198993541Y-81758543D01*
X198988582Y-81772403D01*
X198982288Y-81785710D01*
X198974720Y-81798336D01*
X198965952Y-81810159D01*
X198956066Y-81821066D01*
X198945159Y-81830952D01*
X198933336Y-81839720D01*
X198920710Y-81847288D01*
X198907403Y-81853582D01*
X198893543Y-81858541D01*
X198879264Y-81862118D01*
X198864703Y-81864278D01*
X198850000Y-81865000D01*
X197550000Y-81865000D01*
X197535297Y-81864278D01*
X197520736Y-81862118D01*
X197506457Y-81858541D01*
X197492597Y-81853582D01*
X197479290Y-81847288D01*
X197466664Y-81839720D01*
X197454841Y-81830952D01*
X197443934Y-81821066D01*
X197434048Y-81810159D01*
X197425280Y-81798336D01*
X197417712Y-81785710D01*
X197411418Y-81772403D01*
X197406459Y-81758543D01*
X197402882Y-81744264D01*
X197400722Y-81729703D01*
X197400000Y-81715000D01*
X197400000Y-81415000D01*
X197400722Y-81400297D01*
X197402882Y-81385736D01*
X197406459Y-81371457D01*
X197411418Y-81357597D01*
X197417712Y-81344290D01*
X197425280Y-81331664D01*
X197434048Y-81319841D01*
X197443934Y-81308934D01*
X197454841Y-81299048D01*
X197466664Y-81290280D01*
X197479290Y-81282712D01*
X197492597Y-81276418D01*
X197506457Y-81271459D01*
X197520736Y-81267882D01*
X197535297Y-81265722D01*
X197550000Y-81265000D01*
X198850000Y-81265000D01*
X198864703Y-81265722D01*
G37*
G36*
X198864703Y-79995722D02*
G01*
X198879264Y-79997882D01*
X198893543Y-80001459D01*
X198907403Y-80006418D01*
X198920710Y-80012712D01*
X198933336Y-80020280D01*
X198945159Y-80029048D01*
X198956066Y-80038934D01*
X198965952Y-80049841D01*
X198974720Y-80061664D01*
X198982288Y-80074290D01*
X198988582Y-80087597D01*
X198993541Y-80101457D01*
X198997118Y-80115736D01*
X198999278Y-80130297D01*
X199000000Y-80145000D01*
X199000000Y-80445000D01*
X198999278Y-80459703D01*
X198997118Y-80474264D01*
X198993541Y-80488543D01*
X198988582Y-80502403D01*
X198982288Y-80515710D01*
X198974720Y-80528336D01*
X198965952Y-80540159D01*
X198956066Y-80551066D01*
X198945159Y-80560952D01*
X198933336Y-80569720D01*
X198920710Y-80577288D01*
X198907403Y-80583582D01*
X198893543Y-80588541D01*
X198879264Y-80592118D01*
X198864703Y-80594278D01*
X198850000Y-80595000D01*
X197550000Y-80595000D01*
X197535297Y-80594278D01*
X197520736Y-80592118D01*
X197506457Y-80588541D01*
X197492597Y-80583582D01*
X197479290Y-80577288D01*
X197466664Y-80569720D01*
X197454841Y-80560952D01*
X197443934Y-80551066D01*
X197434048Y-80540159D01*
X197425280Y-80528336D01*
X197417712Y-80515710D01*
X197411418Y-80502403D01*
X197406459Y-80488543D01*
X197402882Y-80474264D01*
X197400722Y-80459703D01*
X197400000Y-80445000D01*
X197400000Y-80145000D01*
X197400722Y-80130297D01*
X197402882Y-80115736D01*
X197406459Y-80101457D01*
X197411418Y-80087597D01*
X197417712Y-80074290D01*
X197425280Y-80061664D01*
X197434048Y-80049841D01*
X197443934Y-80038934D01*
X197454841Y-80029048D01*
X197466664Y-80020280D01*
X197479290Y-80012712D01*
X197492597Y-80006418D01*
X197506457Y-80001459D01*
X197520736Y-79997882D01*
X197535297Y-79995722D01*
X197550000Y-79995000D01*
X198850000Y-79995000D01*
X198864703Y-79995722D01*
G37*
D14*
X205350000Y-73700000D03*
X205350000Y-78300000D03*
X205350000Y-76000000D03*
D15*
X199050000Y-76000000D03*
D10*
G36*
X180086958Y-78305710D02*
G01*
X180101276Y-78307834D01*
X180115317Y-78311351D01*
X180128946Y-78316228D01*
X180142031Y-78322417D01*
X180154447Y-78329858D01*
X180166073Y-78338481D01*
X180176798Y-78348202D01*
X180186519Y-78358927D01*
X180195142Y-78370553D01*
X180202583Y-78382969D01*
X180208772Y-78396054D01*
X180213649Y-78409683D01*
X180217166Y-78423724D01*
X180219290Y-78438042D01*
X180220000Y-78452500D01*
X180220000Y-78747500D01*
X180219290Y-78761958D01*
X180217166Y-78776276D01*
X180213649Y-78790317D01*
X180208772Y-78803946D01*
X180202583Y-78817031D01*
X180195142Y-78829447D01*
X180186519Y-78841073D01*
X180176798Y-78851798D01*
X180166073Y-78861519D01*
X180154447Y-78870142D01*
X180142031Y-78877583D01*
X180128946Y-78883772D01*
X180115317Y-78888649D01*
X180101276Y-78892166D01*
X180086958Y-78894290D01*
X180072500Y-78895000D01*
X179727500Y-78895000D01*
X179713042Y-78894290D01*
X179698724Y-78892166D01*
X179684683Y-78888649D01*
X179671054Y-78883772D01*
X179657969Y-78877583D01*
X179645553Y-78870142D01*
X179633927Y-78861519D01*
X179623202Y-78851798D01*
X179613481Y-78841073D01*
X179604858Y-78829447D01*
X179597417Y-78817031D01*
X179591228Y-78803946D01*
X179586351Y-78790317D01*
X179582834Y-78776276D01*
X179580710Y-78761958D01*
X179580000Y-78747500D01*
X179580000Y-78452500D01*
X179580710Y-78438042D01*
X179582834Y-78423724D01*
X179586351Y-78409683D01*
X179591228Y-78396054D01*
X179597417Y-78382969D01*
X179604858Y-78370553D01*
X179613481Y-78358927D01*
X179623202Y-78348202D01*
X179633927Y-78338481D01*
X179645553Y-78329858D01*
X179657969Y-78322417D01*
X179671054Y-78316228D01*
X179684683Y-78311351D01*
X179698724Y-78307834D01*
X179713042Y-78305710D01*
X179727500Y-78305000D01*
X180072500Y-78305000D01*
X180086958Y-78305710D01*
G37*
G36*
X180086958Y-77335710D02*
G01*
X180101276Y-77337834D01*
X180115317Y-77341351D01*
X180128946Y-77346228D01*
X180142031Y-77352417D01*
X180154447Y-77359858D01*
X180166073Y-77368481D01*
X180176798Y-77378202D01*
X180186519Y-77388927D01*
X180195142Y-77400553D01*
X180202583Y-77412969D01*
X180208772Y-77426054D01*
X180213649Y-77439683D01*
X180217166Y-77453724D01*
X180219290Y-77468042D01*
X180220000Y-77482500D01*
X180220000Y-77777500D01*
X180219290Y-77791958D01*
X180217166Y-77806276D01*
X180213649Y-77820317D01*
X180208772Y-77833946D01*
X180202583Y-77847031D01*
X180195142Y-77859447D01*
X180186519Y-77871073D01*
X180176798Y-77881798D01*
X180166073Y-77891519D01*
X180154447Y-77900142D01*
X180142031Y-77907583D01*
X180128946Y-77913772D01*
X180115317Y-77918649D01*
X180101276Y-77922166D01*
X180086958Y-77924290D01*
X180072500Y-77925000D01*
X179727500Y-77925000D01*
X179713042Y-77924290D01*
X179698724Y-77922166D01*
X179684683Y-77918649D01*
X179671054Y-77913772D01*
X179657969Y-77907583D01*
X179645553Y-77900142D01*
X179633927Y-77891519D01*
X179623202Y-77881798D01*
X179613481Y-77871073D01*
X179604858Y-77859447D01*
X179597417Y-77847031D01*
X179591228Y-77833946D01*
X179586351Y-77820317D01*
X179582834Y-77806276D01*
X179580710Y-77791958D01*
X179580000Y-77777500D01*
X179580000Y-77482500D01*
X179580710Y-77468042D01*
X179582834Y-77453724D01*
X179586351Y-77439683D01*
X179591228Y-77426054D01*
X179597417Y-77412969D01*
X179604858Y-77400553D01*
X179613481Y-77388927D01*
X179623202Y-77378202D01*
X179633927Y-77368481D01*
X179645553Y-77359858D01*
X179657969Y-77352417D01*
X179671054Y-77346228D01*
X179684683Y-77341351D01*
X179698724Y-77337834D01*
X179713042Y-77335710D01*
X179727500Y-77335000D01*
X180072500Y-77335000D01*
X180086958Y-77335710D01*
G37*
G36*
X190276958Y-75680710D02*
G01*
X190291276Y-75682834D01*
X190305317Y-75686351D01*
X190318946Y-75691228D01*
X190332031Y-75697417D01*
X190344447Y-75704858D01*
X190356073Y-75713481D01*
X190366798Y-75723202D01*
X190376519Y-75733927D01*
X190385142Y-75745553D01*
X190392583Y-75757969D01*
X190398772Y-75771054D01*
X190403649Y-75784683D01*
X190407166Y-75798724D01*
X190409290Y-75813042D01*
X190410000Y-75827500D01*
X190410000Y-76172500D01*
X190409290Y-76186958D01*
X190407166Y-76201276D01*
X190403649Y-76215317D01*
X190398772Y-76228946D01*
X190392583Y-76242031D01*
X190385142Y-76254447D01*
X190376519Y-76266073D01*
X190366798Y-76276798D01*
X190356073Y-76286519D01*
X190344447Y-76295142D01*
X190332031Y-76302583D01*
X190318946Y-76308772D01*
X190305317Y-76313649D01*
X190291276Y-76317166D01*
X190276958Y-76319290D01*
X190262500Y-76320000D01*
X189967500Y-76320000D01*
X189953042Y-76319290D01*
X189938724Y-76317166D01*
X189924683Y-76313649D01*
X189911054Y-76308772D01*
X189897969Y-76302583D01*
X189885553Y-76295142D01*
X189873927Y-76286519D01*
X189863202Y-76276798D01*
X189853481Y-76266073D01*
X189844858Y-76254447D01*
X189837417Y-76242031D01*
X189831228Y-76228946D01*
X189826351Y-76215317D01*
X189822834Y-76201276D01*
X189820710Y-76186958D01*
X189820000Y-76172500D01*
X189820000Y-75827500D01*
X189820710Y-75813042D01*
X189822834Y-75798724D01*
X189826351Y-75784683D01*
X189831228Y-75771054D01*
X189837417Y-75757969D01*
X189844858Y-75745553D01*
X189853481Y-75733927D01*
X189863202Y-75723202D01*
X189873927Y-75713481D01*
X189885553Y-75704858D01*
X189897969Y-75697417D01*
X189911054Y-75691228D01*
X189924683Y-75686351D01*
X189938724Y-75682834D01*
X189953042Y-75680710D01*
X189967500Y-75680000D01*
X190262500Y-75680000D01*
X190276958Y-75680710D01*
G37*
G36*
X191246958Y-75680710D02*
G01*
X191261276Y-75682834D01*
X191275317Y-75686351D01*
X191288946Y-75691228D01*
X191302031Y-75697417D01*
X191314447Y-75704858D01*
X191326073Y-75713481D01*
X191336798Y-75723202D01*
X191346519Y-75733927D01*
X191355142Y-75745553D01*
X191362583Y-75757969D01*
X191368772Y-75771054D01*
X191373649Y-75784683D01*
X191377166Y-75798724D01*
X191379290Y-75813042D01*
X191380000Y-75827500D01*
X191380000Y-76172500D01*
X191379290Y-76186958D01*
X191377166Y-76201276D01*
X191373649Y-76215317D01*
X191368772Y-76228946D01*
X191362583Y-76242031D01*
X191355142Y-76254447D01*
X191346519Y-76266073D01*
X191336798Y-76276798D01*
X191326073Y-76286519D01*
X191314447Y-76295142D01*
X191302031Y-76302583D01*
X191288946Y-76308772D01*
X191275317Y-76313649D01*
X191261276Y-76317166D01*
X191246958Y-76319290D01*
X191232500Y-76320000D01*
X190937500Y-76320000D01*
X190923042Y-76319290D01*
X190908724Y-76317166D01*
X190894683Y-76313649D01*
X190881054Y-76308772D01*
X190867969Y-76302583D01*
X190855553Y-76295142D01*
X190843927Y-76286519D01*
X190833202Y-76276798D01*
X190823481Y-76266073D01*
X190814858Y-76254447D01*
X190807417Y-76242031D01*
X190801228Y-76228946D01*
X190796351Y-76215317D01*
X190792834Y-76201276D01*
X190790710Y-76186958D01*
X190790000Y-76172500D01*
X190790000Y-75827500D01*
X190790710Y-75813042D01*
X190792834Y-75798724D01*
X190796351Y-75784683D01*
X190801228Y-75771054D01*
X190807417Y-75757969D01*
X190814858Y-75745553D01*
X190823481Y-75733927D01*
X190833202Y-75723202D01*
X190843927Y-75713481D01*
X190855553Y-75704858D01*
X190867969Y-75697417D01*
X190881054Y-75691228D01*
X190894683Y-75686351D01*
X190908724Y-75682834D01*
X190923042Y-75680710D01*
X190937500Y-75680000D01*
X191232500Y-75680000D01*
X191246958Y-75680710D01*
G37*
G36*
X190676958Y-76680710D02*
G01*
X190691276Y-76682834D01*
X190705317Y-76686351D01*
X190718946Y-76691228D01*
X190732031Y-76697417D01*
X190744447Y-76704858D01*
X190756073Y-76713481D01*
X190766798Y-76723202D01*
X190776519Y-76733927D01*
X190785142Y-76745553D01*
X190792583Y-76757969D01*
X190798772Y-76771054D01*
X190803649Y-76784683D01*
X190807166Y-76798724D01*
X190809290Y-76813042D01*
X190810000Y-76827500D01*
X190810000Y-77172500D01*
X190809290Y-77186958D01*
X190807166Y-77201276D01*
X190803649Y-77215317D01*
X190798772Y-77228946D01*
X190792583Y-77242031D01*
X190785142Y-77254447D01*
X190776519Y-77266073D01*
X190766798Y-77276798D01*
X190756073Y-77286519D01*
X190744447Y-77295142D01*
X190732031Y-77302583D01*
X190718946Y-77308772D01*
X190705317Y-77313649D01*
X190691276Y-77317166D01*
X190676958Y-77319290D01*
X190662500Y-77320000D01*
X190367500Y-77320000D01*
X190353042Y-77319290D01*
X190338724Y-77317166D01*
X190324683Y-77313649D01*
X190311054Y-77308772D01*
X190297969Y-77302583D01*
X190285553Y-77295142D01*
X190273927Y-77286519D01*
X190263202Y-77276798D01*
X190253481Y-77266073D01*
X190244858Y-77254447D01*
X190237417Y-77242031D01*
X190231228Y-77228946D01*
X190226351Y-77215317D01*
X190222834Y-77201276D01*
X190220710Y-77186958D01*
X190220000Y-77172500D01*
X190220000Y-76827500D01*
X190220710Y-76813042D01*
X190222834Y-76798724D01*
X190226351Y-76784683D01*
X190231228Y-76771054D01*
X190237417Y-76757969D01*
X190244858Y-76745553D01*
X190253481Y-76733927D01*
X190263202Y-76723202D01*
X190273927Y-76713481D01*
X190285553Y-76704858D01*
X190297969Y-76697417D01*
X190311054Y-76691228D01*
X190324683Y-76686351D01*
X190338724Y-76682834D01*
X190353042Y-76680710D01*
X190367500Y-76680000D01*
X190662500Y-76680000D01*
X190676958Y-76680710D01*
G37*
G36*
X191646958Y-76680710D02*
G01*
X191661276Y-76682834D01*
X191675317Y-76686351D01*
X191688946Y-76691228D01*
X191702031Y-76697417D01*
X191714447Y-76704858D01*
X191726073Y-76713481D01*
X191736798Y-76723202D01*
X191746519Y-76733927D01*
X191755142Y-76745553D01*
X191762583Y-76757969D01*
X191768772Y-76771054D01*
X191773649Y-76784683D01*
X191777166Y-76798724D01*
X191779290Y-76813042D01*
X191780000Y-76827500D01*
X191780000Y-77172500D01*
X191779290Y-77186958D01*
X191777166Y-77201276D01*
X191773649Y-77215317D01*
X191768772Y-77228946D01*
X191762583Y-77242031D01*
X191755142Y-77254447D01*
X191746519Y-77266073D01*
X191736798Y-77276798D01*
X191726073Y-77286519D01*
X191714447Y-77295142D01*
X191702031Y-77302583D01*
X191688946Y-77308772D01*
X191675317Y-77313649D01*
X191661276Y-77317166D01*
X191646958Y-77319290D01*
X191632500Y-77320000D01*
X191337500Y-77320000D01*
X191323042Y-77319290D01*
X191308724Y-77317166D01*
X191294683Y-77313649D01*
X191281054Y-77308772D01*
X191267969Y-77302583D01*
X191255553Y-77295142D01*
X191243927Y-77286519D01*
X191233202Y-77276798D01*
X191223481Y-77266073D01*
X191214858Y-77254447D01*
X191207417Y-77242031D01*
X191201228Y-77228946D01*
X191196351Y-77215317D01*
X191192834Y-77201276D01*
X191190710Y-77186958D01*
X191190000Y-77172500D01*
X191190000Y-76827500D01*
X191190710Y-76813042D01*
X191192834Y-76798724D01*
X191196351Y-76784683D01*
X191201228Y-76771054D01*
X191207417Y-76757969D01*
X191214858Y-76745553D01*
X191223481Y-76733927D01*
X191233202Y-76723202D01*
X191243927Y-76713481D01*
X191255553Y-76704858D01*
X191267969Y-76697417D01*
X191281054Y-76691228D01*
X191294683Y-76686351D01*
X191308724Y-76682834D01*
X191323042Y-76680710D01*
X191337500Y-76680000D01*
X191632500Y-76680000D01*
X191646958Y-76680710D01*
G37*
G36*
X199646958Y-78480710D02*
G01*
X199661276Y-78482834D01*
X199675317Y-78486351D01*
X199688946Y-78491228D01*
X199702031Y-78497417D01*
X199714447Y-78504858D01*
X199726073Y-78513481D01*
X199736798Y-78523202D01*
X199746519Y-78533927D01*
X199755142Y-78545553D01*
X199762583Y-78557969D01*
X199768772Y-78571054D01*
X199773649Y-78584683D01*
X199777166Y-78598724D01*
X199779290Y-78613042D01*
X199780000Y-78627500D01*
X199780000Y-78972500D01*
X199779290Y-78986958D01*
X199777166Y-79001276D01*
X199773649Y-79015317D01*
X199768772Y-79028946D01*
X199762583Y-79042031D01*
X199755142Y-79054447D01*
X199746519Y-79066073D01*
X199736798Y-79076798D01*
X199726073Y-79086519D01*
X199714447Y-79095142D01*
X199702031Y-79102583D01*
X199688946Y-79108772D01*
X199675317Y-79113649D01*
X199661276Y-79117166D01*
X199646958Y-79119290D01*
X199632500Y-79120000D01*
X199337500Y-79120000D01*
X199323042Y-79119290D01*
X199308724Y-79117166D01*
X199294683Y-79113649D01*
X199281054Y-79108772D01*
X199267969Y-79102583D01*
X199255553Y-79095142D01*
X199243927Y-79086519D01*
X199233202Y-79076798D01*
X199223481Y-79066073D01*
X199214858Y-79054447D01*
X199207417Y-79042031D01*
X199201228Y-79028946D01*
X199196351Y-79015317D01*
X199192834Y-79001276D01*
X199190710Y-78986958D01*
X199190000Y-78972500D01*
X199190000Y-78627500D01*
X199190710Y-78613042D01*
X199192834Y-78598724D01*
X199196351Y-78584683D01*
X199201228Y-78571054D01*
X199207417Y-78557969D01*
X199214858Y-78545553D01*
X199223481Y-78533927D01*
X199233202Y-78523202D01*
X199243927Y-78513481D01*
X199255553Y-78504858D01*
X199267969Y-78497417D01*
X199281054Y-78491228D01*
X199294683Y-78486351D01*
X199308724Y-78482834D01*
X199323042Y-78480710D01*
X199337500Y-78480000D01*
X199632500Y-78480000D01*
X199646958Y-78480710D01*
G37*
G36*
X198676958Y-78480710D02*
G01*
X198691276Y-78482834D01*
X198705317Y-78486351D01*
X198718946Y-78491228D01*
X198732031Y-78497417D01*
X198744447Y-78504858D01*
X198756073Y-78513481D01*
X198766798Y-78523202D01*
X198776519Y-78533927D01*
X198785142Y-78545553D01*
X198792583Y-78557969D01*
X198798772Y-78571054D01*
X198803649Y-78584683D01*
X198807166Y-78598724D01*
X198809290Y-78613042D01*
X198810000Y-78627500D01*
X198810000Y-78972500D01*
X198809290Y-78986958D01*
X198807166Y-79001276D01*
X198803649Y-79015317D01*
X198798772Y-79028946D01*
X198792583Y-79042031D01*
X198785142Y-79054447D01*
X198776519Y-79066073D01*
X198766798Y-79076798D01*
X198756073Y-79086519D01*
X198744447Y-79095142D01*
X198732031Y-79102583D01*
X198718946Y-79108772D01*
X198705317Y-79113649D01*
X198691276Y-79117166D01*
X198676958Y-79119290D01*
X198662500Y-79120000D01*
X198367500Y-79120000D01*
X198353042Y-79119290D01*
X198338724Y-79117166D01*
X198324683Y-79113649D01*
X198311054Y-79108772D01*
X198297969Y-79102583D01*
X198285553Y-79095142D01*
X198273927Y-79086519D01*
X198263202Y-79076798D01*
X198253481Y-79066073D01*
X198244858Y-79054447D01*
X198237417Y-79042031D01*
X198231228Y-79028946D01*
X198226351Y-79015317D01*
X198222834Y-79001276D01*
X198220710Y-78986958D01*
X198220000Y-78972500D01*
X198220000Y-78627500D01*
X198220710Y-78613042D01*
X198222834Y-78598724D01*
X198226351Y-78584683D01*
X198231228Y-78571054D01*
X198237417Y-78557969D01*
X198244858Y-78545553D01*
X198253481Y-78533927D01*
X198263202Y-78523202D01*
X198273927Y-78513481D01*
X198285553Y-78504858D01*
X198297969Y-78497417D01*
X198311054Y-78491228D01*
X198324683Y-78486351D01*
X198338724Y-78482834D01*
X198353042Y-78480710D01*
X198367500Y-78480000D01*
X198662500Y-78480000D01*
X198676958Y-78480710D01*
G37*
G36*
X189646958Y-85080710D02*
G01*
X189661276Y-85082834D01*
X189675317Y-85086351D01*
X189688946Y-85091228D01*
X189702031Y-85097417D01*
X189714447Y-85104858D01*
X189726073Y-85113481D01*
X189736798Y-85123202D01*
X189746519Y-85133927D01*
X189755142Y-85145553D01*
X189762583Y-85157969D01*
X189768772Y-85171054D01*
X189773649Y-85184683D01*
X189777166Y-85198724D01*
X189779290Y-85213042D01*
X189780000Y-85227500D01*
X189780000Y-85572500D01*
X189779290Y-85586958D01*
X189777166Y-85601276D01*
X189773649Y-85615317D01*
X189768772Y-85628946D01*
X189762583Y-85642031D01*
X189755142Y-85654447D01*
X189746519Y-85666073D01*
X189736798Y-85676798D01*
X189726073Y-85686519D01*
X189714447Y-85695142D01*
X189702031Y-85702583D01*
X189688946Y-85708772D01*
X189675317Y-85713649D01*
X189661276Y-85717166D01*
X189646958Y-85719290D01*
X189632500Y-85720000D01*
X189337500Y-85720000D01*
X189323042Y-85719290D01*
X189308724Y-85717166D01*
X189294683Y-85713649D01*
X189281054Y-85708772D01*
X189267969Y-85702583D01*
X189255553Y-85695142D01*
X189243927Y-85686519D01*
X189233202Y-85676798D01*
X189223481Y-85666073D01*
X189214858Y-85654447D01*
X189207417Y-85642031D01*
X189201228Y-85628946D01*
X189196351Y-85615317D01*
X189192834Y-85601276D01*
X189190710Y-85586958D01*
X189190000Y-85572500D01*
X189190000Y-85227500D01*
X189190710Y-85213042D01*
X189192834Y-85198724D01*
X189196351Y-85184683D01*
X189201228Y-85171054D01*
X189207417Y-85157969D01*
X189214858Y-85145553D01*
X189223481Y-85133927D01*
X189233202Y-85123202D01*
X189243927Y-85113481D01*
X189255553Y-85104858D01*
X189267969Y-85097417D01*
X189281054Y-85091228D01*
X189294683Y-85086351D01*
X189308724Y-85082834D01*
X189323042Y-85080710D01*
X189337500Y-85080000D01*
X189632500Y-85080000D01*
X189646958Y-85080710D01*
G37*
G36*
X188676958Y-85080710D02*
G01*
X188691276Y-85082834D01*
X188705317Y-85086351D01*
X188718946Y-85091228D01*
X188732031Y-85097417D01*
X188744447Y-85104858D01*
X188756073Y-85113481D01*
X188766798Y-85123202D01*
X188776519Y-85133927D01*
X188785142Y-85145553D01*
X188792583Y-85157969D01*
X188798772Y-85171054D01*
X188803649Y-85184683D01*
X188807166Y-85198724D01*
X188809290Y-85213042D01*
X188810000Y-85227500D01*
X188810000Y-85572500D01*
X188809290Y-85586958D01*
X188807166Y-85601276D01*
X188803649Y-85615317D01*
X188798772Y-85628946D01*
X188792583Y-85642031D01*
X188785142Y-85654447D01*
X188776519Y-85666073D01*
X188766798Y-85676798D01*
X188756073Y-85686519D01*
X188744447Y-85695142D01*
X188732031Y-85702583D01*
X188718946Y-85708772D01*
X188705317Y-85713649D01*
X188691276Y-85717166D01*
X188676958Y-85719290D01*
X188662500Y-85720000D01*
X188367500Y-85720000D01*
X188353042Y-85719290D01*
X188338724Y-85717166D01*
X188324683Y-85713649D01*
X188311054Y-85708772D01*
X188297969Y-85702583D01*
X188285553Y-85695142D01*
X188273927Y-85686519D01*
X188263202Y-85676798D01*
X188253481Y-85666073D01*
X188244858Y-85654447D01*
X188237417Y-85642031D01*
X188231228Y-85628946D01*
X188226351Y-85615317D01*
X188222834Y-85601276D01*
X188220710Y-85586958D01*
X188220000Y-85572500D01*
X188220000Y-85227500D01*
X188220710Y-85213042D01*
X188222834Y-85198724D01*
X188226351Y-85184683D01*
X188231228Y-85171054D01*
X188237417Y-85157969D01*
X188244858Y-85145553D01*
X188253481Y-85133927D01*
X188263202Y-85123202D01*
X188273927Y-85113481D01*
X188285553Y-85104858D01*
X188297969Y-85097417D01*
X188311054Y-85091228D01*
X188324683Y-85086351D01*
X188338724Y-85082834D01*
X188353042Y-85080710D01*
X188367500Y-85080000D01*
X188662500Y-85080000D01*
X188676958Y-85080710D01*
G37*
G36*
X193346958Y-74180710D02*
G01*
X193361276Y-74182834D01*
X193375317Y-74186351D01*
X193388946Y-74191228D01*
X193402031Y-74197417D01*
X193414447Y-74204858D01*
X193426073Y-74213481D01*
X193436798Y-74223202D01*
X193446519Y-74233927D01*
X193455142Y-74245553D01*
X193462583Y-74257969D01*
X193468772Y-74271054D01*
X193473649Y-74284683D01*
X193477166Y-74298724D01*
X193479290Y-74313042D01*
X193480000Y-74327500D01*
X193480000Y-74672500D01*
X193479290Y-74686958D01*
X193477166Y-74701276D01*
X193473649Y-74715317D01*
X193468772Y-74728946D01*
X193462583Y-74742031D01*
X193455142Y-74754447D01*
X193446519Y-74766073D01*
X193436798Y-74776798D01*
X193426073Y-74786519D01*
X193414447Y-74795142D01*
X193402031Y-74802583D01*
X193388946Y-74808772D01*
X193375317Y-74813649D01*
X193361276Y-74817166D01*
X193346958Y-74819290D01*
X193332500Y-74820000D01*
X193037500Y-74820000D01*
X193023042Y-74819290D01*
X193008724Y-74817166D01*
X192994683Y-74813649D01*
X192981054Y-74808772D01*
X192967969Y-74802583D01*
X192955553Y-74795142D01*
X192943927Y-74786519D01*
X192933202Y-74776798D01*
X192923481Y-74766073D01*
X192914858Y-74754447D01*
X192907417Y-74742031D01*
X192901228Y-74728946D01*
X192896351Y-74715317D01*
X192892834Y-74701276D01*
X192890710Y-74686958D01*
X192890000Y-74672500D01*
X192890000Y-74327500D01*
X192890710Y-74313042D01*
X192892834Y-74298724D01*
X192896351Y-74284683D01*
X192901228Y-74271054D01*
X192907417Y-74257969D01*
X192914858Y-74245553D01*
X192923481Y-74233927D01*
X192933202Y-74223202D01*
X192943927Y-74213481D01*
X192955553Y-74204858D01*
X192967969Y-74197417D01*
X192981054Y-74191228D01*
X192994683Y-74186351D01*
X193008724Y-74182834D01*
X193023042Y-74180710D01*
X193037500Y-74180000D01*
X193332500Y-74180000D01*
X193346958Y-74180710D01*
G37*
G36*
X192376958Y-74180710D02*
G01*
X192391276Y-74182834D01*
X192405317Y-74186351D01*
X192418946Y-74191228D01*
X192432031Y-74197417D01*
X192444447Y-74204858D01*
X192456073Y-74213481D01*
X192466798Y-74223202D01*
X192476519Y-74233927D01*
X192485142Y-74245553D01*
X192492583Y-74257969D01*
X192498772Y-74271054D01*
X192503649Y-74284683D01*
X192507166Y-74298724D01*
X192509290Y-74313042D01*
X192510000Y-74327500D01*
X192510000Y-74672500D01*
X192509290Y-74686958D01*
X192507166Y-74701276D01*
X192503649Y-74715317D01*
X192498772Y-74728946D01*
X192492583Y-74742031D01*
X192485142Y-74754447D01*
X192476519Y-74766073D01*
X192466798Y-74776798D01*
X192456073Y-74786519D01*
X192444447Y-74795142D01*
X192432031Y-74802583D01*
X192418946Y-74808772D01*
X192405317Y-74813649D01*
X192391276Y-74817166D01*
X192376958Y-74819290D01*
X192362500Y-74820000D01*
X192067500Y-74820000D01*
X192053042Y-74819290D01*
X192038724Y-74817166D01*
X192024683Y-74813649D01*
X192011054Y-74808772D01*
X191997969Y-74802583D01*
X191985553Y-74795142D01*
X191973927Y-74786519D01*
X191963202Y-74776798D01*
X191953481Y-74766073D01*
X191944858Y-74754447D01*
X191937417Y-74742031D01*
X191931228Y-74728946D01*
X191926351Y-74715317D01*
X191922834Y-74701276D01*
X191920710Y-74686958D01*
X191920000Y-74672500D01*
X191920000Y-74327500D01*
X191920710Y-74313042D01*
X191922834Y-74298724D01*
X191926351Y-74284683D01*
X191931228Y-74271054D01*
X191937417Y-74257969D01*
X191944858Y-74245553D01*
X191953481Y-74233927D01*
X191963202Y-74223202D01*
X191973927Y-74213481D01*
X191985553Y-74204858D01*
X191997969Y-74197417D01*
X192011054Y-74191228D01*
X192024683Y-74186351D01*
X192038724Y-74182834D01*
X192053042Y-74180710D01*
X192067500Y-74180000D01*
X192362500Y-74180000D01*
X192376958Y-74180710D01*
G37*
G36*
X165246958Y-78080710D02*
G01*
X165261276Y-78082834D01*
X165275317Y-78086351D01*
X165288946Y-78091228D01*
X165302031Y-78097417D01*
X165314447Y-78104858D01*
X165326073Y-78113481D01*
X165336798Y-78123202D01*
X165346519Y-78133927D01*
X165355142Y-78145553D01*
X165362583Y-78157969D01*
X165368772Y-78171054D01*
X165373649Y-78184683D01*
X165377166Y-78198724D01*
X165379290Y-78213042D01*
X165380000Y-78227500D01*
X165380000Y-78572500D01*
X165379290Y-78586958D01*
X165377166Y-78601276D01*
X165373649Y-78615317D01*
X165368772Y-78628946D01*
X165362583Y-78642031D01*
X165355142Y-78654447D01*
X165346519Y-78666073D01*
X165336798Y-78676798D01*
X165326073Y-78686519D01*
X165314447Y-78695142D01*
X165302031Y-78702583D01*
X165288946Y-78708772D01*
X165275317Y-78713649D01*
X165261276Y-78717166D01*
X165246958Y-78719290D01*
X165232500Y-78720000D01*
X164937500Y-78720000D01*
X164923042Y-78719290D01*
X164908724Y-78717166D01*
X164894683Y-78713649D01*
X164881054Y-78708772D01*
X164867969Y-78702583D01*
X164855553Y-78695142D01*
X164843927Y-78686519D01*
X164833202Y-78676798D01*
X164823481Y-78666073D01*
X164814858Y-78654447D01*
X164807417Y-78642031D01*
X164801228Y-78628946D01*
X164796351Y-78615317D01*
X164792834Y-78601276D01*
X164790710Y-78586958D01*
X164790000Y-78572500D01*
X164790000Y-78227500D01*
X164790710Y-78213042D01*
X164792834Y-78198724D01*
X164796351Y-78184683D01*
X164801228Y-78171054D01*
X164807417Y-78157969D01*
X164814858Y-78145553D01*
X164823481Y-78133927D01*
X164833202Y-78123202D01*
X164843927Y-78113481D01*
X164855553Y-78104858D01*
X164867969Y-78097417D01*
X164881054Y-78091228D01*
X164894683Y-78086351D01*
X164908724Y-78082834D01*
X164923042Y-78080710D01*
X164937500Y-78080000D01*
X165232500Y-78080000D01*
X165246958Y-78080710D01*
G37*
G36*
X164276958Y-78080710D02*
G01*
X164291276Y-78082834D01*
X164305317Y-78086351D01*
X164318946Y-78091228D01*
X164332031Y-78097417D01*
X164344447Y-78104858D01*
X164356073Y-78113481D01*
X164366798Y-78123202D01*
X164376519Y-78133927D01*
X164385142Y-78145553D01*
X164392583Y-78157969D01*
X164398772Y-78171054D01*
X164403649Y-78184683D01*
X164407166Y-78198724D01*
X164409290Y-78213042D01*
X164410000Y-78227500D01*
X164410000Y-78572500D01*
X164409290Y-78586958D01*
X164407166Y-78601276D01*
X164403649Y-78615317D01*
X164398772Y-78628946D01*
X164392583Y-78642031D01*
X164385142Y-78654447D01*
X164376519Y-78666073D01*
X164366798Y-78676798D01*
X164356073Y-78686519D01*
X164344447Y-78695142D01*
X164332031Y-78702583D01*
X164318946Y-78708772D01*
X164305317Y-78713649D01*
X164291276Y-78717166D01*
X164276958Y-78719290D01*
X164262500Y-78720000D01*
X163967500Y-78720000D01*
X163953042Y-78719290D01*
X163938724Y-78717166D01*
X163924683Y-78713649D01*
X163911054Y-78708772D01*
X163897969Y-78702583D01*
X163885553Y-78695142D01*
X163873927Y-78686519D01*
X163863202Y-78676798D01*
X163853481Y-78666073D01*
X163844858Y-78654447D01*
X163837417Y-78642031D01*
X163831228Y-78628946D01*
X163826351Y-78615317D01*
X163822834Y-78601276D01*
X163820710Y-78586958D01*
X163820000Y-78572500D01*
X163820000Y-78227500D01*
X163820710Y-78213042D01*
X163822834Y-78198724D01*
X163826351Y-78184683D01*
X163831228Y-78171054D01*
X163837417Y-78157969D01*
X163844858Y-78145553D01*
X163853481Y-78133927D01*
X163863202Y-78123202D01*
X163873927Y-78113481D01*
X163885553Y-78104858D01*
X163897969Y-78097417D01*
X163911054Y-78091228D01*
X163924683Y-78086351D01*
X163938724Y-78082834D01*
X163953042Y-78080710D01*
X163967500Y-78080000D01*
X164262500Y-78080000D01*
X164276958Y-78080710D01*
G37*
G36*
X190846958Y-73680710D02*
G01*
X190861276Y-73682834D01*
X190875317Y-73686351D01*
X190888946Y-73691228D01*
X190902031Y-73697417D01*
X190914447Y-73704858D01*
X190926073Y-73713481D01*
X190936798Y-73723202D01*
X190946519Y-73733927D01*
X190955142Y-73745553D01*
X190962583Y-73757969D01*
X190968772Y-73771054D01*
X190973649Y-73784683D01*
X190977166Y-73798724D01*
X190979290Y-73813042D01*
X190980000Y-73827500D01*
X190980000Y-74172500D01*
X190979290Y-74186958D01*
X190977166Y-74201276D01*
X190973649Y-74215317D01*
X190968772Y-74228946D01*
X190962583Y-74242031D01*
X190955142Y-74254447D01*
X190946519Y-74266073D01*
X190936798Y-74276798D01*
X190926073Y-74286519D01*
X190914447Y-74295142D01*
X190902031Y-74302583D01*
X190888946Y-74308772D01*
X190875317Y-74313649D01*
X190861276Y-74317166D01*
X190846958Y-74319290D01*
X190832500Y-74320000D01*
X190537500Y-74320000D01*
X190523042Y-74319290D01*
X190508724Y-74317166D01*
X190494683Y-74313649D01*
X190481054Y-74308772D01*
X190467969Y-74302583D01*
X190455553Y-74295142D01*
X190443927Y-74286519D01*
X190433202Y-74276798D01*
X190423481Y-74266073D01*
X190414858Y-74254447D01*
X190407417Y-74242031D01*
X190401228Y-74228946D01*
X190396351Y-74215317D01*
X190392834Y-74201276D01*
X190390710Y-74186958D01*
X190390000Y-74172500D01*
X190390000Y-73827500D01*
X190390710Y-73813042D01*
X190392834Y-73798724D01*
X190396351Y-73784683D01*
X190401228Y-73771054D01*
X190407417Y-73757969D01*
X190414858Y-73745553D01*
X190423481Y-73733927D01*
X190433202Y-73723202D01*
X190443927Y-73713481D01*
X190455553Y-73704858D01*
X190467969Y-73697417D01*
X190481054Y-73691228D01*
X190494683Y-73686351D01*
X190508724Y-73682834D01*
X190523042Y-73680710D01*
X190537500Y-73680000D01*
X190832500Y-73680000D01*
X190846958Y-73680710D01*
G37*
G36*
X189876958Y-73680710D02*
G01*
X189891276Y-73682834D01*
X189905317Y-73686351D01*
X189918946Y-73691228D01*
X189932031Y-73697417D01*
X189944447Y-73704858D01*
X189956073Y-73713481D01*
X189966798Y-73723202D01*
X189976519Y-73733927D01*
X189985142Y-73745553D01*
X189992583Y-73757969D01*
X189998772Y-73771054D01*
X190003649Y-73784683D01*
X190007166Y-73798724D01*
X190009290Y-73813042D01*
X190010000Y-73827500D01*
X190010000Y-74172500D01*
X190009290Y-74186958D01*
X190007166Y-74201276D01*
X190003649Y-74215317D01*
X189998772Y-74228946D01*
X189992583Y-74242031D01*
X189985142Y-74254447D01*
X189976519Y-74266073D01*
X189966798Y-74276798D01*
X189956073Y-74286519D01*
X189944447Y-74295142D01*
X189932031Y-74302583D01*
X189918946Y-74308772D01*
X189905317Y-74313649D01*
X189891276Y-74317166D01*
X189876958Y-74319290D01*
X189862500Y-74320000D01*
X189567500Y-74320000D01*
X189553042Y-74319290D01*
X189538724Y-74317166D01*
X189524683Y-74313649D01*
X189511054Y-74308772D01*
X189497969Y-74302583D01*
X189485553Y-74295142D01*
X189473927Y-74286519D01*
X189463202Y-74276798D01*
X189453481Y-74266073D01*
X189444858Y-74254447D01*
X189437417Y-74242031D01*
X189431228Y-74228946D01*
X189426351Y-74215317D01*
X189422834Y-74201276D01*
X189420710Y-74186958D01*
X189420000Y-74172500D01*
X189420000Y-73827500D01*
X189420710Y-73813042D01*
X189422834Y-73798724D01*
X189426351Y-73784683D01*
X189431228Y-73771054D01*
X189437417Y-73757969D01*
X189444858Y-73745553D01*
X189453481Y-73733927D01*
X189463202Y-73723202D01*
X189473927Y-73713481D01*
X189485553Y-73704858D01*
X189497969Y-73697417D01*
X189511054Y-73691228D01*
X189524683Y-73686351D01*
X189538724Y-73682834D01*
X189553042Y-73680710D01*
X189567500Y-73680000D01*
X189862500Y-73680000D01*
X189876958Y-73680710D01*
G37*
G36*
X191246958Y-74680710D02*
G01*
X191261276Y-74682834D01*
X191275317Y-74686351D01*
X191288946Y-74691228D01*
X191302031Y-74697417D01*
X191314447Y-74704858D01*
X191326073Y-74713481D01*
X191336798Y-74723202D01*
X191346519Y-74733927D01*
X191355142Y-74745553D01*
X191362583Y-74757969D01*
X191368772Y-74771054D01*
X191373649Y-74784683D01*
X191377166Y-74798724D01*
X191379290Y-74813042D01*
X191380000Y-74827500D01*
X191380000Y-75172500D01*
X191379290Y-75186958D01*
X191377166Y-75201276D01*
X191373649Y-75215317D01*
X191368772Y-75228946D01*
X191362583Y-75242031D01*
X191355142Y-75254447D01*
X191346519Y-75266073D01*
X191336798Y-75276798D01*
X191326073Y-75286519D01*
X191314447Y-75295142D01*
X191302031Y-75302583D01*
X191288946Y-75308772D01*
X191275317Y-75313649D01*
X191261276Y-75317166D01*
X191246958Y-75319290D01*
X191232500Y-75320000D01*
X190937500Y-75320000D01*
X190923042Y-75319290D01*
X190908724Y-75317166D01*
X190894683Y-75313649D01*
X190881054Y-75308772D01*
X190867969Y-75302583D01*
X190855553Y-75295142D01*
X190843927Y-75286519D01*
X190833202Y-75276798D01*
X190823481Y-75266073D01*
X190814858Y-75254447D01*
X190807417Y-75242031D01*
X190801228Y-75228946D01*
X190796351Y-75215317D01*
X190792834Y-75201276D01*
X190790710Y-75186958D01*
X190790000Y-75172500D01*
X190790000Y-74827500D01*
X190790710Y-74813042D01*
X190792834Y-74798724D01*
X190796351Y-74784683D01*
X190801228Y-74771054D01*
X190807417Y-74757969D01*
X190814858Y-74745553D01*
X190823481Y-74733927D01*
X190833202Y-74723202D01*
X190843927Y-74713481D01*
X190855553Y-74704858D01*
X190867969Y-74697417D01*
X190881054Y-74691228D01*
X190894683Y-74686351D01*
X190908724Y-74682834D01*
X190923042Y-74680710D01*
X190937500Y-74680000D01*
X191232500Y-74680000D01*
X191246958Y-74680710D01*
G37*
G36*
X190276958Y-74680710D02*
G01*
X190291276Y-74682834D01*
X190305317Y-74686351D01*
X190318946Y-74691228D01*
X190332031Y-74697417D01*
X190344447Y-74704858D01*
X190356073Y-74713481D01*
X190366798Y-74723202D01*
X190376519Y-74733927D01*
X190385142Y-74745553D01*
X190392583Y-74757969D01*
X190398772Y-74771054D01*
X190403649Y-74784683D01*
X190407166Y-74798724D01*
X190409290Y-74813042D01*
X190410000Y-74827500D01*
X190410000Y-75172500D01*
X190409290Y-75186958D01*
X190407166Y-75201276D01*
X190403649Y-75215317D01*
X190398772Y-75228946D01*
X190392583Y-75242031D01*
X190385142Y-75254447D01*
X190376519Y-75266073D01*
X190366798Y-75276798D01*
X190356073Y-75286519D01*
X190344447Y-75295142D01*
X190332031Y-75302583D01*
X190318946Y-75308772D01*
X190305317Y-75313649D01*
X190291276Y-75317166D01*
X190276958Y-75319290D01*
X190262500Y-75320000D01*
X189967500Y-75320000D01*
X189953042Y-75319290D01*
X189938724Y-75317166D01*
X189924683Y-75313649D01*
X189911054Y-75308772D01*
X189897969Y-75302583D01*
X189885553Y-75295142D01*
X189873927Y-75286519D01*
X189863202Y-75276798D01*
X189853481Y-75266073D01*
X189844858Y-75254447D01*
X189837417Y-75242031D01*
X189831228Y-75228946D01*
X189826351Y-75215317D01*
X189822834Y-75201276D01*
X189820710Y-75186958D01*
X189820000Y-75172500D01*
X189820000Y-74827500D01*
X189820710Y-74813042D01*
X189822834Y-74798724D01*
X189826351Y-74784683D01*
X189831228Y-74771054D01*
X189837417Y-74757969D01*
X189844858Y-74745553D01*
X189853481Y-74733927D01*
X189863202Y-74723202D01*
X189873927Y-74713481D01*
X189885553Y-74704858D01*
X189897969Y-74697417D01*
X189911054Y-74691228D01*
X189924683Y-74686351D01*
X189938724Y-74682834D01*
X189953042Y-74680710D01*
X189967500Y-74680000D01*
X190262500Y-74680000D01*
X190276958Y-74680710D01*
G37*
G36*
X191646958Y-77680710D02*
G01*
X191661276Y-77682834D01*
X191675317Y-77686351D01*
X191688946Y-77691228D01*
X191702031Y-77697417D01*
X191714447Y-77704858D01*
X191726073Y-77713481D01*
X191736798Y-77723202D01*
X191746519Y-77733927D01*
X191755142Y-77745553D01*
X191762583Y-77757969D01*
X191768772Y-77771054D01*
X191773649Y-77784683D01*
X191777166Y-77798724D01*
X191779290Y-77813042D01*
X191780000Y-77827500D01*
X191780000Y-78172500D01*
X191779290Y-78186958D01*
X191777166Y-78201276D01*
X191773649Y-78215317D01*
X191768772Y-78228946D01*
X191762583Y-78242031D01*
X191755142Y-78254447D01*
X191746519Y-78266073D01*
X191736798Y-78276798D01*
X191726073Y-78286519D01*
X191714447Y-78295142D01*
X191702031Y-78302583D01*
X191688946Y-78308772D01*
X191675317Y-78313649D01*
X191661276Y-78317166D01*
X191646958Y-78319290D01*
X191632500Y-78320000D01*
X191337500Y-78320000D01*
X191323042Y-78319290D01*
X191308724Y-78317166D01*
X191294683Y-78313649D01*
X191281054Y-78308772D01*
X191267969Y-78302583D01*
X191255553Y-78295142D01*
X191243927Y-78286519D01*
X191233202Y-78276798D01*
X191223481Y-78266073D01*
X191214858Y-78254447D01*
X191207417Y-78242031D01*
X191201228Y-78228946D01*
X191196351Y-78215317D01*
X191192834Y-78201276D01*
X191190710Y-78186958D01*
X191190000Y-78172500D01*
X191190000Y-77827500D01*
X191190710Y-77813042D01*
X191192834Y-77798724D01*
X191196351Y-77784683D01*
X191201228Y-77771054D01*
X191207417Y-77757969D01*
X191214858Y-77745553D01*
X191223481Y-77733927D01*
X191233202Y-77723202D01*
X191243927Y-77713481D01*
X191255553Y-77704858D01*
X191267969Y-77697417D01*
X191281054Y-77691228D01*
X191294683Y-77686351D01*
X191308724Y-77682834D01*
X191323042Y-77680710D01*
X191337500Y-77680000D01*
X191632500Y-77680000D01*
X191646958Y-77680710D01*
G37*
G36*
X190676958Y-77680710D02*
G01*
X190691276Y-77682834D01*
X190705317Y-77686351D01*
X190718946Y-77691228D01*
X190732031Y-77697417D01*
X190744447Y-77704858D01*
X190756073Y-77713481D01*
X190766798Y-77723202D01*
X190776519Y-77733927D01*
X190785142Y-77745553D01*
X190792583Y-77757969D01*
X190798772Y-77771054D01*
X190803649Y-77784683D01*
X190807166Y-77798724D01*
X190809290Y-77813042D01*
X190810000Y-77827500D01*
X190810000Y-78172500D01*
X190809290Y-78186958D01*
X190807166Y-78201276D01*
X190803649Y-78215317D01*
X190798772Y-78228946D01*
X190792583Y-78242031D01*
X190785142Y-78254447D01*
X190776519Y-78266073D01*
X190766798Y-78276798D01*
X190756073Y-78286519D01*
X190744447Y-78295142D01*
X190732031Y-78302583D01*
X190718946Y-78308772D01*
X190705317Y-78313649D01*
X190691276Y-78317166D01*
X190676958Y-78319290D01*
X190662500Y-78320000D01*
X190367500Y-78320000D01*
X190353042Y-78319290D01*
X190338724Y-78317166D01*
X190324683Y-78313649D01*
X190311054Y-78308772D01*
X190297969Y-78302583D01*
X190285553Y-78295142D01*
X190273927Y-78286519D01*
X190263202Y-78276798D01*
X190253481Y-78266073D01*
X190244858Y-78254447D01*
X190237417Y-78242031D01*
X190231228Y-78228946D01*
X190226351Y-78215317D01*
X190222834Y-78201276D01*
X190220710Y-78186958D01*
X190220000Y-78172500D01*
X190220000Y-77827500D01*
X190220710Y-77813042D01*
X190222834Y-77798724D01*
X190226351Y-77784683D01*
X190231228Y-77771054D01*
X190237417Y-77757969D01*
X190244858Y-77745553D01*
X190253481Y-77733927D01*
X190263202Y-77723202D01*
X190273927Y-77713481D01*
X190285553Y-77704858D01*
X190297969Y-77697417D01*
X190311054Y-77691228D01*
X190324683Y-77686351D01*
X190338724Y-77682834D01*
X190353042Y-77680710D01*
X190367500Y-77680000D01*
X190662500Y-77680000D01*
X190676958Y-77680710D01*
G37*
G36*
X179076958Y-75480710D02*
G01*
X179091276Y-75482834D01*
X179105317Y-75486351D01*
X179118946Y-75491228D01*
X179132031Y-75497417D01*
X179144447Y-75504858D01*
X179156073Y-75513481D01*
X179166798Y-75523202D01*
X179176519Y-75533927D01*
X179185142Y-75545553D01*
X179192583Y-75557969D01*
X179198772Y-75571054D01*
X179203649Y-75584683D01*
X179207166Y-75598724D01*
X179209290Y-75613042D01*
X179210000Y-75627500D01*
X179210000Y-75972500D01*
X179209290Y-75986958D01*
X179207166Y-76001276D01*
X179203649Y-76015317D01*
X179198772Y-76028946D01*
X179192583Y-76042031D01*
X179185142Y-76054447D01*
X179176519Y-76066073D01*
X179166798Y-76076798D01*
X179156073Y-76086519D01*
X179144447Y-76095142D01*
X179132031Y-76102583D01*
X179118946Y-76108772D01*
X179105317Y-76113649D01*
X179091276Y-76117166D01*
X179076958Y-76119290D01*
X179062500Y-76120000D01*
X178767500Y-76120000D01*
X178753042Y-76119290D01*
X178738724Y-76117166D01*
X178724683Y-76113649D01*
X178711054Y-76108772D01*
X178697969Y-76102583D01*
X178685553Y-76095142D01*
X178673927Y-76086519D01*
X178663202Y-76076798D01*
X178653481Y-76066073D01*
X178644858Y-76054447D01*
X178637417Y-76042031D01*
X178631228Y-76028946D01*
X178626351Y-76015317D01*
X178622834Y-76001276D01*
X178620710Y-75986958D01*
X178620000Y-75972500D01*
X178620000Y-75627500D01*
X178620710Y-75613042D01*
X178622834Y-75598724D01*
X178626351Y-75584683D01*
X178631228Y-75571054D01*
X178637417Y-75557969D01*
X178644858Y-75545553D01*
X178653481Y-75533927D01*
X178663202Y-75523202D01*
X178673927Y-75513481D01*
X178685553Y-75504858D01*
X178697969Y-75497417D01*
X178711054Y-75491228D01*
X178724683Y-75486351D01*
X178738724Y-75482834D01*
X178753042Y-75480710D01*
X178767500Y-75480000D01*
X179062500Y-75480000D01*
X179076958Y-75480710D01*
G37*
G36*
X180046958Y-75480710D02*
G01*
X180061276Y-75482834D01*
X180075317Y-75486351D01*
X180088946Y-75491228D01*
X180102031Y-75497417D01*
X180114447Y-75504858D01*
X180126073Y-75513481D01*
X180136798Y-75523202D01*
X180146519Y-75533927D01*
X180155142Y-75545553D01*
X180162583Y-75557969D01*
X180168772Y-75571054D01*
X180173649Y-75584683D01*
X180177166Y-75598724D01*
X180179290Y-75613042D01*
X180180000Y-75627500D01*
X180180000Y-75972500D01*
X180179290Y-75986958D01*
X180177166Y-76001276D01*
X180173649Y-76015317D01*
X180168772Y-76028946D01*
X180162583Y-76042031D01*
X180155142Y-76054447D01*
X180146519Y-76066073D01*
X180136798Y-76076798D01*
X180126073Y-76086519D01*
X180114447Y-76095142D01*
X180102031Y-76102583D01*
X180088946Y-76108772D01*
X180075317Y-76113649D01*
X180061276Y-76117166D01*
X180046958Y-76119290D01*
X180032500Y-76120000D01*
X179737500Y-76120000D01*
X179723042Y-76119290D01*
X179708724Y-76117166D01*
X179694683Y-76113649D01*
X179681054Y-76108772D01*
X179667969Y-76102583D01*
X179655553Y-76095142D01*
X179643927Y-76086519D01*
X179633202Y-76076798D01*
X179623481Y-76066073D01*
X179614858Y-76054447D01*
X179607417Y-76042031D01*
X179601228Y-76028946D01*
X179596351Y-76015317D01*
X179592834Y-76001276D01*
X179590710Y-75986958D01*
X179590000Y-75972500D01*
X179590000Y-75627500D01*
X179590710Y-75613042D01*
X179592834Y-75598724D01*
X179596351Y-75584683D01*
X179601228Y-75571054D01*
X179607417Y-75557969D01*
X179614858Y-75545553D01*
X179623481Y-75533927D01*
X179633202Y-75523202D01*
X179643927Y-75513481D01*
X179655553Y-75504858D01*
X179667969Y-75497417D01*
X179681054Y-75491228D01*
X179694683Y-75486351D01*
X179708724Y-75482834D01*
X179723042Y-75480710D01*
X179737500Y-75480000D01*
X180032500Y-75480000D01*
X180046958Y-75480710D01*
G37*
G36*
X205576958Y-70880710D02*
G01*
X205591276Y-70882834D01*
X205605317Y-70886351D01*
X205618946Y-70891228D01*
X205632031Y-70897417D01*
X205644447Y-70904858D01*
X205656073Y-70913481D01*
X205666798Y-70923202D01*
X205676519Y-70933927D01*
X205685142Y-70945553D01*
X205692583Y-70957969D01*
X205698772Y-70971054D01*
X205703649Y-70984683D01*
X205707166Y-70998724D01*
X205709290Y-71013042D01*
X205710000Y-71027500D01*
X205710000Y-71372500D01*
X205709290Y-71386958D01*
X205707166Y-71401276D01*
X205703649Y-71415317D01*
X205698772Y-71428946D01*
X205692583Y-71442031D01*
X205685142Y-71454447D01*
X205676519Y-71466073D01*
X205666798Y-71476798D01*
X205656073Y-71486519D01*
X205644447Y-71495142D01*
X205632031Y-71502583D01*
X205618946Y-71508772D01*
X205605317Y-71513649D01*
X205591276Y-71517166D01*
X205576958Y-71519290D01*
X205562500Y-71520000D01*
X205267500Y-71520000D01*
X205253042Y-71519290D01*
X205238724Y-71517166D01*
X205224683Y-71513649D01*
X205211054Y-71508772D01*
X205197969Y-71502583D01*
X205185553Y-71495142D01*
X205173927Y-71486519D01*
X205163202Y-71476798D01*
X205153481Y-71466073D01*
X205144858Y-71454447D01*
X205137417Y-71442031D01*
X205131228Y-71428946D01*
X205126351Y-71415317D01*
X205122834Y-71401276D01*
X205120710Y-71386958D01*
X205120000Y-71372500D01*
X205120000Y-71027500D01*
X205120710Y-71013042D01*
X205122834Y-70998724D01*
X205126351Y-70984683D01*
X205131228Y-70971054D01*
X205137417Y-70957969D01*
X205144858Y-70945553D01*
X205153481Y-70933927D01*
X205163202Y-70923202D01*
X205173927Y-70913481D01*
X205185553Y-70904858D01*
X205197969Y-70897417D01*
X205211054Y-70891228D01*
X205224683Y-70886351D01*
X205238724Y-70882834D01*
X205253042Y-70880710D01*
X205267500Y-70880000D01*
X205562500Y-70880000D01*
X205576958Y-70880710D01*
G37*
G36*
X206546958Y-70880710D02*
G01*
X206561276Y-70882834D01*
X206575317Y-70886351D01*
X206588946Y-70891228D01*
X206602031Y-70897417D01*
X206614447Y-70904858D01*
X206626073Y-70913481D01*
X206636798Y-70923202D01*
X206646519Y-70933927D01*
X206655142Y-70945553D01*
X206662583Y-70957969D01*
X206668772Y-70971054D01*
X206673649Y-70984683D01*
X206677166Y-70998724D01*
X206679290Y-71013042D01*
X206680000Y-71027500D01*
X206680000Y-71372500D01*
X206679290Y-71386958D01*
X206677166Y-71401276D01*
X206673649Y-71415317D01*
X206668772Y-71428946D01*
X206662583Y-71442031D01*
X206655142Y-71454447D01*
X206646519Y-71466073D01*
X206636798Y-71476798D01*
X206626073Y-71486519D01*
X206614447Y-71495142D01*
X206602031Y-71502583D01*
X206588946Y-71508772D01*
X206575317Y-71513649D01*
X206561276Y-71517166D01*
X206546958Y-71519290D01*
X206532500Y-71520000D01*
X206237500Y-71520000D01*
X206223042Y-71519290D01*
X206208724Y-71517166D01*
X206194683Y-71513649D01*
X206181054Y-71508772D01*
X206167969Y-71502583D01*
X206155553Y-71495142D01*
X206143927Y-71486519D01*
X206133202Y-71476798D01*
X206123481Y-71466073D01*
X206114858Y-71454447D01*
X206107417Y-71442031D01*
X206101228Y-71428946D01*
X206096351Y-71415317D01*
X206092834Y-71401276D01*
X206090710Y-71386958D01*
X206090000Y-71372500D01*
X206090000Y-71027500D01*
X206090710Y-71013042D01*
X206092834Y-70998724D01*
X206096351Y-70984683D01*
X206101228Y-70971054D01*
X206107417Y-70957969D01*
X206114858Y-70945553D01*
X206123481Y-70933927D01*
X206133202Y-70923202D01*
X206143927Y-70913481D01*
X206155553Y-70904858D01*
X206167969Y-70897417D01*
X206181054Y-70891228D01*
X206194683Y-70886351D01*
X206208724Y-70882834D01*
X206223042Y-70880710D01*
X206237500Y-70880000D01*
X206532500Y-70880000D01*
X206546958Y-70880710D01*
G37*
G36*
X199280142Y-70176174D02*
G01*
X199303803Y-70179684D01*
X199327007Y-70185496D01*
X199349529Y-70193554D01*
X199371153Y-70203782D01*
X199391670Y-70216079D01*
X199410883Y-70230329D01*
X199428607Y-70246393D01*
X199444671Y-70264117D01*
X199458921Y-70283330D01*
X199471218Y-70303847D01*
X199481446Y-70325471D01*
X199489504Y-70347993D01*
X199495316Y-70371197D01*
X199498826Y-70394858D01*
X199500000Y-70418750D01*
X199500000Y-70906250D01*
X199498826Y-70930142D01*
X199495316Y-70953803D01*
X199489504Y-70977007D01*
X199481446Y-70999529D01*
X199471218Y-71021153D01*
X199458921Y-71041670D01*
X199444671Y-71060883D01*
X199428607Y-71078607D01*
X199410883Y-71094671D01*
X199391670Y-71108921D01*
X199371153Y-71121218D01*
X199349529Y-71131446D01*
X199327007Y-71139504D01*
X199303803Y-71145316D01*
X199280142Y-71148826D01*
X199256250Y-71150000D01*
X198343750Y-71150000D01*
X198319858Y-71148826D01*
X198296197Y-71145316D01*
X198272993Y-71139504D01*
X198250471Y-71131446D01*
X198228847Y-71121218D01*
X198208330Y-71108921D01*
X198189117Y-71094671D01*
X198171393Y-71078607D01*
X198155329Y-71060883D01*
X198141079Y-71041670D01*
X198128782Y-71021153D01*
X198118554Y-70999529D01*
X198110496Y-70977007D01*
X198104684Y-70953803D01*
X198101174Y-70930142D01*
X198100000Y-70906250D01*
X198100000Y-70418750D01*
X198101174Y-70394858D01*
X198104684Y-70371197D01*
X198110496Y-70347993D01*
X198118554Y-70325471D01*
X198128782Y-70303847D01*
X198141079Y-70283330D01*
X198155329Y-70264117D01*
X198171393Y-70246393D01*
X198189117Y-70230329D01*
X198208330Y-70216079D01*
X198228847Y-70203782D01*
X198250471Y-70193554D01*
X198272993Y-70185496D01*
X198296197Y-70179684D01*
X198319858Y-70176174D01*
X198343750Y-70175000D01*
X199256250Y-70175000D01*
X199280142Y-70176174D01*
G37*
G36*
X199280142Y-72051174D02*
G01*
X199303803Y-72054684D01*
X199327007Y-72060496D01*
X199349529Y-72068554D01*
X199371153Y-72078782D01*
X199391670Y-72091079D01*
X199410883Y-72105329D01*
X199428607Y-72121393D01*
X199444671Y-72139117D01*
X199458921Y-72158330D01*
X199471218Y-72178847D01*
X199481446Y-72200471D01*
X199489504Y-72222993D01*
X199495316Y-72246197D01*
X199498826Y-72269858D01*
X199500000Y-72293750D01*
X199500000Y-72781250D01*
X199498826Y-72805142D01*
X199495316Y-72828803D01*
X199489504Y-72852007D01*
X199481446Y-72874529D01*
X199471218Y-72896153D01*
X199458921Y-72916670D01*
X199444671Y-72935883D01*
X199428607Y-72953607D01*
X199410883Y-72969671D01*
X199391670Y-72983921D01*
X199371153Y-72996218D01*
X199349529Y-73006446D01*
X199327007Y-73014504D01*
X199303803Y-73020316D01*
X199280142Y-73023826D01*
X199256250Y-73025000D01*
X198343750Y-73025000D01*
X198319858Y-73023826D01*
X198296197Y-73020316D01*
X198272993Y-73014504D01*
X198250471Y-73006446D01*
X198228847Y-72996218D01*
X198208330Y-72983921D01*
X198189117Y-72969671D01*
X198171393Y-72953607D01*
X198155329Y-72935883D01*
X198141079Y-72916670D01*
X198128782Y-72896153D01*
X198118554Y-72874529D01*
X198110496Y-72852007D01*
X198104684Y-72828803D01*
X198101174Y-72805142D01*
X198100000Y-72781250D01*
X198100000Y-72293750D01*
X198101174Y-72269858D01*
X198104684Y-72246197D01*
X198110496Y-72222993D01*
X198118554Y-72200471D01*
X198128782Y-72178847D01*
X198141079Y-72158330D01*
X198155329Y-72139117D01*
X198171393Y-72121393D01*
X198189117Y-72105329D01*
X198208330Y-72091079D01*
X198228847Y-72078782D01*
X198250471Y-72068554D01*
X198272993Y-72060496D01*
X198296197Y-72054684D01*
X198319858Y-72051174D01*
X198343750Y-72050000D01*
X199256250Y-72050000D01*
X199280142Y-72051174D01*
G37*
G36*
X179186958Y-83190710D02*
G01*
X179201276Y-83192834D01*
X179215317Y-83196351D01*
X179228946Y-83201228D01*
X179242031Y-83207417D01*
X179254447Y-83214858D01*
X179266073Y-83223481D01*
X179276798Y-83233202D01*
X179286519Y-83243927D01*
X179295142Y-83255553D01*
X179302583Y-83267969D01*
X179308772Y-83281054D01*
X179313649Y-83294683D01*
X179317166Y-83308724D01*
X179319290Y-83323042D01*
X179320000Y-83337500D01*
X179320000Y-83632500D01*
X179319290Y-83646958D01*
X179317166Y-83661276D01*
X179313649Y-83675317D01*
X179308772Y-83688946D01*
X179302583Y-83702031D01*
X179295142Y-83714447D01*
X179286519Y-83726073D01*
X179276798Y-83736798D01*
X179266073Y-83746519D01*
X179254447Y-83755142D01*
X179242031Y-83762583D01*
X179228946Y-83768772D01*
X179215317Y-83773649D01*
X179201276Y-83777166D01*
X179186958Y-83779290D01*
X179172500Y-83780000D01*
X178827500Y-83780000D01*
X178813042Y-83779290D01*
X178798724Y-83777166D01*
X178784683Y-83773649D01*
X178771054Y-83768772D01*
X178757969Y-83762583D01*
X178745553Y-83755142D01*
X178733927Y-83746519D01*
X178723202Y-83736798D01*
X178713481Y-83726073D01*
X178704858Y-83714447D01*
X178697417Y-83702031D01*
X178691228Y-83688946D01*
X178686351Y-83675317D01*
X178682834Y-83661276D01*
X178680710Y-83646958D01*
X178680000Y-83632500D01*
X178680000Y-83337500D01*
X178680710Y-83323042D01*
X178682834Y-83308724D01*
X178686351Y-83294683D01*
X178691228Y-83281054D01*
X178697417Y-83267969D01*
X178704858Y-83255553D01*
X178713481Y-83243927D01*
X178723202Y-83233202D01*
X178733927Y-83223481D01*
X178745553Y-83214858D01*
X178757969Y-83207417D01*
X178771054Y-83201228D01*
X178784683Y-83196351D01*
X178798724Y-83192834D01*
X178813042Y-83190710D01*
X178827500Y-83190000D01*
X179172500Y-83190000D01*
X179186958Y-83190710D01*
G37*
G36*
X179186958Y-82220710D02*
G01*
X179201276Y-82222834D01*
X179215317Y-82226351D01*
X179228946Y-82231228D01*
X179242031Y-82237417D01*
X179254447Y-82244858D01*
X179266073Y-82253481D01*
X179276798Y-82263202D01*
X179286519Y-82273927D01*
X179295142Y-82285553D01*
X179302583Y-82297969D01*
X179308772Y-82311054D01*
X179313649Y-82324683D01*
X179317166Y-82338724D01*
X179319290Y-82353042D01*
X179320000Y-82367500D01*
X179320000Y-82662500D01*
X179319290Y-82676958D01*
X179317166Y-82691276D01*
X179313649Y-82705317D01*
X179308772Y-82718946D01*
X179302583Y-82732031D01*
X179295142Y-82744447D01*
X179286519Y-82756073D01*
X179276798Y-82766798D01*
X179266073Y-82776519D01*
X179254447Y-82785142D01*
X179242031Y-82792583D01*
X179228946Y-82798772D01*
X179215317Y-82803649D01*
X179201276Y-82807166D01*
X179186958Y-82809290D01*
X179172500Y-82810000D01*
X178827500Y-82810000D01*
X178813042Y-82809290D01*
X178798724Y-82807166D01*
X178784683Y-82803649D01*
X178771054Y-82798772D01*
X178757969Y-82792583D01*
X178745553Y-82785142D01*
X178733927Y-82776519D01*
X178723202Y-82766798D01*
X178713481Y-82756073D01*
X178704858Y-82744447D01*
X178697417Y-82732031D01*
X178691228Y-82718946D01*
X178686351Y-82705317D01*
X178682834Y-82691276D01*
X178680710Y-82676958D01*
X178680000Y-82662500D01*
X178680000Y-82367500D01*
X178680710Y-82353042D01*
X178682834Y-82338724D01*
X178686351Y-82324683D01*
X178691228Y-82311054D01*
X178697417Y-82297969D01*
X178704858Y-82285553D01*
X178713481Y-82273927D01*
X178723202Y-82263202D01*
X178733927Y-82253481D01*
X178745553Y-82244858D01*
X178757969Y-82237417D01*
X178771054Y-82231228D01*
X178784683Y-82226351D01*
X178798724Y-82222834D01*
X178813042Y-82220710D01*
X178827500Y-82220000D01*
X179172500Y-82220000D01*
X179186958Y-82220710D01*
G37*
G36*
X177076958Y-75080710D02*
G01*
X177091276Y-75082834D01*
X177105317Y-75086351D01*
X177118946Y-75091228D01*
X177132031Y-75097417D01*
X177144447Y-75104858D01*
X177156073Y-75113481D01*
X177166798Y-75123202D01*
X177176519Y-75133927D01*
X177185142Y-75145553D01*
X177192583Y-75157969D01*
X177198772Y-75171054D01*
X177203649Y-75184683D01*
X177207166Y-75198724D01*
X177209290Y-75213042D01*
X177210000Y-75227500D01*
X177210000Y-75572500D01*
X177209290Y-75586958D01*
X177207166Y-75601276D01*
X177203649Y-75615317D01*
X177198772Y-75628946D01*
X177192583Y-75642031D01*
X177185142Y-75654447D01*
X177176519Y-75666073D01*
X177166798Y-75676798D01*
X177156073Y-75686519D01*
X177144447Y-75695142D01*
X177132031Y-75702583D01*
X177118946Y-75708772D01*
X177105317Y-75713649D01*
X177091276Y-75717166D01*
X177076958Y-75719290D01*
X177062500Y-75720000D01*
X176767500Y-75720000D01*
X176753042Y-75719290D01*
X176738724Y-75717166D01*
X176724683Y-75713649D01*
X176711054Y-75708772D01*
X176697969Y-75702583D01*
X176685553Y-75695142D01*
X176673927Y-75686519D01*
X176663202Y-75676798D01*
X176653481Y-75666073D01*
X176644858Y-75654447D01*
X176637417Y-75642031D01*
X176631228Y-75628946D01*
X176626351Y-75615317D01*
X176622834Y-75601276D01*
X176620710Y-75586958D01*
X176620000Y-75572500D01*
X176620000Y-75227500D01*
X176620710Y-75213042D01*
X176622834Y-75198724D01*
X176626351Y-75184683D01*
X176631228Y-75171054D01*
X176637417Y-75157969D01*
X176644858Y-75145553D01*
X176653481Y-75133927D01*
X176663202Y-75123202D01*
X176673927Y-75113481D01*
X176685553Y-75104858D01*
X176697969Y-75097417D01*
X176711054Y-75091228D01*
X176724683Y-75086351D01*
X176738724Y-75082834D01*
X176753042Y-75080710D01*
X176767500Y-75080000D01*
X177062500Y-75080000D01*
X177076958Y-75080710D01*
G37*
G36*
X178046958Y-75080710D02*
G01*
X178061276Y-75082834D01*
X178075317Y-75086351D01*
X178088946Y-75091228D01*
X178102031Y-75097417D01*
X178114447Y-75104858D01*
X178126073Y-75113481D01*
X178136798Y-75123202D01*
X178146519Y-75133927D01*
X178155142Y-75145553D01*
X178162583Y-75157969D01*
X178168772Y-75171054D01*
X178173649Y-75184683D01*
X178177166Y-75198724D01*
X178179290Y-75213042D01*
X178180000Y-75227500D01*
X178180000Y-75572500D01*
X178179290Y-75586958D01*
X178177166Y-75601276D01*
X178173649Y-75615317D01*
X178168772Y-75628946D01*
X178162583Y-75642031D01*
X178155142Y-75654447D01*
X178146519Y-75666073D01*
X178136798Y-75676798D01*
X178126073Y-75686519D01*
X178114447Y-75695142D01*
X178102031Y-75702583D01*
X178088946Y-75708772D01*
X178075317Y-75713649D01*
X178061276Y-75717166D01*
X178046958Y-75719290D01*
X178032500Y-75720000D01*
X177737500Y-75720000D01*
X177723042Y-75719290D01*
X177708724Y-75717166D01*
X177694683Y-75713649D01*
X177681054Y-75708772D01*
X177667969Y-75702583D01*
X177655553Y-75695142D01*
X177643927Y-75686519D01*
X177633202Y-75676798D01*
X177623481Y-75666073D01*
X177614858Y-75654447D01*
X177607417Y-75642031D01*
X177601228Y-75628946D01*
X177596351Y-75615317D01*
X177592834Y-75601276D01*
X177590710Y-75586958D01*
X177590000Y-75572500D01*
X177590000Y-75227500D01*
X177590710Y-75213042D01*
X177592834Y-75198724D01*
X177596351Y-75184683D01*
X177601228Y-75171054D01*
X177607417Y-75157969D01*
X177614858Y-75145553D01*
X177623481Y-75133927D01*
X177633202Y-75123202D01*
X177643927Y-75113481D01*
X177655553Y-75104858D01*
X177667969Y-75097417D01*
X177681054Y-75091228D01*
X177694683Y-75086351D01*
X177708724Y-75082834D01*
X177723042Y-75080710D01*
X177737500Y-75080000D01*
X178032500Y-75080000D01*
X178046958Y-75080710D01*
G37*
G36*
X202680142Y-88251174D02*
G01*
X202703803Y-88254684D01*
X202727007Y-88260496D01*
X202749529Y-88268554D01*
X202771153Y-88278782D01*
X202791670Y-88291079D01*
X202810883Y-88305329D01*
X202828607Y-88321393D01*
X202844671Y-88339117D01*
X202858921Y-88358330D01*
X202871218Y-88378847D01*
X202881446Y-88400471D01*
X202889504Y-88422993D01*
X202895316Y-88446197D01*
X202898826Y-88469858D01*
X202900000Y-88493750D01*
X202900000Y-88981250D01*
X202898826Y-89005142D01*
X202895316Y-89028803D01*
X202889504Y-89052007D01*
X202881446Y-89074529D01*
X202871218Y-89096153D01*
X202858921Y-89116670D01*
X202844671Y-89135883D01*
X202828607Y-89153607D01*
X202810883Y-89169671D01*
X202791670Y-89183921D01*
X202771153Y-89196218D01*
X202749529Y-89206446D01*
X202727007Y-89214504D01*
X202703803Y-89220316D01*
X202680142Y-89223826D01*
X202656250Y-89225000D01*
X201743750Y-89225000D01*
X201719858Y-89223826D01*
X201696197Y-89220316D01*
X201672993Y-89214504D01*
X201650471Y-89206446D01*
X201628847Y-89196218D01*
X201608330Y-89183921D01*
X201589117Y-89169671D01*
X201571393Y-89153607D01*
X201555329Y-89135883D01*
X201541079Y-89116670D01*
X201528782Y-89096153D01*
X201518554Y-89074529D01*
X201510496Y-89052007D01*
X201504684Y-89028803D01*
X201501174Y-89005142D01*
X201500000Y-88981250D01*
X201500000Y-88493750D01*
X201501174Y-88469858D01*
X201504684Y-88446197D01*
X201510496Y-88422993D01*
X201518554Y-88400471D01*
X201528782Y-88378847D01*
X201541079Y-88358330D01*
X201555329Y-88339117D01*
X201571393Y-88321393D01*
X201589117Y-88305329D01*
X201608330Y-88291079D01*
X201628847Y-88278782D01*
X201650471Y-88268554D01*
X201672993Y-88260496D01*
X201696197Y-88254684D01*
X201719858Y-88251174D01*
X201743750Y-88250000D01*
X202656250Y-88250000D01*
X202680142Y-88251174D01*
G37*
G36*
X202680142Y-86376174D02*
G01*
X202703803Y-86379684D01*
X202727007Y-86385496D01*
X202749529Y-86393554D01*
X202771153Y-86403782D01*
X202791670Y-86416079D01*
X202810883Y-86430329D01*
X202828607Y-86446393D01*
X202844671Y-86464117D01*
X202858921Y-86483330D01*
X202871218Y-86503847D01*
X202881446Y-86525471D01*
X202889504Y-86547993D01*
X202895316Y-86571197D01*
X202898826Y-86594858D01*
X202900000Y-86618750D01*
X202900000Y-87106250D01*
X202898826Y-87130142D01*
X202895316Y-87153803D01*
X202889504Y-87177007D01*
X202881446Y-87199529D01*
X202871218Y-87221153D01*
X202858921Y-87241670D01*
X202844671Y-87260883D01*
X202828607Y-87278607D01*
X202810883Y-87294671D01*
X202791670Y-87308921D01*
X202771153Y-87321218D01*
X202749529Y-87331446D01*
X202727007Y-87339504D01*
X202703803Y-87345316D01*
X202680142Y-87348826D01*
X202656250Y-87350000D01*
X201743750Y-87350000D01*
X201719858Y-87348826D01*
X201696197Y-87345316D01*
X201672993Y-87339504D01*
X201650471Y-87331446D01*
X201628847Y-87321218D01*
X201608330Y-87308921D01*
X201589117Y-87294671D01*
X201571393Y-87278607D01*
X201555329Y-87260883D01*
X201541079Y-87241670D01*
X201528782Y-87221153D01*
X201518554Y-87199529D01*
X201510496Y-87177007D01*
X201504684Y-87153803D01*
X201501174Y-87130142D01*
X201500000Y-87106250D01*
X201500000Y-86618750D01*
X201501174Y-86594858D01*
X201504684Y-86571197D01*
X201510496Y-86547993D01*
X201518554Y-86525471D01*
X201528782Y-86503847D01*
X201541079Y-86483330D01*
X201555329Y-86464117D01*
X201571393Y-86446393D01*
X201589117Y-86430329D01*
X201608330Y-86416079D01*
X201628847Y-86403782D01*
X201650471Y-86393554D01*
X201672993Y-86385496D01*
X201696197Y-86379684D01*
X201719858Y-86376174D01*
X201743750Y-86375000D01*
X202656250Y-86375000D01*
X202680142Y-86376174D01*
G37*
M02*
