M48
; DRILL file {KiCad 5.1.5+dfsg1-2build2} date Fri 24 Sep 2021 14:29:37 BST
; FORMAT={-:-/ absolute / inch / decimal}
; #@! TF.CreationDate,2021-09-24T14:29:37+01:00
; #@! TF.GenerationSoftware,Kicad,Pcbnew,5.1.5+dfsg1-2build2
; #@! TF.FileFunction,Plated,1,4,PTH
FMAT,2
INCH
T1C0.0118
T2C0.0157
T3C0.0256
T4C0.0276
T5C0.0300
T6C0.0394
%
G90
G05
T1
X6.3701Y-3.3268
X6.4252Y-2.9016
X6.437Y-3.1772
X6.4634Y-2.7756
X6.626Y-3.2874
X6.626Y-3.5118
X6.6496Y-3.2244
X6.7638Y-3.4331
X6.8507Y-3.1152
X6.8563Y-3.4449
X6.8602Y-3.1606
X6.8661Y-3.1969
X6.874Y-2.814
X6.878Y-3.252
X6.878Y-3.5157
X6.8819Y-2.8583
X6.9016Y-3.3268
X6.917Y-3.446
X6.9921Y-3.4892
X7.0Y-2.7402
X7.0Y-3.1063
X7.0039Y-2.9213
X7.0039Y-3.2441
X7.0118Y-2.874
X7.0143Y-2.8457
X7.0433Y-3.4774
X7.0571Y-2.7972
X7.0709Y-3.4567
X7.0748Y-2.9094
X7.0758Y-3.0195
X7.0925Y-3.2638
X7.0942Y-3.3839
X7.0971Y-3.1299
X7.1024Y-2.7598
X7.1107Y-3.1575
X7.1181Y-3.3701
X7.1339Y-2.9016
X7.1402Y-3.3438
X7.1407Y-3.4183
X7.1417Y-2.8386
X7.1417Y-2.8661
X7.1417Y-3.4724
X7.1478Y-3.3173
X7.1575Y-2.7638
X7.1772Y-2.7874
X7.1917Y-3.1044
X7.2017Y-2.7539
X7.2127Y-3.1222
X7.2263Y-3.2661
X7.2286Y-3.299
X7.2363Y-3.1078
X7.2378Y-3.3927
X7.2423Y-3.2059
X7.2636Y-3.1112
X7.291Y-3.1079
X7.2953Y-2.8268
X7.3071Y-3.5207
X7.3142Y-3.1226
X7.3162Y-3.2403
X7.3228Y-3.4724
X7.3268Y-2.9272
X7.3327Y-3.4252
X7.3439Y-3.0348
X7.345Y-3.1102
X7.3484Y-3.2421
X7.3543Y-2.9213
X7.3701Y-3.2829
X7.371Y-3.1232
X7.3737Y-3.0453
X7.378Y-2.937
X7.3823Y-3.0741
X7.3858Y-3.0
X7.3917Y-3.2293
X7.4075Y-3.2044
X7.4094Y-3.3228
X7.4141Y-3.2454
X7.4244Y-2.8622
X7.4409Y-2.752
X7.4519Y-2.8622
X7.4528Y-3.3228
X7.4606Y-3.2303
X7.4685Y-3.1614
X7.5157Y-2.8622
X7.5669Y-3.0866
X7.5669Y-3.3071
X7.5709Y-2.9685
X7.5827Y-3.0591
X7.5945Y-2.8976
X7.5945Y-3.1632
X7.5945Y-3.2598
X7.6417Y-2.9488
X7.6417Y-3.0315
X7.6535Y-2.7402
X7.6693Y-3.2874
X7.6695Y-3.1848
X7.697Y-2.783
X7.7008Y-3.3701
X7.7087Y-2.8504
X7.7303Y-2.874
X7.7303Y-3.3622
X7.7402Y-2.7835
X7.748Y-3.0866
X7.748Y-3.2598
X7.7638Y-3.3406
X7.7717Y-2.8937
X7.815Y-2.8976
X7.8268Y-3.4488
X7.8583Y-3.311
X7.8681Y-3.1811
X7.8725Y-3.1284
X7.8858Y-3.2835
X7.9094Y-3.0827
X7.9173Y-3.2362
X7.9232Y-2.8031
X7.9409Y-3.2598
X7.9606Y-3.3858
X7.9685Y-3.3189
X7.9961Y-3.374
X8.0157Y-3.1457
X8.0315Y-3.1772
X8.0709Y-2.8386
X8.0906Y-3.3189
X8.0954Y-3.3953
X8.1063Y-3.3465
T2
X6.5945Y-2.7638
X6.6142Y-3.0197
X6.6299Y-2.8307
X8.0039Y-2.8346
T5
X8.1417Y-2.8159
X8.1417Y-2.9159
X8.1417Y-3.0159
X8.1417Y-3.1159
T6
X6.713Y-2.7803
X6.713Y-2.8803
X6.713Y-2.9803
X6.713Y-3.0803
X6.713Y-3.1803
X6.713Y-3.2803
X6.713Y-3.3803
X6.713Y-3.4803
X6.813Y-2.7835
X6.813Y-2.8803
X6.813Y-2.9803
X6.813Y-3.0803
X6.813Y-3.1803
X6.813Y-3.2803
X6.813Y-3.3803
X6.813Y-3.4803
T3
G00X8.052Y-3.2766
M15
G01X8.0362Y-3.2766
M16
G05
G00X8.052Y-3.4675
M15
G01X8.0362Y-3.4675
M16
G05
T4
G00X8.1732Y-3.2648
M15
G01X8.1535Y-3.2648
M16
G05
G00X8.1732Y-3.4793
M15
G01X8.1535Y-3.4793
M16
G05
T0
M30
