G04 #@! TF.GenerationSoftware,KiCad,Pcbnew,5.1.5+dfsg1-2build2*
G04 #@! TF.CreationDate,2021-09-24T14:29:39+01:00*
G04 #@! TF.ProjectId,picopak,7069636f-7061-46b2-9e6b-696361645f70,rev?*
G04 #@! TF.SameCoordinates,Original*
G04 #@! TF.FileFunction,Legend,Top*
G04 #@! TF.FilePolarity,Positive*
%FSLAX46Y46*%
G04 Gerber Fmt 4.6, Leading zero omitted, Abs format (unit mm)*
G04 Created by KiCad (PCBNEW 5.1.5+dfsg1-2build2) date 2021-09-24 14:29:39*
%MOMM*%
%LPD*%
G04 APERTURE LIST*
%ADD10C,0.150000*%
%ADD11C,0.120000*%
G04 APERTURE END LIST*
D10*
X205939285Y-75857142D02*
X205939285Y-76214285D01*
X205189285Y-76214285D01*
X205189285Y-75464285D02*
X205189285Y-75321428D01*
X205225000Y-75250000D01*
X205296428Y-75178571D01*
X205439285Y-75142857D01*
X205689285Y-75142857D01*
X205832142Y-75178571D01*
X205903571Y-75250000D01*
X205939285Y-75321428D01*
X205939285Y-75464285D01*
X205903571Y-75535714D01*
X205832142Y-75607142D01*
X205689285Y-75642857D01*
X205439285Y-75642857D01*
X205296428Y-75607142D01*
X205225000Y-75535714D01*
X205189285Y-75464285D01*
X205725000Y-74857142D02*
X205725000Y-74500000D01*
X205939285Y-74928571D02*
X205189285Y-74678571D01*
X205939285Y-74428571D01*
X205939285Y-74178571D02*
X205189285Y-74178571D01*
X205189285Y-74000000D01*
X205225000Y-73892857D01*
X205296428Y-73821428D01*
X205367857Y-73785714D01*
X205510714Y-73750000D01*
X205617857Y-73750000D01*
X205760714Y-73785714D01*
X205832142Y-73821428D01*
X205903571Y-73892857D01*
X205939285Y-74000000D01*
X205939285Y-74178571D01*
D11*
X202900000Y-75824999D02*
X202900000Y-73024999D01*
X202900000Y-73024999D02*
X204900000Y-73024999D01*
X204900000Y-73024999D02*
X204900000Y-75824999D01*
X204900000Y-75824999D02*
X202900000Y-75824999D01*
D10*
X175850000Y-71350000D02*
X181825000Y-71350000D01*
X177375000Y-78250000D02*
X181825000Y-78250000D01*
X187050000Y-84500000D02*
X194400000Y-84500000D01*
X194400000Y-84500000D02*
X195750000Y-84550000D01*
X195750000Y-84550000D02*
X196900000Y-84700000D01*
X196900000Y-84700000D02*
X198000000Y-84900000D01*
X198000000Y-84900000D02*
X199050000Y-85200000D01*
X197200000Y-71200000D02*
X197200000Y-69900000D01*
X187050000Y-79400000D02*
X187050000Y-72200000D01*
X187050000Y-82200000D02*
X187050000Y-84500000D01*
X199050000Y-85200000D02*
X201750000Y-85200000D01*
X201750000Y-85200000D02*
X201750000Y-82200000D01*
X201750000Y-72200000D02*
X201750000Y-79400000D01*
X196750000Y-71800000D02*
X196450000Y-71800000D01*
X196450000Y-71800000D02*
X196450000Y-72100000D01*
X196450000Y-72100000D02*
X196750000Y-72100000D01*
X196750000Y-72100000D02*
X196750000Y-71800000D01*
X197200000Y-71200000D02*
X200200000Y-71200000D01*
D11*
X169070000Y-89730000D02*
X169070000Y-69290000D01*
X169070000Y-69290000D02*
X166410000Y-69290000D01*
X166410000Y-69290000D02*
X166410000Y-89730000D01*
X166410000Y-89730000D02*
X169070000Y-89730000D01*
X166410000Y-88780000D02*
X160410000Y-88780000D01*
X160410000Y-88780000D02*
X160410000Y-88020000D01*
X160410000Y-88020000D02*
X166410000Y-88020000D01*
X166410000Y-88720000D02*
X160410000Y-88720000D01*
X166410000Y-88600000D02*
X160410000Y-88600000D01*
X166410000Y-88480000D02*
X160410000Y-88480000D01*
X166410000Y-88360000D02*
X160410000Y-88360000D01*
X166410000Y-88240000D02*
X160410000Y-88240000D01*
X166410000Y-88120000D02*
X160410000Y-88120000D01*
X169467071Y-88780000D02*
X169070000Y-88780000D01*
X169467071Y-88020000D02*
X169070000Y-88020000D01*
X169080000Y-70240000D02*
X169467071Y-70240000D01*
X169080000Y-71000000D02*
X169467071Y-71000000D01*
X169070000Y-87130000D02*
X166410000Y-87130000D01*
X166410000Y-86240000D02*
X160410000Y-86240000D01*
X160410000Y-86240000D02*
X160410000Y-85480000D01*
X160410000Y-85480000D02*
X166410000Y-85480000D01*
X169467071Y-86240000D02*
X169070000Y-86240000D01*
X169467071Y-85480000D02*
X169070000Y-85480000D01*
X169012929Y-72780000D02*
X169467071Y-72780000D01*
X169012929Y-73540000D02*
X169467071Y-73540000D01*
X169070000Y-84590000D02*
X166410000Y-84590000D01*
X166410000Y-83700000D02*
X160410000Y-83700000D01*
X160410000Y-83700000D02*
X160410000Y-82940000D01*
X160410000Y-82940000D02*
X166410000Y-82940000D01*
X169467071Y-83700000D02*
X169070000Y-83700000D01*
X169467071Y-82940000D02*
X169070000Y-82940000D01*
X169012929Y-75320000D02*
X169467071Y-75320000D01*
X169012929Y-76080000D02*
X169467071Y-76080000D01*
X169070000Y-82050000D02*
X166410000Y-82050000D01*
X166410000Y-81160000D02*
X160410000Y-81160000D01*
X160410000Y-81160000D02*
X160410000Y-80400000D01*
X160410000Y-80400000D02*
X166410000Y-80400000D01*
X169467071Y-81160000D02*
X169070000Y-81160000D01*
X169467071Y-80400000D02*
X169070000Y-80400000D01*
X169012929Y-77860000D02*
X169467071Y-77860000D01*
X169012929Y-78620000D02*
X169467071Y-78620000D01*
X169070000Y-79510000D02*
X166410000Y-79510000D01*
X166410000Y-78620000D02*
X160410000Y-78620000D01*
X160410000Y-78620000D02*
X160410000Y-77860000D01*
X160410000Y-77860000D02*
X166410000Y-77860000D01*
X169467071Y-78620000D02*
X169070000Y-78620000D01*
X169467071Y-77860000D02*
X169070000Y-77860000D01*
X169012929Y-80400000D02*
X169467071Y-80400000D01*
X169012929Y-81160000D02*
X169467071Y-81160000D01*
X169070000Y-76970000D02*
X166410000Y-76970000D01*
X166410000Y-76080000D02*
X160410000Y-76080000D01*
X160410000Y-76080000D02*
X160410000Y-75320000D01*
X160410000Y-75320000D02*
X166410000Y-75320000D01*
X169467071Y-76080000D02*
X169070000Y-76080000D01*
X169467071Y-75320000D02*
X169070000Y-75320000D01*
X169012929Y-82940000D02*
X169467071Y-82940000D01*
X169012929Y-83700000D02*
X169467071Y-83700000D01*
X169070000Y-74430000D02*
X166410000Y-74430000D01*
X166410000Y-73540000D02*
X160410000Y-73540000D01*
X160410000Y-73540000D02*
X160410000Y-72780000D01*
X160410000Y-72780000D02*
X166410000Y-72780000D01*
X169467071Y-73540000D02*
X169070000Y-73540000D01*
X169467071Y-72780000D02*
X169070000Y-72780000D01*
X169012929Y-85480000D02*
X169467071Y-85480000D01*
X169012929Y-86240000D02*
X169467071Y-86240000D01*
X169070000Y-71890000D02*
X166410000Y-71890000D01*
X166410000Y-71000000D02*
X160410000Y-71000000D01*
X160410000Y-71000000D02*
X160410000Y-70240000D01*
X160410000Y-70240000D02*
X166410000Y-70240000D01*
X169467071Y-71000000D02*
X169070000Y-71000000D01*
X169467071Y-70240000D02*
X169070000Y-70240000D01*
X169012929Y-88020000D02*
X169467071Y-88020000D01*
X169012929Y-88780000D02*
X169467071Y-88780000D01*
X174320000Y-88400000D02*
X174320000Y-89670000D01*
X174320000Y-89670000D02*
X173050000Y-89670000D01*
D10*
X175850000Y-80550000D02*
X181825000Y-80550000D01*
X177375000Y-87450000D02*
X181825000Y-87450000D01*
D11*
X206170000Y-89825000D02*
X204620000Y-89825000D01*
X206170000Y-89825000D02*
X206170000Y-89525000D01*
X208970000Y-89525000D02*
X206170000Y-89525000D01*
X206170000Y-81525000D02*
X204620000Y-81525000D01*
X206170000Y-81825000D02*
X206170000Y-81525000D01*
X208970000Y-81825000D02*
X206170000Y-81825000D01*
X202920000Y-86575000D02*
X203370000Y-86975000D01*
X202920000Y-87375000D02*
X202920000Y-86575000D01*
X203370000Y-86975000D02*
X202920000Y-87375000D01*
D10*
X204652380Y-79366666D02*
X204176190Y-79700000D01*
X204652380Y-79938095D02*
X203652380Y-79938095D01*
X203652380Y-79557142D01*
X203700000Y-79461904D01*
X203747619Y-79414285D01*
X203842857Y-79366666D01*
X203985714Y-79366666D01*
X204080952Y-79414285D01*
X204128571Y-79461904D01*
X204176190Y-79557142D01*
X204176190Y-79938095D01*
X203652380Y-79033333D02*
X203652380Y-78366666D01*
X204652380Y-78795238D01*
X201689285Y-74425000D02*
X202225000Y-74425000D01*
X202332142Y-74460714D01*
X202403571Y-74532142D01*
X202439285Y-74639285D01*
X202439285Y-74710714D01*
X202439285Y-74067857D02*
X201689285Y-74067857D01*
X201689285Y-73782142D01*
X201725000Y-73710714D01*
X201760714Y-73675000D01*
X201832142Y-73639285D01*
X201939285Y-73639285D01*
X202010714Y-73675000D01*
X202046428Y-73710714D01*
X202082142Y-73782142D01*
X202082142Y-74067857D01*
X202439285Y-72925000D02*
X202439285Y-73353571D01*
X202439285Y-73139285D02*
X201689285Y-73139285D01*
X201796428Y-73210714D01*
X201867857Y-73282142D01*
X201903571Y-73353571D01*
X178838095Y-69952380D02*
X178838095Y-70761904D01*
X178885714Y-70857142D01*
X178933333Y-70904761D01*
X179028571Y-70952380D01*
X179219047Y-70952380D01*
X179314285Y-70904761D01*
X179361904Y-70857142D01*
X179409523Y-70761904D01*
X179409523Y-69952380D01*
X179933333Y-70952380D02*
X180123809Y-70952380D01*
X180219047Y-70904761D01*
X180266666Y-70857142D01*
X180361904Y-70714285D01*
X180409523Y-70523809D01*
X180409523Y-70142857D01*
X180361904Y-70047619D01*
X180314285Y-70000000D01*
X180219047Y-69952380D01*
X180028571Y-69952380D01*
X179933333Y-70000000D01*
X179885714Y-70047619D01*
X179838095Y-70142857D01*
X179838095Y-70380952D01*
X179885714Y-70476190D01*
X179933333Y-70523809D01*
X180028571Y-70571428D01*
X180219047Y-70571428D01*
X180314285Y-70523809D01*
X180361904Y-70476190D01*
X180409523Y-70380952D01*
X178361904Y-79152380D02*
X178361904Y-79961904D01*
X178409523Y-80057142D01*
X178457142Y-80104761D01*
X178552380Y-80152380D01*
X178742857Y-80152380D01*
X178838095Y-80104761D01*
X178885714Y-80057142D01*
X178933333Y-79961904D01*
X178933333Y-79152380D01*
X179933333Y-80152380D02*
X179361904Y-80152380D01*
X179647619Y-80152380D02*
X179647619Y-79152380D01*
X179552380Y-79295238D01*
X179457142Y-79390476D01*
X179361904Y-79438095D01*
X180552380Y-79152380D02*
X180647619Y-79152380D01*
X180742857Y-79200000D01*
X180790476Y-79247619D01*
X180838095Y-79342857D01*
X180885714Y-79533333D01*
X180885714Y-79771428D01*
X180838095Y-79961904D01*
X180790476Y-80057142D01*
X180742857Y-80104761D01*
X180647619Y-80152380D01*
X180552380Y-80152380D01*
X180457142Y-80104761D01*
X180409523Y-80057142D01*
X180361904Y-79961904D01*
X180314285Y-79771428D01*
X180314285Y-79533333D01*
X180361904Y-79342857D01*
X180409523Y-79247619D01*
X180457142Y-79200000D01*
X180552380Y-79152380D01*
X202747619Y-88466666D02*
X202033333Y-88466666D01*
X201890476Y-88419047D01*
X201795238Y-88323809D01*
X201747619Y-88180952D01*
X201747619Y-88085714D01*
X201747619Y-89466666D02*
X201747619Y-88895238D01*
X201747619Y-89180952D02*
X202747619Y-89180952D01*
X202604761Y-89085714D01*
X202509523Y-88990476D01*
X202461904Y-88895238D01*
M02*
