G04 #@! TF.GenerationSoftware,KiCad,Pcbnew,5.1.5+dfsg1-2build2*
G04 #@! TF.CreationDate,2021-09-24T14:29:39+01:00*
G04 #@! TF.ProjectId,picopak,7069636f-7061-46b2-9e6b-696361645f70,rev?*
G04 #@! TF.SameCoordinates,Original*
G04 #@! TF.FileFunction,Copper,L3,Inr*
G04 #@! TF.FilePolarity,Positive*
%FSLAX46Y46*%
G04 Gerber Fmt 4.6, Leading zero omitted, Abs format (unit mm)*
G04 Created by KiCad (PCBNEW 5.1.5+dfsg1-2build2) date 2021-09-24 14:29:39*
%MOMM*%
%LPD*%
G04 APERTURE LIST*
%ADD10C,1.524000*%
%ADD11R,1.700000X1.700000*%
%ADD12O,1.700000X1.700000*%
%ADD13O,1.450000X1.050000*%
%ADD14O,1.800000X1.300000*%
%ADD15C,0.500000*%
%ADD16C,0.800000*%
%ADD17C,0.250000*%
%ADD18C,0.200000*%
%ADD19C,0.254000*%
G04 APERTURE END LIST*
D10*
X206800000Y-79145000D03*
X206800000Y-76605000D03*
X206800000Y-74065000D03*
X206800000Y-71525000D03*
D11*
X173050000Y-70700000D03*
D12*
X170510000Y-70620000D03*
X173050000Y-73160000D03*
X170510000Y-73160000D03*
X173050000Y-75700000D03*
X170510000Y-75700000D03*
X173050000Y-78240000D03*
X170510000Y-78240000D03*
X173050000Y-80780000D03*
X170510000Y-80780000D03*
X173050000Y-83320000D03*
X170510000Y-83320000D03*
X173050000Y-85860000D03*
X170510000Y-85860000D03*
X173050000Y-88400000D03*
X170510000Y-88400000D03*
D13*
X204320000Y-83225000D03*
X204320000Y-88075000D03*
D14*
X207350000Y-88375000D03*
X207350000Y-82925000D03*
D15*
X205900000Y-85000000D03*
X204000000Y-80700000D03*
X199600000Y-84100000D03*
X189300000Y-84400000D03*
X192300000Y-75400000D03*
X192600000Y-77700000D03*
X190900000Y-72699989D03*
X201250000Y-71200000D03*
X181400000Y-72800003D03*
X177600000Y-88625001D03*
X175691075Y-87529336D03*
X180150000Y-82900000D03*
X205000000Y-72100000D03*
X187223784Y-79329032D03*
X185300000Y-71800000D03*
X181800000Y-70200000D03*
X174249693Y-80279259D03*
X186535835Y-77083472D03*
X205500000Y-84300000D03*
X177900000Y-74200000D03*
X202200000Y-86000000D03*
X202400000Y-84300000D03*
X161800000Y-84500000D03*
X187600000Y-76200000D03*
X187400000Y-74600000D03*
X186100000Y-74349990D03*
X188200000Y-84400000D03*
X189700000Y-80300000D03*
X187750000Y-82023625D03*
X192900000Y-73600000D03*
X181400000Y-72100000D03*
X198500000Y-73600000D03*
X183954047Y-81430282D03*
X192900000Y-82800000D03*
X192900000Y-80345010D03*
X179726556Y-76695626D03*
D16*
X203300000Y-72000000D03*
X168400000Y-71900000D03*
D15*
X174800000Y-72600000D03*
X179250011Y-71049989D03*
X199961091Y-79461091D03*
X200300000Y-83400000D03*
X194800000Y-83500000D03*
X194804990Y-80895010D03*
X177800000Y-78900000D03*
X180267104Y-79500000D03*
X197200000Y-84850000D03*
X205623263Y-86240711D03*
X197400000Y-73500000D03*
X196350000Y-85400000D03*
X203100000Y-85700000D03*
X196350000Y-73000000D03*
X194100000Y-74900000D03*
X194100000Y-77000000D03*
X178100001Y-73000000D03*
X163200000Y-73700000D03*
X178162919Y-72280554D03*
X164170693Y-70500610D03*
X188150000Y-81391928D03*
X187292753Y-77350677D03*
X188318185Y-82432487D03*
X187511597Y-78081384D03*
X192200000Y-84000000D03*
X192200000Y-78400000D03*
X196800000Y-78400000D03*
X196800000Y-82800000D03*
X198800000Y-87600000D03*
X199850010Y-80800000D03*
X179600000Y-87800000D03*
X181200001Y-73700000D03*
X179700000Y-73900000D03*
X203600000Y-79900000D03*
X186800000Y-74200000D03*
X189500000Y-82050000D03*
X200900000Y-78300000D03*
X201100000Y-82200000D03*
X182922988Y-69950000D03*
X174400000Y-81200000D03*
D16*
X168000000Y-76700000D03*
X167500000Y-70200000D03*
D15*
X177800000Y-69600000D03*
X174600000Y-71475000D03*
X189279175Y-72700014D03*
X186000000Y-88200000D03*
X181400000Y-88200000D03*
X181374998Y-86825000D03*
X187200000Y-83385998D03*
X186650000Y-82350002D03*
X186250000Y-87000001D03*
X195800000Y-72400000D03*
X195600000Y-85600000D03*
X196600000Y-70700000D03*
X189000000Y-69900000D03*
X182300000Y-70800000D03*
X186564080Y-79000000D03*
X185781332Y-79315290D03*
X185190616Y-78939714D03*
X184495725Y-79024135D03*
X178900000Y-88325000D03*
X185600000Y-89425000D03*
X185831067Y-82302913D03*
X174007124Y-79125157D03*
X183203215Y-79302710D03*
X183547115Y-82958407D03*
X183605663Y-83794773D03*
X181554999Y-84260001D03*
X181361872Y-84932835D03*
X180800000Y-85600000D03*
X182668011Y-78851535D03*
X180612490Y-80200000D03*
X180193780Y-85950000D03*
X183840711Y-86175000D03*
X183800985Y-78938466D03*
X177900000Y-82400000D03*
X174150000Y-87500000D03*
X171800000Y-87200000D03*
X175300000Y-84500000D03*
X174700000Y-89300000D03*
X168300000Y-89200000D03*
X168300000Y-83500000D03*
X174700000Y-82600000D03*
X168900000Y-81900000D03*
X180400000Y-70100000D03*
X194400000Y-69600000D03*
X195504265Y-70689337D03*
X201700000Y-82800000D03*
X188579174Y-72699988D03*
X163500000Y-80700000D03*
D17*
X174614000Y-83685000D02*
X173799000Y-84500000D01*
X181831000Y-83685000D02*
X174614000Y-83685000D01*
X183121001Y-84975001D02*
X181831000Y-83685000D01*
X197876003Y-84675001D02*
X197476001Y-84274999D01*
X192074999Y-84975001D02*
X183121001Y-84975001D01*
X197476001Y-84274999D02*
X192775001Y-84274999D01*
X202024999Y-84675001D02*
X197876003Y-84675001D01*
X192775001Y-84274999D02*
X192074999Y-84975001D01*
X202400000Y-84300000D02*
X202024999Y-84675001D01*
X173799000Y-84500000D02*
X161800000Y-84500000D01*
D18*
X168736001Y-71199999D02*
X167100001Y-71199999D01*
X169386003Y-71850001D02*
X168736001Y-71199999D01*
X173850001Y-71850001D02*
X169386003Y-71850001D01*
X174025001Y-72025001D02*
X173850001Y-71850001D01*
X177907366Y-72025001D02*
X174025001Y-72025001D01*
X178162919Y-72280554D02*
X177907366Y-72025001D01*
X167100001Y-71199999D02*
X166600001Y-71199999D01*
X166600001Y-71199999D02*
X165900002Y-70500000D01*
X164171303Y-70500000D02*
X164170693Y-70500610D01*
X165900002Y-70500000D02*
X164171303Y-70500000D01*
X173362003Y-77089999D02*
X168646003Y-77089999D01*
X174306377Y-76145625D02*
X173362003Y-77089999D01*
X179568378Y-76145625D02*
X174306377Y-76145625D01*
X168646003Y-77089999D02*
X167036002Y-78700000D01*
X183014015Y-72699988D02*
X179568378Y-76145625D01*
X188579174Y-72699988D02*
X183014015Y-72699988D01*
X167036002Y-78700000D02*
X165500000Y-78700000D01*
X165500000Y-78700000D02*
X163500000Y-80700000D01*
X163500000Y-80700000D02*
X163500000Y-80700000D01*
D19*
G36*
X179615723Y-69680795D02*
G01*
X179549010Y-69841855D01*
X179515000Y-70012835D01*
X179515000Y-70187165D01*
X179549010Y-70358145D01*
X179615723Y-70519205D01*
X179712576Y-70664155D01*
X179835845Y-70787424D01*
X179980795Y-70884277D01*
X180141855Y-70950990D01*
X180312835Y-70985000D01*
X180487165Y-70985000D01*
X180658145Y-70950990D01*
X180819205Y-70884277D01*
X180964155Y-70787424D01*
X181062447Y-70689132D01*
X181112576Y-70764155D01*
X181235845Y-70887424D01*
X181380795Y-70984277D01*
X181439122Y-71008437D01*
X181449010Y-71058145D01*
X181515723Y-71219205D01*
X181612576Y-71364155D01*
X181735845Y-71487424D01*
X181880795Y-71584277D01*
X182041855Y-71650990D01*
X182212835Y-71685000D01*
X182387165Y-71685000D01*
X182558145Y-71650990D01*
X182719205Y-71584277D01*
X182864155Y-71487424D01*
X182987424Y-71364155D01*
X183084277Y-71219205D01*
X183150990Y-71058145D01*
X183185000Y-70887165D01*
X183185000Y-70799388D01*
X183342193Y-70734277D01*
X183487143Y-70637424D01*
X183610412Y-70514155D01*
X183707265Y-70369205D01*
X183773978Y-70208145D01*
X183807988Y-70037165D01*
X183807988Y-69862835D01*
X183773978Y-69691855D01*
X183760783Y-69660000D01*
X188145401Y-69660000D01*
X188115000Y-69812835D01*
X188115000Y-69987165D01*
X188149010Y-70158145D01*
X188215723Y-70319205D01*
X188312576Y-70464155D01*
X188435845Y-70587424D01*
X188580795Y-70684277D01*
X188741855Y-70750990D01*
X188912835Y-70785000D01*
X189087165Y-70785000D01*
X189258145Y-70750990D01*
X189419205Y-70684277D01*
X189564155Y-70587424D01*
X189687424Y-70464155D01*
X189784277Y-70319205D01*
X189850990Y-70158145D01*
X189885000Y-69987165D01*
X189885000Y-69812835D01*
X189854599Y-69660000D01*
X193515000Y-69660000D01*
X193515000Y-69687165D01*
X193549010Y-69858145D01*
X193615723Y-70019205D01*
X193712576Y-70164155D01*
X193835845Y-70287424D01*
X193980795Y-70384277D01*
X194141855Y-70450990D01*
X194312835Y-70485000D01*
X194487165Y-70485000D01*
X194648974Y-70452814D01*
X194619265Y-70602172D01*
X194619265Y-70776502D01*
X194653275Y-70947482D01*
X194719988Y-71108542D01*
X194816841Y-71253492D01*
X194940110Y-71376761D01*
X195085060Y-71473614D01*
X195246120Y-71540327D01*
X195417100Y-71574337D01*
X195480710Y-71574337D01*
X195380795Y-71615723D01*
X195235845Y-71712576D01*
X195112576Y-71835845D01*
X195015723Y-71980795D01*
X194949010Y-72141855D01*
X194915000Y-72312835D01*
X194915000Y-72487165D01*
X194949010Y-72658145D01*
X195015723Y-72819205D01*
X195112576Y-72964155D01*
X195235845Y-73087424D01*
X195380795Y-73184277D01*
X195493612Y-73231007D01*
X195499010Y-73258145D01*
X195565723Y-73419205D01*
X195662576Y-73564155D01*
X195785845Y-73687424D01*
X195930795Y-73784277D01*
X196091855Y-73850990D01*
X196262835Y-73885000D01*
X196437165Y-73885000D01*
X196589041Y-73854790D01*
X196615723Y-73919205D01*
X196712576Y-74064155D01*
X196835845Y-74187424D01*
X196980795Y-74284277D01*
X197141855Y-74350990D01*
X197312835Y-74385000D01*
X197487165Y-74385000D01*
X197658145Y-74350990D01*
X197819205Y-74284277D01*
X197964155Y-74187424D01*
X198087424Y-74064155D01*
X198184277Y-73919205D01*
X198250990Y-73758145D01*
X198285000Y-73587165D01*
X198285000Y-73412835D01*
X198250990Y-73241855D01*
X198184277Y-73080795D01*
X198087424Y-72935845D01*
X197964155Y-72812576D01*
X197819205Y-72715723D01*
X197658145Y-72649010D01*
X197487165Y-72615000D01*
X197312835Y-72615000D01*
X197160959Y-72645210D01*
X197134277Y-72580795D01*
X197037424Y-72435845D01*
X196914155Y-72312576D01*
X196769205Y-72215723D01*
X196656388Y-72168993D01*
X196650990Y-72141855D01*
X196584277Y-71980795D01*
X196487424Y-71835845D01*
X196364155Y-71712576D01*
X196219205Y-71615723D01*
X196058145Y-71549010D01*
X195887165Y-71515000D01*
X195823555Y-71515000D01*
X195923470Y-71473614D01*
X196044153Y-71392976D01*
X196180795Y-71484277D01*
X196341855Y-71550990D01*
X196512835Y-71585000D01*
X196687165Y-71585000D01*
X196858145Y-71550990D01*
X197019205Y-71484277D01*
X197164155Y-71387424D01*
X197287424Y-71264155D01*
X197384277Y-71119205D01*
X197386915Y-71112835D01*
X200365000Y-71112835D01*
X200365000Y-71287165D01*
X200399010Y-71458145D01*
X200465723Y-71619205D01*
X200562576Y-71764155D01*
X200685845Y-71887424D01*
X200830795Y-71984277D01*
X200991855Y-72050990D01*
X201162835Y-72085000D01*
X201337165Y-72085000D01*
X201508145Y-72050990D01*
X201600259Y-72012835D01*
X204115000Y-72012835D01*
X204115000Y-72187165D01*
X204149010Y-72358145D01*
X204215723Y-72519205D01*
X204312576Y-72664155D01*
X204435845Y-72787424D01*
X204580795Y-72884277D01*
X204741855Y-72950990D01*
X204912835Y-72985000D01*
X205087165Y-72985000D01*
X205258145Y-72950990D01*
X205419205Y-72884277D01*
X205564155Y-72787424D01*
X205687424Y-72664155D01*
X205784277Y-72519205D01*
X205794315Y-72494970D01*
X205909465Y-72610120D01*
X206138273Y-72763005D01*
X206215515Y-72795000D01*
X206138273Y-72826995D01*
X205909465Y-72979880D01*
X205714880Y-73174465D01*
X205561995Y-73403273D01*
X205456686Y-73657510D01*
X205403000Y-73927408D01*
X205403000Y-74202592D01*
X205456686Y-74472490D01*
X205561995Y-74726727D01*
X205714880Y-74955535D01*
X205909465Y-75150120D01*
X206138273Y-75303005D01*
X206209943Y-75332692D01*
X206196977Y-75337364D01*
X206081020Y-75399344D01*
X206014040Y-75639435D01*
X206800000Y-76425395D01*
X207585960Y-75639435D01*
X207518980Y-75399344D01*
X207383240Y-75335515D01*
X207461727Y-75303005D01*
X207690535Y-75150120D01*
X207885120Y-74955535D01*
X208038005Y-74726727D01*
X208143314Y-74472490D01*
X208197000Y-74202592D01*
X208197000Y-73927408D01*
X208143314Y-73657510D01*
X208038005Y-73403273D01*
X207885120Y-73174465D01*
X207690535Y-72979880D01*
X207461727Y-72826995D01*
X207384485Y-72795000D01*
X207461727Y-72763005D01*
X207690535Y-72610120D01*
X207885120Y-72415535D01*
X208038005Y-72186727D01*
X208143314Y-71932490D01*
X208197000Y-71662592D01*
X208197000Y-71387408D01*
X208143314Y-71117510D01*
X208038005Y-70863273D01*
X207885120Y-70634465D01*
X207690535Y-70439880D01*
X207461727Y-70286995D01*
X207207490Y-70181686D01*
X206937592Y-70128000D01*
X206662408Y-70128000D01*
X206392510Y-70181686D01*
X206138273Y-70286995D01*
X205909465Y-70439880D01*
X205714880Y-70634465D01*
X205561995Y-70863273D01*
X205456686Y-71117510D01*
X205417407Y-71314978D01*
X205258145Y-71249010D01*
X205087165Y-71215000D01*
X204912835Y-71215000D01*
X204741855Y-71249010D01*
X204580795Y-71315723D01*
X204435845Y-71412576D01*
X204312576Y-71535845D01*
X204215723Y-71680795D01*
X204149010Y-71841855D01*
X204115000Y-72012835D01*
X201600259Y-72012835D01*
X201669205Y-71984277D01*
X201814155Y-71887424D01*
X201937424Y-71764155D01*
X202034277Y-71619205D01*
X202100990Y-71458145D01*
X202135000Y-71287165D01*
X202135000Y-71112835D01*
X202100990Y-70941855D01*
X202034277Y-70780795D01*
X201937424Y-70635845D01*
X201814155Y-70512576D01*
X201669205Y-70415723D01*
X201508145Y-70349010D01*
X201337165Y-70315000D01*
X201162835Y-70315000D01*
X200991855Y-70349010D01*
X200830795Y-70415723D01*
X200685845Y-70512576D01*
X200562576Y-70635845D01*
X200465723Y-70780795D01*
X200399010Y-70941855D01*
X200365000Y-71112835D01*
X197386915Y-71112835D01*
X197450990Y-70958145D01*
X197485000Y-70787165D01*
X197485000Y-70612835D01*
X197450990Y-70441855D01*
X197384277Y-70280795D01*
X197287424Y-70135845D01*
X197164155Y-70012576D01*
X197019205Y-69915723D01*
X196858145Y-69849010D01*
X196687165Y-69815000D01*
X196512835Y-69815000D01*
X196341855Y-69849010D01*
X196180795Y-69915723D01*
X196060112Y-69996361D01*
X195923470Y-69905060D01*
X195762410Y-69838347D01*
X195591430Y-69804337D01*
X195417100Y-69804337D01*
X195255291Y-69836523D01*
X195285000Y-69687165D01*
X195285000Y-69660000D01*
X209340000Y-69660000D01*
X209340000Y-70032418D01*
X209340001Y-70032428D01*
X209340000Y-89340000D01*
X208449700Y-89340000D01*
X208513028Y-89288028D01*
X208673608Y-89092362D01*
X208792929Y-88869127D01*
X208866407Y-88626904D01*
X208891217Y-88375000D01*
X208866407Y-88123096D01*
X208792929Y-87880873D01*
X208673608Y-87657638D01*
X208513028Y-87461972D01*
X208317362Y-87301392D01*
X208094127Y-87182071D01*
X207851904Y-87108593D01*
X207663123Y-87090000D01*
X207036877Y-87090000D01*
X206848096Y-87108593D01*
X206605873Y-87182071D01*
X206382638Y-87301392D01*
X206186972Y-87461972D01*
X206026392Y-87657638D01*
X205907071Y-87880873D01*
X205833593Y-88123096D01*
X205808783Y-88375000D01*
X205833593Y-88626904D01*
X205907071Y-88869127D01*
X206026392Y-89092362D01*
X206186972Y-89288028D01*
X206250300Y-89340000D01*
X186485000Y-89340000D01*
X186485000Y-89337835D01*
X186450990Y-89166855D01*
X186384277Y-89005795D01*
X186380587Y-89000273D01*
X186419205Y-88984277D01*
X186564155Y-88887424D01*
X186687424Y-88764155D01*
X186784277Y-88619205D01*
X186850990Y-88458145D01*
X186885000Y-88287165D01*
X186885000Y-88112835D01*
X186850990Y-87941855D01*
X186784277Y-87780795D01*
X186750368Y-87730046D01*
X186814155Y-87687425D01*
X186937424Y-87564156D01*
X186971715Y-87512835D01*
X197915000Y-87512835D01*
X197915000Y-87687165D01*
X197949010Y-87858145D01*
X198015723Y-88019205D01*
X198112576Y-88164155D01*
X198235845Y-88287424D01*
X198380795Y-88384277D01*
X198541855Y-88450990D01*
X198712835Y-88485000D01*
X198887165Y-88485000D01*
X199058145Y-88450990D01*
X199219205Y-88384277D01*
X199364155Y-88287424D01*
X199487424Y-88164155D01*
X199546995Y-88075000D01*
X202954388Y-88075000D01*
X202976785Y-88302400D01*
X203043115Y-88521060D01*
X203150829Y-88722579D01*
X203295788Y-88899212D01*
X203472421Y-89044171D01*
X203673940Y-89151885D01*
X203892600Y-89218215D01*
X204063021Y-89235000D01*
X204576979Y-89235000D01*
X204747400Y-89218215D01*
X204966060Y-89151885D01*
X205167579Y-89044171D01*
X205344212Y-88899212D01*
X205489171Y-88722579D01*
X205596885Y-88521060D01*
X205663215Y-88302400D01*
X205685612Y-88075000D01*
X205663215Y-87847600D01*
X205596885Y-87628940D01*
X205489171Y-87427421D01*
X205344212Y-87250788D01*
X205167579Y-87105829D01*
X204966060Y-86998115D01*
X204747400Y-86931785D01*
X204576979Y-86915000D01*
X204063021Y-86915000D01*
X203892600Y-86931785D01*
X203673940Y-86998115D01*
X203472421Y-87105829D01*
X203295788Y-87250788D01*
X203150829Y-87427421D01*
X203043115Y-87628940D01*
X202976785Y-87847600D01*
X202954388Y-88075000D01*
X199546995Y-88075000D01*
X199584277Y-88019205D01*
X199650990Y-87858145D01*
X199685000Y-87687165D01*
X199685000Y-87512835D01*
X199650990Y-87341855D01*
X199584277Y-87180795D01*
X199487424Y-87035845D01*
X199364155Y-86912576D01*
X199219205Y-86815723D01*
X199058145Y-86749010D01*
X198887165Y-86715000D01*
X198712835Y-86715000D01*
X198541855Y-86749010D01*
X198380795Y-86815723D01*
X198235845Y-86912576D01*
X198112576Y-87035845D01*
X198015723Y-87180795D01*
X197949010Y-87341855D01*
X197915000Y-87512835D01*
X186971715Y-87512835D01*
X187034277Y-87419206D01*
X187100990Y-87258146D01*
X187135000Y-87087166D01*
X187135000Y-86912836D01*
X187100990Y-86741856D01*
X187034277Y-86580796D01*
X186937424Y-86435846D01*
X186814155Y-86312577D01*
X186669205Y-86215724D01*
X186508145Y-86149011D01*
X186337165Y-86115001D01*
X186162835Y-86115001D01*
X185991855Y-86149011D01*
X185830795Y-86215724D01*
X185685845Y-86312577D01*
X185562576Y-86435846D01*
X185465723Y-86580796D01*
X185399010Y-86741856D01*
X185365000Y-86912836D01*
X185365000Y-87087166D01*
X185399010Y-87258146D01*
X185465723Y-87419206D01*
X185499632Y-87469955D01*
X185435845Y-87512576D01*
X185312576Y-87635845D01*
X185215723Y-87780795D01*
X185149010Y-87941855D01*
X185115000Y-88112835D01*
X185115000Y-88287165D01*
X185149010Y-88458145D01*
X185215723Y-88619205D01*
X185219413Y-88624727D01*
X185180795Y-88640723D01*
X185035845Y-88737576D01*
X184912576Y-88860845D01*
X184815723Y-89005795D01*
X184749010Y-89166855D01*
X184715000Y-89337835D01*
X184715000Y-89340000D01*
X178122886Y-89340000D01*
X178164155Y-89312425D01*
X178287424Y-89189156D01*
X178384009Y-89044607D01*
X178480795Y-89109277D01*
X178641855Y-89175990D01*
X178812835Y-89210000D01*
X178987165Y-89210000D01*
X179158145Y-89175990D01*
X179319205Y-89109277D01*
X179464155Y-89012424D01*
X179587424Y-88889155D01*
X179684277Y-88744205D01*
X179710743Y-88680310D01*
X179858145Y-88650990D01*
X180019205Y-88584277D01*
X180164155Y-88487424D01*
X180287424Y-88364155D01*
X180384277Y-88219205D01*
X180450990Y-88058145D01*
X180485000Y-87887165D01*
X180485000Y-87712835D01*
X180450990Y-87541855D01*
X180384277Y-87380795D01*
X180287424Y-87235845D01*
X180164155Y-87112576D01*
X180019205Y-87015723D01*
X179858145Y-86949010D01*
X179687165Y-86915000D01*
X179512835Y-86915000D01*
X179341855Y-86949010D01*
X179180795Y-87015723D01*
X179035845Y-87112576D01*
X178912576Y-87235845D01*
X178815723Y-87380795D01*
X178789257Y-87444690D01*
X178641855Y-87474010D01*
X178480795Y-87540723D01*
X178335845Y-87637576D01*
X178212576Y-87760845D01*
X178115991Y-87905394D01*
X178019205Y-87840724D01*
X177858145Y-87774011D01*
X177687165Y-87740001D01*
X177512835Y-87740001D01*
X177341855Y-87774011D01*
X177180795Y-87840724D01*
X177035845Y-87937577D01*
X176912576Y-88060846D01*
X176815723Y-88205796D01*
X176749010Y-88366856D01*
X176715000Y-88537836D01*
X176715000Y-88712166D01*
X176749010Y-88883146D01*
X176815723Y-89044206D01*
X176912576Y-89189156D01*
X177035845Y-89312425D01*
X177077114Y-89340000D01*
X175585000Y-89340000D01*
X175585000Y-89212835D01*
X175550990Y-89041855D01*
X175484277Y-88880795D01*
X175387424Y-88735845D01*
X175264155Y-88612576D01*
X175119205Y-88515723D01*
X174958145Y-88449010D01*
X174787165Y-88415000D01*
X174612835Y-88415000D01*
X174535000Y-88430482D01*
X174535000Y-88298445D01*
X174569205Y-88284277D01*
X174714155Y-88187424D01*
X174837424Y-88064155D01*
X174910737Y-87954436D01*
X175003651Y-88093491D01*
X175126920Y-88216760D01*
X175271870Y-88313613D01*
X175432930Y-88380326D01*
X175603910Y-88414336D01*
X175778240Y-88414336D01*
X175949220Y-88380326D01*
X176110280Y-88313613D01*
X176255230Y-88216760D01*
X176378499Y-88093491D01*
X176475352Y-87948541D01*
X176542065Y-87787481D01*
X176576075Y-87616501D01*
X176576075Y-87442171D01*
X176542065Y-87271191D01*
X176475352Y-87110131D01*
X176378499Y-86965181D01*
X176255230Y-86841912D01*
X176110280Y-86745059D01*
X175949220Y-86678346D01*
X175778240Y-86644336D01*
X175603910Y-86644336D01*
X175432930Y-86678346D01*
X175271870Y-86745059D01*
X175126920Y-86841912D01*
X175003651Y-86965181D01*
X174930338Y-87074900D01*
X174837424Y-86935845D01*
X174714155Y-86812576D01*
X174569205Y-86715723D01*
X174408145Y-86649010D01*
X174320450Y-86631566D01*
X174365990Y-86563411D01*
X174477932Y-86293158D01*
X174535000Y-86006260D01*
X174535000Y-85713740D01*
X174477932Y-85426842D01*
X174365990Y-85156589D01*
X174306119Y-85066986D01*
X174339001Y-85040001D01*
X174362803Y-85010998D01*
X174497819Y-84875982D01*
X174515723Y-84919205D01*
X174612576Y-85064155D01*
X174735845Y-85187424D01*
X174880795Y-85284277D01*
X175041855Y-85350990D01*
X175212835Y-85385000D01*
X175387165Y-85385000D01*
X175558145Y-85350990D01*
X175719205Y-85284277D01*
X175864155Y-85187424D01*
X175987424Y-85064155D01*
X176084277Y-84919205D01*
X176150990Y-84758145D01*
X176185000Y-84587165D01*
X176185000Y-84445000D01*
X180623452Y-84445000D01*
X180577595Y-84513630D01*
X180510882Y-84674690D01*
X180491990Y-84769665D01*
X180380795Y-84815723D01*
X180235845Y-84912576D01*
X180112576Y-85035845D01*
X180091023Y-85068101D01*
X179935635Y-85099010D01*
X179774575Y-85165723D01*
X179629625Y-85262576D01*
X179506356Y-85385845D01*
X179409503Y-85530795D01*
X179342790Y-85691855D01*
X179308780Y-85862835D01*
X179308780Y-86037165D01*
X179342790Y-86208145D01*
X179409503Y-86369205D01*
X179506356Y-86514155D01*
X179629625Y-86637424D01*
X179774575Y-86734277D01*
X179935635Y-86800990D01*
X180106615Y-86835000D01*
X180280945Y-86835000D01*
X180451925Y-86800990D01*
X180489998Y-86785220D01*
X180489998Y-86912165D01*
X180524008Y-87083145D01*
X180590721Y-87244205D01*
X180687574Y-87389155D01*
X180810843Y-87512424D01*
X180825922Y-87522499D01*
X180712576Y-87635845D01*
X180615723Y-87780795D01*
X180549010Y-87941855D01*
X180515000Y-88112835D01*
X180515000Y-88287165D01*
X180549010Y-88458145D01*
X180615723Y-88619205D01*
X180712576Y-88764155D01*
X180835845Y-88887424D01*
X180980795Y-88984277D01*
X181141855Y-89050990D01*
X181312835Y-89085000D01*
X181487165Y-89085000D01*
X181658145Y-89050990D01*
X181819205Y-88984277D01*
X181964155Y-88887424D01*
X182087424Y-88764155D01*
X182184277Y-88619205D01*
X182250990Y-88458145D01*
X182285000Y-88287165D01*
X182285000Y-88112835D01*
X182250990Y-87941855D01*
X182184277Y-87780795D01*
X182087424Y-87635845D01*
X181964155Y-87512576D01*
X181949076Y-87502501D01*
X182062422Y-87389155D01*
X182159275Y-87244205D01*
X182225988Y-87083145D01*
X182259998Y-86912165D01*
X182259998Y-86737835D01*
X182225988Y-86566855D01*
X182159275Y-86405795D01*
X182062422Y-86260845D01*
X181939153Y-86137576D01*
X181794203Y-86040723D01*
X181633143Y-85974010D01*
X181605292Y-85968470D01*
X181650990Y-85858145D01*
X181669882Y-85763170D01*
X181781077Y-85717112D01*
X181926027Y-85620259D01*
X182049296Y-85496990D01*
X182146149Y-85352040D01*
X182212862Y-85190980D01*
X182221044Y-85149846D01*
X182557202Y-85486004D01*
X182581000Y-85515002D01*
X182609998Y-85538800D01*
X182696724Y-85609975D01*
X182742190Y-85634277D01*
X182828754Y-85680547D01*
X182972015Y-85724004D01*
X183071152Y-85733768D01*
X183056434Y-85755795D01*
X182989721Y-85916855D01*
X182955711Y-86087835D01*
X182955711Y-86262165D01*
X182989721Y-86433145D01*
X183056434Y-86594205D01*
X183153287Y-86739155D01*
X183276556Y-86862424D01*
X183421506Y-86959277D01*
X183582566Y-87025990D01*
X183753546Y-87060000D01*
X183927876Y-87060000D01*
X184098856Y-87025990D01*
X184259916Y-86959277D01*
X184404866Y-86862424D01*
X184528135Y-86739155D01*
X184624988Y-86594205D01*
X184691701Y-86433145D01*
X184725711Y-86262165D01*
X184725711Y-86087835D01*
X184691701Y-85916855D01*
X184624988Y-85755795D01*
X184611094Y-85735001D01*
X192037677Y-85735001D01*
X192074999Y-85738677D01*
X192112321Y-85735001D01*
X192112332Y-85735001D01*
X192223985Y-85724004D01*
X192367246Y-85680547D01*
X192499275Y-85609975D01*
X192615000Y-85515002D01*
X192638802Y-85485999D01*
X193089803Y-85034999D01*
X194913422Y-85034999D01*
X194912576Y-85035845D01*
X194815723Y-85180795D01*
X194749010Y-85341855D01*
X194715000Y-85512835D01*
X194715000Y-85687165D01*
X194749010Y-85858145D01*
X194815723Y-86019205D01*
X194912576Y-86164155D01*
X195035845Y-86287424D01*
X195180795Y-86384277D01*
X195341855Y-86450990D01*
X195512835Y-86485000D01*
X195687165Y-86485000D01*
X195858145Y-86450990D01*
X196019205Y-86384277D01*
X196164155Y-86287424D01*
X196182549Y-86269030D01*
X196262835Y-86285000D01*
X196437165Y-86285000D01*
X196608145Y-86250990D01*
X196769205Y-86184277D01*
X196914155Y-86087424D01*
X197037424Y-85964155D01*
X197134277Y-85819205D01*
X197169156Y-85735000D01*
X197287165Y-85735000D01*
X197458145Y-85700990D01*
X197619205Y-85634277D01*
X197764155Y-85537424D01*
X197864077Y-85437502D01*
X197876002Y-85438677D01*
X197913325Y-85435001D01*
X201513420Y-85435001D01*
X201512576Y-85435845D01*
X201415723Y-85580795D01*
X201349010Y-85741855D01*
X201315000Y-85912835D01*
X201315000Y-86087165D01*
X201349010Y-86258145D01*
X201415723Y-86419205D01*
X201512576Y-86564155D01*
X201635845Y-86687424D01*
X201780795Y-86784277D01*
X201941855Y-86850990D01*
X202112835Y-86885000D01*
X202287165Y-86885000D01*
X202458145Y-86850990D01*
X202619205Y-86784277D01*
X202764155Y-86687424D01*
X202887424Y-86564155D01*
X202889843Y-86560535D01*
X203012835Y-86585000D01*
X203187165Y-86585000D01*
X203358145Y-86550990D01*
X203519205Y-86484277D01*
X203664155Y-86387424D01*
X203787424Y-86264155D01*
X203884277Y-86119205D01*
X203950990Y-85958145D01*
X203985000Y-85787165D01*
X203985000Y-85612835D01*
X203950990Y-85441855D01*
X203884277Y-85280795D01*
X203787424Y-85135845D01*
X203664155Y-85012576D01*
X203519205Y-84915723D01*
X203358145Y-84849010D01*
X203187165Y-84815000D01*
X203120268Y-84815000D01*
X203184277Y-84719205D01*
X203250990Y-84558145D01*
X203285000Y-84387165D01*
X203285000Y-84212835D01*
X203250990Y-84041855D01*
X203211491Y-83946496D01*
X203295788Y-84049212D01*
X203472421Y-84194171D01*
X203673940Y-84301885D01*
X203892600Y-84368215D01*
X204063021Y-84385000D01*
X204576979Y-84385000D01*
X204615000Y-84381255D01*
X204615000Y-84387165D01*
X204649010Y-84558145D01*
X204715723Y-84719205D01*
X204812576Y-84864155D01*
X204935845Y-84987424D01*
X205015000Y-85040314D01*
X205015000Y-85087165D01*
X205049010Y-85258145D01*
X205115723Y-85419205D01*
X205160186Y-85485748D01*
X205059108Y-85553287D01*
X204935839Y-85676556D01*
X204838986Y-85821506D01*
X204772273Y-85982566D01*
X204738263Y-86153546D01*
X204738263Y-86327876D01*
X204772273Y-86498856D01*
X204838986Y-86659916D01*
X204935839Y-86804866D01*
X205059108Y-86928135D01*
X205204058Y-87024988D01*
X205365118Y-87091701D01*
X205536098Y-87125711D01*
X205710428Y-87125711D01*
X205881408Y-87091701D01*
X206042468Y-87024988D01*
X206187418Y-86928135D01*
X206310687Y-86804866D01*
X206407540Y-86659916D01*
X206474253Y-86498856D01*
X206508263Y-86327876D01*
X206508263Y-86153546D01*
X206474253Y-85982566D01*
X206407540Y-85821506D01*
X206363077Y-85754963D01*
X206464155Y-85687424D01*
X206587424Y-85564155D01*
X206684277Y-85419205D01*
X206750990Y-85258145D01*
X206785000Y-85087165D01*
X206785000Y-84912835D01*
X206750990Y-84741855D01*
X206684277Y-84580795D01*
X206587424Y-84435845D01*
X206464155Y-84312576D01*
X206385000Y-84259686D01*
X206385000Y-84212835D01*
X206350990Y-84041855D01*
X206307552Y-83936986D01*
X206382638Y-83998608D01*
X206605873Y-84117929D01*
X206848096Y-84191407D01*
X207036877Y-84210000D01*
X207663123Y-84210000D01*
X207851904Y-84191407D01*
X208094127Y-84117929D01*
X208317362Y-83998608D01*
X208513028Y-83838028D01*
X208673608Y-83642362D01*
X208792929Y-83419127D01*
X208866407Y-83176904D01*
X208891217Y-82925000D01*
X208866407Y-82673096D01*
X208792929Y-82430873D01*
X208673608Y-82207638D01*
X208513028Y-82011972D01*
X208317362Y-81851392D01*
X208094127Y-81732071D01*
X207851904Y-81658593D01*
X207663123Y-81640000D01*
X207036877Y-81640000D01*
X206848096Y-81658593D01*
X206605873Y-81732071D01*
X206382638Y-81851392D01*
X206186972Y-82011972D01*
X206026392Y-82207638D01*
X205907071Y-82430873D01*
X205833593Y-82673096D01*
X205808783Y-82925000D01*
X205833593Y-83176904D01*
X205907071Y-83419127D01*
X205980646Y-83556777D01*
X205919205Y-83515723D01*
X205758145Y-83449010D01*
X205665367Y-83430555D01*
X205685612Y-83225000D01*
X205663215Y-82997600D01*
X205596885Y-82778940D01*
X205489171Y-82577421D01*
X205344212Y-82400788D01*
X205167579Y-82255829D01*
X204966060Y-82148115D01*
X204747400Y-82081785D01*
X204576979Y-82065000D01*
X204063021Y-82065000D01*
X203892600Y-82081785D01*
X203673940Y-82148115D01*
X203472421Y-82255829D01*
X203295788Y-82400788D01*
X203150829Y-82577421D01*
X203043115Y-82778940D01*
X202976785Y-82997600D01*
X202954388Y-83225000D01*
X202976785Y-83452400D01*
X203043115Y-83671060D01*
X203066627Y-83715048D01*
X202964155Y-83612576D01*
X202819205Y-83515723D01*
X202658145Y-83449010D01*
X202487165Y-83415000D01*
X202336579Y-83415000D01*
X202387424Y-83364155D01*
X202484277Y-83219205D01*
X202550990Y-83058145D01*
X202585000Y-82887165D01*
X202585000Y-82712835D01*
X202550990Y-82541855D01*
X202484277Y-82380795D01*
X202387424Y-82235845D01*
X202264155Y-82112576D01*
X202119205Y-82015723D01*
X201958145Y-81949010D01*
X201952177Y-81947823D01*
X201950990Y-81941855D01*
X201884277Y-81780795D01*
X201787424Y-81635845D01*
X201664155Y-81512576D01*
X201519205Y-81415723D01*
X201358145Y-81349010D01*
X201187165Y-81315000D01*
X201012835Y-81315000D01*
X200841855Y-81349010D01*
X200680795Y-81415723D01*
X200535845Y-81512576D01*
X200412576Y-81635845D01*
X200315723Y-81780795D01*
X200249010Y-81941855D01*
X200215000Y-82112835D01*
X200215000Y-82287165D01*
X200249010Y-82458145D01*
X200272560Y-82515000D01*
X200212835Y-82515000D01*
X200041855Y-82549010D01*
X199880795Y-82615723D01*
X199735845Y-82712576D01*
X199612576Y-82835845D01*
X199515723Y-82980795D01*
X199449010Y-83141855D01*
X199431232Y-83231232D01*
X199341855Y-83249010D01*
X199180795Y-83315723D01*
X199035845Y-83412576D01*
X198912576Y-83535845D01*
X198815723Y-83680795D01*
X198749010Y-83841855D01*
X198734460Y-83915001D01*
X198190804Y-83915001D01*
X198039805Y-83764002D01*
X198016002Y-83734998D01*
X197900277Y-83640025D01*
X197768248Y-83569453D01*
X197624987Y-83525996D01*
X197513334Y-83514999D01*
X197513323Y-83514999D01*
X197476001Y-83511323D01*
X197438679Y-83514999D01*
X197322886Y-83514999D01*
X197364155Y-83487424D01*
X197487424Y-83364155D01*
X197584277Y-83219205D01*
X197650990Y-83058145D01*
X197685000Y-82887165D01*
X197685000Y-82712835D01*
X197650990Y-82541855D01*
X197584277Y-82380795D01*
X197487424Y-82235845D01*
X197364155Y-82112576D01*
X197219205Y-82015723D01*
X197058145Y-81949010D01*
X196887165Y-81915000D01*
X196712835Y-81915000D01*
X196541855Y-81949010D01*
X196380795Y-82015723D01*
X196235845Y-82112576D01*
X196112576Y-82235845D01*
X196015723Y-82380795D01*
X195949010Y-82541855D01*
X195915000Y-82712835D01*
X195915000Y-82887165D01*
X195949010Y-83058145D01*
X196015723Y-83219205D01*
X196112576Y-83364155D01*
X196235845Y-83487424D01*
X196277114Y-83514999D01*
X195685000Y-83514999D01*
X195685000Y-83412835D01*
X195650990Y-83241855D01*
X195584277Y-83080795D01*
X195487424Y-82935845D01*
X195364155Y-82812576D01*
X195219205Y-82715723D01*
X195058145Y-82649010D01*
X194887165Y-82615000D01*
X194712835Y-82615000D01*
X194541855Y-82649010D01*
X194380795Y-82715723D01*
X194235845Y-82812576D01*
X194112576Y-82935845D01*
X194015723Y-83080795D01*
X193949010Y-83241855D01*
X193915000Y-83412835D01*
X193915000Y-83514999D01*
X192940313Y-83514999D01*
X192887424Y-83435845D01*
X192764155Y-83312576D01*
X192619205Y-83215723D01*
X192458145Y-83149010D01*
X192287165Y-83115000D01*
X192112835Y-83115000D01*
X191941855Y-83149010D01*
X191780795Y-83215723D01*
X191635845Y-83312576D01*
X191512576Y-83435845D01*
X191415723Y-83580795D01*
X191349010Y-83741855D01*
X191315000Y-83912835D01*
X191315000Y-84087165D01*
X191340428Y-84215001D01*
X190165540Y-84215001D01*
X190150990Y-84141855D01*
X190084277Y-83980795D01*
X189987424Y-83835845D01*
X189864155Y-83712576D01*
X189719205Y-83615723D01*
X189558145Y-83549010D01*
X189387165Y-83515000D01*
X189212835Y-83515000D01*
X189041855Y-83549010D01*
X188880795Y-83615723D01*
X188735845Y-83712576D01*
X188612576Y-83835845D01*
X188515723Y-83980795D01*
X188449010Y-84141855D01*
X188434460Y-84215001D01*
X187511227Y-84215001D01*
X187619205Y-84170275D01*
X187764155Y-84073422D01*
X187887424Y-83950153D01*
X187984277Y-83805203D01*
X188050990Y-83644143D01*
X188085000Y-83473163D01*
X188085000Y-83298833D01*
X188082848Y-83288014D01*
X188231020Y-83317487D01*
X188405350Y-83317487D01*
X188576330Y-83283477D01*
X188737390Y-83216764D01*
X188882340Y-83119911D01*
X189005609Y-82996642D01*
X189102462Y-82851692D01*
X189105446Y-82844488D01*
X189241855Y-82900990D01*
X189412835Y-82935000D01*
X189587165Y-82935000D01*
X189758145Y-82900990D01*
X189919205Y-82834277D01*
X190064155Y-82737424D01*
X190187424Y-82614155D01*
X190284277Y-82469205D01*
X190350990Y-82308145D01*
X190385000Y-82137165D01*
X190385000Y-81962835D01*
X190350990Y-81791855D01*
X190284277Y-81630795D01*
X190187424Y-81485845D01*
X190064155Y-81362576D01*
X189919205Y-81265723D01*
X189758145Y-81199010D01*
X189587165Y-81165000D01*
X189412835Y-81165000D01*
X189241855Y-81199010D01*
X189080795Y-81265723D01*
X189033518Y-81297313D01*
X189000990Y-81133783D01*
X188934277Y-80972723D01*
X188837424Y-80827773D01*
X188817496Y-80807845D01*
X193919990Y-80807845D01*
X193919990Y-80982175D01*
X193954000Y-81153155D01*
X194020713Y-81314215D01*
X194117566Y-81459165D01*
X194240835Y-81582434D01*
X194385785Y-81679287D01*
X194546845Y-81746000D01*
X194717825Y-81780010D01*
X194892155Y-81780010D01*
X195063135Y-81746000D01*
X195224195Y-81679287D01*
X195369145Y-81582434D01*
X195492414Y-81459165D01*
X195589267Y-81314215D01*
X195655980Y-81153155D01*
X195689990Y-80982175D01*
X195689990Y-80807845D01*
X195671092Y-80712835D01*
X198965010Y-80712835D01*
X198965010Y-80887165D01*
X198999020Y-81058145D01*
X199065733Y-81219205D01*
X199162586Y-81364155D01*
X199285855Y-81487424D01*
X199430805Y-81584277D01*
X199591865Y-81650990D01*
X199762845Y-81685000D01*
X199937175Y-81685000D01*
X200108155Y-81650990D01*
X200269215Y-81584277D01*
X200414165Y-81487424D01*
X200537434Y-81364155D01*
X200634287Y-81219205D01*
X200701000Y-81058145D01*
X200735010Y-80887165D01*
X200735010Y-80712835D01*
X200701000Y-80541855D01*
X200634287Y-80380795D01*
X200537434Y-80235845D01*
X200480202Y-80178613D01*
X200525246Y-80148515D01*
X200648515Y-80025246D01*
X200745368Y-79880296D01*
X200773311Y-79812835D01*
X202715000Y-79812835D01*
X202715000Y-79987165D01*
X202749010Y-80158145D01*
X202815723Y-80319205D01*
X202912576Y-80464155D01*
X203035845Y-80587424D01*
X203115000Y-80640314D01*
X203115000Y-80787165D01*
X203149010Y-80958145D01*
X203215723Y-81119205D01*
X203312576Y-81264155D01*
X203435845Y-81387424D01*
X203580795Y-81484277D01*
X203741855Y-81550990D01*
X203912835Y-81585000D01*
X204087165Y-81585000D01*
X204258145Y-81550990D01*
X204419205Y-81484277D01*
X204564155Y-81387424D01*
X204687424Y-81264155D01*
X204784277Y-81119205D01*
X204850990Y-80958145D01*
X204885000Y-80787165D01*
X204885000Y-80612835D01*
X204850990Y-80441855D01*
X204784277Y-80280795D01*
X204687424Y-80135845D01*
X204564155Y-80012576D01*
X204485000Y-79959686D01*
X204485000Y-79812835D01*
X204450990Y-79641855D01*
X204384277Y-79480795D01*
X204287424Y-79335845D01*
X204164155Y-79212576D01*
X204019205Y-79115723D01*
X203858145Y-79049010D01*
X203687165Y-79015000D01*
X203512835Y-79015000D01*
X203341855Y-79049010D01*
X203180795Y-79115723D01*
X203035845Y-79212576D01*
X202912576Y-79335845D01*
X202815723Y-79480795D01*
X202749010Y-79641855D01*
X202715000Y-79812835D01*
X200773311Y-79812835D01*
X200812081Y-79719236D01*
X200846091Y-79548256D01*
X200846091Y-79373926D01*
X200812081Y-79202946D01*
X200803912Y-79183225D01*
X200812835Y-79185000D01*
X200987165Y-79185000D01*
X201158145Y-79150990D01*
X201319205Y-79084277D01*
X201434246Y-79007408D01*
X205403000Y-79007408D01*
X205403000Y-79282592D01*
X205456686Y-79552490D01*
X205561995Y-79806727D01*
X205714880Y-80035535D01*
X205909465Y-80230120D01*
X206138273Y-80383005D01*
X206392510Y-80488314D01*
X206662408Y-80542000D01*
X206937592Y-80542000D01*
X207207490Y-80488314D01*
X207461727Y-80383005D01*
X207690535Y-80230120D01*
X207885120Y-80035535D01*
X208038005Y-79806727D01*
X208143314Y-79552490D01*
X208197000Y-79282592D01*
X208197000Y-79007408D01*
X208143314Y-78737510D01*
X208038005Y-78483273D01*
X207885120Y-78254465D01*
X207690535Y-78059880D01*
X207461727Y-77906995D01*
X207390057Y-77877308D01*
X207403023Y-77872636D01*
X207518980Y-77810656D01*
X207585960Y-77570565D01*
X206800000Y-76784605D01*
X206014040Y-77570565D01*
X206081020Y-77810656D01*
X206216760Y-77874485D01*
X206138273Y-77906995D01*
X205909465Y-78059880D01*
X205714880Y-78254465D01*
X205561995Y-78483273D01*
X205456686Y-78737510D01*
X205403000Y-79007408D01*
X201434246Y-79007408D01*
X201464155Y-78987424D01*
X201587424Y-78864155D01*
X201684277Y-78719205D01*
X201750990Y-78558145D01*
X201785000Y-78387165D01*
X201785000Y-78212835D01*
X201750990Y-78041855D01*
X201684277Y-77880795D01*
X201587424Y-77735845D01*
X201464155Y-77612576D01*
X201319205Y-77515723D01*
X201158145Y-77449010D01*
X200987165Y-77415000D01*
X200812835Y-77415000D01*
X200641855Y-77449010D01*
X200480795Y-77515723D01*
X200335845Y-77612576D01*
X200212576Y-77735845D01*
X200115723Y-77880795D01*
X200049010Y-78041855D01*
X200015000Y-78212835D01*
X200015000Y-78387165D01*
X200049010Y-78558145D01*
X200057179Y-78577866D01*
X200048256Y-78576091D01*
X199873926Y-78576091D01*
X199702946Y-78610101D01*
X199541886Y-78676814D01*
X199396936Y-78773667D01*
X199273667Y-78896936D01*
X199176814Y-79041886D01*
X199110101Y-79202946D01*
X199076091Y-79373926D01*
X199076091Y-79548256D01*
X199110101Y-79719236D01*
X199176814Y-79880296D01*
X199273667Y-80025246D01*
X199330899Y-80082478D01*
X199285855Y-80112576D01*
X199162586Y-80235845D01*
X199065733Y-80380795D01*
X198999020Y-80541855D01*
X198965010Y-80712835D01*
X195671092Y-80712835D01*
X195655980Y-80636865D01*
X195589267Y-80475805D01*
X195492414Y-80330855D01*
X195369145Y-80207586D01*
X195224195Y-80110733D01*
X195063135Y-80044020D01*
X194892155Y-80010010D01*
X194717825Y-80010010D01*
X194546845Y-80044020D01*
X194385785Y-80110733D01*
X194240835Y-80207586D01*
X194117566Y-80330855D01*
X194020713Y-80475805D01*
X193954000Y-80636865D01*
X193919990Y-80807845D01*
X188817496Y-80807845D01*
X188714155Y-80704504D01*
X188569205Y-80607651D01*
X188408145Y-80540938D01*
X188237165Y-80506928D01*
X188062835Y-80506928D01*
X187891855Y-80540938D01*
X187730795Y-80607651D01*
X187585845Y-80704504D01*
X187462576Y-80827773D01*
X187365723Y-80972723D01*
X187299010Y-81133783D01*
X187265000Y-81304763D01*
X187265000Y-81479093D01*
X187299010Y-81650073D01*
X187365723Y-81811133D01*
X187462576Y-81956083D01*
X187529769Y-82023276D01*
X187501110Y-82092463D01*
X187500990Y-82091857D01*
X187434277Y-81930797D01*
X187337424Y-81785847D01*
X187214155Y-81662578D01*
X187069205Y-81565725D01*
X186908145Y-81499012D01*
X186737165Y-81465002D01*
X186562835Y-81465002D01*
X186391855Y-81499012D01*
X186286323Y-81542725D01*
X186250272Y-81518636D01*
X186089212Y-81451923D01*
X185918232Y-81417913D01*
X185743902Y-81417913D01*
X185572922Y-81451923D01*
X185411862Y-81518636D01*
X185266912Y-81615489D01*
X185143643Y-81738758D01*
X185046790Y-81883708D01*
X184980077Y-82044768D01*
X184946067Y-82215748D01*
X184946067Y-82390078D01*
X184980077Y-82561058D01*
X185046790Y-82722118D01*
X185143643Y-82867068D01*
X185266912Y-82990337D01*
X185411862Y-83087190D01*
X185572922Y-83153903D01*
X185743902Y-83187913D01*
X185918232Y-83187913D01*
X186089212Y-83153903D01*
X186194744Y-83110190D01*
X186230795Y-83134279D01*
X186338831Y-83179029D01*
X186315000Y-83298833D01*
X186315000Y-83473163D01*
X186349010Y-83644143D01*
X186415723Y-83805203D01*
X186512576Y-83950153D01*
X186635845Y-84073422D01*
X186780795Y-84170275D01*
X186888773Y-84215001D01*
X184389256Y-84215001D01*
X184389940Y-84213978D01*
X184456653Y-84052918D01*
X184490663Y-83881938D01*
X184490663Y-83707608D01*
X184456653Y-83536628D01*
X184389940Y-83375568D01*
X184354320Y-83322259D01*
X184398105Y-83216552D01*
X184432115Y-83045572D01*
X184432115Y-82871242D01*
X184398105Y-82700262D01*
X184331392Y-82539202D01*
X184234539Y-82394252D01*
X184111270Y-82270983D01*
X183966320Y-82174130D01*
X183805260Y-82107417D01*
X183634280Y-82073407D01*
X183459950Y-82073407D01*
X183288970Y-82107417D01*
X183127910Y-82174130D01*
X182982960Y-82270983D01*
X182859691Y-82394252D01*
X182762838Y-82539202D01*
X182696125Y-82700262D01*
X182662115Y-82871242D01*
X182662115Y-83045572D01*
X182696125Y-83216552D01*
X182762838Y-83377612D01*
X182798458Y-83430921D01*
X182755480Y-83534679D01*
X182394804Y-83174003D01*
X182371001Y-83144999D01*
X182255276Y-83050026D01*
X182123247Y-82979454D01*
X181979986Y-82935997D01*
X181868333Y-82925000D01*
X181868322Y-82925000D01*
X181831000Y-82921324D01*
X181793678Y-82925000D01*
X181035000Y-82925000D01*
X181035000Y-82812835D01*
X181000990Y-82641855D01*
X180934277Y-82480795D01*
X180837424Y-82335845D01*
X180714155Y-82212576D01*
X180569205Y-82115723D01*
X180408145Y-82049010D01*
X180237165Y-82015000D01*
X180062835Y-82015000D01*
X179891855Y-82049010D01*
X179730795Y-82115723D01*
X179585845Y-82212576D01*
X179462576Y-82335845D01*
X179365723Y-82480795D01*
X179299010Y-82641855D01*
X179265000Y-82812835D01*
X179265000Y-82925000D01*
X178613587Y-82925000D01*
X178684277Y-82819205D01*
X178750990Y-82658145D01*
X178785000Y-82487165D01*
X178785000Y-82312835D01*
X178750990Y-82141855D01*
X178684277Y-81980795D01*
X178587424Y-81835845D01*
X178464155Y-81712576D01*
X178319205Y-81615723D01*
X178158145Y-81549010D01*
X177987165Y-81515000D01*
X177812835Y-81515000D01*
X177641855Y-81549010D01*
X177480795Y-81615723D01*
X177335845Y-81712576D01*
X177212576Y-81835845D01*
X177115723Y-81980795D01*
X177049010Y-82141855D01*
X177015000Y-82312835D01*
X177015000Y-82487165D01*
X177049010Y-82658145D01*
X177115723Y-82819205D01*
X177186413Y-82925000D01*
X175523298Y-82925000D01*
X175550990Y-82858145D01*
X175585000Y-82687165D01*
X175585000Y-82512835D01*
X175550990Y-82341855D01*
X175484277Y-82180795D01*
X175387424Y-82035845D01*
X175264155Y-81912576D01*
X175119205Y-81815723D01*
X175060268Y-81791311D01*
X175087424Y-81764155D01*
X175184277Y-81619205D01*
X175250990Y-81458145D01*
X175285000Y-81287165D01*
X175285000Y-81112835D01*
X175250990Y-80941855D01*
X175184277Y-80780795D01*
X175087424Y-80635845D01*
X175067967Y-80616388D01*
X175100683Y-80537404D01*
X175134693Y-80366424D01*
X175134693Y-80192094D01*
X175100683Y-80021114D01*
X175033970Y-79860054D01*
X174937117Y-79715104D01*
X174813848Y-79591835D01*
X174776400Y-79566813D01*
X174791401Y-79544362D01*
X174858114Y-79383302D01*
X174892124Y-79212322D01*
X174892124Y-79037992D01*
X174858114Y-78867012D01*
X174835674Y-78812835D01*
X176915000Y-78812835D01*
X176915000Y-78987165D01*
X176949010Y-79158145D01*
X177015723Y-79319205D01*
X177112576Y-79464155D01*
X177235845Y-79587424D01*
X177380795Y-79684277D01*
X177541855Y-79750990D01*
X177712835Y-79785000D01*
X177887165Y-79785000D01*
X178058145Y-79750990D01*
X178219205Y-79684277D01*
X178364155Y-79587424D01*
X178487424Y-79464155D01*
X178521715Y-79412835D01*
X179382104Y-79412835D01*
X179382104Y-79587165D01*
X179416114Y-79758145D01*
X179482827Y-79919205D01*
X179579680Y-80064155D01*
X179702949Y-80187424D01*
X179727490Y-80203822D01*
X179727490Y-80287165D01*
X179761500Y-80458145D01*
X179828213Y-80619205D01*
X179925066Y-80764155D01*
X180048335Y-80887424D01*
X180193285Y-80984277D01*
X180354345Y-81050990D01*
X180525325Y-81085000D01*
X180699655Y-81085000D01*
X180870635Y-81050990D01*
X181031695Y-80984277D01*
X181176645Y-80887424D01*
X181299914Y-80764155D01*
X181396767Y-80619205D01*
X181463480Y-80458145D01*
X181497490Y-80287165D01*
X181497490Y-80112835D01*
X181463480Y-79941855D01*
X181396767Y-79780795D01*
X181299914Y-79635845D01*
X181176645Y-79512576D01*
X181152104Y-79496178D01*
X181152104Y-79412835D01*
X181118094Y-79241855D01*
X181051381Y-79080795D01*
X180954528Y-78935845D01*
X180831259Y-78812576D01*
X180759114Y-78764370D01*
X181783011Y-78764370D01*
X181783011Y-78938700D01*
X181817021Y-79109680D01*
X181883734Y-79270740D01*
X181980587Y-79415690D01*
X182103856Y-79538959D01*
X182248806Y-79635812D01*
X182409866Y-79702525D01*
X182411000Y-79702751D01*
X182418938Y-79721915D01*
X182515791Y-79866865D01*
X182639060Y-79990134D01*
X182784010Y-80086987D01*
X182945070Y-80153700D01*
X183116050Y-80187710D01*
X183290380Y-80187710D01*
X183461360Y-80153700D01*
X183622420Y-80086987D01*
X183767370Y-79990134D01*
X183890639Y-79866865D01*
X183924464Y-79816243D01*
X184050669Y-79791139D01*
X184076520Y-79808412D01*
X184237580Y-79875125D01*
X184408560Y-79909135D01*
X184582890Y-79909135D01*
X184753870Y-79875125D01*
X184914930Y-79808412D01*
X184939376Y-79792078D01*
X185050269Y-79814136D01*
X185093908Y-79879445D01*
X185217177Y-80002714D01*
X185362127Y-80099567D01*
X185523187Y-80166280D01*
X185694167Y-80200290D01*
X185868497Y-80200290D01*
X186039477Y-80166280D01*
X186200537Y-80099567D01*
X186345487Y-80002714D01*
X186465476Y-79882725D01*
X186476915Y-79885000D01*
X186530890Y-79885000D01*
X186536360Y-79893187D01*
X186659629Y-80016456D01*
X186804579Y-80113309D01*
X186965639Y-80180022D01*
X187136619Y-80214032D01*
X187310949Y-80214032D01*
X187481929Y-80180022D01*
X187642989Y-80113309D01*
X187787939Y-80016456D01*
X187911208Y-79893187D01*
X188008061Y-79748237D01*
X188074774Y-79587177D01*
X188108784Y-79416197D01*
X188108784Y-79241867D01*
X188074774Y-79070887D01*
X188008061Y-78909827D01*
X187963812Y-78843604D01*
X188075752Y-78768808D01*
X188199021Y-78645539D01*
X188295874Y-78500589D01*
X188362587Y-78339529D01*
X188367896Y-78312835D01*
X191315000Y-78312835D01*
X191315000Y-78487165D01*
X191349010Y-78658145D01*
X191415723Y-78819205D01*
X191512576Y-78964155D01*
X191635845Y-79087424D01*
X191780795Y-79184277D01*
X191941855Y-79250990D01*
X192112835Y-79285000D01*
X192287165Y-79285000D01*
X192458145Y-79250990D01*
X192619205Y-79184277D01*
X192764155Y-79087424D01*
X192887424Y-78964155D01*
X192984277Y-78819205D01*
X193050990Y-78658145D01*
X193085000Y-78487165D01*
X193085000Y-78440314D01*
X193164155Y-78387424D01*
X193238744Y-78312835D01*
X195915000Y-78312835D01*
X195915000Y-78487165D01*
X195949010Y-78658145D01*
X196015723Y-78819205D01*
X196112576Y-78964155D01*
X196235845Y-79087424D01*
X196380795Y-79184277D01*
X196541855Y-79250990D01*
X196712835Y-79285000D01*
X196887165Y-79285000D01*
X197058145Y-79250990D01*
X197219205Y-79184277D01*
X197364155Y-79087424D01*
X197487424Y-78964155D01*
X197584277Y-78819205D01*
X197650990Y-78658145D01*
X197685000Y-78487165D01*
X197685000Y-78312835D01*
X197650990Y-78141855D01*
X197584277Y-77980795D01*
X197487424Y-77835845D01*
X197364155Y-77712576D01*
X197219205Y-77615723D01*
X197058145Y-77549010D01*
X196887165Y-77515000D01*
X196712835Y-77515000D01*
X196541855Y-77549010D01*
X196380795Y-77615723D01*
X196235845Y-77712576D01*
X196112576Y-77835845D01*
X196015723Y-77980795D01*
X195949010Y-78141855D01*
X195915000Y-78312835D01*
X193238744Y-78312835D01*
X193287424Y-78264155D01*
X193384277Y-78119205D01*
X193450990Y-77958145D01*
X193485000Y-77787165D01*
X193485000Y-77636579D01*
X193535845Y-77687424D01*
X193680795Y-77784277D01*
X193841855Y-77850990D01*
X194012835Y-77885000D01*
X194187165Y-77885000D01*
X194358145Y-77850990D01*
X194519205Y-77784277D01*
X194664155Y-77687424D01*
X194787424Y-77564155D01*
X194884277Y-77419205D01*
X194950990Y-77258145D01*
X194985000Y-77087165D01*
X194985000Y-76912835D01*
X194950990Y-76741855D01*
X194924134Y-76677017D01*
X205398090Y-76677017D01*
X205439078Y-76949133D01*
X205532364Y-77208023D01*
X205594344Y-77323980D01*
X205834435Y-77390960D01*
X206620395Y-76605000D01*
X206979605Y-76605000D01*
X207765565Y-77390960D01*
X208005656Y-77323980D01*
X208122756Y-77074952D01*
X208189023Y-76807865D01*
X208201910Y-76532983D01*
X208160922Y-76260867D01*
X208067636Y-76001977D01*
X208005656Y-75886020D01*
X207765565Y-75819040D01*
X206979605Y-76605000D01*
X206620395Y-76605000D01*
X205834435Y-75819040D01*
X205594344Y-75886020D01*
X205477244Y-76135048D01*
X205410977Y-76402135D01*
X205398090Y-76677017D01*
X194924134Y-76677017D01*
X194884277Y-76580795D01*
X194787424Y-76435845D01*
X194664155Y-76312576D01*
X194519205Y-76215723D01*
X194358145Y-76149010D01*
X194187165Y-76115000D01*
X194012835Y-76115000D01*
X193841855Y-76149010D01*
X193680795Y-76215723D01*
X193535845Y-76312576D01*
X193412576Y-76435845D01*
X193315723Y-76580795D01*
X193249010Y-76741855D01*
X193215000Y-76912835D01*
X193215000Y-77063421D01*
X193164155Y-77012576D01*
X193019205Y-76915723D01*
X192858145Y-76849010D01*
X192687165Y-76815000D01*
X192512835Y-76815000D01*
X192341855Y-76849010D01*
X192180795Y-76915723D01*
X192035845Y-77012576D01*
X191912576Y-77135845D01*
X191815723Y-77280795D01*
X191749010Y-77441855D01*
X191715000Y-77612835D01*
X191715000Y-77659686D01*
X191635845Y-77712576D01*
X191512576Y-77835845D01*
X191415723Y-77980795D01*
X191349010Y-78141855D01*
X191315000Y-78312835D01*
X188367896Y-78312835D01*
X188396597Y-78168549D01*
X188396597Y-77994219D01*
X188362587Y-77823239D01*
X188295874Y-77662179D01*
X188199021Y-77517229D01*
X188168110Y-77486318D01*
X188177753Y-77437842D01*
X188177753Y-77263512D01*
X188143743Y-77092532D01*
X188077030Y-76931472D01*
X187980177Y-76786522D01*
X187856908Y-76663253D01*
X187711958Y-76566400D01*
X187550898Y-76499687D01*
X187379918Y-76465677D01*
X187205588Y-76465677D01*
X187175587Y-76471645D01*
X187099990Y-76396048D01*
X186955040Y-76299195D01*
X186793980Y-76232482D01*
X186623000Y-76198472D01*
X186448670Y-76198472D01*
X186277690Y-76232482D01*
X186116630Y-76299195D01*
X185971680Y-76396048D01*
X185848411Y-76519317D01*
X185751558Y-76664267D01*
X185684845Y-76825327D01*
X185650835Y-76996307D01*
X185650835Y-77170637D01*
X185684845Y-77341617D01*
X185751558Y-77502677D01*
X185848411Y-77647627D01*
X185971680Y-77770896D01*
X186116630Y-77867749D01*
X186277690Y-77934462D01*
X186448670Y-77968472D01*
X186623000Y-77968472D01*
X186632078Y-77966666D01*
X186626597Y-77994219D01*
X186626597Y-78115000D01*
X186476915Y-78115000D01*
X186305935Y-78149010D01*
X186144875Y-78215723D01*
X185999925Y-78312576D01*
X185901633Y-78410868D01*
X185878040Y-78375559D01*
X185754771Y-78252290D01*
X185609821Y-78155437D01*
X185448761Y-78088724D01*
X185277781Y-78054714D01*
X185103451Y-78054714D01*
X184932471Y-78088724D01*
X184771411Y-78155437D01*
X184746965Y-78171771D01*
X184582890Y-78139135D01*
X184408560Y-78139135D01*
X184246041Y-78171462D01*
X184220190Y-78154189D01*
X184059130Y-78087476D01*
X183888150Y-78053466D01*
X183713820Y-78053466D01*
X183542840Y-78087476D01*
X183381780Y-78154189D01*
X183286145Y-78218090D01*
X183232166Y-78164111D01*
X183087216Y-78067258D01*
X182926156Y-78000545D01*
X182755176Y-77966535D01*
X182580846Y-77966535D01*
X182409866Y-78000545D01*
X182248806Y-78067258D01*
X182103856Y-78164111D01*
X181980587Y-78287380D01*
X181883734Y-78432330D01*
X181817021Y-78593390D01*
X181783011Y-78764370D01*
X180759114Y-78764370D01*
X180686309Y-78715723D01*
X180525249Y-78649010D01*
X180354269Y-78615000D01*
X180179939Y-78615000D01*
X180008959Y-78649010D01*
X179847899Y-78715723D01*
X179702949Y-78812576D01*
X179579680Y-78935845D01*
X179482827Y-79080795D01*
X179416114Y-79241855D01*
X179382104Y-79412835D01*
X178521715Y-79412835D01*
X178584277Y-79319205D01*
X178650990Y-79158145D01*
X178685000Y-78987165D01*
X178685000Y-78812835D01*
X178650990Y-78641855D01*
X178584277Y-78480795D01*
X178487424Y-78335845D01*
X178364155Y-78212576D01*
X178219205Y-78115723D01*
X178058145Y-78049010D01*
X177887165Y-78015000D01*
X177712835Y-78015000D01*
X177541855Y-78049010D01*
X177380795Y-78115723D01*
X177235845Y-78212576D01*
X177112576Y-78335845D01*
X177015723Y-78480795D01*
X176949010Y-78641855D01*
X176915000Y-78812835D01*
X174835674Y-78812835D01*
X174791401Y-78705952D01*
X174694548Y-78561002D01*
X174571279Y-78437733D01*
X174530219Y-78410297D01*
X174535000Y-78386260D01*
X174535000Y-78093740D01*
X174477932Y-77806842D01*
X174365990Y-77536589D01*
X174203475Y-77293368D01*
X174200778Y-77290671D01*
X174610824Y-76880625D01*
X179532273Y-76880625D01*
X179568378Y-76884181D01*
X179604483Y-76880625D01*
X179712463Y-76869990D01*
X179851011Y-76827962D01*
X179978698Y-76759712D01*
X180090616Y-76667863D01*
X180113637Y-76639812D01*
X181440614Y-75312835D01*
X191415000Y-75312835D01*
X191415000Y-75487165D01*
X191449010Y-75658145D01*
X191515723Y-75819205D01*
X191612576Y-75964155D01*
X191735845Y-76087424D01*
X191880795Y-76184277D01*
X192041855Y-76250990D01*
X192212835Y-76285000D01*
X192387165Y-76285000D01*
X192558145Y-76250990D01*
X192719205Y-76184277D01*
X192864155Y-76087424D01*
X192987424Y-75964155D01*
X193084277Y-75819205D01*
X193150990Y-75658145D01*
X193185000Y-75487165D01*
X193185000Y-75312835D01*
X193150990Y-75141855D01*
X193084277Y-74980795D01*
X192987424Y-74835845D01*
X192964414Y-74812835D01*
X193215000Y-74812835D01*
X193215000Y-74987165D01*
X193249010Y-75158145D01*
X193315723Y-75319205D01*
X193412576Y-75464155D01*
X193535845Y-75587424D01*
X193680795Y-75684277D01*
X193841855Y-75750990D01*
X194012835Y-75785000D01*
X194187165Y-75785000D01*
X194358145Y-75750990D01*
X194519205Y-75684277D01*
X194664155Y-75587424D01*
X194787424Y-75464155D01*
X194884277Y-75319205D01*
X194950990Y-75158145D01*
X194985000Y-74987165D01*
X194985000Y-74812835D01*
X194950990Y-74641855D01*
X194884277Y-74480795D01*
X194787424Y-74335845D01*
X194664155Y-74212576D01*
X194519205Y-74115723D01*
X194358145Y-74049010D01*
X194187165Y-74015000D01*
X194012835Y-74015000D01*
X193841855Y-74049010D01*
X193680795Y-74115723D01*
X193535845Y-74212576D01*
X193412576Y-74335845D01*
X193315723Y-74480795D01*
X193249010Y-74641855D01*
X193215000Y-74812835D01*
X192964414Y-74812835D01*
X192864155Y-74712576D01*
X192719205Y-74615723D01*
X192558145Y-74549010D01*
X192387165Y-74515000D01*
X192212835Y-74515000D01*
X192041855Y-74549010D01*
X191880795Y-74615723D01*
X191735845Y-74712576D01*
X191612576Y-74835845D01*
X191515723Y-74980795D01*
X191449010Y-75141855D01*
X191415000Y-75312835D01*
X181440614Y-75312835D01*
X183318462Y-73434988D01*
X186351963Y-73434988D01*
X186235845Y-73512576D01*
X186112576Y-73635845D01*
X186015723Y-73780795D01*
X185949010Y-73941855D01*
X185915000Y-74112835D01*
X185915000Y-74287165D01*
X185949010Y-74458145D01*
X186015723Y-74619205D01*
X186112576Y-74764155D01*
X186235845Y-74887424D01*
X186380795Y-74984277D01*
X186541855Y-75050990D01*
X186712835Y-75085000D01*
X186887165Y-75085000D01*
X187058145Y-75050990D01*
X187219205Y-74984277D01*
X187364155Y-74887424D01*
X187487424Y-74764155D01*
X187584277Y-74619205D01*
X187650990Y-74458145D01*
X187685000Y-74287165D01*
X187685000Y-74112835D01*
X187650990Y-73941855D01*
X187584277Y-73780795D01*
X187487424Y-73635845D01*
X187364155Y-73512576D01*
X187248037Y-73434988D01*
X188086221Y-73434988D01*
X188159969Y-73484265D01*
X188321029Y-73550978D01*
X188492009Y-73584988D01*
X188666339Y-73584988D01*
X188837319Y-73550978D01*
X188929143Y-73512943D01*
X189021030Y-73551004D01*
X189192010Y-73585014D01*
X189366340Y-73585014D01*
X189537320Y-73551004D01*
X189698380Y-73484291D01*
X189843330Y-73387438D01*
X189966599Y-73264169D01*
X190063452Y-73119219D01*
X190089593Y-73056110D01*
X190115723Y-73119194D01*
X190212576Y-73264144D01*
X190335845Y-73387413D01*
X190480795Y-73484266D01*
X190641855Y-73550979D01*
X190812835Y-73584989D01*
X190987165Y-73584989D01*
X191158145Y-73550979D01*
X191319205Y-73484266D01*
X191464155Y-73387413D01*
X191587424Y-73264144D01*
X191684277Y-73119194D01*
X191750990Y-72958134D01*
X191785000Y-72787154D01*
X191785000Y-72612824D01*
X191750990Y-72441844D01*
X191684277Y-72280784D01*
X191587424Y-72135834D01*
X191464155Y-72012565D01*
X191319205Y-71915712D01*
X191158145Y-71848999D01*
X190987165Y-71814989D01*
X190812835Y-71814989D01*
X190641855Y-71848999D01*
X190480795Y-71915712D01*
X190335845Y-72012565D01*
X190212576Y-72135834D01*
X190115723Y-72280784D01*
X190089582Y-72343893D01*
X190063452Y-72280809D01*
X189966599Y-72135859D01*
X189843330Y-72012590D01*
X189698380Y-71915737D01*
X189537320Y-71849024D01*
X189366340Y-71815014D01*
X189192010Y-71815014D01*
X189021030Y-71849024D01*
X188929206Y-71887059D01*
X188837319Y-71848998D01*
X188666339Y-71814988D01*
X188492009Y-71814988D01*
X188321029Y-71848998D01*
X188159969Y-71915711D01*
X188086221Y-71964988D01*
X186169520Y-71964988D01*
X186185000Y-71887165D01*
X186185000Y-71712835D01*
X186150990Y-71541855D01*
X186084277Y-71380795D01*
X185987424Y-71235845D01*
X185864155Y-71112576D01*
X185719205Y-71015723D01*
X185558145Y-70949010D01*
X185387165Y-70915000D01*
X185212835Y-70915000D01*
X185041855Y-70949010D01*
X184880795Y-71015723D01*
X184735845Y-71112576D01*
X184612576Y-71235845D01*
X184515723Y-71380795D01*
X184449010Y-71541855D01*
X184415000Y-71712835D01*
X184415000Y-71887165D01*
X184430480Y-71964988D01*
X183050120Y-71964988D01*
X183014015Y-71961432D01*
X182869930Y-71975623D01*
X182731381Y-72017651D01*
X182655623Y-72058145D01*
X182603695Y-72085901D01*
X182491777Y-72177750D01*
X182468761Y-72205795D01*
X182216343Y-72458213D01*
X182184277Y-72380798D01*
X182087424Y-72235848D01*
X181964155Y-72112579D01*
X181819205Y-72015726D01*
X181658145Y-71949013D01*
X181487165Y-71915003D01*
X181312835Y-71915003D01*
X181141855Y-71949013D01*
X180980795Y-72015726D01*
X180835845Y-72112579D01*
X180712576Y-72235848D01*
X180615723Y-72380798D01*
X180549010Y-72541858D01*
X180515000Y-72712838D01*
X180515000Y-72887168D01*
X180549010Y-73058148D01*
X180561096Y-73087326D01*
X180512577Y-73135845D01*
X180415724Y-73280795D01*
X180390818Y-73340924D01*
X180387424Y-73335845D01*
X180264155Y-73212576D01*
X180119205Y-73115723D01*
X179958145Y-73049010D01*
X179787165Y-73015000D01*
X179612835Y-73015000D01*
X179441855Y-73049010D01*
X179280795Y-73115723D01*
X179135845Y-73212576D01*
X179012576Y-73335845D01*
X178915723Y-73480795D01*
X178849010Y-73641855D01*
X178815000Y-73812835D01*
X178815000Y-73987165D01*
X178849010Y-74158145D01*
X178915723Y-74319205D01*
X179012576Y-74464155D01*
X179135845Y-74587424D01*
X179280795Y-74684277D01*
X179441855Y-74750990D01*
X179612835Y-74785000D01*
X179787165Y-74785000D01*
X179914981Y-74759576D01*
X179263932Y-75410625D01*
X174506532Y-75410625D01*
X174477932Y-75266842D01*
X174365990Y-74996589D01*
X174203475Y-74753368D01*
X173996632Y-74546525D01*
X173822240Y-74430000D01*
X173996632Y-74313475D01*
X174203475Y-74106632D01*
X174365990Y-73863411D01*
X174477932Y-73593158D01*
X174535000Y-73306260D01*
X174535000Y-73013740D01*
X174484528Y-72760001D01*
X177245402Y-72760001D01*
X177215001Y-72912835D01*
X177215001Y-73087165D01*
X177249011Y-73258145D01*
X177315724Y-73419205D01*
X177365066Y-73493051D01*
X177335845Y-73512576D01*
X177212576Y-73635845D01*
X177115723Y-73780795D01*
X177049010Y-73941855D01*
X177015000Y-74112835D01*
X177015000Y-74287165D01*
X177049010Y-74458145D01*
X177115723Y-74619205D01*
X177212576Y-74764155D01*
X177335845Y-74887424D01*
X177480795Y-74984277D01*
X177641855Y-75050990D01*
X177812835Y-75085000D01*
X177987165Y-75085000D01*
X178158145Y-75050990D01*
X178319205Y-74984277D01*
X178464155Y-74887424D01*
X178587424Y-74764155D01*
X178684277Y-74619205D01*
X178750990Y-74458145D01*
X178785000Y-74287165D01*
X178785000Y-74112835D01*
X178750990Y-73941855D01*
X178684277Y-73780795D01*
X178634935Y-73706949D01*
X178664156Y-73687424D01*
X178787425Y-73564155D01*
X178884278Y-73419205D01*
X178950991Y-73258145D01*
X178985001Y-73087165D01*
X178985001Y-72912835D01*
X178950991Y-72741855D01*
X178938775Y-72712362D01*
X178947196Y-72699759D01*
X179013909Y-72538699D01*
X179047919Y-72367719D01*
X179047919Y-72193389D01*
X179013909Y-72022409D01*
X178947196Y-71861349D01*
X178850343Y-71716399D01*
X178727074Y-71593130D01*
X178582124Y-71496277D01*
X178421064Y-71429564D01*
X178311985Y-71407867D01*
X178189999Y-71342664D01*
X178051451Y-71300636D01*
X177943471Y-71290001D01*
X177907366Y-71286445D01*
X177871261Y-71290001D01*
X177593357Y-71290001D01*
X177612710Y-71253793D01*
X177650450Y-71129383D01*
X177663193Y-71000000D01*
X177660000Y-70967581D01*
X177660000Y-70474490D01*
X177712835Y-70485000D01*
X177887165Y-70485000D01*
X178058145Y-70450990D01*
X178219205Y-70384277D01*
X178364155Y-70287424D01*
X178487424Y-70164155D01*
X178584277Y-70019205D01*
X178650990Y-69858145D01*
X178685000Y-69687165D01*
X178685000Y-69660000D01*
X179629618Y-69660000D01*
X179615723Y-69680795D01*
G37*
X179615723Y-69680795D02*
X179549010Y-69841855D01*
X179515000Y-70012835D01*
X179515000Y-70187165D01*
X179549010Y-70358145D01*
X179615723Y-70519205D01*
X179712576Y-70664155D01*
X179835845Y-70787424D01*
X179980795Y-70884277D01*
X180141855Y-70950990D01*
X180312835Y-70985000D01*
X180487165Y-70985000D01*
X180658145Y-70950990D01*
X180819205Y-70884277D01*
X180964155Y-70787424D01*
X181062447Y-70689132D01*
X181112576Y-70764155D01*
X181235845Y-70887424D01*
X181380795Y-70984277D01*
X181439122Y-71008437D01*
X181449010Y-71058145D01*
X181515723Y-71219205D01*
X181612576Y-71364155D01*
X181735845Y-71487424D01*
X181880795Y-71584277D01*
X182041855Y-71650990D01*
X182212835Y-71685000D01*
X182387165Y-71685000D01*
X182558145Y-71650990D01*
X182719205Y-71584277D01*
X182864155Y-71487424D01*
X182987424Y-71364155D01*
X183084277Y-71219205D01*
X183150990Y-71058145D01*
X183185000Y-70887165D01*
X183185000Y-70799388D01*
X183342193Y-70734277D01*
X183487143Y-70637424D01*
X183610412Y-70514155D01*
X183707265Y-70369205D01*
X183773978Y-70208145D01*
X183807988Y-70037165D01*
X183807988Y-69862835D01*
X183773978Y-69691855D01*
X183760783Y-69660000D01*
X188145401Y-69660000D01*
X188115000Y-69812835D01*
X188115000Y-69987165D01*
X188149010Y-70158145D01*
X188215723Y-70319205D01*
X188312576Y-70464155D01*
X188435845Y-70587424D01*
X188580795Y-70684277D01*
X188741855Y-70750990D01*
X188912835Y-70785000D01*
X189087165Y-70785000D01*
X189258145Y-70750990D01*
X189419205Y-70684277D01*
X189564155Y-70587424D01*
X189687424Y-70464155D01*
X189784277Y-70319205D01*
X189850990Y-70158145D01*
X189885000Y-69987165D01*
X189885000Y-69812835D01*
X189854599Y-69660000D01*
X193515000Y-69660000D01*
X193515000Y-69687165D01*
X193549010Y-69858145D01*
X193615723Y-70019205D01*
X193712576Y-70164155D01*
X193835845Y-70287424D01*
X193980795Y-70384277D01*
X194141855Y-70450990D01*
X194312835Y-70485000D01*
X194487165Y-70485000D01*
X194648974Y-70452814D01*
X194619265Y-70602172D01*
X194619265Y-70776502D01*
X194653275Y-70947482D01*
X194719988Y-71108542D01*
X194816841Y-71253492D01*
X194940110Y-71376761D01*
X195085060Y-71473614D01*
X195246120Y-71540327D01*
X195417100Y-71574337D01*
X195480710Y-71574337D01*
X195380795Y-71615723D01*
X195235845Y-71712576D01*
X195112576Y-71835845D01*
X195015723Y-71980795D01*
X194949010Y-72141855D01*
X194915000Y-72312835D01*
X194915000Y-72487165D01*
X194949010Y-72658145D01*
X195015723Y-72819205D01*
X195112576Y-72964155D01*
X195235845Y-73087424D01*
X195380795Y-73184277D01*
X195493612Y-73231007D01*
X195499010Y-73258145D01*
X195565723Y-73419205D01*
X195662576Y-73564155D01*
X195785845Y-73687424D01*
X195930795Y-73784277D01*
X196091855Y-73850990D01*
X196262835Y-73885000D01*
X196437165Y-73885000D01*
X196589041Y-73854790D01*
X196615723Y-73919205D01*
X196712576Y-74064155D01*
X196835845Y-74187424D01*
X196980795Y-74284277D01*
X197141855Y-74350990D01*
X197312835Y-74385000D01*
X197487165Y-74385000D01*
X197658145Y-74350990D01*
X197819205Y-74284277D01*
X197964155Y-74187424D01*
X198087424Y-74064155D01*
X198184277Y-73919205D01*
X198250990Y-73758145D01*
X198285000Y-73587165D01*
X198285000Y-73412835D01*
X198250990Y-73241855D01*
X198184277Y-73080795D01*
X198087424Y-72935845D01*
X197964155Y-72812576D01*
X197819205Y-72715723D01*
X197658145Y-72649010D01*
X197487165Y-72615000D01*
X197312835Y-72615000D01*
X197160959Y-72645210D01*
X197134277Y-72580795D01*
X197037424Y-72435845D01*
X196914155Y-72312576D01*
X196769205Y-72215723D01*
X196656388Y-72168993D01*
X196650990Y-72141855D01*
X196584277Y-71980795D01*
X196487424Y-71835845D01*
X196364155Y-71712576D01*
X196219205Y-71615723D01*
X196058145Y-71549010D01*
X195887165Y-71515000D01*
X195823555Y-71515000D01*
X195923470Y-71473614D01*
X196044153Y-71392976D01*
X196180795Y-71484277D01*
X196341855Y-71550990D01*
X196512835Y-71585000D01*
X196687165Y-71585000D01*
X196858145Y-71550990D01*
X197019205Y-71484277D01*
X197164155Y-71387424D01*
X197287424Y-71264155D01*
X197384277Y-71119205D01*
X197386915Y-71112835D01*
X200365000Y-71112835D01*
X200365000Y-71287165D01*
X200399010Y-71458145D01*
X200465723Y-71619205D01*
X200562576Y-71764155D01*
X200685845Y-71887424D01*
X200830795Y-71984277D01*
X200991855Y-72050990D01*
X201162835Y-72085000D01*
X201337165Y-72085000D01*
X201508145Y-72050990D01*
X201600259Y-72012835D01*
X204115000Y-72012835D01*
X204115000Y-72187165D01*
X204149010Y-72358145D01*
X204215723Y-72519205D01*
X204312576Y-72664155D01*
X204435845Y-72787424D01*
X204580795Y-72884277D01*
X204741855Y-72950990D01*
X204912835Y-72985000D01*
X205087165Y-72985000D01*
X205258145Y-72950990D01*
X205419205Y-72884277D01*
X205564155Y-72787424D01*
X205687424Y-72664155D01*
X205784277Y-72519205D01*
X205794315Y-72494970D01*
X205909465Y-72610120D01*
X206138273Y-72763005D01*
X206215515Y-72795000D01*
X206138273Y-72826995D01*
X205909465Y-72979880D01*
X205714880Y-73174465D01*
X205561995Y-73403273D01*
X205456686Y-73657510D01*
X205403000Y-73927408D01*
X205403000Y-74202592D01*
X205456686Y-74472490D01*
X205561995Y-74726727D01*
X205714880Y-74955535D01*
X205909465Y-75150120D01*
X206138273Y-75303005D01*
X206209943Y-75332692D01*
X206196977Y-75337364D01*
X206081020Y-75399344D01*
X206014040Y-75639435D01*
X206800000Y-76425395D01*
X207585960Y-75639435D01*
X207518980Y-75399344D01*
X207383240Y-75335515D01*
X207461727Y-75303005D01*
X207690535Y-75150120D01*
X207885120Y-74955535D01*
X208038005Y-74726727D01*
X208143314Y-74472490D01*
X208197000Y-74202592D01*
X208197000Y-73927408D01*
X208143314Y-73657510D01*
X208038005Y-73403273D01*
X207885120Y-73174465D01*
X207690535Y-72979880D01*
X207461727Y-72826995D01*
X207384485Y-72795000D01*
X207461727Y-72763005D01*
X207690535Y-72610120D01*
X207885120Y-72415535D01*
X208038005Y-72186727D01*
X208143314Y-71932490D01*
X208197000Y-71662592D01*
X208197000Y-71387408D01*
X208143314Y-71117510D01*
X208038005Y-70863273D01*
X207885120Y-70634465D01*
X207690535Y-70439880D01*
X207461727Y-70286995D01*
X207207490Y-70181686D01*
X206937592Y-70128000D01*
X206662408Y-70128000D01*
X206392510Y-70181686D01*
X206138273Y-70286995D01*
X205909465Y-70439880D01*
X205714880Y-70634465D01*
X205561995Y-70863273D01*
X205456686Y-71117510D01*
X205417407Y-71314978D01*
X205258145Y-71249010D01*
X205087165Y-71215000D01*
X204912835Y-71215000D01*
X204741855Y-71249010D01*
X204580795Y-71315723D01*
X204435845Y-71412576D01*
X204312576Y-71535845D01*
X204215723Y-71680795D01*
X204149010Y-71841855D01*
X204115000Y-72012835D01*
X201600259Y-72012835D01*
X201669205Y-71984277D01*
X201814155Y-71887424D01*
X201937424Y-71764155D01*
X202034277Y-71619205D01*
X202100990Y-71458145D01*
X202135000Y-71287165D01*
X202135000Y-71112835D01*
X202100990Y-70941855D01*
X202034277Y-70780795D01*
X201937424Y-70635845D01*
X201814155Y-70512576D01*
X201669205Y-70415723D01*
X201508145Y-70349010D01*
X201337165Y-70315000D01*
X201162835Y-70315000D01*
X200991855Y-70349010D01*
X200830795Y-70415723D01*
X200685845Y-70512576D01*
X200562576Y-70635845D01*
X200465723Y-70780795D01*
X200399010Y-70941855D01*
X200365000Y-71112835D01*
X197386915Y-71112835D01*
X197450990Y-70958145D01*
X197485000Y-70787165D01*
X197485000Y-70612835D01*
X197450990Y-70441855D01*
X197384277Y-70280795D01*
X197287424Y-70135845D01*
X197164155Y-70012576D01*
X197019205Y-69915723D01*
X196858145Y-69849010D01*
X196687165Y-69815000D01*
X196512835Y-69815000D01*
X196341855Y-69849010D01*
X196180795Y-69915723D01*
X196060112Y-69996361D01*
X195923470Y-69905060D01*
X195762410Y-69838347D01*
X195591430Y-69804337D01*
X195417100Y-69804337D01*
X195255291Y-69836523D01*
X195285000Y-69687165D01*
X195285000Y-69660000D01*
X209340000Y-69660000D01*
X209340000Y-70032418D01*
X209340001Y-70032428D01*
X209340000Y-89340000D01*
X208449700Y-89340000D01*
X208513028Y-89288028D01*
X208673608Y-89092362D01*
X208792929Y-88869127D01*
X208866407Y-88626904D01*
X208891217Y-88375000D01*
X208866407Y-88123096D01*
X208792929Y-87880873D01*
X208673608Y-87657638D01*
X208513028Y-87461972D01*
X208317362Y-87301392D01*
X208094127Y-87182071D01*
X207851904Y-87108593D01*
X207663123Y-87090000D01*
X207036877Y-87090000D01*
X206848096Y-87108593D01*
X206605873Y-87182071D01*
X206382638Y-87301392D01*
X206186972Y-87461972D01*
X206026392Y-87657638D01*
X205907071Y-87880873D01*
X205833593Y-88123096D01*
X205808783Y-88375000D01*
X205833593Y-88626904D01*
X205907071Y-88869127D01*
X206026392Y-89092362D01*
X206186972Y-89288028D01*
X206250300Y-89340000D01*
X186485000Y-89340000D01*
X186485000Y-89337835D01*
X186450990Y-89166855D01*
X186384277Y-89005795D01*
X186380587Y-89000273D01*
X186419205Y-88984277D01*
X186564155Y-88887424D01*
X186687424Y-88764155D01*
X186784277Y-88619205D01*
X186850990Y-88458145D01*
X186885000Y-88287165D01*
X186885000Y-88112835D01*
X186850990Y-87941855D01*
X186784277Y-87780795D01*
X186750368Y-87730046D01*
X186814155Y-87687425D01*
X186937424Y-87564156D01*
X186971715Y-87512835D01*
X197915000Y-87512835D01*
X197915000Y-87687165D01*
X197949010Y-87858145D01*
X198015723Y-88019205D01*
X198112576Y-88164155D01*
X198235845Y-88287424D01*
X198380795Y-88384277D01*
X198541855Y-88450990D01*
X198712835Y-88485000D01*
X198887165Y-88485000D01*
X199058145Y-88450990D01*
X199219205Y-88384277D01*
X199364155Y-88287424D01*
X199487424Y-88164155D01*
X199546995Y-88075000D01*
X202954388Y-88075000D01*
X202976785Y-88302400D01*
X203043115Y-88521060D01*
X203150829Y-88722579D01*
X203295788Y-88899212D01*
X203472421Y-89044171D01*
X203673940Y-89151885D01*
X203892600Y-89218215D01*
X204063021Y-89235000D01*
X204576979Y-89235000D01*
X204747400Y-89218215D01*
X204966060Y-89151885D01*
X205167579Y-89044171D01*
X205344212Y-88899212D01*
X205489171Y-88722579D01*
X205596885Y-88521060D01*
X205663215Y-88302400D01*
X205685612Y-88075000D01*
X205663215Y-87847600D01*
X205596885Y-87628940D01*
X205489171Y-87427421D01*
X205344212Y-87250788D01*
X205167579Y-87105829D01*
X204966060Y-86998115D01*
X204747400Y-86931785D01*
X204576979Y-86915000D01*
X204063021Y-86915000D01*
X203892600Y-86931785D01*
X203673940Y-86998115D01*
X203472421Y-87105829D01*
X203295788Y-87250788D01*
X203150829Y-87427421D01*
X203043115Y-87628940D01*
X202976785Y-87847600D01*
X202954388Y-88075000D01*
X199546995Y-88075000D01*
X199584277Y-88019205D01*
X199650990Y-87858145D01*
X199685000Y-87687165D01*
X199685000Y-87512835D01*
X199650990Y-87341855D01*
X199584277Y-87180795D01*
X199487424Y-87035845D01*
X199364155Y-86912576D01*
X199219205Y-86815723D01*
X199058145Y-86749010D01*
X198887165Y-86715000D01*
X198712835Y-86715000D01*
X198541855Y-86749010D01*
X198380795Y-86815723D01*
X198235845Y-86912576D01*
X198112576Y-87035845D01*
X198015723Y-87180795D01*
X197949010Y-87341855D01*
X197915000Y-87512835D01*
X186971715Y-87512835D01*
X187034277Y-87419206D01*
X187100990Y-87258146D01*
X187135000Y-87087166D01*
X187135000Y-86912836D01*
X187100990Y-86741856D01*
X187034277Y-86580796D01*
X186937424Y-86435846D01*
X186814155Y-86312577D01*
X186669205Y-86215724D01*
X186508145Y-86149011D01*
X186337165Y-86115001D01*
X186162835Y-86115001D01*
X185991855Y-86149011D01*
X185830795Y-86215724D01*
X185685845Y-86312577D01*
X185562576Y-86435846D01*
X185465723Y-86580796D01*
X185399010Y-86741856D01*
X185365000Y-86912836D01*
X185365000Y-87087166D01*
X185399010Y-87258146D01*
X185465723Y-87419206D01*
X185499632Y-87469955D01*
X185435845Y-87512576D01*
X185312576Y-87635845D01*
X185215723Y-87780795D01*
X185149010Y-87941855D01*
X185115000Y-88112835D01*
X185115000Y-88287165D01*
X185149010Y-88458145D01*
X185215723Y-88619205D01*
X185219413Y-88624727D01*
X185180795Y-88640723D01*
X185035845Y-88737576D01*
X184912576Y-88860845D01*
X184815723Y-89005795D01*
X184749010Y-89166855D01*
X184715000Y-89337835D01*
X184715000Y-89340000D01*
X178122886Y-89340000D01*
X178164155Y-89312425D01*
X178287424Y-89189156D01*
X178384009Y-89044607D01*
X178480795Y-89109277D01*
X178641855Y-89175990D01*
X178812835Y-89210000D01*
X178987165Y-89210000D01*
X179158145Y-89175990D01*
X179319205Y-89109277D01*
X179464155Y-89012424D01*
X179587424Y-88889155D01*
X179684277Y-88744205D01*
X179710743Y-88680310D01*
X179858145Y-88650990D01*
X180019205Y-88584277D01*
X180164155Y-88487424D01*
X180287424Y-88364155D01*
X180384277Y-88219205D01*
X180450990Y-88058145D01*
X180485000Y-87887165D01*
X180485000Y-87712835D01*
X180450990Y-87541855D01*
X180384277Y-87380795D01*
X180287424Y-87235845D01*
X180164155Y-87112576D01*
X180019205Y-87015723D01*
X179858145Y-86949010D01*
X179687165Y-86915000D01*
X179512835Y-86915000D01*
X179341855Y-86949010D01*
X179180795Y-87015723D01*
X179035845Y-87112576D01*
X178912576Y-87235845D01*
X178815723Y-87380795D01*
X178789257Y-87444690D01*
X178641855Y-87474010D01*
X178480795Y-87540723D01*
X178335845Y-87637576D01*
X178212576Y-87760845D01*
X178115991Y-87905394D01*
X178019205Y-87840724D01*
X177858145Y-87774011D01*
X177687165Y-87740001D01*
X177512835Y-87740001D01*
X177341855Y-87774011D01*
X177180795Y-87840724D01*
X177035845Y-87937577D01*
X176912576Y-88060846D01*
X176815723Y-88205796D01*
X176749010Y-88366856D01*
X176715000Y-88537836D01*
X176715000Y-88712166D01*
X176749010Y-88883146D01*
X176815723Y-89044206D01*
X176912576Y-89189156D01*
X177035845Y-89312425D01*
X177077114Y-89340000D01*
X175585000Y-89340000D01*
X175585000Y-89212835D01*
X175550990Y-89041855D01*
X175484277Y-88880795D01*
X175387424Y-88735845D01*
X175264155Y-88612576D01*
X175119205Y-88515723D01*
X174958145Y-88449010D01*
X174787165Y-88415000D01*
X174612835Y-88415000D01*
X174535000Y-88430482D01*
X174535000Y-88298445D01*
X174569205Y-88284277D01*
X174714155Y-88187424D01*
X174837424Y-88064155D01*
X174910737Y-87954436D01*
X175003651Y-88093491D01*
X175126920Y-88216760D01*
X175271870Y-88313613D01*
X175432930Y-88380326D01*
X175603910Y-88414336D01*
X175778240Y-88414336D01*
X175949220Y-88380326D01*
X176110280Y-88313613D01*
X176255230Y-88216760D01*
X176378499Y-88093491D01*
X176475352Y-87948541D01*
X176542065Y-87787481D01*
X176576075Y-87616501D01*
X176576075Y-87442171D01*
X176542065Y-87271191D01*
X176475352Y-87110131D01*
X176378499Y-86965181D01*
X176255230Y-86841912D01*
X176110280Y-86745059D01*
X175949220Y-86678346D01*
X175778240Y-86644336D01*
X175603910Y-86644336D01*
X175432930Y-86678346D01*
X175271870Y-86745059D01*
X175126920Y-86841912D01*
X175003651Y-86965181D01*
X174930338Y-87074900D01*
X174837424Y-86935845D01*
X174714155Y-86812576D01*
X174569205Y-86715723D01*
X174408145Y-86649010D01*
X174320450Y-86631566D01*
X174365990Y-86563411D01*
X174477932Y-86293158D01*
X174535000Y-86006260D01*
X174535000Y-85713740D01*
X174477932Y-85426842D01*
X174365990Y-85156589D01*
X174306119Y-85066986D01*
X174339001Y-85040001D01*
X174362803Y-85010998D01*
X174497819Y-84875982D01*
X174515723Y-84919205D01*
X174612576Y-85064155D01*
X174735845Y-85187424D01*
X174880795Y-85284277D01*
X175041855Y-85350990D01*
X175212835Y-85385000D01*
X175387165Y-85385000D01*
X175558145Y-85350990D01*
X175719205Y-85284277D01*
X175864155Y-85187424D01*
X175987424Y-85064155D01*
X176084277Y-84919205D01*
X176150990Y-84758145D01*
X176185000Y-84587165D01*
X176185000Y-84445000D01*
X180623452Y-84445000D01*
X180577595Y-84513630D01*
X180510882Y-84674690D01*
X180491990Y-84769665D01*
X180380795Y-84815723D01*
X180235845Y-84912576D01*
X180112576Y-85035845D01*
X180091023Y-85068101D01*
X179935635Y-85099010D01*
X179774575Y-85165723D01*
X179629625Y-85262576D01*
X179506356Y-85385845D01*
X179409503Y-85530795D01*
X179342790Y-85691855D01*
X179308780Y-85862835D01*
X179308780Y-86037165D01*
X179342790Y-86208145D01*
X179409503Y-86369205D01*
X179506356Y-86514155D01*
X179629625Y-86637424D01*
X179774575Y-86734277D01*
X179935635Y-86800990D01*
X180106615Y-86835000D01*
X180280945Y-86835000D01*
X180451925Y-86800990D01*
X180489998Y-86785220D01*
X180489998Y-86912165D01*
X180524008Y-87083145D01*
X180590721Y-87244205D01*
X180687574Y-87389155D01*
X180810843Y-87512424D01*
X180825922Y-87522499D01*
X180712576Y-87635845D01*
X180615723Y-87780795D01*
X180549010Y-87941855D01*
X180515000Y-88112835D01*
X180515000Y-88287165D01*
X180549010Y-88458145D01*
X180615723Y-88619205D01*
X180712576Y-88764155D01*
X180835845Y-88887424D01*
X180980795Y-88984277D01*
X181141855Y-89050990D01*
X181312835Y-89085000D01*
X181487165Y-89085000D01*
X181658145Y-89050990D01*
X181819205Y-88984277D01*
X181964155Y-88887424D01*
X182087424Y-88764155D01*
X182184277Y-88619205D01*
X182250990Y-88458145D01*
X182285000Y-88287165D01*
X182285000Y-88112835D01*
X182250990Y-87941855D01*
X182184277Y-87780795D01*
X182087424Y-87635845D01*
X181964155Y-87512576D01*
X181949076Y-87502501D01*
X182062422Y-87389155D01*
X182159275Y-87244205D01*
X182225988Y-87083145D01*
X182259998Y-86912165D01*
X182259998Y-86737835D01*
X182225988Y-86566855D01*
X182159275Y-86405795D01*
X182062422Y-86260845D01*
X181939153Y-86137576D01*
X181794203Y-86040723D01*
X181633143Y-85974010D01*
X181605292Y-85968470D01*
X181650990Y-85858145D01*
X181669882Y-85763170D01*
X181781077Y-85717112D01*
X181926027Y-85620259D01*
X182049296Y-85496990D01*
X182146149Y-85352040D01*
X182212862Y-85190980D01*
X182221044Y-85149846D01*
X182557202Y-85486004D01*
X182581000Y-85515002D01*
X182609998Y-85538800D01*
X182696724Y-85609975D01*
X182742190Y-85634277D01*
X182828754Y-85680547D01*
X182972015Y-85724004D01*
X183071152Y-85733768D01*
X183056434Y-85755795D01*
X182989721Y-85916855D01*
X182955711Y-86087835D01*
X182955711Y-86262165D01*
X182989721Y-86433145D01*
X183056434Y-86594205D01*
X183153287Y-86739155D01*
X183276556Y-86862424D01*
X183421506Y-86959277D01*
X183582566Y-87025990D01*
X183753546Y-87060000D01*
X183927876Y-87060000D01*
X184098856Y-87025990D01*
X184259916Y-86959277D01*
X184404866Y-86862424D01*
X184528135Y-86739155D01*
X184624988Y-86594205D01*
X184691701Y-86433145D01*
X184725711Y-86262165D01*
X184725711Y-86087835D01*
X184691701Y-85916855D01*
X184624988Y-85755795D01*
X184611094Y-85735001D01*
X192037677Y-85735001D01*
X192074999Y-85738677D01*
X192112321Y-85735001D01*
X192112332Y-85735001D01*
X192223985Y-85724004D01*
X192367246Y-85680547D01*
X192499275Y-85609975D01*
X192615000Y-85515002D01*
X192638802Y-85485999D01*
X193089803Y-85034999D01*
X194913422Y-85034999D01*
X194912576Y-85035845D01*
X194815723Y-85180795D01*
X194749010Y-85341855D01*
X194715000Y-85512835D01*
X194715000Y-85687165D01*
X194749010Y-85858145D01*
X194815723Y-86019205D01*
X194912576Y-86164155D01*
X195035845Y-86287424D01*
X195180795Y-86384277D01*
X195341855Y-86450990D01*
X195512835Y-86485000D01*
X195687165Y-86485000D01*
X195858145Y-86450990D01*
X196019205Y-86384277D01*
X196164155Y-86287424D01*
X196182549Y-86269030D01*
X196262835Y-86285000D01*
X196437165Y-86285000D01*
X196608145Y-86250990D01*
X196769205Y-86184277D01*
X196914155Y-86087424D01*
X197037424Y-85964155D01*
X197134277Y-85819205D01*
X197169156Y-85735000D01*
X197287165Y-85735000D01*
X197458145Y-85700990D01*
X197619205Y-85634277D01*
X197764155Y-85537424D01*
X197864077Y-85437502D01*
X197876002Y-85438677D01*
X197913325Y-85435001D01*
X201513420Y-85435001D01*
X201512576Y-85435845D01*
X201415723Y-85580795D01*
X201349010Y-85741855D01*
X201315000Y-85912835D01*
X201315000Y-86087165D01*
X201349010Y-86258145D01*
X201415723Y-86419205D01*
X201512576Y-86564155D01*
X201635845Y-86687424D01*
X201780795Y-86784277D01*
X201941855Y-86850990D01*
X202112835Y-86885000D01*
X202287165Y-86885000D01*
X202458145Y-86850990D01*
X202619205Y-86784277D01*
X202764155Y-86687424D01*
X202887424Y-86564155D01*
X202889843Y-86560535D01*
X203012835Y-86585000D01*
X203187165Y-86585000D01*
X203358145Y-86550990D01*
X203519205Y-86484277D01*
X203664155Y-86387424D01*
X203787424Y-86264155D01*
X203884277Y-86119205D01*
X203950990Y-85958145D01*
X203985000Y-85787165D01*
X203985000Y-85612835D01*
X203950990Y-85441855D01*
X203884277Y-85280795D01*
X203787424Y-85135845D01*
X203664155Y-85012576D01*
X203519205Y-84915723D01*
X203358145Y-84849010D01*
X203187165Y-84815000D01*
X203120268Y-84815000D01*
X203184277Y-84719205D01*
X203250990Y-84558145D01*
X203285000Y-84387165D01*
X203285000Y-84212835D01*
X203250990Y-84041855D01*
X203211491Y-83946496D01*
X203295788Y-84049212D01*
X203472421Y-84194171D01*
X203673940Y-84301885D01*
X203892600Y-84368215D01*
X204063021Y-84385000D01*
X204576979Y-84385000D01*
X204615000Y-84381255D01*
X204615000Y-84387165D01*
X204649010Y-84558145D01*
X204715723Y-84719205D01*
X204812576Y-84864155D01*
X204935845Y-84987424D01*
X205015000Y-85040314D01*
X205015000Y-85087165D01*
X205049010Y-85258145D01*
X205115723Y-85419205D01*
X205160186Y-85485748D01*
X205059108Y-85553287D01*
X204935839Y-85676556D01*
X204838986Y-85821506D01*
X204772273Y-85982566D01*
X204738263Y-86153546D01*
X204738263Y-86327876D01*
X204772273Y-86498856D01*
X204838986Y-86659916D01*
X204935839Y-86804866D01*
X205059108Y-86928135D01*
X205204058Y-87024988D01*
X205365118Y-87091701D01*
X205536098Y-87125711D01*
X205710428Y-87125711D01*
X205881408Y-87091701D01*
X206042468Y-87024988D01*
X206187418Y-86928135D01*
X206310687Y-86804866D01*
X206407540Y-86659916D01*
X206474253Y-86498856D01*
X206508263Y-86327876D01*
X206508263Y-86153546D01*
X206474253Y-85982566D01*
X206407540Y-85821506D01*
X206363077Y-85754963D01*
X206464155Y-85687424D01*
X206587424Y-85564155D01*
X206684277Y-85419205D01*
X206750990Y-85258145D01*
X206785000Y-85087165D01*
X206785000Y-84912835D01*
X206750990Y-84741855D01*
X206684277Y-84580795D01*
X206587424Y-84435845D01*
X206464155Y-84312576D01*
X206385000Y-84259686D01*
X206385000Y-84212835D01*
X206350990Y-84041855D01*
X206307552Y-83936986D01*
X206382638Y-83998608D01*
X206605873Y-84117929D01*
X206848096Y-84191407D01*
X207036877Y-84210000D01*
X207663123Y-84210000D01*
X207851904Y-84191407D01*
X208094127Y-84117929D01*
X208317362Y-83998608D01*
X208513028Y-83838028D01*
X208673608Y-83642362D01*
X208792929Y-83419127D01*
X208866407Y-83176904D01*
X208891217Y-82925000D01*
X208866407Y-82673096D01*
X208792929Y-82430873D01*
X208673608Y-82207638D01*
X208513028Y-82011972D01*
X208317362Y-81851392D01*
X208094127Y-81732071D01*
X207851904Y-81658593D01*
X207663123Y-81640000D01*
X207036877Y-81640000D01*
X206848096Y-81658593D01*
X206605873Y-81732071D01*
X206382638Y-81851392D01*
X206186972Y-82011972D01*
X206026392Y-82207638D01*
X205907071Y-82430873D01*
X205833593Y-82673096D01*
X205808783Y-82925000D01*
X205833593Y-83176904D01*
X205907071Y-83419127D01*
X205980646Y-83556777D01*
X205919205Y-83515723D01*
X205758145Y-83449010D01*
X205665367Y-83430555D01*
X205685612Y-83225000D01*
X205663215Y-82997600D01*
X205596885Y-82778940D01*
X205489171Y-82577421D01*
X205344212Y-82400788D01*
X205167579Y-82255829D01*
X204966060Y-82148115D01*
X204747400Y-82081785D01*
X204576979Y-82065000D01*
X204063021Y-82065000D01*
X203892600Y-82081785D01*
X203673940Y-82148115D01*
X203472421Y-82255829D01*
X203295788Y-82400788D01*
X203150829Y-82577421D01*
X203043115Y-82778940D01*
X202976785Y-82997600D01*
X202954388Y-83225000D01*
X202976785Y-83452400D01*
X203043115Y-83671060D01*
X203066627Y-83715048D01*
X202964155Y-83612576D01*
X202819205Y-83515723D01*
X202658145Y-83449010D01*
X202487165Y-83415000D01*
X202336579Y-83415000D01*
X202387424Y-83364155D01*
X202484277Y-83219205D01*
X202550990Y-83058145D01*
X202585000Y-82887165D01*
X202585000Y-82712835D01*
X202550990Y-82541855D01*
X202484277Y-82380795D01*
X202387424Y-82235845D01*
X202264155Y-82112576D01*
X202119205Y-82015723D01*
X201958145Y-81949010D01*
X201952177Y-81947823D01*
X201950990Y-81941855D01*
X201884277Y-81780795D01*
X201787424Y-81635845D01*
X201664155Y-81512576D01*
X201519205Y-81415723D01*
X201358145Y-81349010D01*
X201187165Y-81315000D01*
X201012835Y-81315000D01*
X200841855Y-81349010D01*
X200680795Y-81415723D01*
X200535845Y-81512576D01*
X200412576Y-81635845D01*
X200315723Y-81780795D01*
X200249010Y-81941855D01*
X200215000Y-82112835D01*
X200215000Y-82287165D01*
X200249010Y-82458145D01*
X200272560Y-82515000D01*
X200212835Y-82515000D01*
X200041855Y-82549010D01*
X199880795Y-82615723D01*
X199735845Y-82712576D01*
X199612576Y-82835845D01*
X199515723Y-82980795D01*
X199449010Y-83141855D01*
X199431232Y-83231232D01*
X199341855Y-83249010D01*
X199180795Y-83315723D01*
X199035845Y-83412576D01*
X198912576Y-83535845D01*
X198815723Y-83680795D01*
X198749010Y-83841855D01*
X198734460Y-83915001D01*
X198190804Y-83915001D01*
X198039805Y-83764002D01*
X198016002Y-83734998D01*
X197900277Y-83640025D01*
X197768248Y-83569453D01*
X197624987Y-83525996D01*
X197513334Y-83514999D01*
X197513323Y-83514999D01*
X197476001Y-83511323D01*
X197438679Y-83514999D01*
X197322886Y-83514999D01*
X197364155Y-83487424D01*
X197487424Y-83364155D01*
X197584277Y-83219205D01*
X197650990Y-83058145D01*
X197685000Y-82887165D01*
X197685000Y-82712835D01*
X197650990Y-82541855D01*
X197584277Y-82380795D01*
X197487424Y-82235845D01*
X197364155Y-82112576D01*
X197219205Y-82015723D01*
X197058145Y-81949010D01*
X196887165Y-81915000D01*
X196712835Y-81915000D01*
X196541855Y-81949010D01*
X196380795Y-82015723D01*
X196235845Y-82112576D01*
X196112576Y-82235845D01*
X196015723Y-82380795D01*
X195949010Y-82541855D01*
X195915000Y-82712835D01*
X195915000Y-82887165D01*
X195949010Y-83058145D01*
X196015723Y-83219205D01*
X196112576Y-83364155D01*
X196235845Y-83487424D01*
X196277114Y-83514999D01*
X195685000Y-83514999D01*
X195685000Y-83412835D01*
X195650990Y-83241855D01*
X195584277Y-83080795D01*
X195487424Y-82935845D01*
X195364155Y-82812576D01*
X195219205Y-82715723D01*
X195058145Y-82649010D01*
X194887165Y-82615000D01*
X194712835Y-82615000D01*
X194541855Y-82649010D01*
X194380795Y-82715723D01*
X194235845Y-82812576D01*
X194112576Y-82935845D01*
X194015723Y-83080795D01*
X193949010Y-83241855D01*
X193915000Y-83412835D01*
X193915000Y-83514999D01*
X192940313Y-83514999D01*
X192887424Y-83435845D01*
X192764155Y-83312576D01*
X192619205Y-83215723D01*
X192458145Y-83149010D01*
X192287165Y-83115000D01*
X192112835Y-83115000D01*
X191941855Y-83149010D01*
X191780795Y-83215723D01*
X191635845Y-83312576D01*
X191512576Y-83435845D01*
X191415723Y-83580795D01*
X191349010Y-83741855D01*
X191315000Y-83912835D01*
X191315000Y-84087165D01*
X191340428Y-84215001D01*
X190165540Y-84215001D01*
X190150990Y-84141855D01*
X190084277Y-83980795D01*
X189987424Y-83835845D01*
X189864155Y-83712576D01*
X189719205Y-83615723D01*
X189558145Y-83549010D01*
X189387165Y-83515000D01*
X189212835Y-83515000D01*
X189041855Y-83549010D01*
X188880795Y-83615723D01*
X188735845Y-83712576D01*
X188612576Y-83835845D01*
X188515723Y-83980795D01*
X188449010Y-84141855D01*
X188434460Y-84215001D01*
X187511227Y-84215001D01*
X187619205Y-84170275D01*
X187764155Y-84073422D01*
X187887424Y-83950153D01*
X187984277Y-83805203D01*
X188050990Y-83644143D01*
X188085000Y-83473163D01*
X188085000Y-83298833D01*
X188082848Y-83288014D01*
X188231020Y-83317487D01*
X188405350Y-83317487D01*
X188576330Y-83283477D01*
X188737390Y-83216764D01*
X188882340Y-83119911D01*
X189005609Y-82996642D01*
X189102462Y-82851692D01*
X189105446Y-82844488D01*
X189241855Y-82900990D01*
X189412835Y-82935000D01*
X189587165Y-82935000D01*
X189758145Y-82900990D01*
X189919205Y-82834277D01*
X190064155Y-82737424D01*
X190187424Y-82614155D01*
X190284277Y-82469205D01*
X190350990Y-82308145D01*
X190385000Y-82137165D01*
X190385000Y-81962835D01*
X190350990Y-81791855D01*
X190284277Y-81630795D01*
X190187424Y-81485845D01*
X190064155Y-81362576D01*
X189919205Y-81265723D01*
X189758145Y-81199010D01*
X189587165Y-81165000D01*
X189412835Y-81165000D01*
X189241855Y-81199010D01*
X189080795Y-81265723D01*
X189033518Y-81297313D01*
X189000990Y-81133783D01*
X188934277Y-80972723D01*
X188837424Y-80827773D01*
X188817496Y-80807845D01*
X193919990Y-80807845D01*
X193919990Y-80982175D01*
X193954000Y-81153155D01*
X194020713Y-81314215D01*
X194117566Y-81459165D01*
X194240835Y-81582434D01*
X194385785Y-81679287D01*
X194546845Y-81746000D01*
X194717825Y-81780010D01*
X194892155Y-81780010D01*
X195063135Y-81746000D01*
X195224195Y-81679287D01*
X195369145Y-81582434D01*
X195492414Y-81459165D01*
X195589267Y-81314215D01*
X195655980Y-81153155D01*
X195689990Y-80982175D01*
X195689990Y-80807845D01*
X195671092Y-80712835D01*
X198965010Y-80712835D01*
X198965010Y-80887165D01*
X198999020Y-81058145D01*
X199065733Y-81219205D01*
X199162586Y-81364155D01*
X199285855Y-81487424D01*
X199430805Y-81584277D01*
X199591865Y-81650990D01*
X199762845Y-81685000D01*
X199937175Y-81685000D01*
X200108155Y-81650990D01*
X200269215Y-81584277D01*
X200414165Y-81487424D01*
X200537434Y-81364155D01*
X200634287Y-81219205D01*
X200701000Y-81058145D01*
X200735010Y-80887165D01*
X200735010Y-80712835D01*
X200701000Y-80541855D01*
X200634287Y-80380795D01*
X200537434Y-80235845D01*
X200480202Y-80178613D01*
X200525246Y-80148515D01*
X200648515Y-80025246D01*
X200745368Y-79880296D01*
X200773311Y-79812835D01*
X202715000Y-79812835D01*
X202715000Y-79987165D01*
X202749010Y-80158145D01*
X202815723Y-80319205D01*
X202912576Y-80464155D01*
X203035845Y-80587424D01*
X203115000Y-80640314D01*
X203115000Y-80787165D01*
X203149010Y-80958145D01*
X203215723Y-81119205D01*
X203312576Y-81264155D01*
X203435845Y-81387424D01*
X203580795Y-81484277D01*
X203741855Y-81550990D01*
X203912835Y-81585000D01*
X204087165Y-81585000D01*
X204258145Y-81550990D01*
X204419205Y-81484277D01*
X204564155Y-81387424D01*
X204687424Y-81264155D01*
X204784277Y-81119205D01*
X204850990Y-80958145D01*
X204885000Y-80787165D01*
X204885000Y-80612835D01*
X204850990Y-80441855D01*
X204784277Y-80280795D01*
X204687424Y-80135845D01*
X204564155Y-80012576D01*
X204485000Y-79959686D01*
X204485000Y-79812835D01*
X204450990Y-79641855D01*
X204384277Y-79480795D01*
X204287424Y-79335845D01*
X204164155Y-79212576D01*
X204019205Y-79115723D01*
X203858145Y-79049010D01*
X203687165Y-79015000D01*
X203512835Y-79015000D01*
X203341855Y-79049010D01*
X203180795Y-79115723D01*
X203035845Y-79212576D01*
X202912576Y-79335845D01*
X202815723Y-79480795D01*
X202749010Y-79641855D01*
X202715000Y-79812835D01*
X200773311Y-79812835D01*
X200812081Y-79719236D01*
X200846091Y-79548256D01*
X200846091Y-79373926D01*
X200812081Y-79202946D01*
X200803912Y-79183225D01*
X200812835Y-79185000D01*
X200987165Y-79185000D01*
X201158145Y-79150990D01*
X201319205Y-79084277D01*
X201434246Y-79007408D01*
X205403000Y-79007408D01*
X205403000Y-79282592D01*
X205456686Y-79552490D01*
X205561995Y-79806727D01*
X205714880Y-80035535D01*
X205909465Y-80230120D01*
X206138273Y-80383005D01*
X206392510Y-80488314D01*
X206662408Y-80542000D01*
X206937592Y-80542000D01*
X207207490Y-80488314D01*
X207461727Y-80383005D01*
X207690535Y-80230120D01*
X207885120Y-80035535D01*
X208038005Y-79806727D01*
X208143314Y-79552490D01*
X208197000Y-79282592D01*
X208197000Y-79007408D01*
X208143314Y-78737510D01*
X208038005Y-78483273D01*
X207885120Y-78254465D01*
X207690535Y-78059880D01*
X207461727Y-77906995D01*
X207390057Y-77877308D01*
X207403023Y-77872636D01*
X207518980Y-77810656D01*
X207585960Y-77570565D01*
X206800000Y-76784605D01*
X206014040Y-77570565D01*
X206081020Y-77810656D01*
X206216760Y-77874485D01*
X206138273Y-77906995D01*
X205909465Y-78059880D01*
X205714880Y-78254465D01*
X205561995Y-78483273D01*
X205456686Y-78737510D01*
X205403000Y-79007408D01*
X201434246Y-79007408D01*
X201464155Y-78987424D01*
X201587424Y-78864155D01*
X201684277Y-78719205D01*
X201750990Y-78558145D01*
X201785000Y-78387165D01*
X201785000Y-78212835D01*
X201750990Y-78041855D01*
X201684277Y-77880795D01*
X201587424Y-77735845D01*
X201464155Y-77612576D01*
X201319205Y-77515723D01*
X201158145Y-77449010D01*
X200987165Y-77415000D01*
X200812835Y-77415000D01*
X200641855Y-77449010D01*
X200480795Y-77515723D01*
X200335845Y-77612576D01*
X200212576Y-77735845D01*
X200115723Y-77880795D01*
X200049010Y-78041855D01*
X200015000Y-78212835D01*
X200015000Y-78387165D01*
X200049010Y-78558145D01*
X200057179Y-78577866D01*
X200048256Y-78576091D01*
X199873926Y-78576091D01*
X199702946Y-78610101D01*
X199541886Y-78676814D01*
X199396936Y-78773667D01*
X199273667Y-78896936D01*
X199176814Y-79041886D01*
X199110101Y-79202946D01*
X199076091Y-79373926D01*
X199076091Y-79548256D01*
X199110101Y-79719236D01*
X199176814Y-79880296D01*
X199273667Y-80025246D01*
X199330899Y-80082478D01*
X199285855Y-80112576D01*
X199162586Y-80235845D01*
X199065733Y-80380795D01*
X198999020Y-80541855D01*
X198965010Y-80712835D01*
X195671092Y-80712835D01*
X195655980Y-80636865D01*
X195589267Y-80475805D01*
X195492414Y-80330855D01*
X195369145Y-80207586D01*
X195224195Y-80110733D01*
X195063135Y-80044020D01*
X194892155Y-80010010D01*
X194717825Y-80010010D01*
X194546845Y-80044020D01*
X194385785Y-80110733D01*
X194240835Y-80207586D01*
X194117566Y-80330855D01*
X194020713Y-80475805D01*
X193954000Y-80636865D01*
X193919990Y-80807845D01*
X188817496Y-80807845D01*
X188714155Y-80704504D01*
X188569205Y-80607651D01*
X188408145Y-80540938D01*
X188237165Y-80506928D01*
X188062835Y-80506928D01*
X187891855Y-80540938D01*
X187730795Y-80607651D01*
X187585845Y-80704504D01*
X187462576Y-80827773D01*
X187365723Y-80972723D01*
X187299010Y-81133783D01*
X187265000Y-81304763D01*
X187265000Y-81479093D01*
X187299010Y-81650073D01*
X187365723Y-81811133D01*
X187462576Y-81956083D01*
X187529769Y-82023276D01*
X187501110Y-82092463D01*
X187500990Y-82091857D01*
X187434277Y-81930797D01*
X187337424Y-81785847D01*
X187214155Y-81662578D01*
X187069205Y-81565725D01*
X186908145Y-81499012D01*
X186737165Y-81465002D01*
X186562835Y-81465002D01*
X186391855Y-81499012D01*
X186286323Y-81542725D01*
X186250272Y-81518636D01*
X186089212Y-81451923D01*
X185918232Y-81417913D01*
X185743902Y-81417913D01*
X185572922Y-81451923D01*
X185411862Y-81518636D01*
X185266912Y-81615489D01*
X185143643Y-81738758D01*
X185046790Y-81883708D01*
X184980077Y-82044768D01*
X184946067Y-82215748D01*
X184946067Y-82390078D01*
X184980077Y-82561058D01*
X185046790Y-82722118D01*
X185143643Y-82867068D01*
X185266912Y-82990337D01*
X185411862Y-83087190D01*
X185572922Y-83153903D01*
X185743902Y-83187913D01*
X185918232Y-83187913D01*
X186089212Y-83153903D01*
X186194744Y-83110190D01*
X186230795Y-83134279D01*
X186338831Y-83179029D01*
X186315000Y-83298833D01*
X186315000Y-83473163D01*
X186349010Y-83644143D01*
X186415723Y-83805203D01*
X186512576Y-83950153D01*
X186635845Y-84073422D01*
X186780795Y-84170275D01*
X186888773Y-84215001D01*
X184389256Y-84215001D01*
X184389940Y-84213978D01*
X184456653Y-84052918D01*
X184490663Y-83881938D01*
X184490663Y-83707608D01*
X184456653Y-83536628D01*
X184389940Y-83375568D01*
X184354320Y-83322259D01*
X184398105Y-83216552D01*
X184432115Y-83045572D01*
X184432115Y-82871242D01*
X184398105Y-82700262D01*
X184331392Y-82539202D01*
X184234539Y-82394252D01*
X184111270Y-82270983D01*
X183966320Y-82174130D01*
X183805260Y-82107417D01*
X183634280Y-82073407D01*
X183459950Y-82073407D01*
X183288970Y-82107417D01*
X183127910Y-82174130D01*
X182982960Y-82270983D01*
X182859691Y-82394252D01*
X182762838Y-82539202D01*
X182696125Y-82700262D01*
X182662115Y-82871242D01*
X182662115Y-83045572D01*
X182696125Y-83216552D01*
X182762838Y-83377612D01*
X182798458Y-83430921D01*
X182755480Y-83534679D01*
X182394804Y-83174003D01*
X182371001Y-83144999D01*
X182255276Y-83050026D01*
X182123247Y-82979454D01*
X181979986Y-82935997D01*
X181868333Y-82925000D01*
X181868322Y-82925000D01*
X181831000Y-82921324D01*
X181793678Y-82925000D01*
X181035000Y-82925000D01*
X181035000Y-82812835D01*
X181000990Y-82641855D01*
X180934277Y-82480795D01*
X180837424Y-82335845D01*
X180714155Y-82212576D01*
X180569205Y-82115723D01*
X180408145Y-82049010D01*
X180237165Y-82015000D01*
X180062835Y-82015000D01*
X179891855Y-82049010D01*
X179730795Y-82115723D01*
X179585845Y-82212576D01*
X179462576Y-82335845D01*
X179365723Y-82480795D01*
X179299010Y-82641855D01*
X179265000Y-82812835D01*
X179265000Y-82925000D01*
X178613587Y-82925000D01*
X178684277Y-82819205D01*
X178750990Y-82658145D01*
X178785000Y-82487165D01*
X178785000Y-82312835D01*
X178750990Y-82141855D01*
X178684277Y-81980795D01*
X178587424Y-81835845D01*
X178464155Y-81712576D01*
X178319205Y-81615723D01*
X178158145Y-81549010D01*
X177987165Y-81515000D01*
X177812835Y-81515000D01*
X177641855Y-81549010D01*
X177480795Y-81615723D01*
X177335845Y-81712576D01*
X177212576Y-81835845D01*
X177115723Y-81980795D01*
X177049010Y-82141855D01*
X177015000Y-82312835D01*
X177015000Y-82487165D01*
X177049010Y-82658145D01*
X177115723Y-82819205D01*
X177186413Y-82925000D01*
X175523298Y-82925000D01*
X175550990Y-82858145D01*
X175585000Y-82687165D01*
X175585000Y-82512835D01*
X175550990Y-82341855D01*
X175484277Y-82180795D01*
X175387424Y-82035845D01*
X175264155Y-81912576D01*
X175119205Y-81815723D01*
X175060268Y-81791311D01*
X175087424Y-81764155D01*
X175184277Y-81619205D01*
X175250990Y-81458145D01*
X175285000Y-81287165D01*
X175285000Y-81112835D01*
X175250990Y-80941855D01*
X175184277Y-80780795D01*
X175087424Y-80635845D01*
X175067967Y-80616388D01*
X175100683Y-80537404D01*
X175134693Y-80366424D01*
X175134693Y-80192094D01*
X175100683Y-80021114D01*
X175033970Y-79860054D01*
X174937117Y-79715104D01*
X174813848Y-79591835D01*
X174776400Y-79566813D01*
X174791401Y-79544362D01*
X174858114Y-79383302D01*
X174892124Y-79212322D01*
X174892124Y-79037992D01*
X174858114Y-78867012D01*
X174835674Y-78812835D01*
X176915000Y-78812835D01*
X176915000Y-78987165D01*
X176949010Y-79158145D01*
X177015723Y-79319205D01*
X177112576Y-79464155D01*
X177235845Y-79587424D01*
X177380795Y-79684277D01*
X177541855Y-79750990D01*
X177712835Y-79785000D01*
X177887165Y-79785000D01*
X178058145Y-79750990D01*
X178219205Y-79684277D01*
X178364155Y-79587424D01*
X178487424Y-79464155D01*
X178521715Y-79412835D01*
X179382104Y-79412835D01*
X179382104Y-79587165D01*
X179416114Y-79758145D01*
X179482827Y-79919205D01*
X179579680Y-80064155D01*
X179702949Y-80187424D01*
X179727490Y-80203822D01*
X179727490Y-80287165D01*
X179761500Y-80458145D01*
X179828213Y-80619205D01*
X179925066Y-80764155D01*
X180048335Y-80887424D01*
X180193285Y-80984277D01*
X180354345Y-81050990D01*
X180525325Y-81085000D01*
X180699655Y-81085000D01*
X180870635Y-81050990D01*
X181031695Y-80984277D01*
X181176645Y-80887424D01*
X181299914Y-80764155D01*
X181396767Y-80619205D01*
X181463480Y-80458145D01*
X181497490Y-80287165D01*
X181497490Y-80112835D01*
X181463480Y-79941855D01*
X181396767Y-79780795D01*
X181299914Y-79635845D01*
X181176645Y-79512576D01*
X181152104Y-79496178D01*
X181152104Y-79412835D01*
X181118094Y-79241855D01*
X181051381Y-79080795D01*
X180954528Y-78935845D01*
X180831259Y-78812576D01*
X180759114Y-78764370D01*
X181783011Y-78764370D01*
X181783011Y-78938700D01*
X181817021Y-79109680D01*
X181883734Y-79270740D01*
X181980587Y-79415690D01*
X182103856Y-79538959D01*
X182248806Y-79635812D01*
X182409866Y-79702525D01*
X182411000Y-79702751D01*
X182418938Y-79721915D01*
X182515791Y-79866865D01*
X182639060Y-79990134D01*
X182784010Y-80086987D01*
X182945070Y-80153700D01*
X183116050Y-80187710D01*
X183290380Y-80187710D01*
X183461360Y-80153700D01*
X183622420Y-80086987D01*
X183767370Y-79990134D01*
X183890639Y-79866865D01*
X183924464Y-79816243D01*
X184050669Y-79791139D01*
X184076520Y-79808412D01*
X184237580Y-79875125D01*
X184408560Y-79909135D01*
X184582890Y-79909135D01*
X184753870Y-79875125D01*
X184914930Y-79808412D01*
X184939376Y-79792078D01*
X185050269Y-79814136D01*
X185093908Y-79879445D01*
X185217177Y-80002714D01*
X185362127Y-80099567D01*
X185523187Y-80166280D01*
X185694167Y-80200290D01*
X185868497Y-80200290D01*
X186039477Y-80166280D01*
X186200537Y-80099567D01*
X186345487Y-80002714D01*
X186465476Y-79882725D01*
X186476915Y-79885000D01*
X186530890Y-79885000D01*
X186536360Y-79893187D01*
X186659629Y-80016456D01*
X186804579Y-80113309D01*
X186965639Y-80180022D01*
X187136619Y-80214032D01*
X187310949Y-80214032D01*
X187481929Y-80180022D01*
X187642989Y-80113309D01*
X187787939Y-80016456D01*
X187911208Y-79893187D01*
X188008061Y-79748237D01*
X188074774Y-79587177D01*
X188108784Y-79416197D01*
X188108784Y-79241867D01*
X188074774Y-79070887D01*
X188008061Y-78909827D01*
X187963812Y-78843604D01*
X188075752Y-78768808D01*
X188199021Y-78645539D01*
X188295874Y-78500589D01*
X188362587Y-78339529D01*
X188367896Y-78312835D01*
X191315000Y-78312835D01*
X191315000Y-78487165D01*
X191349010Y-78658145D01*
X191415723Y-78819205D01*
X191512576Y-78964155D01*
X191635845Y-79087424D01*
X191780795Y-79184277D01*
X191941855Y-79250990D01*
X192112835Y-79285000D01*
X192287165Y-79285000D01*
X192458145Y-79250990D01*
X192619205Y-79184277D01*
X192764155Y-79087424D01*
X192887424Y-78964155D01*
X192984277Y-78819205D01*
X193050990Y-78658145D01*
X193085000Y-78487165D01*
X193085000Y-78440314D01*
X193164155Y-78387424D01*
X193238744Y-78312835D01*
X195915000Y-78312835D01*
X195915000Y-78487165D01*
X195949010Y-78658145D01*
X196015723Y-78819205D01*
X196112576Y-78964155D01*
X196235845Y-79087424D01*
X196380795Y-79184277D01*
X196541855Y-79250990D01*
X196712835Y-79285000D01*
X196887165Y-79285000D01*
X197058145Y-79250990D01*
X197219205Y-79184277D01*
X197364155Y-79087424D01*
X197487424Y-78964155D01*
X197584277Y-78819205D01*
X197650990Y-78658145D01*
X197685000Y-78487165D01*
X197685000Y-78312835D01*
X197650990Y-78141855D01*
X197584277Y-77980795D01*
X197487424Y-77835845D01*
X197364155Y-77712576D01*
X197219205Y-77615723D01*
X197058145Y-77549010D01*
X196887165Y-77515000D01*
X196712835Y-77515000D01*
X196541855Y-77549010D01*
X196380795Y-77615723D01*
X196235845Y-77712576D01*
X196112576Y-77835845D01*
X196015723Y-77980795D01*
X195949010Y-78141855D01*
X195915000Y-78312835D01*
X193238744Y-78312835D01*
X193287424Y-78264155D01*
X193384277Y-78119205D01*
X193450990Y-77958145D01*
X193485000Y-77787165D01*
X193485000Y-77636579D01*
X193535845Y-77687424D01*
X193680795Y-77784277D01*
X193841855Y-77850990D01*
X194012835Y-77885000D01*
X194187165Y-77885000D01*
X194358145Y-77850990D01*
X194519205Y-77784277D01*
X194664155Y-77687424D01*
X194787424Y-77564155D01*
X194884277Y-77419205D01*
X194950990Y-77258145D01*
X194985000Y-77087165D01*
X194985000Y-76912835D01*
X194950990Y-76741855D01*
X194924134Y-76677017D01*
X205398090Y-76677017D01*
X205439078Y-76949133D01*
X205532364Y-77208023D01*
X205594344Y-77323980D01*
X205834435Y-77390960D01*
X206620395Y-76605000D01*
X206979605Y-76605000D01*
X207765565Y-77390960D01*
X208005656Y-77323980D01*
X208122756Y-77074952D01*
X208189023Y-76807865D01*
X208201910Y-76532983D01*
X208160922Y-76260867D01*
X208067636Y-76001977D01*
X208005656Y-75886020D01*
X207765565Y-75819040D01*
X206979605Y-76605000D01*
X206620395Y-76605000D01*
X205834435Y-75819040D01*
X205594344Y-75886020D01*
X205477244Y-76135048D01*
X205410977Y-76402135D01*
X205398090Y-76677017D01*
X194924134Y-76677017D01*
X194884277Y-76580795D01*
X194787424Y-76435845D01*
X194664155Y-76312576D01*
X194519205Y-76215723D01*
X194358145Y-76149010D01*
X194187165Y-76115000D01*
X194012835Y-76115000D01*
X193841855Y-76149010D01*
X193680795Y-76215723D01*
X193535845Y-76312576D01*
X193412576Y-76435845D01*
X193315723Y-76580795D01*
X193249010Y-76741855D01*
X193215000Y-76912835D01*
X193215000Y-77063421D01*
X193164155Y-77012576D01*
X193019205Y-76915723D01*
X192858145Y-76849010D01*
X192687165Y-76815000D01*
X192512835Y-76815000D01*
X192341855Y-76849010D01*
X192180795Y-76915723D01*
X192035845Y-77012576D01*
X191912576Y-77135845D01*
X191815723Y-77280795D01*
X191749010Y-77441855D01*
X191715000Y-77612835D01*
X191715000Y-77659686D01*
X191635845Y-77712576D01*
X191512576Y-77835845D01*
X191415723Y-77980795D01*
X191349010Y-78141855D01*
X191315000Y-78312835D01*
X188367896Y-78312835D01*
X188396597Y-78168549D01*
X188396597Y-77994219D01*
X188362587Y-77823239D01*
X188295874Y-77662179D01*
X188199021Y-77517229D01*
X188168110Y-77486318D01*
X188177753Y-77437842D01*
X188177753Y-77263512D01*
X188143743Y-77092532D01*
X188077030Y-76931472D01*
X187980177Y-76786522D01*
X187856908Y-76663253D01*
X187711958Y-76566400D01*
X187550898Y-76499687D01*
X187379918Y-76465677D01*
X187205588Y-76465677D01*
X187175587Y-76471645D01*
X187099990Y-76396048D01*
X186955040Y-76299195D01*
X186793980Y-76232482D01*
X186623000Y-76198472D01*
X186448670Y-76198472D01*
X186277690Y-76232482D01*
X186116630Y-76299195D01*
X185971680Y-76396048D01*
X185848411Y-76519317D01*
X185751558Y-76664267D01*
X185684845Y-76825327D01*
X185650835Y-76996307D01*
X185650835Y-77170637D01*
X185684845Y-77341617D01*
X185751558Y-77502677D01*
X185848411Y-77647627D01*
X185971680Y-77770896D01*
X186116630Y-77867749D01*
X186277690Y-77934462D01*
X186448670Y-77968472D01*
X186623000Y-77968472D01*
X186632078Y-77966666D01*
X186626597Y-77994219D01*
X186626597Y-78115000D01*
X186476915Y-78115000D01*
X186305935Y-78149010D01*
X186144875Y-78215723D01*
X185999925Y-78312576D01*
X185901633Y-78410868D01*
X185878040Y-78375559D01*
X185754771Y-78252290D01*
X185609821Y-78155437D01*
X185448761Y-78088724D01*
X185277781Y-78054714D01*
X185103451Y-78054714D01*
X184932471Y-78088724D01*
X184771411Y-78155437D01*
X184746965Y-78171771D01*
X184582890Y-78139135D01*
X184408560Y-78139135D01*
X184246041Y-78171462D01*
X184220190Y-78154189D01*
X184059130Y-78087476D01*
X183888150Y-78053466D01*
X183713820Y-78053466D01*
X183542840Y-78087476D01*
X183381780Y-78154189D01*
X183286145Y-78218090D01*
X183232166Y-78164111D01*
X183087216Y-78067258D01*
X182926156Y-78000545D01*
X182755176Y-77966535D01*
X182580846Y-77966535D01*
X182409866Y-78000545D01*
X182248806Y-78067258D01*
X182103856Y-78164111D01*
X181980587Y-78287380D01*
X181883734Y-78432330D01*
X181817021Y-78593390D01*
X181783011Y-78764370D01*
X180759114Y-78764370D01*
X180686309Y-78715723D01*
X180525249Y-78649010D01*
X180354269Y-78615000D01*
X180179939Y-78615000D01*
X180008959Y-78649010D01*
X179847899Y-78715723D01*
X179702949Y-78812576D01*
X179579680Y-78935845D01*
X179482827Y-79080795D01*
X179416114Y-79241855D01*
X179382104Y-79412835D01*
X178521715Y-79412835D01*
X178584277Y-79319205D01*
X178650990Y-79158145D01*
X178685000Y-78987165D01*
X178685000Y-78812835D01*
X178650990Y-78641855D01*
X178584277Y-78480795D01*
X178487424Y-78335845D01*
X178364155Y-78212576D01*
X178219205Y-78115723D01*
X178058145Y-78049010D01*
X177887165Y-78015000D01*
X177712835Y-78015000D01*
X177541855Y-78049010D01*
X177380795Y-78115723D01*
X177235845Y-78212576D01*
X177112576Y-78335845D01*
X177015723Y-78480795D01*
X176949010Y-78641855D01*
X176915000Y-78812835D01*
X174835674Y-78812835D01*
X174791401Y-78705952D01*
X174694548Y-78561002D01*
X174571279Y-78437733D01*
X174530219Y-78410297D01*
X174535000Y-78386260D01*
X174535000Y-78093740D01*
X174477932Y-77806842D01*
X174365990Y-77536589D01*
X174203475Y-77293368D01*
X174200778Y-77290671D01*
X174610824Y-76880625D01*
X179532273Y-76880625D01*
X179568378Y-76884181D01*
X179604483Y-76880625D01*
X179712463Y-76869990D01*
X179851011Y-76827962D01*
X179978698Y-76759712D01*
X180090616Y-76667863D01*
X180113637Y-76639812D01*
X181440614Y-75312835D01*
X191415000Y-75312835D01*
X191415000Y-75487165D01*
X191449010Y-75658145D01*
X191515723Y-75819205D01*
X191612576Y-75964155D01*
X191735845Y-76087424D01*
X191880795Y-76184277D01*
X192041855Y-76250990D01*
X192212835Y-76285000D01*
X192387165Y-76285000D01*
X192558145Y-76250990D01*
X192719205Y-76184277D01*
X192864155Y-76087424D01*
X192987424Y-75964155D01*
X193084277Y-75819205D01*
X193150990Y-75658145D01*
X193185000Y-75487165D01*
X193185000Y-75312835D01*
X193150990Y-75141855D01*
X193084277Y-74980795D01*
X192987424Y-74835845D01*
X192964414Y-74812835D01*
X193215000Y-74812835D01*
X193215000Y-74987165D01*
X193249010Y-75158145D01*
X193315723Y-75319205D01*
X193412576Y-75464155D01*
X193535845Y-75587424D01*
X193680795Y-75684277D01*
X193841855Y-75750990D01*
X194012835Y-75785000D01*
X194187165Y-75785000D01*
X194358145Y-75750990D01*
X194519205Y-75684277D01*
X194664155Y-75587424D01*
X194787424Y-75464155D01*
X194884277Y-75319205D01*
X194950990Y-75158145D01*
X194985000Y-74987165D01*
X194985000Y-74812835D01*
X194950990Y-74641855D01*
X194884277Y-74480795D01*
X194787424Y-74335845D01*
X194664155Y-74212576D01*
X194519205Y-74115723D01*
X194358145Y-74049010D01*
X194187165Y-74015000D01*
X194012835Y-74015000D01*
X193841855Y-74049010D01*
X193680795Y-74115723D01*
X193535845Y-74212576D01*
X193412576Y-74335845D01*
X193315723Y-74480795D01*
X193249010Y-74641855D01*
X193215000Y-74812835D01*
X192964414Y-74812835D01*
X192864155Y-74712576D01*
X192719205Y-74615723D01*
X192558145Y-74549010D01*
X192387165Y-74515000D01*
X192212835Y-74515000D01*
X192041855Y-74549010D01*
X191880795Y-74615723D01*
X191735845Y-74712576D01*
X191612576Y-74835845D01*
X191515723Y-74980795D01*
X191449010Y-75141855D01*
X191415000Y-75312835D01*
X181440614Y-75312835D01*
X183318462Y-73434988D01*
X186351963Y-73434988D01*
X186235845Y-73512576D01*
X186112576Y-73635845D01*
X186015723Y-73780795D01*
X185949010Y-73941855D01*
X185915000Y-74112835D01*
X185915000Y-74287165D01*
X185949010Y-74458145D01*
X186015723Y-74619205D01*
X186112576Y-74764155D01*
X186235845Y-74887424D01*
X186380795Y-74984277D01*
X186541855Y-75050990D01*
X186712835Y-75085000D01*
X186887165Y-75085000D01*
X187058145Y-75050990D01*
X187219205Y-74984277D01*
X187364155Y-74887424D01*
X187487424Y-74764155D01*
X187584277Y-74619205D01*
X187650990Y-74458145D01*
X187685000Y-74287165D01*
X187685000Y-74112835D01*
X187650990Y-73941855D01*
X187584277Y-73780795D01*
X187487424Y-73635845D01*
X187364155Y-73512576D01*
X187248037Y-73434988D01*
X188086221Y-73434988D01*
X188159969Y-73484265D01*
X188321029Y-73550978D01*
X188492009Y-73584988D01*
X188666339Y-73584988D01*
X188837319Y-73550978D01*
X188929143Y-73512943D01*
X189021030Y-73551004D01*
X189192010Y-73585014D01*
X189366340Y-73585014D01*
X189537320Y-73551004D01*
X189698380Y-73484291D01*
X189843330Y-73387438D01*
X189966599Y-73264169D01*
X190063452Y-73119219D01*
X190089593Y-73056110D01*
X190115723Y-73119194D01*
X190212576Y-73264144D01*
X190335845Y-73387413D01*
X190480795Y-73484266D01*
X190641855Y-73550979D01*
X190812835Y-73584989D01*
X190987165Y-73584989D01*
X191158145Y-73550979D01*
X191319205Y-73484266D01*
X191464155Y-73387413D01*
X191587424Y-73264144D01*
X191684277Y-73119194D01*
X191750990Y-72958134D01*
X191785000Y-72787154D01*
X191785000Y-72612824D01*
X191750990Y-72441844D01*
X191684277Y-72280784D01*
X191587424Y-72135834D01*
X191464155Y-72012565D01*
X191319205Y-71915712D01*
X191158145Y-71848999D01*
X190987165Y-71814989D01*
X190812835Y-71814989D01*
X190641855Y-71848999D01*
X190480795Y-71915712D01*
X190335845Y-72012565D01*
X190212576Y-72135834D01*
X190115723Y-72280784D01*
X190089582Y-72343893D01*
X190063452Y-72280809D01*
X189966599Y-72135859D01*
X189843330Y-72012590D01*
X189698380Y-71915737D01*
X189537320Y-71849024D01*
X189366340Y-71815014D01*
X189192010Y-71815014D01*
X189021030Y-71849024D01*
X188929206Y-71887059D01*
X188837319Y-71848998D01*
X188666339Y-71814988D01*
X188492009Y-71814988D01*
X188321029Y-71848998D01*
X188159969Y-71915711D01*
X188086221Y-71964988D01*
X186169520Y-71964988D01*
X186185000Y-71887165D01*
X186185000Y-71712835D01*
X186150990Y-71541855D01*
X186084277Y-71380795D01*
X185987424Y-71235845D01*
X185864155Y-71112576D01*
X185719205Y-71015723D01*
X185558145Y-70949010D01*
X185387165Y-70915000D01*
X185212835Y-70915000D01*
X185041855Y-70949010D01*
X184880795Y-71015723D01*
X184735845Y-71112576D01*
X184612576Y-71235845D01*
X184515723Y-71380795D01*
X184449010Y-71541855D01*
X184415000Y-71712835D01*
X184415000Y-71887165D01*
X184430480Y-71964988D01*
X183050120Y-71964988D01*
X183014015Y-71961432D01*
X182869930Y-71975623D01*
X182731381Y-72017651D01*
X182655623Y-72058145D01*
X182603695Y-72085901D01*
X182491777Y-72177750D01*
X182468761Y-72205795D01*
X182216343Y-72458213D01*
X182184277Y-72380798D01*
X182087424Y-72235848D01*
X181964155Y-72112579D01*
X181819205Y-72015726D01*
X181658145Y-71949013D01*
X181487165Y-71915003D01*
X181312835Y-71915003D01*
X181141855Y-71949013D01*
X180980795Y-72015726D01*
X180835845Y-72112579D01*
X180712576Y-72235848D01*
X180615723Y-72380798D01*
X180549010Y-72541858D01*
X180515000Y-72712838D01*
X180515000Y-72887168D01*
X180549010Y-73058148D01*
X180561096Y-73087326D01*
X180512577Y-73135845D01*
X180415724Y-73280795D01*
X180390818Y-73340924D01*
X180387424Y-73335845D01*
X180264155Y-73212576D01*
X180119205Y-73115723D01*
X179958145Y-73049010D01*
X179787165Y-73015000D01*
X179612835Y-73015000D01*
X179441855Y-73049010D01*
X179280795Y-73115723D01*
X179135845Y-73212576D01*
X179012576Y-73335845D01*
X178915723Y-73480795D01*
X178849010Y-73641855D01*
X178815000Y-73812835D01*
X178815000Y-73987165D01*
X178849010Y-74158145D01*
X178915723Y-74319205D01*
X179012576Y-74464155D01*
X179135845Y-74587424D01*
X179280795Y-74684277D01*
X179441855Y-74750990D01*
X179612835Y-74785000D01*
X179787165Y-74785000D01*
X179914981Y-74759576D01*
X179263932Y-75410625D01*
X174506532Y-75410625D01*
X174477932Y-75266842D01*
X174365990Y-74996589D01*
X174203475Y-74753368D01*
X173996632Y-74546525D01*
X173822240Y-74430000D01*
X173996632Y-74313475D01*
X174203475Y-74106632D01*
X174365990Y-73863411D01*
X174477932Y-73593158D01*
X174535000Y-73306260D01*
X174535000Y-73013740D01*
X174484528Y-72760001D01*
X177245402Y-72760001D01*
X177215001Y-72912835D01*
X177215001Y-73087165D01*
X177249011Y-73258145D01*
X177315724Y-73419205D01*
X177365066Y-73493051D01*
X177335845Y-73512576D01*
X177212576Y-73635845D01*
X177115723Y-73780795D01*
X177049010Y-73941855D01*
X177015000Y-74112835D01*
X177015000Y-74287165D01*
X177049010Y-74458145D01*
X177115723Y-74619205D01*
X177212576Y-74764155D01*
X177335845Y-74887424D01*
X177480795Y-74984277D01*
X177641855Y-75050990D01*
X177812835Y-75085000D01*
X177987165Y-75085000D01*
X178158145Y-75050990D01*
X178319205Y-74984277D01*
X178464155Y-74887424D01*
X178587424Y-74764155D01*
X178684277Y-74619205D01*
X178750990Y-74458145D01*
X178785000Y-74287165D01*
X178785000Y-74112835D01*
X178750990Y-73941855D01*
X178684277Y-73780795D01*
X178634935Y-73706949D01*
X178664156Y-73687424D01*
X178787425Y-73564155D01*
X178884278Y-73419205D01*
X178950991Y-73258145D01*
X178985001Y-73087165D01*
X178985001Y-72912835D01*
X178950991Y-72741855D01*
X178938775Y-72712362D01*
X178947196Y-72699759D01*
X179013909Y-72538699D01*
X179047919Y-72367719D01*
X179047919Y-72193389D01*
X179013909Y-72022409D01*
X178947196Y-71861349D01*
X178850343Y-71716399D01*
X178727074Y-71593130D01*
X178582124Y-71496277D01*
X178421064Y-71429564D01*
X178311985Y-71407867D01*
X178189999Y-71342664D01*
X178051451Y-71300636D01*
X177943471Y-71290001D01*
X177907366Y-71286445D01*
X177871261Y-71290001D01*
X177593357Y-71290001D01*
X177612710Y-71253793D01*
X177650450Y-71129383D01*
X177663193Y-71000000D01*
X177660000Y-70967581D01*
X177660000Y-70474490D01*
X177712835Y-70485000D01*
X177887165Y-70485000D01*
X178058145Y-70450990D01*
X178219205Y-70384277D01*
X178364155Y-70287424D01*
X178487424Y-70164155D01*
X178584277Y-70019205D01*
X178650990Y-69858145D01*
X178685000Y-69687165D01*
X178685000Y-69660000D01*
X179629618Y-69660000D01*
X179615723Y-69680795D01*
G36*
X163751488Y-69716333D02*
G01*
X163606538Y-69813186D01*
X163483269Y-69936455D01*
X163386416Y-70081405D01*
X163319703Y-70242465D01*
X163285693Y-70413445D01*
X163285693Y-70587775D01*
X163319703Y-70758755D01*
X163386416Y-70919815D01*
X163483269Y-71064765D01*
X163606538Y-71188034D01*
X163751488Y-71284887D01*
X163912548Y-71351600D01*
X164083528Y-71385610D01*
X164257858Y-71385610D01*
X164428838Y-71351600D01*
X164589898Y-71284887D01*
X164664559Y-71235000D01*
X165595556Y-71235000D01*
X166054747Y-71694192D01*
X166077763Y-71722237D01*
X166189681Y-71814086D01*
X166317368Y-71882336D01*
X166413887Y-71911615D01*
X166455915Y-71924364D01*
X166600000Y-71938555D01*
X166636105Y-71934999D01*
X168431555Y-71934999D01*
X168840749Y-72344194D01*
X168863765Y-72372239D01*
X168948579Y-72441844D01*
X168975683Y-72464088D01*
X169103369Y-72532338D01*
X169156019Y-72548309D01*
X169082068Y-72726842D01*
X169025000Y-73013740D01*
X169025000Y-73306260D01*
X169082068Y-73593158D01*
X169194010Y-73863411D01*
X169356525Y-74106632D01*
X169563368Y-74313475D01*
X169737760Y-74430000D01*
X169563368Y-74546525D01*
X169356525Y-74753368D01*
X169194010Y-74996589D01*
X169082068Y-75266842D01*
X169025000Y-75553740D01*
X169025000Y-75846260D01*
X169082068Y-76133158D01*
X169173957Y-76354999D01*
X168977372Y-76354999D01*
X168917205Y-76209744D01*
X168803937Y-76040226D01*
X168659774Y-75896063D01*
X168490256Y-75782795D01*
X168301898Y-75704774D01*
X168101939Y-75665000D01*
X167898061Y-75665000D01*
X167698102Y-75704774D01*
X167509744Y-75782795D01*
X167340226Y-75896063D01*
X167196063Y-76040226D01*
X167082795Y-76209744D01*
X167004774Y-76398102D01*
X166965000Y-76598061D01*
X166965000Y-76801939D01*
X167004774Y-77001898D01*
X167082795Y-77190256D01*
X167196063Y-77359774D01*
X167266422Y-77430133D01*
X166731556Y-77965000D01*
X165536096Y-77965000D01*
X165499999Y-77961445D01*
X165463902Y-77965000D01*
X165463895Y-77965000D01*
X165370132Y-77974235D01*
X165355914Y-77975635D01*
X165313886Y-77988384D01*
X165217367Y-78017663D01*
X165089680Y-78085913D01*
X164977762Y-78177762D01*
X164954746Y-78205807D01*
X163328848Y-79831706D01*
X163241855Y-79849010D01*
X163080795Y-79915723D01*
X162935845Y-80012576D01*
X162812576Y-80135845D01*
X162715723Y-80280795D01*
X162649010Y-80441855D01*
X162615000Y-80612835D01*
X162615000Y-80787165D01*
X162649010Y-80958145D01*
X162715723Y-81119205D01*
X162812576Y-81264155D01*
X162935845Y-81387424D01*
X163080795Y-81484277D01*
X163241855Y-81550990D01*
X163412835Y-81585000D01*
X163587165Y-81585000D01*
X163758145Y-81550990D01*
X163919205Y-81484277D01*
X164064155Y-81387424D01*
X164187424Y-81264155D01*
X164284277Y-81119205D01*
X164350990Y-80958145D01*
X164368294Y-80871152D01*
X165804447Y-79435000D01*
X166999897Y-79435000D01*
X167036002Y-79438556D01*
X167072107Y-79435000D01*
X167180087Y-79424365D01*
X167318635Y-79382337D01*
X167446322Y-79314087D01*
X167558240Y-79222238D01*
X167581260Y-79194188D01*
X168950450Y-77824999D01*
X169078456Y-77824999D01*
X169025000Y-78093740D01*
X169025000Y-78386260D01*
X169082068Y-78673158D01*
X169194010Y-78943411D01*
X169356525Y-79186632D01*
X169563368Y-79393475D01*
X169737760Y-79510000D01*
X169563368Y-79626525D01*
X169356525Y-79833368D01*
X169194010Y-80076589D01*
X169082068Y-80346842D01*
X169025000Y-80633740D01*
X169025000Y-80926260D01*
X169044937Y-81026492D01*
X168987165Y-81015000D01*
X168812835Y-81015000D01*
X168641855Y-81049010D01*
X168480795Y-81115723D01*
X168335845Y-81212576D01*
X168212576Y-81335845D01*
X168115723Y-81480795D01*
X168049010Y-81641855D01*
X168015000Y-81812835D01*
X168015000Y-81987165D01*
X168049010Y-82158145D01*
X168115723Y-82319205D01*
X168212576Y-82464155D01*
X168335845Y-82587424D01*
X168377115Y-82615000D01*
X168212835Y-82615000D01*
X168041855Y-82649010D01*
X167880795Y-82715723D01*
X167735845Y-82812576D01*
X167612576Y-82935845D01*
X167515723Y-83080795D01*
X167449010Y-83241855D01*
X167415000Y-83412835D01*
X167415000Y-83587165D01*
X167445401Y-83740000D01*
X162255538Y-83740000D01*
X162219205Y-83715723D01*
X162058145Y-83649010D01*
X161887165Y-83615000D01*
X161712835Y-83615000D01*
X161541855Y-83649010D01*
X161380795Y-83715723D01*
X161235845Y-83812576D01*
X161112576Y-83935845D01*
X161015723Y-84080795D01*
X160949010Y-84241855D01*
X160915000Y-84412835D01*
X160915000Y-84587165D01*
X160949010Y-84758145D01*
X161015723Y-84919205D01*
X161112576Y-85064155D01*
X161235845Y-85187424D01*
X161380795Y-85284277D01*
X161541855Y-85350990D01*
X161712835Y-85385000D01*
X161887165Y-85385000D01*
X162058145Y-85350990D01*
X162219205Y-85284277D01*
X162255538Y-85260000D01*
X169151176Y-85260000D01*
X169082068Y-85426842D01*
X169025000Y-85713740D01*
X169025000Y-86006260D01*
X169082068Y-86293158D01*
X169194010Y-86563411D01*
X169356525Y-86806632D01*
X169563368Y-87013475D01*
X169737760Y-87130000D01*
X169563368Y-87246525D01*
X169356525Y-87453368D01*
X169194010Y-87696589D01*
X169082068Y-87966842D01*
X169025000Y-88253740D01*
X169025000Y-88546260D01*
X169066301Y-88753892D01*
X168987424Y-88635845D01*
X168864155Y-88512576D01*
X168719205Y-88415723D01*
X168558145Y-88349010D01*
X168387165Y-88315000D01*
X168212835Y-88315000D01*
X168041855Y-88349010D01*
X167880795Y-88415723D01*
X167735845Y-88512576D01*
X167612576Y-88635845D01*
X167515723Y-88780795D01*
X167449010Y-88941855D01*
X167415000Y-89112835D01*
X167415000Y-89287165D01*
X167425510Y-89340000D01*
X160660000Y-89340000D01*
X160660000Y-73612835D01*
X162315000Y-73612835D01*
X162315000Y-73787165D01*
X162349010Y-73958145D01*
X162415723Y-74119205D01*
X162512576Y-74264155D01*
X162635845Y-74387424D01*
X162780795Y-74484277D01*
X162941855Y-74550990D01*
X163112835Y-74585000D01*
X163287165Y-74585000D01*
X163458145Y-74550990D01*
X163619205Y-74484277D01*
X163764155Y-74387424D01*
X163887424Y-74264155D01*
X163984277Y-74119205D01*
X164050990Y-73958145D01*
X164085000Y-73787165D01*
X164085000Y-73612835D01*
X164050990Y-73441855D01*
X163984277Y-73280795D01*
X163887424Y-73135845D01*
X163764155Y-73012576D01*
X163619205Y-72915723D01*
X163458145Y-72849010D01*
X163287165Y-72815000D01*
X163112835Y-72815000D01*
X162941855Y-72849010D01*
X162780795Y-72915723D01*
X162635845Y-73012576D01*
X162512576Y-73135845D01*
X162415723Y-73280795D01*
X162349010Y-73441855D01*
X162315000Y-73612835D01*
X160660000Y-73612835D01*
X160660000Y-69660000D01*
X163887488Y-69660000D01*
X163751488Y-69716333D01*
G37*
X163751488Y-69716333D02*
X163606538Y-69813186D01*
X163483269Y-69936455D01*
X163386416Y-70081405D01*
X163319703Y-70242465D01*
X163285693Y-70413445D01*
X163285693Y-70587775D01*
X163319703Y-70758755D01*
X163386416Y-70919815D01*
X163483269Y-71064765D01*
X163606538Y-71188034D01*
X163751488Y-71284887D01*
X163912548Y-71351600D01*
X164083528Y-71385610D01*
X164257858Y-71385610D01*
X164428838Y-71351600D01*
X164589898Y-71284887D01*
X164664559Y-71235000D01*
X165595556Y-71235000D01*
X166054747Y-71694192D01*
X166077763Y-71722237D01*
X166189681Y-71814086D01*
X166317368Y-71882336D01*
X166413887Y-71911615D01*
X166455915Y-71924364D01*
X166600000Y-71938555D01*
X166636105Y-71934999D01*
X168431555Y-71934999D01*
X168840749Y-72344194D01*
X168863765Y-72372239D01*
X168948579Y-72441844D01*
X168975683Y-72464088D01*
X169103369Y-72532338D01*
X169156019Y-72548309D01*
X169082068Y-72726842D01*
X169025000Y-73013740D01*
X169025000Y-73306260D01*
X169082068Y-73593158D01*
X169194010Y-73863411D01*
X169356525Y-74106632D01*
X169563368Y-74313475D01*
X169737760Y-74430000D01*
X169563368Y-74546525D01*
X169356525Y-74753368D01*
X169194010Y-74996589D01*
X169082068Y-75266842D01*
X169025000Y-75553740D01*
X169025000Y-75846260D01*
X169082068Y-76133158D01*
X169173957Y-76354999D01*
X168977372Y-76354999D01*
X168917205Y-76209744D01*
X168803937Y-76040226D01*
X168659774Y-75896063D01*
X168490256Y-75782795D01*
X168301898Y-75704774D01*
X168101939Y-75665000D01*
X167898061Y-75665000D01*
X167698102Y-75704774D01*
X167509744Y-75782795D01*
X167340226Y-75896063D01*
X167196063Y-76040226D01*
X167082795Y-76209744D01*
X167004774Y-76398102D01*
X166965000Y-76598061D01*
X166965000Y-76801939D01*
X167004774Y-77001898D01*
X167082795Y-77190256D01*
X167196063Y-77359774D01*
X167266422Y-77430133D01*
X166731556Y-77965000D01*
X165536096Y-77965000D01*
X165499999Y-77961445D01*
X165463902Y-77965000D01*
X165463895Y-77965000D01*
X165370132Y-77974235D01*
X165355914Y-77975635D01*
X165313886Y-77988384D01*
X165217367Y-78017663D01*
X165089680Y-78085913D01*
X164977762Y-78177762D01*
X164954746Y-78205807D01*
X163328848Y-79831706D01*
X163241855Y-79849010D01*
X163080795Y-79915723D01*
X162935845Y-80012576D01*
X162812576Y-80135845D01*
X162715723Y-80280795D01*
X162649010Y-80441855D01*
X162615000Y-80612835D01*
X162615000Y-80787165D01*
X162649010Y-80958145D01*
X162715723Y-81119205D01*
X162812576Y-81264155D01*
X162935845Y-81387424D01*
X163080795Y-81484277D01*
X163241855Y-81550990D01*
X163412835Y-81585000D01*
X163587165Y-81585000D01*
X163758145Y-81550990D01*
X163919205Y-81484277D01*
X164064155Y-81387424D01*
X164187424Y-81264155D01*
X164284277Y-81119205D01*
X164350990Y-80958145D01*
X164368294Y-80871152D01*
X165804447Y-79435000D01*
X166999897Y-79435000D01*
X167036002Y-79438556D01*
X167072107Y-79435000D01*
X167180087Y-79424365D01*
X167318635Y-79382337D01*
X167446322Y-79314087D01*
X167558240Y-79222238D01*
X167581260Y-79194188D01*
X168950450Y-77824999D01*
X169078456Y-77824999D01*
X169025000Y-78093740D01*
X169025000Y-78386260D01*
X169082068Y-78673158D01*
X169194010Y-78943411D01*
X169356525Y-79186632D01*
X169563368Y-79393475D01*
X169737760Y-79510000D01*
X169563368Y-79626525D01*
X169356525Y-79833368D01*
X169194010Y-80076589D01*
X169082068Y-80346842D01*
X169025000Y-80633740D01*
X169025000Y-80926260D01*
X169044937Y-81026492D01*
X168987165Y-81015000D01*
X168812835Y-81015000D01*
X168641855Y-81049010D01*
X168480795Y-81115723D01*
X168335845Y-81212576D01*
X168212576Y-81335845D01*
X168115723Y-81480795D01*
X168049010Y-81641855D01*
X168015000Y-81812835D01*
X168015000Y-81987165D01*
X168049010Y-82158145D01*
X168115723Y-82319205D01*
X168212576Y-82464155D01*
X168335845Y-82587424D01*
X168377115Y-82615000D01*
X168212835Y-82615000D01*
X168041855Y-82649010D01*
X167880795Y-82715723D01*
X167735845Y-82812576D01*
X167612576Y-82935845D01*
X167515723Y-83080795D01*
X167449010Y-83241855D01*
X167415000Y-83412835D01*
X167415000Y-83587165D01*
X167445401Y-83740000D01*
X162255538Y-83740000D01*
X162219205Y-83715723D01*
X162058145Y-83649010D01*
X161887165Y-83615000D01*
X161712835Y-83615000D01*
X161541855Y-83649010D01*
X161380795Y-83715723D01*
X161235845Y-83812576D01*
X161112576Y-83935845D01*
X161015723Y-84080795D01*
X160949010Y-84241855D01*
X160915000Y-84412835D01*
X160915000Y-84587165D01*
X160949010Y-84758145D01*
X161015723Y-84919205D01*
X161112576Y-85064155D01*
X161235845Y-85187424D01*
X161380795Y-85284277D01*
X161541855Y-85350990D01*
X161712835Y-85385000D01*
X161887165Y-85385000D01*
X162058145Y-85350990D01*
X162219205Y-85284277D01*
X162255538Y-85260000D01*
X169151176Y-85260000D01*
X169082068Y-85426842D01*
X169025000Y-85713740D01*
X169025000Y-86006260D01*
X169082068Y-86293158D01*
X169194010Y-86563411D01*
X169356525Y-86806632D01*
X169563368Y-87013475D01*
X169737760Y-87130000D01*
X169563368Y-87246525D01*
X169356525Y-87453368D01*
X169194010Y-87696589D01*
X169082068Y-87966842D01*
X169025000Y-88253740D01*
X169025000Y-88546260D01*
X169066301Y-88753892D01*
X168987424Y-88635845D01*
X168864155Y-88512576D01*
X168719205Y-88415723D01*
X168558145Y-88349010D01*
X168387165Y-88315000D01*
X168212835Y-88315000D01*
X168041855Y-88349010D01*
X167880795Y-88415723D01*
X167735845Y-88512576D01*
X167612576Y-88635845D01*
X167515723Y-88780795D01*
X167449010Y-88941855D01*
X167415000Y-89112835D01*
X167415000Y-89287165D01*
X167425510Y-89340000D01*
X160660000Y-89340000D01*
X160660000Y-73612835D01*
X162315000Y-73612835D01*
X162315000Y-73787165D01*
X162349010Y-73958145D01*
X162415723Y-74119205D01*
X162512576Y-74264155D01*
X162635845Y-74387424D01*
X162780795Y-74484277D01*
X162941855Y-74550990D01*
X163112835Y-74585000D01*
X163287165Y-74585000D01*
X163458145Y-74550990D01*
X163619205Y-74484277D01*
X163764155Y-74387424D01*
X163887424Y-74264155D01*
X163984277Y-74119205D01*
X164050990Y-73958145D01*
X164085000Y-73787165D01*
X164085000Y-73612835D01*
X164050990Y-73441855D01*
X163984277Y-73280795D01*
X163887424Y-73135845D01*
X163764155Y-73012576D01*
X163619205Y-72915723D01*
X163458145Y-72849010D01*
X163287165Y-72815000D01*
X163112835Y-72815000D01*
X162941855Y-72849010D01*
X162780795Y-72915723D01*
X162635845Y-73012576D01*
X162512576Y-73135845D01*
X162415723Y-73280795D01*
X162349010Y-73441855D01*
X162315000Y-73612835D01*
X160660000Y-73612835D01*
X160660000Y-69660000D01*
X163887488Y-69660000D01*
X163751488Y-69716333D01*
M02*
