G04 #@! TF.GenerationSoftware,KiCad,Pcbnew,5.1.5+dfsg1-2build2*
G04 #@! TF.CreationDate,2021-09-24T14:29:39+01:00*
G04 #@! TF.ProjectId,picopak,7069636f-7061-46b2-9e6b-696361645f70,rev?*
G04 #@! TF.SameCoordinates,Original*
G04 #@! TF.FileFunction,Legend,Bot*
G04 #@! TF.FilePolarity,Positive*
%FSLAX46Y46*%
G04 Gerber Fmt 4.6, Leading zero omitted, Abs format (unit mm)*
G04 Created by KiCad (PCBNEW 5.1.5+dfsg1-2build2) date 2021-09-24 14:29:39*
%MOMM*%
%LPD*%
G04 APERTURE LIST*
%ADD10C,0.150000*%
%ADD11C,0.100000*%
%ADD12C,0.120000*%
G04 APERTURE END LIST*
D10*
X167132142Y-87289285D02*
X166882142Y-88039285D01*
X166632142Y-87289285D01*
X166132142Y-87646428D02*
X166025000Y-87682142D01*
X165989285Y-87717857D01*
X165953571Y-87789285D01*
X165953571Y-87896428D01*
X165989285Y-87967857D01*
X166025000Y-88003571D01*
X166096428Y-88039285D01*
X166382142Y-88039285D01*
X166382142Y-87289285D01*
X166132142Y-87289285D01*
X166060714Y-87325000D01*
X166025000Y-87360714D01*
X165989285Y-87432142D01*
X165989285Y-87503571D01*
X166025000Y-87575000D01*
X166060714Y-87610714D01*
X166132142Y-87646428D01*
X166382142Y-87646428D01*
X165667857Y-87825000D02*
X165310714Y-87825000D01*
X165739285Y-88039285D02*
X165489285Y-87289285D01*
X165239285Y-88039285D01*
X165096428Y-87289285D02*
X164667857Y-87289285D01*
X164882142Y-88039285D02*
X164882142Y-87289285D01*
X166403571Y-88489285D02*
X166153571Y-89239285D01*
X165903571Y-88489285D01*
X165296428Y-89239285D02*
X165653571Y-89239285D01*
X165653571Y-88489285D01*
X164617857Y-89167857D02*
X164653571Y-89203571D01*
X164760714Y-89239285D01*
X164832142Y-89239285D01*
X164939285Y-89203571D01*
X165010714Y-89132142D01*
X165046428Y-89060714D01*
X165082142Y-88917857D01*
X165082142Y-88810714D01*
X165046428Y-88667857D01*
X165010714Y-88596428D01*
X164939285Y-88525000D01*
X164832142Y-88489285D01*
X164760714Y-88489285D01*
X164653571Y-88525000D01*
X164617857Y-88560714D01*
X164296428Y-89239285D02*
X164296428Y-88489285D01*
X164117857Y-88489285D01*
X164010714Y-88525000D01*
X163939285Y-88596428D01*
X163903571Y-88667857D01*
X163867857Y-88810714D01*
X163867857Y-88917857D01*
X163903571Y-89060714D01*
X163939285Y-89132142D01*
X164010714Y-89203571D01*
X164117857Y-89239285D01*
X164296428Y-89239285D01*
X165464285Y-72731071D02*
X164714285Y-72731071D01*
X164714285Y-73016785D01*
X164750000Y-73088214D01*
X164785714Y-73123928D01*
X164857142Y-73159642D01*
X164964285Y-73159642D01*
X165035714Y-73123928D01*
X165071428Y-73088214D01*
X165107142Y-73016785D01*
X165107142Y-72731071D01*
X165464285Y-73481071D02*
X164964285Y-73481071D01*
X164714285Y-73481071D02*
X164750000Y-73445357D01*
X164785714Y-73481071D01*
X164750000Y-73516785D01*
X164714285Y-73481071D01*
X164785714Y-73481071D01*
X165428571Y-74159642D02*
X165464285Y-74088214D01*
X165464285Y-73945357D01*
X165428571Y-73873928D01*
X165392857Y-73838214D01*
X165321428Y-73802500D01*
X165107142Y-73802500D01*
X165035714Y-73838214D01*
X165000000Y-73873928D01*
X164964285Y-73945357D01*
X164964285Y-74088214D01*
X165000000Y-74159642D01*
X165464285Y-74588214D02*
X165428571Y-74516785D01*
X165392857Y-74481071D01*
X165321428Y-74445357D01*
X165107142Y-74445357D01*
X165035714Y-74481071D01*
X165000000Y-74516785D01*
X164964285Y-74588214D01*
X164964285Y-74695357D01*
X165000000Y-74766785D01*
X165035714Y-74802500D01*
X165107142Y-74838214D01*
X165321428Y-74838214D01*
X165392857Y-74802500D01*
X165428571Y-74766785D01*
X165464285Y-74695357D01*
X165464285Y-74588214D01*
X165464285Y-75159642D02*
X164714285Y-75159642D01*
X164714285Y-75445357D01*
X164750000Y-75516785D01*
X164785714Y-75552500D01*
X164857142Y-75588214D01*
X164964285Y-75588214D01*
X165035714Y-75552500D01*
X165071428Y-75516785D01*
X165107142Y-75445357D01*
X165107142Y-75159642D01*
X165464285Y-76231071D02*
X165071428Y-76231071D01*
X165000000Y-76195357D01*
X164964285Y-76123928D01*
X164964285Y-75981071D01*
X165000000Y-75909642D01*
X165428571Y-76231071D02*
X165464285Y-76159642D01*
X165464285Y-75981071D01*
X165428571Y-75909642D01*
X165357142Y-75873928D01*
X165285714Y-75873928D01*
X165214285Y-75909642D01*
X165178571Y-75981071D01*
X165178571Y-76159642D01*
X165142857Y-76231071D01*
X165464285Y-76588214D02*
X164714285Y-76588214D01*
X165178571Y-76659642D02*
X165464285Y-76873928D01*
X164964285Y-76873928D02*
X165250000Y-76588214D01*
X164964285Y-77659642D02*
X164964285Y-77945357D01*
X165464285Y-77766785D02*
X164821428Y-77766785D01*
X164750000Y-77802500D01*
X164714285Y-77873928D01*
X164714285Y-77945357D01*
X165464285Y-78302500D02*
X165428571Y-78231071D01*
X165392857Y-78195357D01*
X165321428Y-78159642D01*
X165107142Y-78159642D01*
X165035714Y-78195357D01*
X165000000Y-78231071D01*
X164964285Y-78302500D01*
X164964285Y-78409642D01*
X165000000Y-78481071D01*
X165035714Y-78516785D01*
X165107142Y-78552500D01*
X165321428Y-78552500D01*
X165392857Y-78516785D01*
X165428571Y-78481071D01*
X165464285Y-78409642D01*
X165464285Y-78302500D01*
X165464285Y-78873928D02*
X164964285Y-78873928D01*
X165107142Y-78873928D02*
X165035714Y-78909642D01*
X165000000Y-78945357D01*
X164964285Y-79016785D01*
X164964285Y-79088214D01*
X165464285Y-79909642D02*
X164714285Y-79909642D01*
X164714285Y-80195357D01*
X164750000Y-80266785D01*
X164785714Y-80302500D01*
X164857142Y-80338214D01*
X164964285Y-80338214D01*
X165035714Y-80302500D01*
X165071428Y-80266785D01*
X165107142Y-80195357D01*
X165107142Y-79909642D01*
X165428571Y-80623928D02*
X165464285Y-80695357D01*
X165464285Y-80838214D01*
X165428571Y-80909642D01*
X165357142Y-80945357D01*
X165321428Y-80945357D01*
X165250000Y-80909642D01*
X165214285Y-80838214D01*
X165214285Y-80731071D01*
X165178571Y-80659642D01*
X165107142Y-80623928D01*
X165071428Y-80623928D01*
X165000000Y-80659642D01*
X164964285Y-80731071D01*
X164964285Y-80838214D01*
X165000000Y-80909642D01*
X165464285Y-81266785D02*
X164964285Y-81266785D01*
X164714285Y-81266785D02*
X164750000Y-81231071D01*
X164785714Y-81266785D01*
X164750000Y-81302500D01*
X164714285Y-81266785D01*
X164785714Y-81266785D01*
X165464285Y-81731071D02*
X165428571Y-81659642D01*
X165392857Y-81623928D01*
X165321428Y-81588214D01*
X165107142Y-81588214D01*
X165035714Y-81623928D01*
X165000000Y-81659642D01*
X164964285Y-81731071D01*
X164964285Y-81838214D01*
X165000000Y-81909642D01*
X165035714Y-81945357D01*
X165107142Y-81981071D01*
X165321428Y-81981071D01*
X165392857Y-81945357D01*
X165428571Y-81909642D01*
X165464285Y-81838214D01*
X165464285Y-81731071D01*
X164964285Y-82302500D02*
X165464285Y-82302500D01*
X165035714Y-82302500D02*
X165000000Y-82338214D01*
X164964285Y-82409642D01*
X164964285Y-82516785D01*
X165000000Y-82588214D01*
X165071428Y-82623928D01*
X165464285Y-82623928D01*
X164714285Y-83445357D02*
X165464285Y-83695357D01*
X164714285Y-83945357D01*
X165464285Y-84588214D02*
X165464285Y-84159642D01*
X165464285Y-84373928D02*
X164714285Y-84373928D01*
X164821428Y-84302500D01*
X164892857Y-84231071D01*
X164928571Y-84159642D01*
X165392857Y-84909642D02*
X165428571Y-84945357D01*
X165464285Y-84909642D01*
X165428571Y-84873928D01*
X165392857Y-84909642D01*
X165464285Y-84909642D01*
X164785714Y-85231071D02*
X164750000Y-85266785D01*
X164714285Y-85338214D01*
X164714285Y-85516785D01*
X164750000Y-85588214D01*
X164785714Y-85623928D01*
X164857142Y-85659642D01*
X164928571Y-85659642D01*
X165035714Y-85623928D01*
X165464285Y-85195357D01*
X165464285Y-85659642D01*
X166703571Y-80052500D02*
X166739285Y-80159642D01*
X166739285Y-80338214D01*
X166703571Y-80409642D01*
X166667857Y-80445357D01*
X166596428Y-80481071D01*
X166525000Y-80481071D01*
X166453571Y-80445357D01*
X166417857Y-80409642D01*
X166382142Y-80338214D01*
X166346428Y-80195357D01*
X166310714Y-80123928D01*
X166275000Y-80088214D01*
X166203571Y-80052500D01*
X166132142Y-80052500D01*
X166060714Y-80088214D01*
X166025000Y-80123928D01*
X165989285Y-80195357D01*
X165989285Y-80373928D01*
X166025000Y-80481071D01*
X166703571Y-81088214D02*
X166739285Y-81016785D01*
X166739285Y-80873928D01*
X166703571Y-80802500D01*
X166632142Y-80766785D01*
X166346428Y-80766785D01*
X166275000Y-80802500D01*
X166239285Y-80873928D01*
X166239285Y-81016785D01*
X166275000Y-81088214D01*
X166346428Y-81123928D01*
X166417857Y-81123928D01*
X166489285Y-80766785D01*
X166239285Y-81445357D02*
X166989285Y-81445357D01*
X166275000Y-81445357D02*
X166239285Y-81516785D01*
X166239285Y-81659642D01*
X166275000Y-81731071D01*
X166310714Y-81766785D01*
X166382142Y-81802500D01*
X166596428Y-81802500D01*
X166667857Y-81766785D01*
X166703571Y-81731071D01*
X166739285Y-81659642D01*
X166739285Y-81516785D01*
X166703571Y-81445357D01*
X166239285Y-82016785D02*
X166239285Y-82302500D01*
X165989285Y-82123928D02*
X166632142Y-82123928D01*
X166703571Y-82159642D01*
X166739285Y-82231071D01*
X166739285Y-82302500D01*
X166060714Y-83088214D02*
X166025000Y-83123928D01*
X165989285Y-83195357D01*
X165989285Y-83373928D01*
X166025000Y-83445357D01*
X166060714Y-83481071D01*
X166132142Y-83516785D01*
X166203571Y-83516785D01*
X166310714Y-83481071D01*
X166739285Y-83052500D01*
X166739285Y-83516785D01*
X165989285Y-83981071D02*
X165989285Y-84052500D01*
X166025000Y-84123928D01*
X166060714Y-84159642D01*
X166132142Y-84195357D01*
X166275000Y-84231071D01*
X166453571Y-84231071D01*
X166596428Y-84195357D01*
X166667857Y-84159642D01*
X166703571Y-84123928D01*
X166739285Y-84052500D01*
X166739285Y-83981071D01*
X166703571Y-83909642D01*
X166667857Y-83873928D01*
X166596428Y-83838214D01*
X166453571Y-83802500D01*
X166275000Y-83802500D01*
X166132142Y-83838214D01*
X166060714Y-83873928D01*
X166025000Y-83909642D01*
X165989285Y-83981071D01*
X166060714Y-84516785D02*
X166025000Y-84552500D01*
X165989285Y-84623928D01*
X165989285Y-84802500D01*
X166025000Y-84873928D01*
X166060714Y-84909642D01*
X166132142Y-84945357D01*
X166203571Y-84945357D01*
X166310714Y-84909642D01*
X166739285Y-84481071D01*
X166739285Y-84945357D01*
X166739285Y-85659642D02*
X166739285Y-85231071D01*
X166739285Y-85445357D02*
X165989285Y-85445357D01*
X166096428Y-85373928D01*
X166167857Y-85302500D01*
X166203571Y-85231071D01*
X168014285Y-74231071D02*
X167514285Y-74231071D01*
X167585714Y-74231071D02*
X167550000Y-74266785D01*
X167514285Y-74338214D01*
X167514285Y-74445357D01*
X167550000Y-74516785D01*
X167621428Y-74552500D01*
X168014285Y-74552500D01*
X167621428Y-74552500D02*
X167550000Y-74588214D01*
X167514285Y-74659642D01*
X167514285Y-74766785D01*
X167550000Y-74838214D01*
X167621428Y-74873928D01*
X168014285Y-74873928D01*
X167978571Y-75516785D02*
X168014285Y-75445357D01*
X168014285Y-75302500D01*
X167978571Y-75231071D01*
X167907142Y-75195357D01*
X167621428Y-75195357D01*
X167550000Y-75231071D01*
X167514285Y-75302500D01*
X167514285Y-75445357D01*
X167550000Y-75516785D01*
X167621428Y-75552500D01*
X167692857Y-75552500D01*
X167764285Y-75195357D01*
X167514285Y-75873928D02*
X168014285Y-75873928D01*
X167585714Y-75873928D02*
X167550000Y-75909642D01*
X167514285Y-75981071D01*
X167514285Y-76088214D01*
X167550000Y-76159642D01*
X167621428Y-76195357D01*
X168014285Y-76195357D01*
X168014285Y-76873928D02*
X167621428Y-76873928D01*
X167550000Y-76838214D01*
X167514285Y-76766785D01*
X167514285Y-76623928D01*
X167550000Y-76552500D01*
X167978571Y-76873928D02*
X168014285Y-76802500D01*
X168014285Y-76623928D01*
X167978571Y-76552500D01*
X167907142Y-76516785D01*
X167835714Y-76516785D01*
X167764285Y-76552500D01*
X167728571Y-76623928D01*
X167728571Y-76802500D01*
X167692857Y-76873928D01*
X168014285Y-77552500D02*
X167264285Y-77552500D01*
X167978571Y-77552500D02*
X168014285Y-77481071D01*
X168014285Y-77338214D01*
X167978571Y-77266785D01*
X167942857Y-77231071D01*
X167871428Y-77195357D01*
X167657142Y-77195357D01*
X167585714Y-77231071D01*
X167550000Y-77266785D01*
X167514285Y-77338214D01*
X167514285Y-77481071D01*
X167550000Y-77552500D01*
X167514285Y-78231071D02*
X168014285Y-78231071D01*
X167514285Y-77909642D02*
X167907142Y-77909642D01*
X167978571Y-77945357D01*
X168014285Y-78016785D01*
X168014285Y-78123928D01*
X167978571Y-78195357D01*
X167942857Y-78231071D01*
X167978571Y-78873928D02*
X168014285Y-78802500D01*
X168014285Y-78659642D01*
X167978571Y-78588214D01*
X167907142Y-78552500D01*
X167621428Y-78552500D01*
X167550000Y-78588214D01*
X167514285Y-78659642D01*
X167514285Y-78802500D01*
X167550000Y-78873928D01*
X167621428Y-78909642D01*
X167692857Y-78909642D01*
X167764285Y-78552500D01*
X167657142Y-79695357D02*
X167621428Y-79659642D01*
X167585714Y-79588214D01*
X167585714Y-79516785D01*
X167621428Y-79445357D01*
X167657142Y-79409642D01*
X167728571Y-79373928D01*
X167800000Y-79373928D01*
X167871428Y-79409642D01*
X167907142Y-79445357D01*
X167942857Y-79516785D01*
X167942857Y-79588214D01*
X167907142Y-79659642D01*
X167871428Y-79695357D01*
X167585714Y-79695357D02*
X167871428Y-79695357D01*
X167907142Y-79731071D01*
X167907142Y-79766785D01*
X167871428Y-79838214D01*
X167800000Y-79873928D01*
X167621428Y-79873928D01*
X167514285Y-79802500D01*
X167442857Y-79695357D01*
X167407142Y-79552500D01*
X167442857Y-79409642D01*
X167514285Y-79302500D01*
X167621428Y-79231071D01*
X167764285Y-79195357D01*
X167907142Y-79231071D01*
X168014285Y-79302500D01*
X168085714Y-79409642D01*
X168121428Y-79552500D01*
X168085714Y-79695357D01*
X168014285Y-79802500D01*
X167514285Y-80516785D02*
X168121428Y-80516785D01*
X168192857Y-80481071D01*
X168228571Y-80445357D01*
X168264285Y-80373928D01*
X168264285Y-80266785D01*
X168228571Y-80195357D01*
X167978571Y-80516785D02*
X168014285Y-80445357D01*
X168014285Y-80302500D01*
X167978571Y-80231071D01*
X167942857Y-80195357D01*
X167871428Y-80159642D01*
X167657142Y-80159642D01*
X167585714Y-80195357D01*
X167550000Y-80231071D01*
X167514285Y-80302500D01*
X167514285Y-80445357D01*
X167550000Y-80516785D01*
X168014285Y-80873928D02*
X167514285Y-80873928D01*
X167585714Y-80873928D02*
X167550000Y-80909642D01*
X167514285Y-80981071D01*
X167514285Y-81088214D01*
X167550000Y-81159642D01*
X167621428Y-81195357D01*
X168014285Y-81195357D01*
X167621428Y-81195357D02*
X167550000Y-81231071D01*
X167514285Y-81302500D01*
X167514285Y-81409642D01*
X167550000Y-81481071D01*
X167621428Y-81516785D01*
X168014285Y-81516785D01*
X168014285Y-82195357D02*
X167621428Y-82195357D01*
X167550000Y-82159642D01*
X167514285Y-82088214D01*
X167514285Y-81945357D01*
X167550000Y-81873928D01*
X167978571Y-82195357D02*
X168014285Y-82123928D01*
X168014285Y-81945357D01*
X167978571Y-81873928D01*
X167907142Y-81838214D01*
X167835714Y-81838214D01*
X167764285Y-81873928D01*
X167728571Y-81945357D01*
X167728571Y-82123928D01*
X167692857Y-82195357D01*
X168014285Y-82552500D02*
X167514285Y-82552500D01*
X167264285Y-82552500D02*
X167300000Y-82516785D01*
X167335714Y-82552500D01*
X167300000Y-82588214D01*
X167264285Y-82552500D01*
X167335714Y-82552500D01*
X168014285Y-83016785D02*
X167978571Y-82945357D01*
X167907142Y-82909642D01*
X167264285Y-82909642D01*
X167942857Y-83302500D02*
X167978571Y-83338214D01*
X168014285Y-83302500D01*
X167978571Y-83266785D01*
X167942857Y-83302500D01*
X168014285Y-83302500D01*
X167978571Y-83981071D02*
X168014285Y-83909642D01*
X168014285Y-83766785D01*
X167978571Y-83695357D01*
X167942857Y-83659642D01*
X167871428Y-83623928D01*
X167657142Y-83623928D01*
X167585714Y-83659642D01*
X167550000Y-83695357D01*
X167514285Y-83766785D01*
X167514285Y-83909642D01*
X167550000Y-83981071D01*
X168014285Y-84409642D02*
X167978571Y-84338214D01*
X167942857Y-84302500D01*
X167871428Y-84266785D01*
X167657142Y-84266785D01*
X167585714Y-84302500D01*
X167550000Y-84338214D01*
X167514285Y-84409642D01*
X167514285Y-84516785D01*
X167550000Y-84588214D01*
X167585714Y-84623928D01*
X167657142Y-84659642D01*
X167871428Y-84659642D01*
X167942857Y-84623928D01*
X167978571Y-84588214D01*
X168014285Y-84516785D01*
X168014285Y-84409642D01*
X168014285Y-84981071D02*
X167514285Y-84981071D01*
X167585714Y-84981071D02*
X167550000Y-85016785D01*
X167514285Y-85088214D01*
X167514285Y-85195357D01*
X167550000Y-85266785D01*
X167621428Y-85302500D01*
X168014285Y-85302500D01*
X167621428Y-85302500D02*
X167550000Y-85338214D01*
X167514285Y-85409642D01*
X167514285Y-85516785D01*
X167550000Y-85588214D01*
X167621428Y-85623928D01*
X168014285Y-85623928D01*
X163267857Y-74803571D02*
X163160714Y-74839285D01*
X162982142Y-74839285D01*
X162910714Y-74803571D01*
X162875000Y-74767857D01*
X162839285Y-74696428D01*
X162839285Y-74625000D01*
X162875000Y-74553571D01*
X162910714Y-74517857D01*
X162982142Y-74482142D01*
X163125000Y-74446428D01*
X163196428Y-74410714D01*
X163232142Y-74375000D01*
X163267857Y-74303571D01*
X163267857Y-74232142D01*
X163232142Y-74160714D01*
X163196428Y-74125000D01*
X163125000Y-74089285D01*
X162946428Y-74089285D01*
X162839285Y-74125000D01*
X162089285Y-74767857D02*
X162125000Y-74803571D01*
X162232142Y-74839285D01*
X162303571Y-74839285D01*
X162410714Y-74803571D01*
X162482142Y-74732142D01*
X162517857Y-74660714D01*
X162553571Y-74517857D01*
X162553571Y-74410714D01*
X162517857Y-74267857D01*
X162482142Y-74196428D01*
X162410714Y-74125000D01*
X162303571Y-74089285D01*
X162232142Y-74089285D01*
X162125000Y-74125000D01*
X162089285Y-74160714D01*
X161410714Y-74839285D02*
X161767857Y-74839285D01*
X161767857Y-74089285D01*
X161160714Y-74839285D02*
X161160714Y-74089285D01*
X160732142Y-74839285D02*
X161053571Y-74410714D01*
X160732142Y-74089285D02*
X161160714Y-74517857D01*
D11*
X162617857Y-70103571D02*
X162510714Y-70139285D01*
X162332142Y-70139285D01*
X162260714Y-70103571D01*
X162225000Y-70067857D01*
X162189285Y-69996428D01*
X162189285Y-69925000D01*
X162225000Y-69853571D01*
X162260714Y-69817857D01*
X162332142Y-69782142D01*
X162475000Y-69746428D01*
X162546428Y-69710714D01*
X162582142Y-69675000D01*
X162617857Y-69603571D01*
X162617857Y-69532142D01*
X162582142Y-69460714D01*
X162546428Y-69425000D01*
X162475000Y-69389285D01*
X162296428Y-69389285D01*
X162189285Y-69425000D01*
X161939285Y-69389285D02*
X161760714Y-70139285D01*
X161617857Y-69603571D01*
X161475000Y-70139285D01*
X161296428Y-69389285D01*
X161010714Y-70139285D02*
X161010714Y-69389285D01*
X160832142Y-69389285D01*
X160725000Y-69425000D01*
X160653571Y-69496428D01*
X160617857Y-69567857D01*
X160582142Y-69710714D01*
X160582142Y-69817857D01*
X160617857Y-69960714D01*
X160653571Y-70032142D01*
X160725000Y-70103571D01*
X160832142Y-70139285D01*
X161010714Y-70139285D01*
D12*
X163160000Y-83520000D02*
X161700000Y-83520000D01*
X163160000Y-86680000D02*
X161000000Y-86680000D01*
X163160000Y-86680000D02*
X163160000Y-85750000D01*
X163160000Y-83520000D02*
X163160000Y-84450000D01*
X161905000Y-88140000D02*
X161905000Y-87140000D01*
X163295000Y-89260000D02*
X163295000Y-88260000D01*
X163295000Y-87140000D02*
X163295000Y-87140000D01*
X161905000Y-89260000D02*
X161905000Y-89260000D01*
X161905000Y-89260000D02*
X160910000Y-89260000D01*
X161905000Y-87140000D02*
X163295000Y-87140000D01*
X161905000Y-89260000D02*
X163295000Y-89260000D01*
X203950000Y-85600000D02*
X207850000Y-85600000D01*
X203950000Y-83600000D02*
X207850000Y-83600000D01*
X203950000Y-85600000D02*
X203950000Y-83600000D01*
X162895000Y-71460000D02*
X162895000Y-72340000D01*
X161505000Y-72460000D02*
X161505000Y-73460000D01*
X161505000Y-70340000D02*
X161505000Y-71340000D01*
X161505000Y-73460000D02*
X161505000Y-73460000D01*
X162895000Y-70340000D02*
X162895000Y-70340000D01*
X162895000Y-70340000D02*
X163890000Y-70340000D01*
X162895000Y-73460000D02*
X161505000Y-73460000D01*
X162895000Y-70340000D02*
X161505000Y-70340000D01*
X188610000Y-73840000D02*
X188610000Y-73190000D01*
X188610000Y-73190000D02*
X187960000Y-73190000D01*
X181390000Y-79760000D02*
X181390000Y-80410000D01*
X181390000Y-80410000D02*
X182040000Y-80410000D01*
X181390000Y-73840000D02*
X181390000Y-73190000D01*
X181390000Y-73190000D02*
X182040000Y-73190000D01*
X188610000Y-79760000D02*
X188610000Y-80410000D01*
X179400000Y-76300000D02*
X179400000Y-81700000D01*
X174900000Y-76300000D02*
X179400000Y-76300000D01*
X203300000Y-69200000D02*
X203300000Y-69700000D01*
X208300000Y-69200000D02*
X203300000Y-69200000D01*
X176800000Y-69200000D02*
X176800000Y-78200000D01*
X203300000Y-69200000D02*
X176800000Y-69200000D01*
X203300000Y-78200000D02*
X203300000Y-69200000D01*
X176800000Y-78200000D02*
X203300000Y-78200000D01*
X169800000Y-81200000D02*
X208300000Y-81200000D01*
X169800000Y-69200000D02*
X169800000Y-81200000D01*
X208300000Y-69200000D02*
X169800000Y-69200000D01*
X208300000Y-81200000D02*
X208300000Y-69200000D01*
X193800000Y-87850000D02*
X193800000Y-87750000D01*
X189400000Y-86050000D02*
X193800000Y-86050000D01*
X193800000Y-89550000D02*
X189400000Y-89550000D01*
X189400000Y-87850000D02*
X189400000Y-87750000D01*
X200400000Y-87850000D02*
X200400000Y-87750000D01*
X196000000Y-86050000D02*
X200400000Y-86050000D01*
X200400000Y-89550000D02*
X196000000Y-89550000D01*
X196000000Y-87850000D02*
X196000000Y-87750000D01*
X187200000Y-87850000D02*
X187200000Y-87750000D01*
X182800000Y-86050000D02*
X187200000Y-86050000D01*
X187200000Y-89550000D02*
X182800000Y-89550000D01*
X182800000Y-87850000D02*
X182800000Y-87750000D01*
X180600000Y-87850000D02*
X180600000Y-87750000D01*
X176200000Y-86050000D02*
X180600000Y-86050000D01*
X180600000Y-89550000D02*
X176200000Y-89550000D01*
X176200000Y-87850000D02*
X176200000Y-87750000D01*
X197325000Y-79735000D02*
X199000000Y-79735000D01*
X197325000Y-79475000D02*
X197325000Y-79735000D01*
X194600000Y-79475000D02*
X197325000Y-79475000D01*
X191875000Y-79475000D02*
X191875000Y-79735000D01*
X194600000Y-79475000D02*
X191875000Y-79475000D01*
X197325000Y-84925000D02*
X197325000Y-84665000D01*
X194600000Y-84925000D02*
X197325000Y-84925000D01*
X191875000Y-84925000D02*
X191875000Y-84665000D01*
X194600000Y-84925000D02*
X191875000Y-84925000D01*
X203700000Y-72490000D02*
X197690000Y-72490000D01*
X201450000Y-79310000D02*
X197690000Y-79310000D01*
X197690000Y-72490000D02*
X197690000Y-73750000D01*
X197690000Y-79310000D02*
X197690000Y-78050000D01*
X202910000Y-87541422D02*
X202910000Y-88058578D01*
X201490000Y-87541422D02*
X201490000Y-88058578D01*
D10*
X162352380Y-79933333D02*
X161876190Y-79600000D01*
X162352380Y-79361904D02*
X161352380Y-79361904D01*
X161352380Y-79742857D01*
X161400000Y-79838095D01*
X161447619Y-79885714D01*
X161542857Y-79933333D01*
X161685714Y-79933333D01*
X161780952Y-79885714D01*
X161828571Y-79838095D01*
X161876190Y-79742857D01*
X161876190Y-79361904D01*
X162352380Y-80409523D02*
X162352380Y-80600000D01*
X162304761Y-80695238D01*
X162257142Y-80742857D01*
X162114285Y-80838095D01*
X161923809Y-80885714D01*
X161542857Y-80885714D01*
X161447619Y-80838095D01*
X161400000Y-80790476D01*
X161352380Y-80695238D01*
X161352380Y-80504761D01*
X161400000Y-80409523D01*
X161447619Y-80361904D01*
X161542857Y-80314285D01*
X161780952Y-80314285D01*
X161876190Y-80361904D01*
X161923809Y-80409523D01*
X161971428Y-80504761D01*
X161971428Y-80695238D01*
X161923809Y-80790476D01*
X161876190Y-80838095D01*
X161780952Y-80885714D01*
X163952380Y-80133333D02*
X163476190Y-79800000D01*
X163952380Y-79561904D02*
X162952380Y-79561904D01*
X162952380Y-79942857D01*
X163000000Y-80038095D01*
X163047619Y-80085714D01*
X163142857Y-80133333D01*
X163285714Y-80133333D01*
X163380952Y-80085714D01*
X163428571Y-80038095D01*
X163476190Y-79942857D01*
X163476190Y-79561904D01*
X163380952Y-80704761D02*
X163333333Y-80609523D01*
X163285714Y-80561904D01*
X163190476Y-80514285D01*
X163142857Y-80514285D01*
X163047619Y-80561904D01*
X163000000Y-80609523D01*
X162952380Y-80704761D01*
X162952380Y-80895238D01*
X163000000Y-80990476D01*
X163047619Y-81038095D01*
X163142857Y-81085714D01*
X163190476Y-81085714D01*
X163285714Y-81038095D01*
X163333333Y-80990476D01*
X163380952Y-80895238D01*
X163380952Y-80704761D01*
X163428571Y-80609523D01*
X163476190Y-80561904D01*
X163571428Y-80514285D01*
X163761904Y-80514285D01*
X163857142Y-80561904D01*
X163904761Y-80609523D01*
X163952380Y-80704761D01*
X163952380Y-80895238D01*
X163904761Y-80990476D01*
X163857142Y-81038095D01*
X163761904Y-81085714D01*
X163571428Y-81085714D01*
X163476190Y-81038095D01*
X163428571Y-80990476D01*
X163380952Y-80895238D01*
X160152380Y-81038095D02*
X160152380Y-81609523D01*
X161152380Y-81323809D02*
X160152380Y-81323809D01*
X161152380Y-82514285D02*
X160676190Y-82180952D01*
X161152380Y-81942857D02*
X160152380Y-81942857D01*
X160152380Y-82323809D01*
X160200000Y-82419047D01*
X160247619Y-82466666D01*
X160342857Y-82514285D01*
X160485714Y-82514285D01*
X160580952Y-82466666D01*
X160628571Y-82419047D01*
X160676190Y-82323809D01*
X160676190Y-81942857D01*
X161152380Y-83466666D02*
X161152380Y-82895238D01*
X161152380Y-83180952D02*
X160152380Y-83180952D01*
X160295238Y-83085714D01*
X160390476Y-82990476D01*
X160438095Y-82895238D01*
X161550000Y-87289285D02*
X161550000Y-87825000D01*
X161585714Y-87932142D01*
X161657142Y-88003571D01*
X161764285Y-88039285D01*
X161835714Y-88039285D01*
X160835714Y-87289285D02*
X161192857Y-87289285D01*
X161228571Y-87646428D01*
X161192857Y-87610714D01*
X161121428Y-87575000D01*
X160942857Y-87575000D01*
X160871428Y-87610714D01*
X160835714Y-87646428D01*
X160800000Y-87717857D01*
X160800000Y-87896428D01*
X160835714Y-87967857D01*
X160871428Y-88003571D01*
X160942857Y-88039285D01*
X161121428Y-88039285D01*
X161192857Y-88003571D01*
X161228571Y-87967857D01*
X206938095Y-87052380D02*
X206938095Y-86052380D01*
X206700000Y-86052380D01*
X206557142Y-86100000D01*
X206461904Y-86195238D01*
X206414285Y-86290476D01*
X206366666Y-86480952D01*
X206366666Y-86623809D01*
X206414285Y-86814285D01*
X206461904Y-86909523D01*
X206557142Y-87004761D01*
X206700000Y-87052380D01*
X206938095Y-87052380D01*
X205414285Y-87052380D02*
X205985714Y-87052380D01*
X205700000Y-87052380D02*
X205700000Y-86052380D01*
X205795238Y-86195238D01*
X205890476Y-86290476D01*
X205985714Y-86338095D01*
X165233333Y-71352380D02*
X165233333Y-72066666D01*
X165280952Y-72209523D01*
X165376190Y-72304761D01*
X165519047Y-72352380D01*
X165614285Y-72352380D01*
X164852380Y-71352380D02*
X164233333Y-71352380D01*
X164566666Y-71733333D01*
X164423809Y-71733333D01*
X164328571Y-71780952D01*
X164280952Y-71828571D01*
X164233333Y-71923809D01*
X164233333Y-72161904D01*
X164280952Y-72257142D01*
X164328571Y-72304761D01*
X164423809Y-72352380D01*
X164709523Y-72352380D01*
X164804761Y-72304761D01*
X164852380Y-72257142D01*
X200766666Y-71957142D02*
X200814285Y-72004761D01*
X200957142Y-72052380D01*
X201052380Y-72052380D01*
X201195238Y-72004761D01*
X201290476Y-71909523D01*
X201338095Y-71814285D01*
X201385714Y-71623809D01*
X201385714Y-71480952D01*
X201338095Y-71290476D01*
X201290476Y-71195238D01*
X201195238Y-71100000D01*
X201052380Y-71052380D01*
X200957142Y-71052380D01*
X200814285Y-71100000D01*
X200766666Y-71147619D01*
X199909523Y-71385714D02*
X199909523Y-72052380D01*
X200147619Y-71004761D02*
X200385714Y-71719047D01*
X199766666Y-71719047D01*
X177566666Y-74587142D02*
X177614285Y-74634761D01*
X177757142Y-74682380D01*
X177852380Y-74682380D01*
X177995238Y-74634761D01*
X178090476Y-74539523D01*
X178138095Y-74444285D01*
X178185714Y-74253809D01*
X178185714Y-74110952D01*
X178138095Y-73920476D01*
X178090476Y-73825238D01*
X177995238Y-73730000D01*
X177852380Y-73682380D01*
X177757142Y-73682380D01*
X177614285Y-73730000D01*
X177566666Y-73777619D01*
X177185714Y-73777619D02*
X177138095Y-73730000D01*
X177042857Y-73682380D01*
X176804761Y-73682380D01*
X176709523Y-73730000D01*
X176661904Y-73777619D01*
X176614285Y-73872857D01*
X176614285Y-73968095D01*
X176661904Y-74110952D01*
X177233333Y-74682380D01*
X176614285Y-74682380D01*
X178187142Y-82833333D02*
X178234761Y-82785714D01*
X178282380Y-82642857D01*
X178282380Y-82547619D01*
X178234761Y-82404761D01*
X178139523Y-82309523D01*
X178044285Y-82261904D01*
X177853809Y-82214285D01*
X177710952Y-82214285D01*
X177520476Y-82261904D01*
X177425238Y-82309523D01*
X177330000Y-82404761D01*
X177282380Y-82547619D01*
X177282380Y-82642857D01*
X177330000Y-82785714D01*
X177377619Y-82833333D01*
X177282380Y-83166666D02*
X177282380Y-83785714D01*
X177663333Y-83452380D01*
X177663333Y-83595238D01*
X177710952Y-83690476D01*
X177758571Y-83738095D01*
X177853809Y-83785714D01*
X178091904Y-83785714D01*
X178187142Y-83738095D01*
X178234761Y-83690476D01*
X178282380Y-83595238D01*
X178282380Y-83309523D01*
X178234761Y-83214285D01*
X178187142Y-83166666D01*
X205657142Y-79733333D02*
X205704761Y-79685714D01*
X205752380Y-79542857D01*
X205752380Y-79447619D01*
X205704761Y-79304761D01*
X205609523Y-79209523D01*
X205514285Y-79161904D01*
X205323809Y-79114285D01*
X205180952Y-79114285D01*
X204990476Y-79161904D01*
X204895238Y-79209523D01*
X204800000Y-79304761D01*
X204752380Y-79447619D01*
X204752380Y-79542857D01*
X204800000Y-79685714D01*
X204847619Y-79733333D01*
X204752380Y-80638095D02*
X204752380Y-80161904D01*
X205228571Y-80114285D01*
X205180952Y-80161904D01*
X205133333Y-80257142D01*
X205133333Y-80495238D01*
X205180952Y-80590476D01*
X205228571Y-80638095D01*
X205323809Y-80685714D01*
X205561904Y-80685714D01*
X205657142Y-80638095D01*
X205704761Y-80590476D01*
X205752380Y-80495238D01*
X205752380Y-80257142D01*
X205704761Y-80161904D01*
X205657142Y-80114285D01*
X179566666Y-74987142D02*
X179614285Y-75034761D01*
X179757142Y-75082380D01*
X179852380Y-75082380D01*
X179995238Y-75034761D01*
X180090476Y-74939523D01*
X180138095Y-74844285D01*
X180185714Y-74653809D01*
X180185714Y-74510952D01*
X180138095Y-74320476D01*
X180090476Y-74225238D01*
X179995238Y-74130000D01*
X179852380Y-74082380D01*
X179757142Y-74082380D01*
X179614285Y-74130000D01*
X179566666Y-74177619D01*
X178709523Y-74082380D02*
X178900000Y-74082380D01*
X178995238Y-74130000D01*
X179042857Y-74177619D01*
X179138095Y-74320476D01*
X179185714Y-74510952D01*
X179185714Y-74891904D01*
X179138095Y-74987142D01*
X179090476Y-75034761D01*
X178995238Y-75082380D01*
X178804761Y-75082380D01*
X178709523Y-75034761D01*
X178661904Y-74987142D01*
X178614285Y-74891904D01*
X178614285Y-74653809D01*
X178661904Y-74558571D01*
X178709523Y-74510952D01*
X178804761Y-74463333D01*
X178995238Y-74463333D01*
X179090476Y-74510952D01*
X179138095Y-74558571D01*
X179185714Y-74653809D01*
X193625000Y-78367857D02*
X193660714Y-78403571D01*
X193767857Y-78439285D01*
X193839285Y-78439285D01*
X193946428Y-78403571D01*
X194017857Y-78332142D01*
X194053571Y-78260714D01*
X194089285Y-78117857D01*
X194089285Y-78010714D01*
X194053571Y-77867857D01*
X194017857Y-77796428D01*
X193946428Y-77725000D01*
X193839285Y-77689285D01*
X193767857Y-77689285D01*
X193660714Y-77725000D01*
X193625000Y-77760714D01*
X193375000Y-77689285D02*
X192875000Y-77689285D01*
X193196428Y-78439285D01*
X190566666Y-72557142D02*
X190614285Y-72604761D01*
X190757142Y-72652380D01*
X190852380Y-72652380D01*
X190995238Y-72604761D01*
X191090476Y-72509523D01*
X191138095Y-72414285D01*
X191185714Y-72223809D01*
X191185714Y-72080952D01*
X191138095Y-71890476D01*
X191090476Y-71795238D01*
X190995238Y-71700000D01*
X190852380Y-71652380D01*
X190757142Y-71652380D01*
X190614285Y-71700000D01*
X190566666Y-71747619D01*
X189995238Y-72080952D02*
X190090476Y-72033333D01*
X190138095Y-71985714D01*
X190185714Y-71890476D01*
X190185714Y-71842857D01*
X190138095Y-71747619D01*
X190090476Y-71700000D01*
X189995238Y-71652380D01*
X189804761Y-71652380D01*
X189709523Y-71700000D01*
X189661904Y-71747619D01*
X189614285Y-71842857D01*
X189614285Y-71890476D01*
X189661904Y-71985714D01*
X189709523Y-72033333D01*
X189804761Y-72080952D01*
X189995238Y-72080952D01*
X190090476Y-72128571D01*
X190138095Y-72176190D01*
X190185714Y-72271428D01*
X190185714Y-72461904D01*
X190138095Y-72557142D01*
X190090476Y-72604761D01*
X189995238Y-72652380D01*
X189804761Y-72652380D01*
X189709523Y-72604761D01*
X189661904Y-72557142D01*
X189614285Y-72461904D01*
X189614285Y-72271428D01*
X189661904Y-72176190D01*
X189709523Y-72128571D01*
X189804761Y-72080952D01*
X191142857Y-71257142D02*
X191190476Y-71304761D01*
X191333333Y-71352380D01*
X191428571Y-71352380D01*
X191571428Y-71304761D01*
X191666666Y-71209523D01*
X191714285Y-71114285D01*
X191761904Y-70923809D01*
X191761904Y-70780952D01*
X191714285Y-70590476D01*
X191666666Y-70495238D01*
X191571428Y-70400000D01*
X191428571Y-70352380D01*
X191333333Y-70352380D01*
X191190476Y-70400000D01*
X191142857Y-70447619D01*
X190190476Y-71352380D02*
X190761904Y-71352380D01*
X190476190Y-71352380D02*
X190476190Y-70352380D01*
X190571428Y-70495238D01*
X190666666Y-70590476D01*
X190761904Y-70638095D01*
X189571428Y-70352380D02*
X189476190Y-70352380D01*
X189380952Y-70400000D01*
X189333333Y-70447619D01*
X189285714Y-70542857D01*
X189238095Y-70733333D01*
X189238095Y-70971428D01*
X189285714Y-71161904D01*
X189333333Y-71257142D01*
X189380952Y-71304761D01*
X189476190Y-71352380D01*
X189571428Y-71352380D01*
X189666666Y-71304761D01*
X189714285Y-71257142D01*
X189761904Y-71161904D01*
X189809523Y-70971428D01*
X189809523Y-70733333D01*
X189761904Y-70542857D01*
X189714285Y-70447619D01*
X189666666Y-70400000D01*
X189571428Y-70352380D01*
X162542857Y-78857142D02*
X162590476Y-78904761D01*
X162733333Y-78952380D01*
X162828571Y-78952380D01*
X162971428Y-78904761D01*
X163066666Y-78809523D01*
X163114285Y-78714285D01*
X163161904Y-78523809D01*
X163161904Y-78380952D01*
X163114285Y-78190476D01*
X163066666Y-78095238D01*
X162971428Y-78000000D01*
X162828571Y-77952380D01*
X162733333Y-77952380D01*
X162590476Y-78000000D01*
X162542857Y-78047619D01*
X161590476Y-78952380D02*
X162161904Y-78952380D01*
X161876190Y-78952380D02*
X161876190Y-77952380D01*
X161971428Y-78095238D01*
X162066666Y-78190476D01*
X162161904Y-78238095D01*
X160733333Y-78285714D02*
X160733333Y-78952380D01*
X160971428Y-77904761D02*
X161209523Y-78619047D01*
X160590476Y-78619047D01*
X194142857Y-71757142D02*
X194190476Y-71804761D01*
X194333333Y-71852380D01*
X194428571Y-71852380D01*
X194571428Y-71804761D01*
X194666666Y-71709523D01*
X194714285Y-71614285D01*
X194761904Y-71423809D01*
X194761904Y-71280952D01*
X194714285Y-71090476D01*
X194666666Y-70995238D01*
X194571428Y-70900000D01*
X194428571Y-70852380D01*
X194333333Y-70852380D01*
X194190476Y-70900000D01*
X194142857Y-70947619D01*
X193190476Y-71852380D02*
X193761904Y-71852380D01*
X193476190Y-71852380D02*
X193476190Y-70852380D01*
X193571428Y-70995238D01*
X193666666Y-71090476D01*
X193761904Y-71138095D01*
X192285714Y-70852380D02*
X192761904Y-70852380D01*
X192809523Y-71328571D01*
X192761904Y-71280952D01*
X192666666Y-71233333D01*
X192428571Y-71233333D01*
X192333333Y-71280952D01*
X192285714Y-71328571D01*
X192238095Y-71423809D01*
X192238095Y-71661904D01*
X192285714Y-71757142D01*
X192333333Y-71804761D01*
X192428571Y-71852380D01*
X192666666Y-71852380D01*
X192761904Y-71804761D01*
X192809523Y-71757142D01*
X188282142Y-84667857D02*
X188317857Y-84703571D01*
X188425000Y-84739285D01*
X188496428Y-84739285D01*
X188603571Y-84703571D01*
X188675000Y-84632142D01*
X188710714Y-84560714D01*
X188746428Y-84417857D01*
X188746428Y-84310714D01*
X188710714Y-84167857D01*
X188675000Y-84096428D01*
X188603571Y-84025000D01*
X188496428Y-83989285D01*
X188425000Y-83989285D01*
X188317857Y-84025000D01*
X188282142Y-84060714D01*
X187567857Y-84739285D02*
X187996428Y-84739285D01*
X187782142Y-84739285D02*
X187782142Y-83989285D01*
X187853571Y-84096428D01*
X187925000Y-84167857D01*
X187996428Y-84203571D01*
X186925000Y-83989285D02*
X187067857Y-83989285D01*
X187139285Y-84025000D01*
X187175000Y-84060714D01*
X187246428Y-84167857D01*
X187282142Y-84310714D01*
X187282142Y-84596428D01*
X187246428Y-84667857D01*
X187210714Y-84703571D01*
X187139285Y-84739285D01*
X186996428Y-84739285D01*
X186925000Y-84703571D01*
X186889285Y-84667857D01*
X186853571Y-84596428D01*
X186853571Y-84417857D01*
X186889285Y-84346428D01*
X186925000Y-84310714D01*
X186996428Y-84275000D01*
X187139285Y-84275000D01*
X187210714Y-84310714D01*
X187246428Y-84346428D01*
X187282142Y-84417857D01*
X209252380Y-72933333D02*
X208776190Y-72600000D01*
X209252380Y-72361904D02*
X208252380Y-72361904D01*
X208252380Y-72742857D01*
X208300000Y-72838095D01*
X208347619Y-72885714D01*
X208442857Y-72933333D01*
X208585714Y-72933333D01*
X208680952Y-72885714D01*
X208728571Y-72838095D01*
X208776190Y-72742857D01*
X208776190Y-72361904D01*
X208252380Y-73790476D02*
X208252380Y-73600000D01*
X208300000Y-73504761D01*
X208347619Y-73457142D01*
X208490476Y-73361904D01*
X208680952Y-73314285D01*
X209061904Y-73314285D01*
X209157142Y-73361904D01*
X209204761Y-73409523D01*
X209252380Y-73504761D01*
X209252380Y-73695238D01*
X209204761Y-73790476D01*
X209157142Y-73838095D01*
X209061904Y-73885714D01*
X208823809Y-73885714D01*
X208728571Y-73838095D01*
X208680952Y-73790476D01*
X208633333Y-73695238D01*
X208633333Y-73504761D01*
X208680952Y-73409523D01*
X208728571Y-73361904D01*
X208823809Y-73314285D01*
X168442857Y-71452380D02*
X168776190Y-70976190D01*
X169014285Y-71452380D02*
X169014285Y-70452380D01*
X168633333Y-70452380D01*
X168538095Y-70500000D01*
X168490476Y-70547619D01*
X168442857Y-70642857D01*
X168442857Y-70785714D01*
X168490476Y-70880952D01*
X168538095Y-70928571D01*
X168633333Y-70976190D01*
X169014285Y-70976190D01*
X167490476Y-71452380D02*
X168061904Y-71452380D01*
X167776190Y-71452380D02*
X167776190Y-70452380D01*
X167871428Y-70595238D01*
X167966666Y-70690476D01*
X168061904Y-70738095D01*
X166585714Y-70452380D02*
X167061904Y-70452380D01*
X167109523Y-70928571D01*
X167061904Y-70880952D01*
X166966666Y-70833333D01*
X166728571Y-70833333D01*
X166633333Y-70880952D01*
X166585714Y-70928571D01*
X166538095Y-71023809D01*
X166538095Y-71261904D01*
X166585714Y-71357142D01*
X166633333Y-71404761D01*
X166728571Y-71452380D01*
X166966666Y-71452380D01*
X167061904Y-71404761D01*
X167109523Y-71357142D01*
X203566666Y-72152380D02*
X203900000Y-71676190D01*
X204138095Y-72152380D02*
X204138095Y-71152380D01*
X203757142Y-71152380D01*
X203661904Y-71200000D01*
X203614285Y-71247619D01*
X203566666Y-71342857D01*
X203566666Y-71485714D01*
X203614285Y-71580952D01*
X203661904Y-71628571D01*
X203757142Y-71676190D01*
X204138095Y-71676190D01*
X202614285Y-72152380D02*
X203185714Y-72152380D01*
X202900000Y-72152380D02*
X202900000Y-71152380D01*
X202995238Y-71295238D01*
X203090476Y-71390476D01*
X203185714Y-71438095D01*
X188561904Y-70952380D02*
X188561904Y-71761904D01*
X188514285Y-71857142D01*
X188466666Y-71904761D01*
X188371428Y-71952380D01*
X188180952Y-71952380D01*
X188085714Y-71904761D01*
X188038095Y-71857142D01*
X187990476Y-71761904D01*
X187990476Y-70952380D01*
X187609523Y-70952380D02*
X186990476Y-70952380D01*
X187323809Y-71333333D01*
X187180952Y-71333333D01*
X187085714Y-71380952D01*
X187038095Y-71428571D01*
X186990476Y-71523809D01*
X186990476Y-71761904D01*
X187038095Y-71857142D01*
X187085714Y-71904761D01*
X187180952Y-71952380D01*
X187466666Y-71952380D01*
X187561904Y-71904761D01*
X187609523Y-71857142D01*
X173876190Y-78623809D02*
X174352380Y-78623809D01*
X173352380Y-78290476D02*
X173876190Y-78623809D01*
X173352380Y-78957142D01*
X174352380Y-79814285D02*
X174352380Y-79242857D01*
X174352380Y-79528571D02*
X173352380Y-79528571D01*
X173495238Y-79433333D01*
X173590476Y-79338095D01*
X173638095Y-79242857D01*
X207633333Y-79752380D02*
X207633333Y-80466666D01*
X207680952Y-80609523D01*
X207776190Y-80704761D01*
X207919047Y-80752380D01*
X208014285Y-80752380D01*
X206728571Y-80085714D02*
X206728571Y-80752380D01*
X206966666Y-79704761D02*
X207204761Y-80419047D01*
X206585714Y-80419047D01*
X192833333Y-88204761D02*
X192690476Y-88252380D01*
X192452380Y-88252380D01*
X192357142Y-88204761D01*
X192309523Y-88157142D01*
X192261904Y-88061904D01*
X192261904Y-87966666D01*
X192309523Y-87871428D01*
X192357142Y-87823809D01*
X192452380Y-87776190D01*
X192642857Y-87728571D01*
X192738095Y-87680952D01*
X192785714Y-87633333D01*
X192833333Y-87538095D01*
X192833333Y-87442857D01*
X192785714Y-87347619D01*
X192738095Y-87300000D01*
X192642857Y-87252380D01*
X192404761Y-87252380D01*
X192261904Y-87300000D01*
X191928571Y-87252380D02*
X191690476Y-88252380D01*
X191500000Y-87538095D01*
X191309523Y-88252380D01*
X191071428Y-87252380D01*
X190261904Y-87585714D02*
X190261904Y-88252380D01*
X190500000Y-87204761D02*
X190738095Y-87919047D01*
X190119047Y-87919047D01*
X199533333Y-88204761D02*
X199390476Y-88252380D01*
X199152380Y-88252380D01*
X199057142Y-88204761D01*
X199009523Y-88157142D01*
X198961904Y-88061904D01*
X198961904Y-87966666D01*
X199009523Y-87871428D01*
X199057142Y-87823809D01*
X199152380Y-87776190D01*
X199342857Y-87728571D01*
X199438095Y-87680952D01*
X199485714Y-87633333D01*
X199533333Y-87538095D01*
X199533333Y-87442857D01*
X199485714Y-87347619D01*
X199438095Y-87300000D01*
X199342857Y-87252380D01*
X199104761Y-87252380D01*
X198961904Y-87300000D01*
X198628571Y-87252380D02*
X198390476Y-88252380D01*
X198200000Y-87538095D01*
X198009523Y-88252380D01*
X197771428Y-87252380D01*
X197485714Y-87252380D02*
X196866666Y-87252380D01*
X197200000Y-87633333D01*
X197057142Y-87633333D01*
X196961904Y-87680952D01*
X196914285Y-87728571D01*
X196866666Y-87823809D01*
X196866666Y-88061904D01*
X196914285Y-88157142D01*
X196961904Y-88204761D01*
X197057142Y-88252380D01*
X197342857Y-88252380D01*
X197438095Y-88204761D01*
X197485714Y-88157142D01*
X186183333Y-88204761D02*
X186040476Y-88252380D01*
X185802380Y-88252380D01*
X185707142Y-88204761D01*
X185659523Y-88157142D01*
X185611904Y-88061904D01*
X185611904Y-87966666D01*
X185659523Y-87871428D01*
X185707142Y-87823809D01*
X185802380Y-87776190D01*
X185992857Y-87728571D01*
X186088095Y-87680952D01*
X186135714Y-87633333D01*
X186183333Y-87538095D01*
X186183333Y-87442857D01*
X186135714Y-87347619D01*
X186088095Y-87300000D01*
X185992857Y-87252380D01*
X185754761Y-87252380D01*
X185611904Y-87300000D01*
X185278571Y-87252380D02*
X185040476Y-88252380D01*
X184850000Y-87538095D01*
X184659523Y-88252380D01*
X184421428Y-87252380D01*
X184088095Y-87347619D02*
X184040476Y-87300000D01*
X183945238Y-87252380D01*
X183707142Y-87252380D01*
X183611904Y-87300000D01*
X183564285Y-87347619D01*
X183516666Y-87442857D01*
X183516666Y-87538095D01*
X183564285Y-87680952D01*
X184135714Y-88252380D01*
X183516666Y-88252380D01*
X179533333Y-88204761D02*
X179390476Y-88252380D01*
X179152380Y-88252380D01*
X179057142Y-88204761D01*
X179009523Y-88157142D01*
X178961904Y-88061904D01*
X178961904Y-87966666D01*
X179009523Y-87871428D01*
X179057142Y-87823809D01*
X179152380Y-87776190D01*
X179342857Y-87728571D01*
X179438095Y-87680952D01*
X179485714Y-87633333D01*
X179533333Y-87538095D01*
X179533333Y-87442857D01*
X179485714Y-87347619D01*
X179438095Y-87300000D01*
X179342857Y-87252380D01*
X179104761Y-87252380D01*
X178961904Y-87300000D01*
X178628571Y-87252380D02*
X178390476Y-88252380D01*
X178200000Y-87538095D01*
X178009523Y-88252380D01*
X177771428Y-87252380D01*
X176866666Y-88252380D02*
X177438095Y-88252380D01*
X177152380Y-88252380D02*
X177152380Y-87252380D01*
X177247619Y-87395238D01*
X177342857Y-87490476D01*
X177438095Y-87538095D01*
X175650000Y-88989285D02*
X175650000Y-89525000D01*
X175685714Y-89632142D01*
X175757142Y-89703571D01*
X175864285Y-89739285D01*
X175935714Y-89739285D01*
X175328571Y-89060714D02*
X175292857Y-89025000D01*
X175221428Y-88989285D01*
X175042857Y-88989285D01*
X174971428Y-89025000D01*
X174935714Y-89060714D01*
X174900000Y-89132142D01*
X174900000Y-89203571D01*
X174935714Y-89310714D01*
X175364285Y-89739285D01*
X174900000Y-89739285D01*
X189661904Y-82252380D02*
X189661904Y-83061904D01*
X189614285Y-83157142D01*
X189566666Y-83204761D01*
X189471428Y-83252380D01*
X189280952Y-83252380D01*
X189185714Y-83204761D01*
X189138095Y-83157142D01*
X189090476Y-83061904D01*
X189090476Y-82252380D01*
X188661904Y-82347619D02*
X188614285Y-82300000D01*
X188519047Y-82252380D01*
X188280952Y-82252380D01*
X188185714Y-82300000D01*
X188138095Y-82347619D01*
X188090476Y-82442857D01*
X188090476Y-82538095D01*
X188138095Y-82680952D01*
X188709523Y-83252380D01*
X188090476Y-83252380D01*
X205561904Y-73752380D02*
X205561904Y-74561904D01*
X205514285Y-74657142D01*
X205466666Y-74704761D01*
X205371428Y-74752380D01*
X205180952Y-74752380D01*
X205085714Y-74704761D01*
X205038095Y-74657142D01*
X204990476Y-74561904D01*
X204990476Y-73752380D01*
X203990476Y-74752380D02*
X204561904Y-74752380D01*
X204276190Y-74752380D02*
X204276190Y-73752380D01*
X204371428Y-73895238D01*
X204466666Y-73990476D01*
X204561904Y-74038095D01*
X180752380Y-79933333D02*
X180276190Y-79600000D01*
X180752380Y-79361904D02*
X179752380Y-79361904D01*
X179752380Y-79742857D01*
X179800000Y-79838095D01*
X179847619Y-79885714D01*
X179942857Y-79933333D01*
X180085714Y-79933333D01*
X180180952Y-79885714D01*
X180228571Y-79838095D01*
X180276190Y-79742857D01*
X180276190Y-79361904D01*
X179752380Y-80838095D02*
X179752380Y-80361904D01*
X180228571Y-80314285D01*
X180180952Y-80361904D01*
X180133333Y-80457142D01*
X180133333Y-80695238D01*
X180180952Y-80790476D01*
X180228571Y-80838095D01*
X180323809Y-80885714D01*
X180561904Y-80885714D01*
X180657142Y-80838095D01*
X180704761Y-80790476D01*
X180752380Y-80695238D01*
X180752380Y-80457142D01*
X180704761Y-80361904D01*
X180657142Y-80314285D01*
X193425000Y-76339285D02*
X193675000Y-75982142D01*
X193853571Y-76339285D02*
X193853571Y-75589285D01*
X193567857Y-75589285D01*
X193496428Y-75625000D01*
X193460714Y-75660714D01*
X193425000Y-75732142D01*
X193425000Y-75839285D01*
X193460714Y-75910714D01*
X193496428Y-75946428D01*
X193567857Y-75982142D01*
X193853571Y-75982142D01*
X192782142Y-75839285D02*
X192782142Y-76339285D01*
X192960714Y-75553571D02*
X193139285Y-76089285D01*
X192675000Y-76089285D01*
X193525000Y-77439285D02*
X193775000Y-77082142D01*
X193953571Y-77439285D02*
X193953571Y-76689285D01*
X193667857Y-76689285D01*
X193596428Y-76725000D01*
X193560714Y-76760714D01*
X193525000Y-76832142D01*
X193525000Y-76939285D01*
X193560714Y-77010714D01*
X193596428Y-77046428D01*
X193667857Y-77082142D01*
X193953571Y-77082142D01*
X193275000Y-76689285D02*
X192810714Y-76689285D01*
X193060714Y-76975000D01*
X192953571Y-76975000D01*
X192882142Y-77010714D01*
X192846428Y-77046428D01*
X192810714Y-77117857D01*
X192810714Y-77296428D01*
X192846428Y-77367857D01*
X192882142Y-77403571D01*
X192953571Y-77439285D01*
X193167857Y-77439285D01*
X193239285Y-77403571D01*
X193275000Y-77367857D01*
X201566666Y-81852380D02*
X201900000Y-81376190D01*
X202138095Y-81852380D02*
X202138095Y-80852380D01*
X201757142Y-80852380D01*
X201661904Y-80900000D01*
X201614285Y-80947619D01*
X201566666Y-81042857D01*
X201566666Y-81185714D01*
X201614285Y-81280952D01*
X201661904Y-81328571D01*
X201757142Y-81376190D01*
X202138095Y-81376190D01*
X201185714Y-80947619D02*
X201138095Y-80900000D01*
X201042857Y-80852380D01*
X200804761Y-80852380D01*
X200709523Y-80900000D01*
X200661904Y-80947619D01*
X200614285Y-81042857D01*
X200614285Y-81138095D01*
X200661904Y-81280952D01*
X201233333Y-81852380D01*
X200614285Y-81852380D01*
X202757142Y-84633333D02*
X202804761Y-84585714D01*
X202852380Y-84442857D01*
X202852380Y-84347619D01*
X202804761Y-84204761D01*
X202709523Y-84109523D01*
X202614285Y-84061904D01*
X202423809Y-84014285D01*
X202280952Y-84014285D01*
X202090476Y-84061904D01*
X201995238Y-84109523D01*
X201900000Y-84204761D01*
X201852380Y-84347619D01*
X201852380Y-84442857D01*
X201900000Y-84585714D01*
X201947619Y-84633333D01*
X202852380Y-85585714D02*
X202852380Y-85014285D01*
X202852380Y-85300000D02*
X201852380Y-85300000D01*
X201995238Y-85204761D01*
X202090476Y-85109523D01*
X202138095Y-85014285D01*
M02*
