G04 #@! TF.GenerationSoftware,KiCad,Pcbnew,5.1.5+dfsg1-2build2*
G04 #@! TF.CreationDate,2021-07-26T09:56:11+01:00*
G04 #@! TF.ProjectId,picopak,7069636f-7061-46b2-9e6b-696361645f70,rev?*
G04 #@! TF.SameCoordinates,Original*
G04 #@! TF.FileFunction,Soldermask,Top*
G04 #@! TF.FilePolarity,Negative*
%FSLAX46Y46*%
G04 Gerber Fmt 4.6, Leading zero omitted, Abs format (unit mm)*
G04 Created by KiCad (PCBNEW 5.1.5+dfsg1-2build2) date 2021-07-26 09:56:11*
%MOMM*%
%LPD*%
G04 APERTURE LIST*
%ADD10C,0.100000*%
G04 APERTURE END LIST*
D10*
G36*
X205101000Y-87549001D02*
G01*
X205103402Y-87573387D01*
X205110515Y-87596836D01*
X205122066Y-87618447D01*
X205137611Y-87637389D01*
X205156553Y-87652934D01*
X205178164Y-87664485D01*
X205201613Y-87671598D01*
X205225999Y-87674000D01*
X208230868Y-87674000D01*
X208307899Y-87681587D01*
X208376071Y-87702266D01*
X208438896Y-87735847D01*
X208493962Y-87781038D01*
X208539153Y-87836104D01*
X208572734Y-87898929D01*
X208593413Y-87967101D01*
X208601000Y-88044132D01*
X208601000Y-88705868D01*
X208593413Y-88782899D01*
X208572734Y-88851071D01*
X208539153Y-88913896D01*
X208493962Y-88968962D01*
X208438896Y-89014153D01*
X208376071Y-89047734D01*
X208307899Y-89068413D01*
X208230868Y-89076000D01*
X206175999Y-89076000D01*
X206151613Y-89078402D01*
X206128164Y-89085515D01*
X206106553Y-89097066D01*
X206087611Y-89112611D01*
X206072066Y-89131553D01*
X206060515Y-89153164D01*
X206053402Y-89176613D01*
X206051000Y-89200999D01*
X206051000Y-89601000D01*
X203539000Y-89601000D01*
X203539000Y-87499000D01*
X205101000Y-87499000D01*
X205101000Y-87549001D01*
G37*
G36*
X173163512Y-87503927D02*
G01*
X173312812Y-87533624D01*
X173476784Y-87601544D01*
X173624354Y-87700147D01*
X173749853Y-87825646D01*
X173848456Y-87973216D01*
X173916376Y-88137188D01*
X173951000Y-88311259D01*
X173951000Y-88488741D01*
X173916376Y-88662812D01*
X173848456Y-88826784D01*
X173749853Y-88974354D01*
X173624354Y-89099853D01*
X173476784Y-89198456D01*
X173312812Y-89266376D01*
X173163512Y-89296073D01*
X173138742Y-89301000D01*
X172961258Y-89301000D01*
X172936488Y-89296073D01*
X172787188Y-89266376D01*
X172623216Y-89198456D01*
X172475646Y-89099853D01*
X172350147Y-88974354D01*
X172251544Y-88826784D01*
X172183624Y-88662812D01*
X172149000Y-88488741D01*
X172149000Y-88311259D01*
X172183624Y-88137188D01*
X172251544Y-87973216D01*
X172350147Y-87825646D01*
X172475646Y-87700147D01*
X172623216Y-87601544D01*
X172787188Y-87533624D01*
X172936488Y-87503927D01*
X172961258Y-87499000D01*
X173138742Y-87499000D01*
X173163512Y-87503927D01*
G37*
G36*
X170623512Y-87503927D02*
G01*
X170772812Y-87533624D01*
X170936784Y-87601544D01*
X171084354Y-87700147D01*
X171209853Y-87825646D01*
X171308456Y-87973216D01*
X171376376Y-88137188D01*
X171411000Y-88311259D01*
X171411000Y-88488741D01*
X171376376Y-88662812D01*
X171308456Y-88826784D01*
X171209853Y-88974354D01*
X171084354Y-89099853D01*
X170936784Y-89198456D01*
X170772812Y-89266376D01*
X170623512Y-89296073D01*
X170598742Y-89301000D01*
X170421258Y-89301000D01*
X170396488Y-89296073D01*
X170247188Y-89266376D01*
X170083216Y-89198456D01*
X169935646Y-89099853D01*
X169810147Y-88974354D01*
X169711544Y-88826784D01*
X169643624Y-88662812D01*
X169609000Y-88488741D01*
X169609000Y-88311259D01*
X169643624Y-88137188D01*
X169711544Y-87973216D01*
X169810147Y-87825646D01*
X169935646Y-87700147D01*
X170083216Y-87601544D01*
X170247188Y-87533624D01*
X170396488Y-87503927D01*
X170421258Y-87499000D01*
X170598742Y-87499000D01*
X170623512Y-87503927D01*
G37*
G36*
X208901000Y-87376000D02*
G01*
X206299000Y-87376000D01*
X206299000Y-85849000D01*
X208901000Y-85849000D01*
X208901000Y-87376000D01*
G37*
G36*
X177426000Y-87201000D02*
G01*
X175874000Y-87201000D01*
X175874000Y-80799000D01*
X177426000Y-80799000D01*
X177426000Y-87201000D01*
G37*
G36*
X183326000Y-87201000D02*
G01*
X181774000Y-87201000D01*
X181774000Y-80799000D01*
X183326000Y-80799000D01*
X183326000Y-87201000D01*
G37*
G36*
X205451000Y-87201000D02*
G01*
X203599000Y-87201000D01*
X203599000Y-84099000D01*
X205451000Y-84099000D01*
X205451000Y-87201000D01*
G37*
G36*
X173163512Y-84963927D02*
G01*
X173312812Y-84993624D01*
X173476784Y-85061544D01*
X173624354Y-85160147D01*
X173749853Y-85285646D01*
X173848456Y-85433216D01*
X173916376Y-85597188D01*
X173951000Y-85771259D01*
X173951000Y-85948741D01*
X173916376Y-86122812D01*
X173848456Y-86286784D01*
X173749853Y-86434354D01*
X173624354Y-86559853D01*
X173476784Y-86658456D01*
X173312812Y-86726376D01*
X173163512Y-86756073D01*
X173138742Y-86761000D01*
X172961258Y-86761000D01*
X172936488Y-86756073D01*
X172787188Y-86726376D01*
X172623216Y-86658456D01*
X172475646Y-86559853D01*
X172350147Y-86434354D01*
X172251544Y-86286784D01*
X172183624Y-86122812D01*
X172149000Y-85948741D01*
X172149000Y-85771259D01*
X172183624Y-85597188D01*
X172251544Y-85433216D01*
X172350147Y-85285646D01*
X172475646Y-85160147D01*
X172623216Y-85061544D01*
X172787188Y-84993624D01*
X172936488Y-84963927D01*
X172961258Y-84959000D01*
X173138742Y-84959000D01*
X173163512Y-84963927D01*
G37*
G36*
X170623512Y-84963927D02*
G01*
X170772812Y-84993624D01*
X170936784Y-85061544D01*
X171084354Y-85160147D01*
X171209853Y-85285646D01*
X171308456Y-85433216D01*
X171376376Y-85597188D01*
X171411000Y-85771259D01*
X171411000Y-85948741D01*
X171376376Y-86122812D01*
X171308456Y-86286784D01*
X171209853Y-86434354D01*
X171084354Y-86559853D01*
X170936784Y-86658456D01*
X170772812Y-86726376D01*
X170623512Y-86756073D01*
X170598742Y-86761000D01*
X170421258Y-86761000D01*
X170396488Y-86756073D01*
X170247188Y-86726376D01*
X170083216Y-86658456D01*
X169935646Y-86559853D01*
X169810147Y-86434354D01*
X169711544Y-86286784D01*
X169643624Y-86122812D01*
X169609000Y-85948741D01*
X169609000Y-85771259D01*
X169643624Y-85597188D01*
X169711544Y-85433216D01*
X169810147Y-85285646D01*
X169935646Y-85160147D01*
X170083216Y-85061544D01*
X170247188Y-84993624D01*
X170396488Y-84963927D01*
X170421258Y-84959000D01*
X170598742Y-84959000D01*
X170623512Y-84963927D01*
G37*
G36*
X208901000Y-85451000D02*
G01*
X206299000Y-85451000D01*
X206299000Y-83924000D01*
X208901000Y-83924000D01*
X208901000Y-85451000D01*
G37*
G36*
X170623512Y-82423927D02*
G01*
X170772812Y-82453624D01*
X170936784Y-82521544D01*
X171084354Y-82620147D01*
X171209853Y-82745646D01*
X171308456Y-82893216D01*
X171376376Y-83057188D01*
X171411000Y-83231259D01*
X171411000Y-83408741D01*
X171376376Y-83582812D01*
X171308456Y-83746784D01*
X171209853Y-83894354D01*
X171084354Y-84019853D01*
X170936784Y-84118456D01*
X170772812Y-84186376D01*
X170623512Y-84216073D01*
X170598742Y-84221000D01*
X170421258Y-84221000D01*
X170396488Y-84216073D01*
X170247188Y-84186376D01*
X170083216Y-84118456D01*
X169935646Y-84019853D01*
X169810147Y-83894354D01*
X169711544Y-83746784D01*
X169643624Y-83582812D01*
X169609000Y-83408741D01*
X169609000Y-83231259D01*
X169643624Y-83057188D01*
X169711544Y-82893216D01*
X169810147Y-82745646D01*
X169935646Y-82620147D01*
X170083216Y-82521544D01*
X170247188Y-82453624D01*
X170396488Y-82423927D01*
X170421258Y-82419000D01*
X170598742Y-82419000D01*
X170623512Y-82423927D01*
G37*
G36*
X173163512Y-82423927D02*
G01*
X173312812Y-82453624D01*
X173476784Y-82521544D01*
X173624354Y-82620147D01*
X173749853Y-82745646D01*
X173848456Y-82893216D01*
X173916376Y-83057188D01*
X173951000Y-83231259D01*
X173951000Y-83408741D01*
X173916376Y-83582812D01*
X173848456Y-83746784D01*
X173749853Y-83894354D01*
X173624354Y-84019853D01*
X173476784Y-84118456D01*
X173312812Y-84186376D01*
X173163512Y-84216073D01*
X173138742Y-84221000D01*
X172961258Y-84221000D01*
X172936488Y-84216073D01*
X172787188Y-84186376D01*
X172623216Y-84118456D01*
X172475646Y-84019853D01*
X172350147Y-83894354D01*
X172251544Y-83746784D01*
X172183624Y-83582812D01*
X172149000Y-83408741D01*
X172149000Y-83231259D01*
X172183624Y-83057188D01*
X172251544Y-82893216D01*
X172350147Y-82745646D01*
X172475646Y-82620147D01*
X172623216Y-82521544D01*
X172787188Y-82453624D01*
X172936488Y-82423927D01*
X172961258Y-82419000D01*
X173138742Y-82419000D01*
X173163512Y-82423927D01*
G37*
G36*
X206051000Y-82099001D02*
G01*
X206053402Y-82123387D01*
X206060515Y-82146836D01*
X206072066Y-82168447D01*
X206087611Y-82187389D01*
X206106553Y-82202934D01*
X206128164Y-82214485D01*
X206151613Y-82221598D01*
X206175999Y-82224000D01*
X208230868Y-82224000D01*
X208307899Y-82231587D01*
X208376071Y-82252266D01*
X208438896Y-82285847D01*
X208493962Y-82331038D01*
X208539153Y-82386104D01*
X208572734Y-82448929D01*
X208593413Y-82517101D01*
X208601000Y-82594132D01*
X208601000Y-83255868D01*
X208593413Y-83332899D01*
X208572734Y-83401071D01*
X208539153Y-83463896D01*
X208493962Y-83518962D01*
X208438896Y-83564153D01*
X208376071Y-83597734D01*
X208307899Y-83618413D01*
X208230868Y-83626000D01*
X205225999Y-83626000D01*
X205201613Y-83628402D01*
X205178164Y-83635515D01*
X205156553Y-83647066D01*
X205137611Y-83662611D01*
X205122066Y-83681553D01*
X205110515Y-83703164D01*
X205103402Y-83726613D01*
X205101000Y-83750999D01*
X205101000Y-83801000D01*
X203539000Y-83801000D01*
X203539000Y-81699000D01*
X206051000Y-81699000D01*
X206051000Y-82099001D01*
G37*
G36*
X187301000Y-81951000D02*
G01*
X185999000Y-81951000D01*
X185999000Y-79649000D01*
X187301000Y-79649000D01*
X187301000Y-81951000D01*
G37*
G36*
X202801000Y-81951000D02*
G01*
X201499000Y-81951000D01*
X201499000Y-79649000D01*
X202801000Y-79649000D01*
X202801000Y-81951000D01*
G37*
G36*
X173163512Y-79883927D02*
G01*
X173312812Y-79913624D01*
X173476784Y-79981544D01*
X173624354Y-80080147D01*
X173749853Y-80205646D01*
X173848456Y-80353216D01*
X173916376Y-80517188D01*
X173951000Y-80691259D01*
X173951000Y-80868741D01*
X173916376Y-81042812D01*
X173848456Y-81206784D01*
X173749853Y-81354354D01*
X173624354Y-81479853D01*
X173476784Y-81578456D01*
X173312812Y-81646376D01*
X173163512Y-81676073D01*
X173138742Y-81681000D01*
X172961258Y-81681000D01*
X172936488Y-81676073D01*
X172787188Y-81646376D01*
X172623216Y-81578456D01*
X172475646Y-81479853D01*
X172350147Y-81354354D01*
X172251544Y-81206784D01*
X172183624Y-81042812D01*
X172149000Y-80868741D01*
X172149000Y-80691259D01*
X172183624Y-80517188D01*
X172251544Y-80353216D01*
X172350147Y-80205646D01*
X172475646Y-80080147D01*
X172623216Y-79981544D01*
X172787188Y-79913624D01*
X172936488Y-79883927D01*
X172961258Y-79879000D01*
X173138742Y-79879000D01*
X173163512Y-79883927D01*
G37*
G36*
X170623512Y-79883927D02*
G01*
X170772812Y-79913624D01*
X170936784Y-79981544D01*
X171084354Y-80080147D01*
X171209853Y-80205646D01*
X171308456Y-80353216D01*
X171376376Y-80517188D01*
X171411000Y-80691259D01*
X171411000Y-80868741D01*
X171376376Y-81042812D01*
X171308456Y-81206784D01*
X171209853Y-81354354D01*
X171084354Y-81479853D01*
X170936784Y-81578456D01*
X170772812Y-81646376D01*
X170623512Y-81676073D01*
X170598742Y-81681000D01*
X170421258Y-81681000D01*
X170396488Y-81676073D01*
X170247188Y-81646376D01*
X170083216Y-81578456D01*
X169935646Y-81479853D01*
X169810147Y-81354354D01*
X169711544Y-81206784D01*
X169643624Y-81042812D01*
X169609000Y-80868741D01*
X169609000Y-80691259D01*
X169643624Y-80517188D01*
X169711544Y-80353216D01*
X169810147Y-80205646D01*
X169935646Y-80080147D01*
X170083216Y-79981544D01*
X170247188Y-79913624D01*
X170396488Y-79883927D01*
X170421258Y-79879000D01*
X170598742Y-79879000D01*
X170623512Y-79883927D01*
G37*
G36*
X208537142Y-78363242D02*
G01*
X208685101Y-78424529D01*
X208818255Y-78513499D01*
X208931501Y-78626745D01*
X209020471Y-78759899D01*
X209081758Y-78907858D01*
X209113000Y-79064925D01*
X209113000Y-79225075D01*
X209081758Y-79382142D01*
X209020471Y-79530101D01*
X208931501Y-79663255D01*
X208818255Y-79776501D01*
X208685101Y-79865471D01*
X208537142Y-79926758D01*
X208380075Y-79958000D01*
X208219925Y-79958000D01*
X208062858Y-79926758D01*
X207914899Y-79865471D01*
X207781745Y-79776501D01*
X207668499Y-79663255D01*
X207579529Y-79530101D01*
X207518242Y-79382142D01*
X207487000Y-79225075D01*
X207487000Y-79064925D01*
X207518242Y-78907858D01*
X207579529Y-78759899D01*
X207668499Y-78626745D01*
X207781745Y-78513499D01*
X207914899Y-78424529D01*
X208062858Y-78363242D01*
X208219925Y-78332000D01*
X208380075Y-78332000D01*
X208537142Y-78363242D01*
G37*
G36*
X173163512Y-77343927D02*
G01*
X173312812Y-77373624D01*
X173476784Y-77441544D01*
X173624354Y-77540147D01*
X173749853Y-77665646D01*
X173848456Y-77813216D01*
X173916376Y-77977188D01*
X173951000Y-78151259D01*
X173951000Y-78328741D01*
X173916376Y-78502812D01*
X173848456Y-78666784D01*
X173749853Y-78814354D01*
X173624354Y-78939853D01*
X173476784Y-79038456D01*
X173312812Y-79106376D01*
X173163512Y-79136073D01*
X173138742Y-79141000D01*
X172961258Y-79141000D01*
X172936488Y-79136073D01*
X172787188Y-79106376D01*
X172623216Y-79038456D01*
X172475646Y-78939853D01*
X172350147Y-78814354D01*
X172251544Y-78666784D01*
X172183624Y-78502812D01*
X172149000Y-78328741D01*
X172149000Y-78151259D01*
X172183624Y-77977188D01*
X172251544Y-77813216D01*
X172350147Y-77665646D01*
X172475646Y-77540147D01*
X172623216Y-77441544D01*
X172787188Y-77373624D01*
X172936488Y-77343927D01*
X172961258Y-77339000D01*
X173138742Y-77339000D01*
X173163512Y-77343927D01*
G37*
G36*
X170623512Y-77343927D02*
G01*
X170772812Y-77373624D01*
X170936784Y-77441544D01*
X171084354Y-77540147D01*
X171209853Y-77665646D01*
X171308456Y-77813216D01*
X171376376Y-77977188D01*
X171411000Y-78151259D01*
X171411000Y-78328741D01*
X171376376Y-78502812D01*
X171308456Y-78666784D01*
X171209853Y-78814354D01*
X171084354Y-78939853D01*
X170936784Y-79038456D01*
X170772812Y-79106376D01*
X170623512Y-79136073D01*
X170598742Y-79141000D01*
X170421258Y-79141000D01*
X170396488Y-79136073D01*
X170247188Y-79106376D01*
X170083216Y-79038456D01*
X169935646Y-78939853D01*
X169810147Y-78814354D01*
X169711544Y-78666784D01*
X169643624Y-78502812D01*
X169609000Y-78328741D01*
X169609000Y-78151259D01*
X169643624Y-77977188D01*
X169711544Y-77813216D01*
X169810147Y-77665646D01*
X169935646Y-77540147D01*
X170083216Y-77441544D01*
X170247188Y-77373624D01*
X170396488Y-77343927D01*
X170421258Y-77339000D01*
X170598742Y-77339000D01*
X170623512Y-77343927D01*
G37*
G36*
X183326000Y-78001000D02*
G01*
X181774000Y-78001000D01*
X181774000Y-71599000D01*
X183326000Y-71599000D01*
X183326000Y-78001000D01*
G37*
G36*
X177426000Y-78001000D02*
G01*
X175874000Y-78001000D01*
X175874000Y-71599000D01*
X177426000Y-71599000D01*
X177426000Y-78001000D01*
G37*
G36*
X208537142Y-75823242D02*
G01*
X208685101Y-75884529D01*
X208818255Y-75973499D01*
X208931501Y-76086745D01*
X209020471Y-76219899D01*
X209081758Y-76367858D01*
X209113000Y-76524925D01*
X209113000Y-76685075D01*
X209081758Y-76842142D01*
X209020471Y-76990101D01*
X208931501Y-77123255D01*
X208818255Y-77236501D01*
X208685101Y-77325471D01*
X208537142Y-77386758D01*
X208380075Y-77418000D01*
X208219925Y-77418000D01*
X208062858Y-77386758D01*
X207914899Y-77325471D01*
X207781745Y-77236501D01*
X207668499Y-77123255D01*
X207579529Y-76990101D01*
X207518242Y-76842142D01*
X207487000Y-76685075D01*
X207487000Y-76524925D01*
X207518242Y-76367858D01*
X207579529Y-76219899D01*
X207668499Y-76086745D01*
X207781745Y-75973499D01*
X207914899Y-75884529D01*
X208062858Y-75823242D01*
X208219925Y-75792000D01*
X208380075Y-75792000D01*
X208537142Y-75823242D01*
G37*
G36*
X173163512Y-74803927D02*
G01*
X173312812Y-74833624D01*
X173476784Y-74901544D01*
X173624354Y-75000147D01*
X173749853Y-75125646D01*
X173848456Y-75273216D01*
X173916376Y-75437188D01*
X173951000Y-75611259D01*
X173951000Y-75788741D01*
X173916376Y-75962812D01*
X173848456Y-76126784D01*
X173749853Y-76274354D01*
X173624354Y-76399853D01*
X173476784Y-76498456D01*
X173312812Y-76566376D01*
X173163512Y-76596073D01*
X173138742Y-76601000D01*
X172961258Y-76601000D01*
X172936488Y-76596073D01*
X172787188Y-76566376D01*
X172623216Y-76498456D01*
X172475646Y-76399853D01*
X172350147Y-76274354D01*
X172251544Y-76126784D01*
X172183624Y-75962812D01*
X172149000Y-75788741D01*
X172149000Y-75611259D01*
X172183624Y-75437188D01*
X172251544Y-75273216D01*
X172350147Y-75125646D01*
X172475646Y-75000147D01*
X172623216Y-74901544D01*
X172787188Y-74833624D01*
X172936488Y-74803927D01*
X172961258Y-74799000D01*
X173138742Y-74799000D01*
X173163512Y-74803927D01*
G37*
G36*
X170623512Y-74803927D02*
G01*
X170772812Y-74833624D01*
X170936784Y-74901544D01*
X171084354Y-75000147D01*
X171209853Y-75125646D01*
X171308456Y-75273216D01*
X171376376Y-75437188D01*
X171411000Y-75611259D01*
X171411000Y-75788741D01*
X171376376Y-75962812D01*
X171308456Y-76126784D01*
X171209853Y-76274354D01*
X171084354Y-76399853D01*
X170936784Y-76498456D01*
X170772812Y-76566376D01*
X170623512Y-76596073D01*
X170598742Y-76601000D01*
X170421258Y-76601000D01*
X170396488Y-76596073D01*
X170247188Y-76566376D01*
X170083216Y-76498456D01*
X169935646Y-76399853D01*
X169810147Y-76274354D01*
X169711544Y-76126784D01*
X169643624Y-75962812D01*
X169609000Y-75788741D01*
X169609000Y-75611259D01*
X169643624Y-75437188D01*
X169711544Y-75273216D01*
X169810147Y-75125646D01*
X169935646Y-75000147D01*
X170083216Y-74901544D01*
X170247188Y-74833624D01*
X170396488Y-74803927D01*
X170421258Y-74799000D01*
X170598742Y-74799000D01*
X170623512Y-74803927D01*
G37*
G36*
X208537142Y-73283242D02*
G01*
X208685101Y-73344529D01*
X208818255Y-73433499D01*
X208931501Y-73546745D01*
X209020471Y-73679899D01*
X209081758Y-73827858D01*
X209113000Y-73984925D01*
X209113000Y-74145075D01*
X209081758Y-74302142D01*
X209020471Y-74450101D01*
X208931501Y-74583255D01*
X208818255Y-74696501D01*
X208685101Y-74785471D01*
X208537142Y-74846758D01*
X208380075Y-74878000D01*
X208219925Y-74878000D01*
X208062858Y-74846758D01*
X207914899Y-74785471D01*
X207781745Y-74696501D01*
X207668499Y-74583255D01*
X207579529Y-74450101D01*
X207518242Y-74302142D01*
X207487000Y-74145075D01*
X207487000Y-73984925D01*
X207518242Y-73827858D01*
X207579529Y-73679899D01*
X207668499Y-73546745D01*
X207781745Y-73433499D01*
X207914899Y-73344529D01*
X208062858Y-73283242D01*
X208219925Y-73252000D01*
X208380075Y-73252000D01*
X208537142Y-73283242D01*
G37*
G36*
X173163512Y-72263927D02*
G01*
X173312812Y-72293624D01*
X173476784Y-72361544D01*
X173624354Y-72460147D01*
X173749853Y-72585646D01*
X173848456Y-72733216D01*
X173916376Y-72897188D01*
X173951000Y-73071259D01*
X173951000Y-73248741D01*
X173916376Y-73422812D01*
X173848456Y-73586784D01*
X173749853Y-73734354D01*
X173624354Y-73859853D01*
X173476784Y-73958456D01*
X173312812Y-74026376D01*
X173163512Y-74056073D01*
X173138742Y-74061000D01*
X172961258Y-74061000D01*
X172936488Y-74056073D01*
X172787188Y-74026376D01*
X172623216Y-73958456D01*
X172475646Y-73859853D01*
X172350147Y-73734354D01*
X172251544Y-73586784D01*
X172183624Y-73422812D01*
X172149000Y-73248741D01*
X172149000Y-73071259D01*
X172183624Y-72897188D01*
X172251544Y-72733216D01*
X172350147Y-72585646D01*
X172475646Y-72460147D01*
X172623216Y-72361544D01*
X172787188Y-72293624D01*
X172936488Y-72263927D01*
X172961258Y-72259000D01*
X173138742Y-72259000D01*
X173163512Y-72263927D01*
G37*
G36*
X170623512Y-72263927D02*
G01*
X170772812Y-72293624D01*
X170936784Y-72361544D01*
X171084354Y-72460147D01*
X171209853Y-72585646D01*
X171308456Y-72733216D01*
X171376376Y-72897188D01*
X171411000Y-73071259D01*
X171411000Y-73248741D01*
X171376376Y-73422812D01*
X171308456Y-73586784D01*
X171209853Y-73734354D01*
X171084354Y-73859853D01*
X170936784Y-73958456D01*
X170772812Y-74026376D01*
X170623512Y-74056073D01*
X170598742Y-74061000D01*
X170421258Y-74061000D01*
X170396488Y-74056073D01*
X170247188Y-74026376D01*
X170083216Y-73958456D01*
X169935646Y-73859853D01*
X169810147Y-73734354D01*
X169711544Y-73586784D01*
X169643624Y-73422812D01*
X169609000Y-73248741D01*
X169609000Y-73071259D01*
X169643624Y-72897188D01*
X169711544Y-72733216D01*
X169810147Y-72585646D01*
X169935646Y-72460147D01*
X170083216Y-72361544D01*
X170247188Y-72293624D01*
X170396488Y-72263927D01*
X170421258Y-72259000D01*
X170598742Y-72259000D01*
X170623512Y-72263927D01*
G37*
G36*
X208537142Y-70743242D02*
G01*
X208685101Y-70804529D01*
X208818255Y-70893499D01*
X208931501Y-71006745D01*
X209020471Y-71139899D01*
X209081758Y-71287858D01*
X209113000Y-71444925D01*
X209113000Y-71605075D01*
X209081758Y-71762142D01*
X209020471Y-71910101D01*
X208931501Y-72043255D01*
X208818255Y-72156501D01*
X208685101Y-72245471D01*
X208537142Y-72306758D01*
X208380075Y-72338000D01*
X208219925Y-72338000D01*
X208062858Y-72306758D01*
X207914899Y-72245471D01*
X207781745Y-72156501D01*
X207668499Y-72043255D01*
X207579529Y-71910101D01*
X207518242Y-71762142D01*
X207487000Y-71605075D01*
X207487000Y-71444925D01*
X207518242Y-71287858D01*
X207579529Y-71139899D01*
X207668499Y-71006745D01*
X207781745Y-70893499D01*
X207914899Y-70804529D01*
X208062858Y-70743242D01*
X208219925Y-70712000D01*
X208380075Y-70712000D01*
X208537142Y-70743242D01*
G37*
G36*
X202101000Y-71951000D02*
G01*
X200399000Y-71951000D01*
X200399000Y-70449000D01*
X202101000Y-70449000D01*
X202101000Y-71951000D01*
G37*
G36*
X188201000Y-71551000D02*
G01*
X187425999Y-71551000D01*
X187401613Y-71553402D01*
X187378164Y-71560515D01*
X187356553Y-71572066D01*
X187337611Y-71587611D01*
X187322066Y-71606553D01*
X187310515Y-71628164D01*
X187303402Y-71651613D01*
X187301000Y-71675999D01*
X187301000Y-71951000D01*
X185999000Y-71951000D01*
X185999000Y-70449000D01*
X187274001Y-70449000D01*
X187298387Y-70446598D01*
X187321836Y-70439485D01*
X187343447Y-70427934D01*
X187362389Y-70412389D01*
X187377934Y-70393447D01*
X187389485Y-70371836D01*
X187396598Y-70348387D01*
X187399000Y-70324001D01*
X187399000Y-69849000D01*
X188201000Y-69849000D01*
X188201000Y-71551000D01*
G37*
G36*
X173951000Y-71601000D02*
G01*
X172149000Y-71601000D01*
X172149000Y-69799000D01*
X173951000Y-69799000D01*
X173951000Y-71601000D01*
G37*
G36*
X190401000Y-71551000D02*
G01*
X189599000Y-71551000D01*
X189599000Y-69849000D01*
X190401000Y-69849000D01*
X190401000Y-71551000D01*
G37*
G36*
X197001000Y-71551000D02*
G01*
X196199000Y-71551000D01*
X196199000Y-69849000D01*
X197001000Y-69849000D01*
X197001000Y-71551000D01*
G37*
G36*
X195901000Y-71551000D02*
G01*
X195099000Y-71551000D01*
X195099000Y-69849000D01*
X195901000Y-69849000D01*
X195901000Y-71551000D01*
G37*
G36*
X194801000Y-71551000D02*
G01*
X193999000Y-71551000D01*
X193999000Y-69849000D01*
X194801000Y-69849000D01*
X194801000Y-71551000D01*
G37*
G36*
X193701000Y-71551000D02*
G01*
X192899000Y-71551000D01*
X192899000Y-69849000D01*
X193701000Y-69849000D01*
X193701000Y-71551000D01*
G37*
G36*
X192601000Y-71551000D02*
G01*
X191799000Y-71551000D01*
X191799000Y-69849000D01*
X192601000Y-69849000D01*
X192601000Y-71551000D01*
G37*
G36*
X191501000Y-71551000D02*
G01*
X190699000Y-71551000D01*
X190699000Y-69849000D01*
X191501000Y-69849000D01*
X191501000Y-71551000D01*
G37*
G36*
X189301000Y-71551000D02*
G01*
X188499000Y-71551000D01*
X188499000Y-69849000D01*
X189301000Y-69849000D01*
X189301000Y-71551000D01*
G37*
G36*
X170623512Y-69723927D02*
G01*
X170772812Y-69753624D01*
X170936784Y-69821544D01*
X171084354Y-69920147D01*
X171209853Y-70045646D01*
X171308456Y-70193216D01*
X171376376Y-70357188D01*
X171411000Y-70531259D01*
X171411000Y-70708741D01*
X171376376Y-70882812D01*
X171308456Y-71046784D01*
X171209853Y-71194354D01*
X171084354Y-71319853D01*
X170936784Y-71418456D01*
X170772812Y-71486376D01*
X170623512Y-71516073D01*
X170598742Y-71521000D01*
X170421258Y-71521000D01*
X170396488Y-71516073D01*
X170247188Y-71486376D01*
X170083216Y-71418456D01*
X169935646Y-71319853D01*
X169810147Y-71194354D01*
X169711544Y-71046784D01*
X169643624Y-70882812D01*
X169609000Y-70708741D01*
X169609000Y-70531259D01*
X169643624Y-70357188D01*
X169711544Y-70193216D01*
X169810147Y-70045646D01*
X169935646Y-69920147D01*
X170083216Y-69821544D01*
X170247188Y-69753624D01*
X170396488Y-69723927D01*
X170421258Y-69719000D01*
X170598742Y-69719000D01*
X170623512Y-69723927D01*
G37*
M02*
