G04 #@! TF.GenerationSoftware,KiCad,Pcbnew,5.1.5+dfsg1-2build2*
G04 #@! TF.CreationDate,2021-07-26T09:56:11+01:00*
G04 #@! TF.ProjectId,picopak,7069636f-7061-46b2-9e6b-696361645f70,rev?*
G04 #@! TF.SameCoordinates,Original*
G04 #@! TF.FileFunction,Soldermask,Bot*
G04 #@! TF.FilePolarity,Negative*
%FSLAX46Y46*%
G04 Gerber Fmt 4.6, Leading zero omitted, Abs format (unit mm)*
G04 Created by KiCad (PCBNEW 5.1.5+dfsg1-2build2) date 2021-07-26 09:56:11*
%MOMM*%
%LPD*%
G04 APERTURE LIST*
%ADD10C,0.100000*%
G04 APERTURE END LIST*
D10*
G36*
X173163512Y-87503927D02*
G01*
X173312812Y-87533624D01*
X173476784Y-87601544D01*
X173624354Y-87700147D01*
X173749853Y-87825646D01*
X173848456Y-87973216D01*
X173916376Y-88137188D01*
X173940801Y-88259983D01*
X173951000Y-88311258D01*
X173951000Y-88488742D01*
X173946290Y-88512420D01*
X173916376Y-88662812D01*
X173848456Y-88826784D01*
X173749853Y-88974354D01*
X173624354Y-89099853D01*
X173476784Y-89198456D01*
X173312812Y-89266376D01*
X173163512Y-89296073D01*
X173138742Y-89301000D01*
X172961258Y-89301000D01*
X172936488Y-89296073D01*
X172787188Y-89266376D01*
X172623216Y-89198456D01*
X172475646Y-89099853D01*
X172350147Y-88974354D01*
X172251544Y-88826784D01*
X172183624Y-88662812D01*
X172153710Y-88512420D01*
X172149000Y-88488742D01*
X172149000Y-88311258D01*
X172159199Y-88259983D01*
X172183624Y-88137188D01*
X172251544Y-87973216D01*
X172350147Y-87825646D01*
X172475646Y-87700147D01*
X172623216Y-87601544D01*
X172787188Y-87533624D01*
X172936488Y-87503927D01*
X172961258Y-87499000D01*
X173138742Y-87499000D01*
X173163512Y-87503927D01*
G37*
G36*
X170623512Y-87503927D02*
G01*
X170772812Y-87533624D01*
X170936784Y-87601544D01*
X171084354Y-87700147D01*
X171209853Y-87825646D01*
X171308456Y-87973216D01*
X171376376Y-88137188D01*
X171400801Y-88259983D01*
X171411000Y-88311258D01*
X171411000Y-88488742D01*
X171406290Y-88512420D01*
X171376376Y-88662812D01*
X171308456Y-88826784D01*
X171209853Y-88974354D01*
X171084354Y-89099853D01*
X170936784Y-89198456D01*
X170772812Y-89266376D01*
X170623512Y-89296073D01*
X170598742Y-89301000D01*
X170421258Y-89301000D01*
X170396488Y-89296073D01*
X170247188Y-89266376D01*
X170083216Y-89198456D01*
X169935646Y-89099853D01*
X169810147Y-88974354D01*
X169711544Y-88826784D01*
X169643624Y-88662812D01*
X169613710Y-88512420D01*
X169609000Y-88488742D01*
X169609000Y-88311258D01*
X169619199Y-88259983D01*
X169643624Y-88137188D01*
X169711544Y-87973216D01*
X169810147Y-87825646D01*
X169935646Y-87700147D01*
X170083216Y-87601544D01*
X170247188Y-87533624D01*
X170396488Y-87503927D01*
X170421258Y-87499000D01*
X170598742Y-87499000D01*
X170623512Y-87503927D01*
G37*
G36*
X202784468Y-88203565D02*
G01*
X202823138Y-88215296D01*
X202858777Y-88234346D01*
X202890017Y-88259983D01*
X202915654Y-88291223D01*
X202934704Y-88326862D01*
X202946435Y-88365532D01*
X202951000Y-88411888D01*
X202951000Y-89063112D01*
X202946435Y-89109468D01*
X202934704Y-89148138D01*
X202915654Y-89183777D01*
X202890017Y-89215017D01*
X202858777Y-89240654D01*
X202823138Y-89259704D01*
X202784468Y-89271435D01*
X202738112Y-89276000D01*
X201661888Y-89276000D01*
X201615532Y-89271435D01*
X201576862Y-89259704D01*
X201541223Y-89240654D01*
X201509983Y-89215017D01*
X201484346Y-89183777D01*
X201465296Y-89148138D01*
X201453565Y-89109468D01*
X201449000Y-89063112D01*
X201449000Y-88411888D01*
X201453565Y-88365532D01*
X201465296Y-88326862D01*
X201484346Y-88291223D01*
X201509983Y-88259983D01*
X201541223Y-88234346D01*
X201576862Y-88215296D01*
X201615532Y-88203565D01*
X201661888Y-88199000D01*
X202738112Y-88199000D01*
X202784468Y-88203565D01*
G37*
G36*
X194251000Y-89251000D02*
G01*
X193099000Y-89251000D01*
X193099000Y-88499000D01*
X194251000Y-88499000D01*
X194251000Y-89251000D01*
G37*
G36*
X181051000Y-89251000D02*
G01*
X179899000Y-89251000D01*
X179899000Y-88499000D01*
X181051000Y-88499000D01*
X181051000Y-89251000D01*
G37*
G36*
X176926000Y-89251000D02*
G01*
X175774000Y-89251000D01*
X175774000Y-88499000D01*
X176926000Y-88499000D01*
X176926000Y-89251000D01*
G37*
G36*
X187651000Y-89251000D02*
G01*
X186499000Y-89251000D01*
X186499000Y-88499000D01*
X187651000Y-88499000D01*
X187651000Y-89251000D01*
G37*
G36*
X200851000Y-89251000D02*
G01*
X199699000Y-89251000D01*
X199699000Y-88499000D01*
X200851000Y-88499000D01*
X200851000Y-89251000D01*
G37*
G36*
X196726000Y-89251000D02*
G01*
X195574000Y-89251000D01*
X195574000Y-88499000D01*
X196726000Y-88499000D01*
X196726000Y-89251000D01*
G37*
G36*
X190126000Y-89251000D02*
G01*
X188974000Y-89251000D01*
X188974000Y-88499000D01*
X190126000Y-88499000D01*
X190126000Y-89251000D01*
G37*
G36*
X183526000Y-89251000D02*
G01*
X182374000Y-89251000D01*
X182374000Y-88499000D01*
X183526000Y-88499000D01*
X183526000Y-89251000D01*
G37*
G36*
X207737421Y-87684143D02*
G01*
X207869557Y-87724227D01*
X207869559Y-87724228D01*
X207991339Y-87789320D01*
X208098080Y-87876920D01*
X208177110Y-87973218D01*
X208185679Y-87983660D01*
X208250773Y-88105443D01*
X208290857Y-88237579D01*
X208304391Y-88375000D01*
X208290857Y-88512421D01*
X208250773Y-88644557D01*
X208250772Y-88644559D01*
X208185680Y-88766339D01*
X208098080Y-88873080D01*
X207991339Y-88960680D01*
X207965758Y-88974353D01*
X207869557Y-89025773D01*
X207737421Y-89065857D01*
X207634432Y-89076000D01*
X207065568Y-89076000D01*
X206962579Y-89065857D01*
X206830443Y-89025773D01*
X206734242Y-88974353D01*
X206708661Y-88960680D01*
X206601920Y-88873080D01*
X206514320Y-88766339D01*
X206449228Y-88644559D01*
X206449227Y-88644557D01*
X206409143Y-88512421D01*
X206395609Y-88375000D01*
X206409143Y-88237579D01*
X206449227Y-88105443D01*
X206514321Y-87983660D01*
X206522891Y-87973218D01*
X206601920Y-87876920D01*
X206708661Y-87789320D01*
X206830441Y-87724228D01*
X206830443Y-87724227D01*
X206962579Y-87684143D01*
X207065568Y-87674000D01*
X207634432Y-87674000D01*
X207737421Y-87684143D01*
G37*
G36*
X204632916Y-87507334D02*
G01*
X204741492Y-87540271D01*
X204741495Y-87540272D01*
X204777601Y-87559571D01*
X204841557Y-87593756D01*
X204929264Y-87665736D01*
X205001244Y-87753443D01*
X205035429Y-87817399D01*
X205054728Y-87853505D01*
X205054729Y-87853508D01*
X205087666Y-87962084D01*
X205098787Y-88075000D01*
X205087666Y-88187916D01*
X205056327Y-88291223D01*
X205054728Y-88296495D01*
X205046837Y-88311258D01*
X205001244Y-88396557D01*
X204929264Y-88484264D01*
X204841557Y-88556244D01*
X204777601Y-88590429D01*
X204741495Y-88609728D01*
X204741492Y-88609729D01*
X204632916Y-88642666D01*
X204548298Y-88651000D01*
X204091702Y-88651000D01*
X204007084Y-88642666D01*
X203898508Y-88609729D01*
X203898505Y-88609728D01*
X203862399Y-88590429D01*
X203798443Y-88556244D01*
X203710736Y-88484264D01*
X203638756Y-88396557D01*
X203593163Y-88311258D01*
X203585272Y-88296495D01*
X203583673Y-88291223D01*
X203552334Y-88187916D01*
X203541213Y-88075000D01*
X203552334Y-87962084D01*
X203585271Y-87853508D01*
X203585272Y-87853505D01*
X203604571Y-87817399D01*
X203638756Y-87753443D01*
X203710736Y-87665736D01*
X203798443Y-87593756D01*
X203862399Y-87559571D01*
X203898505Y-87540272D01*
X203898508Y-87540271D01*
X204007084Y-87507334D01*
X204091702Y-87499000D01*
X204548298Y-87499000D01*
X204632916Y-87507334D01*
G37*
G36*
X202784468Y-86328565D02*
G01*
X202823138Y-86340296D01*
X202858777Y-86359346D01*
X202890017Y-86384983D01*
X202915654Y-86416223D01*
X202934704Y-86451862D01*
X202946435Y-86490532D01*
X202951000Y-86536888D01*
X202951000Y-87188112D01*
X202946435Y-87234468D01*
X202934704Y-87273138D01*
X202915654Y-87308777D01*
X202890017Y-87340017D01*
X202858777Y-87365654D01*
X202823138Y-87384704D01*
X202784468Y-87396435D01*
X202738112Y-87401000D01*
X201661888Y-87401000D01*
X201615532Y-87396435D01*
X201576862Y-87384704D01*
X201541223Y-87365654D01*
X201509983Y-87340017D01*
X201484346Y-87308777D01*
X201465296Y-87273138D01*
X201453565Y-87234468D01*
X201449000Y-87188112D01*
X201449000Y-86536888D01*
X201453565Y-86490532D01*
X201465296Y-86451862D01*
X201484346Y-86416223D01*
X201509983Y-86384983D01*
X201541223Y-86359346D01*
X201576862Y-86340296D01*
X201615532Y-86328565D01*
X201661888Y-86324000D01*
X202738112Y-86324000D01*
X202784468Y-86328565D01*
G37*
G36*
X194251000Y-87101000D02*
G01*
X193099000Y-87101000D01*
X193099000Y-86349000D01*
X194251000Y-86349000D01*
X194251000Y-87101000D01*
G37*
G36*
X176901000Y-87101000D02*
G01*
X175749000Y-87101000D01*
X175749000Y-86349000D01*
X176901000Y-86349000D01*
X176901000Y-87101000D01*
G37*
G36*
X183501000Y-87101000D02*
G01*
X182349000Y-87101000D01*
X182349000Y-86349000D01*
X183501000Y-86349000D01*
X183501000Y-87101000D01*
G37*
G36*
X181051000Y-87101000D02*
G01*
X179899000Y-87101000D01*
X179899000Y-86349000D01*
X181051000Y-86349000D01*
X181051000Y-87101000D01*
G37*
G36*
X196701000Y-87101000D02*
G01*
X195549000Y-87101000D01*
X195549000Y-86349000D01*
X196701000Y-86349000D01*
X196701000Y-87101000D01*
G37*
G36*
X187651000Y-87101000D02*
G01*
X186499000Y-87101000D01*
X186499000Y-86349000D01*
X187651000Y-86349000D01*
X187651000Y-87101000D01*
G37*
G36*
X190101000Y-87101000D02*
G01*
X188949000Y-87101000D01*
X188949000Y-86349000D01*
X190101000Y-86349000D01*
X190101000Y-87101000D01*
G37*
G36*
X200851000Y-87101000D02*
G01*
X199699000Y-87101000D01*
X199699000Y-86349000D01*
X200851000Y-86349000D01*
X200851000Y-87101000D01*
G37*
G36*
X173163512Y-84963927D02*
G01*
X173312812Y-84993624D01*
X173476784Y-85061544D01*
X173624354Y-85160147D01*
X173749853Y-85285646D01*
X173848456Y-85433216D01*
X173916376Y-85597188D01*
X173941113Y-85721553D01*
X173950949Y-85771000D01*
X173951000Y-85771259D01*
X173951000Y-85948741D01*
X173916376Y-86122812D01*
X173848456Y-86286784D01*
X173749853Y-86434354D01*
X173624354Y-86559853D01*
X173476784Y-86658456D01*
X173312812Y-86726376D01*
X173163512Y-86756073D01*
X173138742Y-86761000D01*
X172961258Y-86761000D01*
X172936488Y-86756073D01*
X172787188Y-86726376D01*
X172623216Y-86658456D01*
X172475646Y-86559853D01*
X172350147Y-86434354D01*
X172251544Y-86286784D01*
X172183624Y-86122812D01*
X172149000Y-85948741D01*
X172149000Y-85771259D01*
X172149052Y-85771000D01*
X172158887Y-85721553D01*
X172183624Y-85597188D01*
X172251544Y-85433216D01*
X172350147Y-85285646D01*
X172475646Y-85160147D01*
X172623216Y-85061544D01*
X172787188Y-84993624D01*
X172936488Y-84963927D01*
X172961258Y-84959000D01*
X173138742Y-84959000D01*
X173163512Y-84963927D01*
G37*
G36*
X170623512Y-84963927D02*
G01*
X170772812Y-84993624D01*
X170936784Y-85061544D01*
X171084354Y-85160147D01*
X171209853Y-85285646D01*
X171308456Y-85433216D01*
X171376376Y-85597188D01*
X171401113Y-85721553D01*
X171410949Y-85771000D01*
X171411000Y-85771259D01*
X171411000Y-85948741D01*
X171376376Y-86122812D01*
X171308456Y-86286784D01*
X171209853Y-86434354D01*
X171084354Y-86559853D01*
X170936784Y-86658456D01*
X170772812Y-86726376D01*
X170623512Y-86756073D01*
X170598742Y-86761000D01*
X170421258Y-86761000D01*
X170396488Y-86756073D01*
X170247188Y-86726376D01*
X170083216Y-86658456D01*
X169935646Y-86559853D01*
X169810147Y-86434354D01*
X169711544Y-86286784D01*
X169643624Y-86122812D01*
X169609000Y-85948741D01*
X169609000Y-85771259D01*
X169609052Y-85771000D01*
X169618887Y-85721553D01*
X169643624Y-85597188D01*
X169711544Y-85433216D01*
X169810147Y-85285646D01*
X169935646Y-85160147D01*
X170083216Y-85061544D01*
X170247188Y-84993624D01*
X170396488Y-84963927D01*
X170421258Y-84959000D01*
X170598742Y-84959000D01*
X170623512Y-84963927D01*
G37*
G36*
X189741938Y-85031716D02*
G01*
X189762557Y-85037971D01*
X189781553Y-85048124D01*
X189798208Y-85061792D01*
X189811876Y-85078447D01*
X189822029Y-85097443D01*
X189828284Y-85118062D01*
X189831000Y-85145640D01*
X189831000Y-85654360D01*
X189828284Y-85681938D01*
X189822029Y-85702557D01*
X189811876Y-85721553D01*
X189798208Y-85738208D01*
X189781553Y-85751876D01*
X189762557Y-85762029D01*
X189741938Y-85768284D01*
X189714360Y-85771000D01*
X189255640Y-85771000D01*
X189228062Y-85768284D01*
X189207443Y-85762029D01*
X189188447Y-85751876D01*
X189171792Y-85738208D01*
X189158124Y-85721553D01*
X189147971Y-85702557D01*
X189141716Y-85681938D01*
X189139000Y-85654360D01*
X189139000Y-85145640D01*
X189141716Y-85118062D01*
X189147971Y-85097443D01*
X189158124Y-85078447D01*
X189171792Y-85061792D01*
X189188447Y-85048124D01*
X189207443Y-85037971D01*
X189228062Y-85031716D01*
X189255640Y-85029000D01*
X189714360Y-85029000D01*
X189741938Y-85031716D01*
G37*
G36*
X188771938Y-85031716D02*
G01*
X188792557Y-85037971D01*
X188811553Y-85048124D01*
X188828208Y-85061792D01*
X188841876Y-85078447D01*
X188852029Y-85097443D01*
X188858284Y-85118062D01*
X188861000Y-85145640D01*
X188861000Y-85654360D01*
X188858284Y-85681938D01*
X188852029Y-85702557D01*
X188841876Y-85721553D01*
X188828208Y-85738208D01*
X188811553Y-85751876D01*
X188792557Y-85762029D01*
X188771938Y-85768284D01*
X188744360Y-85771000D01*
X188285640Y-85771000D01*
X188258062Y-85768284D01*
X188237443Y-85762029D01*
X188218447Y-85751876D01*
X188201792Y-85738208D01*
X188188124Y-85721553D01*
X188177971Y-85702557D01*
X188171716Y-85681938D01*
X188169000Y-85654360D01*
X188169000Y-85145640D01*
X188171716Y-85118062D01*
X188177971Y-85097443D01*
X188188124Y-85078447D01*
X188201792Y-85061792D01*
X188218447Y-85048124D01*
X188237443Y-85037971D01*
X188258062Y-85031716D01*
X188285640Y-85029000D01*
X188744360Y-85029000D01*
X188771938Y-85031716D01*
G37*
G36*
X198959928Y-83756764D02*
G01*
X198981009Y-83763160D01*
X199000445Y-83773548D01*
X199017476Y-83787524D01*
X199031452Y-83804555D01*
X199041840Y-83823991D01*
X199048236Y-83845072D01*
X199051000Y-83873140D01*
X199051000Y-84336860D01*
X199048236Y-84364928D01*
X199041840Y-84386009D01*
X199031452Y-84405445D01*
X199017476Y-84422476D01*
X199000445Y-84436452D01*
X198981009Y-84446840D01*
X198959928Y-84453236D01*
X198931860Y-84456000D01*
X197468140Y-84456000D01*
X197440072Y-84453236D01*
X197418991Y-84446840D01*
X197399555Y-84436452D01*
X197382524Y-84422476D01*
X197368548Y-84405445D01*
X197358160Y-84386009D01*
X197351764Y-84364928D01*
X197349000Y-84336860D01*
X197349000Y-83873140D01*
X197351764Y-83845072D01*
X197358160Y-83823991D01*
X197368548Y-83804555D01*
X197382524Y-83787524D01*
X197399555Y-83773548D01*
X197418991Y-83763160D01*
X197440072Y-83756764D01*
X197468140Y-83754000D01*
X198931860Y-83754000D01*
X198959928Y-83756764D01*
G37*
G36*
X191759928Y-83756764D02*
G01*
X191781009Y-83763160D01*
X191800445Y-83773548D01*
X191817476Y-83787524D01*
X191831452Y-83804555D01*
X191841840Y-83823991D01*
X191848236Y-83845072D01*
X191851000Y-83873140D01*
X191851000Y-84336860D01*
X191848236Y-84364928D01*
X191841840Y-84386009D01*
X191831452Y-84405445D01*
X191817476Y-84422476D01*
X191800445Y-84436452D01*
X191781009Y-84446840D01*
X191759928Y-84453236D01*
X191731860Y-84456000D01*
X190268140Y-84456000D01*
X190240072Y-84453236D01*
X190218991Y-84446840D01*
X190199555Y-84436452D01*
X190182524Y-84422476D01*
X190168548Y-84405445D01*
X190158160Y-84386009D01*
X190151764Y-84364928D01*
X190149000Y-84336860D01*
X190149000Y-83873140D01*
X190151764Y-83845072D01*
X190158160Y-83823991D01*
X190168548Y-83804555D01*
X190182524Y-83787524D01*
X190199555Y-83773548D01*
X190218991Y-83763160D01*
X190240072Y-83756764D01*
X190268140Y-83754000D01*
X191731860Y-83754000D01*
X191759928Y-83756764D01*
G37*
G36*
X173163512Y-82423927D02*
G01*
X173312812Y-82453624D01*
X173476784Y-82521544D01*
X173624354Y-82620147D01*
X173749853Y-82745646D01*
X173848456Y-82893216D01*
X173916376Y-83057188D01*
X173951000Y-83231259D01*
X173951000Y-83408741D01*
X173916376Y-83582812D01*
X173848456Y-83746784D01*
X173749853Y-83894354D01*
X173624354Y-84019853D01*
X173476784Y-84118456D01*
X173312812Y-84186376D01*
X173163512Y-84216073D01*
X173138742Y-84221000D01*
X172961258Y-84221000D01*
X172936488Y-84216073D01*
X172787188Y-84186376D01*
X172623216Y-84118456D01*
X172475646Y-84019853D01*
X172350147Y-83894354D01*
X172251544Y-83746784D01*
X172183624Y-83582812D01*
X172149000Y-83408741D01*
X172149000Y-83231259D01*
X172183624Y-83057188D01*
X172251544Y-82893216D01*
X172350147Y-82745646D01*
X172475646Y-82620147D01*
X172623216Y-82521544D01*
X172787188Y-82453624D01*
X172936488Y-82423927D01*
X172961258Y-82419000D01*
X173138742Y-82419000D01*
X173163512Y-82423927D01*
G37*
G36*
X170623512Y-82423927D02*
G01*
X170772812Y-82453624D01*
X170936784Y-82521544D01*
X171084354Y-82620147D01*
X171209853Y-82745646D01*
X171308456Y-82893216D01*
X171376376Y-83057188D01*
X171411000Y-83231259D01*
X171411000Y-83408741D01*
X171376376Y-83582812D01*
X171308456Y-83746784D01*
X171209853Y-83894354D01*
X171084354Y-84019853D01*
X170936784Y-84118456D01*
X170772812Y-84186376D01*
X170623512Y-84216073D01*
X170598742Y-84221000D01*
X170421258Y-84221000D01*
X170396488Y-84216073D01*
X170247188Y-84186376D01*
X170083216Y-84118456D01*
X169935646Y-84019853D01*
X169810147Y-83894354D01*
X169711544Y-83746784D01*
X169643624Y-83582812D01*
X169609000Y-83408741D01*
X169609000Y-83231259D01*
X169643624Y-83057188D01*
X169711544Y-82893216D01*
X169810147Y-82745646D01*
X169935646Y-82620147D01*
X170083216Y-82521544D01*
X170247188Y-82453624D01*
X170396488Y-82423927D01*
X170421258Y-82419000D01*
X170598742Y-82419000D01*
X170623512Y-82423927D01*
G37*
G36*
X179281938Y-83141716D02*
G01*
X179302557Y-83147971D01*
X179321553Y-83158124D01*
X179338208Y-83171792D01*
X179351876Y-83188447D01*
X179362029Y-83207443D01*
X179368284Y-83228062D01*
X179371000Y-83255640D01*
X179371000Y-83714360D01*
X179368284Y-83741938D01*
X179362029Y-83762557D01*
X179351876Y-83781553D01*
X179338208Y-83798208D01*
X179321553Y-83811876D01*
X179302557Y-83822029D01*
X179281938Y-83828284D01*
X179254360Y-83831000D01*
X178745640Y-83831000D01*
X178718062Y-83828284D01*
X178697443Y-83822029D01*
X178678447Y-83811876D01*
X178661792Y-83798208D01*
X178648124Y-83781553D01*
X178637971Y-83762557D01*
X178631716Y-83741938D01*
X178629000Y-83714360D01*
X178629000Y-83255640D01*
X178631716Y-83228062D01*
X178637971Y-83207443D01*
X178648124Y-83188447D01*
X178661792Y-83171792D01*
X178678447Y-83158124D01*
X178697443Y-83147971D01*
X178718062Y-83141716D01*
X178745640Y-83139000D01*
X179254360Y-83139000D01*
X179281938Y-83141716D01*
G37*
G36*
X204632916Y-82657334D02*
G01*
X204741492Y-82690271D01*
X204741495Y-82690272D01*
X204777601Y-82709571D01*
X204841557Y-82743756D01*
X204929264Y-82815736D01*
X205001244Y-82903443D01*
X205012766Y-82925000D01*
X205054728Y-83003505D01*
X205054729Y-83003508D01*
X205087666Y-83112084D01*
X205098787Y-83225000D01*
X205087666Y-83337916D01*
X205061831Y-83423080D01*
X205054728Y-83446495D01*
X205035429Y-83482601D01*
X205001244Y-83546557D01*
X204929264Y-83634264D01*
X204841557Y-83706244D01*
X204777601Y-83740429D01*
X204741495Y-83759728D01*
X204741492Y-83759729D01*
X204632916Y-83792666D01*
X204548298Y-83801000D01*
X204091702Y-83801000D01*
X204007084Y-83792666D01*
X203898508Y-83759729D01*
X203898505Y-83759728D01*
X203862399Y-83740429D01*
X203798443Y-83706244D01*
X203710736Y-83634264D01*
X203638756Y-83546557D01*
X203604571Y-83482601D01*
X203585272Y-83446495D01*
X203578169Y-83423080D01*
X203552334Y-83337916D01*
X203541213Y-83225000D01*
X203552334Y-83112084D01*
X203585271Y-83003508D01*
X203585272Y-83003505D01*
X203627234Y-82925000D01*
X203638756Y-82903443D01*
X203710736Y-82815736D01*
X203798443Y-82743756D01*
X203862399Y-82709571D01*
X203898505Y-82690272D01*
X203898508Y-82690271D01*
X204007084Y-82657334D01*
X204091702Y-82649000D01*
X204548298Y-82649000D01*
X204632916Y-82657334D01*
G37*
G36*
X207737421Y-82234143D02*
G01*
X207869557Y-82274227D01*
X207869559Y-82274228D01*
X207991339Y-82339320D01*
X208098080Y-82426920D01*
X208185680Y-82533661D01*
X208222817Y-82603140D01*
X208250773Y-82655443D01*
X208290857Y-82787579D01*
X208304391Y-82925000D01*
X208290857Y-83062421D01*
X208252626Y-83188447D01*
X208250772Y-83194559D01*
X208185680Y-83316339D01*
X208098080Y-83423080D01*
X207991339Y-83510680D01*
X207924217Y-83546557D01*
X207869557Y-83575773D01*
X207737421Y-83615857D01*
X207634432Y-83626000D01*
X207065568Y-83626000D01*
X206962579Y-83615857D01*
X206830443Y-83575773D01*
X206775783Y-83546557D01*
X206708661Y-83510680D01*
X206601920Y-83423080D01*
X206514320Y-83316339D01*
X206449228Y-83194559D01*
X206447374Y-83188447D01*
X206409143Y-83062421D01*
X206395609Y-82925000D01*
X206409143Y-82787579D01*
X206449227Y-82655443D01*
X206477183Y-82603140D01*
X206514320Y-82533661D01*
X206601920Y-82426920D01*
X206708661Y-82339320D01*
X206830441Y-82274228D01*
X206830443Y-82274227D01*
X206962579Y-82234143D01*
X207065568Y-82224000D01*
X207634432Y-82224000D01*
X207737421Y-82234143D01*
G37*
G36*
X198959928Y-82486764D02*
G01*
X198981009Y-82493160D01*
X199000445Y-82503548D01*
X199017476Y-82517524D01*
X199031452Y-82534555D01*
X199041840Y-82553991D01*
X199048236Y-82575072D01*
X199051000Y-82603140D01*
X199051000Y-83066860D01*
X199048236Y-83094928D01*
X199041840Y-83116009D01*
X199031452Y-83135445D01*
X199017476Y-83152476D01*
X199000445Y-83166452D01*
X198981009Y-83176840D01*
X198959928Y-83183236D01*
X198931860Y-83186000D01*
X197468140Y-83186000D01*
X197440072Y-83183236D01*
X197418991Y-83176840D01*
X197399555Y-83166452D01*
X197382524Y-83152476D01*
X197368548Y-83135445D01*
X197358160Y-83116009D01*
X197351764Y-83094928D01*
X197349000Y-83066860D01*
X197349000Y-82603140D01*
X197351764Y-82575072D01*
X197358160Y-82553991D01*
X197368548Y-82534555D01*
X197382524Y-82517524D01*
X197399555Y-82503548D01*
X197418991Y-82493160D01*
X197440072Y-82486764D01*
X197468140Y-82484000D01*
X198931860Y-82484000D01*
X198959928Y-82486764D01*
G37*
G36*
X191759928Y-82486764D02*
G01*
X191781009Y-82493160D01*
X191800445Y-82503548D01*
X191817476Y-82517524D01*
X191831452Y-82534555D01*
X191841840Y-82553991D01*
X191848236Y-82575072D01*
X191851000Y-82603140D01*
X191851000Y-83066860D01*
X191848236Y-83094928D01*
X191841840Y-83116009D01*
X191831452Y-83135445D01*
X191817476Y-83152476D01*
X191800445Y-83166452D01*
X191781009Y-83176840D01*
X191759928Y-83183236D01*
X191731860Y-83186000D01*
X190268140Y-83186000D01*
X190240072Y-83183236D01*
X190218991Y-83176840D01*
X190199555Y-83166452D01*
X190182524Y-83152476D01*
X190168548Y-83135445D01*
X190158160Y-83116009D01*
X190151764Y-83094928D01*
X190149000Y-83066860D01*
X190149000Y-82603140D01*
X190151764Y-82575072D01*
X190158160Y-82553991D01*
X190168548Y-82534555D01*
X190182524Y-82517524D01*
X190199555Y-82503548D01*
X190218991Y-82493160D01*
X190240072Y-82486764D01*
X190268140Y-82484000D01*
X191731860Y-82484000D01*
X191759928Y-82486764D01*
G37*
G36*
X179281938Y-82171716D02*
G01*
X179302557Y-82177971D01*
X179321553Y-82188124D01*
X179338208Y-82201792D01*
X179351876Y-82218447D01*
X179362029Y-82237443D01*
X179368284Y-82258062D01*
X179371000Y-82285640D01*
X179371000Y-82744360D01*
X179368284Y-82771938D01*
X179362029Y-82792557D01*
X179351876Y-82811553D01*
X179338208Y-82828208D01*
X179321553Y-82841876D01*
X179302557Y-82852029D01*
X179281938Y-82858284D01*
X179254360Y-82861000D01*
X178745640Y-82861000D01*
X178718062Y-82858284D01*
X178697443Y-82852029D01*
X178678447Y-82841876D01*
X178661792Y-82828208D01*
X178648124Y-82811553D01*
X178637971Y-82792557D01*
X178631716Y-82771938D01*
X178629000Y-82744360D01*
X178629000Y-82285640D01*
X178631716Y-82258062D01*
X178637971Y-82237443D01*
X178648124Y-82218447D01*
X178661792Y-82201792D01*
X178678447Y-82188124D01*
X178697443Y-82177971D01*
X178718062Y-82171716D01*
X178745640Y-82169000D01*
X179254360Y-82169000D01*
X179281938Y-82171716D01*
G37*
G36*
X191759928Y-81216764D02*
G01*
X191781009Y-81223160D01*
X191800445Y-81233548D01*
X191817476Y-81247524D01*
X191831452Y-81264555D01*
X191841840Y-81283991D01*
X191848236Y-81305072D01*
X191851000Y-81333140D01*
X191851000Y-81796860D01*
X191848236Y-81824928D01*
X191841840Y-81846009D01*
X191831452Y-81865445D01*
X191817476Y-81882476D01*
X191800445Y-81896452D01*
X191781009Y-81906840D01*
X191759928Y-81913236D01*
X191731860Y-81916000D01*
X190268140Y-81916000D01*
X190240072Y-81913236D01*
X190218991Y-81906840D01*
X190199555Y-81896452D01*
X190182524Y-81882476D01*
X190168548Y-81865445D01*
X190158160Y-81846009D01*
X190151764Y-81824928D01*
X190149000Y-81796860D01*
X190149000Y-81333140D01*
X190151764Y-81305072D01*
X190158160Y-81283991D01*
X190168548Y-81264555D01*
X190182524Y-81247524D01*
X190199555Y-81233548D01*
X190218991Y-81223160D01*
X190240072Y-81216764D01*
X190268140Y-81214000D01*
X191731860Y-81214000D01*
X191759928Y-81216764D01*
G37*
G36*
X198959928Y-81216764D02*
G01*
X198981009Y-81223160D01*
X199000445Y-81233548D01*
X199017476Y-81247524D01*
X199031452Y-81264555D01*
X199041840Y-81283991D01*
X199048236Y-81305072D01*
X199051000Y-81333140D01*
X199051000Y-81796860D01*
X199048236Y-81824928D01*
X199041840Y-81846009D01*
X199031452Y-81865445D01*
X199017476Y-81882476D01*
X199000445Y-81896452D01*
X198981009Y-81906840D01*
X198959928Y-81913236D01*
X198931860Y-81916000D01*
X197468140Y-81916000D01*
X197440072Y-81913236D01*
X197418991Y-81906840D01*
X197399555Y-81896452D01*
X197382524Y-81882476D01*
X197368548Y-81865445D01*
X197358160Y-81846009D01*
X197351764Y-81824928D01*
X197349000Y-81796860D01*
X197349000Y-81333140D01*
X197351764Y-81305072D01*
X197358160Y-81283991D01*
X197368548Y-81264555D01*
X197382524Y-81247524D01*
X197399555Y-81233548D01*
X197418991Y-81223160D01*
X197440072Y-81216764D01*
X197468140Y-81214000D01*
X198931860Y-81214000D01*
X198959928Y-81216764D01*
G37*
G36*
X173163512Y-79883927D02*
G01*
X173312812Y-79913624D01*
X173476784Y-79981544D01*
X173624354Y-80080147D01*
X173749853Y-80205646D01*
X173848456Y-80353216D01*
X173916376Y-80517188D01*
X173951000Y-80691259D01*
X173951000Y-80868741D01*
X173916376Y-81042812D01*
X173848456Y-81206784D01*
X173749853Y-81354354D01*
X173624354Y-81479853D01*
X173476784Y-81578456D01*
X173312812Y-81646376D01*
X173163512Y-81676073D01*
X173138742Y-81681000D01*
X172961258Y-81681000D01*
X172936488Y-81676073D01*
X172787188Y-81646376D01*
X172623216Y-81578456D01*
X172475646Y-81479853D01*
X172350147Y-81354354D01*
X172251544Y-81206784D01*
X172183624Y-81042812D01*
X172149000Y-80868741D01*
X172149000Y-80691259D01*
X172183624Y-80517188D01*
X172251544Y-80353216D01*
X172350147Y-80205646D01*
X172475646Y-80080147D01*
X172623216Y-79981544D01*
X172787188Y-79913624D01*
X172936488Y-79883927D01*
X172961258Y-79879000D01*
X173138742Y-79879000D01*
X173163512Y-79883927D01*
G37*
G36*
X170623512Y-79883927D02*
G01*
X170772812Y-79913624D01*
X170936784Y-79981544D01*
X171084354Y-80080147D01*
X171209853Y-80205646D01*
X171308456Y-80353216D01*
X171376376Y-80517188D01*
X171411000Y-80691259D01*
X171411000Y-80868741D01*
X171376376Y-81042812D01*
X171308456Y-81206784D01*
X171209853Y-81354354D01*
X171084354Y-81479853D01*
X170936784Y-81578456D01*
X170772812Y-81646376D01*
X170623512Y-81676073D01*
X170598742Y-81681000D01*
X170421258Y-81681000D01*
X170396488Y-81676073D01*
X170247188Y-81646376D01*
X170083216Y-81578456D01*
X169935646Y-81479853D01*
X169810147Y-81354354D01*
X169711544Y-81206784D01*
X169643624Y-81042812D01*
X169609000Y-80868741D01*
X169609000Y-80691259D01*
X169643624Y-80517188D01*
X169711544Y-80353216D01*
X169810147Y-80205646D01*
X169935646Y-80080147D01*
X170083216Y-79981544D01*
X170247188Y-79913624D01*
X170396488Y-79883927D01*
X170421258Y-79879000D01*
X170598742Y-79879000D01*
X170623512Y-79883927D01*
G37*
G36*
X179251000Y-81551000D02*
G01*
X177349000Y-81551000D01*
X177349000Y-79349000D01*
X179251000Y-79349000D01*
X179251000Y-81551000D01*
G37*
G36*
X176951000Y-81551000D02*
G01*
X175049000Y-81551000D01*
X175049000Y-79349000D01*
X176951000Y-79349000D01*
X176951000Y-81551000D01*
G37*
G36*
X182540416Y-79749843D02*
G01*
X182544556Y-79751099D01*
X182563716Y-79759035D01*
X182587750Y-79763815D01*
X182612254Y-79763815D01*
X182636287Y-79759034D01*
X182655445Y-79751099D01*
X182659584Y-79749843D01*
X182668143Y-79749000D01*
X182931857Y-79749000D01*
X182940416Y-79749843D01*
X182944556Y-79751099D01*
X182963716Y-79759035D01*
X182987750Y-79763815D01*
X183012254Y-79763815D01*
X183036287Y-79759034D01*
X183055445Y-79751099D01*
X183059584Y-79749843D01*
X183068143Y-79749000D01*
X183331857Y-79749000D01*
X183340416Y-79749843D01*
X183344556Y-79751099D01*
X183363716Y-79759035D01*
X183387750Y-79763815D01*
X183412254Y-79763815D01*
X183436287Y-79759034D01*
X183455445Y-79751099D01*
X183459584Y-79749843D01*
X183468143Y-79749000D01*
X183731857Y-79749000D01*
X183740416Y-79749843D01*
X183744556Y-79751099D01*
X183763716Y-79759035D01*
X183787750Y-79763815D01*
X183812254Y-79763815D01*
X183836287Y-79759034D01*
X183855445Y-79751099D01*
X183859584Y-79749843D01*
X183868143Y-79749000D01*
X184131857Y-79749000D01*
X184140416Y-79749843D01*
X184144556Y-79751099D01*
X184163716Y-79759035D01*
X184187750Y-79763815D01*
X184212254Y-79763815D01*
X184236287Y-79759034D01*
X184255445Y-79751099D01*
X184259584Y-79749843D01*
X184268143Y-79749000D01*
X184531857Y-79749000D01*
X184540416Y-79749843D01*
X184544556Y-79751099D01*
X184563716Y-79759035D01*
X184587750Y-79763815D01*
X184612254Y-79763815D01*
X184636287Y-79759034D01*
X184655445Y-79751099D01*
X184659584Y-79749843D01*
X184668143Y-79749000D01*
X184931857Y-79749000D01*
X184940416Y-79749843D01*
X184944556Y-79751099D01*
X184963716Y-79759035D01*
X184987750Y-79763815D01*
X185012254Y-79763815D01*
X185036287Y-79759034D01*
X185055445Y-79751099D01*
X185059584Y-79749843D01*
X185068143Y-79749000D01*
X185331857Y-79749000D01*
X185340416Y-79749843D01*
X185344556Y-79751099D01*
X185363716Y-79759035D01*
X185387750Y-79763815D01*
X185412254Y-79763815D01*
X185436287Y-79759034D01*
X185455445Y-79751099D01*
X185459584Y-79749843D01*
X185468143Y-79749000D01*
X185731857Y-79749000D01*
X185740416Y-79749843D01*
X185744556Y-79751099D01*
X185763716Y-79759035D01*
X185787750Y-79763815D01*
X185812254Y-79763815D01*
X185836287Y-79759034D01*
X185855445Y-79751099D01*
X185859584Y-79749843D01*
X185868143Y-79749000D01*
X186131857Y-79749000D01*
X186140416Y-79749843D01*
X186144556Y-79751099D01*
X186163716Y-79759035D01*
X186187750Y-79763815D01*
X186212254Y-79763815D01*
X186236287Y-79759034D01*
X186255445Y-79751099D01*
X186259584Y-79749843D01*
X186268143Y-79749000D01*
X186531857Y-79749000D01*
X186540416Y-79749843D01*
X186544556Y-79751099D01*
X186563716Y-79759035D01*
X186587750Y-79763815D01*
X186612254Y-79763815D01*
X186636287Y-79759034D01*
X186655445Y-79751099D01*
X186659584Y-79749843D01*
X186668143Y-79749000D01*
X186931857Y-79749000D01*
X186940416Y-79749843D01*
X186944556Y-79751099D01*
X186963716Y-79759035D01*
X186987750Y-79763815D01*
X187012254Y-79763815D01*
X187036287Y-79759034D01*
X187055445Y-79751099D01*
X187059584Y-79749843D01*
X187068143Y-79749000D01*
X187331857Y-79749000D01*
X187340416Y-79749843D01*
X187344556Y-79751099D01*
X187363716Y-79759035D01*
X187387750Y-79763815D01*
X187412254Y-79763815D01*
X187436287Y-79759034D01*
X187455445Y-79751099D01*
X187459584Y-79749843D01*
X187468143Y-79749000D01*
X187731857Y-79749000D01*
X187740416Y-79749843D01*
X187742745Y-79750550D01*
X187744887Y-79751695D01*
X187746765Y-79753235D01*
X187748305Y-79755113D01*
X187749450Y-79757255D01*
X187750157Y-79759584D01*
X187751000Y-79768143D01*
X187751000Y-80706857D01*
X187750157Y-80715416D01*
X187749450Y-80717745D01*
X187748305Y-80719887D01*
X187746765Y-80721765D01*
X187744887Y-80723305D01*
X187742745Y-80724450D01*
X187740416Y-80725157D01*
X187731857Y-80726000D01*
X187468143Y-80726000D01*
X187459584Y-80725157D01*
X187455444Y-80723901D01*
X187436284Y-80715965D01*
X187412250Y-80711185D01*
X187387746Y-80711185D01*
X187363713Y-80715966D01*
X187344555Y-80723901D01*
X187340416Y-80725157D01*
X187331857Y-80726000D01*
X187068143Y-80726000D01*
X187059584Y-80725157D01*
X187055444Y-80723901D01*
X187036284Y-80715965D01*
X187012250Y-80711185D01*
X186987746Y-80711185D01*
X186963713Y-80715966D01*
X186944555Y-80723901D01*
X186940416Y-80725157D01*
X186931857Y-80726000D01*
X186668143Y-80726000D01*
X186659584Y-80725157D01*
X186655444Y-80723901D01*
X186636284Y-80715965D01*
X186612250Y-80711185D01*
X186587746Y-80711185D01*
X186563713Y-80715966D01*
X186544555Y-80723901D01*
X186540416Y-80725157D01*
X186531857Y-80726000D01*
X186268143Y-80726000D01*
X186259584Y-80725157D01*
X186255444Y-80723901D01*
X186236284Y-80715965D01*
X186212250Y-80711185D01*
X186187746Y-80711185D01*
X186163713Y-80715966D01*
X186144555Y-80723901D01*
X186140416Y-80725157D01*
X186131857Y-80726000D01*
X185868143Y-80726000D01*
X185859584Y-80725157D01*
X185855444Y-80723901D01*
X185836284Y-80715965D01*
X185812250Y-80711185D01*
X185787746Y-80711185D01*
X185763713Y-80715966D01*
X185744555Y-80723901D01*
X185740416Y-80725157D01*
X185731857Y-80726000D01*
X185468143Y-80726000D01*
X185459584Y-80725157D01*
X185455444Y-80723901D01*
X185436284Y-80715965D01*
X185412250Y-80711185D01*
X185387746Y-80711185D01*
X185363713Y-80715966D01*
X185344555Y-80723901D01*
X185340416Y-80725157D01*
X185331857Y-80726000D01*
X185068143Y-80726000D01*
X185059584Y-80725157D01*
X185055444Y-80723901D01*
X185036284Y-80715965D01*
X185012250Y-80711185D01*
X184987746Y-80711185D01*
X184963713Y-80715966D01*
X184944555Y-80723901D01*
X184940416Y-80725157D01*
X184931857Y-80726000D01*
X184668143Y-80726000D01*
X184659584Y-80725157D01*
X184655444Y-80723901D01*
X184636284Y-80715965D01*
X184612250Y-80711185D01*
X184587746Y-80711185D01*
X184563713Y-80715966D01*
X184544555Y-80723901D01*
X184540416Y-80725157D01*
X184531857Y-80726000D01*
X184268143Y-80726000D01*
X184259584Y-80725157D01*
X184255444Y-80723901D01*
X184236284Y-80715965D01*
X184212250Y-80711185D01*
X184187746Y-80711185D01*
X184163713Y-80715966D01*
X184144555Y-80723901D01*
X184140416Y-80725157D01*
X184131857Y-80726000D01*
X183868143Y-80726000D01*
X183859584Y-80725157D01*
X183855444Y-80723901D01*
X183836284Y-80715965D01*
X183812250Y-80711185D01*
X183787746Y-80711185D01*
X183763713Y-80715966D01*
X183744555Y-80723901D01*
X183740416Y-80725157D01*
X183731857Y-80726000D01*
X183468143Y-80726000D01*
X183459584Y-80725157D01*
X183455444Y-80723901D01*
X183436284Y-80715965D01*
X183412250Y-80711185D01*
X183387746Y-80711185D01*
X183363713Y-80715966D01*
X183344555Y-80723901D01*
X183340416Y-80725157D01*
X183331857Y-80726000D01*
X183068143Y-80726000D01*
X183059584Y-80725157D01*
X183055444Y-80723901D01*
X183036284Y-80715965D01*
X183012250Y-80711185D01*
X182987746Y-80711185D01*
X182963713Y-80715966D01*
X182944555Y-80723901D01*
X182940416Y-80725157D01*
X182931857Y-80726000D01*
X182668143Y-80726000D01*
X182659584Y-80725157D01*
X182655444Y-80723901D01*
X182636284Y-80715965D01*
X182612250Y-80711185D01*
X182587746Y-80711185D01*
X182563713Y-80715966D01*
X182544555Y-80723901D01*
X182540416Y-80725157D01*
X182531857Y-80726000D01*
X182268143Y-80726000D01*
X182259584Y-80725157D01*
X182257255Y-80724450D01*
X182255113Y-80723305D01*
X182253235Y-80721765D01*
X182251695Y-80719887D01*
X182250550Y-80717745D01*
X182249843Y-80715416D01*
X182249000Y-80706857D01*
X182249000Y-79768143D01*
X182249843Y-79759584D01*
X182250550Y-79757255D01*
X182251695Y-79755113D01*
X182253235Y-79753235D01*
X182255113Y-79751695D01*
X182257255Y-79750550D01*
X182259584Y-79749843D01*
X182268143Y-79749000D01*
X182531857Y-79749000D01*
X182540416Y-79749843D01*
G37*
G36*
X207141938Y-79931716D02*
G01*
X207162557Y-79937971D01*
X207181553Y-79948124D01*
X207198208Y-79961792D01*
X207211876Y-79978447D01*
X207222029Y-79997443D01*
X207228284Y-80018062D01*
X207231000Y-80045640D01*
X207231000Y-80554360D01*
X207228284Y-80581938D01*
X207222029Y-80602557D01*
X207211876Y-80621553D01*
X207198208Y-80638208D01*
X207181553Y-80651876D01*
X207162557Y-80662029D01*
X207141938Y-80668284D01*
X207114360Y-80671000D01*
X206655640Y-80671000D01*
X206628062Y-80668284D01*
X206607443Y-80662029D01*
X206588447Y-80651876D01*
X206571792Y-80638208D01*
X206558124Y-80621553D01*
X206547971Y-80602557D01*
X206541716Y-80581938D01*
X206539000Y-80554360D01*
X206539000Y-80045640D01*
X206541716Y-80018062D01*
X206547971Y-79997443D01*
X206558124Y-79978447D01*
X206571792Y-79961792D01*
X206588447Y-79948124D01*
X206607443Y-79937971D01*
X206628062Y-79931716D01*
X206655640Y-79929000D01*
X207114360Y-79929000D01*
X207141938Y-79931716D01*
G37*
G36*
X206171938Y-79931716D02*
G01*
X206192557Y-79937971D01*
X206211553Y-79948124D01*
X206228208Y-79961792D01*
X206241876Y-79978447D01*
X206252029Y-79997443D01*
X206258284Y-80018062D01*
X206261000Y-80045640D01*
X206261000Y-80554360D01*
X206258284Y-80581938D01*
X206252029Y-80602557D01*
X206241876Y-80621553D01*
X206228208Y-80638208D01*
X206211553Y-80651876D01*
X206192557Y-80662029D01*
X206171938Y-80668284D01*
X206144360Y-80671000D01*
X205685640Y-80671000D01*
X205658062Y-80668284D01*
X205637443Y-80662029D01*
X205618447Y-80651876D01*
X205601792Y-80638208D01*
X205588124Y-80621553D01*
X205577971Y-80602557D01*
X205571716Y-80581938D01*
X205569000Y-80554360D01*
X205569000Y-80045640D01*
X205571716Y-80018062D01*
X205577971Y-79997443D01*
X205588124Y-79978447D01*
X205601792Y-79961792D01*
X205618447Y-79948124D01*
X205637443Y-79937971D01*
X205658062Y-79931716D01*
X205685640Y-79929000D01*
X206144360Y-79929000D01*
X206171938Y-79931716D01*
G37*
G36*
X191759928Y-79946764D02*
G01*
X191781009Y-79953160D01*
X191800445Y-79963548D01*
X191817476Y-79977524D01*
X191831452Y-79994555D01*
X191841840Y-80013991D01*
X191848236Y-80035072D01*
X191851000Y-80063140D01*
X191851000Y-80526860D01*
X191848236Y-80554928D01*
X191841840Y-80576009D01*
X191831452Y-80595445D01*
X191817476Y-80612476D01*
X191800445Y-80626452D01*
X191781009Y-80636840D01*
X191759928Y-80643236D01*
X191731860Y-80646000D01*
X190268140Y-80646000D01*
X190240072Y-80643236D01*
X190218991Y-80636840D01*
X190199555Y-80626452D01*
X190182524Y-80612476D01*
X190168548Y-80595445D01*
X190158160Y-80576009D01*
X190151764Y-80554928D01*
X190149000Y-80526860D01*
X190149000Y-80063140D01*
X190151764Y-80035072D01*
X190158160Y-80013991D01*
X190168548Y-79994555D01*
X190182524Y-79977524D01*
X190199555Y-79963548D01*
X190218991Y-79953160D01*
X190240072Y-79946764D01*
X190268140Y-79944000D01*
X191731860Y-79944000D01*
X191759928Y-79946764D01*
G37*
G36*
X198959928Y-79946764D02*
G01*
X198981009Y-79953160D01*
X199000445Y-79963548D01*
X199017476Y-79977524D01*
X199031452Y-79994555D01*
X199041840Y-80013991D01*
X199048236Y-80035072D01*
X199051000Y-80063140D01*
X199051000Y-80526860D01*
X199048236Y-80554928D01*
X199041840Y-80576009D01*
X199031452Y-80595445D01*
X199017476Y-80612476D01*
X199000445Y-80626452D01*
X198981009Y-80636840D01*
X198959928Y-80643236D01*
X198931860Y-80646000D01*
X197468140Y-80646000D01*
X197440072Y-80643236D01*
X197418991Y-80636840D01*
X197399555Y-80626452D01*
X197382524Y-80612476D01*
X197368548Y-80595445D01*
X197358160Y-80576009D01*
X197351764Y-80554928D01*
X197349000Y-80526860D01*
X197349000Y-80063140D01*
X197351764Y-80035072D01*
X197358160Y-80013991D01*
X197368548Y-79994555D01*
X197382524Y-79977524D01*
X197399555Y-79963548D01*
X197418991Y-79953160D01*
X197440072Y-79946764D01*
X197468140Y-79944000D01*
X198931860Y-79944000D01*
X198959928Y-79946764D01*
G37*
G36*
X208537142Y-78363242D02*
G01*
X208685101Y-78424529D01*
X208818255Y-78513499D01*
X208931501Y-78626745D01*
X209020471Y-78759899D01*
X209081758Y-78907858D01*
X209113000Y-79064925D01*
X209113000Y-79225075D01*
X209081758Y-79382142D01*
X209020471Y-79530101D01*
X208931501Y-79663255D01*
X208818255Y-79776501D01*
X208685101Y-79865471D01*
X208537142Y-79926758D01*
X208380075Y-79958000D01*
X208219925Y-79958000D01*
X208062858Y-79926758D01*
X207914899Y-79865471D01*
X207781745Y-79776501D01*
X207668499Y-79663255D01*
X207579529Y-79530101D01*
X207518242Y-79382142D01*
X207487000Y-79225075D01*
X207487000Y-79064925D01*
X207518242Y-78907858D01*
X207579529Y-78759899D01*
X207668499Y-78626745D01*
X207781745Y-78513499D01*
X207914899Y-78424529D01*
X208062858Y-78363242D01*
X208219925Y-78332000D01*
X208380075Y-78332000D01*
X208537142Y-78363242D01*
G37*
G36*
X188915416Y-74049843D02*
G01*
X188917745Y-74050550D01*
X188919887Y-74051695D01*
X188921765Y-74053235D01*
X188923305Y-74055113D01*
X188924450Y-74057255D01*
X188925157Y-74059584D01*
X188926000Y-74068143D01*
X188926000Y-74331857D01*
X188925157Y-74340416D01*
X188923901Y-74344556D01*
X188915965Y-74363716D01*
X188911185Y-74387750D01*
X188911185Y-74412254D01*
X188915966Y-74436287D01*
X188923901Y-74455445D01*
X188925157Y-74459584D01*
X188926000Y-74468143D01*
X188926000Y-74731857D01*
X188925157Y-74740416D01*
X188923901Y-74744556D01*
X188915965Y-74763716D01*
X188911185Y-74787750D01*
X188911185Y-74812254D01*
X188915966Y-74836287D01*
X188923901Y-74855445D01*
X188925157Y-74859584D01*
X188926000Y-74868143D01*
X188926000Y-75131857D01*
X188925157Y-75140416D01*
X188923901Y-75144556D01*
X188915965Y-75163716D01*
X188911185Y-75187750D01*
X188911185Y-75212254D01*
X188915966Y-75236287D01*
X188923901Y-75255445D01*
X188925157Y-75259584D01*
X188926000Y-75268143D01*
X188926000Y-75531857D01*
X188925157Y-75540416D01*
X188923901Y-75544556D01*
X188915965Y-75563716D01*
X188911185Y-75587750D01*
X188911185Y-75612254D01*
X188915966Y-75636287D01*
X188923901Y-75655445D01*
X188925157Y-75659584D01*
X188926000Y-75668143D01*
X188926000Y-75931857D01*
X188925157Y-75940416D01*
X188923901Y-75944556D01*
X188915965Y-75963716D01*
X188911185Y-75987750D01*
X188911185Y-76012254D01*
X188915966Y-76036287D01*
X188923901Y-76055445D01*
X188925157Y-76059584D01*
X188926000Y-76068143D01*
X188926000Y-76331857D01*
X188925157Y-76340416D01*
X188923901Y-76344556D01*
X188915965Y-76363716D01*
X188911185Y-76387750D01*
X188911185Y-76412254D01*
X188915966Y-76436287D01*
X188923901Y-76455445D01*
X188925157Y-76459584D01*
X188926000Y-76468143D01*
X188926000Y-76731857D01*
X188925157Y-76740416D01*
X188923901Y-76744556D01*
X188915965Y-76763716D01*
X188911185Y-76787750D01*
X188911185Y-76812254D01*
X188915966Y-76836287D01*
X188923901Y-76855445D01*
X188925157Y-76859584D01*
X188926000Y-76868143D01*
X188926000Y-77131857D01*
X188925157Y-77140416D01*
X188923901Y-77144556D01*
X188915965Y-77163716D01*
X188911185Y-77187750D01*
X188911185Y-77212254D01*
X188915966Y-77236287D01*
X188923901Y-77255445D01*
X188925157Y-77259584D01*
X188926000Y-77268143D01*
X188926000Y-77531857D01*
X188925157Y-77540416D01*
X188923901Y-77544556D01*
X188915965Y-77563716D01*
X188911185Y-77587750D01*
X188911185Y-77612254D01*
X188915966Y-77636287D01*
X188923901Y-77655445D01*
X188925157Y-77659584D01*
X188926000Y-77668143D01*
X188926000Y-77931857D01*
X188925157Y-77940416D01*
X188923901Y-77944556D01*
X188915965Y-77963716D01*
X188911185Y-77987750D01*
X188911185Y-78012254D01*
X188915966Y-78036287D01*
X188923901Y-78055445D01*
X188925157Y-78059584D01*
X188926000Y-78068143D01*
X188926000Y-78331857D01*
X188925157Y-78340416D01*
X188923901Y-78344556D01*
X188915965Y-78363716D01*
X188911185Y-78387750D01*
X188911185Y-78412254D01*
X188915966Y-78436287D01*
X188923901Y-78455445D01*
X188925157Y-78459584D01*
X188926000Y-78468143D01*
X188926000Y-78731857D01*
X188925157Y-78740416D01*
X188923901Y-78744556D01*
X188915965Y-78763716D01*
X188911185Y-78787750D01*
X188911185Y-78812254D01*
X188915966Y-78836287D01*
X188923901Y-78855445D01*
X188925157Y-78859584D01*
X188926000Y-78868143D01*
X188926000Y-79131857D01*
X188925157Y-79140416D01*
X188923901Y-79144556D01*
X188915965Y-79163716D01*
X188911185Y-79187750D01*
X188911185Y-79212254D01*
X188915966Y-79236287D01*
X188923901Y-79255445D01*
X188925157Y-79259584D01*
X188926000Y-79268143D01*
X188926000Y-79531857D01*
X188925157Y-79540416D01*
X188924450Y-79542745D01*
X188923305Y-79544887D01*
X188921765Y-79546765D01*
X188919887Y-79548305D01*
X188917745Y-79549450D01*
X188915416Y-79550157D01*
X188906857Y-79551000D01*
X187968143Y-79551000D01*
X187959584Y-79550157D01*
X187957255Y-79549450D01*
X187955113Y-79548305D01*
X187953235Y-79546765D01*
X187951695Y-79544887D01*
X187950550Y-79542745D01*
X187949843Y-79540416D01*
X187949000Y-79531857D01*
X187949000Y-79268143D01*
X187949843Y-79259584D01*
X187951099Y-79255444D01*
X187959035Y-79236284D01*
X187963815Y-79212250D01*
X187963815Y-79187746D01*
X187959034Y-79163713D01*
X187951099Y-79144555D01*
X187949843Y-79140416D01*
X187949000Y-79131857D01*
X187949000Y-78868143D01*
X187949843Y-78859584D01*
X187951099Y-78855444D01*
X187959035Y-78836284D01*
X187963815Y-78812250D01*
X187963815Y-78787746D01*
X187959034Y-78763713D01*
X187951099Y-78744555D01*
X187949843Y-78740416D01*
X187949000Y-78731857D01*
X187949000Y-78468143D01*
X187949843Y-78459584D01*
X187951099Y-78455444D01*
X187959035Y-78436284D01*
X187963815Y-78412250D01*
X187963815Y-78387746D01*
X187959034Y-78363713D01*
X187951099Y-78344555D01*
X187949843Y-78340416D01*
X187949000Y-78331857D01*
X187949000Y-78068143D01*
X187949843Y-78059584D01*
X187951099Y-78055444D01*
X187959035Y-78036284D01*
X187963815Y-78012250D01*
X187963815Y-77987746D01*
X187959034Y-77963713D01*
X187951099Y-77944555D01*
X187949843Y-77940416D01*
X187949000Y-77931857D01*
X187949000Y-77668143D01*
X187949843Y-77659584D01*
X187951099Y-77655444D01*
X187959035Y-77636284D01*
X187963815Y-77612250D01*
X187963815Y-77587746D01*
X187959034Y-77563713D01*
X187951099Y-77544555D01*
X187949843Y-77540416D01*
X187949000Y-77531857D01*
X187949000Y-77268143D01*
X187949843Y-77259584D01*
X187951099Y-77255444D01*
X187959035Y-77236284D01*
X187963815Y-77212250D01*
X187963815Y-77187746D01*
X187959034Y-77163713D01*
X187951099Y-77144555D01*
X187949843Y-77140416D01*
X187949000Y-77131857D01*
X187949000Y-76868143D01*
X187949843Y-76859584D01*
X187951099Y-76855444D01*
X187959035Y-76836284D01*
X187963815Y-76812250D01*
X187963815Y-76787746D01*
X187959034Y-76763713D01*
X187951099Y-76744555D01*
X187949843Y-76740416D01*
X187949000Y-76731857D01*
X187949000Y-76468143D01*
X187949843Y-76459584D01*
X187951099Y-76455444D01*
X187959035Y-76436284D01*
X187963815Y-76412250D01*
X187963815Y-76387746D01*
X187959034Y-76363713D01*
X187951099Y-76344555D01*
X187949843Y-76340416D01*
X187949000Y-76331857D01*
X187949000Y-76068143D01*
X187949843Y-76059584D01*
X187951099Y-76055444D01*
X187959035Y-76036284D01*
X187963815Y-76012250D01*
X187963815Y-75987746D01*
X187959034Y-75963713D01*
X187951099Y-75944555D01*
X187949843Y-75940416D01*
X187949000Y-75931857D01*
X187949000Y-75668143D01*
X187949843Y-75659584D01*
X187951099Y-75655444D01*
X187959035Y-75636284D01*
X187963815Y-75612250D01*
X187963815Y-75587746D01*
X187959034Y-75563713D01*
X187951099Y-75544555D01*
X187949843Y-75540416D01*
X187949000Y-75531857D01*
X187949000Y-75268143D01*
X187949843Y-75259584D01*
X187951099Y-75255444D01*
X187959035Y-75236284D01*
X187963815Y-75212250D01*
X187963815Y-75187746D01*
X187959034Y-75163713D01*
X187951099Y-75144555D01*
X187949843Y-75140416D01*
X187949000Y-75131857D01*
X187949000Y-74868143D01*
X187949843Y-74859584D01*
X187951099Y-74855444D01*
X187959035Y-74836284D01*
X187963815Y-74812250D01*
X187963815Y-74787746D01*
X187959034Y-74763713D01*
X187951099Y-74744555D01*
X187949843Y-74740416D01*
X187949000Y-74731857D01*
X187949000Y-74468143D01*
X187949843Y-74459584D01*
X187951099Y-74455444D01*
X187959035Y-74436284D01*
X187963815Y-74412250D01*
X187963815Y-74387746D01*
X187959034Y-74363713D01*
X187951099Y-74344555D01*
X187949843Y-74340416D01*
X187949000Y-74331857D01*
X187949000Y-74068143D01*
X187949843Y-74059584D01*
X187950550Y-74057255D01*
X187951695Y-74055113D01*
X187953235Y-74053235D01*
X187955113Y-74051695D01*
X187957255Y-74050550D01*
X187959584Y-74049843D01*
X187968143Y-74049000D01*
X188906857Y-74049000D01*
X188915416Y-74049843D01*
G37*
G36*
X182040416Y-74049843D02*
G01*
X182042745Y-74050550D01*
X182044887Y-74051695D01*
X182046765Y-74053235D01*
X182048305Y-74055113D01*
X182049450Y-74057255D01*
X182050157Y-74059584D01*
X182051000Y-74068143D01*
X182051000Y-74331857D01*
X182050157Y-74340416D01*
X182048901Y-74344556D01*
X182040965Y-74363716D01*
X182036185Y-74387750D01*
X182036185Y-74412254D01*
X182040966Y-74436287D01*
X182048901Y-74455445D01*
X182050157Y-74459584D01*
X182051000Y-74468143D01*
X182051000Y-74731857D01*
X182050157Y-74740416D01*
X182048901Y-74744556D01*
X182040965Y-74763716D01*
X182036185Y-74787750D01*
X182036185Y-74812254D01*
X182040966Y-74836287D01*
X182048901Y-74855445D01*
X182050157Y-74859584D01*
X182051000Y-74868143D01*
X182051000Y-75131857D01*
X182050157Y-75140416D01*
X182048901Y-75144556D01*
X182040965Y-75163716D01*
X182036185Y-75187750D01*
X182036185Y-75212254D01*
X182040966Y-75236287D01*
X182048901Y-75255445D01*
X182050157Y-75259584D01*
X182051000Y-75268143D01*
X182051000Y-75531857D01*
X182050157Y-75540416D01*
X182048901Y-75544556D01*
X182040965Y-75563716D01*
X182036185Y-75587750D01*
X182036185Y-75612254D01*
X182040966Y-75636287D01*
X182048901Y-75655445D01*
X182050157Y-75659584D01*
X182051000Y-75668143D01*
X182051000Y-75931857D01*
X182050157Y-75940416D01*
X182048901Y-75944556D01*
X182040965Y-75963716D01*
X182036185Y-75987750D01*
X182036185Y-76012254D01*
X182040966Y-76036287D01*
X182048901Y-76055445D01*
X182050157Y-76059584D01*
X182051000Y-76068143D01*
X182051000Y-76331857D01*
X182050157Y-76340416D01*
X182048901Y-76344556D01*
X182040965Y-76363716D01*
X182036185Y-76387750D01*
X182036185Y-76412254D01*
X182040966Y-76436287D01*
X182048901Y-76455445D01*
X182050157Y-76459584D01*
X182051000Y-76468143D01*
X182051000Y-76731857D01*
X182050157Y-76740416D01*
X182048901Y-76744556D01*
X182040965Y-76763716D01*
X182036185Y-76787750D01*
X182036185Y-76812254D01*
X182040966Y-76836287D01*
X182048901Y-76855445D01*
X182050157Y-76859584D01*
X182051000Y-76868143D01*
X182051000Y-77131857D01*
X182050157Y-77140416D01*
X182048901Y-77144556D01*
X182040965Y-77163716D01*
X182036185Y-77187750D01*
X182036185Y-77212254D01*
X182040966Y-77236287D01*
X182048901Y-77255445D01*
X182050157Y-77259584D01*
X182051000Y-77268143D01*
X182051000Y-77531857D01*
X182050157Y-77540416D01*
X182048901Y-77544556D01*
X182040965Y-77563716D01*
X182036185Y-77587750D01*
X182036185Y-77612254D01*
X182040966Y-77636287D01*
X182048901Y-77655445D01*
X182050157Y-77659584D01*
X182051000Y-77668143D01*
X182051000Y-77931857D01*
X182050157Y-77940416D01*
X182048901Y-77944556D01*
X182040965Y-77963716D01*
X182036185Y-77987750D01*
X182036185Y-78012254D01*
X182040966Y-78036287D01*
X182048901Y-78055445D01*
X182050157Y-78059584D01*
X182051000Y-78068143D01*
X182051000Y-78331857D01*
X182050157Y-78340416D01*
X182048901Y-78344556D01*
X182040965Y-78363716D01*
X182036185Y-78387750D01*
X182036185Y-78412254D01*
X182040966Y-78436287D01*
X182048901Y-78455445D01*
X182050157Y-78459584D01*
X182051000Y-78468143D01*
X182051000Y-78731857D01*
X182050157Y-78740416D01*
X182048901Y-78744556D01*
X182040965Y-78763716D01*
X182036185Y-78787750D01*
X182036185Y-78812254D01*
X182040966Y-78836287D01*
X182048901Y-78855445D01*
X182050157Y-78859584D01*
X182051000Y-78868143D01*
X182051000Y-79131857D01*
X182050157Y-79140416D01*
X182048901Y-79144556D01*
X182040965Y-79163716D01*
X182036185Y-79187750D01*
X182036185Y-79212254D01*
X182040966Y-79236287D01*
X182048901Y-79255445D01*
X182050157Y-79259584D01*
X182051000Y-79268143D01*
X182051000Y-79531857D01*
X182050157Y-79540416D01*
X182049450Y-79542745D01*
X182048305Y-79544887D01*
X182046765Y-79546765D01*
X182044887Y-79548305D01*
X182042745Y-79549450D01*
X182040416Y-79550157D01*
X182031857Y-79551000D01*
X181093143Y-79551000D01*
X181084584Y-79550157D01*
X181082255Y-79549450D01*
X181080113Y-79548305D01*
X181078235Y-79546765D01*
X181076695Y-79544887D01*
X181075550Y-79542745D01*
X181074843Y-79540416D01*
X181074000Y-79531857D01*
X181074000Y-79268143D01*
X181074843Y-79259584D01*
X181076099Y-79255444D01*
X181084035Y-79236284D01*
X181088815Y-79212250D01*
X181088815Y-79187746D01*
X181084034Y-79163713D01*
X181076099Y-79144555D01*
X181074843Y-79140416D01*
X181074000Y-79131857D01*
X181074000Y-78868143D01*
X181074843Y-78859584D01*
X181076099Y-78855444D01*
X181084035Y-78836284D01*
X181088815Y-78812250D01*
X181088815Y-78787746D01*
X181084034Y-78763713D01*
X181076099Y-78744555D01*
X181074843Y-78740416D01*
X181074000Y-78731857D01*
X181074000Y-78468143D01*
X181074843Y-78459584D01*
X181076099Y-78455444D01*
X181084035Y-78436284D01*
X181088815Y-78412250D01*
X181088815Y-78387746D01*
X181084034Y-78363713D01*
X181076099Y-78344555D01*
X181074843Y-78340416D01*
X181074000Y-78331857D01*
X181074000Y-78068143D01*
X181074843Y-78059584D01*
X181076099Y-78055444D01*
X181084035Y-78036284D01*
X181088815Y-78012250D01*
X181088815Y-77987746D01*
X181084034Y-77963713D01*
X181076099Y-77944555D01*
X181074843Y-77940416D01*
X181074000Y-77931857D01*
X181074000Y-77668143D01*
X181074843Y-77659584D01*
X181076099Y-77655444D01*
X181084035Y-77636284D01*
X181088815Y-77612250D01*
X181088815Y-77587746D01*
X181084034Y-77563713D01*
X181076099Y-77544555D01*
X181074843Y-77540416D01*
X181074000Y-77531857D01*
X181074000Y-77268143D01*
X181074843Y-77259584D01*
X181076099Y-77255444D01*
X181084035Y-77236284D01*
X181088815Y-77212250D01*
X181088815Y-77187746D01*
X181084034Y-77163713D01*
X181076099Y-77144555D01*
X181074843Y-77140416D01*
X181074000Y-77131857D01*
X181074000Y-76868143D01*
X181074843Y-76859584D01*
X181076099Y-76855444D01*
X181084035Y-76836284D01*
X181088815Y-76812250D01*
X181088815Y-76787746D01*
X181084034Y-76763713D01*
X181076099Y-76744555D01*
X181074843Y-76740416D01*
X181074000Y-76731857D01*
X181074000Y-76468143D01*
X181074843Y-76459584D01*
X181076099Y-76455444D01*
X181084035Y-76436284D01*
X181088815Y-76412250D01*
X181088815Y-76387746D01*
X181084034Y-76363713D01*
X181076099Y-76344555D01*
X181074843Y-76340416D01*
X181074000Y-76331857D01*
X181074000Y-76068143D01*
X181074843Y-76059584D01*
X181076099Y-76055444D01*
X181084035Y-76036284D01*
X181088815Y-76012250D01*
X181088815Y-75987746D01*
X181084034Y-75963713D01*
X181076099Y-75944555D01*
X181074843Y-75940416D01*
X181074000Y-75931857D01*
X181074000Y-75668143D01*
X181074843Y-75659584D01*
X181076099Y-75655444D01*
X181084035Y-75636284D01*
X181088815Y-75612250D01*
X181088815Y-75587746D01*
X181084034Y-75563713D01*
X181076099Y-75544555D01*
X181074843Y-75540416D01*
X181074000Y-75531857D01*
X181074000Y-75268143D01*
X181074843Y-75259584D01*
X181076099Y-75255444D01*
X181084035Y-75236284D01*
X181088815Y-75212250D01*
X181088815Y-75187746D01*
X181084034Y-75163713D01*
X181076099Y-75144555D01*
X181074843Y-75140416D01*
X181074000Y-75131857D01*
X181074000Y-74868143D01*
X181074843Y-74859584D01*
X181076099Y-74855444D01*
X181084035Y-74836284D01*
X181088815Y-74812250D01*
X181088815Y-74787746D01*
X181084034Y-74763713D01*
X181076099Y-74744555D01*
X181074843Y-74740416D01*
X181074000Y-74731857D01*
X181074000Y-74468143D01*
X181074843Y-74459584D01*
X181076099Y-74455444D01*
X181084035Y-74436284D01*
X181088815Y-74412250D01*
X181088815Y-74387746D01*
X181084034Y-74363713D01*
X181076099Y-74344555D01*
X181074843Y-74340416D01*
X181074000Y-74331857D01*
X181074000Y-74068143D01*
X181074843Y-74059584D01*
X181075550Y-74057255D01*
X181076695Y-74055113D01*
X181078235Y-74053235D01*
X181080113Y-74051695D01*
X181082255Y-74050550D01*
X181084584Y-74049843D01*
X181093143Y-74049000D01*
X182031857Y-74049000D01*
X182040416Y-74049843D01*
G37*
G36*
X199741938Y-78431716D02*
G01*
X199762557Y-78437971D01*
X199781553Y-78448124D01*
X199798208Y-78461792D01*
X199811876Y-78478447D01*
X199822029Y-78497443D01*
X199828284Y-78518062D01*
X199831000Y-78545640D01*
X199831000Y-79054360D01*
X199828284Y-79081938D01*
X199822029Y-79102557D01*
X199811876Y-79121553D01*
X199798208Y-79138208D01*
X199781553Y-79151876D01*
X199762557Y-79162029D01*
X199741938Y-79168284D01*
X199714360Y-79171000D01*
X199255640Y-79171000D01*
X199228062Y-79168284D01*
X199207443Y-79162029D01*
X199188447Y-79151876D01*
X199171792Y-79138208D01*
X199158124Y-79121553D01*
X199147971Y-79102557D01*
X199141716Y-79081938D01*
X199139000Y-79054360D01*
X199139000Y-78545640D01*
X199141716Y-78518062D01*
X199147971Y-78497443D01*
X199158124Y-78478447D01*
X199171792Y-78461792D01*
X199188447Y-78448124D01*
X199207443Y-78437971D01*
X199228062Y-78431716D01*
X199255640Y-78429000D01*
X199714360Y-78429000D01*
X199741938Y-78431716D01*
G37*
G36*
X198771938Y-78431716D02*
G01*
X198792557Y-78437971D01*
X198811553Y-78448124D01*
X198828208Y-78461792D01*
X198841876Y-78478447D01*
X198852029Y-78497443D01*
X198858284Y-78518062D01*
X198861000Y-78545640D01*
X198861000Y-79054360D01*
X198858284Y-79081938D01*
X198852029Y-79102557D01*
X198841876Y-79121553D01*
X198828208Y-79138208D01*
X198811553Y-79151876D01*
X198792557Y-79162029D01*
X198771938Y-79168284D01*
X198744360Y-79171000D01*
X198285640Y-79171000D01*
X198258062Y-79168284D01*
X198237443Y-79162029D01*
X198218447Y-79151876D01*
X198201792Y-79138208D01*
X198188124Y-79121553D01*
X198177971Y-79102557D01*
X198171716Y-79081938D01*
X198169000Y-79054360D01*
X198169000Y-78545640D01*
X198171716Y-78518062D01*
X198177971Y-78497443D01*
X198188124Y-78478447D01*
X198201792Y-78461792D01*
X198218447Y-78448124D01*
X198237443Y-78437971D01*
X198258062Y-78431716D01*
X198285640Y-78429000D01*
X198744360Y-78429000D01*
X198771938Y-78431716D01*
G37*
G36*
X170623512Y-77343927D02*
G01*
X170772812Y-77373624D01*
X170936784Y-77441544D01*
X171084354Y-77540147D01*
X171209853Y-77665646D01*
X171308456Y-77813216D01*
X171376376Y-77977188D01*
X171401975Y-78105886D01*
X171411000Y-78151258D01*
X171411000Y-78328742D01*
X171407854Y-78344556D01*
X171376376Y-78502812D01*
X171308456Y-78666784D01*
X171209853Y-78814354D01*
X171084354Y-78939853D01*
X170936784Y-79038456D01*
X170772812Y-79106376D01*
X170623512Y-79136073D01*
X170598742Y-79141000D01*
X170421258Y-79141000D01*
X170396488Y-79136073D01*
X170247188Y-79106376D01*
X170083216Y-79038456D01*
X169935646Y-78939853D01*
X169810147Y-78814354D01*
X169711544Y-78666784D01*
X169643624Y-78502812D01*
X169612146Y-78344556D01*
X169609000Y-78328742D01*
X169609000Y-78151258D01*
X169618025Y-78105886D01*
X169643624Y-77977188D01*
X169711544Y-77813216D01*
X169810147Y-77665646D01*
X169935646Y-77540147D01*
X170083216Y-77441544D01*
X170247188Y-77373624D01*
X170396488Y-77343927D01*
X170421258Y-77339000D01*
X170598742Y-77339000D01*
X170623512Y-77343927D01*
G37*
G36*
X173163512Y-77343927D02*
G01*
X173312812Y-77373624D01*
X173476784Y-77441544D01*
X173624354Y-77540147D01*
X173749853Y-77665646D01*
X173848456Y-77813216D01*
X173916376Y-77977188D01*
X173941975Y-78105886D01*
X173951000Y-78151258D01*
X173951000Y-78328742D01*
X173947854Y-78344556D01*
X173916376Y-78502812D01*
X173848456Y-78666784D01*
X173749853Y-78814354D01*
X173624354Y-78939853D01*
X173476784Y-79038456D01*
X173312812Y-79106376D01*
X173163512Y-79136073D01*
X173138742Y-79141000D01*
X172961258Y-79141000D01*
X172936488Y-79136073D01*
X172787188Y-79106376D01*
X172623216Y-79038456D01*
X172475646Y-78939853D01*
X172350147Y-78814354D01*
X172251544Y-78666784D01*
X172183624Y-78502812D01*
X172152146Y-78344556D01*
X172149000Y-78328742D01*
X172149000Y-78151258D01*
X172158025Y-78105886D01*
X172183624Y-77977188D01*
X172251544Y-77813216D01*
X172350147Y-77665646D01*
X172475646Y-77540147D01*
X172623216Y-77441544D01*
X172787188Y-77373624D01*
X172936488Y-77343927D01*
X172961258Y-77339000D01*
X173138742Y-77339000D01*
X173163512Y-77343927D01*
G37*
G36*
X206401000Y-79101000D02*
G01*
X204299000Y-79101000D01*
X204299000Y-77499000D01*
X206401000Y-77499000D01*
X206401000Y-79101000D01*
G37*
G36*
X180181938Y-78256716D02*
G01*
X180202557Y-78262971D01*
X180221553Y-78273124D01*
X180238208Y-78286792D01*
X180251876Y-78303447D01*
X180262029Y-78322443D01*
X180268284Y-78343062D01*
X180271000Y-78370640D01*
X180271000Y-78829360D01*
X180268284Y-78856938D01*
X180262029Y-78877557D01*
X180251876Y-78896553D01*
X180238208Y-78913208D01*
X180221553Y-78926876D01*
X180202557Y-78937029D01*
X180181938Y-78943284D01*
X180154360Y-78946000D01*
X179645640Y-78946000D01*
X179618062Y-78943284D01*
X179597443Y-78937029D01*
X179578447Y-78926876D01*
X179561792Y-78913208D01*
X179548124Y-78896553D01*
X179537971Y-78877557D01*
X179531716Y-78856938D01*
X179529000Y-78829360D01*
X179529000Y-78370640D01*
X179531716Y-78343062D01*
X179537971Y-78322443D01*
X179548124Y-78303447D01*
X179561792Y-78286792D01*
X179578447Y-78273124D01*
X179597443Y-78262971D01*
X179618062Y-78256716D01*
X179645640Y-78254000D01*
X180154360Y-78254000D01*
X180181938Y-78256716D01*
G37*
G36*
X165341938Y-78031716D02*
G01*
X165362557Y-78037971D01*
X165381553Y-78048124D01*
X165398208Y-78061792D01*
X165411876Y-78078447D01*
X165422029Y-78097443D01*
X165428284Y-78118062D01*
X165431000Y-78145640D01*
X165431000Y-78654360D01*
X165428284Y-78681938D01*
X165422029Y-78702557D01*
X165411876Y-78721553D01*
X165398208Y-78738208D01*
X165381553Y-78751876D01*
X165362557Y-78762029D01*
X165341938Y-78768284D01*
X165314360Y-78771000D01*
X164855640Y-78771000D01*
X164828062Y-78768284D01*
X164807443Y-78762029D01*
X164788447Y-78751876D01*
X164771792Y-78738208D01*
X164758124Y-78721553D01*
X164747971Y-78702557D01*
X164741716Y-78681938D01*
X164739000Y-78654360D01*
X164739000Y-78145640D01*
X164741716Y-78118062D01*
X164747971Y-78097443D01*
X164758124Y-78078447D01*
X164771792Y-78061792D01*
X164788447Y-78048124D01*
X164807443Y-78037971D01*
X164828062Y-78031716D01*
X164855640Y-78029000D01*
X165314360Y-78029000D01*
X165341938Y-78031716D01*
G37*
G36*
X164371938Y-78031716D02*
G01*
X164392557Y-78037971D01*
X164411553Y-78048124D01*
X164428208Y-78061792D01*
X164441876Y-78078447D01*
X164452029Y-78097443D01*
X164458284Y-78118062D01*
X164461000Y-78145640D01*
X164461000Y-78654360D01*
X164458284Y-78681938D01*
X164452029Y-78702557D01*
X164441876Y-78721553D01*
X164428208Y-78738208D01*
X164411553Y-78751876D01*
X164392557Y-78762029D01*
X164371938Y-78768284D01*
X164344360Y-78771000D01*
X163885640Y-78771000D01*
X163858062Y-78768284D01*
X163837443Y-78762029D01*
X163818447Y-78751876D01*
X163801792Y-78738208D01*
X163788124Y-78721553D01*
X163777971Y-78702557D01*
X163771716Y-78681938D01*
X163769000Y-78654360D01*
X163769000Y-78145640D01*
X163771716Y-78118062D01*
X163777971Y-78097443D01*
X163788124Y-78078447D01*
X163801792Y-78061792D01*
X163818447Y-78048124D01*
X163837443Y-78037971D01*
X163858062Y-78031716D01*
X163885640Y-78029000D01*
X164344360Y-78029000D01*
X164371938Y-78031716D01*
G37*
G36*
X176951000Y-78651000D02*
G01*
X175049000Y-78651000D01*
X175049000Y-76449000D01*
X176951000Y-76449000D01*
X176951000Y-78651000D01*
G37*
G36*
X179251000Y-78651000D02*
G01*
X177349000Y-78651000D01*
X177349000Y-76449000D01*
X179251000Y-76449000D01*
X179251000Y-78651000D01*
G37*
G36*
X186622840Y-75150262D02*
G01*
X186629258Y-75152209D01*
X186635181Y-75155375D01*
X186640368Y-75159632D01*
X186644625Y-75164819D01*
X186647791Y-75170742D01*
X186649738Y-75177160D01*
X186651000Y-75189978D01*
X186651000Y-78410022D01*
X186649738Y-78422840D01*
X186647791Y-78429258D01*
X186644625Y-78435181D01*
X186640368Y-78440368D01*
X186635181Y-78444625D01*
X186629258Y-78447791D01*
X186622840Y-78449738D01*
X186610022Y-78451000D01*
X183389978Y-78451000D01*
X183377160Y-78449738D01*
X183370742Y-78447791D01*
X183364819Y-78444625D01*
X183359632Y-78440368D01*
X183355375Y-78435181D01*
X183352209Y-78429258D01*
X183350262Y-78422840D01*
X183349000Y-78410022D01*
X183349000Y-75189978D01*
X183350262Y-75177160D01*
X183352209Y-75170742D01*
X183355375Y-75164819D01*
X183359632Y-75159632D01*
X183364819Y-75155375D01*
X183370742Y-75152209D01*
X183377160Y-75150262D01*
X183389978Y-75149000D01*
X186610022Y-75149000D01*
X186622840Y-75150262D01*
G37*
G36*
X191741938Y-77631716D02*
G01*
X191762557Y-77637971D01*
X191781553Y-77648124D01*
X191798208Y-77661792D01*
X191811876Y-77678447D01*
X191822029Y-77697443D01*
X191828284Y-77718062D01*
X191831000Y-77745640D01*
X191831000Y-78254360D01*
X191828284Y-78281938D01*
X191822029Y-78302557D01*
X191811876Y-78321553D01*
X191798208Y-78338208D01*
X191781553Y-78351876D01*
X191762557Y-78362029D01*
X191741938Y-78368284D01*
X191714360Y-78371000D01*
X191255640Y-78371000D01*
X191228062Y-78368284D01*
X191207443Y-78362029D01*
X191188447Y-78351876D01*
X191171792Y-78338208D01*
X191158124Y-78321553D01*
X191147971Y-78302557D01*
X191141716Y-78281938D01*
X191139000Y-78254360D01*
X191139000Y-77745640D01*
X191141716Y-77718062D01*
X191147971Y-77697443D01*
X191158124Y-77678447D01*
X191171792Y-77661792D01*
X191188447Y-77648124D01*
X191207443Y-77637971D01*
X191228062Y-77631716D01*
X191255640Y-77629000D01*
X191714360Y-77629000D01*
X191741938Y-77631716D01*
G37*
G36*
X190771938Y-77631716D02*
G01*
X190792557Y-77637971D01*
X190811553Y-77648124D01*
X190828208Y-77661792D01*
X190841876Y-77678447D01*
X190852029Y-77697443D01*
X190858284Y-77718062D01*
X190861000Y-77745640D01*
X190861000Y-78254360D01*
X190858284Y-78281938D01*
X190852029Y-78302557D01*
X190841876Y-78321553D01*
X190828208Y-78338208D01*
X190811553Y-78351876D01*
X190792557Y-78362029D01*
X190771938Y-78368284D01*
X190744360Y-78371000D01*
X190285640Y-78371000D01*
X190258062Y-78368284D01*
X190237443Y-78362029D01*
X190218447Y-78351876D01*
X190201792Y-78338208D01*
X190188124Y-78321553D01*
X190177971Y-78302557D01*
X190171716Y-78281938D01*
X190169000Y-78254360D01*
X190169000Y-77745640D01*
X190171716Y-77718062D01*
X190177971Y-77697443D01*
X190188124Y-77678447D01*
X190201792Y-77661792D01*
X190218447Y-77648124D01*
X190237443Y-77637971D01*
X190258062Y-77631716D01*
X190285640Y-77629000D01*
X190744360Y-77629000D01*
X190771938Y-77631716D01*
G37*
G36*
X180181938Y-77286716D02*
G01*
X180202557Y-77292971D01*
X180221553Y-77303124D01*
X180238208Y-77316792D01*
X180251876Y-77333447D01*
X180262029Y-77352443D01*
X180268284Y-77373062D01*
X180271000Y-77400640D01*
X180271000Y-77859360D01*
X180268284Y-77886938D01*
X180262029Y-77907557D01*
X180251876Y-77926553D01*
X180238208Y-77943208D01*
X180221553Y-77956876D01*
X180202557Y-77967029D01*
X180181938Y-77973284D01*
X180154360Y-77976000D01*
X179645640Y-77976000D01*
X179618062Y-77973284D01*
X179597443Y-77967029D01*
X179578447Y-77956876D01*
X179561792Y-77943208D01*
X179548124Y-77926553D01*
X179537971Y-77907557D01*
X179531716Y-77886938D01*
X179529000Y-77859360D01*
X179529000Y-77400640D01*
X179531716Y-77373062D01*
X179537971Y-77352443D01*
X179548124Y-77333447D01*
X179561792Y-77316792D01*
X179578447Y-77303124D01*
X179597443Y-77292971D01*
X179618062Y-77286716D01*
X179645640Y-77284000D01*
X180154360Y-77284000D01*
X180181938Y-77286716D01*
G37*
G36*
X200101000Y-77951000D02*
G01*
X197999000Y-77951000D01*
X197999000Y-74049000D01*
X200101000Y-74049000D01*
X200101000Y-77951000D01*
G37*
G36*
X208537142Y-75823242D02*
G01*
X208685101Y-75884529D01*
X208818255Y-75973499D01*
X208931501Y-76086745D01*
X209020471Y-76219899D01*
X209081758Y-76367858D01*
X209113000Y-76524925D01*
X209113000Y-76685075D01*
X209081758Y-76842142D01*
X209020471Y-76990101D01*
X208931501Y-77123255D01*
X208818255Y-77236501D01*
X208685101Y-77325471D01*
X208537142Y-77386758D01*
X208380075Y-77418000D01*
X208219925Y-77418000D01*
X208062858Y-77386758D01*
X207914899Y-77325471D01*
X207781745Y-77236501D01*
X207668499Y-77123255D01*
X207579529Y-76990101D01*
X207518242Y-76842142D01*
X207487000Y-76685075D01*
X207487000Y-76524925D01*
X207518242Y-76367858D01*
X207579529Y-76219899D01*
X207668499Y-76086745D01*
X207781745Y-75973499D01*
X207914899Y-75884529D01*
X208062858Y-75823242D01*
X208219925Y-75792000D01*
X208380075Y-75792000D01*
X208537142Y-75823242D01*
G37*
G36*
X190771938Y-76631716D02*
G01*
X190792557Y-76637971D01*
X190811553Y-76648124D01*
X190828208Y-76661792D01*
X190841876Y-76678447D01*
X190852029Y-76697443D01*
X190858284Y-76718062D01*
X190861000Y-76745640D01*
X190861000Y-77254360D01*
X190858284Y-77281938D01*
X190852029Y-77302557D01*
X190841876Y-77321553D01*
X190828208Y-77338208D01*
X190811553Y-77351876D01*
X190792557Y-77362029D01*
X190771938Y-77368284D01*
X190744360Y-77371000D01*
X190285640Y-77371000D01*
X190258062Y-77368284D01*
X190237443Y-77362029D01*
X190218447Y-77351876D01*
X190201792Y-77338208D01*
X190188124Y-77321553D01*
X190177971Y-77302557D01*
X190171716Y-77281938D01*
X190169000Y-77254360D01*
X190169000Y-76745640D01*
X190171716Y-76718062D01*
X190177971Y-76697443D01*
X190188124Y-76678447D01*
X190201792Y-76661792D01*
X190218447Y-76648124D01*
X190237443Y-76637971D01*
X190258062Y-76631716D01*
X190285640Y-76629000D01*
X190744360Y-76629000D01*
X190771938Y-76631716D01*
G37*
G36*
X191741938Y-76631716D02*
G01*
X191762557Y-76637971D01*
X191781553Y-76648124D01*
X191798208Y-76661792D01*
X191811876Y-76678447D01*
X191822029Y-76697443D01*
X191828284Y-76718062D01*
X191831000Y-76745640D01*
X191831000Y-77254360D01*
X191828284Y-77281938D01*
X191822029Y-77302557D01*
X191811876Y-77321553D01*
X191798208Y-77338208D01*
X191781553Y-77351876D01*
X191762557Y-77362029D01*
X191741938Y-77368284D01*
X191714360Y-77371000D01*
X191255640Y-77371000D01*
X191228062Y-77368284D01*
X191207443Y-77362029D01*
X191188447Y-77351876D01*
X191171792Y-77338208D01*
X191158124Y-77321553D01*
X191147971Y-77302557D01*
X191141716Y-77281938D01*
X191139000Y-77254360D01*
X191139000Y-76745640D01*
X191141716Y-76718062D01*
X191147971Y-76697443D01*
X191158124Y-76678447D01*
X191171792Y-76661792D01*
X191188447Y-76648124D01*
X191207443Y-76637971D01*
X191228062Y-76631716D01*
X191255640Y-76629000D01*
X191714360Y-76629000D01*
X191741938Y-76631716D01*
G37*
G36*
X206401000Y-76801000D02*
G01*
X204299000Y-76801000D01*
X204299000Y-75199000D01*
X206401000Y-75199000D01*
X206401000Y-76801000D01*
G37*
G36*
X170616624Y-74802557D02*
G01*
X170772812Y-74833624D01*
X170936784Y-74901544D01*
X171084354Y-75000147D01*
X171209853Y-75125646D01*
X171308456Y-75273216D01*
X171376376Y-75437188D01*
X171411000Y-75611259D01*
X171411000Y-75788741D01*
X171376376Y-75962812D01*
X171308456Y-76126784D01*
X171209853Y-76274354D01*
X171084354Y-76399853D01*
X170936784Y-76498456D01*
X170772812Y-76566376D01*
X170623512Y-76596073D01*
X170598742Y-76601000D01*
X170421258Y-76601000D01*
X170396488Y-76596073D01*
X170247188Y-76566376D01*
X170083216Y-76498456D01*
X169935646Y-76399853D01*
X169810147Y-76274354D01*
X169711544Y-76126784D01*
X169643624Y-75962812D01*
X169609000Y-75788741D01*
X169609000Y-75611259D01*
X169643624Y-75437188D01*
X169711544Y-75273216D01*
X169810147Y-75125646D01*
X169935646Y-75000147D01*
X170083216Y-74901544D01*
X170247188Y-74833624D01*
X170403376Y-74802557D01*
X170421258Y-74799000D01*
X170598742Y-74799000D01*
X170616624Y-74802557D01*
G37*
G36*
X173156624Y-74802557D02*
G01*
X173312812Y-74833624D01*
X173476784Y-74901544D01*
X173624354Y-75000147D01*
X173749853Y-75125646D01*
X173848456Y-75273216D01*
X173916376Y-75437188D01*
X173951000Y-75611259D01*
X173951000Y-75788741D01*
X173916376Y-75962812D01*
X173848456Y-76126784D01*
X173749853Y-76274354D01*
X173624354Y-76399853D01*
X173476784Y-76498456D01*
X173312812Y-76566376D01*
X173163512Y-76596073D01*
X173138742Y-76601000D01*
X172961258Y-76601000D01*
X172936488Y-76596073D01*
X172787188Y-76566376D01*
X172623216Y-76498456D01*
X172475646Y-76399853D01*
X172350147Y-76274354D01*
X172251544Y-76126784D01*
X172183624Y-75962812D01*
X172149000Y-75788741D01*
X172149000Y-75611259D01*
X172183624Y-75437188D01*
X172251544Y-75273216D01*
X172350147Y-75125646D01*
X172475646Y-75000147D01*
X172623216Y-74901544D01*
X172787188Y-74833624D01*
X172943376Y-74802557D01*
X172961258Y-74799000D01*
X173138742Y-74799000D01*
X173156624Y-74802557D01*
G37*
G36*
X191341938Y-75631716D02*
G01*
X191362557Y-75637971D01*
X191381553Y-75648124D01*
X191398208Y-75661792D01*
X191411876Y-75678447D01*
X191422029Y-75697443D01*
X191428284Y-75718062D01*
X191431000Y-75745640D01*
X191431000Y-76254360D01*
X191428284Y-76281938D01*
X191422029Y-76302557D01*
X191411876Y-76321553D01*
X191398208Y-76338208D01*
X191381553Y-76351876D01*
X191362557Y-76362029D01*
X191341938Y-76368284D01*
X191314360Y-76371000D01*
X190855640Y-76371000D01*
X190828062Y-76368284D01*
X190807443Y-76362029D01*
X190788447Y-76351876D01*
X190771792Y-76338208D01*
X190758124Y-76321553D01*
X190747971Y-76302557D01*
X190741716Y-76281938D01*
X190739000Y-76254360D01*
X190739000Y-75745640D01*
X190741716Y-75718062D01*
X190747971Y-75697443D01*
X190758124Y-75678447D01*
X190771792Y-75661792D01*
X190788447Y-75648124D01*
X190807443Y-75637971D01*
X190828062Y-75631716D01*
X190855640Y-75629000D01*
X191314360Y-75629000D01*
X191341938Y-75631716D01*
G37*
G36*
X190371938Y-75631716D02*
G01*
X190392557Y-75637971D01*
X190411553Y-75648124D01*
X190428208Y-75661792D01*
X190441876Y-75678447D01*
X190452029Y-75697443D01*
X190458284Y-75718062D01*
X190461000Y-75745640D01*
X190461000Y-76254360D01*
X190458284Y-76281938D01*
X190452029Y-76302557D01*
X190441876Y-76321553D01*
X190428208Y-76338208D01*
X190411553Y-76351876D01*
X190392557Y-76362029D01*
X190371938Y-76368284D01*
X190344360Y-76371000D01*
X189885640Y-76371000D01*
X189858062Y-76368284D01*
X189837443Y-76362029D01*
X189818447Y-76351876D01*
X189801792Y-76338208D01*
X189788124Y-76321553D01*
X189777971Y-76302557D01*
X189771716Y-76281938D01*
X189769000Y-76254360D01*
X189769000Y-75745640D01*
X189771716Y-75718062D01*
X189777971Y-75697443D01*
X189788124Y-75678447D01*
X189801792Y-75661792D01*
X189818447Y-75648124D01*
X189837443Y-75637971D01*
X189858062Y-75631716D01*
X189885640Y-75629000D01*
X190344360Y-75629000D01*
X190371938Y-75631716D01*
G37*
G36*
X180141938Y-75431716D02*
G01*
X180162557Y-75437971D01*
X180181553Y-75448124D01*
X180198208Y-75461792D01*
X180211876Y-75478447D01*
X180222029Y-75497443D01*
X180228284Y-75518062D01*
X180231000Y-75545640D01*
X180231000Y-76054360D01*
X180228284Y-76081938D01*
X180222029Y-76102557D01*
X180211876Y-76121553D01*
X180198208Y-76138208D01*
X180181553Y-76151876D01*
X180162557Y-76162029D01*
X180141938Y-76168284D01*
X180114360Y-76171000D01*
X179655640Y-76171000D01*
X179628062Y-76168284D01*
X179607443Y-76162029D01*
X179588447Y-76151876D01*
X179571792Y-76138208D01*
X179558124Y-76121553D01*
X179547971Y-76102557D01*
X179541716Y-76081938D01*
X179539000Y-76054360D01*
X179539000Y-75545640D01*
X179541716Y-75518062D01*
X179547971Y-75497443D01*
X179558124Y-75478447D01*
X179571792Y-75461792D01*
X179588447Y-75448124D01*
X179607443Y-75437971D01*
X179628062Y-75431716D01*
X179655640Y-75429000D01*
X180114360Y-75429000D01*
X180141938Y-75431716D01*
G37*
G36*
X179171938Y-75431716D02*
G01*
X179192557Y-75437971D01*
X179211553Y-75448124D01*
X179228208Y-75461792D01*
X179241876Y-75478447D01*
X179252029Y-75497443D01*
X179258284Y-75518062D01*
X179261000Y-75545640D01*
X179261000Y-76054360D01*
X179258284Y-76081938D01*
X179252029Y-76102557D01*
X179241876Y-76121553D01*
X179228208Y-76138208D01*
X179211553Y-76151876D01*
X179192557Y-76162029D01*
X179171938Y-76168284D01*
X179144360Y-76171000D01*
X178685640Y-76171000D01*
X178658062Y-76168284D01*
X178637443Y-76162029D01*
X178618447Y-76151876D01*
X178601792Y-76138208D01*
X178588124Y-76121553D01*
X178577971Y-76102557D01*
X178571716Y-76081938D01*
X178569000Y-76054360D01*
X178569000Y-75545640D01*
X178571716Y-75518062D01*
X178577971Y-75497443D01*
X178588124Y-75478447D01*
X178601792Y-75461792D01*
X178618447Y-75448124D01*
X178637443Y-75437971D01*
X178658062Y-75431716D01*
X178685640Y-75429000D01*
X179144360Y-75429000D01*
X179171938Y-75431716D01*
G37*
G36*
X178141938Y-75031716D02*
G01*
X178162557Y-75037971D01*
X178181553Y-75048124D01*
X178198208Y-75061792D01*
X178211876Y-75078447D01*
X178222029Y-75097443D01*
X178228284Y-75118062D01*
X178231000Y-75145640D01*
X178231000Y-75654360D01*
X178228284Y-75681938D01*
X178222029Y-75702557D01*
X178211876Y-75721553D01*
X178198208Y-75738208D01*
X178181553Y-75751876D01*
X178162557Y-75762029D01*
X178141938Y-75768284D01*
X178114360Y-75771000D01*
X177655640Y-75771000D01*
X177628062Y-75768284D01*
X177607443Y-75762029D01*
X177588447Y-75751876D01*
X177571792Y-75738208D01*
X177558124Y-75721553D01*
X177547971Y-75702557D01*
X177541716Y-75681938D01*
X177539000Y-75654360D01*
X177539000Y-75145640D01*
X177541716Y-75118062D01*
X177547971Y-75097443D01*
X177558124Y-75078447D01*
X177571792Y-75061792D01*
X177588447Y-75048124D01*
X177607443Y-75037971D01*
X177628062Y-75031716D01*
X177655640Y-75029000D01*
X178114360Y-75029000D01*
X178141938Y-75031716D01*
G37*
G36*
X177171938Y-75031716D02*
G01*
X177192557Y-75037971D01*
X177211553Y-75048124D01*
X177228208Y-75061792D01*
X177241876Y-75078447D01*
X177252029Y-75097443D01*
X177258284Y-75118062D01*
X177261000Y-75145640D01*
X177261000Y-75654360D01*
X177258284Y-75681938D01*
X177252029Y-75702557D01*
X177241876Y-75721553D01*
X177228208Y-75738208D01*
X177211553Y-75751876D01*
X177192557Y-75762029D01*
X177171938Y-75768284D01*
X177144360Y-75771000D01*
X176685640Y-75771000D01*
X176658062Y-75768284D01*
X176637443Y-75762029D01*
X176618447Y-75751876D01*
X176601792Y-75738208D01*
X176588124Y-75721553D01*
X176577971Y-75702557D01*
X176571716Y-75681938D01*
X176569000Y-75654360D01*
X176569000Y-75145640D01*
X176571716Y-75118062D01*
X176577971Y-75097443D01*
X176588124Y-75078447D01*
X176601792Y-75061792D01*
X176618447Y-75048124D01*
X176637443Y-75037971D01*
X176658062Y-75031716D01*
X176685640Y-75029000D01*
X177144360Y-75029000D01*
X177171938Y-75031716D01*
G37*
G36*
X190371938Y-74631716D02*
G01*
X190392557Y-74637971D01*
X190411553Y-74648124D01*
X190428208Y-74661792D01*
X190441876Y-74678447D01*
X190452029Y-74697443D01*
X190458284Y-74718062D01*
X190461000Y-74745640D01*
X190461000Y-75254360D01*
X190458284Y-75281938D01*
X190452029Y-75302557D01*
X190441876Y-75321553D01*
X190428208Y-75338208D01*
X190411553Y-75351876D01*
X190392557Y-75362029D01*
X190371938Y-75368284D01*
X190344360Y-75371000D01*
X189885640Y-75371000D01*
X189858062Y-75368284D01*
X189837443Y-75362029D01*
X189818447Y-75351876D01*
X189801792Y-75338208D01*
X189788124Y-75321553D01*
X189777971Y-75302557D01*
X189771716Y-75281938D01*
X189769000Y-75254360D01*
X189769000Y-74745640D01*
X189771716Y-74718062D01*
X189777971Y-74697443D01*
X189788124Y-74678447D01*
X189801792Y-74661792D01*
X189818447Y-74648124D01*
X189837443Y-74637971D01*
X189858062Y-74631716D01*
X189885640Y-74629000D01*
X190344360Y-74629000D01*
X190371938Y-74631716D01*
G37*
G36*
X191341938Y-74631716D02*
G01*
X191362557Y-74637971D01*
X191381553Y-74648124D01*
X191398208Y-74661792D01*
X191411876Y-74678447D01*
X191422029Y-74697443D01*
X191428284Y-74718062D01*
X191431000Y-74745640D01*
X191431000Y-75254360D01*
X191428284Y-75281938D01*
X191422029Y-75302557D01*
X191411876Y-75321553D01*
X191398208Y-75338208D01*
X191381553Y-75351876D01*
X191362557Y-75362029D01*
X191341938Y-75368284D01*
X191314360Y-75371000D01*
X190855640Y-75371000D01*
X190828062Y-75368284D01*
X190807443Y-75362029D01*
X190788447Y-75351876D01*
X190771792Y-75338208D01*
X190758124Y-75321553D01*
X190747971Y-75302557D01*
X190741716Y-75281938D01*
X190739000Y-75254360D01*
X190739000Y-74745640D01*
X190741716Y-74718062D01*
X190747971Y-74697443D01*
X190758124Y-74678447D01*
X190771792Y-74661792D01*
X190788447Y-74648124D01*
X190807443Y-74637971D01*
X190828062Y-74631716D01*
X190855640Y-74629000D01*
X191314360Y-74629000D01*
X191341938Y-74631716D01*
G37*
G36*
X208537142Y-73283242D02*
G01*
X208685101Y-73344529D01*
X208818255Y-73433499D01*
X208931501Y-73546745D01*
X209020471Y-73679899D01*
X209081758Y-73827858D01*
X209113000Y-73984925D01*
X209113000Y-74145075D01*
X209081758Y-74302142D01*
X209020471Y-74450101D01*
X208931501Y-74583255D01*
X208818255Y-74696501D01*
X208685101Y-74785471D01*
X208537142Y-74846758D01*
X208380075Y-74878000D01*
X208219925Y-74878000D01*
X208062858Y-74846758D01*
X207914899Y-74785471D01*
X207781745Y-74696501D01*
X207668499Y-74583255D01*
X207579529Y-74450101D01*
X207518242Y-74302142D01*
X207487000Y-74145075D01*
X207487000Y-73984925D01*
X207518242Y-73827858D01*
X207579529Y-73679899D01*
X207668499Y-73546745D01*
X207781745Y-73433499D01*
X207914899Y-73344529D01*
X208062858Y-73283242D01*
X208219925Y-73252000D01*
X208380075Y-73252000D01*
X208537142Y-73283242D01*
G37*
G36*
X193441938Y-74131716D02*
G01*
X193462557Y-74137971D01*
X193481553Y-74148124D01*
X193498208Y-74161792D01*
X193511876Y-74178447D01*
X193522029Y-74197443D01*
X193528284Y-74218062D01*
X193531000Y-74245640D01*
X193531000Y-74754360D01*
X193528284Y-74781938D01*
X193522029Y-74802557D01*
X193511876Y-74821553D01*
X193498208Y-74838208D01*
X193481553Y-74851876D01*
X193462557Y-74862029D01*
X193441938Y-74868284D01*
X193414360Y-74871000D01*
X192955640Y-74871000D01*
X192928062Y-74868284D01*
X192907443Y-74862029D01*
X192888447Y-74851876D01*
X192871792Y-74838208D01*
X192858124Y-74821553D01*
X192847971Y-74802557D01*
X192841716Y-74781938D01*
X192839000Y-74754360D01*
X192839000Y-74245640D01*
X192841716Y-74218062D01*
X192847971Y-74197443D01*
X192858124Y-74178447D01*
X192871792Y-74161792D01*
X192888447Y-74148124D01*
X192907443Y-74137971D01*
X192928062Y-74131716D01*
X192955640Y-74129000D01*
X193414360Y-74129000D01*
X193441938Y-74131716D01*
G37*
G36*
X192471938Y-74131716D02*
G01*
X192492557Y-74137971D01*
X192511553Y-74148124D01*
X192528208Y-74161792D01*
X192541876Y-74178447D01*
X192552029Y-74197443D01*
X192558284Y-74218062D01*
X192561000Y-74245640D01*
X192561000Y-74754360D01*
X192558284Y-74781938D01*
X192552029Y-74802557D01*
X192541876Y-74821553D01*
X192528208Y-74838208D01*
X192511553Y-74851876D01*
X192492557Y-74862029D01*
X192471938Y-74868284D01*
X192444360Y-74871000D01*
X191985640Y-74871000D01*
X191958062Y-74868284D01*
X191937443Y-74862029D01*
X191918447Y-74851876D01*
X191901792Y-74838208D01*
X191888124Y-74821553D01*
X191877971Y-74802557D01*
X191871716Y-74781938D01*
X191869000Y-74754360D01*
X191869000Y-74245640D01*
X191871716Y-74218062D01*
X191877971Y-74197443D01*
X191888124Y-74178447D01*
X191901792Y-74161792D01*
X191918447Y-74148124D01*
X191937443Y-74137971D01*
X191958062Y-74131716D01*
X191985640Y-74129000D01*
X192444360Y-74129000D01*
X192471938Y-74131716D01*
G37*
G36*
X206401000Y-74501000D02*
G01*
X204299000Y-74501000D01*
X204299000Y-72899000D01*
X206401000Y-72899000D01*
X206401000Y-74501000D01*
G37*
G36*
X190941938Y-73631716D02*
G01*
X190962557Y-73637971D01*
X190981553Y-73648124D01*
X190998208Y-73661792D01*
X191011876Y-73678447D01*
X191022029Y-73697443D01*
X191028284Y-73718062D01*
X191031000Y-73745640D01*
X191031000Y-74254360D01*
X191028284Y-74281938D01*
X191022029Y-74302557D01*
X191011876Y-74321553D01*
X190998208Y-74338208D01*
X190981553Y-74351876D01*
X190962557Y-74362029D01*
X190941938Y-74368284D01*
X190914360Y-74371000D01*
X190455640Y-74371000D01*
X190428062Y-74368284D01*
X190407443Y-74362029D01*
X190388447Y-74351876D01*
X190371792Y-74338208D01*
X190358124Y-74321553D01*
X190347971Y-74302557D01*
X190341716Y-74281938D01*
X190339000Y-74254360D01*
X190339000Y-73745640D01*
X190341716Y-73718062D01*
X190347971Y-73697443D01*
X190358124Y-73678447D01*
X190371792Y-73661792D01*
X190388447Y-73648124D01*
X190407443Y-73637971D01*
X190428062Y-73631716D01*
X190455640Y-73629000D01*
X190914360Y-73629000D01*
X190941938Y-73631716D01*
G37*
G36*
X189971938Y-73631716D02*
G01*
X189992557Y-73637971D01*
X190011553Y-73648124D01*
X190028208Y-73661792D01*
X190041876Y-73678447D01*
X190052029Y-73697443D01*
X190058284Y-73718062D01*
X190061000Y-73745640D01*
X190061000Y-74254360D01*
X190058284Y-74281938D01*
X190052029Y-74302557D01*
X190041876Y-74321553D01*
X190028208Y-74338208D01*
X190011553Y-74351876D01*
X189992557Y-74362029D01*
X189971938Y-74368284D01*
X189944360Y-74371000D01*
X189485640Y-74371000D01*
X189458062Y-74368284D01*
X189437443Y-74362029D01*
X189418447Y-74351876D01*
X189401792Y-74338208D01*
X189388124Y-74321553D01*
X189377971Y-74302557D01*
X189371716Y-74281938D01*
X189369000Y-74254360D01*
X189369000Y-73745640D01*
X189371716Y-73718062D01*
X189377971Y-73697443D01*
X189388124Y-73678447D01*
X189401792Y-73661792D01*
X189418447Y-73648124D01*
X189437443Y-73637971D01*
X189458062Y-73631716D01*
X189485640Y-73629000D01*
X189944360Y-73629000D01*
X189971938Y-73631716D01*
G37*
G36*
X173163512Y-72263927D02*
G01*
X173312812Y-72293624D01*
X173476784Y-72361544D01*
X173624354Y-72460147D01*
X173749853Y-72585646D01*
X173848456Y-72733216D01*
X173916376Y-72897188D01*
X173951000Y-73071259D01*
X173951000Y-73248741D01*
X173916376Y-73422812D01*
X173848456Y-73586784D01*
X173749853Y-73734354D01*
X173624354Y-73859853D01*
X173476784Y-73958456D01*
X173312812Y-74026376D01*
X173168338Y-74055113D01*
X173138742Y-74061000D01*
X172961258Y-74061000D01*
X172931662Y-74055113D01*
X172787188Y-74026376D01*
X172623216Y-73958456D01*
X172475646Y-73859853D01*
X172350147Y-73734354D01*
X172251544Y-73586784D01*
X172183624Y-73422812D01*
X172149000Y-73248741D01*
X172149000Y-73071259D01*
X172183624Y-72897188D01*
X172251544Y-72733216D01*
X172350147Y-72585646D01*
X172475646Y-72460147D01*
X172623216Y-72361544D01*
X172787188Y-72293624D01*
X172936488Y-72263927D01*
X172961258Y-72259000D01*
X173138742Y-72259000D01*
X173163512Y-72263927D01*
G37*
G36*
X170623512Y-72263927D02*
G01*
X170772812Y-72293624D01*
X170936784Y-72361544D01*
X171084354Y-72460147D01*
X171209853Y-72585646D01*
X171308456Y-72733216D01*
X171376376Y-72897188D01*
X171411000Y-73071259D01*
X171411000Y-73248741D01*
X171376376Y-73422812D01*
X171308456Y-73586784D01*
X171209853Y-73734354D01*
X171084354Y-73859853D01*
X170936784Y-73958456D01*
X170772812Y-74026376D01*
X170628338Y-74055113D01*
X170598742Y-74061000D01*
X170421258Y-74061000D01*
X170391662Y-74055113D01*
X170247188Y-74026376D01*
X170083216Y-73958456D01*
X169935646Y-73859853D01*
X169810147Y-73734354D01*
X169711544Y-73586784D01*
X169643624Y-73422812D01*
X169609000Y-73248741D01*
X169609000Y-73071259D01*
X169643624Y-72897188D01*
X169711544Y-72733216D01*
X169810147Y-72585646D01*
X169935646Y-72460147D01*
X170083216Y-72361544D01*
X170247188Y-72293624D01*
X170396488Y-72263927D01*
X170421258Y-72259000D01*
X170598742Y-72259000D01*
X170623512Y-72263927D01*
G37*
G36*
X182540416Y-72874843D02*
G01*
X182544556Y-72876099D01*
X182563716Y-72884035D01*
X182587750Y-72888815D01*
X182612254Y-72888815D01*
X182636287Y-72884034D01*
X182655445Y-72876099D01*
X182659584Y-72874843D01*
X182668143Y-72874000D01*
X182931857Y-72874000D01*
X182940416Y-72874843D01*
X182944556Y-72876099D01*
X182963716Y-72884035D01*
X182987750Y-72888815D01*
X183012254Y-72888815D01*
X183036287Y-72884034D01*
X183055445Y-72876099D01*
X183059584Y-72874843D01*
X183068143Y-72874000D01*
X183331857Y-72874000D01*
X183340416Y-72874843D01*
X183344556Y-72876099D01*
X183363716Y-72884035D01*
X183387750Y-72888815D01*
X183412254Y-72888815D01*
X183436287Y-72884034D01*
X183455445Y-72876099D01*
X183459584Y-72874843D01*
X183468143Y-72874000D01*
X183731857Y-72874000D01*
X183740416Y-72874843D01*
X183744556Y-72876099D01*
X183763716Y-72884035D01*
X183787750Y-72888815D01*
X183812254Y-72888815D01*
X183836287Y-72884034D01*
X183855445Y-72876099D01*
X183859584Y-72874843D01*
X183868143Y-72874000D01*
X184131857Y-72874000D01*
X184140416Y-72874843D01*
X184144556Y-72876099D01*
X184163716Y-72884035D01*
X184187750Y-72888815D01*
X184212254Y-72888815D01*
X184236287Y-72884034D01*
X184255445Y-72876099D01*
X184259584Y-72874843D01*
X184268143Y-72874000D01*
X184531857Y-72874000D01*
X184540416Y-72874843D01*
X184544556Y-72876099D01*
X184563716Y-72884035D01*
X184587750Y-72888815D01*
X184612254Y-72888815D01*
X184636287Y-72884034D01*
X184655445Y-72876099D01*
X184659584Y-72874843D01*
X184668143Y-72874000D01*
X184931857Y-72874000D01*
X184940416Y-72874843D01*
X184944556Y-72876099D01*
X184963716Y-72884035D01*
X184987750Y-72888815D01*
X185012254Y-72888815D01*
X185036287Y-72884034D01*
X185055445Y-72876099D01*
X185059584Y-72874843D01*
X185068143Y-72874000D01*
X185331857Y-72874000D01*
X185340416Y-72874843D01*
X185344556Y-72876099D01*
X185363716Y-72884035D01*
X185387750Y-72888815D01*
X185412254Y-72888815D01*
X185436287Y-72884034D01*
X185455445Y-72876099D01*
X185459584Y-72874843D01*
X185468143Y-72874000D01*
X185731857Y-72874000D01*
X185740416Y-72874843D01*
X185744556Y-72876099D01*
X185763716Y-72884035D01*
X185787750Y-72888815D01*
X185812254Y-72888815D01*
X185836287Y-72884034D01*
X185855445Y-72876099D01*
X185859584Y-72874843D01*
X185868143Y-72874000D01*
X186131857Y-72874000D01*
X186140416Y-72874843D01*
X186144556Y-72876099D01*
X186163716Y-72884035D01*
X186187750Y-72888815D01*
X186212254Y-72888815D01*
X186236287Y-72884034D01*
X186255445Y-72876099D01*
X186259584Y-72874843D01*
X186268143Y-72874000D01*
X186531857Y-72874000D01*
X186540416Y-72874843D01*
X186544556Y-72876099D01*
X186563716Y-72884035D01*
X186587750Y-72888815D01*
X186612254Y-72888815D01*
X186636287Y-72884034D01*
X186655445Y-72876099D01*
X186659584Y-72874843D01*
X186668143Y-72874000D01*
X186931857Y-72874000D01*
X186940416Y-72874843D01*
X186944556Y-72876099D01*
X186963716Y-72884035D01*
X186987750Y-72888815D01*
X187012254Y-72888815D01*
X187036287Y-72884034D01*
X187055445Y-72876099D01*
X187059584Y-72874843D01*
X187068143Y-72874000D01*
X187331857Y-72874000D01*
X187340416Y-72874843D01*
X187344556Y-72876099D01*
X187363716Y-72884035D01*
X187387750Y-72888815D01*
X187412254Y-72888815D01*
X187436287Y-72884034D01*
X187455445Y-72876099D01*
X187459584Y-72874843D01*
X187468143Y-72874000D01*
X187731857Y-72874000D01*
X187740416Y-72874843D01*
X187742745Y-72875550D01*
X187744887Y-72876695D01*
X187746765Y-72878235D01*
X187748305Y-72880113D01*
X187749450Y-72882255D01*
X187750157Y-72884584D01*
X187751000Y-72893143D01*
X187751000Y-73831857D01*
X187750157Y-73840416D01*
X187749450Y-73842745D01*
X187748305Y-73844887D01*
X187746765Y-73846765D01*
X187744887Y-73848305D01*
X187742745Y-73849450D01*
X187740416Y-73850157D01*
X187731857Y-73851000D01*
X187468143Y-73851000D01*
X187459584Y-73850157D01*
X187455444Y-73848901D01*
X187436284Y-73840965D01*
X187412250Y-73836185D01*
X187387746Y-73836185D01*
X187363713Y-73840966D01*
X187344555Y-73848901D01*
X187340416Y-73850157D01*
X187331857Y-73851000D01*
X187068143Y-73851000D01*
X187059584Y-73850157D01*
X187055444Y-73848901D01*
X187036284Y-73840965D01*
X187012250Y-73836185D01*
X186987746Y-73836185D01*
X186963713Y-73840966D01*
X186944555Y-73848901D01*
X186940416Y-73850157D01*
X186931857Y-73851000D01*
X186668143Y-73851000D01*
X186659584Y-73850157D01*
X186655444Y-73848901D01*
X186636284Y-73840965D01*
X186612250Y-73836185D01*
X186587746Y-73836185D01*
X186563713Y-73840966D01*
X186544555Y-73848901D01*
X186540416Y-73850157D01*
X186531857Y-73851000D01*
X186268143Y-73851000D01*
X186259584Y-73850157D01*
X186255444Y-73848901D01*
X186236284Y-73840965D01*
X186212250Y-73836185D01*
X186187746Y-73836185D01*
X186163713Y-73840966D01*
X186144555Y-73848901D01*
X186140416Y-73850157D01*
X186131857Y-73851000D01*
X185868143Y-73851000D01*
X185859584Y-73850157D01*
X185855444Y-73848901D01*
X185836284Y-73840965D01*
X185812250Y-73836185D01*
X185787746Y-73836185D01*
X185763713Y-73840966D01*
X185744555Y-73848901D01*
X185740416Y-73850157D01*
X185731857Y-73851000D01*
X185468143Y-73851000D01*
X185459584Y-73850157D01*
X185455444Y-73848901D01*
X185436284Y-73840965D01*
X185412250Y-73836185D01*
X185387746Y-73836185D01*
X185363713Y-73840966D01*
X185344555Y-73848901D01*
X185340416Y-73850157D01*
X185331857Y-73851000D01*
X185068143Y-73851000D01*
X185059584Y-73850157D01*
X185055444Y-73848901D01*
X185036284Y-73840965D01*
X185012250Y-73836185D01*
X184987746Y-73836185D01*
X184963713Y-73840966D01*
X184944555Y-73848901D01*
X184940416Y-73850157D01*
X184931857Y-73851000D01*
X184668143Y-73851000D01*
X184659584Y-73850157D01*
X184655444Y-73848901D01*
X184636284Y-73840965D01*
X184612250Y-73836185D01*
X184587746Y-73836185D01*
X184563713Y-73840966D01*
X184544555Y-73848901D01*
X184540416Y-73850157D01*
X184531857Y-73851000D01*
X184268143Y-73851000D01*
X184259584Y-73850157D01*
X184255444Y-73848901D01*
X184236284Y-73840965D01*
X184212250Y-73836185D01*
X184187746Y-73836185D01*
X184163713Y-73840966D01*
X184144555Y-73848901D01*
X184140416Y-73850157D01*
X184131857Y-73851000D01*
X183868143Y-73851000D01*
X183859584Y-73850157D01*
X183855444Y-73848901D01*
X183836284Y-73840965D01*
X183812250Y-73836185D01*
X183787746Y-73836185D01*
X183763713Y-73840966D01*
X183744555Y-73848901D01*
X183740416Y-73850157D01*
X183731857Y-73851000D01*
X183468143Y-73851000D01*
X183459584Y-73850157D01*
X183455444Y-73848901D01*
X183436284Y-73840965D01*
X183412250Y-73836185D01*
X183387746Y-73836185D01*
X183363713Y-73840966D01*
X183344555Y-73848901D01*
X183340416Y-73850157D01*
X183331857Y-73851000D01*
X183068143Y-73851000D01*
X183059584Y-73850157D01*
X183055444Y-73848901D01*
X183036284Y-73840965D01*
X183012250Y-73836185D01*
X182987746Y-73836185D01*
X182963713Y-73840966D01*
X182944555Y-73848901D01*
X182940416Y-73850157D01*
X182931857Y-73851000D01*
X182668143Y-73851000D01*
X182659584Y-73850157D01*
X182655444Y-73848901D01*
X182636284Y-73840965D01*
X182612250Y-73836185D01*
X182587746Y-73836185D01*
X182563713Y-73840966D01*
X182544555Y-73848901D01*
X182540416Y-73850157D01*
X182531857Y-73851000D01*
X182268143Y-73851000D01*
X182259584Y-73850157D01*
X182257255Y-73849450D01*
X182255113Y-73848305D01*
X182253235Y-73846765D01*
X182251695Y-73844887D01*
X182250550Y-73842745D01*
X182249843Y-73840416D01*
X182249000Y-73831857D01*
X182249000Y-72893143D01*
X182249843Y-72884584D01*
X182250550Y-72882255D01*
X182251695Y-72880113D01*
X182253235Y-72878235D01*
X182255113Y-72876695D01*
X182257255Y-72875550D01*
X182259584Y-72874843D01*
X182268143Y-72874000D01*
X182531857Y-72874000D01*
X182540416Y-72874843D01*
G37*
G36*
X199384468Y-72003565D02*
G01*
X199423138Y-72015296D01*
X199458777Y-72034346D01*
X199490017Y-72059983D01*
X199515654Y-72091223D01*
X199534704Y-72126862D01*
X199546435Y-72165532D01*
X199551000Y-72211888D01*
X199551000Y-72863112D01*
X199546435Y-72909468D01*
X199534704Y-72948138D01*
X199515654Y-72983777D01*
X199490017Y-73015017D01*
X199458777Y-73040654D01*
X199423138Y-73059704D01*
X199384468Y-73071435D01*
X199338112Y-73076000D01*
X198261888Y-73076000D01*
X198215532Y-73071435D01*
X198176862Y-73059704D01*
X198141223Y-73040654D01*
X198109983Y-73015017D01*
X198084346Y-72983777D01*
X198065296Y-72948138D01*
X198053565Y-72909468D01*
X198049000Y-72863112D01*
X198049000Y-72211888D01*
X198053565Y-72165532D01*
X198065296Y-72126862D01*
X198084346Y-72091223D01*
X198109983Y-72059983D01*
X198141223Y-72034346D01*
X198176862Y-72015296D01*
X198215532Y-72003565D01*
X198261888Y-71999000D01*
X199338112Y-71999000D01*
X199384468Y-72003565D01*
G37*
G36*
X179601000Y-73051000D02*
G01*
X177749000Y-73051000D01*
X177749000Y-72349000D01*
X179601000Y-72349000D01*
X179601000Y-73051000D01*
G37*
G36*
X208537142Y-70743242D02*
G01*
X208685101Y-70804529D01*
X208818255Y-70893499D01*
X208931501Y-71006745D01*
X209020471Y-71139899D01*
X209081758Y-71287858D01*
X209113000Y-71444925D01*
X209113000Y-71605075D01*
X209081758Y-71762142D01*
X209020471Y-71910101D01*
X208931501Y-72043255D01*
X208818255Y-72156501D01*
X208685101Y-72245471D01*
X208537142Y-72306758D01*
X208380075Y-72338000D01*
X208219925Y-72338000D01*
X208062858Y-72306758D01*
X207914899Y-72245471D01*
X207781745Y-72156501D01*
X207668499Y-72043255D01*
X207579529Y-71910101D01*
X207518242Y-71762142D01*
X207487000Y-71605075D01*
X207487000Y-71444925D01*
X207518242Y-71287858D01*
X207579529Y-71139899D01*
X207668499Y-71006745D01*
X207781745Y-70893499D01*
X207914899Y-70804529D01*
X208062858Y-70743242D01*
X208219925Y-70712000D01*
X208380075Y-70712000D01*
X208537142Y-70743242D01*
G37*
G36*
X177851000Y-72051000D02*
G01*
X175999000Y-72051000D01*
X175999000Y-71349000D01*
X177851000Y-71349000D01*
X177851000Y-72051000D01*
G37*
G36*
X173951000Y-71601000D02*
G01*
X172149000Y-71601000D01*
X172149000Y-69799000D01*
X173951000Y-69799000D01*
X173951000Y-71601000D01*
G37*
G36*
X206641938Y-70831716D02*
G01*
X206662557Y-70837971D01*
X206681553Y-70848124D01*
X206698208Y-70861792D01*
X206711876Y-70878447D01*
X206722029Y-70897443D01*
X206728284Y-70918062D01*
X206731000Y-70945640D01*
X206731000Y-71454360D01*
X206728284Y-71481938D01*
X206722029Y-71502557D01*
X206711876Y-71521553D01*
X206698208Y-71538208D01*
X206681553Y-71551876D01*
X206662557Y-71562029D01*
X206641938Y-71568284D01*
X206614360Y-71571000D01*
X206155640Y-71571000D01*
X206128062Y-71568284D01*
X206107443Y-71562029D01*
X206088447Y-71551876D01*
X206071792Y-71538208D01*
X206058124Y-71521553D01*
X206047971Y-71502557D01*
X206041716Y-71481938D01*
X206039000Y-71454360D01*
X206039000Y-70945640D01*
X206041716Y-70918062D01*
X206047971Y-70897443D01*
X206058124Y-70878447D01*
X206071792Y-70861792D01*
X206088447Y-70848124D01*
X206107443Y-70837971D01*
X206128062Y-70831716D01*
X206155640Y-70829000D01*
X206614360Y-70829000D01*
X206641938Y-70831716D01*
G37*
G36*
X205671938Y-70831716D02*
G01*
X205692557Y-70837971D01*
X205711553Y-70848124D01*
X205728208Y-70861792D01*
X205741876Y-70878447D01*
X205752029Y-70897443D01*
X205758284Y-70918062D01*
X205761000Y-70945640D01*
X205761000Y-71454360D01*
X205758284Y-71481938D01*
X205752029Y-71502557D01*
X205741876Y-71521553D01*
X205728208Y-71538208D01*
X205711553Y-71551876D01*
X205692557Y-71562029D01*
X205671938Y-71568284D01*
X205644360Y-71571000D01*
X205185640Y-71571000D01*
X205158062Y-71568284D01*
X205137443Y-71562029D01*
X205118447Y-71551876D01*
X205101792Y-71538208D01*
X205088124Y-71521553D01*
X205077971Y-71502557D01*
X205071716Y-71481938D01*
X205069000Y-71454360D01*
X205069000Y-70945640D01*
X205071716Y-70918062D01*
X205077971Y-70897443D01*
X205088124Y-70878447D01*
X205101792Y-70861792D01*
X205118447Y-70848124D01*
X205137443Y-70837971D01*
X205158062Y-70831716D01*
X205185640Y-70829000D01*
X205644360Y-70829000D01*
X205671938Y-70831716D01*
G37*
G36*
X170623512Y-69723927D02*
G01*
X170772812Y-69753624D01*
X170936784Y-69821544D01*
X171084354Y-69920147D01*
X171209853Y-70045646D01*
X171308456Y-70193216D01*
X171376376Y-70357188D01*
X171411000Y-70531259D01*
X171411000Y-70708741D01*
X171376376Y-70882812D01*
X171308456Y-71046784D01*
X171209853Y-71194354D01*
X171084354Y-71319853D01*
X170936784Y-71418456D01*
X170772812Y-71486376D01*
X170623512Y-71516073D01*
X170598742Y-71521000D01*
X170421258Y-71521000D01*
X170396488Y-71516073D01*
X170247188Y-71486376D01*
X170083216Y-71418456D01*
X169935646Y-71319853D01*
X169810147Y-71194354D01*
X169711544Y-71046784D01*
X169643624Y-70882812D01*
X169609000Y-70708741D01*
X169609000Y-70531259D01*
X169643624Y-70357188D01*
X169711544Y-70193216D01*
X169810147Y-70045646D01*
X169935646Y-69920147D01*
X170083216Y-69821544D01*
X170247188Y-69753624D01*
X170396488Y-69723927D01*
X170421258Y-69719000D01*
X170598742Y-69719000D01*
X170623512Y-69723927D01*
G37*
G36*
X199384468Y-70128565D02*
G01*
X199423138Y-70140296D01*
X199458777Y-70159346D01*
X199490017Y-70184983D01*
X199515654Y-70216223D01*
X199534704Y-70251862D01*
X199546435Y-70290532D01*
X199551000Y-70336888D01*
X199551000Y-70988112D01*
X199546435Y-71034468D01*
X199534704Y-71073138D01*
X199515654Y-71108777D01*
X199490017Y-71140017D01*
X199458777Y-71165654D01*
X199423138Y-71184704D01*
X199384468Y-71196435D01*
X199338112Y-71201000D01*
X198261888Y-71201000D01*
X198215532Y-71196435D01*
X198176862Y-71184704D01*
X198141223Y-71165654D01*
X198109983Y-71140017D01*
X198084346Y-71108777D01*
X198065296Y-71073138D01*
X198053565Y-71034468D01*
X198049000Y-70988112D01*
X198049000Y-70336888D01*
X198053565Y-70290532D01*
X198065296Y-70251862D01*
X198084346Y-70216223D01*
X198109983Y-70184983D01*
X198141223Y-70159346D01*
X198176862Y-70140296D01*
X198215532Y-70128565D01*
X198261888Y-70124000D01*
X199338112Y-70124000D01*
X199384468Y-70128565D01*
G37*
G36*
X179601000Y-71051000D02*
G01*
X177749000Y-71051000D01*
X177749000Y-70349000D01*
X179601000Y-70349000D01*
X179601000Y-71051000D01*
G37*
G36*
X204341938Y-70131716D02*
G01*
X204362557Y-70137971D01*
X204381553Y-70148124D01*
X204398208Y-70161792D01*
X204411876Y-70178447D01*
X204422029Y-70197443D01*
X204428284Y-70218062D01*
X204431000Y-70245640D01*
X204431000Y-70754360D01*
X204428284Y-70781938D01*
X204422029Y-70802557D01*
X204411876Y-70821553D01*
X204398208Y-70838208D01*
X204381553Y-70851876D01*
X204362557Y-70862029D01*
X204341938Y-70868284D01*
X204314360Y-70871000D01*
X203855640Y-70871000D01*
X203828062Y-70868284D01*
X203807443Y-70862029D01*
X203788447Y-70851876D01*
X203771792Y-70838208D01*
X203758124Y-70821553D01*
X203747971Y-70802557D01*
X203741716Y-70781938D01*
X203739000Y-70754360D01*
X203739000Y-70245640D01*
X203741716Y-70218062D01*
X203747971Y-70197443D01*
X203758124Y-70178447D01*
X203771792Y-70161792D01*
X203788447Y-70148124D01*
X203807443Y-70137971D01*
X203828062Y-70131716D01*
X203855640Y-70129000D01*
X204314360Y-70129000D01*
X204341938Y-70131716D01*
G37*
G36*
X203371938Y-70131716D02*
G01*
X203392557Y-70137971D01*
X203411553Y-70148124D01*
X203428208Y-70161792D01*
X203441876Y-70178447D01*
X203452029Y-70197443D01*
X203458284Y-70218062D01*
X203461000Y-70245640D01*
X203461000Y-70754360D01*
X203458284Y-70781938D01*
X203452029Y-70802557D01*
X203441876Y-70821553D01*
X203428208Y-70838208D01*
X203411553Y-70851876D01*
X203392557Y-70862029D01*
X203371938Y-70868284D01*
X203344360Y-70871000D01*
X202885640Y-70871000D01*
X202858062Y-70868284D01*
X202837443Y-70862029D01*
X202818447Y-70851876D01*
X202801792Y-70838208D01*
X202788124Y-70821553D01*
X202777971Y-70802557D01*
X202771716Y-70781938D01*
X202769000Y-70754360D01*
X202769000Y-70245640D01*
X202771716Y-70218062D01*
X202777971Y-70197443D01*
X202788124Y-70178447D01*
X202801792Y-70161792D01*
X202818447Y-70148124D01*
X202837443Y-70137971D01*
X202858062Y-70131716D01*
X202885640Y-70129000D01*
X203344360Y-70129000D01*
X203371938Y-70131716D01*
G37*
G36*
X166541938Y-69731716D02*
G01*
X166562557Y-69737971D01*
X166581553Y-69748124D01*
X166598208Y-69761792D01*
X166611876Y-69778447D01*
X166622029Y-69797443D01*
X166628284Y-69818062D01*
X166631000Y-69845640D01*
X166631000Y-70354360D01*
X166628284Y-70381938D01*
X166622029Y-70402557D01*
X166611876Y-70421553D01*
X166598208Y-70438208D01*
X166581553Y-70451876D01*
X166562557Y-70462029D01*
X166541938Y-70468284D01*
X166514360Y-70471000D01*
X166055640Y-70471000D01*
X166028062Y-70468284D01*
X166007443Y-70462029D01*
X165988447Y-70451876D01*
X165971792Y-70438208D01*
X165958124Y-70421553D01*
X165947971Y-70402557D01*
X165941716Y-70381938D01*
X165939000Y-70354360D01*
X165939000Y-69845640D01*
X165941716Y-69818062D01*
X165947971Y-69797443D01*
X165958124Y-69778447D01*
X165971792Y-69761792D01*
X165988447Y-69748124D01*
X166007443Y-69737971D01*
X166028062Y-69731716D01*
X166055640Y-69729000D01*
X166514360Y-69729000D01*
X166541938Y-69731716D01*
G37*
G36*
X165571938Y-69731716D02*
G01*
X165592557Y-69737971D01*
X165611553Y-69748124D01*
X165628208Y-69761792D01*
X165641876Y-69778447D01*
X165652029Y-69797443D01*
X165658284Y-69818062D01*
X165661000Y-69845640D01*
X165661000Y-70354360D01*
X165658284Y-70381938D01*
X165652029Y-70402557D01*
X165641876Y-70421553D01*
X165628208Y-70438208D01*
X165611553Y-70451876D01*
X165592557Y-70462029D01*
X165571938Y-70468284D01*
X165544360Y-70471000D01*
X165085640Y-70471000D01*
X165058062Y-70468284D01*
X165037443Y-70462029D01*
X165018447Y-70451876D01*
X165001792Y-70438208D01*
X164988124Y-70421553D01*
X164977971Y-70402557D01*
X164971716Y-70381938D01*
X164969000Y-70354360D01*
X164969000Y-69845640D01*
X164971716Y-69818062D01*
X164977971Y-69797443D01*
X164988124Y-69778447D01*
X165001792Y-69761792D01*
X165018447Y-69748124D01*
X165037443Y-69737971D01*
X165058062Y-69731716D01*
X165085640Y-69729000D01*
X165544360Y-69729000D01*
X165571938Y-69731716D01*
G37*
M02*
