G04 #@! TF.GenerationSoftware,KiCad,Pcbnew,5.1.5+dfsg1-2build2*
G04 #@! TF.CreationDate,2021-07-26T09:56:11+01:00*
G04 #@! TF.ProjectId,picopak,7069636f-7061-46b2-9e6b-696361645f70,rev?*
G04 #@! TF.SameCoordinates,Original*
G04 #@! TF.FileFunction,Copper,L1,Top*
G04 #@! TF.FilePolarity,Positive*
%FSLAX46Y46*%
G04 Gerber Fmt 4.6, Leading zero omitted, Abs format (unit mm)*
G04 Created by KiCad (PCBNEW 5.1.5+dfsg1-2build2) date 2021-07-26 09:56:11*
%MOMM*%
%LPD*%
G04 APERTURE LIST*
%ADD10R,1.450000X0.450000*%
%ADD11C,1.524000*%
%ADD12R,1.200000X2.200000*%
%ADD13R,1.600000X1.400000*%
%ADD14R,1.200000X1.400000*%
%ADD15R,0.700000X1.600000*%
%ADD16R,1.700000X1.700000*%
%ADD17O,1.700000X1.700000*%
%ADD18O,1.450000X1.050000*%
%ADD19R,0.700000X1.825000*%
%ADD20C,0.100000*%
%ADD21R,1.460000X2.000000*%
%ADD22R,1.750000X0.400000*%
%ADD23O,1.800000X1.300000*%
%ADD24R,2.500000X1.425000*%
%ADD25C,0.500000*%
%ADD26C,0.200000*%
%ADD27C,0.500000*%
G04 APERTURE END LIST*
D10*
X182550000Y-71875000D03*
X182550000Y-72525000D03*
X182550000Y-73175000D03*
X182550000Y-73825000D03*
X182550000Y-74475000D03*
X182550000Y-75125000D03*
X182550000Y-75775000D03*
X182550000Y-76425000D03*
X182550000Y-77075000D03*
X182550000Y-77725000D03*
X176650000Y-77725000D03*
X176650000Y-77075000D03*
X176650000Y-76425000D03*
X176650000Y-75775000D03*
X176650000Y-75125000D03*
X176650000Y-74475000D03*
X176650000Y-73825000D03*
X176650000Y-73175000D03*
X176650000Y-72525000D03*
X176650000Y-71875000D03*
D11*
X208300000Y-79145000D03*
X208300000Y-76605000D03*
X208300000Y-74065000D03*
X208300000Y-71525000D03*
D12*
X202150000Y-80800000D03*
X186650000Y-80800000D03*
D13*
X201250000Y-71200000D03*
D14*
X186650000Y-71200000D03*
D15*
X187800000Y-70700000D03*
X190000000Y-70700000D03*
X188900000Y-70700000D03*
X191100000Y-70700000D03*
X192200000Y-70700000D03*
X193300000Y-70700000D03*
X196600000Y-70700000D03*
X195500000Y-70700000D03*
X194400000Y-70700000D03*
D16*
X173050000Y-70700000D03*
D17*
X170510000Y-70620000D03*
X173050000Y-73160000D03*
X170510000Y-73160000D03*
X173050000Y-75700000D03*
X170510000Y-75700000D03*
X173050000Y-78240000D03*
X170510000Y-78240000D03*
X173050000Y-80780000D03*
X170510000Y-80780000D03*
X173050000Y-83320000D03*
X170510000Y-83320000D03*
X173050000Y-85860000D03*
X170510000Y-85860000D03*
X173050000Y-88400000D03*
X170510000Y-88400000D03*
D10*
X182550000Y-81075000D03*
X182550000Y-81725000D03*
X182550000Y-82375000D03*
X182550000Y-83025000D03*
X182550000Y-83675000D03*
X182550000Y-84325000D03*
X182550000Y-84975000D03*
X182550000Y-85625000D03*
X182550000Y-86275000D03*
X182550000Y-86925000D03*
X176650000Y-86925000D03*
X176650000Y-86275000D03*
X176650000Y-85625000D03*
X176650000Y-84975000D03*
X176650000Y-84325000D03*
X176650000Y-83675000D03*
X176650000Y-83025000D03*
X176650000Y-82375000D03*
X176650000Y-81725000D03*
X176650000Y-81075000D03*
D18*
X204320000Y-83225000D03*
D19*
X205650000Y-82662500D03*
G04 #@! TA.AperFunction,SMDPad,CuDef*
D20*
G36*
X208202917Y-82276853D02*
G01*
X208240271Y-82282394D01*
X208276902Y-82291569D01*
X208312457Y-82304291D01*
X208346593Y-82320437D01*
X208378983Y-82339850D01*
X208409315Y-82362346D01*
X208437295Y-82387705D01*
X208462654Y-82415685D01*
X208485150Y-82446017D01*
X208504563Y-82478407D01*
X208520709Y-82512543D01*
X208533431Y-82548098D01*
X208542606Y-82584729D01*
X208548147Y-82622083D01*
X208550000Y-82659800D01*
X208550000Y-83190200D01*
X208548147Y-83227917D01*
X208542606Y-83265271D01*
X208533431Y-83301902D01*
X208520709Y-83337457D01*
X208504563Y-83371593D01*
X208485150Y-83403983D01*
X208462654Y-83434315D01*
X208437295Y-83462295D01*
X208409315Y-83487654D01*
X208378983Y-83510150D01*
X208346593Y-83529563D01*
X208312457Y-83545709D01*
X208276902Y-83558431D01*
X208240271Y-83567606D01*
X208202917Y-83573147D01*
X208165200Y-83575000D01*
X205684800Y-83575000D01*
X205647083Y-83573147D01*
X205609729Y-83567606D01*
X205573098Y-83558431D01*
X205537543Y-83545709D01*
X205503407Y-83529563D01*
X205471017Y-83510150D01*
X205440685Y-83487654D01*
X205412705Y-83462295D01*
X205387346Y-83434315D01*
X205364850Y-83403983D01*
X205345437Y-83371593D01*
X205329291Y-83337457D01*
X205316569Y-83301902D01*
X205307394Y-83265271D01*
X205301853Y-83227917D01*
X205300000Y-83190200D01*
X205300000Y-82659800D01*
X205301853Y-82622083D01*
X205307394Y-82584729D01*
X205316569Y-82548098D01*
X205329291Y-82512543D01*
X205345437Y-82478407D01*
X205364850Y-82446017D01*
X205387346Y-82415685D01*
X205412705Y-82387705D01*
X205440685Y-82362346D01*
X205471017Y-82339850D01*
X205503407Y-82320437D01*
X205537543Y-82304291D01*
X205573098Y-82291569D01*
X205609729Y-82282394D01*
X205647083Y-82276853D01*
X205684800Y-82275000D01*
X208165200Y-82275000D01*
X208202917Y-82276853D01*
G37*
G04 #@! TD.AperFunction*
G04 #@! TA.AperFunction,SMDPad,CuDef*
G36*
X208202917Y-87726853D02*
G01*
X208240271Y-87732394D01*
X208276902Y-87741569D01*
X208312457Y-87754291D01*
X208346593Y-87770437D01*
X208378983Y-87789850D01*
X208409315Y-87812346D01*
X208437295Y-87837705D01*
X208462654Y-87865685D01*
X208485150Y-87896017D01*
X208504563Y-87928407D01*
X208520709Y-87962543D01*
X208533431Y-87998098D01*
X208542606Y-88034729D01*
X208548147Y-88072083D01*
X208550000Y-88109800D01*
X208550000Y-88640200D01*
X208548147Y-88677917D01*
X208542606Y-88715271D01*
X208533431Y-88751902D01*
X208520709Y-88787457D01*
X208504563Y-88821593D01*
X208485150Y-88853983D01*
X208462654Y-88884315D01*
X208437295Y-88912295D01*
X208409315Y-88937654D01*
X208378983Y-88960150D01*
X208346593Y-88979563D01*
X208312457Y-88995709D01*
X208276902Y-89008431D01*
X208240271Y-89017606D01*
X208202917Y-89023147D01*
X208165200Y-89025000D01*
X205684800Y-89025000D01*
X205647083Y-89023147D01*
X205609729Y-89017606D01*
X205573098Y-89008431D01*
X205537543Y-88995709D01*
X205503407Y-88979563D01*
X205471017Y-88960150D01*
X205440685Y-88937654D01*
X205412705Y-88912295D01*
X205387346Y-88884315D01*
X205364850Y-88853983D01*
X205345437Y-88821593D01*
X205329291Y-88787457D01*
X205316569Y-88751902D01*
X205307394Y-88715271D01*
X205301853Y-88677917D01*
X205300000Y-88640200D01*
X205300000Y-88109800D01*
X205301853Y-88072083D01*
X205307394Y-88034729D01*
X205316569Y-87998098D01*
X205329291Y-87962543D01*
X205345437Y-87928407D01*
X205364850Y-87896017D01*
X205387346Y-87865685D01*
X205412705Y-87837705D01*
X205440685Y-87812346D01*
X205471017Y-87789850D01*
X205503407Y-87770437D01*
X205537543Y-87754291D01*
X205573098Y-87741569D01*
X205609729Y-87732394D01*
X205647083Y-87726853D01*
X205684800Y-87725000D01*
X208165200Y-87725000D01*
X208202917Y-87726853D01*
G37*
G04 #@! TD.AperFunction*
D19*
X205650000Y-88637500D03*
D21*
X204320000Y-88550000D03*
X204320000Y-82750000D03*
D22*
X204525000Y-86950000D03*
X204525000Y-86300000D03*
X204525000Y-85650000D03*
X204525000Y-85000000D03*
X204525000Y-84350000D03*
D18*
X204320000Y-88075000D03*
D23*
X207350000Y-88375000D03*
X207350000Y-82925000D03*
D24*
X207600000Y-86612500D03*
X207600000Y-84687500D03*
D25*
X202200000Y-86000000D03*
X187600000Y-76200000D03*
X187400000Y-74600000D03*
X196928838Y-77504651D03*
X197200000Y-84850000D03*
X205623263Y-86240711D03*
X196400000Y-77000000D03*
X196350000Y-85400000D03*
X203200000Y-85600000D03*
X192200000Y-84000000D03*
X192200000Y-78400000D03*
X196800000Y-78400000D03*
X196800000Y-82800000D03*
X186800000Y-74200000D03*
X195800000Y-72400000D03*
X204000000Y-80700000D03*
X199600000Y-84100000D03*
X189300000Y-84400000D03*
X192300000Y-75400000D03*
X192600000Y-77700000D03*
X190900000Y-72699989D03*
X201250000Y-71200000D03*
X181400000Y-72800003D03*
X176500000Y-71199998D03*
X177600000Y-88625001D03*
X175691075Y-87529336D03*
X180150000Y-82900000D03*
X176600000Y-70300000D03*
X205000000Y-72100000D03*
X187223784Y-79329032D03*
X185300000Y-71800000D03*
X181800000Y-70200000D03*
X174249693Y-80279259D03*
X186535835Y-77083472D03*
X186100000Y-74349990D03*
X188200000Y-84400000D03*
X189700000Y-80300000D03*
X187750000Y-82023625D03*
X192900000Y-73600000D03*
X181400000Y-72100000D03*
X168800000Y-71900000D03*
X175700000Y-70700000D03*
X198500000Y-73600000D03*
X183954047Y-81430282D03*
X192900000Y-82800000D03*
X192900000Y-80345010D03*
X179726556Y-76695626D03*
X203200000Y-78500000D03*
X203300000Y-76000000D03*
X199961091Y-79461091D03*
X200300000Y-83400000D03*
X194800000Y-83500000D03*
X194804990Y-80895010D03*
X177800000Y-78900000D03*
X180267104Y-79500000D03*
X188150000Y-81391928D03*
X187292753Y-77350677D03*
X188318185Y-82432487D03*
X187511597Y-78081384D03*
X198800000Y-87600000D03*
X199850010Y-80800000D03*
X179600000Y-87800000D03*
X181200001Y-73700000D03*
X179700000Y-73900000D03*
X189500000Y-82050000D03*
X200900000Y-78300000D03*
X201100000Y-82200000D03*
X182922988Y-69950000D03*
X174800000Y-70200000D03*
X188300000Y-72699989D03*
X174400000Y-81200000D03*
X186000000Y-88200000D03*
X181400000Y-88200000D03*
X181374998Y-86825000D03*
X187200000Y-83385998D03*
X186650000Y-82350002D03*
X186250000Y-87000001D03*
X195600000Y-85600000D03*
X196600000Y-70700000D03*
X189000000Y-69900000D03*
X182300000Y-70800000D03*
X186564080Y-79000000D03*
X185781332Y-79315290D03*
X185190616Y-78939714D03*
X184495725Y-79024135D03*
X178900000Y-88325000D03*
X185600000Y-89425000D03*
X185831067Y-82302913D03*
X174007124Y-79125157D03*
X183203215Y-79302710D03*
X183547115Y-82958407D03*
X183605663Y-83794773D03*
X181554999Y-84260001D03*
X181361872Y-84932835D03*
X180800000Y-85600000D03*
X182668011Y-78851535D03*
X180612490Y-80200000D03*
X180193780Y-85950000D03*
X183840711Y-86175000D03*
X183800985Y-78938466D03*
X177900000Y-82400000D03*
X174150000Y-87500000D03*
X170510000Y-80780000D03*
X171800000Y-87200000D03*
X175300000Y-84500000D03*
X174700000Y-89300000D03*
X168300000Y-89200000D03*
X168300000Y-83500000D03*
X174700000Y-82600000D03*
X168900000Y-81900000D03*
X180400000Y-70100000D03*
X194400000Y-69600000D03*
X195504265Y-70689337D03*
D26*
X207600000Y-87700000D02*
X206925000Y-88375000D01*
X207600000Y-86612500D02*
X207600000Y-87700000D01*
X207350000Y-84437500D02*
X207600000Y-84687500D01*
X207350000Y-82925000D02*
X207350000Y-84437500D01*
X207600000Y-84687500D02*
X207600000Y-86612500D01*
X204525000Y-83430000D02*
X204320000Y-83225000D01*
X204525000Y-84350000D02*
X204525000Y-83430000D01*
X203150000Y-86950000D02*
X202200000Y-86000000D01*
X204525000Y-86950000D02*
X203150000Y-86950000D01*
X187400000Y-76000000D02*
X187600000Y-76200000D01*
X187400000Y-74600000D02*
X187400000Y-76000000D01*
X197350001Y-77925814D02*
X197350001Y-78664001D01*
X196928838Y-77504651D02*
X197350001Y-77925814D01*
X197350001Y-83064001D02*
X197064001Y-83350001D01*
X197350001Y-78664001D02*
X197350001Y-83064001D01*
X197064001Y-84714001D02*
X197200000Y-84850000D01*
X197064001Y-83350001D02*
X197064001Y-84714001D01*
X204584289Y-86240711D02*
X204525000Y-86300000D01*
X205623263Y-86240711D02*
X204584289Y-86240711D01*
X196249999Y-85299999D02*
X196350000Y-85400000D01*
X196249999Y-77503554D02*
X196249999Y-85299999D01*
X196400000Y-77353553D02*
X196249999Y-77503554D01*
X196400000Y-77000000D02*
X196400000Y-77353553D01*
X204475000Y-85600000D02*
X204525000Y-85650000D01*
X203200000Y-85600000D02*
X204475000Y-85600000D01*
X192200000Y-79000000D02*
X192200000Y-84000000D01*
X192200000Y-78400000D02*
X192200000Y-79000000D01*
X196800000Y-78400000D02*
X196800000Y-82800000D01*
X187664001Y-76800677D02*
X188900001Y-78036677D01*
X187135999Y-76800677D02*
X187664001Y-76800677D01*
X186936685Y-76601363D02*
X187135999Y-76800677D01*
X186936685Y-75298683D02*
X186936685Y-76601363D01*
X186800000Y-75161998D02*
X186936685Y-75298683D01*
X186800000Y-74200000D02*
X186800000Y-75161998D01*
D27*
X203900000Y-80800000D02*
X204000000Y-80700000D01*
X202150000Y-80800000D02*
X203900000Y-80800000D01*
D26*
X190900000Y-70900000D02*
X191100000Y-70700000D01*
X190900000Y-72699989D02*
X190900000Y-70900000D01*
X181513999Y-72800003D02*
X181400000Y-72800003D01*
X181789002Y-72525000D02*
X181513999Y-72800003D01*
X182550000Y-72525000D02*
X181789002Y-72525000D01*
X176295411Y-86925000D02*
X175691075Y-87529336D01*
X176650000Y-86925000D02*
X176295411Y-86925000D01*
X181325000Y-81725000D02*
X182550000Y-81725000D01*
X180150000Y-82900000D02*
X181325000Y-81725000D01*
X186650000Y-79902816D02*
X187223784Y-79329032D01*
X186650000Y-80800000D02*
X186650000Y-79902816D01*
X185900000Y-71200000D02*
X185300000Y-71800000D01*
X186650000Y-71200000D02*
X185900000Y-71200000D01*
X176650000Y-78150000D02*
X175000000Y-79800000D01*
X176650000Y-77725000D02*
X176650000Y-78150000D01*
X172507998Y-79400000D02*
X171800000Y-78692002D01*
X173372002Y-79400000D02*
X172507998Y-79400000D01*
X174249693Y-80277691D02*
X173372002Y-79400000D01*
X174249693Y-80279259D02*
X174249693Y-80277691D01*
X172200001Y-74009999D02*
X173050000Y-73160000D01*
X171334300Y-74310001D02*
X171634302Y-74009999D01*
X169957999Y-74310001D02*
X171334300Y-74310001D01*
X169359999Y-74908001D02*
X169957999Y-74310001D01*
X169359999Y-76252001D02*
X169359999Y-74908001D01*
X169957999Y-76850001D02*
X169359999Y-76252001D01*
X171634302Y-74009999D02*
X172200001Y-74009999D01*
X170950001Y-76850001D02*
X169957999Y-76850001D01*
X171800000Y-77700000D02*
X170950001Y-76850001D01*
X171800000Y-78692002D02*
X171800000Y-77700000D01*
X189050001Y-84150001D02*
X189300000Y-84400000D01*
X187199999Y-82299999D02*
X189050001Y-84150001D01*
X187199999Y-81999999D02*
X187199999Y-82299999D01*
X186650000Y-81450000D02*
X187199999Y-81999999D01*
X186650000Y-80800000D02*
X186650000Y-81450000D01*
X174728952Y-79800000D02*
X174249693Y-80279259D01*
X175000000Y-79800000D02*
X174728952Y-79800000D01*
X187350001Y-74550001D02*
X187400000Y-74600000D01*
X187350001Y-73935999D02*
X187350001Y-74550001D01*
X187064001Y-73649999D02*
X187350001Y-73935999D01*
X186535999Y-73649999D02*
X187064001Y-73649999D01*
X186100000Y-74085998D02*
X186535999Y-73649999D01*
X186100000Y-74349990D02*
X186100000Y-74085998D01*
X192900000Y-71100000D02*
X193300000Y-70700000D01*
X192900000Y-73600000D02*
X192900000Y-71100000D01*
X181625000Y-71875000D02*
X181400000Y-72100000D01*
X182550000Y-71875000D02*
X181625000Y-71875000D01*
X175660998Y-71875000D02*
X175725000Y-71875000D01*
X174249999Y-69935999D02*
X174249999Y-70464001D01*
X174500000Y-69685998D02*
X174249999Y-69935999D01*
X169957999Y-69469999D02*
X174369999Y-69469999D01*
X168800000Y-70627998D02*
X169957999Y-69469999D01*
X175725000Y-71875000D02*
X176650000Y-71875000D01*
X174500000Y-69600000D02*
X174500000Y-69685998D01*
X174369999Y-69469999D02*
X174500000Y-69600000D01*
X168800000Y-71900000D02*
X168800000Y-70627998D01*
X175092999Y-71307001D02*
X175700000Y-70700000D01*
X174249999Y-70464001D02*
X175092999Y-71307001D01*
X175092999Y-71307001D02*
X175660998Y-71875000D01*
X183474304Y-81075000D02*
X182550000Y-81075000D01*
X183829586Y-81430282D02*
X183474304Y-81075000D01*
X183954047Y-81430282D02*
X183829586Y-81430282D01*
X178400011Y-71049989D02*
X177575000Y-71875000D01*
X180703542Y-71049989D02*
X178400011Y-71049989D01*
X181400000Y-71746447D02*
X180703542Y-71049989D01*
X177575000Y-71875000D02*
X176650000Y-71875000D01*
X181400000Y-72100000D02*
X181400000Y-71746447D01*
X180475000Y-81075000D02*
X182550000Y-81075000D01*
X180062489Y-80295279D02*
X180062489Y-80662489D01*
X180062489Y-80662489D02*
X180475000Y-81075000D01*
X179717104Y-79949894D02*
X180062489Y-80295279D01*
X179717104Y-76695627D02*
X179717104Y-79949894D01*
X192900000Y-82800000D02*
X192900000Y-82446447D01*
X192900000Y-82446447D02*
X192900000Y-80345010D01*
X203200000Y-78500000D02*
X203200000Y-76300000D01*
X203300000Y-76200000D02*
X203300000Y-76000000D01*
X203200000Y-76300000D02*
X203300000Y-76200000D01*
X200400011Y-83299989D02*
X200300000Y-83400000D01*
X200400011Y-79900011D02*
X200400011Y-83299989D01*
X199961091Y-79461091D02*
X200400011Y-79900011D01*
X194800000Y-80900000D02*
X194804990Y-80895010D01*
X194800000Y-83500000D02*
X194800000Y-80900000D01*
X186686476Y-78262210D02*
X186972476Y-78548210D01*
X186686476Y-77710649D02*
X186686476Y-78262210D01*
X187046447Y-77350678D02*
X186686476Y-77710649D01*
X186972476Y-78548210D02*
X187220780Y-78548210D01*
X187220780Y-78548210D02*
X187800000Y-79127430D01*
X187800000Y-79127430D02*
X187800000Y-79400000D01*
X187800000Y-81041928D02*
X188150000Y-81391928D01*
X187800000Y-79400000D02*
X187800000Y-81041928D01*
X188700001Y-82050671D02*
X188318185Y-82432487D01*
X188700001Y-79461733D02*
X188700001Y-82050671D01*
X187511597Y-78273329D02*
X187511597Y-78081384D01*
X188700001Y-79461733D02*
X187511597Y-78273329D01*
X198800000Y-87600000D02*
X198800000Y-87246447D01*
X198800000Y-81850010D02*
X199850010Y-80800000D01*
X198800000Y-87246447D02*
X198800000Y-81850010D01*
X179167104Y-79965592D02*
X179600000Y-80398488D01*
X179600000Y-80398488D02*
X179600000Y-87800000D01*
X179167104Y-74007898D02*
X179167104Y-79965592D01*
X179592102Y-74007898D02*
X179167104Y-74007898D01*
X179700000Y-73900000D02*
X179592102Y-74007898D01*
X188900001Y-78036677D02*
X188900001Y-78999999D01*
X189149999Y-81699999D02*
X189500000Y-82050000D01*
X189149999Y-79249997D02*
X189149999Y-81699999D01*
X188900001Y-78999999D02*
X189149999Y-79249997D01*
X200900000Y-82000000D02*
X201100000Y-82200000D01*
X200900000Y-78300000D02*
X200900000Y-82000000D01*
X174400000Y-81200000D02*
X174525000Y-81075000D01*
X174525000Y-81075000D02*
X176650000Y-81075000D01*
X182922988Y-70760864D02*
X182922988Y-69950000D01*
X183630700Y-70900000D02*
X183062124Y-70900000D01*
X184200010Y-72671518D02*
X184200009Y-71469309D01*
X184728492Y-73200000D02*
X184200010Y-72671518D01*
X185634301Y-73200000D02*
X184728492Y-73200000D01*
X185984322Y-72849979D02*
X185634301Y-73200000D01*
X188050021Y-72849979D02*
X185984322Y-72849979D01*
X183062124Y-70900000D02*
X182922988Y-70760864D01*
X184200009Y-71469309D02*
X183630700Y-70900000D01*
X188200011Y-72699989D02*
X188050021Y-72849979D01*
X188300000Y-72699989D02*
X188200011Y-72699989D01*
X186849999Y-83735999D02*
X186849999Y-85249999D01*
X187000000Y-83585998D02*
X186849999Y-83735999D01*
X187000000Y-83553553D02*
X187000000Y-83585998D01*
X186800000Y-85299998D02*
X186800000Y-88000000D01*
X186849999Y-85249999D02*
X186800000Y-85299998D01*
X186800000Y-88000000D02*
X186400000Y-88000000D01*
X186200000Y-88200000D02*
X186000000Y-88200000D01*
X186400000Y-88000000D02*
X186200000Y-88200000D01*
X181400000Y-86850002D02*
X181374998Y-86825000D01*
X181400000Y-88200000D02*
X181400000Y-86850002D01*
X187000000Y-83585998D02*
X187200000Y-83385998D01*
X186250000Y-82750002D02*
X186250000Y-87000001D01*
X186650000Y-82350002D02*
X186250000Y-82750002D01*
X195800000Y-85400000D02*
X195600000Y-85600000D01*
X195800000Y-72400000D02*
X195800000Y-85400000D01*
X183515001Y-71349999D02*
X183800000Y-71634998D01*
X182496446Y-71349999D02*
X183515001Y-71349999D01*
X182300000Y-71153553D02*
X182496446Y-71349999D01*
X182300000Y-70800000D02*
X182300000Y-71153553D01*
X183800000Y-71634998D02*
X183800000Y-72837206D01*
X184562794Y-73600000D02*
X185800000Y-73600000D01*
X183800000Y-72837206D02*
X184562794Y-73600000D01*
X186150011Y-73249989D02*
X192250011Y-73249989D01*
X185800000Y-73600000D02*
X186150011Y-73249989D01*
X192200000Y-73199978D02*
X192200000Y-70700000D01*
X192250011Y-73249989D02*
X192200000Y-73199978D01*
X183975011Y-73759312D02*
X183975011Y-73809313D01*
X183390699Y-73175000D02*
X183975011Y-73759312D01*
X182550000Y-73175000D02*
X183390699Y-73175000D01*
X183975011Y-73809313D02*
X184206409Y-73809313D01*
X184206409Y-73809313D02*
X184322068Y-73924972D01*
X184322068Y-73924972D02*
X185648548Y-75251452D01*
X185648548Y-75251452D02*
X185900000Y-75502904D01*
X185900000Y-75502904D02*
X185900000Y-78200000D01*
X186564080Y-78864080D02*
X186564080Y-79178640D01*
X185900000Y-78200000D02*
X186564080Y-78864080D01*
X183575001Y-73975001D02*
X183575001Y-73925001D01*
X183924980Y-74324980D02*
X183575001Y-73975001D01*
X184156378Y-74324980D02*
X183924980Y-74324980D01*
X183475000Y-73825000D02*
X182550000Y-73825000D01*
X185426121Y-75594723D02*
X184156378Y-74324980D01*
X183575001Y-73925001D02*
X183475000Y-73825000D01*
X185426121Y-78426121D02*
X185426121Y-75594723D01*
X185460458Y-78460458D02*
X185426121Y-78426121D01*
X185900000Y-78800311D02*
X185560147Y-78460458D01*
X185900000Y-79196622D02*
X185900000Y-78800311D01*
X185560147Y-78460458D02*
X185460458Y-78460458D01*
X185781332Y-79315290D02*
X185900000Y-79196622D01*
X183475000Y-74475000D02*
X183575001Y-74575001D01*
X182550000Y-74475000D02*
X183475000Y-74475000D01*
X183990689Y-74724990D02*
X185026111Y-75760412D01*
X183624990Y-74724990D02*
X183990689Y-74724990D01*
X183575001Y-74675001D02*
X183624990Y-74724990D01*
X183575001Y-74575001D02*
X183575001Y-74675001D01*
X185026111Y-75760412D02*
X185026111Y-77526111D01*
X185026111Y-77526111D02*
X185026111Y-78800000D01*
X185085687Y-78800000D02*
X185296146Y-79010459D01*
X185026111Y-78800000D02*
X185085687Y-78800000D01*
X182550000Y-75125000D02*
X183825000Y-75125000D01*
X183825000Y-75125000D02*
X184000000Y-75300000D01*
X184626101Y-75926101D02*
X184626101Y-79213050D01*
X184000000Y-75300000D02*
X184626101Y-75926101D01*
X183575001Y-78324999D02*
X183550001Y-78349999D01*
X183575001Y-75875001D02*
X183575001Y-78324999D01*
X183475000Y-75775000D02*
X183575001Y-75875001D01*
X182550000Y-75775000D02*
X183475000Y-75775000D01*
X181900000Y-78805544D02*
X181900000Y-79000000D01*
X182404010Y-78301534D02*
X181900000Y-78805544D01*
X182932012Y-78301534D02*
X182404010Y-78301534D01*
X182980477Y-78349999D02*
X182932012Y-78301534D01*
X183550001Y-78349999D02*
X182980477Y-78349999D01*
X181800000Y-79100000D02*
X181700000Y-79100000D01*
X181900000Y-79000000D02*
X181800000Y-79100000D01*
X178674999Y-88099999D02*
X178900000Y-88325000D01*
X180264001Y-71449999D02*
X179735999Y-71449999D01*
X180650001Y-71835999D02*
X180650001Y-75350001D01*
X180264001Y-71449999D02*
X180650001Y-71835999D01*
X181075000Y-75775000D02*
X182550000Y-75775000D01*
X180650001Y-75350001D02*
X181075000Y-75775000D01*
X178650001Y-88075001D02*
X178900000Y-88325000D01*
X178650001Y-72535997D02*
X178650001Y-88075001D01*
X179735999Y-71449999D02*
X178650001Y-72535997D01*
X185831067Y-86357935D02*
X185831067Y-82302913D01*
X185350001Y-86839001D02*
X185831067Y-86357935D01*
X185350001Y-89175001D02*
X185350001Y-86839001D01*
X185600000Y-89425000D02*
X185350001Y-89175001D01*
X175624999Y-77507282D02*
X174007124Y-79125157D01*
X175624999Y-75225001D02*
X175624999Y-77507282D01*
X175725000Y-75125000D02*
X175624999Y-75225001D01*
X176650000Y-75125000D02*
X175725000Y-75125000D01*
X173899999Y-77390001D02*
X173050000Y-78240000D01*
X174200001Y-75999999D02*
X174200001Y-77089999D01*
X174200001Y-77089999D02*
X173899999Y-77390001D01*
X175725000Y-74475000D02*
X174200001Y-75999999D01*
X176650000Y-74475000D02*
X175725000Y-74475000D01*
X173850000Y-75700000D02*
X173050000Y-75700000D01*
X175725000Y-73825000D02*
X173850000Y-75700000D01*
X176650000Y-73825000D02*
X175725000Y-73825000D01*
X171359999Y-74850001D02*
X170510000Y-75700000D01*
X171660001Y-74549999D02*
X171359999Y-74850001D01*
X174350001Y-74549999D02*
X171660001Y-74549999D01*
X175725000Y-73175000D02*
X174350001Y-74549999D01*
X176650000Y-73175000D02*
X175725000Y-73175000D01*
X171359999Y-72310001D02*
X170510000Y-73160000D01*
X171660001Y-72009999D02*
X171359999Y-72310001D01*
X173602001Y-72009999D02*
X171660001Y-72009999D01*
X174117002Y-72525000D02*
X173602001Y-72009999D01*
X176650000Y-72525000D02*
X174117002Y-72525000D01*
X183475000Y-82375000D02*
X182550000Y-82375000D01*
X183823331Y-82375000D02*
X183475000Y-82375000D01*
X184504048Y-81694283D02*
X183823331Y-82375000D01*
X184504048Y-80504048D02*
X184504048Y-81694283D01*
X183300000Y-79300000D02*
X184504048Y-80504048D01*
X182616593Y-82958407D02*
X182550000Y-83025000D01*
X183547115Y-82958407D02*
X182616593Y-82958407D01*
X182669773Y-83794773D02*
X182550000Y-83675000D01*
X183605663Y-83794773D02*
X182669773Y-83794773D01*
X182485001Y-84260001D02*
X182550000Y-84325000D01*
X181554999Y-84260001D02*
X182485001Y-84260001D01*
X182507835Y-84932835D02*
X182550000Y-84975000D01*
X181361872Y-84932835D02*
X182507835Y-84932835D01*
X182525000Y-85600000D02*
X182550000Y-85625000D01*
X180800000Y-85600000D02*
X182525000Y-85600000D01*
X181319546Y-80200000D02*
X180612490Y-80200000D01*
X182668011Y-78851535D02*
X181319546Y-80200000D01*
X180193780Y-85950000D02*
X180518780Y-86275000D01*
X181875000Y-86275000D02*
X182550000Y-86275000D01*
X180518780Y-86275000D02*
X181875000Y-86275000D01*
X183475000Y-86925000D02*
X182550000Y-86925000D01*
X183840711Y-86559289D02*
X183475000Y-86925000D01*
X183840711Y-86175000D02*
X183840711Y-86559289D01*
X183800000Y-84400000D02*
X183840711Y-86175000D01*
X183840711Y-84459289D02*
X183800000Y-84400000D01*
X183800985Y-79235287D02*
X183800985Y-78938466D01*
X184019524Y-83300000D02*
X184904058Y-82415466D01*
X184019524Y-83394632D02*
X184019524Y-83300000D01*
X184904058Y-80338359D02*
X183800985Y-79235287D01*
X184155664Y-83530772D02*
X184019524Y-83394632D01*
X184904058Y-82415466D02*
X184904058Y-80338359D01*
X184155664Y-84044336D02*
X184155664Y-83530772D01*
X183800000Y-84400000D02*
X184155664Y-84044336D01*
X177900000Y-85950000D02*
X177900000Y-82400000D01*
X177575000Y-86275000D02*
X177900000Y-85950000D01*
X176650000Y-86275000D02*
X177575000Y-86275000D01*
X174150000Y-87200000D02*
X174150000Y-87500000D01*
X175725000Y-85625000D02*
X174150000Y-87200000D01*
X176650000Y-85625000D02*
X175725000Y-85625000D01*
X173414002Y-87200000D02*
X171800000Y-87200000D01*
X175639002Y-84975000D02*
X173414002Y-87200000D01*
X176650000Y-84975000D02*
X175639002Y-84975000D01*
X175475000Y-84325000D02*
X175300000Y-84500000D01*
X176650000Y-84325000D02*
X175475000Y-84325000D01*
X168650001Y-89550001D02*
X168300000Y-89200000D01*
X174449999Y-89550001D02*
X168650001Y-89550001D01*
X174700000Y-89300000D02*
X174449999Y-89550001D01*
X170330000Y-83500000D02*
X170510000Y-83320000D01*
X168300000Y-83500000D02*
X170330000Y-83500000D01*
X175235000Y-83675000D02*
X173050000Y-85860000D01*
X176650000Y-83675000D02*
X175235000Y-83675000D01*
X171359999Y-85010001D02*
X170510000Y-85860000D01*
X171660001Y-84709999D02*
X171359999Y-85010001D01*
X173404003Y-84709999D02*
X171660001Y-84709999D01*
X175089002Y-83025000D02*
X173404003Y-84709999D01*
X176650000Y-83025000D02*
X175089002Y-83025000D01*
X174925000Y-82375000D02*
X174700000Y-82600000D01*
X176650000Y-82375000D02*
X174925000Y-82375000D01*
X168930001Y-81930001D02*
X168900000Y-81900000D01*
X174484001Y-81930001D02*
X168930001Y-81930001D01*
X174689002Y-81725000D02*
X174484001Y-81930001D01*
X176650000Y-81725000D02*
X174689002Y-81725000D01*
X181100001Y-69399999D02*
X180400000Y-70100000D01*
X183186989Y-69399999D02*
X181100001Y-69399999D01*
X190000000Y-70700000D02*
X190000000Y-71700000D01*
X190000000Y-71700000D02*
X189700000Y-72000000D01*
X189700000Y-72000000D02*
X189699976Y-72000000D01*
X184600018Y-72500018D02*
X184600018Y-71303621D01*
X183472989Y-69685999D02*
X183186989Y-69399999D01*
X189699976Y-72000000D02*
X189549988Y-72149988D01*
X189549988Y-72149988D02*
X188035999Y-72149988D01*
X188035999Y-72149988D02*
X187736018Y-72449969D01*
X185818633Y-72449969D02*
X185468613Y-72799990D01*
X187736018Y-72449969D02*
X185818633Y-72449969D01*
X185468613Y-72799990D02*
X184899990Y-72799990D01*
X184899990Y-72799990D02*
X184600018Y-72500018D01*
X183472989Y-70176592D02*
X184600018Y-71303621D01*
X183472989Y-69685999D02*
X183472989Y-70176592D01*
X194400000Y-69600000D02*
X194400000Y-70700000D01*
M02*
