G04 #@! TF.GenerationSoftware,KiCad,Pcbnew,5.1.5+dfsg1-2build2*
G04 #@! TF.CreationDate,2021-08-15T10:11:15+01:00*
G04 #@! TF.ProjectId,picopak,7069636f-7061-46b2-9e6b-696361645f70,rev?*
G04 #@! TF.SameCoordinates,Original*
G04 #@! TF.FileFunction,Copper,L2,Inr*
G04 #@! TF.FilePolarity,Positive*
%FSLAX46Y46*%
G04 Gerber Fmt 4.6, Leading zero omitted, Abs format (unit mm)*
G04 Created by KiCad (PCBNEW 5.1.5+dfsg1-2build2) date 2021-08-15 10:11:15*
%MOMM*%
%LPD*%
G04 APERTURE LIST*
%ADD10C,1.524000*%
%ADD11R,1.700000X1.700000*%
%ADD12O,1.700000X1.700000*%
%ADD13O,1.450000X1.050000*%
%ADD14O,1.800000X1.300000*%
%ADD15C,0.500000*%
%ADD16C,0.800000*%
%ADD17C,0.200000*%
%ADD18C,0.254000*%
G04 APERTURE END LIST*
D10*
X206800000Y-79145000D03*
X206800000Y-76605000D03*
X206800000Y-74065000D03*
X206800000Y-71525000D03*
D11*
X173050000Y-70700000D03*
D12*
X170510000Y-70620000D03*
X173050000Y-73160000D03*
X170510000Y-73160000D03*
X173050000Y-75700000D03*
X170510000Y-75700000D03*
X173050000Y-78240000D03*
X170510000Y-78240000D03*
X173050000Y-80780000D03*
X170510000Y-80780000D03*
X173050000Y-83320000D03*
X170510000Y-83320000D03*
X173050000Y-85860000D03*
X170510000Y-85860000D03*
X173050000Y-88400000D03*
X170510000Y-88400000D03*
D13*
X204320000Y-83225000D03*
X204320000Y-88075000D03*
D14*
X207350000Y-88375000D03*
X207350000Y-82925000D03*
D15*
X205500000Y-85000000D03*
X204000000Y-80700000D03*
X199600000Y-84100000D03*
X189300000Y-84400000D03*
X192300000Y-75400000D03*
X192600000Y-77700000D03*
X190900000Y-72699989D03*
X201250000Y-71200000D03*
X181400000Y-72800003D03*
X177600000Y-88625001D03*
X175691075Y-87529336D03*
X180150000Y-82900000D03*
X205000000Y-72100000D03*
X187223784Y-79329032D03*
X185300000Y-71800000D03*
X181800000Y-70200000D03*
X174249693Y-80279259D03*
X186535835Y-77083472D03*
X205500000Y-84300000D03*
X202200000Y-86000000D03*
X187600000Y-76200000D03*
X187400000Y-74600000D03*
X186100000Y-74349990D03*
X188200000Y-84400000D03*
X189700000Y-80300000D03*
X187750000Y-82023625D03*
X192900000Y-73600000D03*
X181400000Y-72100000D03*
X198500000Y-73600000D03*
X183954047Y-81430282D03*
X192900000Y-82800000D03*
X192900000Y-80345010D03*
X179726556Y-76695626D03*
D16*
X203300000Y-72000000D03*
D15*
X199961091Y-79461091D03*
X200300000Y-83400000D03*
X194800000Y-83500000D03*
X194804990Y-80895010D03*
X177800000Y-78900000D03*
X180267104Y-79500000D03*
X197200000Y-84850000D03*
X205623263Y-86240711D03*
X196350000Y-85400000D03*
X203200000Y-85600000D03*
X188150000Y-81391928D03*
X187292753Y-77350677D03*
X188318185Y-82432487D03*
X187511597Y-78081384D03*
X192200000Y-84000000D03*
X192200000Y-78400000D03*
X196800000Y-78400000D03*
X196800000Y-82800000D03*
X198800000Y-87600000D03*
X199850010Y-80800000D03*
X179600000Y-87800000D03*
X181200001Y-73700000D03*
X179700000Y-73900000D03*
X177900000Y-74200000D03*
D16*
X168400000Y-71900000D03*
D15*
X174800000Y-72600000D03*
X197400000Y-73500000D03*
X196350000Y-73000000D03*
X194100000Y-74900000D03*
X194100000Y-77000000D03*
X203600000Y-79900000D03*
X186800000Y-74200000D03*
X189500000Y-82050000D03*
X200900000Y-78300000D03*
X201100000Y-82200000D03*
X182922988Y-69950000D03*
X188300000Y-72699989D03*
X174400000Y-81200000D03*
D16*
X168000000Y-76700000D03*
X167500000Y-70200000D03*
D15*
X177800000Y-69600000D03*
X174600000Y-71475000D03*
X186000000Y-88200000D03*
X181400000Y-88200000D03*
X181374998Y-86825000D03*
X187200000Y-83385998D03*
X186650000Y-82350002D03*
X186250000Y-87000001D03*
X195800000Y-72400000D03*
X195600000Y-85600000D03*
X196600000Y-70700000D03*
X189000000Y-69900000D03*
X182300000Y-70800000D03*
X186564080Y-79000000D03*
X185781332Y-79315290D03*
X185190616Y-78939714D03*
X184495725Y-79024135D03*
X178900000Y-88325000D03*
X185600000Y-89425000D03*
X185831067Y-82302913D03*
X174007124Y-79125157D03*
X183203215Y-79302710D03*
X183547115Y-82958407D03*
X183605663Y-83794773D03*
X181554999Y-84260001D03*
X181361872Y-84932835D03*
X180800000Y-85600000D03*
X182668011Y-78851535D03*
X180612490Y-80200000D03*
X180193780Y-85950000D03*
X183840711Y-86175000D03*
X183800985Y-78938466D03*
X177900000Y-82400000D03*
X174150000Y-87500000D03*
X170510000Y-80780000D03*
X171800000Y-87200000D03*
X175300000Y-84500000D03*
X174700000Y-89300000D03*
X168300000Y-89200000D03*
X168300000Y-83500000D03*
X174700000Y-82600000D03*
X168900000Y-81900000D03*
X180400000Y-70100000D03*
X194400000Y-69600000D03*
X195504265Y-70689337D03*
D17*
X178300000Y-79400000D02*
X177800000Y-78900000D01*
X180267104Y-79400000D02*
X178300000Y-79400000D01*
X179900000Y-73700000D02*
X179700000Y-73900000D01*
X181200001Y-73700000D02*
X179900000Y-73700000D01*
D18*
G36*
X179615723Y-69680795D02*
G01*
X179549010Y-69841855D01*
X179515000Y-70012835D01*
X179515000Y-70187165D01*
X179549010Y-70358145D01*
X179615723Y-70519205D01*
X179712576Y-70664155D01*
X179835845Y-70787424D01*
X179980795Y-70884277D01*
X180141855Y-70950990D01*
X180312835Y-70985000D01*
X180487165Y-70985000D01*
X180658145Y-70950990D01*
X180819205Y-70884277D01*
X180964155Y-70787424D01*
X181087424Y-70664155D01*
X181184277Y-70519205D01*
X181250990Y-70358145D01*
X181285000Y-70187165D01*
X181285000Y-70012835D01*
X181250990Y-69841855D01*
X181184277Y-69680795D01*
X181170382Y-69660000D01*
X182085193Y-69660000D01*
X182071998Y-69691855D01*
X182037988Y-69862835D01*
X182037988Y-69950612D01*
X181880795Y-70015723D01*
X181735845Y-70112576D01*
X181612576Y-70235845D01*
X181515723Y-70380795D01*
X181449010Y-70541855D01*
X181415000Y-70712835D01*
X181415000Y-70887165D01*
X181449010Y-71058145D01*
X181515723Y-71219205D01*
X181516860Y-71220907D01*
X181487165Y-71215000D01*
X181312835Y-71215000D01*
X181141855Y-71249010D01*
X180980795Y-71315723D01*
X180835845Y-71412576D01*
X180712576Y-71535845D01*
X180615723Y-71680795D01*
X180549010Y-71841855D01*
X180515000Y-72012835D01*
X180515000Y-72187165D01*
X180549010Y-72358145D01*
X180615723Y-72519205D01*
X180712576Y-72664155D01*
X180835845Y-72787424D01*
X180933311Y-72852549D01*
X180780796Y-72915723D01*
X180707048Y-72965000D01*
X179936105Y-72965000D01*
X179900000Y-72961444D01*
X179863895Y-72965000D01*
X179755915Y-72975635D01*
X179626146Y-73015000D01*
X179612835Y-73015000D01*
X179441855Y-73049010D01*
X179280795Y-73115723D01*
X179135845Y-73212576D01*
X179012576Y-73335845D01*
X178915723Y-73480795D01*
X178849010Y-73641855D01*
X178815000Y-73812835D01*
X178815000Y-73987165D01*
X178849010Y-74158145D01*
X178915723Y-74319205D01*
X179012576Y-74464155D01*
X179135845Y-74587424D01*
X179280795Y-74684277D01*
X179441855Y-74750990D01*
X179612835Y-74785000D01*
X179787165Y-74785000D01*
X179958145Y-74750990D01*
X180119205Y-74684277D01*
X180264155Y-74587424D01*
X180387424Y-74464155D01*
X180406905Y-74435000D01*
X180707048Y-74435000D01*
X180780796Y-74484277D01*
X180941856Y-74550990D01*
X181112836Y-74585000D01*
X181287166Y-74585000D01*
X181458146Y-74550990D01*
X181619206Y-74484277D01*
X181764156Y-74387424D01*
X181887425Y-74264155D01*
X181984278Y-74119205D01*
X182050991Y-73958145D01*
X182085001Y-73787165D01*
X182085001Y-73612835D01*
X182050991Y-73441855D01*
X181984278Y-73280795D01*
X181887425Y-73135845D01*
X181764156Y-73012576D01*
X181666690Y-72947451D01*
X181819205Y-72884277D01*
X181964155Y-72787424D01*
X182087424Y-72664155D01*
X182121722Y-72612824D01*
X187415000Y-72612824D01*
X187415000Y-72787154D01*
X187449010Y-72958134D01*
X187515723Y-73119194D01*
X187612576Y-73264144D01*
X187735845Y-73387413D01*
X187880795Y-73484266D01*
X188041855Y-73550979D01*
X188212835Y-73584989D01*
X188387165Y-73584989D01*
X188558145Y-73550979D01*
X188650233Y-73512835D01*
X192015000Y-73512835D01*
X192015000Y-73687165D01*
X192049010Y-73858145D01*
X192115723Y-74019205D01*
X192212576Y-74164155D01*
X192335845Y-74287424D01*
X192480795Y-74384277D01*
X192641855Y-74450990D01*
X192812835Y-74485000D01*
X192987165Y-74485000D01*
X193158145Y-74450990D01*
X193319205Y-74384277D01*
X193454638Y-74293783D01*
X193412576Y-74335845D01*
X193315723Y-74480795D01*
X193249010Y-74641855D01*
X193215000Y-74812835D01*
X193215000Y-74987165D01*
X193249010Y-75158145D01*
X193315723Y-75319205D01*
X193412576Y-75464155D01*
X193535845Y-75587424D01*
X193680795Y-75684277D01*
X193841855Y-75750990D01*
X194012835Y-75785000D01*
X194187165Y-75785000D01*
X194358145Y-75750990D01*
X194519205Y-75684277D01*
X194664155Y-75587424D01*
X194787424Y-75464155D01*
X194884277Y-75319205D01*
X194950990Y-75158145D01*
X194985000Y-74987165D01*
X194985000Y-74812835D01*
X194950990Y-74641855D01*
X194884277Y-74480795D01*
X194787424Y-74335845D01*
X194664155Y-74212576D01*
X194519205Y-74115723D01*
X194358145Y-74049010D01*
X194187165Y-74015000D01*
X194012835Y-74015000D01*
X193841855Y-74049010D01*
X193680795Y-74115723D01*
X193545362Y-74206217D01*
X193587424Y-74164155D01*
X193684277Y-74019205D01*
X193750990Y-73858145D01*
X193785000Y-73687165D01*
X193785000Y-73512835D01*
X193750990Y-73341855D01*
X193684277Y-73180795D01*
X193587424Y-73035845D01*
X193464155Y-72912576D01*
X193319205Y-72815723D01*
X193158145Y-72749010D01*
X192987165Y-72715000D01*
X192812835Y-72715000D01*
X192641855Y-72749010D01*
X192480795Y-72815723D01*
X192335845Y-72912576D01*
X192212576Y-73035845D01*
X192115723Y-73180795D01*
X192049010Y-73341855D01*
X192015000Y-73512835D01*
X188650233Y-73512835D01*
X188719205Y-73484266D01*
X188864155Y-73387413D01*
X188987424Y-73264144D01*
X189084277Y-73119194D01*
X189150990Y-72958134D01*
X189185000Y-72787154D01*
X189185000Y-72612824D01*
X189150990Y-72441844D01*
X189084277Y-72280784D01*
X188987424Y-72135834D01*
X188864155Y-72012565D01*
X188719205Y-71915712D01*
X188558145Y-71848999D01*
X188387165Y-71814989D01*
X188212835Y-71814989D01*
X188041855Y-71848999D01*
X187880795Y-71915712D01*
X187735845Y-72012565D01*
X187612576Y-72135834D01*
X187515723Y-72280784D01*
X187449010Y-72441844D01*
X187415000Y-72612824D01*
X182121722Y-72612824D01*
X182184277Y-72519205D01*
X182250990Y-72358145D01*
X182285000Y-72187165D01*
X182285000Y-72012835D01*
X182250990Y-71841855D01*
X182184277Y-71680795D01*
X182183140Y-71679093D01*
X182212835Y-71685000D01*
X182387165Y-71685000D01*
X182558145Y-71650990D01*
X182719205Y-71584277D01*
X182864155Y-71487424D01*
X182987424Y-71364155D01*
X183084277Y-71219205D01*
X183150990Y-71058145D01*
X183185000Y-70887165D01*
X183185000Y-70799388D01*
X183342193Y-70734277D01*
X183487143Y-70637424D01*
X183610412Y-70514155D01*
X183707265Y-70369205D01*
X183773978Y-70208145D01*
X183807988Y-70037165D01*
X183807988Y-69862835D01*
X183773978Y-69691855D01*
X183760783Y-69660000D01*
X188145401Y-69660000D01*
X188115000Y-69812835D01*
X188115000Y-69987165D01*
X188149010Y-70158145D01*
X188215723Y-70319205D01*
X188312576Y-70464155D01*
X188435845Y-70587424D01*
X188580795Y-70684277D01*
X188741855Y-70750990D01*
X188912835Y-70785000D01*
X189087165Y-70785000D01*
X189258145Y-70750990D01*
X189419205Y-70684277D01*
X189564155Y-70587424D01*
X189687424Y-70464155D01*
X189784277Y-70319205D01*
X189850990Y-70158145D01*
X189885000Y-69987165D01*
X189885000Y-69812835D01*
X189854599Y-69660000D01*
X193515000Y-69660000D01*
X193515000Y-69687165D01*
X193549010Y-69858145D01*
X193615723Y-70019205D01*
X193712576Y-70164155D01*
X193835845Y-70287424D01*
X193980795Y-70384277D01*
X194141855Y-70450990D01*
X194312835Y-70485000D01*
X194487165Y-70485000D01*
X194648974Y-70452814D01*
X194619265Y-70602172D01*
X194619265Y-70776502D01*
X194653275Y-70947482D01*
X194719988Y-71108542D01*
X194816841Y-71253492D01*
X194940110Y-71376761D01*
X195085060Y-71473614D01*
X195246120Y-71540327D01*
X195417100Y-71574337D01*
X195480710Y-71574337D01*
X195380795Y-71615723D01*
X195235845Y-71712576D01*
X195112576Y-71835845D01*
X195015723Y-71980795D01*
X194949010Y-72141855D01*
X194915000Y-72312835D01*
X194915000Y-72487165D01*
X194949010Y-72658145D01*
X195015723Y-72819205D01*
X195112576Y-72964155D01*
X195235845Y-73087424D01*
X195380795Y-73184277D01*
X195493612Y-73231007D01*
X195499010Y-73258145D01*
X195565723Y-73419205D01*
X195662576Y-73564155D01*
X195785845Y-73687424D01*
X195930795Y-73784277D01*
X196091855Y-73850990D01*
X196262835Y-73885000D01*
X196437165Y-73885000D01*
X196589041Y-73854790D01*
X196615723Y-73919205D01*
X196712576Y-74064155D01*
X196835845Y-74187424D01*
X196980795Y-74284277D01*
X197141855Y-74350990D01*
X197312835Y-74385000D01*
X197487165Y-74385000D01*
X197658145Y-74350990D01*
X197819205Y-74284277D01*
X197887239Y-74238818D01*
X197935845Y-74287424D01*
X198080795Y-74384277D01*
X198241855Y-74450990D01*
X198412835Y-74485000D01*
X198587165Y-74485000D01*
X198758145Y-74450990D01*
X198919205Y-74384277D01*
X199064155Y-74287424D01*
X199187424Y-74164155D01*
X199284277Y-74019205D01*
X199350990Y-73858145D01*
X199385000Y-73687165D01*
X199385000Y-73512835D01*
X199350990Y-73341855D01*
X199284277Y-73180795D01*
X199187424Y-73035845D01*
X199064155Y-72912576D01*
X198919205Y-72815723D01*
X198758145Y-72749010D01*
X198587165Y-72715000D01*
X198412835Y-72715000D01*
X198241855Y-72749010D01*
X198080795Y-72815723D01*
X198012761Y-72861182D01*
X197964155Y-72812576D01*
X197819205Y-72715723D01*
X197658145Y-72649010D01*
X197487165Y-72615000D01*
X197312835Y-72615000D01*
X197160959Y-72645210D01*
X197134277Y-72580795D01*
X197037424Y-72435845D01*
X196914155Y-72312576D01*
X196769205Y-72215723D01*
X196656388Y-72168993D01*
X196650990Y-72141855D01*
X196584277Y-71980795D01*
X196528996Y-71898061D01*
X202265000Y-71898061D01*
X202265000Y-72101939D01*
X202304774Y-72301898D01*
X202382795Y-72490256D01*
X202496063Y-72659774D01*
X202640226Y-72803937D01*
X202809744Y-72917205D01*
X202998102Y-72995226D01*
X203198061Y-73035000D01*
X203401939Y-73035000D01*
X203601898Y-72995226D01*
X203790256Y-72917205D01*
X203959774Y-72803937D01*
X204103937Y-72659774D01*
X204217205Y-72490256D01*
X204295226Y-72301898D01*
X204335000Y-72101939D01*
X204335000Y-71898061D01*
X204295226Y-71698102D01*
X204217205Y-71509744D01*
X204135463Y-71387408D01*
X205403000Y-71387408D01*
X205403000Y-71662592D01*
X205456686Y-71932490D01*
X205561995Y-72186727D01*
X205714880Y-72415535D01*
X205909465Y-72610120D01*
X206138273Y-72763005D01*
X206215515Y-72795000D01*
X206138273Y-72826995D01*
X205909465Y-72979880D01*
X205714880Y-73174465D01*
X205561995Y-73403273D01*
X205456686Y-73657510D01*
X205403000Y-73927408D01*
X205403000Y-74202592D01*
X205456686Y-74472490D01*
X205561995Y-74726727D01*
X205714880Y-74955535D01*
X205909465Y-75150120D01*
X206138273Y-75303005D01*
X206215515Y-75335000D01*
X206138273Y-75366995D01*
X205909465Y-75519880D01*
X205714880Y-75714465D01*
X205561995Y-75943273D01*
X205456686Y-76197510D01*
X205403000Y-76467408D01*
X205403000Y-76742592D01*
X205456686Y-77012490D01*
X205561995Y-77266727D01*
X205714880Y-77495535D01*
X205909465Y-77690120D01*
X206138273Y-77843005D01*
X206209943Y-77872692D01*
X206196977Y-77877364D01*
X206081020Y-77939344D01*
X206014040Y-78179435D01*
X206800000Y-78965395D01*
X207585960Y-78179435D01*
X207518980Y-77939344D01*
X207383240Y-77875515D01*
X207461727Y-77843005D01*
X207690535Y-77690120D01*
X207885120Y-77495535D01*
X208038005Y-77266727D01*
X208143314Y-77012490D01*
X208197000Y-76742592D01*
X208197000Y-76467408D01*
X208143314Y-76197510D01*
X208038005Y-75943273D01*
X207885120Y-75714465D01*
X207690535Y-75519880D01*
X207461727Y-75366995D01*
X207384485Y-75335000D01*
X207461727Y-75303005D01*
X207690535Y-75150120D01*
X207885120Y-74955535D01*
X208038005Y-74726727D01*
X208143314Y-74472490D01*
X208197000Y-74202592D01*
X208197000Y-73927408D01*
X208143314Y-73657510D01*
X208038005Y-73403273D01*
X207885120Y-73174465D01*
X207690535Y-72979880D01*
X207461727Y-72826995D01*
X207384485Y-72795000D01*
X207461727Y-72763005D01*
X207690535Y-72610120D01*
X207885120Y-72415535D01*
X208038005Y-72186727D01*
X208143314Y-71932490D01*
X208197000Y-71662592D01*
X208197000Y-71387408D01*
X208143314Y-71117510D01*
X208038005Y-70863273D01*
X207885120Y-70634465D01*
X207690535Y-70439880D01*
X207461727Y-70286995D01*
X207207490Y-70181686D01*
X206937592Y-70128000D01*
X206662408Y-70128000D01*
X206392510Y-70181686D01*
X206138273Y-70286995D01*
X205909465Y-70439880D01*
X205714880Y-70634465D01*
X205561995Y-70863273D01*
X205456686Y-71117510D01*
X205403000Y-71387408D01*
X204135463Y-71387408D01*
X204103937Y-71340226D01*
X203959774Y-71196063D01*
X203790256Y-71082795D01*
X203601898Y-71004774D01*
X203401939Y-70965000D01*
X203198061Y-70965000D01*
X202998102Y-71004774D01*
X202809744Y-71082795D01*
X202640226Y-71196063D01*
X202496063Y-71340226D01*
X202382795Y-71509744D01*
X202304774Y-71698102D01*
X202265000Y-71898061D01*
X196528996Y-71898061D01*
X196487424Y-71835845D01*
X196364155Y-71712576D01*
X196219205Y-71615723D01*
X196058145Y-71549010D01*
X195887165Y-71515000D01*
X195823555Y-71515000D01*
X195923470Y-71473614D01*
X196044153Y-71392976D01*
X196180795Y-71484277D01*
X196341855Y-71550990D01*
X196512835Y-71585000D01*
X196687165Y-71585000D01*
X196858145Y-71550990D01*
X197019205Y-71484277D01*
X197164155Y-71387424D01*
X197287424Y-71264155D01*
X197384277Y-71119205D01*
X197450990Y-70958145D01*
X197485000Y-70787165D01*
X197485000Y-70612835D01*
X197450990Y-70441855D01*
X197384277Y-70280795D01*
X197287424Y-70135845D01*
X197164155Y-70012576D01*
X197019205Y-69915723D01*
X196858145Y-69849010D01*
X196687165Y-69815000D01*
X196512835Y-69815000D01*
X196341855Y-69849010D01*
X196180795Y-69915723D01*
X196060112Y-69996361D01*
X195923470Y-69905060D01*
X195762410Y-69838347D01*
X195591430Y-69804337D01*
X195417100Y-69804337D01*
X195255291Y-69836523D01*
X195285000Y-69687165D01*
X195285000Y-69660000D01*
X209340000Y-69660000D01*
X209340000Y-70032418D01*
X209340001Y-70032428D01*
X209340000Y-89340000D01*
X208457581Y-89340000D01*
X208572191Y-89233375D01*
X208720971Y-89027217D01*
X208826673Y-88795994D01*
X208843099Y-88700471D01*
X208719067Y-88502000D01*
X207477000Y-88502000D01*
X207477000Y-88522000D01*
X207223000Y-88522000D01*
X207223000Y-88502000D01*
X205980933Y-88502000D01*
X205856901Y-88700471D01*
X205873327Y-88795994D01*
X205979029Y-89027217D01*
X206127809Y-89233375D01*
X206242419Y-89340000D01*
X186485000Y-89340000D01*
X186485000Y-89337835D01*
X186450990Y-89166855D01*
X186384277Y-89005795D01*
X186380587Y-89000273D01*
X186419205Y-88984277D01*
X186564155Y-88887424D01*
X186687424Y-88764155D01*
X186784277Y-88619205D01*
X186850990Y-88458145D01*
X186885000Y-88287165D01*
X186885000Y-88112835D01*
X186850990Y-87941855D01*
X186784277Y-87780795D01*
X186750368Y-87730046D01*
X186814155Y-87687425D01*
X186937424Y-87564156D01*
X186971715Y-87512835D01*
X197915000Y-87512835D01*
X197915000Y-87687165D01*
X197949010Y-87858145D01*
X198015723Y-88019205D01*
X198112576Y-88164155D01*
X198235845Y-88287424D01*
X198380795Y-88384277D01*
X198541855Y-88450990D01*
X198712835Y-88485000D01*
X198887165Y-88485000D01*
X199058145Y-88450990D01*
X199219205Y-88384277D01*
X199224393Y-88380810D01*
X203001036Y-88380810D01*
X203005216Y-88417711D01*
X203093496Y-88628609D01*
X203221224Y-88818232D01*
X203383491Y-88979294D01*
X203574062Y-89105604D01*
X203785613Y-89192308D01*
X204010014Y-89236075D01*
X204193000Y-89080236D01*
X204193000Y-88202000D01*
X204447000Y-88202000D01*
X204447000Y-89080236D01*
X204629986Y-89236075D01*
X204854387Y-89192308D01*
X205065938Y-89105604D01*
X205256509Y-88979294D01*
X205418776Y-88818232D01*
X205546504Y-88628609D01*
X205634784Y-88417711D01*
X205638964Y-88380810D01*
X205513163Y-88202000D01*
X204447000Y-88202000D01*
X204193000Y-88202000D01*
X203126837Y-88202000D01*
X203001036Y-88380810D01*
X199224393Y-88380810D01*
X199364155Y-88287424D01*
X199487424Y-88164155D01*
X199564015Y-88049529D01*
X205856901Y-88049529D01*
X205980933Y-88248000D01*
X207223000Y-88248000D01*
X207223000Y-87242691D01*
X207477000Y-87242691D01*
X207477000Y-88248000D01*
X208719067Y-88248000D01*
X208843099Y-88049529D01*
X208826673Y-87954006D01*
X208720971Y-87722783D01*
X208572191Y-87516625D01*
X208386050Y-87343453D01*
X208169701Y-87209923D01*
X207931459Y-87121167D01*
X207680480Y-87080595D01*
X207477000Y-87242691D01*
X207223000Y-87242691D01*
X207019520Y-87080595D01*
X206768541Y-87121167D01*
X206530299Y-87209923D01*
X206313950Y-87343453D01*
X206127809Y-87516625D01*
X205979029Y-87722783D01*
X205873327Y-87954006D01*
X205856901Y-88049529D01*
X199564015Y-88049529D01*
X199584277Y-88019205D01*
X199650990Y-87858145D01*
X199668684Y-87769190D01*
X203001036Y-87769190D01*
X203126837Y-87948000D01*
X204193000Y-87948000D01*
X204193000Y-87069764D01*
X204447000Y-87069764D01*
X204447000Y-87948000D01*
X205513163Y-87948000D01*
X205638964Y-87769190D01*
X205634784Y-87732289D01*
X205546504Y-87521391D01*
X205418776Y-87331768D01*
X205256509Y-87170706D01*
X205065938Y-87044396D01*
X204854387Y-86957692D01*
X204629986Y-86913925D01*
X204447000Y-87069764D01*
X204193000Y-87069764D01*
X204010014Y-86913925D01*
X203785613Y-86957692D01*
X203574062Y-87044396D01*
X203383491Y-87170706D01*
X203221224Y-87331768D01*
X203093496Y-87521391D01*
X203005216Y-87732289D01*
X203001036Y-87769190D01*
X199668684Y-87769190D01*
X199685000Y-87687165D01*
X199685000Y-87512835D01*
X199650990Y-87341855D01*
X199584277Y-87180795D01*
X199487424Y-87035845D01*
X199364155Y-86912576D01*
X199219205Y-86815723D01*
X199058145Y-86749010D01*
X198887165Y-86715000D01*
X198712835Y-86715000D01*
X198541855Y-86749010D01*
X198380795Y-86815723D01*
X198235845Y-86912576D01*
X198112576Y-87035845D01*
X198015723Y-87180795D01*
X197949010Y-87341855D01*
X197915000Y-87512835D01*
X186971715Y-87512835D01*
X187034277Y-87419206D01*
X187100990Y-87258146D01*
X187135000Y-87087166D01*
X187135000Y-86912836D01*
X187100990Y-86741856D01*
X187034277Y-86580796D01*
X186937424Y-86435846D01*
X186814155Y-86312577D01*
X186669205Y-86215724D01*
X186508145Y-86149011D01*
X186337165Y-86115001D01*
X186162835Y-86115001D01*
X185991855Y-86149011D01*
X185830795Y-86215724D01*
X185685845Y-86312577D01*
X185562576Y-86435846D01*
X185465723Y-86580796D01*
X185399010Y-86741856D01*
X185365000Y-86912836D01*
X185365000Y-87087166D01*
X185399010Y-87258146D01*
X185465723Y-87419206D01*
X185499632Y-87469955D01*
X185435845Y-87512576D01*
X185312576Y-87635845D01*
X185215723Y-87780795D01*
X185149010Y-87941855D01*
X185115000Y-88112835D01*
X185115000Y-88287165D01*
X185149010Y-88458145D01*
X185215723Y-88619205D01*
X185219413Y-88624727D01*
X185180795Y-88640723D01*
X185035845Y-88737576D01*
X184912576Y-88860845D01*
X184815723Y-89005795D01*
X184749010Y-89166855D01*
X184715000Y-89337835D01*
X184715000Y-89340000D01*
X175585000Y-89340000D01*
X175585000Y-89212835D01*
X175550990Y-89041855D01*
X175484277Y-88880795D01*
X175387424Y-88735845D01*
X175264155Y-88612576D01*
X175119205Y-88515723D01*
X174958145Y-88449010D01*
X174787165Y-88415000D01*
X174612835Y-88415000D01*
X174535000Y-88430482D01*
X174535000Y-88298445D01*
X174569205Y-88284277D01*
X174638710Y-88237835D01*
X178015000Y-88237835D01*
X178015000Y-88412165D01*
X178049010Y-88583145D01*
X178115723Y-88744205D01*
X178212576Y-88889155D01*
X178335845Y-89012424D01*
X178480795Y-89109277D01*
X178641855Y-89175990D01*
X178812835Y-89210000D01*
X178987165Y-89210000D01*
X179158145Y-89175990D01*
X179319205Y-89109277D01*
X179464155Y-89012424D01*
X179587424Y-88889155D01*
X179684277Y-88744205D01*
X179710743Y-88680310D01*
X179858145Y-88650990D01*
X180019205Y-88584277D01*
X180164155Y-88487424D01*
X180287424Y-88364155D01*
X180384277Y-88219205D01*
X180450990Y-88058145D01*
X180485000Y-87887165D01*
X180485000Y-87712835D01*
X180450990Y-87541855D01*
X180384277Y-87380795D01*
X180287424Y-87235845D01*
X180164155Y-87112576D01*
X180019205Y-87015723D01*
X179858145Y-86949010D01*
X179687165Y-86915000D01*
X179512835Y-86915000D01*
X179341855Y-86949010D01*
X179180795Y-87015723D01*
X179035845Y-87112576D01*
X178912576Y-87235845D01*
X178815723Y-87380795D01*
X178789257Y-87444690D01*
X178641855Y-87474010D01*
X178480795Y-87540723D01*
X178335845Y-87637576D01*
X178212576Y-87760845D01*
X178115723Y-87905795D01*
X178049010Y-88066855D01*
X178015000Y-88237835D01*
X174638710Y-88237835D01*
X174714155Y-88187424D01*
X174837424Y-88064155D01*
X174934277Y-87919205D01*
X175000990Y-87758145D01*
X175035000Y-87587165D01*
X175035000Y-87412835D01*
X175000990Y-87241855D01*
X174934277Y-87080795D01*
X174837424Y-86935845D01*
X174714155Y-86812576D01*
X174569205Y-86715723D01*
X174408145Y-86649010D01*
X174320450Y-86631566D01*
X174365990Y-86563411D01*
X174477932Y-86293158D01*
X174535000Y-86006260D01*
X174535000Y-85862835D01*
X179308780Y-85862835D01*
X179308780Y-86037165D01*
X179342790Y-86208145D01*
X179409503Y-86369205D01*
X179506356Y-86514155D01*
X179629625Y-86637424D01*
X179774575Y-86734277D01*
X179935635Y-86800990D01*
X180106615Y-86835000D01*
X180280945Y-86835000D01*
X180451925Y-86800990D01*
X180489998Y-86785220D01*
X180489998Y-86912165D01*
X180524008Y-87083145D01*
X180590721Y-87244205D01*
X180687574Y-87389155D01*
X180810843Y-87512424D01*
X180825922Y-87522499D01*
X180712576Y-87635845D01*
X180615723Y-87780795D01*
X180549010Y-87941855D01*
X180515000Y-88112835D01*
X180515000Y-88287165D01*
X180549010Y-88458145D01*
X180615723Y-88619205D01*
X180712576Y-88764155D01*
X180835845Y-88887424D01*
X180980795Y-88984277D01*
X181141855Y-89050990D01*
X181312835Y-89085000D01*
X181487165Y-89085000D01*
X181658145Y-89050990D01*
X181819205Y-88984277D01*
X181964155Y-88887424D01*
X182087424Y-88764155D01*
X182184277Y-88619205D01*
X182250990Y-88458145D01*
X182285000Y-88287165D01*
X182285000Y-88112835D01*
X182250990Y-87941855D01*
X182184277Y-87780795D01*
X182087424Y-87635845D01*
X181964155Y-87512576D01*
X181949076Y-87502501D01*
X182062422Y-87389155D01*
X182159275Y-87244205D01*
X182225988Y-87083145D01*
X182259998Y-86912165D01*
X182259998Y-86737835D01*
X182225988Y-86566855D01*
X182159275Y-86405795D01*
X182062422Y-86260845D01*
X181939153Y-86137576D01*
X181864711Y-86087835D01*
X182955711Y-86087835D01*
X182955711Y-86262165D01*
X182989721Y-86433145D01*
X183056434Y-86594205D01*
X183153287Y-86739155D01*
X183276556Y-86862424D01*
X183421506Y-86959277D01*
X183582566Y-87025990D01*
X183753546Y-87060000D01*
X183927876Y-87060000D01*
X184098856Y-87025990D01*
X184259916Y-86959277D01*
X184404866Y-86862424D01*
X184528135Y-86739155D01*
X184624988Y-86594205D01*
X184691701Y-86433145D01*
X184725711Y-86262165D01*
X184725711Y-86087835D01*
X184691701Y-85916855D01*
X184624988Y-85755795D01*
X184528135Y-85610845D01*
X184430125Y-85512835D01*
X194715000Y-85512835D01*
X194715000Y-85687165D01*
X194749010Y-85858145D01*
X194815723Y-86019205D01*
X194912576Y-86164155D01*
X195035845Y-86287424D01*
X195180795Y-86384277D01*
X195341855Y-86450990D01*
X195512835Y-86485000D01*
X195687165Y-86485000D01*
X195858145Y-86450990D01*
X196019205Y-86384277D01*
X196164155Y-86287424D01*
X196182549Y-86269030D01*
X196262835Y-86285000D01*
X196437165Y-86285000D01*
X196608145Y-86250990D01*
X196769205Y-86184277D01*
X196914155Y-86087424D01*
X197037424Y-85964155D01*
X197071715Y-85912835D01*
X201315000Y-85912835D01*
X201315000Y-86087165D01*
X201349010Y-86258145D01*
X201415723Y-86419205D01*
X201512576Y-86564155D01*
X201635845Y-86687424D01*
X201780795Y-86784277D01*
X201941855Y-86850990D01*
X202112835Y-86885000D01*
X202287165Y-86885000D01*
X202458145Y-86850990D01*
X202619205Y-86784277D01*
X202764155Y-86687424D01*
X202887424Y-86564155D01*
X202960554Y-86454709D01*
X203112835Y-86485000D01*
X203287165Y-86485000D01*
X203458145Y-86450990D01*
X203619205Y-86384277D01*
X203764155Y-86287424D01*
X203887424Y-86164155D01*
X203984277Y-86019205D01*
X204050990Y-85858145D01*
X204085000Y-85687165D01*
X204085000Y-85512835D01*
X204050990Y-85341855D01*
X203984277Y-85180795D01*
X203887424Y-85035845D01*
X203764155Y-84912576D01*
X203619205Y-84815723D01*
X203458145Y-84749010D01*
X203287165Y-84715000D01*
X203112835Y-84715000D01*
X202941855Y-84749010D01*
X202780795Y-84815723D01*
X202635845Y-84912576D01*
X202512576Y-85035845D01*
X202439446Y-85145291D01*
X202287165Y-85115000D01*
X202112835Y-85115000D01*
X201941855Y-85149010D01*
X201780795Y-85215723D01*
X201635845Y-85312576D01*
X201512576Y-85435845D01*
X201415723Y-85580795D01*
X201349010Y-85741855D01*
X201315000Y-85912835D01*
X197071715Y-85912835D01*
X197134277Y-85819205D01*
X197169156Y-85735000D01*
X197287165Y-85735000D01*
X197458145Y-85700990D01*
X197619205Y-85634277D01*
X197764155Y-85537424D01*
X197887424Y-85414155D01*
X197984277Y-85269205D01*
X198050990Y-85108145D01*
X198085000Y-84937165D01*
X198085000Y-84762835D01*
X198050990Y-84591855D01*
X197984277Y-84430795D01*
X197887424Y-84285845D01*
X197764155Y-84162576D01*
X197619205Y-84065723D01*
X197458145Y-83999010D01*
X197287165Y-83965000D01*
X197112835Y-83965000D01*
X196941855Y-83999010D01*
X196780795Y-84065723D01*
X196635845Y-84162576D01*
X196512576Y-84285845D01*
X196415723Y-84430795D01*
X196380844Y-84515000D01*
X196262835Y-84515000D01*
X196091855Y-84549010D01*
X195930795Y-84615723D01*
X195785845Y-84712576D01*
X195767451Y-84730970D01*
X195687165Y-84715000D01*
X195512835Y-84715000D01*
X195341855Y-84749010D01*
X195180795Y-84815723D01*
X195035845Y-84912576D01*
X194912576Y-85035845D01*
X194815723Y-85180795D01*
X194749010Y-85341855D01*
X194715000Y-85512835D01*
X184430125Y-85512835D01*
X184404866Y-85487576D01*
X184259916Y-85390723D01*
X184098856Y-85324010D01*
X183927876Y-85290000D01*
X183753546Y-85290000D01*
X183582566Y-85324010D01*
X183421506Y-85390723D01*
X183276556Y-85487576D01*
X183153287Y-85610845D01*
X183056434Y-85755795D01*
X182989721Y-85916855D01*
X182955711Y-86087835D01*
X181864711Y-86087835D01*
X181794203Y-86040723D01*
X181633143Y-85974010D01*
X181605292Y-85968470D01*
X181650990Y-85858145D01*
X181669882Y-85763170D01*
X181781077Y-85717112D01*
X181926027Y-85620259D01*
X182049296Y-85496990D01*
X182146149Y-85352040D01*
X182212862Y-85190980D01*
X182246872Y-85020000D01*
X182246872Y-84845670D01*
X182242554Y-84823960D01*
X182339276Y-84679206D01*
X182405989Y-84518146D01*
X182439999Y-84347166D01*
X182439999Y-84172836D01*
X182405989Y-84001856D01*
X182339276Y-83840796D01*
X182242423Y-83695846D01*
X182119154Y-83572577D01*
X181974204Y-83475724D01*
X181813144Y-83409011D01*
X181642164Y-83375001D01*
X181467834Y-83375001D01*
X181296854Y-83409011D01*
X181135794Y-83475724D01*
X180990844Y-83572577D01*
X180867575Y-83695846D01*
X180770722Y-83840796D01*
X180704009Y-84001856D01*
X180669999Y-84172836D01*
X180669999Y-84347166D01*
X180674317Y-84368876D01*
X180577595Y-84513630D01*
X180510882Y-84674690D01*
X180491990Y-84769665D01*
X180380795Y-84815723D01*
X180235845Y-84912576D01*
X180112576Y-85035845D01*
X180091023Y-85068101D01*
X179935635Y-85099010D01*
X179774575Y-85165723D01*
X179629625Y-85262576D01*
X179506356Y-85385845D01*
X179409503Y-85530795D01*
X179342790Y-85691855D01*
X179308780Y-85862835D01*
X174535000Y-85862835D01*
X174535000Y-85713740D01*
X174477932Y-85426842D01*
X174365990Y-85156589D01*
X174203475Y-84913368D01*
X173996632Y-84706525D01*
X173822240Y-84590000D01*
X173996632Y-84473475D01*
X174057272Y-84412835D01*
X174415000Y-84412835D01*
X174415000Y-84587165D01*
X174449010Y-84758145D01*
X174515723Y-84919205D01*
X174612576Y-85064155D01*
X174735845Y-85187424D01*
X174880795Y-85284277D01*
X175041855Y-85350990D01*
X175212835Y-85385000D01*
X175387165Y-85385000D01*
X175558145Y-85350990D01*
X175719205Y-85284277D01*
X175864155Y-85187424D01*
X175987424Y-85064155D01*
X176084277Y-84919205D01*
X176150990Y-84758145D01*
X176185000Y-84587165D01*
X176185000Y-84412835D01*
X176150990Y-84241855D01*
X176084277Y-84080795D01*
X175987424Y-83935845D01*
X175864155Y-83812576D01*
X175719205Y-83715723D01*
X175558145Y-83649010D01*
X175387165Y-83615000D01*
X175212835Y-83615000D01*
X175041855Y-83649010D01*
X174880795Y-83715723D01*
X174735845Y-83812576D01*
X174612576Y-83935845D01*
X174515723Y-84080795D01*
X174449010Y-84241855D01*
X174415000Y-84412835D01*
X174057272Y-84412835D01*
X174203475Y-84266632D01*
X174365990Y-84023411D01*
X174477932Y-83753158D01*
X174534377Y-83469394D01*
X174612835Y-83485000D01*
X174787165Y-83485000D01*
X174958145Y-83450990D01*
X175119205Y-83384277D01*
X175264155Y-83287424D01*
X175387424Y-83164155D01*
X175484277Y-83019205D01*
X175550990Y-82858145D01*
X175585000Y-82687165D01*
X175585000Y-82512835D01*
X175550990Y-82341855D01*
X175538970Y-82312835D01*
X177015000Y-82312835D01*
X177015000Y-82487165D01*
X177049010Y-82658145D01*
X177115723Y-82819205D01*
X177212576Y-82964155D01*
X177335845Y-83087424D01*
X177480795Y-83184277D01*
X177641855Y-83250990D01*
X177812835Y-83285000D01*
X177987165Y-83285000D01*
X178158145Y-83250990D01*
X178319205Y-83184277D01*
X178464155Y-83087424D01*
X178587424Y-82964155D01*
X178649506Y-82871242D01*
X182662115Y-82871242D01*
X182662115Y-83045572D01*
X182696125Y-83216552D01*
X182762838Y-83377612D01*
X182798458Y-83430921D01*
X182754673Y-83536628D01*
X182720663Y-83707608D01*
X182720663Y-83881938D01*
X182754673Y-84052918D01*
X182821386Y-84213978D01*
X182918239Y-84358928D01*
X183041508Y-84482197D01*
X183186458Y-84579050D01*
X183347518Y-84645763D01*
X183518498Y-84679773D01*
X183692828Y-84679773D01*
X183863808Y-84645763D01*
X184024868Y-84579050D01*
X184169818Y-84482197D01*
X184293087Y-84358928D01*
X184389940Y-84213978D01*
X184456653Y-84052918D01*
X184490663Y-83881938D01*
X184490663Y-83707608D01*
X184456653Y-83536628D01*
X184389940Y-83375568D01*
X184354320Y-83322259D01*
X184398105Y-83216552D01*
X184432115Y-83045572D01*
X184432115Y-82871242D01*
X184398105Y-82700262D01*
X184331392Y-82539202D01*
X184234539Y-82394252D01*
X184136596Y-82296309D01*
X184212192Y-82281272D01*
X184370381Y-82215748D01*
X184946067Y-82215748D01*
X184946067Y-82390078D01*
X184980077Y-82561058D01*
X185046790Y-82722118D01*
X185143643Y-82867068D01*
X185266912Y-82990337D01*
X185411862Y-83087190D01*
X185572922Y-83153903D01*
X185743902Y-83187913D01*
X185918232Y-83187913D01*
X186089212Y-83153903D01*
X186194744Y-83110190D01*
X186230795Y-83134279D01*
X186338831Y-83179029D01*
X186315000Y-83298833D01*
X186315000Y-83473163D01*
X186349010Y-83644143D01*
X186415723Y-83805203D01*
X186512576Y-83950153D01*
X186635845Y-84073422D01*
X186780795Y-84170275D01*
X186941855Y-84236988D01*
X187112835Y-84270998D01*
X187287165Y-84270998D01*
X187324811Y-84263510D01*
X187315000Y-84312835D01*
X187315000Y-84487165D01*
X187349010Y-84658145D01*
X187415723Y-84819205D01*
X187512576Y-84964155D01*
X187635845Y-85087424D01*
X187780795Y-85184277D01*
X187941855Y-85250990D01*
X188112835Y-85285000D01*
X188287165Y-85285000D01*
X188458145Y-85250990D01*
X188619205Y-85184277D01*
X188764155Y-85087424D01*
X188887424Y-84964155D01*
X188984277Y-84819205D01*
X189050990Y-84658145D01*
X189085000Y-84487165D01*
X189085000Y-84312835D01*
X189050990Y-84141855D01*
X188984277Y-83980795D01*
X188938868Y-83912835D01*
X191315000Y-83912835D01*
X191315000Y-84087165D01*
X191349010Y-84258145D01*
X191415723Y-84419205D01*
X191512576Y-84564155D01*
X191635845Y-84687424D01*
X191780795Y-84784277D01*
X191941855Y-84850990D01*
X192112835Y-84885000D01*
X192287165Y-84885000D01*
X192458145Y-84850990D01*
X192619205Y-84784277D01*
X192764155Y-84687424D01*
X192887424Y-84564155D01*
X192984277Y-84419205D01*
X193050990Y-84258145D01*
X193085000Y-84087165D01*
X193085000Y-83912835D01*
X193050990Y-83741855D01*
X193024374Y-83677599D01*
X193158145Y-83650990D01*
X193319205Y-83584277D01*
X193464155Y-83487424D01*
X193538744Y-83412835D01*
X193915000Y-83412835D01*
X193915000Y-83587165D01*
X193949010Y-83758145D01*
X194015723Y-83919205D01*
X194112576Y-84064155D01*
X194235845Y-84187424D01*
X194380795Y-84284277D01*
X194541855Y-84350990D01*
X194712835Y-84385000D01*
X194887165Y-84385000D01*
X195058145Y-84350990D01*
X195219205Y-84284277D01*
X195364155Y-84187424D01*
X195487424Y-84064155D01*
X195584277Y-83919205D01*
X195650990Y-83758145D01*
X195685000Y-83587165D01*
X195685000Y-83412835D01*
X195650990Y-83241855D01*
X195584277Y-83080795D01*
X195487424Y-82935845D01*
X195364155Y-82812576D01*
X195219205Y-82715723D01*
X195212233Y-82712835D01*
X195915000Y-82712835D01*
X195915000Y-82887165D01*
X195949010Y-83058145D01*
X196015723Y-83219205D01*
X196112576Y-83364155D01*
X196235845Y-83487424D01*
X196380795Y-83584277D01*
X196541855Y-83650990D01*
X196712835Y-83685000D01*
X196887165Y-83685000D01*
X197058145Y-83650990D01*
X197219205Y-83584277D01*
X197364155Y-83487424D01*
X197487424Y-83364155D01*
X197521715Y-83312835D01*
X199415000Y-83312835D01*
X199415000Y-83487165D01*
X199449010Y-83658145D01*
X199515723Y-83819205D01*
X199612576Y-83964155D01*
X199735845Y-84087424D01*
X199880795Y-84184277D01*
X200041855Y-84250990D01*
X200212835Y-84285000D01*
X200387165Y-84285000D01*
X200558145Y-84250990D01*
X200719205Y-84184277D01*
X200864155Y-84087424D01*
X200987424Y-83964155D01*
X201084277Y-83819205D01*
X201150990Y-83658145D01*
X201176318Y-83530810D01*
X203001036Y-83530810D01*
X203005216Y-83567711D01*
X203093496Y-83778609D01*
X203221224Y-83968232D01*
X203383491Y-84129294D01*
X203574062Y-84255604D01*
X203785613Y-84342308D01*
X204010014Y-84386075D01*
X204193000Y-84230236D01*
X204193000Y-83352000D01*
X204447000Y-83352000D01*
X204447000Y-84230236D01*
X204629986Y-84386075D01*
X204854387Y-84342308D01*
X204949988Y-84303126D01*
X204935845Y-84312576D01*
X204812576Y-84435845D01*
X204715723Y-84580795D01*
X204649010Y-84741855D01*
X204615000Y-84912835D01*
X204615000Y-85087165D01*
X204649010Y-85258145D01*
X204715723Y-85419205D01*
X204812576Y-85564155D01*
X204931488Y-85683067D01*
X204838986Y-85821506D01*
X204772273Y-85982566D01*
X204738263Y-86153546D01*
X204738263Y-86327876D01*
X204772273Y-86498856D01*
X204838986Y-86659916D01*
X204935839Y-86804866D01*
X205059108Y-86928135D01*
X205204058Y-87024988D01*
X205365118Y-87091701D01*
X205536098Y-87125711D01*
X205710428Y-87125711D01*
X205881408Y-87091701D01*
X206042468Y-87024988D01*
X206187418Y-86928135D01*
X206310687Y-86804866D01*
X206407540Y-86659916D01*
X206474253Y-86498856D01*
X206508263Y-86327876D01*
X206508263Y-86153546D01*
X206474253Y-85982566D01*
X206407540Y-85821506D01*
X206310687Y-85676556D01*
X206191775Y-85557644D01*
X206284277Y-85419205D01*
X206350990Y-85258145D01*
X206385000Y-85087165D01*
X206385000Y-84912835D01*
X206350990Y-84741855D01*
X206284277Y-84580795D01*
X206187424Y-84435845D01*
X206064155Y-84312576D01*
X205919205Y-84215723D01*
X205758145Y-84149010D01*
X205587165Y-84115000D01*
X205412835Y-84115000D01*
X205241855Y-84149010D01*
X205201614Y-84165678D01*
X205256509Y-84129294D01*
X205418776Y-83968232D01*
X205546504Y-83778609D01*
X205634784Y-83567711D01*
X205638964Y-83530810D01*
X205513163Y-83352000D01*
X204447000Y-83352000D01*
X204193000Y-83352000D01*
X203126837Y-83352000D01*
X203001036Y-83530810D01*
X201176318Y-83530810D01*
X201185000Y-83487165D01*
X201185000Y-83312835D01*
X201172596Y-83250471D01*
X205856901Y-83250471D01*
X205873327Y-83345994D01*
X205979029Y-83577217D01*
X206127809Y-83783375D01*
X206313950Y-83956547D01*
X206530299Y-84090077D01*
X206768541Y-84178833D01*
X207019520Y-84219405D01*
X207223000Y-84057309D01*
X207223000Y-83052000D01*
X207477000Y-83052000D01*
X207477000Y-84057309D01*
X207680480Y-84219405D01*
X207931459Y-84178833D01*
X208169701Y-84090077D01*
X208386050Y-83956547D01*
X208572191Y-83783375D01*
X208720971Y-83577217D01*
X208826673Y-83345994D01*
X208843099Y-83250471D01*
X208719067Y-83052000D01*
X207477000Y-83052000D01*
X207223000Y-83052000D01*
X205980933Y-83052000D01*
X205856901Y-83250471D01*
X201172596Y-83250471D01*
X201150990Y-83141855D01*
X201127440Y-83085000D01*
X201187165Y-83085000D01*
X201358145Y-83050990D01*
X201519205Y-82984277D01*
X201616614Y-82919190D01*
X203001036Y-82919190D01*
X203126837Y-83098000D01*
X204193000Y-83098000D01*
X204193000Y-82219764D01*
X204447000Y-82219764D01*
X204447000Y-83098000D01*
X205513163Y-83098000D01*
X205638964Y-82919190D01*
X205634784Y-82882289D01*
X205546504Y-82671391D01*
X205498099Y-82599529D01*
X205856901Y-82599529D01*
X205980933Y-82798000D01*
X207223000Y-82798000D01*
X207223000Y-81792691D01*
X207477000Y-81792691D01*
X207477000Y-82798000D01*
X208719067Y-82798000D01*
X208843099Y-82599529D01*
X208826673Y-82504006D01*
X208720971Y-82272783D01*
X208572191Y-82066625D01*
X208386050Y-81893453D01*
X208169701Y-81759923D01*
X207931459Y-81671167D01*
X207680480Y-81630595D01*
X207477000Y-81792691D01*
X207223000Y-81792691D01*
X207019520Y-81630595D01*
X206768541Y-81671167D01*
X206530299Y-81759923D01*
X206313950Y-81893453D01*
X206127809Y-82066625D01*
X205979029Y-82272783D01*
X205873327Y-82504006D01*
X205856901Y-82599529D01*
X205498099Y-82599529D01*
X205418776Y-82481768D01*
X205256509Y-82320706D01*
X205065938Y-82194396D01*
X204854387Y-82107692D01*
X204629986Y-82063925D01*
X204447000Y-82219764D01*
X204193000Y-82219764D01*
X204010014Y-82063925D01*
X203785613Y-82107692D01*
X203574062Y-82194396D01*
X203383491Y-82320706D01*
X203221224Y-82481768D01*
X203093496Y-82671391D01*
X203005216Y-82882289D01*
X203001036Y-82919190D01*
X201616614Y-82919190D01*
X201664155Y-82887424D01*
X201787424Y-82764155D01*
X201884277Y-82619205D01*
X201950990Y-82458145D01*
X201985000Y-82287165D01*
X201985000Y-82112835D01*
X201950990Y-81941855D01*
X201884277Y-81780795D01*
X201787424Y-81635845D01*
X201664155Y-81512576D01*
X201519205Y-81415723D01*
X201358145Y-81349010D01*
X201187165Y-81315000D01*
X201012835Y-81315000D01*
X200841855Y-81349010D01*
X200680795Y-81415723D01*
X200535845Y-81512576D01*
X200412576Y-81635845D01*
X200315723Y-81780795D01*
X200249010Y-81941855D01*
X200215000Y-82112835D01*
X200215000Y-82287165D01*
X200249010Y-82458145D01*
X200272560Y-82515000D01*
X200212835Y-82515000D01*
X200041855Y-82549010D01*
X199880795Y-82615723D01*
X199735845Y-82712576D01*
X199612576Y-82835845D01*
X199515723Y-82980795D01*
X199449010Y-83141855D01*
X199415000Y-83312835D01*
X197521715Y-83312835D01*
X197584277Y-83219205D01*
X197650990Y-83058145D01*
X197685000Y-82887165D01*
X197685000Y-82712835D01*
X197650990Y-82541855D01*
X197584277Y-82380795D01*
X197487424Y-82235845D01*
X197364155Y-82112576D01*
X197219205Y-82015723D01*
X197058145Y-81949010D01*
X196887165Y-81915000D01*
X196712835Y-81915000D01*
X196541855Y-81949010D01*
X196380795Y-82015723D01*
X196235845Y-82112576D01*
X196112576Y-82235845D01*
X196015723Y-82380795D01*
X195949010Y-82541855D01*
X195915000Y-82712835D01*
X195212233Y-82712835D01*
X195058145Y-82649010D01*
X194887165Y-82615000D01*
X194712835Y-82615000D01*
X194541855Y-82649010D01*
X194380795Y-82715723D01*
X194235845Y-82812576D01*
X194112576Y-82935845D01*
X194015723Y-83080795D01*
X193949010Y-83241855D01*
X193915000Y-83412835D01*
X193538744Y-83412835D01*
X193587424Y-83364155D01*
X193684277Y-83219205D01*
X193750990Y-83058145D01*
X193785000Y-82887165D01*
X193785000Y-82712835D01*
X193750990Y-82541855D01*
X193684277Y-82380795D01*
X193587424Y-82235845D01*
X193464155Y-82112576D01*
X193319205Y-82015723D01*
X193158145Y-81949010D01*
X192987165Y-81915000D01*
X192812835Y-81915000D01*
X192641855Y-81949010D01*
X192480795Y-82015723D01*
X192335845Y-82112576D01*
X192212576Y-82235845D01*
X192115723Y-82380795D01*
X192049010Y-82541855D01*
X192015000Y-82712835D01*
X192015000Y-82887165D01*
X192049010Y-83058145D01*
X192075626Y-83122401D01*
X191941855Y-83149010D01*
X191780795Y-83215723D01*
X191635845Y-83312576D01*
X191512576Y-83435845D01*
X191415723Y-83580795D01*
X191349010Y-83741855D01*
X191315000Y-83912835D01*
X188938868Y-83912835D01*
X188887424Y-83835845D01*
X188764155Y-83712576D01*
X188619205Y-83615723D01*
X188458145Y-83549010D01*
X188287165Y-83515000D01*
X188112835Y-83515000D01*
X188075189Y-83522488D01*
X188085000Y-83473163D01*
X188085000Y-83298833D01*
X188082848Y-83288014D01*
X188231020Y-83317487D01*
X188405350Y-83317487D01*
X188576330Y-83283477D01*
X188737390Y-83216764D01*
X188882340Y-83119911D01*
X189005609Y-82996642D01*
X189102462Y-82851692D01*
X189105446Y-82844488D01*
X189241855Y-82900990D01*
X189412835Y-82935000D01*
X189587165Y-82935000D01*
X189758145Y-82900990D01*
X189919205Y-82834277D01*
X190064155Y-82737424D01*
X190187424Y-82614155D01*
X190284277Y-82469205D01*
X190350990Y-82308145D01*
X190385000Y-82137165D01*
X190385000Y-81962835D01*
X190350990Y-81791855D01*
X190284277Y-81630795D01*
X190187424Y-81485845D01*
X190064155Y-81362576D01*
X189919205Y-81265723D01*
X189758145Y-81199010D01*
X189687712Y-81185000D01*
X189787165Y-81185000D01*
X189958145Y-81150990D01*
X190119205Y-81084277D01*
X190264155Y-80987424D01*
X190387424Y-80864155D01*
X190484277Y-80719205D01*
X190550990Y-80558145D01*
X190585000Y-80387165D01*
X190585000Y-80257845D01*
X192015000Y-80257845D01*
X192015000Y-80432175D01*
X192049010Y-80603155D01*
X192115723Y-80764215D01*
X192212576Y-80909165D01*
X192335845Y-81032434D01*
X192480795Y-81129287D01*
X192641855Y-81196000D01*
X192812835Y-81230010D01*
X192987165Y-81230010D01*
X193158145Y-81196000D01*
X193319205Y-81129287D01*
X193464155Y-81032434D01*
X193587424Y-80909165D01*
X193655124Y-80807845D01*
X193919990Y-80807845D01*
X193919990Y-80982175D01*
X193954000Y-81153155D01*
X194020713Y-81314215D01*
X194117566Y-81459165D01*
X194240835Y-81582434D01*
X194385785Y-81679287D01*
X194546845Y-81746000D01*
X194717825Y-81780010D01*
X194892155Y-81780010D01*
X195063135Y-81746000D01*
X195224195Y-81679287D01*
X195369145Y-81582434D01*
X195492414Y-81459165D01*
X195589267Y-81314215D01*
X195655980Y-81153155D01*
X195689990Y-80982175D01*
X195689990Y-80807845D01*
X195671092Y-80712835D01*
X198965010Y-80712835D01*
X198965010Y-80887165D01*
X198999020Y-81058145D01*
X199065733Y-81219205D01*
X199162586Y-81364155D01*
X199285855Y-81487424D01*
X199430805Y-81584277D01*
X199591865Y-81650990D01*
X199762845Y-81685000D01*
X199937175Y-81685000D01*
X200108155Y-81650990D01*
X200269215Y-81584277D01*
X200414165Y-81487424D01*
X200537434Y-81364155D01*
X200634287Y-81219205D01*
X200701000Y-81058145D01*
X200735010Y-80887165D01*
X200735010Y-80712835D01*
X200701000Y-80541855D01*
X200634287Y-80380795D01*
X200537434Y-80235845D01*
X200480202Y-80178613D01*
X200525246Y-80148515D01*
X200648515Y-80025246D01*
X200745368Y-79880296D01*
X200773311Y-79812835D01*
X202715000Y-79812835D01*
X202715000Y-79987165D01*
X202749010Y-80158145D01*
X202815723Y-80319205D01*
X202912576Y-80464155D01*
X203035845Y-80587424D01*
X203180795Y-80684277D01*
X203341855Y-80750990D01*
X203512835Y-80785000D01*
X203687165Y-80785000D01*
X203858145Y-80750990D01*
X204019205Y-80684277D01*
X204164155Y-80587424D01*
X204287424Y-80464155D01*
X204384277Y-80319205D01*
X204450990Y-80158145D01*
X204460454Y-80110565D01*
X206014040Y-80110565D01*
X206081020Y-80350656D01*
X206330048Y-80467756D01*
X206597135Y-80534023D01*
X206872017Y-80546910D01*
X207144133Y-80505922D01*
X207403023Y-80412636D01*
X207518980Y-80350656D01*
X207585960Y-80110565D01*
X206800000Y-79324605D01*
X206014040Y-80110565D01*
X204460454Y-80110565D01*
X204485000Y-79987165D01*
X204485000Y-79812835D01*
X204450990Y-79641855D01*
X204384277Y-79480795D01*
X204287424Y-79335845D01*
X204168596Y-79217017D01*
X205398090Y-79217017D01*
X205439078Y-79489133D01*
X205532364Y-79748023D01*
X205594344Y-79863980D01*
X205834435Y-79930960D01*
X206620395Y-79145000D01*
X206979605Y-79145000D01*
X207765565Y-79930960D01*
X208005656Y-79863980D01*
X208122756Y-79614952D01*
X208189023Y-79347865D01*
X208201910Y-79072983D01*
X208160922Y-78800867D01*
X208067636Y-78541977D01*
X208005656Y-78426020D01*
X207765565Y-78359040D01*
X206979605Y-79145000D01*
X206620395Y-79145000D01*
X205834435Y-78359040D01*
X205594344Y-78426020D01*
X205477244Y-78675048D01*
X205410977Y-78942135D01*
X205398090Y-79217017D01*
X204168596Y-79217017D01*
X204164155Y-79212576D01*
X204019205Y-79115723D01*
X203858145Y-79049010D01*
X203687165Y-79015000D01*
X203512835Y-79015000D01*
X203341855Y-79049010D01*
X203180795Y-79115723D01*
X203035845Y-79212576D01*
X202912576Y-79335845D01*
X202815723Y-79480795D01*
X202749010Y-79641855D01*
X202715000Y-79812835D01*
X200773311Y-79812835D01*
X200812081Y-79719236D01*
X200846091Y-79548256D01*
X200846091Y-79373926D01*
X200812081Y-79202946D01*
X200803912Y-79183225D01*
X200812835Y-79185000D01*
X200987165Y-79185000D01*
X201158145Y-79150990D01*
X201319205Y-79084277D01*
X201464155Y-78987424D01*
X201587424Y-78864155D01*
X201684277Y-78719205D01*
X201750990Y-78558145D01*
X201785000Y-78387165D01*
X201785000Y-78212835D01*
X201750990Y-78041855D01*
X201684277Y-77880795D01*
X201587424Y-77735845D01*
X201464155Y-77612576D01*
X201319205Y-77515723D01*
X201158145Y-77449010D01*
X200987165Y-77415000D01*
X200812835Y-77415000D01*
X200641855Y-77449010D01*
X200480795Y-77515723D01*
X200335845Y-77612576D01*
X200212576Y-77735845D01*
X200115723Y-77880795D01*
X200049010Y-78041855D01*
X200015000Y-78212835D01*
X200015000Y-78387165D01*
X200049010Y-78558145D01*
X200057179Y-78577866D01*
X200048256Y-78576091D01*
X199873926Y-78576091D01*
X199702946Y-78610101D01*
X199541886Y-78676814D01*
X199396936Y-78773667D01*
X199273667Y-78896936D01*
X199176814Y-79041886D01*
X199110101Y-79202946D01*
X199076091Y-79373926D01*
X199076091Y-79548256D01*
X199110101Y-79719236D01*
X199176814Y-79880296D01*
X199273667Y-80025246D01*
X199330899Y-80082478D01*
X199285855Y-80112576D01*
X199162586Y-80235845D01*
X199065733Y-80380795D01*
X198999020Y-80541855D01*
X198965010Y-80712835D01*
X195671092Y-80712835D01*
X195655980Y-80636865D01*
X195589267Y-80475805D01*
X195492414Y-80330855D01*
X195369145Y-80207586D01*
X195224195Y-80110733D01*
X195063135Y-80044020D01*
X194892155Y-80010010D01*
X194717825Y-80010010D01*
X194546845Y-80044020D01*
X194385785Y-80110733D01*
X194240835Y-80207586D01*
X194117566Y-80330855D01*
X194020713Y-80475805D01*
X193954000Y-80636865D01*
X193919990Y-80807845D01*
X193655124Y-80807845D01*
X193684277Y-80764215D01*
X193750990Y-80603155D01*
X193785000Y-80432175D01*
X193785000Y-80257845D01*
X193750990Y-80086865D01*
X193684277Y-79925805D01*
X193587424Y-79780855D01*
X193464155Y-79657586D01*
X193319205Y-79560733D01*
X193158145Y-79494020D01*
X192987165Y-79460010D01*
X192812835Y-79460010D01*
X192641855Y-79494020D01*
X192480795Y-79560733D01*
X192335845Y-79657586D01*
X192212576Y-79780855D01*
X192115723Y-79925805D01*
X192049010Y-80086865D01*
X192015000Y-80257845D01*
X190585000Y-80257845D01*
X190585000Y-80212835D01*
X190550990Y-80041855D01*
X190484277Y-79880795D01*
X190387424Y-79735845D01*
X190264155Y-79612576D01*
X190119205Y-79515723D01*
X189958145Y-79449010D01*
X189787165Y-79415000D01*
X189612835Y-79415000D01*
X189441855Y-79449010D01*
X189280795Y-79515723D01*
X189135845Y-79612576D01*
X189012576Y-79735845D01*
X188915723Y-79880795D01*
X188849010Y-80041855D01*
X188815000Y-80212835D01*
X188815000Y-80387165D01*
X188849010Y-80558145D01*
X188915723Y-80719205D01*
X189012576Y-80864155D01*
X189135845Y-80987424D01*
X189280795Y-81084277D01*
X189441855Y-81150990D01*
X189512288Y-81165000D01*
X189412835Y-81165000D01*
X189241855Y-81199010D01*
X189080795Y-81265723D01*
X189033518Y-81297313D01*
X189000990Y-81133783D01*
X188934277Y-80972723D01*
X188837424Y-80827773D01*
X188714155Y-80704504D01*
X188569205Y-80607651D01*
X188408145Y-80540938D01*
X188237165Y-80506928D01*
X188062835Y-80506928D01*
X187891855Y-80540938D01*
X187730795Y-80607651D01*
X187585845Y-80704504D01*
X187462576Y-80827773D01*
X187365723Y-80972723D01*
X187299010Y-81133783D01*
X187269921Y-81280023D01*
X187185845Y-81336201D01*
X187062576Y-81459470D01*
X187008406Y-81540541D01*
X186908145Y-81499012D01*
X186737165Y-81465002D01*
X186562835Y-81465002D01*
X186391855Y-81499012D01*
X186286323Y-81542725D01*
X186250272Y-81518636D01*
X186089212Y-81451923D01*
X185918232Y-81417913D01*
X185743902Y-81417913D01*
X185572922Y-81451923D01*
X185411862Y-81518636D01*
X185266912Y-81615489D01*
X185143643Y-81738758D01*
X185046790Y-81883708D01*
X184980077Y-82044768D01*
X184946067Y-82215748D01*
X184370381Y-82215748D01*
X184373252Y-82214559D01*
X184518202Y-82117706D01*
X184641471Y-81994437D01*
X184738324Y-81849487D01*
X184805037Y-81688427D01*
X184839047Y-81517447D01*
X184839047Y-81343117D01*
X184805037Y-81172137D01*
X184738324Y-81011077D01*
X184641471Y-80866127D01*
X184518202Y-80742858D01*
X184373252Y-80646005D01*
X184212192Y-80579292D01*
X184041212Y-80545282D01*
X183866882Y-80545282D01*
X183695902Y-80579292D01*
X183534842Y-80646005D01*
X183389892Y-80742858D01*
X183266623Y-80866127D01*
X183169770Y-81011077D01*
X183103057Y-81172137D01*
X183069047Y-81343117D01*
X183069047Y-81517447D01*
X183103057Y-81688427D01*
X183169770Y-81849487D01*
X183266623Y-81994437D01*
X183364566Y-82092380D01*
X183288970Y-82107417D01*
X183127910Y-82174130D01*
X182982960Y-82270983D01*
X182859691Y-82394252D01*
X182762838Y-82539202D01*
X182696125Y-82700262D01*
X182662115Y-82871242D01*
X178649506Y-82871242D01*
X178684277Y-82819205D01*
X178750990Y-82658145D01*
X178785000Y-82487165D01*
X178785000Y-82312835D01*
X178750990Y-82141855D01*
X178684277Y-81980795D01*
X178587424Y-81835845D01*
X178464155Y-81712576D01*
X178319205Y-81615723D01*
X178158145Y-81549010D01*
X177987165Y-81515000D01*
X177812835Y-81515000D01*
X177641855Y-81549010D01*
X177480795Y-81615723D01*
X177335845Y-81712576D01*
X177212576Y-81835845D01*
X177115723Y-81980795D01*
X177049010Y-82141855D01*
X177015000Y-82312835D01*
X175538970Y-82312835D01*
X175484277Y-82180795D01*
X175387424Y-82035845D01*
X175264155Y-81912576D01*
X175119205Y-81815723D01*
X175060268Y-81791311D01*
X175087424Y-81764155D01*
X175184277Y-81619205D01*
X175250990Y-81458145D01*
X175285000Y-81287165D01*
X175285000Y-81112835D01*
X175250990Y-80941855D01*
X175184277Y-80780795D01*
X175087424Y-80635845D01*
X174964155Y-80512576D01*
X174819205Y-80415723D01*
X174658145Y-80349010D01*
X174487165Y-80315000D01*
X174464743Y-80315000D01*
X174365990Y-80076589D01*
X174291592Y-79965244D01*
X174426329Y-79909434D01*
X174571279Y-79812581D01*
X174694548Y-79689312D01*
X174791401Y-79544362D01*
X174858114Y-79383302D01*
X174892124Y-79212322D01*
X174892124Y-79037992D01*
X174858114Y-78867012D01*
X174835674Y-78812835D01*
X176915000Y-78812835D01*
X176915000Y-78987165D01*
X176949010Y-79158145D01*
X177015723Y-79319205D01*
X177112576Y-79464155D01*
X177235845Y-79587424D01*
X177380795Y-79684277D01*
X177541855Y-79750990D01*
X177628847Y-79768294D01*
X177754746Y-79894192D01*
X177777762Y-79922238D01*
X177889680Y-80014087D01*
X178017367Y-80082337D01*
X178117052Y-80112576D01*
X178155915Y-80124365D01*
X178300000Y-80138556D01*
X178336105Y-80135000D01*
X179650525Y-80135000D01*
X179702949Y-80187424D01*
X179727490Y-80203822D01*
X179727490Y-80287165D01*
X179761500Y-80458145D01*
X179828213Y-80619205D01*
X179925066Y-80764155D01*
X180048335Y-80887424D01*
X180193285Y-80984277D01*
X180354345Y-81050990D01*
X180525325Y-81085000D01*
X180699655Y-81085000D01*
X180870635Y-81050990D01*
X181031695Y-80984277D01*
X181176645Y-80887424D01*
X181299914Y-80764155D01*
X181396767Y-80619205D01*
X181463480Y-80458145D01*
X181497490Y-80287165D01*
X181497490Y-80112835D01*
X181463480Y-79941855D01*
X181396767Y-79780795D01*
X181299914Y-79635845D01*
X181176645Y-79512576D01*
X181152104Y-79496178D01*
X181152104Y-79412835D01*
X181118094Y-79241855D01*
X181051381Y-79080795D01*
X180954528Y-78935845D01*
X180831259Y-78812576D01*
X180759114Y-78764370D01*
X181783011Y-78764370D01*
X181783011Y-78938700D01*
X181817021Y-79109680D01*
X181883734Y-79270740D01*
X181980587Y-79415690D01*
X182103856Y-79538959D01*
X182248806Y-79635812D01*
X182409866Y-79702525D01*
X182411000Y-79702751D01*
X182418938Y-79721915D01*
X182515791Y-79866865D01*
X182639060Y-79990134D01*
X182784010Y-80086987D01*
X182945070Y-80153700D01*
X183116050Y-80187710D01*
X183290380Y-80187710D01*
X183461360Y-80153700D01*
X183622420Y-80086987D01*
X183767370Y-79990134D01*
X183890639Y-79866865D01*
X183924464Y-79816243D01*
X184050669Y-79791139D01*
X184076520Y-79808412D01*
X184237580Y-79875125D01*
X184408560Y-79909135D01*
X184582890Y-79909135D01*
X184753870Y-79875125D01*
X184914930Y-79808412D01*
X184939376Y-79792078D01*
X185050269Y-79814136D01*
X185093908Y-79879445D01*
X185217177Y-80002714D01*
X185362127Y-80099567D01*
X185523187Y-80166280D01*
X185694167Y-80200290D01*
X185868497Y-80200290D01*
X186039477Y-80166280D01*
X186200537Y-80099567D01*
X186345487Y-80002714D01*
X186465476Y-79882725D01*
X186476915Y-79885000D01*
X186651245Y-79885000D01*
X186822225Y-79850990D01*
X186983285Y-79784277D01*
X187128235Y-79687424D01*
X187251504Y-79564155D01*
X187348357Y-79419205D01*
X187415070Y-79258145D01*
X187449080Y-79087165D01*
X187449080Y-78966384D01*
X187598762Y-78966384D01*
X187769742Y-78932374D01*
X187930802Y-78865661D01*
X188075752Y-78768808D01*
X188199021Y-78645539D01*
X188295874Y-78500589D01*
X188362587Y-78339529D01*
X188367896Y-78312835D01*
X191315000Y-78312835D01*
X191315000Y-78487165D01*
X191349010Y-78658145D01*
X191415723Y-78819205D01*
X191512576Y-78964155D01*
X191635845Y-79087424D01*
X191780795Y-79184277D01*
X191941855Y-79250990D01*
X192112835Y-79285000D01*
X192287165Y-79285000D01*
X192458145Y-79250990D01*
X192619205Y-79184277D01*
X192764155Y-79087424D01*
X192887424Y-78964155D01*
X192984277Y-78819205D01*
X193050990Y-78658145D01*
X193085000Y-78487165D01*
X193085000Y-78312835D01*
X195915000Y-78312835D01*
X195915000Y-78487165D01*
X195949010Y-78658145D01*
X196015723Y-78819205D01*
X196112576Y-78964155D01*
X196235845Y-79087424D01*
X196380795Y-79184277D01*
X196541855Y-79250990D01*
X196712835Y-79285000D01*
X196887165Y-79285000D01*
X197058145Y-79250990D01*
X197219205Y-79184277D01*
X197364155Y-79087424D01*
X197487424Y-78964155D01*
X197584277Y-78819205D01*
X197650990Y-78658145D01*
X197685000Y-78487165D01*
X197685000Y-78312835D01*
X197650990Y-78141855D01*
X197584277Y-77980795D01*
X197487424Y-77835845D01*
X197364155Y-77712576D01*
X197219205Y-77615723D01*
X197058145Y-77549010D01*
X196887165Y-77515000D01*
X196712835Y-77515000D01*
X196541855Y-77549010D01*
X196380795Y-77615723D01*
X196235845Y-77712576D01*
X196112576Y-77835845D01*
X196015723Y-77980795D01*
X195949010Y-78141855D01*
X195915000Y-78312835D01*
X193085000Y-78312835D01*
X193050990Y-78141855D01*
X192984277Y-77980795D01*
X192887424Y-77835845D01*
X192764155Y-77712576D01*
X192619205Y-77615723D01*
X192458145Y-77549010D01*
X192287165Y-77515000D01*
X192112835Y-77515000D01*
X191941855Y-77549010D01*
X191780795Y-77615723D01*
X191635845Y-77712576D01*
X191512576Y-77835845D01*
X191415723Y-77980795D01*
X191349010Y-78141855D01*
X191315000Y-78312835D01*
X188367896Y-78312835D01*
X188396597Y-78168549D01*
X188396597Y-77994219D01*
X188362587Y-77823239D01*
X188295874Y-77662179D01*
X188199021Y-77517229D01*
X188168110Y-77486318D01*
X188177753Y-77437842D01*
X188177753Y-77263512D01*
X188143743Y-77092532D01*
X188081626Y-76942568D01*
X188126124Y-76912835D01*
X193215000Y-76912835D01*
X193215000Y-77087165D01*
X193249010Y-77258145D01*
X193315723Y-77419205D01*
X193412576Y-77564155D01*
X193535845Y-77687424D01*
X193680795Y-77784277D01*
X193841855Y-77850990D01*
X194012835Y-77885000D01*
X194187165Y-77885000D01*
X194358145Y-77850990D01*
X194519205Y-77784277D01*
X194664155Y-77687424D01*
X194787424Y-77564155D01*
X194884277Y-77419205D01*
X194950990Y-77258145D01*
X194985000Y-77087165D01*
X194985000Y-76912835D01*
X194950990Y-76741855D01*
X194884277Y-76580795D01*
X194787424Y-76435845D01*
X194664155Y-76312576D01*
X194519205Y-76215723D01*
X194358145Y-76149010D01*
X194187165Y-76115000D01*
X194012835Y-76115000D01*
X193841855Y-76149010D01*
X193680795Y-76215723D01*
X193535845Y-76312576D01*
X193412576Y-76435845D01*
X193315723Y-76580795D01*
X193249010Y-76741855D01*
X193215000Y-76912835D01*
X188126124Y-76912835D01*
X188164155Y-76887424D01*
X188287424Y-76764155D01*
X188384277Y-76619205D01*
X188450990Y-76458145D01*
X188485000Y-76287165D01*
X188485000Y-76112835D01*
X188450990Y-75941855D01*
X188384277Y-75780795D01*
X188287424Y-75635845D01*
X188164155Y-75512576D01*
X188019205Y-75415723D01*
X187866689Y-75352549D01*
X187964155Y-75287424D01*
X188087424Y-75164155D01*
X188184277Y-75019205D01*
X188250990Y-74858145D01*
X188285000Y-74687165D01*
X188285000Y-74512835D01*
X188250990Y-74341855D01*
X188184277Y-74180795D01*
X188087424Y-74035845D01*
X187964155Y-73912576D01*
X187819205Y-73815723D01*
X187658145Y-73749010D01*
X187548461Y-73727192D01*
X187487424Y-73635845D01*
X187364155Y-73512576D01*
X187219205Y-73415723D01*
X187058145Y-73349010D01*
X186887165Y-73315000D01*
X186712835Y-73315000D01*
X186541855Y-73349010D01*
X186380795Y-73415723D01*
X186279558Y-73483368D01*
X186187165Y-73464990D01*
X186012835Y-73464990D01*
X185841855Y-73499000D01*
X185680795Y-73565713D01*
X185535845Y-73662566D01*
X185412576Y-73785835D01*
X185315723Y-73930785D01*
X185249010Y-74091845D01*
X185215000Y-74262825D01*
X185215000Y-74437155D01*
X185249010Y-74608135D01*
X185315723Y-74769195D01*
X185412576Y-74914145D01*
X185535845Y-75037414D01*
X185680795Y-75134267D01*
X185841855Y-75200980D01*
X186012835Y-75234990D01*
X186187165Y-75234990D01*
X186358145Y-75200980D01*
X186519205Y-75134267D01*
X186620442Y-75066622D01*
X186651539Y-75072808D01*
X186712576Y-75164155D01*
X186835845Y-75287424D01*
X186980795Y-75384277D01*
X187133311Y-75447451D01*
X187035845Y-75512576D01*
X186912576Y-75635845D01*
X186815723Y-75780795D01*
X186749010Y-75941855D01*
X186715000Y-76112835D01*
X186715000Y-76287165D01*
X186749010Y-76458145D01*
X186811127Y-76608109D01*
X186728598Y-76663253D01*
X186605329Y-76786522D01*
X186508476Y-76931472D01*
X186441763Y-77092532D01*
X186407753Y-77263512D01*
X186407753Y-77437842D01*
X186441763Y-77608822D01*
X186508476Y-77769882D01*
X186605329Y-77914832D01*
X186636240Y-77945743D01*
X186626597Y-77994219D01*
X186626597Y-78115000D01*
X186476915Y-78115000D01*
X186305935Y-78149010D01*
X186144875Y-78215723D01*
X185999925Y-78312576D01*
X185901633Y-78410868D01*
X185878040Y-78375559D01*
X185754771Y-78252290D01*
X185609821Y-78155437D01*
X185448761Y-78088724D01*
X185277781Y-78054714D01*
X185103451Y-78054714D01*
X184932471Y-78088724D01*
X184771411Y-78155437D01*
X184746965Y-78171771D01*
X184582890Y-78139135D01*
X184408560Y-78139135D01*
X184246041Y-78171462D01*
X184220190Y-78154189D01*
X184059130Y-78087476D01*
X183888150Y-78053466D01*
X183713820Y-78053466D01*
X183542840Y-78087476D01*
X183381780Y-78154189D01*
X183286145Y-78218090D01*
X183232166Y-78164111D01*
X183087216Y-78067258D01*
X182926156Y-78000545D01*
X182755176Y-77966535D01*
X182580846Y-77966535D01*
X182409866Y-78000545D01*
X182248806Y-78067258D01*
X182103856Y-78164111D01*
X181980587Y-78287380D01*
X181883734Y-78432330D01*
X181817021Y-78593390D01*
X181783011Y-78764370D01*
X180759114Y-78764370D01*
X180686309Y-78715723D01*
X180525249Y-78649010D01*
X180354269Y-78615000D01*
X180179939Y-78615000D01*
X180008959Y-78649010D01*
X179970356Y-78665000D01*
X178655594Y-78665000D01*
X178650990Y-78641855D01*
X178584277Y-78480795D01*
X178487424Y-78335845D01*
X178364155Y-78212576D01*
X178219205Y-78115723D01*
X178058145Y-78049010D01*
X177887165Y-78015000D01*
X177712835Y-78015000D01*
X177541855Y-78049010D01*
X177380795Y-78115723D01*
X177235845Y-78212576D01*
X177112576Y-78335845D01*
X177015723Y-78480795D01*
X176949010Y-78641855D01*
X176915000Y-78812835D01*
X174835674Y-78812835D01*
X174791401Y-78705952D01*
X174694548Y-78561002D01*
X174571279Y-78437733D01*
X174530219Y-78410297D01*
X174535000Y-78386260D01*
X174535000Y-78093740D01*
X174477932Y-77806842D01*
X174365990Y-77536589D01*
X174203475Y-77293368D01*
X173996632Y-77086525D01*
X173822240Y-76970000D01*
X173996632Y-76853475D01*
X174203475Y-76646632D01*
X174228980Y-76608461D01*
X178841556Y-76608461D01*
X178841556Y-76782791D01*
X178875566Y-76953771D01*
X178942279Y-77114831D01*
X179039132Y-77259781D01*
X179162401Y-77383050D01*
X179307351Y-77479903D01*
X179468411Y-77546616D01*
X179639391Y-77580626D01*
X179813721Y-77580626D01*
X179984701Y-77546616D01*
X180145761Y-77479903D01*
X180290711Y-77383050D01*
X180413980Y-77259781D01*
X180510833Y-77114831D01*
X180577546Y-76953771D01*
X180611556Y-76782791D01*
X180611556Y-76608461D01*
X180577546Y-76437481D01*
X180510833Y-76276421D01*
X180413980Y-76131471D01*
X180290711Y-76008202D01*
X180145761Y-75911349D01*
X179984701Y-75844636D01*
X179813721Y-75810626D01*
X179639391Y-75810626D01*
X179468411Y-75844636D01*
X179307351Y-75911349D01*
X179162401Y-76008202D01*
X179039132Y-76131471D01*
X178942279Y-76276421D01*
X178875566Y-76437481D01*
X178841556Y-76608461D01*
X174228980Y-76608461D01*
X174365990Y-76403411D01*
X174477932Y-76133158D01*
X174535000Y-75846260D01*
X174535000Y-75553740D01*
X174477932Y-75266842D01*
X174365990Y-74996589D01*
X174203475Y-74753368D01*
X173996632Y-74546525D01*
X173814466Y-74424805D01*
X173931355Y-74355178D01*
X174147588Y-74160269D01*
X174321641Y-73926920D01*
X174446825Y-73664099D01*
X174491476Y-73516890D01*
X174432876Y-73405850D01*
X174541855Y-73450990D01*
X174712835Y-73485000D01*
X174887165Y-73485000D01*
X175058145Y-73450990D01*
X175219205Y-73384277D01*
X175364155Y-73287424D01*
X175487424Y-73164155D01*
X175584277Y-73019205D01*
X175650990Y-72858145D01*
X175685000Y-72687165D01*
X175685000Y-72512835D01*
X175650990Y-72341855D01*
X175584277Y-72180795D01*
X175487424Y-72035845D01*
X175368859Y-71917280D01*
X175384277Y-71894205D01*
X175450990Y-71733145D01*
X175465539Y-71660000D01*
X176967581Y-71660000D01*
X177000000Y-71663193D01*
X177032419Y-71660000D01*
X177129383Y-71650450D01*
X177253793Y-71612710D01*
X177368450Y-71551425D01*
X177468948Y-71468948D01*
X177551425Y-71368450D01*
X177612710Y-71253793D01*
X177650450Y-71129383D01*
X177663193Y-71000000D01*
X177660000Y-70967581D01*
X177660000Y-70474490D01*
X177712835Y-70485000D01*
X177887165Y-70485000D01*
X178058145Y-70450990D01*
X178219205Y-70384277D01*
X178364155Y-70287424D01*
X178487424Y-70164155D01*
X178584277Y-70019205D01*
X178650990Y-69858145D01*
X178685000Y-69687165D01*
X178685000Y-69660000D01*
X179629618Y-69660000D01*
X179615723Y-69680795D01*
G37*
X179615723Y-69680795D02*
X179549010Y-69841855D01*
X179515000Y-70012835D01*
X179515000Y-70187165D01*
X179549010Y-70358145D01*
X179615723Y-70519205D01*
X179712576Y-70664155D01*
X179835845Y-70787424D01*
X179980795Y-70884277D01*
X180141855Y-70950990D01*
X180312835Y-70985000D01*
X180487165Y-70985000D01*
X180658145Y-70950990D01*
X180819205Y-70884277D01*
X180964155Y-70787424D01*
X181087424Y-70664155D01*
X181184277Y-70519205D01*
X181250990Y-70358145D01*
X181285000Y-70187165D01*
X181285000Y-70012835D01*
X181250990Y-69841855D01*
X181184277Y-69680795D01*
X181170382Y-69660000D01*
X182085193Y-69660000D01*
X182071998Y-69691855D01*
X182037988Y-69862835D01*
X182037988Y-69950612D01*
X181880795Y-70015723D01*
X181735845Y-70112576D01*
X181612576Y-70235845D01*
X181515723Y-70380795D01*
X181449010Y-70541855D01*
X181415000Y-70712835D01*
X181415000Y-70887165D01*
X181449010Y-71058145D01*
X181515723Y-71219205D01*
X181516860Y-71220907D01*
X181487165Y-71215000D01*
X181312835Y-71215000D01*
X181141855Y-71249010D01*
X180980795Y-71315723D01*
X180835845Y-71412576D01*
X180712576Y-71535845D01*
X180615723Y-71680795D01*
X180549010Y-71841855D01*
X180515000Y-72012835D01*
X180515000Y-72187165D01*
X180549010Y-72358145D01*
X180615723Y-72519205D01*
X180712576Y-72664155D01*
X180835845Y-72787424D01*
X180933311Y-72852549D01*
X180780796Y-72915723D01*
X180707048Y-72965000D01*
X179936105Y-72965000D01*
X179900000Y-72961444D01*
X179863895Y-72965000D01*
X179755915Y-72975635D01*
X179626146Y-73015000D01*
X179612835Y-73015000D01*
X179441855Y-73049010D01*
X179280795Y-73115723D01*
X179135845Y-73212576D01*
X179012576Y-73335845D01*
X178915723Y-73480795D01*
X178849010Y-73641855D01*
X178815000Y-73812835D01*
X178815000Y-73987165D01*
X178849010Y-74158145D01*
X178915723Y-74319205D01*
X179012576Y-74464155D01*
X179135845Y-74587424D01*
X179280795Y-74684277D01*
X179441855Y-74750990D01*
X179612835Y-74785000D01*
X179787165Y-74785000D01*
X179958145Y-74750990D01*
X180119205Y-74684277D01*
X180264155Y-74587424D01*
X180387424Y-74464155D01*
X180406905Y-74435000D01*
X180707048Y-74435000D01*
X180780796Y-74484277D01*
X180941856Y-74550990D01*
X181112836Y-74585000D01*
X181287166Y-74585000D01*
X181458146Y-74550990D01*
X181619206Y-74484277D01*
X181764156Y-74387424D01*
X181887425Y-74264155D01*
X181984278Y-74119205D01*
X182050991Y-73958145D01*
X182085001Y-73787165D01*
X182085001Y-73612835D01*
X182050991Y-73441855D01*
X181984278Y-73280795D01*
X181887425Y-73135845D01*
X181764156Y-73012576D01*
X181666690Y-72947451D01*
X181819205Y-72884277D01*
X181964155Y-72787424D01*
X182087424Y-72664155D01*
X182121722Y-72612824D01*
X187415000Y-72612824D01*
X187415000Y-72787154D01*
X187449010Y-72958134D01*
X187515723Y-73119194D01*
X187612576Y-73264144D01*
X187735845Y-73387413D01*
X187880795Y-73484266D01*
X188041855Y-73550979D01*
X188212835Y-73584989D01*
X188387165Y-73584989D01*
X188558145Y-73550979D01*
X188650233Y-73512835D01*
X192015000Y-73512835D01*
X192015000Y-73687165D01*
X192049010Y-73858145D01*
X192115723Y-74019205D01*
X192212576Y-74164155D01*
X192335845Y-74287424D01*
X192480795Y-74384277D01*
X192641855Y-74450990D01*
X192812835Y-74485000D01*
X192987165Y-74485000D01*
X193158145Y-74450990D01*
X193319205Y-74384277D01*
X193454638Y-74293783D01*
X193412576Y-74335845D01*
X193315723Y-74480795D01*
X193249010Y-74641855D01*
X193215000Y-74812835D01*
X193215000Y-74987165D01*
X193249010Y-75158145D01*
X193315723Y-75319205D01*
X193412576Y-75464155D01*
X193535845Y-75587424D01*
X193680795Y-75684277D01*
X193841855Y-75750990D01*
X194012835Y-75785000D01*
X194187165Y-75785000D01*
X194358145Y-75750990D01*
X194519205Y-75684277D01*
X194664155Y-75587424D01*
X194787424Y-75464155D01*
X194884277Y-75319205D01*
X194950990Y-75158145D01*
X194985000Y-74987165D01*
X194985000Y-74812835D01*
X194950990Y-74641855D01*
X194884277Y-74480795D01*
X194787424Y-74335845D01*
X194664155Y-74212576D01*
X194519205Y-74115723D01*
X194358145Y-74049010D01*
X194187165Y-74015000D01*
X194012835Y-74015000D01*
X193841855Y-74049010D01*
X193680795Y-74115723D01*
X193545362Y-74206217D01*
X193587424Y-74164155D01*
X193684277Y-74019205D01*
X193750990Y-73858145D01*
X193785000Y-73687165D01*
X193785000Y-73512835D01*
X193750990Y-73341855D01*
X193684277Y-73180795D01*
X193587424Y-73035845D01*
X193464155Y-72912576D01*
X193319205Y-72815723D01*
X193158145Y-72749010D01*
X192987165Y-72715000D01*
X192812835Y-72715000D01*
X192641855Y-72749010D01*
X192480795Y-72815723D01*
X192335845Y-72912576D01*
X192212576Y-73035845D01*
X192115723Y-73180795D01*
X192049010Y-73341855D01*
X192015000Y-73512835D01*
X188650233Y-73512835D01*
X188719205Y-73484266D01*
X188864155Y-73387413D01*
X188987424Y-73264144D01*
X189084277Y-73119194D01*
X189150990Y-72958134D01*
X189185000Y-72787154D01*
X189185000Y-72612824D01*
X189150990Y-72441844D01*
X189084277Y-72280784D01*
X188987424Y-72135834D01*
X188864155Y-72012565D01*
X188719205Y-71915712D01*
X188558145Y-71848999D01*
X188387165Y-71814989D01*
X188212835Y-71814989D01*
X188041855Y-71848999D01*
X187880795Y-71915712D01*
X187735845Y-72012565D01*
X187612576Y-72135834D01*
X187515723Y-72280784D01*
X187449010Y-72441844D01*
X187415000Y-72612824D01*
X182121722Y-72612824D01*
X182184277Y-72519205D01*
X182250990Y-72358145D01*
X182285000Y-72187165D01*
X182285000Y-72012835D01*
X182250990Y-71841855D01*
X182184277Y-71680795D01*
X182183140Y-71679093D01*
X182212835Y-71685000D01*
X182387165Y-71685000D01*
X182558145Y-71650990D01*
X182719205Y-71584277D01*
X182864155Y-71487424D01*
X182987424Y-71364155D01*
X183084277Y-71219205D01*
X183150990Y-71058145D01*
X183185000Y-70887165D01*
X183185000Y-70799388D01*
X183342193Y-70734277D01*
X183487143Y-70637424D01*
X183610412Y-70514155D01*
X183707265Y-70369205D01*
X183773978Y-70208145D01*
X183807988Y-70037165D01*
X183807988Y-69862835D01*
X183773978Y-69691855D01*
X183760783Y-69660000D01*
X188145401Y-69660000D01*
X188115000Y-69812835D01*
X188115000Y-69987165D01*
X188149010Y-70158145D01*
X188215723Y-70319205D01*
X188312576Y-70464155D01*
X188435845Y-70587424D01*
X188580795Y-70684277D01*
X188741855Y-70750990D01*
X188912835Y-70785000D01*
X189087165Y-70785000D01*
X189258145Y-70750990D01*
X189419205Y-70684277D01*
X189564155Y-70587424D01*
X189687424Y-70464155D01*
X189784277Y-70319205D01*
X189850990Y-70158145D01*
X189885000Y-69987165D01*
X189885000Y-69812835D01*
X189854599Y-69660000D01*
X193515000Y-69660000D01*
X193515000Y-69687165D01*
X193549010Y-69858145D01*
X193615723Y-70019205D01*
X193712576Y-70164155D01*
X193835845Y-70287424D01*
X193980795Y-70384277D01*
X194141855Y-70450990D01*
X194312835Y-70485000D01*
X194487165Y-70485000D01*
X194648974Y-70452814D01*
X194619265Y-70602172D01*
X194619265Y-70776502D01*
X194653275Y-70947482D01*
X194719988Y-71108542D01*
X194816841Y-71253492D01*
X194940110Y-71376761D01*
X195085060Y-71473614D01*
X195246120Y-71540327D01*
X195417100Y-71574337D01*
X195480710Y-71574337D01*
X195380795Y-71615723D01*
X195235845Y-71712576D01*
X195112576Y-71835845D01*
X195015723Y-71980795D01*
X194949010Y-72141855D01*
X194915000Y-72312835D01*
X194915000Y-72487165D01*
X194949010Y-72658145D01*
X195015723Y-72819205D01*
X195112576Y-72964155D01*
X195235845Y-73087424D01*
X195380795Y-73184277D01*
X195493612Y-73231007D01*
X195499010Y-73258145D01*
X195565723Y-73419205D01*
X195662576Y-73564155D01*
X195785845Y-73687424D01*
X195930795Y-73784277D01*
X196091855Y-73850990D01*
X196262835Y-73885000D01*
X196437165Y-73885000D01*
X196589041Y-73854790D01*
X196615723Y-73919205D01*
X196712576Y-74064155D01*
X196835845Y-74187424D01*
X196980795Y-74284277D01*
X197141855Y-74350990D01*
X197312835Y-74385000D01*
X197487165Y-74385000D01*
X197658145Y-74350990D01*
X197819205Y-74284277D01*
X197887239Y-74238818D01*
X197935845Y-74287424D01*
X198080795Y-74384277D01*
X198241855Y-74450990D01*
X198412835Y-74485000D01*
X198587165Y-74485000D01*
X198758145Y-74450990D01*
X198919205Y-74384277D01*
X199064155Y-74287424D01*
X199187424Y-74164155D01*
X199284277Y-74019205D01*
X199350990Y-73858145D01*
X199385000Y-73687165D01*
X199385000Y-73512835D01*
X199350990Y-73341855D01*
X199284277Y-73180795D01*
X199187424Y-73035845D01*
X199064155Y-72912576D01*
X198919205Y-72815723D01*
X198758145Y-72749010D01*
X198587165Y-72715000D01*
X198412835Y-72715000D01*
X198241855Y-72749010D01*
X198080795Y-72815723D01*
X198012761Y-72861182D01*
X197964155Y-72812576D01*
X197819205Y-72715723D01*
X197658145Y-72649010D01*
X197487165Y-72615000D01*
X197312835Y-72615000D01*
X197160959Y-72645210D01*
X197134277Y-72580795D01*
X197037424Y-72435845D01*
X196914155Y-72312576D01*
X196769205Y-72215723D01*
X196656388Y-72168993D01*
X196650990Y-72141855D01*
X196584277Y-71980795D01*
X196528996Y-71898061D01*
X202265000Y-71898061D01*
X202265000Y-72101939D01*
X202304774Y-72301898D01*
X202382795Y-72490256D01*
X202496063Y-72659774D01*
X202640226Y-72803937D01*
X202809744Y-72917205D01*
X202998102Y-72995226D01*
X203198061Y-73035000D01*
X203401939Y-73035000D01*
X203601898Y-72995226D01*
X203790256Y-72917205D01*
X203959774Y-72803937D01*
X204103937Y-72659774D01*
X204217205Y-72490256D01*
X204295226Y-72301898D01*
X204335000Y-72101939D01*
X204335000Y-71898061D01*
X204295226Y-71698102D01*
X204217205Y-71509744D01*
X204135463Y-71387408D01*
X205403000Y-71387408D01*
X205403000Y-71662592D01*
X205456686Y-71932490D01*
X205561995Y-72186727D01*
X205714880Y-72415535D01*
X205909465Y-72610120D01*
X206138273Y-72763005D01*
X206215515Y-72795000D01*
X206138273Y-72826995D01*
X205909465Y-72979880D01*
X205714880Y-73174465D01*
X205561995Y-73403273D01*
X205456686Y-73657510D01*
X205403000Y-73927408D01*
X205403000Y-74202592D01*
X205456686Y-74472490D01*
X205561995Y-74726727D01*
X205714880Y-74955535D01*
X205909465Y-75150120D01*
X206138273Y-75303005D01*
X206215515Y-75335000D01*
X206138273Y-75366995D01*
X205909465Y-75519880D01*
X205714880Y-75714465D01*
X205561995Y-75943273D01*
X205456686Y-76197510D01*
X205403000Y-76467408D01*
X205403000Y-76742592D01*
X205456686Y-77012490D01*
X205561995Y-77266727D01*
X205714880Y-77495535D01*
X205909465Y-77690120D01*
X206138273Y-77843005D01*
X206209943Y-77872692D01*
X206196977Y-77877364D01*
X206081020Y-77939344D01*
X206014040Y-78179435D01*
X206800000Y-78965395D01*
X207585960Y-78179435D01*
X207518980Y-77939344D01*
X207383240Y-77875515D01*
X207461727Y-77843005D01*
X207690535Y-77690120D01*
X207885120Y-77495535D01*
X208038005Y-77266727D01*
X208143314Y-77012490D01*
X208197000Y-76742592D01*
X208197000Y-76467408D01*
X208143314Y-76197510D01*
X208038005Y-75943273D01*
X207885120Y-75714465D01*
X207690535Y-75519880D01*
X207461727Y-75366995D01*
X207384485Y-75335000D01*
X207461727Y-75303005D01*
X207690535Y-75150120D01*
X207885120Y-74955535D01*
X208038005Y-74726727D01*
X208143314Y-74472490D01*
X208197000Y-74202592D01*
X208197000Y-73927408D01*
X208143314Y-73657510D01*
X208038005Y-73403273D01*
X207885120Y-73174465D01*
X207690535Y-72979880D01*
X207461727Y-72826995D01*
X207384485Y-72795000D01*
X207461727Y-72763005D01*
X207690535Y-72610120D01*
X207885120Y-72415535D01*
X208038005Y-72186727D01*
X208143314Y-71932490D01*
X208197000Y-71662592D01*
X208197000Y-71387408D01*
X208143314Y-71117510D01*
X208038005Y-70863273D01*
X207885120Y-70634465D01*
X207690535Y-70439880D01*
X207461727Y-70286995D01*
X207207490Y-70181686D01*
X206937592Y-70128000D01*
X206662408Y-70128000D01*
X206392510Y-70181686D01*
X206138273Y-70286995D01*
X205909465Y-70439880D01*
X205714880Y-70634465D01*
X205561995Y-70863273D01*
X205456686Y-71117510D01*
X205403000Y-71387408D01*
X204135463Y-71387408D01*
X204103937Y-71340226D01*
X203959774Y-71196063D01*
X203790256Y-71082795D01*
X203601898Y-71004774D01*
X203401939Y-70965000D01*
X203198061Y-70965000D01*
X202998102Y-71004774D01*
X202809744Y-71082795D01*
X202640226Y-71196063D01*
X202496063Y-71340226D01*
X202382795Y-71509744D01*
X202304774Y-71698102D01*
X202265000Y-71898061D01*
X196528996Y-71898061D01*
X196487424Y-71835845D01*
X196364155Y-71712576D01*
X196219205Y-71615723D01*
X196058145Y-71549010D01*
X195887165Y-71515000D01*
X195823555Y-71515000D01*
X195923470Y-71473614D01*
X196044153Y-71392976D01*
X196180795Y-71484277D01*
X196341855Y-71550990D01*
X196512835Y-71585000D01*
X196687165Y-71585000D01*
X196858145Y-71550990D01*
X197019205Y-71484277D01*
X197164155Y-71387424D01*
X197287424Y-71264155D01*
X197384277Y-71119205D01*
X197450990Y-70958145D01*
X197485000Y-70787165D01*
X197485000Y-70612835D01*
X197450990Y-70441855D01*
X197384277Y-70280795D01*
X197287424Y-70135845D01*
X197164155Y-70012576D01*
X197019205Y-69915723D01*
X196858145Y-69849010D01*
X196687165Y-69815000D01*
X196512835Y-69815000D01*
X196341855Y-69849010D01*
X196180795Y-69915723D01*
X196060112Y-69996361D01*
X195923470Y-69905060D01*
X195762410Y-69838347D01*
X195591430Y-69804337D01*
X195417100Y-69804337D01*
X195255291Y-69836523D01*
X195285000Y-69687165D01*
X195285000Y-69660000D01*
X209340000Y-69660000D01*
X209340000Y-70032418D01*
X209340001Y-70032428D01*
X209340000Y-89340000D01*
X208457581Y-89340000D01*
X208572191Y-89233375D01*
X208720971Y-89027217D01*
X208826673Y-88795994D01*
X208843099Y-88700471D01*
X208719067Y-88502000D01*
X207477000Y-88502000D01*
X207477000Y-88522000D01*
X207223000Y-88522000D01*
X207223000Y-88502000D01*
X205980933Y-88502000D01*
X205856901Y-88700471D01*
X205873327Y-88795994D01*
X205979029Y-89027217D01*
X206127809Y-89233375D01*
X206242419Y-89340000D01*
X186485000Y-89340000D01*
X186485000Y-89337835D01*
X186450990Y-89166855D01*
X186384277Y-89005795D01*
X186380587Y-89000273D01*
X186419205Y-88984277D01*
X186564155Y-88887424D01*
X186687424Y-88764155D01*
X186784277Y-88619205D01*
X186850990Y-88458145D01*
X186885000Y-88287165D01*
X186885000Y-88112835D01*
X186850990Y-87941855D01*
X186784277Y-87780795D01*
X186750368Y-87730046D01*
X186814155Y-87687425D01*
X186937424Y-87564156D01*
X186971715Y-87512835D01*
X197915000Y-87512835D01*
X197915000Y-87687165D01*
X197949010Y-87858145D01*
X198015723Y-88019205D01*
X198112576Y-88164155D01*
X198235845Y-88287424D01*
X198380795Y-88384277D01*
X198541855Y-88450990D01*
X198712835Y-88485000D01*
X198887165Y-88485000D01*
X199058145Y-88450990D01*
X199219205Y-88384277D01*
X199224393Y-88380810D01*
X203001036Y-88380810D01*
X203005216Y-88417711D01*
X203093496Y-88628609D01*
X203221224Y-88818232D01*
X203383491Y-88979294D01*
X203574062Y-89105604D01*
X203785613Y-89192308D01*
X204010014Y-89236075D01*
X204193000Y-89080236D01*
X204193000Y-88202000D01*
X204447000Y-88202000D01*
X204447000Y-89080236D01*
X204629986Y-89236075D01*
X204854387Y-89192308D01*
X205065938Y-89105604D01*
X205256509Y-88979294D01*
X205418776Y-88818232D01*
X205546504Y-88628609D01*
X205634784Y-88417711D01*
X205638964Y-88380810D01*
X205513163Y-88202000D01*
X204447000Y-88202000D01*
X204193000Y-88202000D01*
X203126837Y-88202000D01*
X203001036Y-88380810D01*
X199224393Y-88380810D01*
X199364155Y-88287424D01*
X199487424Y-88164155D01*
X199564015Y-88049529D01*
X205856901Y-88049529D01*
X205980933Y-88248000D01*
X207223000Y-88248000D01*
X207223000Y-87242691D01*
X207477000Y-87242691D01*
X207477000Y-88248000D01*
X208719067Y-88248000D01*
X208843099Y-88049529D01*
X208826673Y-87954006D01*
X208720971Y-87722783D01*
X208572191Y-87516625D01*
X208386050Y-87343453D01*
X208169701Y-87209923D01*
X207931459Y-87121167D01*
X207680480Y-87080595D01*
X207477000Y-87242691D01*
X207223000Y-87242691D01*
X207019520Y-87080595D01*
X206768541Y-87121167D01*
X206530299Y-87209923D01*
X206313950Y-87343453D01*
X206127809Y-87516625D01*
X205979029Y-87722783D01*
X205873327Y-87954006D01*
X205856901Y-88049529D01*
X199564015Y-88049529D01*
X199584277Y-88019205D01*
X199650990Y-87858145D01*
X199668684Y-87769190D01*
X203001036Y-87769190D01*
X203126837Y-87948000D01*
X204193000Y-87948000D01*
X204193000Y-87069764D01*
X204447000Y-87069764D01*
X204447000Y-87948000D01*
X205513163Y-87948000D01*
X205638964Y-87769190D01*
X205634784Y-87732289D01*
X205546504Y-87521391D01*
X205418776Y-87331768D01*
X205256509Y-87170706D01*
X205065938Y-87044396D01*
X204854387Y-86957692D01*
X204629986Y-86913925D01*
X204447000Y-87069764D01*
X204193000Y-87069764D01*
X204010014Y-86913925D01*
X203785613Y-86957692D01*
X203574062Y-87044396D01*
X203383491Y-87170706D01*
X203221224Y-87331768D01*
X203093496Y-87521391D01*
X203005216Y-87732289D01*
X203001036Y-87769190D01*
X199668684Y-87769190D01*
X199685000Y-87687165D01*
X199685000Y-87512835D01*
X199650990Y-87341855D01*
X199584277Y-87180795D01*
X199487424Y-87035845D01*
X199364155Y-86912576D01*
X199219205Y-86815723D01*
X199058145Y-86749010D01*
X198887165Y-86715000D01*
X198712835Y-86715000D01*
X198541855Y-86749010D01*
X198380795Y-86815723D01*
X198235845Y-86912576D01*
X198112576Y-87035845D01*
X198015723Y-87180795D01*
X197949010Y-87341855D01*
X197915000Y-87512835D01*
X186971715Y-87512835D01*
X187034277Y-87419206D01*
X187100990Y-87258146D01*
X187135000Y-87087166D01*
X187135000Y-86912836D01*
X187100990Y-86741856D01*
X187034277Y-86580796D01*
X186937424Y-86435846D01*
X186814155Y-86312577D01*
X186669205Y-86215724D01*
X186508145Y-86149011D01*
X186337165Y-86115001D01*
X186162835Y-86115001D01*
X185991855Y-86149011D01*
X185830795Y-86215724D01*
X185685845Y-86312577D01*
X185562576Y-86435846D01*
X185465723Y-86580796D01*
X185399010Y-86741856D01*
X185365000Y-86912836D01*
X185365000Y-87087166D01*
X185399010Y-87258146D01*
X185465723Y-87419206D01*
X185499632Y-87469955D01*
X185435845Y-87512576D01*
X185312576Y-87635845D01*
X185215723Y-87780795D01*
X185149010Y-87941855D01*
X185115000Y-88112835D01*
X185115000Y-88287165D01*
X185149010Y-88458145D01*
X185215723Y-88619205D01*
X185219413Y-88624727D01*
X185180795Y-88640723D01*
X185035845Y-88737576D01*
X184912576Y-88860845D01*
X184815723Y-89005795D01*
X184749010Y-89166855D01*
X184715000Y-89337835D01*
X184715000Y-89340000D01*
X175585000Y-89340000D01*
X175585000Y-89212835D01*
X175550990Y-89041855D01*
X175484277Y-88880795D01*
X175387424Y-88735845D01*
X175264155Y-88612576D01*
X175119205Y-88515723D01*
X174958145Y-88449010D01*
X174787165Y-88415000D01*
X174612835Y-88415000D01*
X174535000Y-88430482D01*
X174535000Y-88298445D01*
X174569205Y-88284277D01*
X174638710Y-88237835D01*
X178015000Y-88237835D01*
X178015000Y-88412165D01*
X178049010Y-88583145D01*
X178115723Y-88744205D01*
X178212576Y-88889155D01*
X178335845Y-89012424D01*
X178480795Y-89109277D01*
X178641855Y-89175990D01*
X178812835Y-89210000D01*
X178987165Y-89210000D01*
X179158145Y-89175990D01*
X179319205Y-89109277D01*
X179464155Y-89012424D01*
X179587424Y-88889155D01*
X179684277Y-88744205D01*
X179710743Y-88680310D01*
X179858145Y-88650990D01*
X180019205Y-88584277D01*
X180164155Y-88487424D01*
X180287424Y-88364155D01*
X180384277Y-88219205D01*
X180450990Y-88058145D01*
X180485000Y-87887165D01*
X180485000Y-87712835D01*
X180450990Y-87541855D01*
X180384277Y-87380795D01*
X180287424Y-87235845D01*
X180164155Y-87112576D01*
X180019205Y-87015723D01*
X179858145Y-86949010D01*
X179687165Y-86915000D01*
X179512835Y-86915000D01*
X179341855Y-86949010D01*
X179180795Y-87015723D01*
X179035845Y-87112576D01*
X178912576Y-87235845D01*
X178815723Y-87380795D01*
X178789257Y-87444690D01*
X178641855Y-87474010D01*
X178480795Y-87540723D01*
X178335845Y-87637576D01*
X178212576Y-87760845D01*
X178115723Y-87905795D01*
X178049010Y-88066855D01*
X178015000Y-88237835D01*
X174638710Y-88237835D01*
X174714155Y-88187424D01*
X174837424Y-88064155D01*
X174934277Y-87919205D01*
X175000990Y-87758145D01*
X175035000Y-87587165D01*
X175035000Y-87412835D01*
X175000990Y-87241855D01*
X174934277Y-87080795D01*
X174837424Y-86935845D01*
X174714155Y-86812576D01*
X174569205Y-86715723D01*
X174408145Y-86649010D01*
X174320450Y-86631566D01*
X174365990Y-86563411D01*
X174477932Y-86293158D01*
X174535000Y-86006260D01*
X174535000Y-85862835D01*
X179308780Y-85862835D01*
X179308780Y-86037165D01*
X179342790Y-86208145D01*
X179409503Y-86369205D01*
X179506356Y-86514155D01*
X179629625Y-86637424D01*
X179774575Y-86734277D01*
X179935635Y-86800990D01*
X180106615Y-86835000D01*
X180280945Y-86835000D01*
X180451925Y-86800990D01*
X180489998Y-86785220D01*
X180489998Y-86912165D01*
X180524008Y-87083145D01*
X180590721Y-87244205D01*
X180687574Y-87389155D01*
X180810843Y-87512424D01*
X180825922Y-87522499D01*
X180712576Y-87635845D01*
X180615723Y-87780795D01*
X180549010Y-87941855D01*
X180515000Y-88112835D01*
X180515000Y-88287165D01*
X180549010Y-88458145D01*
X180615723Y-88619205D01*
X180712576Y-88764155D01*
X180835845Y-88887424D01*
X180980795Y-88984277D01*
X181141855Y-89050990D01*
X181312835Y-89085000D01*
X181487165Y-89085000D01*
X181658145Y-89050990D01*
X181819205Y-88984277D01*
X181964155Y-88887424D01*
X182087424Y-88764155D01*
X182184277Y-88619205D01*
X182250990Y-88458145D01*
X182285000Y-88287165D01*
X182285000Y-88112835D01*
X182250990Y-87941855D01*
X182184277Y-87780795D01*
X182087424Y-87635845D01*
X181964155Y-87512576D01*
X181949076Y-87502501D01*
X182062422Y-87389155D01*
X182159275Y-87244205D01*
X182225988Y-87083145D01*
X182259998Y-86912165D01*
X182259998Y-86737835D01*
X182225988Y-86566855D01*
X182159275Y-86405795D01*
X182062422Y-86260845D01*
X181939153Y-86137576D01*
X181864711Y-86087835D01*
X182955711Y-86087835D01*
X182955711Y-86262165D01*
X182989721Y-86433145D01*
X183056434Y-86594205D01*
X183153287Y-86739155D01*
X183276556Y-86862424D01*
X183421506Y-86959277D01*
X183582566Y-87025990D01*
X183753546Y-87060000D01*
X183927876Y-87060000D01*
X184098856Y-87025990D01*
X184259916Y-86959277D01*
X184404866Y-86862424D01*
X184528135Y-86739155D01*
X184624988Y-86594205D01*
X184691701Y-86433145D01*
X184725711Y-86262165D01*
X184725711Y-86087835D01*
X184691701Y-85916855D01*
X184624988Y-85755795D01*
X184528135Y-85610845D01*
X184430125Y-85512835D01*
X194715000Y-85512835D01*
X194715000Y-85687165D01*
X194749010Y-85858145D01*
X194815723Y-86019205D01*
X194912576Y-86164155D01*
X195035845Y-86287424D01*
X195180795Y-86384277D01*
X195341855Y-86450990D01*
X195512835Y-86485000D01*
X195687165Y-86485000D01*
X195858145Y-86450990D01*
X196019205Y-86384277D01*
X196164155Y-86287424D01*
X196182549Y-86269030D01*
X196262835Y-86285000D01*
X196437165Y-86285000D01*
X196608145Y-86250990D01*
X196769205Y-86184277D01*
X196914155Y-86087424D01*
X197037424Y-85964155D01*
X197071715Y-85912835D01*
X201315000Y-85912835D01*
X201315000Y-86087165D01*
X201349010Y-86258145D01*
X201415723Y-86419205D01*
X201512576Y-86564155D01*
X201635845Y-86687424D01*
X201780795Y-86784277D01*
X201941855Y-86850990D01*
X202112835Y-86885000D01*
X202287165Y-86885000D01*
X202458145Y-86850990D01*
X202619205Y-86784277D01*
X202764155Y-86687424D01*
X202887424Y-86564155D01*
X202960554Y-86454709D01*
X203112835Y-86485000D01*
X203287165Y-86485000D01*
X203458145Y-86450990D01*
X203619205Y-86384277D01*
X203764155Y-86287424D01*
X203887424Y-86164155D01*
X203984277Y-86019205D01*
X204050990Y-85858145D01*
X204085000Y-85687165D01*
X204085000Y-85512835D01*
X204050990Y-85341855D01*
X203984277Y-85180795D01*
X203887424Y-85035845D01*
X203764155Y-84912576D01*
X203619205Y-84815723D01*
X203458145Y-84749010D01*
X203287165Y-84715000D01*
X203112835Y-84715000D01*
X202941855Y-84749010D01*
X202780795Y-84815723D01*
X202635845Y-84912576D01*
X202512576Y-85035845D01*
X202439446Y-85145291D01*
X202287165Y-85115000D01*
X202112835Y-85115000D01*
X201941855Y-85149010D01*
X201780795Y-85215723D01*
X201635845Y-85312576D01*
X201512576Y-85435845D01*
X201415723Y-85580795D01*
X201349010Y-85741855D01*
X201315000Y-85912835D01*
X197071715Y-85912835D01*
X197134277Y-85819205D01*
X197169156Y-85735000D01*
X197287165Y-85735000D01*
X197458145Y-85700990D01*
X197619205Y-85634277D01*
X197764155Y-85537424D01*
X197887424Y-85414155D01*
X197984277Y-85269205D01*
X198050990Y-85108145D01*
X198085000Y-84937165D01*
X198085000Y-84762835D01*
X198050990Y-84591855D01*
X197984277Y-84430795D01*
X197887424Y-84285845D01*
X197764155Y-84162576D01*
X197619205Y-84065723D01*
X197458145Y-83999010D01*
X197287165Y-83965000D01*
X197112835Y-83965000D01*
X196941855Y-83999010D01*
X196780795Y-84065723D01*
X196635845Y-84162576D01*
X196512576Y-84285845D01*
X196415723Y-84430795D01*
X196380844Y-84515000D01*
X196262835Y-84515000D01*
X196091855Y-84549010D01*
X195930795Y-84615723D01*
X195785845Y-84712576D01*
X195767451Y-84730970D01*
X195687165Y-84715000D01*
X195512835Y-84715000D01*
X195341855Y-84749010D01*
X195180795Y-84815723D01*
X195035845Y-84912576D01*
X194912576Y-85035845D01*
X194815723Y-85180795D01*
X194749010Y-85341855D01*
X194715000Y-85512835D01*
X184430125Y-85512835D01*
X184404866Y-85487576D01*
X184259916Y-85390723D01*
X184098856Y-85324010D01*
X183927876Y-85290000D01*
X183753546Y-85290000D01*
X183582566Y-85324010D01*
X183421506Y-85390723D01*
X183276556Y-85487576D01*
X183153287Y-85610845D01*
X183056434Y-85755795D01*
X182989721Y-85916855D01*
X182955711Y-86087835D01*
X181864711Y-86087835D01*
X181794203Y-86040723D01*
X181633143Y-85974010D01*
X181605292Y-85968470D01*
X181650990Y-85858145D01*
X181669882Y-85763170D01*
X181781077Y-85717112D01*
X181926027Y-85620259D01*
X182049296Y-85496990D01*
X182146149Y-85352040D01*
X182212862Y-85190980D01*
X182246872Y-85020000D01*
X182246872Y-84845670D01*
X182242554Y-84823960D01*
X182339276Y-84679206D01*
X182405989Y-84518146D01*
X182439999Y-84347166D01*
X182439999Y-84172836D01*
X182405989Y-84001856D01*
X182339276Y-83840796D01*
X182242423Y-83695846D01*
X182119154Y-83572577D01*
X181974204Y-83475724D01*
X181813144Y-83409011D01*
X181642164Y-83375001D01*
X181467834Y-83375001D01*
X181296854Y-83409011D01*
X181135794Y-83475724D01*
X180990844Y-83572577D01*
X180867575Y-83695846D01*
X180770722Y-83840796D01*
X180704009Y-84001856D01*
X180669999Y-84172836D01*
X180669999Y-84347166D01*
X180674317Y-84368876D01*
X180577595Y-84513630D01*
X180510882Y-84674690D01*
X180491990Y-84769665D01*
X180380795Y-84815723D01*
X180235845Y-84912576D01*
X180112576Y-85035845D01*
X180091023Y-85068101D01*
X179935635Y-85099010D01*
X179774575Y-85165723D01*
X179629625Y-85262576D01*
X179506356Y-85385845D01*
X179409503Y-85530795D01*
X179342790Y-85691855D01*
X179308780Y-85862835D01*
X174535000Y-85862835D01*
X174535000Y-85713740D01*
X174477932Y-85426842D01*
X174365990Y-85156589D01*
X174203475Y-84913368D01*
X173996632Y-84706525D01*
X173822240Y-84590000D01*
X173996632Y-84473475D01*
X174057272Y-84412835D01*
X174415000Y-84412835D01*
X174415000Y-84587165D01*
X174449010Y-84758145D01*
X174515723Y-84919205D01*
X174612576Y-85064155D01*
X174735845Y-85187424D01*
X174880795Y-85284277D01*
X175041855Y-85350990D01*
X175212835Y-85385000D01*
X175387165Y-85385000D01*
X175558145Y-85350990D01*
X175719205Y-85284277D01*
X175864155Y-85187424D01*
X175987424Y-85064155D01*
X176084277Y-84919205D01*
X176150990Y-84758145D01*
X176185000Y-84587165D01*
X176185000Y-84412835D01*
X176150990Y-84241855D01*
X176084277Y-84080795D01*
X175987424Y-83935845D01*
X175864155Y-83812576D01*
X175719205Y-83715723D01*
X175558145Y-83649010D01*
X175387165Y-83615000D01*
X175212835Y-83615000D01*
X175041855Y-83649010D01*
X174880795Y-83715723D01*
X174735845Y-83812576D01*
X174612576Y-83935845D01*
X174515723Y-84080795D01*
X174449010Y-84241855D01*
X174415000Y-84412835D01*
X174057272Y-84412835D01*
X174203475Y-84266632D01*
X174365990Y-84023411D01*
X174477932Y-83753158D01*
X174534377Y-83469394D01*
X174612835Y-83485000D01*
X174787165Y-83485000D01*
X174958145Y-83450990D01*
X175119205Y-83384277D01*
X175264155Y-83287424D01*
X175387424Y-83164155D01*
X175484277Y-83019205D01*
X175550990Y-82858145D01*
X175585000Y-82687165D01*
X175585000Y-82512835D01*
X175550990Y-82341855D01*
X175538970Y-82312835D01*
X177015000Y-82312835D01*
X177015000Y-82487165D01*
X177049010Y-82658145D01*
X177115723Y-82819205D01*
X177212576Y-82964155D01*
X177335845Y-83087424D01*
X177480795Y-83184277D01*
X177641855Y-83250990D01*
X177812835Y-83285000D01*
X177987165Y-83285000D01*
X178158145Y-83250990D01*
X178319205Y-83184277D01*
X178464155Y-83087424D01*
X178587424Y-82964155D01*
X178649506Y-82871242D01*
X182662115Y-82871242D01*
X182662115Y-83045572D01*
X182696125Y-83216552D01*
X182762838Y-83377612D01*
X182798458Y-83430921D01*
X182754673Y-83536628D01*
X182720663Y-83707608D01*
X182720663Y-83881938D01*
X182754673Y-84052918D01*
X182821386Y-84213978D01*
X182918239Y-84358928D01*
X183041508Y-84482197D01*
X183186458Y-84579050D01*
X183347518Y-84645763D01*
X183518498Y-84679773D01*
X183692828Y-84679773D01*
X183863808Y-84645763D01*
X184024868Y-84579050D01*
X184169818Y-84482197D01*
X184293087Y-84358928D01*
X184389940Y-84213978D01*
X184456653Y-84052918D01*
X184490663Y-83881938D01*
X184490663Y-83707608D01*
X184456653Y-83536628D01*
X184389940Y-83375568D01*
X184354320Y-83322259D01*
X184398105Y-83216552D01*
X184432115Y-83045572D01*
X184432115Y-82871242D01*
X184398105Y-82700262D01*
X184331392Y-82539202D01*
X184234539Y-82394252D01*
X184136596Y-82296309D01*
X184212192Y-82281272D01*
X184370381Y-82215748D01*
X184946067Y-82215748D01*
X184946067Y-82390078D01*
X184980077Y-82561058D01*
X185046790Y-82722118D01*
X185143643Y-82867068D01*
X185266912Y-82990337D01*
X185411862Y-83087190D01*
X185572922Y-83153903D01*
X185743902Y-83187913D01*
X185918232Y-83187913D01*
X186089212Y-83153903D01*
X186194744Y-83110190D01*
X186230795Y-83134279D01*
X186338831Y-83179029D01*
X186315000Y-83298833D01*
X186315000Y-83473163D01*
X186349010Y-83644143D01*
X186415723Y-83805203D01*
X186512576Y-83950153D01*
X186635845Y-84073422D01*
X186780795Y-84170275D01*
X186941855Y-84236988D01*
X187112835Y-84270998D01*
X187287165Y-84270998D01*
X187324811Y-84263510D01*
X187315000Y-84312835D01*
X187315000Y-84487165D01*
X187349010Y-84658145D01*
X187415723Y-84819205D01*
X187512576Y-84964155D01*
X187635845Y-85087424D01*
X187780795Y-85184277D01*
X187941855Y-85250990D01*
X188112835Y-85285000D01*
X188287165Y-85285000D01*
X188458145Y-85250990D01*
X188619205Y-85184277D01*
X188764155Y-85087424D01*
X188887424Y-84964155D01*
X188984277Y-84819205D01*
X189050990Y-84658145D01*
X189085000Y-84487165D01*
X189085000Y-84312835D01*
X189050990Y-84141855D01*
X188984277Y-83980795D01*
X188938868Y-83912835D01*
X191315000Y-83912835D01*
X191315000Y-84087165D01*
X191349010Y-84258145D01*
X191415723Y-84419205D01*
X191512576Y-84564155D01*
X191635845Y-84687424D01*
X191780795Y-84784277D01*
X191941855Y-84850990D01*
X192112835Y-84885000D01*
X192287165Y-84885000D01*
X192458145Y-84850990D01*
X192619205Y-84784277D01*
X192764155Y-84687424D01*
X192887424Y-84564155D01*
X192984277Y-84419205D01*
X193050990Y-84258145D01*
X193085000Y-84087165D01*
X193085000Y-83912835D01*
X193050990Y-83741855D01*
X193024374Y-83677599D01*
X193158145Y-83650990D01*
X193319205Y-83584277D01*
X193464155Y-83487424D01*
X193538744Y-83412835D01*
X193915000Y-83412835D01*
X193915000Y-83587165D01*
X193949010Y-83758145D01*
X194015723Y-83919205D01*
X194112576Y-84064155D01*
X194235845Y-84187424D01*
X194380795Y-84284277D01*
X194541855Y-84350990D01*
X194712835Y-84385000D01*
X194887165Y-84385000D01*
X195058145Y-84350990D01*
X195219205Y-84284277D01*
X195364155Y-84187424D01*
X195487424Y-84064155D01*
X195584277Y-83919205D01*
X195650990Y-83758145D01*
X195685000Y-83587165D01*
X195685000Y-83412835D01*
X195650990Y-83241855D01*
X195584277Y-83080795D01*
X195487424Y-82935845D01*
X195364155Y-82812576D01*
X195219205Y-82715723D01*
X195212233Y-82712835D01*
X195915000Y-82712835D01*
X195915000Y-82887165D01*
X195949010Y-83058145D01*
X196015723Y-83219205D01*
X196112576Y-83364155D01*
X196235845Y-83487424D01*
X196380795Y-83584277D01*
X196541855Y-83650990D01*
X196712835Y-83685000D01*
X196887165Y-83685000D01*
X197058145Y-83650990D01*
X197219205Y-83584277D01*
X197364155Y-83487424D01*
X197487424Y-83364155D01*
X197521715Y-83312835D01*
X199415000Y-83312835D01*
X199415000Y-83487165D01*
X199449010Y-83658145D01*
X199515723Y-83819205D01*
X199612576Y-83964155D01*
X199735845Y-84087424D01*
X199880795Y-84184277D01*
X200041855Y-84250990D01*
X200212835Y-84285000D01*
X200387165Y-84285000D01*
X200558145Y-84250990D01*
X200719205Y-84184277D01*
X200864155Y-84087424D01*
X200987424Y-83964155D01*
X201084277Y-83819205D01*
X201150990Y-83658145D01*
X201176318Y-83530810D01*
X203001036Y-83530810D01*
X203005216Y-83567711D01*
X203093496Y-83778609D01*
X203221224Y-83968232D01*
X203383491Y-84129294D01*
X203574062Y-84255604D01*
X203785613Y-84342308D01*
X204010014Y-84386075D01*
X204193000Y-84230236D01*
X204193000Y-83352000D01*
X204447000Y-83352000D01*
X204447000Y-84230236D01*
X204629986Y-84386075D01*
X204854387Y-84342308D01*
X204949988Y-84303126D01*
X204935845Y-84312576D01*
X204812576Y-84435845D01*
X204715723Y-84580795D01*
X204649010Y-84741855D01*
X204615000Y-84912835D01*
X204615000Y-85087165D01*
X204649010Y-85258145D01*
X204715723Y-85419205D01*
X204812576Y-85564155D01*
X204931488Y-85683067D01*
X204838986Y-85821506D01*
X204772273Y-85982566D01*
X204738263Y-86153546D01*
X204738263Y-86327876D01*
X204772273Y-86498856D01*
X204838986Y-86659916D01*
X204935839Y-86804866D01*
X205059108Y-86928135D01*
X205204058Y-87024988D01*
X205365118Y-87091701D01*
X205536098Y-87125711D01*
X205710428Y-87125711D01*
X205881408Y-87091701D01*
X206042468Y-87024988D01*
X206187418Y-86928135D01*
X206310687Y-86804866D01*
X206407540Y-86659916D01*
X206474253Y-86498856D01*
X206508263Y-86327876D01*
X206508263Y-86153546D01*
X206474253Y-85982566D01*
X206407540Y-85821506D01*
X206310687Y-85676556D01*
X206191775Y-85557644D01*
X206284277Y-85419205D01*
X206350990Y-85258145D01*
X206385000Y-85087165D01*
X206385000Y-84912835D01*
X206350990Y-84741855D01*
X206284277Y-84580795D01*
X206187424Y-84435845D01*
X206064155Y-84312576D01*
X205919205Y-84215723D01*
X205758145Y-84149010D01*
X205587165Y-84115000D01*
X205412835Y-84115000D01*
X205241855Y-84149010D01*
X205201614Y-84165678D01*
X205256509Y-84129294D01*
X205418776Y-83968232D01*
X205546504Y-83778609D01*
X205634784Y-83567711D01*
X205638964Y-83530810D01*
X205513163Y-83352000D01*
X204447000Y-83352000D01*
X204193000Y-83352000D01*
X203126837Y-83352000D01*
X203001036Y-83530810D01*
X201176318Y-83530810D01*
X201185000Y-83487165D01*
X201185000Y-83312835D01*
X201172596Y-83250471D01*
X205856901Y-83250471D01*
X205873327Y-83345994D01*
X205979029Y-83577217D01*
X206127809Y-83783375D01*
X206313950Y-83956547D01*
X206530299Y-84090077D01*
X206768541Y-84178833D01*
X207019520Y-84219405D01*
X207223000Y-84057309D01*
X207223000Y-83052000D01*
X207477000Y-83052000D01*
X207477000Y-84057309D01*
X207680480Y-84219405D01*
X207931459Y-84178833D01*
X208169701Y-84090077D01*
X208386050Y-83956547D01*
X208572191Y-83783375D01*
X208720971Y-83577217D01*
X208826673Y-83345994D01*
X208843099Y-83250471D01*
X208719067Y-83052000D01*
X207477000Y-83052000D01*
X207223000Y-83052000D01*
X205980933Y-83052000D01*
X205856901Y-83250471D01*
X201172596Y-83250471D01*
X201150990Y-83141855D01*
X201127440Y-83085000D01*
X201187165Y-83085000D01*
X201358145Y-83050990D01*
X201519205Y-82984277D01*
X201616614Y-82919190D01*
X203001036Y-82919190D01*
X203126837Y-83098000D01*
X204193000Y-83098000D01*
X204193000Y-82219764D01*
X204447000Y-82219764D01*
X204447000Y-83098000D01*
X205513163Y-83098000D01*
X205638964Y-82919190D01*
X205634784Y-82882289D01*
X205546504Y-82671391D01*
X205498099Y-82599529D01*
X205856901Y-82599529D01*
X205980933Y-82798000D01*
X207223000Y-82798000D01*
X207223000Y-81792691D01*
X207477000Y-81792691D01*
X207477000Y-82798000D01*
X208719067Y-82798000D01*
X208843099Y-82599529D01*
X208826673Y-82504006D01*
X208720971Y-82272783D01*
X208572191Y-82066625D01*
X208386050Y-81893453D01*
X208169701Y-81759923D01*
X207931459Y-81671167D01*
X207680480Y-81630595D01*
X207477000Y-81792691D01*
X207223000Y-81792691D01*
X207019520Y-81630595D01*
X206768541Y-81671167D01*
X206530299Y-81759923D01*
X206313950Y-81893453D01*
X206127809Y-82066625D01*
X205979029Y-82272783D01*
X205873327Y-82504006D01*
X205856901Y-82599529D01*
X205498099Y-82599529D01*
X205418776Y-82481768D01*
X205256509Y-82320706D01*
X205065938Y-82194396D01*
X204854387Y-82107692D01*
X204629986Y-82063925D01*
X204447000Y-82219764D01*
X204193000Y-82219764D01*
X204010014Y-82063925D01*
X203785613Y-82107692D01*
X203574062Y-82194396D01*
X203383491Y-82320706D01*
X203221224Y-82481768D01*
X203093496Y-82671391D01*
X203005216Y-82882289D01*
X203001036Y-82919190D01*
X201616614Y-82919190D01*
X201664155Y-82887424D01*
X201787424Y-82764155D01*
X201884277Y-82619205D01*
X201950990Y-82458145D01*
X201985000Y-82287165D01*
X201985000Y-82112835D01*
X201950990Y-81941855D01*
X201884277Y-81780795D01*
X201787424Y-81635845D01*
X201664155Y-81512576D01*
X201519205Y-81415723D01*
X201358145Y-81349010D01*
X201187165Y-81315000D01*
X201012835Y-81315000D01*
X200841855Y-81349010D01*
X200680795Y-81415723D01*
X200535845Y-81512576D01*
X200412576Y-81635845D01*
X200315723Y-81780795D01*
X200249010Y-81941855D01*
X200215000Y-82112835D01*
X200215000Y-82287165D01*
X200249010Y-82458145D01*
X200272560Y-82515000D01*
X200212835Y-82515000D01*
X200041855Y-82549010D01*
X199880795Y-82615723D01*
X199735845Y-82712576D01*
X199612576Y-82835845D01*
X199515723Y-82980795D01*
X199449010Y-83141855D01*
X199415000Y-83312835D01*
X197521715Y-83312835D01*
X197584277Y-83219205D01*
X197650990Y-83058145D01*
X197685000Y-82887165D01*
X197685000Y-82712835D01*
X197650990Y-82541855D01*
X197584277Y-82380795D01*
X197487424Y-82235845D01*
X197364155Y-82112576D01*
X197219205Y-82015723D01*
X197058145Y-81949010D01*
X196887165Y-81915000D01*
X196712835Y-81915000D01*
X196541855Y-81949010D01*
X196380795Y-82015723D01*
X196235845Y-82112576D01*
X196112576Y-82235845D01*
X196015723Y-82380795D01*
X195949010Y-82541855D01*
X195915000Y-82712835D01*
X195212233Y-82712835D01*
X195058145Y-82649010D01*
X194887165Y-82615000D01*
X194712835Y-82615000D01*
X194541855Y-82649010D01*
X194380795Y-82715723D01*
X194235845Y-82812576D01*
X194112576Y-82935845D01*
X194015723Y-83080795D01*
X193949010Y-83241855D01*
X193915000Y-83412835D01*
X193538744Y-83412835D01*
X193587424Y-83364155D01*
X193684277Y-83219205D01*
X193750990Y-83058145D01*
X193785000Y-82887165D01*
X193785000Y-82712835D01*
X193750990Y-82541855D01*
X193684277Y-82380795D01*
X193587424Y-82235845D01*
X193464155Y-82112576D01*
X193319205Y-82015723D01*
X193158145Y-81949010D01*
X192987165Y-81915000D01*
X192812835Y-81915000D01*
X192641855Y-81949010D01*
X192480795Y-82015723D01*
X192335845Y-82112576D01*
X192212576Y-82235845D01*
X192115723Y-82380795D01*
X192049010Y-82541855D01*
X192015000Y-82712835D01*
X192015000Y-82887165D01*
X192049010Y-83058145D01*
X192075626Y-83122401D01*
X191941855Y-83149010D01*
X191780795Y-83215723D01*
X191635845Y-83312576D01*
X191512576Y-83435845D01*
X191415723Y-83580795D01*
X191349010Y-83741855D01*
X191315000Y-83912835D01*
X188938868Y-83912835D01*
X188887424Y-83835845D01*
X188764155Y-83712576D01*
X188619205Y-83615723D01*
X188458145Y-83549010D01*
X188287165Y-83515000D01*
X188112835Y-83515000D01*
X188075189Y-83522488D01*
X188085000Y-83473163D01*
X188085000Y-83298833D01*
X188082848Y-83288014D01*
X188231020Y-83317487D01*
X188405350Y-83317487D01*
X188576330Y-83283477D01*
X188737390Y-83216764D01*
X188882340Y-83119911D01*
X189005609Y-82996642D01*
X189102462Y-82851692D01*
X189105446Y-82844488D01*
X189241855Y-82900990D01*
X189412835Y-82935000D01*
X189587165Y-82935000D01*
X189758145Y-82900990D01*
X189919205Y-82834277D01*
X190064155Y-82737424D01*
X190187424Y-82614155D01*
X190284277Y-82469205D01*
X190350990Y-82308145D01*
X190385000Y-82137165D01*
X190385000Y-81962835D01*
X190350990Y-81791855D01*
X190284277Y-81630795D01*
X190187424Y-81485845D01*
X190064155Y-81362576D01*
X189919205Y-81265723D01*
X189758145Y-81199010D01*
X189687712Y-81185000D01*
X189787165Y-81185000D01*
X189958145Y-81150990D01*
X190119205Y-81084277D01*
X190264155Y-80987424D01*
X190387424Y-80864155D01*
X190484277Y-80719205D01*
X190550990Y-80558145D01*
X190585000Y-80387165D01*
X190585000Y-80257845D01*
X192015000Y-80257845D01*
X192015000Y-80432175D01*
X192049010Y-80603155D01*
X192115723Y-80764215D01*
X192212576Y-80909165D01*
X192335845Y-81032434D01*
X192480795Y-81129287D01*
X192641855Y-81196000D01*
X192812835Y-81230010D01*
X192987165Y-81230010D01*
X193158145Y-81196000D01*
X193319205Y-81129287D01*
X193464155Y-81032434D01*
X193587424Y-80909165D01*
X193655124Y-80807845D01*
X193919990Y-80807845D01*
X193919990Y-80982175D01*
X193954000Y-81153155D01*
X194020713Y-81314215D01*
X194117566Y-81459165D01*
X194240835Y-81582434D01*
X194385785Y-81679287D01*
X194546845Y-81746000D01*
X194717825Y-81780010D01*
X194892155Y-81780010D01*
X195063135Y-81746000D01*
X195224195Y-81679287D01*
X195369145Y-81582434D01*
X195492414Y-81459165D01*
X195589267Y-81314215D01*
X195655980Y-81153155D01*
X195689990Y-80982175D01*
X195689990Y-80807845D01*
X195671092Y-80712835D01*
X198965010Y-80712835D01*
X198965010Y-80887165D01*
X198999020Y-81058145D01*
X199065733Y-81219205D01*
X199162586Y-81364155D01*
X199285855Y-81487424D01*
X199430805Y-81584277D01*
X199591865Y-81650990D01*
X199762845Y-81685000D01*
X199937175Y-81685000D01*
X200108155Y-81650990D01*
X200269215Y-81584277D01*
X200414165Y-81487424D01*
X200537434Y-81364155D01*
X200634287Y-81219205D01*
X200701000Y-81058145D01*
X200735010Y-80887165D01*
X200735010Y-80712835D01*
X200701000Y-80541855D01*
X200634287Y-80380795D01*
X200537434Y-80235845D01*
X200480202Y-80178613D01*
X200525246Y-80148515D01*
X200648515Y-80025246D01*
X200745368Y-79880296D01*
X200773311Y-79812835D01*
X202715000Y-79812835D01*
X202715000Y-79987165D01*
X202749010Y-80158145D01*
X202815723Y-80319205D01*
X202912576Y-80464155D01*
X203035845Y-80587424D01*
X203180795Y-80684277D01*
X203341855Y-80750990D01*
X203512835Y-80785000D01*
X203687165Y-80785000D01*
X203858145Y-80750990D01*
X204019205Y-80684277D01*
X204164155Y-80587424D01*
X204287424Y-80464155D01*
X204384277Y-80319205D01*
X204450990Y-80158145D01*
X204460454Y-80110565D01*
X206014040Y-80110565D01*
X206081020Y-80350656D01*
X206330048Y-80467756D01*
X206597135Y-80534023D01*
X206872017Y-80546910D01*
X207144133Y-80505922D01*
X207403023Y-80412636D01*
X207518980Y-80350656D01*
X207585960Y-80110565D01*
X206800000Y-79324605D01*
X206014040Y-80110565D01*
X204460454Y-80110565D01*
X204485000Y-79987165D01*
X204485000Y-79812835D01*
X204450990Y-79641855D01*
X204384277Y-79480795D01*
X204287424Y-79335845D01*
X204168596Y-79217017D01*
X205398090Y-79217017D01*
X205439078Y-79489133D01*
X205532364Y-79748023D01*
X205594344Y-79863980D01*
X205834435Y-79930960D01*
X206620395Y-79145000D01*
X206979605Y-79145000D01*
X207765565Y-79930960D01*
X208005656Y-79863980D01*
X208122756Y-79614952D01*
X208189023Y-79347865D01*
X208201910Y-79072983D01*
X208160922Y-78800867D01*
X208067636Y-78541977D01*
X208005656Y-78426020D01*
X207765565Y-78359040D01*
X206979605Y-79145000D01*
X206620395Y-79145000D01*
X205834435Y-78359040D01*
X205594344Y-78426020D01*
X205477244Y-78675048D01*
X205410977Y-78942135D01*
X205398090Y-79217017D01*
X204168596Y-79217017D01*
X204164155Y-79212576D01*
X204019205Y-79115723D01*
X203858145Y-79049010D01*
X203687165Y-79015000D01*
X203512835Y-79015000D01*
X203341855Y-79049010D01*
X203180795Y-79115723D01*
X203035845Y-79212576D01*
X202912576Y-79335845D01*
X202815723Y-79480795D01*
X202749010Y-79641855D01*
X202715000Y-79812835D01*
X200773311Y-79812835D01*
X200812081Y-79719236D01*
X200846091Y-79548256D01*
X200846091Y-79373926D01*
X200812081Y-79202946D01*
X200803912Y-79183225D01*
X200812835Y-79185000D01*
X200987165Y-79185000D01*
X201158145Y-79150990D01*
X201319205Y-79084277D01*
X201464155Y-78987424D01*
X201587424Y-78864155D01*
X201684277Y-78719205D01*
X201750990Y-78558145D01*
X201785000Y-78387165D01*
X201785000Y-78212835D01*
X201750990Y-78041855D01*
X201684277Y-77880795D01*
X201587424Y-77735845D01*
X201464155Y-77612576D01*
X201319205Y-77515723D01*
X201158145Y-77449010D01*
X200987165Y-77415000D01*
X200812835Y-77415000D01*
X200641855Y-77449010D01*
X200480795Y-77515723D01*
X200335845Y-77612576D01*
X200212576Y-77735845D01*
X200115723Y-77880795D01*
X200049010Y-78041855D01*
X200015000Y-78212835D01*
X200015000Y-78387165D01*
X200049010Y-78558145D01*
X200057179Y-78577866D01*
X200048256Y-78576091D01*
X199873926Y-78576091D01*
X199702946Y-78610101D01*
X199541886Y-78676814D01*
X199396936Y-78773667D01*
X199273667Y-78896936D01*
X199176814Y-79041886D01*
X199110101Y-79202946D01*
X199076091Y-79373926D01*
X199076091Y-79548256D01*
X199110101Y-79719236D01*
X199176814Y-79880296D01*
X199273667Y-80025246D01*
X199330899Y-80082478D01*
X199285855Y-80112576D01*
X199162586Y-80235845D01*
X199065733Y-80380795D01*
X198999020Y-80541855D01*
X198965010Y-80712835D01*
X195671092Y-80712835D01*
X195655980Y-80636865D01*
X195589267Y-80475805D01*
X195492414Y-80330855D01*
X195369145Y-80207586D01*
X195224195Y-80110733D01*
X195063135Y-80044020D01*
X194892155Y-80010010D01*
X194717825Y-80010010D01*
X194546845Y-80044020D01*
X194385785Y-80110733D01*
X194240835Y-80207586D01*
X194117566Y-80330855D01*
X194020713Y-80475805D01*
X193954000Y-80636865D01*
X193919990Y-80807845D01*
X193655124Y-80807845D01*
X193684277Y-80764215D01*
X193750990Y-80603155D01*
X193785000Y-80432175D01*
X193785000Y-80257845D01*
X193750990Y-80086865D01*
X193684277Y-79925805D01*
X193587424Y-79780855D01*
X193464155Y-79657586D01*
X193319205Y-79560733D01*
X193158145Y-79494020D01*
X192987165Y-79460010D01*
X192812835Y-79460010D01*
X192641855Y-79494020D01*
X192480795Y-79560733D01*
X192335845Y-79657586D01*
X192212576Y-79780855D01*
X192115723Y-79925805D01*
X192049010Y-80086865D01*
X192015000Y-80257845D01*
X190585000Y-80257845D01*
X190585000Y-80212835D01*
X190550990Y-80041855D01*
X190484277Y-79880795D01*
X190387424Y-79735845D01*
X190264155Y-79612576D01*
X190119205Y-79515723D01*
X189958145Y-79449010D01*
X189787165Y-79415000D01*
X189612835Y-79415000D01*
X189441855Y-79449010D01*
X189280795Y-79515723D01*
X189135845Y-79612576D01*
X189012576Y-79735845D01*
X188915723Y-79880795D01*
X188849010Y-80041855D01*
X188815000Y-80212835D01*
X188815000Y-80387165D01*
X188849010Y-80558145D01*
X188915723Y-80719205D01*
X189012576Y-80864155D01*
X189135845Y-80987424D01*
X189280795Y-81084277D01*
X189441855Y-81150990D01*
X189512288Y-81165000D01*
X189412835Y-81165000D01*
X189241855Y-81199010D01*
X189080795Y-81265723D01*
X189033518Y-81297313D01*
X189000990Y-81133783D01*
X188934277Y-80972723D01*
X188837424Y-80827773D01*
X188714155Y-80704504D01*
X188569205Y-80607651D01*
X188408145Y-80540938D01*
X188237165Y-80506928D01*
X188062835Y-80506928D01*
X187891855Y-80540938D01*
X187730795Y-80607651D01*
X187585845Y-80704504D01*
X187462576Y-80827773D01*
X187365723Y-80972723D01*
X187299010Y-81133783D01*
X187269921Y-81280023D01*
X187185845Y-81336201D01*
X187062576Y-81459470D01*
X187008406Y-81540541D01*
X186908145Y-81499012D01*
X186737165Y-81465002D01*
X186562835Y-81465002D01*
X186391855Y-81499012D01*
X186286323Y-81542725D01*
X186250272Y-81518636D01*
X186089212Y-81451923D01*
X185918232Y-81417913D01*
X185743902Y-81417913D01*
X185572922Y-81451923D01*
X185411862Y-81518636D01*
X185266912Y-81615489D01*
X185143643Y-81738758D01*
X185046790Y-81883708D01*
X184980077Y-82044768D01*
X184946067Y-82215748D01*
X184370381Y-82215748D01*
X184373252Y-82214559D01*
X184518202Y-82117706D01*
X184641471Y-81994437D01*
X184738324Y-81849487D01*
X184805037Y-81688427D01*
X184839047Y-81517447D01*
X184839047Y-81343117D01*
X184805037Y-81172137D01*
X184738324Y-81011077D01*
X184641471Y-80866127D01*
X184518202Y-80742858D01*
X184373252Y-80646005D01*
X184212192Y-80579292D01*
X184041212Y-80545282D01*
X183866882Y-80545282D01*
X183695902Y-80579292D01*
X183534842Y-80646005D01*
X183389892Y-80742858D01*
X183266623Y-80866127D01*
X183169770Y-81011077D01*
X183103057Y-81172137D01*
X183069047Y-81343117D01*
X183069047Y-81517447D01*
X183103057Y-81688427D01*
X183169770Y-81849487D01*
X183266623Y-81994437D01*
X183364566Y-82092380D01*
X183288970Y-82107417D01*
X183127910Y-82174130D01*
X182982960Y-82270983D01*
X182859691Y-82394252D01*
X182762838Y-82539202D01*
X182696125Y-82700262D01*
X182662115Y-82871242D01*
X178649506Y-82871242D01*
X178684277Y-82819205D01*
X178750990Y-82658145D01*
X178785000Y-82487165D01*
X178785000Y-82312835D01*
X178750990Y-82141855D01*
X178684277Y-81980795D01*
X178587424Y-81835845D01*
X178464155Y-81712576D01*
X178319205Y-81615723D01*
X178158145Y-81549010D01*
X177987165Y-81515000D01*
X177812835Y-81515000D01*
X177641855Y-81549010D01*
X177480795Y-81615723D01*
X177335845Y-81712576D01*
X177212576Y-81835845D01*
X177115723Y-81980795D01*
X177049010Y-82141855D01*
X177015000Y-82312835D01*
X175538970Y-82312835D01*
X175484277Y-82180795D01*
X175387424Y-82035845D01*
X175264155Y-81912576D01*
X175119205Y-81815723D01*
X175060268Y-81791311D01*
X175087424Y-81764155D01*
X175184277Y-81619205D01*
X175250990Y-81458145D01*
X175285000Y-81287165D01*
X175285000Y-81112835D01*
X175250990Y-80941855D01*
X175184277Y-80780795D01*
X175087424Y-80635845D01*
X174964155Y-80512576D01*
X174819205Y-80415723D01*
X174658145Y-80349010D01*
X174487165Y-80315000D01*
X174464743Y-80315000D01*
X174365990Y-80076589D01*
X174291592Y-79965244D01*
X174426329Y-79909434D01*
X174571279Y-79812581D01*
X174694548Y-79689312D01*
X174791401Y-79544362D01*
X174858114Y-79383302D01*
X174892124Y-79212322D01*
X174892124Y-79037992D01*
X174858114Y-78867012D01*
X174835674Y-78812835D01*
X176915000Y-78812835D01*
X176915000Y-78987165D01*
X176949010Y-79158145D01*
X177015723Y-79319205D01*
X177112576Y-79464155D01*
X177235845Y-79587424D01*
X177380795Y-79684277D01*
X177541855Y-79750990D01*
X177628847Y-79768294D01*
X177754746Y-79894192D01*
X177777762Y-79922238D01*
X177889680Y-80014087D01*
X178017367Y-80082337D01*
X178117052Y-80112576D01*
X178155915Y-80124365D01*
X178300000Y-80138556D01*
X178336105Y-80135000D01*
X179650525Y-80135000D01*
X179702949Y-80187424D01*
X179727490Y-80203822D01*
X179727490Y-80287165D01*
X179761500Y-80458145D01*
X179828213Y-80619205D01*
X179925066Y-80764155D01*
X180048335Y-80887424D01*
X180193285Y-80984277D01*
X180354345Y-81050990D01*
X180525325Y-81085000D01*
X180699655Y-81085000D01*
X180870635Y-81050990D01*
X181031695Y-80984277D01*
X181176645Y-80887424D01*
X181299914Y-80764155D01*
X181396767Y-80619205D01*
X181463480Y-80458145D01*
X181497490Y-80287165D01*
X181497490Y-80112835D01*
X181463480Y-79941855D01*
X181396767Y-79780795D01*
X181299914Y-79635845D01*
X181176645Y-79512576D01*
X181152104Y-79496178D01*
X181152104Y-79412835D01*
X181118094Y-79241855D01*
X181051381Y-79080795D01*
X180954528Y-78935845D01*
X180831259Y-78812576D01*
X180759114Y-78764370D01*
X181783011Y-78764370D01*
X181783011Y-78938700D01*
X181817021Y-79109680D01*
X181883734Y-79270740D01*
X181980587Y-79415690D01*
X182103856Y-79538959D01*
X182248806Y-79635812D01*
X182409866Y-79702525D01*
X182411000Y-79702751D01*
X182418938Y-79721915D01*
X182515791Y-79866865D01*
X182639060Y-79990134D01*
X182784010Y-80086987D01*
X182945070Y-80153700D01*
X183116050Y-80187710D01*
X183290380Y-80187710D01*
X183461360Y-80153700D01*
X183622420Y-80086987D01*
X183767370Y-79990134D01*
X183890639Y-79866865D01*
X183924464Y-79816243D01*
X184050669Y-79791139D01*
X184076520Y-79808412D01*
X184237580Y-79875125D01*
X184408560Y-79909135D01*
X184582890Y-79909135D01*
X184753870Y-79875125D01*
X184914930Y-79808412D01*
X184939376Y-79792078D01*
X185050269Y-79814136D01*
X185093908Y-79879445D01*
X185217177Y-80002714D01*
X185362127Y-80099567D01*
X185523187Y-80166280D01*
X185694167Y-80200290D01*
X185868497Y-80200290D01*
X186039477Y-80166280D01*
X186200537Y-80099567D01*
X186345487Y-80002714D01*
X186465476Y-79882725D01*
X186476915Y-79885000D01*
X186651245Y-79885000D01*
X186822225Y-79850990D01*
X186983285Y-79784277D01*
X187128235Y-79687424D01*
X187251504Y-79564155D01*
X187348357Y-79419205D01*
X187415070Y-79258145D01*
X187449080Y-79087165D01*
X187449080Y-78966384D01*
X187598762Y-78966384D01*
X187769742Y-78932374D01*
X187930802Y-78865661D01*
X188075752Y-78768808D01*
X188199021Y-78645539D01*
X188295874Y-78500589D01*
X188362587Y-78339529D01*
X188367896Y-78312835D01*
X191315000Y-78312835D01*
X191315000Y-78487165D01*
X191349010Y-78658145D01*
X191415723Y-78819205D01*
X191512576Y-78964155D01*
X191635845Y-79087424D01*
X191780795Y-79184277D01*
X191941855Y-79250990D01*
X192112835Y-79285000D01*
X192287165Y-79285000D01*
X192458145Y-79250990D01*
X192619205Y-79184277D01*
X192764155Y-79087424D01*
X192887424Y-78964155D01*
X192984277Y-78819205D01*
X193050990Y-78658145D01*
X193085000Y-78487165D01*
X193085000Y-78312835D01*
X195915000Y-78312835D01*
X195915000Y-78487165D01*
X195949010Y-78658145D01*
X196015723Y-78819205D01*
X196112576Y-78964155D01*
X196235845Y-79087424D01*
X196380795Y-79184277D01*
X196541855Y-79250990D01*
X196712835Y-79285000D01*
X196887165Y-79285000D01*
X197058145Y-79250990D01*
X197219205Y-79184277D01*
X197364155Y-79087424D01*
X197487424Y-78964155D01*
X197584277Y-78819205D01*
X197650990Y-78658145D01*
X197685000Y-78487165D01*
X197685000Y-78312835D01*
X197650990Y-78141855D01*
X197584277Y-77980795D01*
X197487424Y-77835845D01*
X197364155Y-77712576D01*
X197219205Y-77615723D01*
X197058145Y-77549010D01*
X196887165Y-77515000D01*
X196712835Y-77515000D01*
X196541855Y-77549010D01*
X196380795Y-77615723D01*
X196235845Y-77712576D01*
X196112576Y-77835845D01*
X196015723Y-77980795D01*
X195949010Y-78141855D01*
X195915000Y-78312835D01*
X193085000Y-78312835D01*
X193050990Y-78141855D01*
X192984277Y-77980795D01*
X192887424Y-77835845D01*
X192764155Y-77712576D01*
X192619205Y-77615723D01*
X192458145Y-77549010D01*
X192287165Y-77515000D01*
X192112835Y-77515000D01*
X191941855Y-77549010D01*
X191780795Y-77615723D01*
X191635845Y-77712576D01*
X191512576Y-77835845D01*
X191415723Y-77980795D01*
X191349010Y-78141855D01*
X191315000Y-78312835D01*
X188367896Y-78312835D01*
X188396597Y-78168549D01*
X188396597Y-77994219D01*
X188362587Y-77823239D01*
X188295874Y-77662179D01*
X188199021Y-77517229D01*
X188168110Y-77486318D01*
X188177753Y-77437842D01*
X188177753Y-77263512D01*
X188143743Y-77092532D01*
X188081626Y-76942568D01*
X188126124Y-76912835D01*
X193215000Y-76912835D01*
X193215000Y-77087165D01*
X193249010Y-77258145D01*
X193315723Y-77419205D01*
X193412576Y-77564155D01*
X193535845Y-77687424D01*
X193680795Y-77784277D01*
X193841855Y-77850990D01*
X194012835Y-77885000D01*
X194187165Y-77885000D01*
X194358145Y-77850990D01*
X194519205Y-77784277D01*
X194664155Y-77687424D01*
X194787424Y-77564155D01*
X194884277Y-77419205D01*
X194950990Y-77258145D01*
X194985000Y-77087165D01*
X194985000Y-76912835D01*
X194950990Y-76741855D01*
X194884277Y-76580795D01*
X194787424Y-76435845D01*
X194664155Y-76312576D01*
X194519205Y-76215723D01*
X194358145Y-76149010D01*
X194187165Y-76115000D01*
X194012835Y-76115000D01*
X193841855Y-76149010D01*
X193680795Y-76215723D01*
X193535845Y-76312576D01*
X193412576Y-76435845D01*
X193315723Y-76580795D01*
X193249010Y-76741855D01*
X193215000Y-76912835D01*
X188126124Y-76912835D01*
X188164155Y-76887424D01*
X188287424Y-76764155D01*
X188384277Y-76619205D01*
X188450990Y-76458145D01*
X188485000Y-76287165D01*
X188485000Y-76112835D01*
X188450990Y-75941855D01*
X188384277Y-75780795D01*
X188287424Y-75635845D01*
X188164155Y-75512576D01*
X188019205Y-75415723D01*
X187866689Y-75352549D01*
X187964155Y-75287424D01*
X188087424Y-75164155D01*
X188184277Y-75019205D01*
X188250990Y-74858145D01*
X188285000Y-74687165D01*
X188285000Y-74512835D01*
X188250990Y-74341855D01*
X188184277Y-74180795D01*
X188087424Y-74035845D01*
X187964155Y-73912576D01*
X187819205Y-73815723D01*
X187658145Y-73749010D01*
X187548461Y-73727192D01*
X187487424Y-73635845D01*
X187364155Y-73512576D01*
X187219205Y-73415723D01*
X187058145Y-73349010D01*
X186887165Y-73315000D01*
X186712835Y-73315000D01*
X186541855Y-73349010D01*
X186380795Y-73415723D01*
X186279558Y-73483368D01*
X186187165Y-73464990D01*
X186012835Y-73464990D01*
X185841855Y-73499000D01*
X185680795Y-73565713D01*
X185535845Y-73662566D01*
X185412576Y-73785835D01*
X185315723Y-73930785D01*
X185249010Y-74091845D01*
X185215000Y-74262825D01*
X185215000Y-74437155D01*
X185249010Y-74608135D01*
X185315723Y-74769195D01*
X185412576Y-74914145D01*
X185535845Y-75037414D01*
X185680795Y-75134267D01*
X185841855Y-75200980D01*
X186012835Y-75234990D01*
X186187165Y-75234990D01*
X186358145Y-75200980D01*
X186519205Y-75134267D01*
X186620442Y-75066622D01*
X186651539Y-75072808D01*
X186712576Y-75164155D01*
X186835845Y-75287424D01*
X186980795Y-75384277D01*
X187133311Y-75447451D01*
X187035845Y-75512576D01*
X186912576Y-75635845D01*
X186815723Y-75780795D01*
X186749010Y-75941855D01*
X186715000Y-76112835D01*
X186715000Y-76287165D01*
X186749010Y-76458145D01*
X186811127Y-76608109D01*
X186728598Y-76663253D01*
X186605329Y-76786522D01*
X186508476Y-76931472D01*
X186441763Y-77092532D01*
X186407753Y-77263512D01*
X186407753Y-77437842D01*
X186441763Y-77608822D01*
X186508476Y-77769882D01*
X186605329Y-77914832D01*
X186636240Y-77945743D01*
X186626597Y-77994219D01*
X186626597Y-78115000D01*
X186476915Y-78115000D01*
X186305935Y-78149010D01*
X186144875Y-78215723D01*
X185999925Y-78312576D01*
X185901633Y-78410868D01*
X185878040Y-78375559D01*
X185754771Y-78252290D01*
X185609821Y-78155437D01*
X185448761Y-78088724D01*
X185277781Y-78054714D01*
X185103451Y-78054714D01*
X184932471Y-78088724D01*
X184771411Y-78155437D01*
X184746965Y-78171771D01*
X184582890Y-78139135D01*
X184408560Y-78139135D01*
X184246041Y-78171462D01*
X184220190Y-78154189D01*
X184059130Y-78087476D01*
X183888150Y-78053466D01*
X183713820Y-78053466D01*
X183542840Y-78087476D01*
X183381780Y-78154189D01*
X183286145Y-78218090D01*
X183232166Y-78164111D01*
X183087216Y-78067258D01*
X182926156Y-78000545D01*
X182755176Y-77966535D01*
X182580846Y-77966535D01*
X182409866Y-78000545D01*
X182248806Y-78067258D01*
X182103856Y-78164111D01*
X181980587Y-78287380D01*
X181883734Y-78432330D01*
X181817021Y-78593390D01*
X181783011Y-78764370D01*
X180759114Y-78764370D01*
X180686309Y-78715723D01*
X180525249Y-78649010D01*
X180354269Y-78615000D01*
X180179939Y-78615000D01*
X180008959Y-78649010D01*
X179970356Y-78665000D01*
X178655594Y-78665000D01*
X178650990Y-78641855D01*
X178584277Y-78480795D01*
X178487424Y-78335845D01*
X178364155Y-78212576D01*
X178219205Y-78115723D01*
X178058145Y-78049010D01*
X177887165Y-78015000D01*
X177712835Y-78015000D01*
X177541855Y-78049010D01*
X177380795Y-78115723D01*
X177235845Y-78212576D01*
X177112576Y-78335845D01*
X177015723Y-78480795D01*
X176949010Y-78641855D01*
X176915000Y-78812835D01*
X174835674Y-78812835D01*
X174791401Y-78705952D01*
X174694548Y-78561002D01*
X174571279Y-78437733D01*
X174530219Y-78410297D01*
X174535000Y-78386260D01*
X174535000Y-78093740D01*
X174477932Y-77806842D01*
X174365990Y-77536589D01*
X174203475Y-77293368D01*
X173996632Y-77086525D01*
X173822240Y-76970000D01*
X173996632Y-76853475D01*
X174203475Y-76646632D01*
X174228980Y-76608461D01*
X178841556Y-76608461D01*
X178841556Y-76782791D01*
X178875566Y-76953771D01*
X178942279Y-77114831D01*
X179039132Y-77259781D01*
X179162401Y-77383050D01*
X179307351Y-77479903D01*
X179468411Y-77546616D01*
X179639391Y-77580626D01*
X179813721Y-77580626D01*
X179984701Y-77546616D01*
X180145761Y-77479903D01*
X180290711Y-77383050D01*
X180413980Y-77259781D01*
X180510833Y-77114831D01*
X180577546Y-76953771D01*
X180611556Y-76782791D01*
X180611556Y-76608461D01*
X180577546Y-76437481D01*
X180510833Y-76276421D01*
X180413980Y-76131471D01*
X180290711Y-76008202D01*
X180145761Y-75911349D01*
X179984701Y-75844636D01*
X179813721Y-75810626D01*
X179639391Y-75810626D01*
X179468411Y-75844636D01*
X179307351Y-75911349D01*
X179162401Y-76008202D01*
X179039132Y-76131471D01*
X178942279Y-76276421D01*
X178875566Y-76437481D01*
X178841556Y-76608461D01*
X174228980Y-76608461D01*
X174365990Y-76403411D01*
X174477932Y-76133158D01*
X174535000Y-75846260D01*
X174535000Y-75553740D01*
X174477932Y-75266842D01*
X174365990Y-74996589D01*
X174203475Y-74753368D01*
X173996632Y-74546525D01*
X173814466Y-74424805D01*
X173931355Y-74355178D01*
X174147588Y-74160269D01*
X174321641Y-73926920D01*
X174446825Y-73664099D01*
X174491476Y-73516890D01*
X174432876Y-73405850D01*
X174541855Y-73450990D01*
X174712835Y-73485000D01*
X174887165Y-73485000D01*
X175058145Y-73450990D01*
X175219205Y-73384277D01*
X175364155Y-73287424D01*
X175487424Y-73164155D01*
X175584277Y-73019205D01*
X175650990Y-72858145D01*
X175685000Y-72687165D01*
X175685000Y-72512835D01*
X175650990Y-72341855D01*
X175584277Y-72180795D01*
X175487424Y-72035845D01*
X175368859Y-71917280D01*
X175384277Y-71894205D01*
X175450990Y-71733145D01*
X175465539Y-71660000D01*
X176967581Y-71660000D01*
X177000000Y-71663193D01*
X177032419Y-71660000D01*
X177129383Y-71650450D01*
X177253793Y-71612710D01*
X177368450Y-71551425D01*
X177468948Y-71468948D01*
X177551425Y-71368450D01*
X177612710Y-71253793D01*
X177650450Y-71129383D01*
X177663193Y-71000000D01*
X177660000Y-70967581D01*
X177660000Y-70474490D01*
X177712835Y-70485000D01*
X177887165Y-70485000D01*
X178058145Y-70450990D01*
X178219205Y-70384277D01*
X178364155Y-70287424D01*
X178487424Y-70164155D01*
X178584277Y-70019205D01*
X178650990Y-69858145D01*
X178685000Y-69687165D01*
X178685000Y-69660000D01*
X179629618Y-69660000D01*
X179615723Y-69680795D01*
G36*
X173177000Y-73033000D02*
G01*
X173197000Y-73033000D01*
X173197000Y-73287000D01*
X173177000Y-73287000D01*
X173177000Y-73307000D01*
X172923000Y-73307000D01*
X172923000Y-73287000D01*
X172903000Y-73287000D01*
X172903000Y-73033000D01*
X172923000Y-73033000D01*
X172923000Y-73013000D01*
X173177000Y-73013000D01*
X173177000Y-73033000D01*
G37*
X173177000Y-73033000D02*
X173197000Y-73033000D01*
X173197000Y-73287000D01*
X173177000Y-73287000D01*
X173177000Y-73307000D01*
X172923000Y-73307000D01*
X172923000Y-73287000D01*
X172903000Y-73287000D01*
X172903000Y-73033000D01*
X172923000Y-73033000D01*
X172923000Y-73013000D01*
X173177000Y-73013000D01*
X173177000Y-73033000D01*
M02*
