G04 #@! TF.GenerationSoftware,KiCad,Pcbnew,5.1.5+dfsg1-2build2*
G04 #@! TF.CreationDate,2021-08-15T10:11:15+01:00*
G04 #@! TF.ProjectId,picopak,7069636f-7061-46b2-9e6b-696361645f70,rev?*
G04 #@! TF.SameCoordinates,Original*
G04 #@! TF.FileFunction,Legend,Bot*
G04 #@! TF.FilePolarity,Positive*
%FSLAX46Y46*%
G04 Gerber Fmt 4.6, Leading zero omitted, Abs format (unit mm)*
G04 Created by KiCad (PCBNEW 5.1.5+dfsg1-2build2) date 2021-08-15 10:11:15*
%MOMM*%
%LPD*%
G04 APERTURE LIST*
%ADD10C,0.150000*%
%ADD11C,0.100000*%
%ADD12C,0.120000*%
G04 APERTURE END LIST*
D10*
X163302380Y-69773928D02*
X162302380Y-69773928D01*
X162302380Y-70154880D01*
X162350000Y-70250119D01*
X162397619Y-70297738D01*
X162492857Y-70345357D01*
X162635714Y-70345357D01*
X162730952Y-70297738D01*
X162778571Y-70250119D01*
X162826190Y-70154880D01*
X162826190Y-69773928D01*
X163302380Y-70773928D02*
X162635714Y-70773928D01*
X162302380Y-70773928D02*
X162350000Y-70726309D01*
X162397619Y-70773928D01*
X162350000Y-70821547D01*
X162302380Y-70773928D01*
X162397619Y-70773928D01*
X163254761Y-71678690D02*
X163302380Y-71583452D01*
X163302380Y-71392976D01*
X163254761Y-71297738D01*
X163207142Y-71250119D01*
X163111904Y-71202500D01*
X162826190Y-71202500D01*
X162730952Y-71250119D01*
X162683333Y-71297738D01*
X162635714Y-71392976D01*
X162635714Y-71583452D01*
X162683333Y-71678690D01*
X163302380Y-72250119D02*
X163254761Y-72154880D01*
X163207142Y-72107261D01*
X163111904Y-72059642D01*
X162826190Y-72059642D01*
X162730952Y-72107261D01*
X162683333Y-72154880D01*
X162635714Y-72250119D01*
X162635714Y-72392976D01*
X162683333Y-72488214D01*
X162730952Y-72535833D01*
X162826190Y-72583452D01*
X163111904Y-72583452D01*
X163207142Y-72535833D01*
X163254761Y-72488214D01*
X163302380Y-72392976D01*
X163302380Y-72250119D01*
X163302380Y-73012023D02*
X162302380Y-73012023D01*
X162302380Y-73392976D01*
X162350000Y-73488214D01*
X162397619Y-73535833D01*
X162492857Y-73583452D01*
X162635714Y-73583452D01*
X162730952Y-73535833D01*
X162778571Y-73488214D01*
X162826190Y-73392976D01*
X162826190Y-73012023D01*
X163302380Y-74440595D02*
X162778571Y-74440595D01*
X162683333Y-74392976D01*
X162635714Y-74297738D01*
X162635714Y-74107261D01*
X162683333Y-74012023D01*
X163254761Y-74440595D02*
X163302380Y-74345357D01*
X163302380Y-74107261D01*
X163254761Y-74012023D01*
X163159523Y-73964404D01*
X163064285Y-73964404D01*
X162969047Y-74012023D01*
X162921428Y-74107261D01*
X162921428Y-74345357D01*
X162873809Y-74440595D01*
X163302380Y-74916785D02*
X162302380Y-74916785D01*
X162921428Y-75012023D02*
X163302380Y-75297738D01*
X162635714Y-75297738D02*
X163016666Y-74916785D01*
X162635714Y-76345357D02*
X162635714Y-76726309D01*
X163302380Y-76488214D02*
X162445238Y-76488214D01*
X162350000Y-76535833D01*
X162302380Y-76631071D01*
X162302380Y-76726309D01*
X163302380Y-77202500D02*
X163254761Y-77107261D01*
X163207142Y-77059642D01*
X163111904Y-77012023D01*
X162826190Y-77012023D01*
X162730952Y-77059642D01*
X162683333Y-77107261D01*
X162635714Y-77202500D01*
X162635714Y-77345357D01*
X162683333Y-77440595D01*
X162730952Y-77488214D01*
X162826190Y-77535833D01*
X163111904Y-77535833D01*
X163207142Y-77488214D01*
X163254761Y-77440595D01*
X163302380Y-77345357D01*
X163302380Y-77202500D01*
X163302380Y-77964404D02*
X162635714Y-77964404D01*
X162826190Y-77964404D02*
X162730952Y-78012023D01*
X162683333Y-78059642D01*
X162635714Y-78154880D01*
X162635714Y-78250119D01*
X163302380Y-79345357D02*
X162302380Y-79345357D01*
X162302380Y-79726309D01*
X162350000Y-79821547D01*
X162397619Y-79869166D01*
X162492857Y-79916785D01*
X162635714Y-79916785D01*
X162730952Y-79869166D01*
X162778571Y-79821547D01*
X162826190Y-79726309D01*
X162826190Y-79345357D01*
X163254761Y-80297738D02*
X163302380Y-80392976D01*
X163302380Y-80583452D01*
X163254761Y-80678690D01*
X163159523Y-80726309D01*
X163111904Y-80726309D01*
X163016666Y-80678690D01*
X162969047Y-80583452D01*
X162969047Y-80440595D01*
X162921428Y-80345357D01*
X162826190Y-80297738D01*
X162778571Y-80297738D01*
X162683333Y-80345357D01*
X162635714Y-80440595D01*
X162635714Y-80583452D01*
X162683333Y-80678690D01*
X163302380Y-81154880D02*
X162635714Y-81154880D01*
X162302380Y-81154880D02*
X162350000Y-81107261D01*
X162397619Y-81154880D01*
X162350000Y-81202500D01*
X162302380Y-81154880D01*
X162397619Y-81154880D01*
X163302380Y-81773928D02*
X163254761Y-81678690D01*
X163207142Y-81631071D01*
X163111904Y-81583452D01*
X162826190Y-81583452D01*
X162730952Y-81631071D01*
X162683333Y-81678690D01*
X162635714Y-81773928D01*
X162635714Y-81916785D01*
X162683333Y-82012023D01*
X162730952Y-82059642D01*
X162826190Y-82107261D01*
X163111904Y-82107261D01*
X163207142Y-82059642D01*
X163254761Y-82012023D01*
X163302380Y-81916785D01*
X163302380Y-81773928D01*
X162635714Y-82535833D02*
X163302380Y-82535833D01*
X162730952Y-82535833D02*
X162683333Y-82583452D01*
X162635714Y-82678690D01*
X162635714Y-82821547D01*
X162683333Y-82916785D01*
X162778571Y-82964404D01*
X163302380Y-82964404D01*
X162302380Y-84059642D02*
X163302380Y-84392976D01*
X162302380Y-84726309D01*
X163302380Y-85583452D02*
X163302380Y-85012023D01*
X163302380Y-85297738D02*
X162302380Y-85297738D01*
X162445238Y-85202500D01*
X162540476Y-85107261D01*
X162588095Y-85012023D01*
X163207142Y-86012023D02*
X163254761Y-86059642D01*
X163302380Y-86012023D01*
X163254761Y-85964404D01*
X163207142Y-86012023D01*
X163302380Y-86012023D01*
X163302380Y-87012023D02*
X163302380Y-86440595D01*
X163302380Y-86726309D02*
X162302380Y-86726309D01*
X162445238Y-86631071D01*
X162540476Y-86535833D01*
X162588095Y-86440595D01*
X164666666Y-77869166D02*
X164666666Y-78345357D01*
X164952380Y-77773928D02*
X163952380Y-78107261D01*
X164952380Y-78440595D01*
X164285714Y-79202500D02*
X164952380Y-79202500D01*
X164285714Y-78773928D02*
X164809523Y-78773928D01*
X164904761Y-78821547D01*
X164952380Y-78916785D01*
X164952380Y-79059642D01*
X164904761Y-79154880D01*
X164857142Y-79202500D01*
X164285714Y-80107261D02*
X165095238Y-80107261D01*
X165190476Y-80059642D01*
X165238095Y-80012023D01*
X165285714Y-79916785D01*
X165285714Y-79773928D01*
X165238095Y-79678690D01*
X164904761Y-80107261D02*
X164952380Y-80012023D01*
X164952380Y-79821547D01*
X164904761Y-79726309D01*
X164857142Y-79678690D01*
X164761904Y-79631071D01*
X164476190Y-79631071D01*
X164380952Y-79678690D01*
X164333333Y-79726309D01*
X164285714Y-79821547D01*
X164285714Y-80012023D01*
X164333333Y-80107261D01*
X164285714Y-81012023D02*
X164952380Y-81012023D01*
X164285714Y-80583452D02*
X164809523Y-80583452D01*
X164904761Y-80631071D01*
X164952380Y-80726309D01*
X164952380Y-80869166D01*
X164904761Y-80964404D01*
X164857142Y-81012023D01*
X164904761Y-81440595D02*
X164952380Y-81535833D01*
X164952380Y-81726309D01*
X164904761Y-81821547D01*
X164809523Y-81869166D01*
X164761904Y-81869166D01*
X164666666Y-81821547D01*
X164619047Y-81726309D01*
X164619047Y-81583452D01*
X164571428Y-81488214D01*
X164476190Y-81440595D01*
X164428571Y-81440595D01*
X164333333Y-81488214D01*
X164285714Y-81583452D01*
X164285714Y-81726309D01*
X164333333Y-81821547D01*
X164285714Y-82154880D02*
X164285714Y-82535833D01*
X163952380Y-82297738D02*
X164809523Y-82297738D01*
X164904761Y-82345357D01*
X164952380Y-82440595D01*
X164952380Y-82535833D01*
X164047619Y-83583452D02*
X164000000Y-83631071D01*
X163952380Y-83726309D01*
X163952380Y-83964404D01*
X164000000Y-84059642D01*
X164047619Y-84107261D01*
X164142857Y-84154880D01*
X164238095Y-84154880D01*
X164380952Y-84107261D01*
X164952380Y-83535833D01*
X164952380Y-84154880D01*
X163952380Y-84773928D02*
X163952380Y-84869166D01*
X164000000Y-84964404D01*
X164047619Y-85012023D01*
X164142857Y-85059642D01*
X164333333Y-85107261D01*
X164571428Y-85107261D01*
X164761904Y-85059642D01*
X164857142Y-85012023D01*
X164904761Y-84964404D01*
X164952380Y-84869166D01*
X164952380Y-84773928D01*
X164904761Y-84678690D01*
X164857142Y-84631071D01*
X164761904Y-84583452D01*
X164571428Y-84535833D01*
X164333333Y-84535833D01*
X164142857Y-84583452D01*
X164047619Y-84631071D01*
X164000000Y-84678690D01*
X163952380Y-84773928D01*
X164047619Y-85488214D02*
X164000000Y-85535833D01*
X163952380Y-85631071D01*
X163952380Y-85869166D01*
X164000000Y-85964404D01*
X164047619Y-86012023D01*
X164142857Y-86059642D01*
X164238095Y-86059642D01*
X164380952Y-86012023D01*
X164952380Y-85440595D01*
X164952380Y-86059642D01*
X164952380Y-87012023D02*
X164952380Y-86440595D01*
X164952380Y-86726309D02*
X163952380Y-86726309D01*
X164095238Y-86631071D01*
X164190476Y-86535833D01*
X164238095Y-86440595D01*
X166602380Y-71773928D02*
X165935714Y-71773928D01*
X166030952Y-71773928D02*
X165983333Y-71821547D01*
X165935714Y-71916785D01*
X165935714Y-72059642D01*
X165983333Y-72154880D01*
X166078571Y-72202500D01*
X166602380Y-72202500D01*
X166078571Y-72202500D02*
X165983333Y-72250119D01*
X165935714Y-72345357D01*
X165935714Y-72488214D01*
X165983333Y-72583452D01*
X166078571Y-72631071D01*
X166602380Y-72631071D01*
X166554761Y-73488214D02*
X166602380Y-73392976D01*
X166602380Y-73202500D01*
X166554761Y-73107261D01*
X166459523Y-73059642D01*
X166078571Y-73059642D01*
X165983333Y-73107261D01*
X165935714Y-73202500D01*
X165935714Y-73392976D01*
X165983333Y-73488214D01*
X166078571Y-73535833D01*
X166173809Y-73535833D01*
X166269047Y-73059642D01*
X165935714Y-73964404D02*
X166602380Y-73964404D01*
X166030952Y-73964404D02*
X165983333Y-74012023D01*
X165935714Y-74107261D01*
X165935714Y-74250119D01*
X165983333Y-74345357D01*
X166078571Y-74392976D01*
X166602380Y-74392976D01*
X166602380Y-75297738D02*
X166078571Y-75297738D01*
X165983333Y-75250119D01*
X165935714Y-75154880D01*
X165935714Y-74964404D01*
X165983333Y-74869166D01*
X166554761Y-75297738D02*
X166602380Y-75202500D01*
X166602380Y-74964404D01*
X166554761Y-74869166D01*
X166459523Y-74821547D01*
X166364285Y-74821547D01*
X166269047Y-74869166D01*
X166221428Y-74964404D01*
X166221428Y-75202500D01*
X166173809Y-75297738D01*
X166602380Y-76202500D02*
X165602380Y-76202500D01*
X166554761Y-76202500D02*
X166602380Y-76107261D01*
X166602380Y-75916785D01*
X166554761Y-75821547D01*
X166507142Y-75773928D01*
X166411904Y-75726309D01*
X166126190Y-75726309D01*
X166030952Y-75773928D01*
X165983333Y-75821547D01*
X165935714Y-75916785D01*
X165935714Y-76107261D01*
X165983333Y-76202500D01*
X165935714Y-77107261D02*
X166602380Y-77107261D01*
X165935714Y-76678690D02*
X166459523Y-76678690D01*
X166554761Y-76726309D01*
X166602380Y-76821547D01*
X166602380Y-76964404D01*
X166554761Y-77059642D01*
X166507142Y-77107261D01*
X166554761Y-77964404D02*
X166602380Y-77869166D01*
X166602380Y-77678690D01*
X166554761Y-77583452D01*
X166459523Y-77535833D01*
X166078571Y-77535833D01*
X165983333Y-77583452D01*
X165935714Y-77678690D01*
X165935714Y-77869166D01*
X165983333Y-77964404D01*
X166078571Y-78012023D01*
X166173809Y-78012023D01*
X166269047Y-77535833D01*
X166126190Y-79059642D02*
X166078571Y-79012023D01*
X166030952Y-78916785D01*
X166030952Y-78821547D01*
X166078571Y-78726309D01*
X166126190Y-78678690D01*
X166221428Y-78631071D01*
X166316666Y-78631071D01*
X166411904Y-78678690D01*
X166459523Y-78726309D01*
X166507142Y-78821547D01*
X166507142Y-78916785D01*
X166459523Y-79012023D01*
X166411904Y-79059642D01*
X166030952Y-79059642D02*
X166411904Y-79059642D01*
X166459523Y-79107261D01*
X166459523Y-79154880D01*
X166411904Y-79250119D01*
X166316666Y-79297738D01*
X166078571Y-79297738D01*
X165935714Y-79202500D01*
X165840476Y-79059642D01*
X165792857Y-78869166D01*
X165840476Y-78678690D01*
X165935714Y-78535833D01*
X166078571Y-78440595D01*
X166269047Y-78392976D01*
X166459523Y-78440595D01*
X166602380Y-78535833D01*
X166697619Y-78678690D01*
X166745238Y-78869166D01*
X166697619Y-79059642D01*
X166602380Y-79202500D01*
X165935714Y-80154880D02*
X166745238Y-80154880D01*
X166840476Y-80107261D01*
X166888095Y-80059642D01*
X166935714Y-79964404D01*
X166935714Y-79821547D01*
X166888095Y-79726309D01*
X166554761Y-80154880D02*
X166602380Y-80059642D01*
X166602380Y-79869166D01*
X166554761Y-79773928D01*
X166507142Y-79726309D01*
X166411904Y-79678690D01*
X166126190Y-79678690D01*
X166030952Y-79726309D01*
X165983333Y-79773928D01*
X165935714Y-79869166D01*
X165935714Y-80059642D01*
X165983333Y-80154880D01*
X166602380Y-80631071D02*
X165935714Y-80631071D01*
X166030952Y-80631071D02*
X165983333Y-80678690D01*
X165935714Y-80773928D01*
X165935714Y-80916785D01*
X165983333Y-81012023D01*
X166078571Y-81059642D01*
X166602380Y-81059642D01*
X166078571Y-81059642D02*
X165983333Y-81107261D01*
X165935714Y-81202500D01*
X165935714Y-81345357D01*
X165983333Y-81440595D01*
X166078571Y-81488214D01*
X166602380Y-81488214D01*
X166602380Y-82392976D02*
X166078571Y-82392976D01*
X165983333Y-82345357D01*
X165935714Y-82250119D01*
X165935714Y-82059642D01*
X165983333Y-81964404D01*
X166554761Y-82392976D02*
X166602380Y-82297738D01*
X166602380Y-82059642D01*
X166554761Y-81964404D01*
X166459523Y-81916785D01*
X166364285Y-81916785D01*
X166269047Y-81964404D01*
X166221428Y-82059642D01*
X166221428Y-82297738D01*
X166173809Y-82392976D01*
X166602380Y-82869166D02*
X165935714Y-82869166D01*
X165602380Y-82869166D02*
X165650000Y-82821547D01*
X165697619Y-82869166D01*
X165650000Y-82916785D01*
X165602380Y-82869166D01*
X165697619Y-82869166D01*
X166602380Y-83488214D02*
X166554761Y-83392976D01*
X166459523Y-83345357D01*
X165602380Y-83345357D01*
X166507142Y-83869166D02*
X166554761Y-83916785D01*
X166602380Y-83869166D01*
X166554761Y-83821547D01*
X166507142Y-83869166D01*
X166602380Y-83869166D01*
X166554761Y-84773928D02*
X166602380Y-84678690D01*
X166602380Y-84488214D01*
X166554761Y-84392976D01*
X166507142Y-84345357D01*
X166411904Y-84297738D01*
X166126190Y-84297738D01*
X166030952Y-84345357D01*
X165983333Y-84392976D01*
X165935714Y-84488214D01*
X165935714Y-84678690D01*
X165983333Y-84773928D01*
X166602380Y-85345357D02*
X166554761Y-85250119D01*
X166507142Y-85202500D01*
X166411904Y-85154880D01*
X166126190Y-85154880D01*
X166030952Y-85202500D01*
X165983333Y-85250119D01*
X165935714Y-85345357D01*
X165935714Y-85488214D01*
X165983333Y-85583452D01*
X166030952Y-85631071D01*
X166126190Y-85678690D01*
X166411904Y-85678690D01*
X166507142Y-85631071D01*
X166554761Y-85583452D01*
X166602380Y-85488214D01*
X166602380Y-85345357D01*
X166602380Y-86107261D02*
X165935714Y-86107261D01*
X166030952Y-86107261D02*
X165983333Y-86154880D01*
X165935714Y-86250119D01*
X165935714Y-86392976D01*
X165983333Y-86488214D01*
X166078571Y-86535833D01*
X166602380Y-86535833D01*
X166078571Y-86535833D02*
X165983333Y-86583452D01*
X165935714Y-86678690D01*
X165935714Y-86821547D01*
X165983333Y-86916785D01*
X166078571Y-86964404D01*
X166602380Y-86964404D01*
X184590476Y-72604761D02*
X184447619Y-72652380D01*
X184209523Y-72652380D01*
X184114285Y-72604761D01*
X184066666Y-72557142D01*
X184019047Y-72461904D01*
X184019047Y-72366666D01*
X184066666Y-72271428D01*
X184114285Y-72223809D01*
X184209523Y-72176190D01*
X184400000Y-72128571D01*
X184495238Y-72080952D01*
X184542857Y-72033333D01*
X184590476Y-71938095D01*
X184590476Y-71842857D01*
X184542857Y-71747619D01*
X184495238Y-71700000D01*
X184400000Y-71652380D01*
X184161904Y-71652380D01*
X184019047Y-71700000D01*
X183019047Y-72557142D02*
X183066666Y-72604761D01*
X183209523Y-72652380D01*
X183304761Y-72652380D01*
X183447619Y-72604761D01*
X183542857Y-72509523D01*
X183590476Y-72414285D01*
X183638095Y-72223809D01*
X183638095Y-72080952D01*
X183590476Y-71890476D01*
X183542857Y-71795238D01*
X183447619Y-71700000D01*
X183304761Y-71652380D01*
X183209523Y-71652380D01*
X183066666Y-71700000D01*
X183019047Y-71747619D01*
X182114285Y-72652380D02*
X182590476Y-72652380D01*
X182590476Y-71652380D01*
X181780952Y-72652380D02*
X181780952Y-71652380D01*
X181209523Y-72652380D02*
X181638095Y-72080952D01*
X181209523Y-71652380D02*
X181780952Y-72223809D01*
X183161904Y-70600000D02*
X183257142Y-70552380D01*
X183400000Y-70552380D01*
X183542857Y-70600000D01*
X183638095Y-70695238D01*
X183685714Y-70790476D01*
X183733333Y-70980952D01*
X183733333Y-71123809D01*
X183685714Y-71314285D01*
X183638095Y-71409523D01*
X183542857Y-71504761D01*
X183400000Y-71552380D01*
X183304761Y-71552380D01*
X183161904Y-71504761D01*
X183114285Y-71457142D01*
X183114285Y-71123809D01*
X183304761Y-71123809D01*
X182685714Y-71552380D02*
X182685714Y-70552380D01*
X182114285Y-71552380D01*
X182114285Y-70552380D01*
X181638095Y-71552380D02*
X181638095Y-70552380D01*
X181400000Y-70552380D01*
X181257142Y-70600000D01*
X181161904Y-70695238D01*
X181114285Y-70790476D01*
X181066666Y-70980952D01*
X181066666Y-71123809D01*
X181114285Y-71314285D01*
X181161904Y-71409523D01*
X181257142Y-71504761D01*
X181400000Y-71552380D01*
X181638095Y-71552380D01*
D11*
X183757142Y-70304761D02*
X183614285Y-70352380D01*
X183376190Y-70352380D01*
X183280952Y-70304761D01*
X183233333Y-70257142D01*
X183185714Y-70161904D01*
X183185714Y-70066666D01*
X183233333Y-69971428D01*
X183280952Y-69923809D01*
X183376190Y-69876190D01*
X183566666Y-69828571D01*
X183661904Y-69780952D01*
X183709523Y-69733333D01*
X183757142Y-69638095D01*
X183757142Y-69542857D01*
X183709523Y-69447619D01*
X183661904Y-69400000D01*
X183566666Y-69352380D01*
X183328571Y-69352380D01*
X183185714Y-69400000D01*
X182852380Y-69352380D02*
X182614285Y-70352380D01*
X182423809Y-69638095D01*
X182233333Y-70352380D01*
X181995238Y-69352380D01*
X181614285Y-70352380D02*
X181614285Y-69352380D01*
X181376190Y-69352380D01*
X181233333Y-69400000D01*
X181138095Y-69495238D01*
X181090476Y-69590476D01*
X181042857Y-69780952D01*
X181042857Y-69923809D01*
X181090476Y-70114285D01*
X181138095Y-70209523D01*
X181233333Y-70304761D01*
X181376190Y-70352380D01*
X181614285Y-70352380D01*
D12*
X188610000Y-73840000D02*
X188610000Y-73190000D01*
X188610000Y-73190000D02*
X187960000Y-73190000D01*
X181390000Y-79760000D02*
X181390000Y-80410000D01*
X181390000Y-80410000D02*
X182040000Y-80410000D01*
X181390000Y-73840000D02*
X181390000Y-73190000D01*
X181390000Y-73190000D02*
X182040000Y-73190000D01*
X188610000Y-79760000D02*
X188610000Y-80410000D01*
X179400000Y-76300000D02*
X179400000Y-81700000D01*
X174900000Y-76300000D02*
X179400000Y-76300000D01*
X203300000Y-69200000D02*
X203300000Y-69700000D01*
X208300000Y-69200000D02*
X203300000Y-69200000D01*
X176800000Y-69200000D02*
X176800000Y-78200000D01*
X203300000Y-69200000D02*
X176800000Y-69200000D01*
X203300000Y-78200000D02*
X203300000Y-69200000D01*
X176800000Y-78200000D02*
X203300000Y-78200000D01*
X169800000Y-81200000D02*
X208300000Y-81200000D01*
X169800000Y-69200000D02*
X169800000Y-81200000D01*
X208300000Y-69200000D02*
X169800000Y-69200000D01*
X208300000Y-81200000D02*
X208300000Y-69200000D01*
X193800000Y-87850000D02*
X193800000Y-87750000D01*
X189400000Y-86050000D02*
X193800000Y-86050000D01*
X193800000Y-89550000D02*
X189400000Y-89550000D01*
X189400000Y-87850000D02*
X189400000Y-87750000D01*
X200400000Y-87850000D02*
X200400000Y-87750000D01*
X196000000Y-86050000D02*
X200400000Y-86050000D01*
X200400000Y-89550000D02*
X196000000Y-89550000D01*
X196000000Y-87850000D02*
X196000000Y-87750000D01*
X187200000Y-87850000D02*
X187200000Y-87750000D01*
X182800000Y-86050000D02*
X187200000Y-86050000D01*
X187200000Y-89550000D02*
X182800000Y-89550000D01*
X182800000Y-87850000D02*
X182800000Y-87750000D01*
X180600000Y-87850000D02*
X180600000Y-87750000D01*
X176200000Y-86050000D02*
X180600000Y-86050000D01*
X180600000Y-89550000D02*
X176200000Y-89550000D01*
X176200000Y-87850000D02*
X176200000Y-87750000D01*
X178495000Y-71260000D02*
X178495000Y-72140000D01*
X177105000Y-72260000D02*
X177105000Y-73260000D01*
X177105000Y-70140000D02*
X177105000Y-71140000D01*
X177105000Y-73260000D02*
X177105000Y-73260000D01*
X178495000Y-70140000D02*
X178495000Y-70140000D01*
X178495000Y-70140000D02*
X179490000Y-70140000D01*
X178495000Y-73260000D02*
X177105000Y-73260000D01*
X178495000Y-70140000D02*
X177105000Y-70140000D01*
X197325000Y-79735000D02*
X199000000Y-79735000D01*
X197325000Y-79475000D02*
X197325000Y-79735000D01*
X194600000Y-79475000D02*
X197325000Y-79475000D01*
X191875000Y-79475000D02*
X191875000Y-79735000D01*
X194600000Y-79475000D02*
X191875000Y-79475000D01*
X197325000Y-84925000D02*
X197325000Y-84665000D01*
X194600000Y-84925000D02*
X197325000Y-84925000D01*
X191875000Y-84925000D02*
X191875000Y-84665000D01*
X194600000Y-84925000D02*
X191875000Y-84925000D01*
X203700000Y-72490000D02*
X197690000Y-72490000D01*
X201450000Y-79310000D02*
X197690000Y-79310000D01*
X197690000Y-72490000D02*
X197690000Y-73750000D01*
X197690000Y-79310000D02*
X197690000Y-78050000D01*
X202910000Y-87541422D02*
X202910000Y-88058578D01*
X201490000Y-87541422D02*
X201490000Y-88058578D01*
D10*
X200766666Y-71957142D02*
X200814285Y-72004761D01*
X200957142Y-72052380D01*
X201052380Y-72052380D01*
X201195238Y-72004761D01*
X201290476Y-71909523D01*
X201338095Y-71814285D01*
X201385714Y-71623809D01*
X201385714Y-71480952D01*
X201338095Y-71290476D01*
X201290476Y-71195238D01*
X201195238Y-71100000D01*
X201052380Y-71052380D01*
X200957142Y-71052380D01*
X200814285Y-71100000D01*
X200766666Y-71147619D01*
X199909523Y-71385714D02*
X199909523Y-72052380D01*
X200147619Y-71004761D02*
X200385714Y-71719047D01*
X199766666Y-71719047D01*
X177566666Y-74587142D02*
X177614285Y-74634761D01*
X177757142Y-74682380D01*
X177852380Y-74682380D01*
X177995238Y-74634761D01*
X178090476Y-74539523D01*
X178138095Y-74444285D01*
X178185714Y-74253809D01*
X178185714Y-74110952D01*
X178138095Y-73920476D01*
X178090476Y-73825238D01*
X177995238Y-73730000D01*
X177852380Y-73682380D01*
X177757142Y-73682380D01*
X177614285Y-73730000D01*
X177566666Y-73777619D01*
X177185714Y-73777619D02*
X177138095Y-73730000D01*
X177042857Y-73682380D01*
X176804761Y-73682380D01*
X176709523Y-73730000D01*
X176661904Y-73777619D01*
X176614285Y-73872857D01*
X176614285Y-73968095D01*
X176661904Y-74110952D01*
X177233333Y-74682380D01*
X176614285Y-74682380D01*
X178187142Y-82833333D02*
X178234761Y-82785714D01*
X178282380Y-82642857D01*
X178282380Y-82547619D01*
X178234761Y-82404761D01*
X178139523Y-82309523D01*
X178044285Y-82261904D01*
X177853809Y-82214285D01*
X177710952Y-82214285D01*
X177520476Y-82261904D01*
X177425238Y-82309523D01*
X177330000Y-82404761D01*
X177282380Y-82547619D01*
X177282380Y-82642857D01*
X177330000Y-82785714D01*
X177377619Y-82833333D01*
X177282380Y-83166666D02*
X177282380Y-83785714D01*
X177663333Y-83452380D01*
X177663333Y-83595238D01*
X177710952Y-83690476D01*
X177758571Y-83738095D01*
X177853809Y-83785714D01*
X178091904Y-83785714D01*
X178187142Y-83738095D01*
X178234761Y-83690476D01*
X178282380Y-83595238D01*
X178282380Y-83309523D01*
X178234761Y-83214285D01*
X178187142Y-83166666D01*
X205657142Y-79733333D02*
X205704761Y-79685714D01*
X205752380Y-79542857D01*
X205752380Y-79447619D01*
X205704761Y-79304761D01*
X205609523Y-79209523D01*
X205514285Y-79161904D01*
X205323809Y-79114285D01*
X205180952Y-79114285D01*
X204990476Y-79161904D01*
X204895238Y-79209523D01*
X204800000Y-79304761D01*
X204752380Y-79447619D01*
X204752380Y-79542857D01*
X204800000Y-79685714D01*
X204847619Y-79733333D01*
X204752380Y-80638095D02*
X204752380Y-80161904D01*
X205228571Y-80114285D01*
X205180952Y-80161904D01*
X205133333Y-80257142D01*
X205133333Y-80495238D01*
X205180952Y-80590476D01*
X205228571Y-80638095D01*
X205323809Y-80685714D01*
X205561904Y-80685714D01*
X205657142Y-80638095D01*
X205704761Y-80590476D01*
X205752380Y-80495238D01*
X205752380Y-80257142D01*
X205704761Y-80161904D01*
X205657142Y-80114285D01*
X179566666Y-74987142D02*
X179614285Y-75034761D01*
X179757142Y-75082380D01*
X179852380Y-75082380D01*
X179995238Y-75034761D01*
X180090476Y-74939523D01*
X180138095Y-74844285D01*
X180185714Y-74653809D01*
X180185714Y-74510952D01*
X180138095Y-74320476D01*
X180090476Y-74225238D01*
X179995238Y-74130000D01*
X179852380Y-74082380D01*
X179757142Y-74082380D01*
X179614285Y-74130000D01*
X179566666Y-74177619D01*
X178709523Y-74082380D02*
X178900000Y-74082380D01*
X178995238Y-74130000D01*
X179042857Y-74177619D01*
X179138095Y-74320476D01*
X179185714Y-74510952D01*
X179185714Y-74891904D01*
X179138095Y-74987142D01*
X179090476Y-75034761D01*
X178995238Y-75082380D01*
X178804761Y-75082380D01*
X178709523Y-75034761D01*
X178661904Y-74987142D01*
X178614285Y-74891904D01*
X178614285Y-74653809D01*
X178661904Y-74558571D01*
X178709523Y-74510952D01*
X178804761Y-74463333D01*
X178995238Y-74463333D01*
X179090476Y-74510952D01*
X179138095Y-74558571D01*
X179185714Y-74653809D01*
X193366666Y-78757142D02*
X193414285Y-78804761D01*
X193557142Y-78852380D01*
X193652380Y-78852380D01*
X193795238Y-78804761D01*
X193890476Y-78709523D01*
X193938095Y-78614285D01*
X193985714Y-78423809D01*
X193985714Y-78280952D01*
X193938095Y-78090476D01*
X193890476Y-77995238D01*
X193795238Y-77900000D01*
X193652380Y-77852380D01*
X193557142Y-77852380D01*
X193414285Y-77900000D01*
X193366666Y-77947619D01*
X193033333Y-77852380D02*
X192366666Y-77852380D01*
X192795238Y-78852380D01*
X190566666Y-72557142D02*
X190614285Y-72604761D01*
X190757142Y-72652380D01*
X190852380Y-72652380D01*
X190995238Y-72604761D01*
X191090476Y-72509523D01*
X191138095Y-72414285D01*
X191185714Y-72223809D01*
X191185714Y-72080952D01*
X191138095Y-71890476D01*
X191090476Y-71795238D01*
X190995238Y-71700000D01*
X190852380Y-71652380D01*
X190757142Y-71652380D01*
X190614285Y-71700000D01*
X190566666Y-71747619D01*
X189995238Y-72080952D02*
X190090476Y-72033333D01*
X190138095Y-71985714D01*
X190185714Y-71890476D01*
X190185714Y-71842857D01*
X190138095Y-71747619D01*
X190090476Y-71700000D01*
X189995238Y-71652380D01*
X189804761Y-71652380D01*
X189709523Y-71700000D01*
X189661904Y-71747619D01*
X189614285Y-71842857D01*
X189614285Y-71890476D01*
X189661904Y-71985714D01*
X189709523Y-72033333D01*
X189804761Y-72080952D01*
X189995238Y-72080952D01*
X190090476Y-72128571D01*
X190138095Y-72176190D01*
X190185714Y-72271428D01*
X190185714Y-72461904D01*
X190138095Y-72557142D01*
X190090476Y-72604761D01*
X189995238Y-72652380D01*
X189804761Y-72652380D01*
X189709523Y-72604761D01*
X189661904Y-72557142D01*
X189614285Y-72461904D01*
X189614285Y-72271428D01*
X189661904Y-72176190D01*
X189709523Y-72128571D01*
X189804761Y-72080952D01*
X191142857Y-71257142D02*
X191190476Y-71304761D01*
X191333333Y-71352380D01*
X191428571Y-71352380D01*
X191571428Y-71304761D01*
X191666666Y-71209523D01*
X191714285Y-71114285D01*
X191761904Y-70923809D01*
X191761904Y-70780952D01*
X191714285Y-70590476D01*
X191666666Y-70495238D01*
X191571428Y-70400000D01*
X191428571Y-70352380D01*
X191333333Y-70352380D01*
X191190476Y-70400000D01*
X191142857Y-70447619D01*
X190190476Y-71352380D02*
X190761904Y-71352380D01*
X190476190Y-71352380D02*
X190476190Y-70352380D01*
X190571428Y-70495238D01*
X190666666Y-70590476D01*
X190761904Y-70638095D01*
X189571428Y-70352380D02*
X189476190Y-70352380D01*
X189380952Y-70400000D01*
X189333333Y-70447619D01*
X189285714Y-70542857D01*
X189238095Y-70733333D01*
X189238095Y-70971428D01*
X189285714Y-71161904D01*
X189333333Y-71257142D01*
X189380952Y-71304761D01*
X189476190Y-71352380D01*
X189571428Y-71352380D01*
X189666666Y-71304761D01*
X189714285Y-71257142D01*
X189761904Y-71161904D01*
X189809523Y-70971428D01*
X189809523Y-70733333D01*
X189761904Y-70542857D01*
X189714285Y-70447619D01*
X189666666Y-70400000D01*
X189571428Y-70352380D01*
X161457142Y-77857142D02*
X161504761Y-77809523D01*
X161552380Y-77666666D01*
X161552380Y-77571428D01*
X161504761Y-77428571D01*
X161409523Y-77333333D01*
X161314285Y-77285714D01*
X161123809Y-77238095D01*
X160980952Y-77238095D01*
X160790476Y-77285714D01*
X160695238Y-77333333D01*
X160600000Y-77428571D01*
X160552380Y-77571428D01*
X160552380Y-77666666D01*
X160600000Y-77809523D01*
X160647619Y-77857142D01*
X161552380Y-78809523D02*
X161552380Y-78238095D01*
X161552380Y-78523809D02*
X160552380Y-78523809D01*
X160695238Y-78428571D01*
X160790476Y-78333333D01*
X160838095Y-78238095D01*
X160885714Y-79666666D02*
X161552380Y-79666666D01*
X160504761Y-79428571D02*
X161219047Y-79190476D01*
X161219047Y-79809523D01*
X194142857Y-71757142D02*
X194190476Y-71804761D01*
X194333333Y-71852380D01*
X194428571Y-71852380D01*
X194571428Y-71804761D01*
X194666666Y-71709523D01*
X194714285Y-71614285D01*
X194761904Y-71423809D01*
X194761904Y-71280952D01*
X194714285Y-71090476D01*
X194666666Y-70995238D01*
X194571428Y-70900000D01*
X194428571Y-70852380D01*
X194333333Y-70852380D01*
X194190476Y-70900000D01*
X194142857Y-70947619D01*
X193190476Y-71852380D02*
X193761904Y-71852380D01*
X193476190Y-71852380D02*
X193476190Y-70852380D01*
X193571428Y-70995238D01*
X193666666Y-71090476D01*
X193761904Y-71138095D01*
X192285714Y-70852380D02*
X192761904Y-70852380D01*
X192809523Y-71328571D01*
X192761904Y-71280952D01*
X192666666Y-71233333D01*
X192428571Y-71233333D01*
X192333333Y-71280952D01*
X192285714Y-71328571D01*
X192238095Y-71423809D01*
X192238095Y-71661904D01*
X192285714Y-71757142D01*
X192333333Y-71804761D01*
X192428571Y-71852380D01*
X192666666Y-71852380D01*
X192761904Y-71804761D01*
X192809523Y-71757142D01*
X189642857Y-86927142D02*
X189690476Y-86974761D01*
X189833333Y-87022380D01*
X189928571Y-87022380D01*
X190071428Y-86974761D01*
X190166666Y-86879523D01*
X190214285Y-86784285D01*
X190261904Y-86593809D01*
X190261904Y-86450952D01*
X190214285Y-86260476D01*
X190166666Y-86165238D01*
X190071428Y-86070000D01*
X189928571Y-86022380D01*
X189833333Y-86022380D01*
X189690476Y-86070000D01*
X189642857Y-86117619D01*
X188690476Y-87022380D02*
X189261904Y-87022380D01*
X188976190Y-87022380D02*
X188976190Y-86022380D01*
X189071428Y-86165238D01*
X189166666Y-86260476D01*
X189261904Y-86308095D01*
X187833333Y-86022380D02*
X188023809Y-86022380D01*
X188119047Y-86070000D01*
X188166666Y-86117619D01*
X188261904Y-86260476D01*
X188309523Y-86450952D01*
X188309523Y-86831904D01*
X188261904Y-86927142D01*
X188214285Y-86974761D01*
X188119047Y-87022380D01*
X187928571Y-87022380D01*
X187833333Y-86974761D01*
X187785714Y-86927142D01*
X187738095Y-86831904D01*
X187738095Y-86593809D01*
X187785714Y-86498571D01*
X187833333Y-86450952D01*
X187928571Y-86403333D01*
X188119047Y-86403333D01*
X188214285Y-86450952D01*
X188261904Y-86498571D01*
X188309523Y-86593809D01*
X209252380Y-72933333D02*
X208776190Y-72600000D01*
X209252380Y-72361904D02*
X208252380Y-72361904D01*
X208252380Y-72742857D01*
X208300000Y-72838095D01*
X208347619Y-72885714D01*
X208442857Y-72933333D01*
X208585714Y-72933333D01*
X208680952Y-72885714D01*
X208728571Y-72838095D01*
X208776190Y-72742857D01*
X208776190Y-72361904D01*
X208252380Y-73790476D02*
X208252380Y-73600000D01*
X208300000Y-73504761D01*
X208347619Y-73457142D01*
X208490476Y-73361904D01*
X208680952Y-73314285D01*
X209061904Y-73314285D01*
X209157142Y-73361904D01*
X209204761Y-73409523D01*
X209252380Y-73504761D01*
X209252380Y-73695238D01*
X209204761Y-73790476D01*
X209157142Y-73838095D01*
X209061904Y-73885714D01*
X208823809Y-73885714D01*
X208728571Y-73838095D01*
X208680952Y-73790476D01*
X208633333Y-73695238D01*
X208633333Y-73504761D01*
X208680952Y-73409523D01*
X208728571Y-73361904D01*
X208823809Y-73314285D01*
X166442857Y-71722380D02*
X166776190Y-71246190D01*
X167014285Y-71722380D02*
X167014285Y-70722380D01*
X166633333Y-70722380D01*
X166538095Y-70770000D01*
X166490476Y-70817619D01*
X166442857Y-70912857D01*
X166442857Y-71055714D01*
X166490476Y-71150952D01*
X166538095Y-71198571D01*
X166633333Y-71246190D01*
X167014285Y-71246190D01*
X165490476Y-71722380D02*
X166061904Y-71722380D01*
X165776190Y-71722380D02*
X165776190Y-70722380D01*
X165871428Y-70865238D01*
X165966666Y-70960476D01*
X166061904Y-71008095D01*
X164585714Y-70722380D02*
X165061904Y-70722380D01*
X165109523Y-71198571D01*
X165061904Y-71150952D01*
X164966666Y-71103333D01*
X164728571Y-71103333D01*
X164633333Y-71150952D01*
X164585714Y-71198571D01*
X164538095Y-71293809D01*
X164538095Y-71531904D01*
X164585714Y-71627142D01*
X164633333Y-71674761D01*
X164728571Y-71722380D01*
X164966666Y-71722380D01*
X165061904Y-71674761D01*
X165109523Y-71627142D01*
X203566666Y-72152380D02*
X203900000Y-71676190D01*
X204138095Y-72152380D02*
X204138095Y-71152380D01*
X203757142Y-71152380D01*
X203661904Y-71200000D01*
X203614285Y-71247619D01*
X203566666Y-71342857D01*
X203566666Y-71485714D01*
X203614285Y-71580952D01*
X203661904Y-71628571D01*
X203757142Y-71676190D01*
X204138095Y-71676190D01*
X202614285Y-72152380D02*
X203185714Y-72152380D01*
X202900000Y-72152380D02*
X202900000Y-71152380D01*
X202995238Y-71295238D01*
X203090476Y-71390476D01*
X203185714Y-71438095D01*
X188561904Y-70952380D02*
X188561904Y-71761904D01*
X188514285Y-71857142D01*
X188466666Y-71904761D01*
X188371428Y-71952380D01*
X188180952Y-71952380D01*
X188085714Y-71904761D01*
X188038095Y-71857142D01*
X187990476Y-71761904D01*
X187990476Y-70952380D01*
X187609523Y-70952380D02*
X186990476Y-70952380D01*
X187323809Y-71333333D01*
X187180952Y-71333333D01*
X187085714Y-71380952D01*
X187038095Y-71428571D01*
X186990476Y-71523809D01*
X186990476Y-71761904D01*
X187038095Y-71857142D01*
X187085714Y-71904761D01*
X187180952Y-71952380D01*
X187466666Y-71952380D01*
X187561904Y-71904761D01*
X187609523Y-71857142D01*
X173876190Y-78623809D02*
X174352380Y-78623809D01*
X173352380Y-78290476D02*
X173876190Y-78623809D01*
X173352380Y-78957142D01*
X174352380Y-79814285D02*
X174352380Y-79242857D01*
X174352380Y-79528571D02*
X173352380Y-79528571D01*
X173495238Y-79433333D01*
X173590476Y-79338095D01*
X173638095Y-79242857D01*
X207633333Y-79752380D02*
X207633333Y-80466666D01*
X207680952Y-80609523D01*
X207776190Y-80704761D01*
X207919047Y-80752380D01*
X208014285Y-80752380D01*
X206728571Y-80085714D02*
X206728571Y-80752380D01*
X206966666Y-79704761D02*
X207204761Y-80419047D01*
X206585714Y-80419047D01*
X192783333Y-85604761D02*
X192640476Y-85652380D01*
X192402380Y-85652380D01*
X192307142Y-85604761D01*
X192259523Y-85557142D01*
X192211904Y-85461904D01*
X192211904Y-85366666D01*
X192259523Y-85271428D01*
X192307142Y-85223809D01*
X192402380Y-85176190D01*
X192592857Y-85128571D01*
X192688095Y-85080952D01*
X192735714Y-85033333D01*
X192783333Y-84938095D01*
X192783333Y-84842857D01*
X192735714Y-84747619D01*
X192688095Y-84700000D01*
X192592857Y-84652380D01*
X192354761Y-84652380D01*
X192211904Y-84700000D01*
X191878571Y-84652380D02*
X191640476Y-85652380D01*
X191450000Y-84938095D01*
X191259523Y-85652380D01*
X191021428Y-84652380D01*
X190211904Y-84985714D02*
X190211904Y-85652380D01*
X190450000Y-84604761D02*
X190688095Y-85319047D01*
X190069047Y-85319047D01*
X199383333Y-85604761D02*
X199240476Y-85652380D01*
X199002380Y-85652380D01*
X198907142Y-85604761D01*
X198859523Y-85557142D01*
X198811904Y-85461904D01*
X198811904Y-85366666D01*
X198859523Y-85271428D01*
X198907142Y-85223809D01*
X199002380Y-85176190D01*
X199192857Y-85128571D01*
X199288095Y-85080952D01*
X199335714Y-85033333D01*
X199383333Y-84938095D01*
X199383333Y-84842857D01*
X199335714Y-84747619D01*
X199288095Y-84700000D01*
X199192857Y-84652380D01*
X198954761Y-84652380D01*
X198811904Y-84700000D01*
X198478571Y-84652380D02*
X198240476Y-85652380D01*
X198050000Y-84938095D01*
X197859523Y-85652380D01*
X197621428Y-84652380D01*
X197335714Y-84652380D02*
X196716666Y-84652380D01*
X197050000Y-85033333D01*
X196907142Y-85033333D01*
X196811904Y-85080952D01*
X196764285Y-85128571D01*
X196716666Y-85223809D01*
X196716666Y-85461904D01*
X196764285Y-85557142D01*
X196811904Y-85604761D01*
X196907142Y-85652380D01*
X197192857Y-85652380D01*
X197288095Y-85604761D01*
X197335714Y-85557142D01*
X186183333Y-85604761D02*
X186040476Y-85652380D01*
X185802380Y-85652380D01*
X185707142Y-85604761D01*
X185659523Y-85557142D01*
X185611904Y-85461904D01*
X185611904Y-85366666D01*
X185659523Y-85271428D01*
X185707142Y-85223809D01*
X185802380Y-85176190D01*
X185992857Y-85128571D01*
X186088095Y-85080952D01*
X186135714Y-85033333D01*
X186183333Y-84938095D01*
X186183333Y-84842857D01*
X186135714Y-84747619D01*
X186088095Y-84700000D01*
X185992857Y-84652380D01*
X185754761Y-84652380D01*
X185611904Y-84700000D01*
X185278571Y-84652380D02*
X185040476Y-85652380D01*
X184850000Y-84938095D01*
X184659523Y-85652380D01*
X184421428Y-84652380D01*
X184088095Y-84747619D02*
X184040476Y-84700000D01*
X183945238Y-84652380D01*
X183707142Y-84652380D01*
X183611904Y-84700000D01*
X183564285Y-84747619D01*
X183516666Y-84842857D01*
X183516666Y-84938095D01*
X183564285Y-85080952D01*
X184135714Y-85652380D01*
X183516666Y-85652380D01*
X179583333Y-85604761D02*
X179440476Y-85652380D01*
X179202380Y-85652380D01*
X179107142Y-85604761D01*
X179059523Y-85557142D01*
X179011904Y-85461904D01*
X179011904Y-85366666D01*
X179059523Y-85271428D01*
X179107142Y-85223809D01*
X179202380Y-85176190D01*
X179392857Y-85128571D01*
X179488095Y-85080952D01*
X179535714Y-85033333D01*
X179583333Y-84938095D01*
X179583333Y-84842857D01*
X179535714Y-84747619D01*
X179488095Y-84700000D01*
X179392857Y-84652380D01*
X179154761Y-84652380D01*
X179011904Y-84700000D01*
X178678571Y-84652380D02*
X178440476Y-85652380D01*
X178250000Y-84938095D01*
X178059523Y-85652380D01*
X177821428Y-84652380D01*
X176916666Y-85652380D02*
X177488095Y-85652380D01*
X177202380Y-85652380D02*
X177202380Y-84652380D01*
X177297619Y-84795238D01*
X177392857Y-84890476D01*
X177488095Y-84938095D01*
X165033333Y-87752380D02*
X165033333Y-88466666D01*
X165080952Y-88609523D01*
X165176190Y-88704761D01*
X165319047Y-88752380D01*
X165414285Y-88752380D01*
X164604761Y-87847619D02*
X164557142Y-87800000D01*
X164461904Y-87752380D01*
X164223809Y-87752380D01*
X164128571Y-87800000D01*
X164080952Y-87847619D01*
X164033333Y-87942857D01*
X164033333Y-88038095D01*
X164080952Y-88180952D01*
X164652380Y-88752380D01*
X164033333Y-88752380D01*
X175333333Y-72452380D02*
X175333333Y-73166666D01*
X175380952Y-73309523D01*
X175476190Y-73404761D01*
X175619047Y-73452380D01*
X175714285Y-73452380D01*
X174952380Y-72452380D02*
X174333333Y-72452380D01*
X174666666Y-72833333D01*
X174523809Y-72833333D01*
X174428571Y-72880952D01*
X174380952Y-72928571D01*
X174333333Y-73023809D01*
X174333333Y-73261904D01*
X174380952Y-73357142D01*
X174428571Y-73404761D01*
X174523809Y-73452380D01*
X174809523Y-73452380D01*
X174904761Y-73404761D01*
X174952380Y-73357142D01*
X189661904Y-82252380D02*
X189661904Y-83061904D01*
X189614285Y-83157142D01*
X189566666Y-83204761D01*
X189471428Y-83252380D01*
X189280952Y-83252380D01*
X189185714Y-83204761D01*
X189138095Y-83157142D01*
X189090476Y-83061904D01*
X189090476Y-82252380D01*
X188661904Y-82347619D02*
X188614285Y-82300000D01*
X188519047Y-82252380D01*
X188280952Y-82252380D01*
X188185714Y-82300000D01*
X188138095Y-82347619D01*
X188090476Y-82442857D01*
X188090476Y-82538095D01*
X188138095Y-82680952D01*
X188709523Y-83252380D01*
X188090476Y-83252380D01*
X205561904Y-73752380D02*
X205561904Y-74561904D01*
X205514285Y-74657142D01*
X205466666Y-74704761D01*
X205371428Y-74752380D01*
X205180952Y-74752380D01*
X205085714Y-74704761D01*
X205038095Y-74657142D01*
X204990476Y-74561904D01*
X204990476Y-73752380D01*
X203990476Y-74752380D02*
X204561904Y-74752380D01*
X204276190Y-74752380D02*
X204276190Y-73752380D01*
X204371428Y-73895238D01*
X204466666Y-73990476D01*
X204561904Y-74038095D01*
X179182380Y-77948333D02*
X178706190Y-77615000D01*
X179182380Y-77376904D02*
X178182380Y-77376904D01*
X178182380Y-77757857D01*
X178230000Y-77853095D01*
X178277619Y-77900714D01*
X178372857Y-77948333D01*
X178515714Y-77948333D01*
X178610952Y-77900714D01*
X178658571Y-77853095D01*
X178706190Y-77757857D01*
X178706190Y-77376904D01*
X178182380Y-78853095D02*
X178182380Y-78376904D01*
X178658571Y-78329285D01*
X178610952Y-78376904D01*
X178563333Y-78472142D01*
X178563333Y-78710238D01*
X178610952Y-78805476D01*
X178658571Y-78853095D01*
X178753809Y-78900714D01*
X178991904Y-78900714D01*
X179087142Y-78853095D01*
X179134761Y-78805476D01*
X179182380Y-78710238D01*
X179182380Y-78472142D01*
X179134761Y-78376904D01*
X179087142Y-78329285D01*
X193566666Y-76452380D02*
X193900000Y-75976190D01*
X194138095Y-76452380D02*
X194138095Y-75452380D01*
X193757142Y-75452380D01*
X193661904Y-75500000D01*
X193614285Y-75547619D01*
X193566666Y-75642857D01*
X193566666Y-75785714D01*
X193614285Y-75880952D01*
X193661904Y-75928571D01*
X193757142Y-75976190D01*
X194138095Y-75976190D01*
X192709523Y-75785714D02*
X192709523Y-76452380D01*
X192947619Y-75404761D02*
X193185714Y-76119047D01*
X192566666Y-76119047D01*
X193566666Y-77652380D02*
X193900000Y-77176190D01*
X194138095Y-77652380D02*
X194138095Y-76652380D01*
X193757142Y-76652380D01*
X193661904Y-76700000D01*
X193614285Y-76747619D01*
X193566666Y-76842857D01*
X193566666Y-76985714D01*
X193614285Y-77080952D01*
X193661904Y-77128571D01*
X193757142Y-77176190D01*
X194138095Y-77176190D01*
X193233333Y-76652380D02*
X192614285Y-76652380D01*
X192947619Y-77033333D01*
X192804761Y-77033333D01*
X192709523Y-77080952D01*
X192661904Y-77128571D01*
X192614285Y-77223809D01*
X192614285Y-77461904D01*
X192661904Y-77557142D01*
X192709523Y-77604761D01*
X192804761Y-77652380D01*
X193090476Y-77652380D01*
X193185714Y-77604761D01*
X193233333Y-77557142D01*
X197166666Y-79252380D02*
X197500000Y-78776190D01*
X197738095Y-79252380D02*
X197738095Y-78252380D01*
X197357142Y-78252380D01*
X197261904Y-78300000D01*
X197214285Y-78347619D01*
X197166666Y-78442857D01*
X197166666Y-78585714D01*
X197214285Y-78680952D01*
X197261904Y-78728571D01*
X197357142Y-78776190D01*
X197738095Y-78776190D01*
X196785714Y-78347619D02*
X196738095Y-78300000D01*
X196642857Y-78252380D01*
X196404761Y-78252380D01*
X196309523Y-78300000D01*
X196261904Y-78347619D01*
X196214285Y-78442857D01*
X196214285Y-78538095D01*
X196261904Y-78680952D01*
X196833333Y-79252380D01*
X196214285Y-79252380D01*
X202757142Y-84633333D02*
X202804761Y-84585714D01*
X202852380Y-84442857D01*
X202852380Y-84347619D01*
X202804761Y-84204761D01*
X202709523Y-84109523D01*
X202614285Y-84061904D01*
X202423809Y-84014285D01*
X202280952Y-84014285D01*
X202090476Y-84061904D01*
X201995238Y-84109523D01*
X201900000Y-84204761D01*
X201852380Y-84347619D01*
X201852380Y-84442857D01*
X201900000Y-84585714D01*
X201947619Y-84633333D01*
X202852380Y-85585714D02*
X202852380Y-85014285D01*
X202852380Y-85300000D02*
X201852380Y-85300000D01*
X201995238Y-85204761D01*
X202090476Y-85109523D01*
X202138095Y-85014285D01*
M02*
