G04 #@! TF.GenerationSoftware,KiCad,Pcbnew,5.1.5+dfsg1-2build2*
G04 #@! TF.CreationDate,2021-11-14T16:11:09+00:00*
G04 #@! TF.ProjectId,picopak,7069636f-7061-46b2-9e6b-696361645f70,rev?*
G04 #@! TF.SameCoordinates,Original*
G04 #@! TF.FileFunction,Paste,Top*
G04 #@! TF.FilePolarity,Positive*
%FSLAX46Y46*%
G04 Gerber Fmt 4.6, Leading zero omitted, Abs format (unit mm)*
G04 Created by KiCad (PCBNEW 5.1.5+dfsg1-2build2) date 2021-11-14 16:11:09*
%MOMM*%
%LPD*%
G04 APERTURE LIST*
%ADD10C,0.100000*%
%ADD11R,1.450000X0.450000*%
%ADD12R,1.200000X2.200000*%
%ADD13R,1.600000X1.400000*%
%ADD14R,1.200000X1.400000*%
%ADD15R,0.700000X1.600000*%
%ADD16R,0.700000X1.825000*%
%ADD17R,1.460000X2.000000*%
%ADD18R,1.750000X0.400000*%
%ADD19R,2.500000X1.425000*%
G04 APERTURE END LIST*
D10*
G36*
X203886958Y-76520710D02*
G01*
X203901276Y-76522834D01*
X203915317Y-76526351D01*
X203928946Y-76531228D01*
X203942031Y-76537417D01*
X203954447Y-76544858D01*
X203966073Y-76553481D01*
X203976798Y-76563202D01*
X203986519Y-76573927D01*
X203995142Y-76585553D01*
X204002583Y-76597969D01*
X204008772Y-76611054D01*
X204013649Y-76624683D01*
X204017166Y-76638724D01*
X204019290Y-76653042D01*
X204020000Y-76667500D01*
X204020000Y-76962500D01*
X204019290Y-76976958D01*
X204017166Y-76991276D01*
X204013649Y-77005317D01*
X204008772Y-77018946D01*
X204002583Y-77032031D01*
X203995142Y-77044447D01*
X203986519Y-77056073D01*
X203976798Y-77066798D01*
X203966073Y-77076519D01*
X203954447Y-77085142D01*
X203942031Y-77092583D01*
X203928946Y-77098772D01*
X203915317Y-77103649D01*
X203901276Y-77107166D01*
X203886958Y-77109290D01*
X203872500Y-77110000D01*
X203527500Y-77110000D01*
X203513042Y-77109290D01*
X203498724Y-77107166D01*
X203484683Y-77103649D01*
X203471054Y-77098772D01*
X203457969Y-77092583D01*
X203445553Y-77085142D01*
X203433927Y-77076519D01*
X203423202Y-77066798D01*
X203413481Y-77056073D01*
X203404858Y-77044447D01*
X203397417Y-77032031D01*
X203391228Y-77018946D01*
X203386351Y-77005317D01*
X203382834Y-76991276D01*
X203380710Y-76976958D01*
X203380000Y-76962500D01*
X203380000Y-76667500D01*
X203380710Y-76653042D01*
X203382834Y-76638724D01*
X203386351Y-76624683D01*
X203391228Y-76611054D01*
X203397417Y-76597969D01*
X203404858Y-76585553D01*
X203413481Y-76573927D01*
X203423202Y-76563202D01*
X203433927Y-76553481D01*
X203445553Y-76544858D01*
X203457969Y-76537417D01*
X203471054Y-76531228D01*
X203484683Y-76526351D01*
X203498724Y-76522834D01*
X203513042Y-76520710D01*
X203527500Y-76520000D01*
X203872500Y-76520000D01*
X203886958Y-76520710D01*
G37*
G36*
X203886958Y-77490710D02*
G01*
X203901276Y-77492834D01*
X203915317Y-77496351D01*
X203928946Y-77501228D01*
X203942031Y-77507417D01*
X203954447Y-77514858D01*
X203966073Y-77523481D01*
X203976798Y-77533202D01*
X203986519Y-77543927D01*
X203995142Y-77555553D01*
X204002583Y-77567969D01*
X204008772Y-77581054D01*
X204013649Y-77594683D01*
X204017166Y-77608724D01*
X204019290Y-77623042D01*
X204020000Y-77637500D01*
X204020000Y-77932500D01*
X204019290Y-77946958D01*
X204017166Y-77961276D01*
X204013649Y-77975317D01*
X204008772Y-77988946D01*
X204002583Y-78002031D01*
X203995142Y-78014447D01*
X203986519Y-78026073D01*
X203976798Y-78036798D01*
X203966073Y-78046519D01*
X203954447Y-78055142D01*
X203942031Y-78062583D01*
X203928946Y-78068772D01*
X203915317Y-78073649D01*
X203901276Y-78077166D01*
X203886958Y-78079290D01*
X203872500Y-78080000D01*
X203527500Y-78080000D01*
X203513042Y-78079290D01*
X203498724Y-78077166D01*
X203484683Y-78073649D01*
X203471054Y-78068772D01*
X203457969Y-78062583D01*
X203445553Y-78055142D01*
X203433927Y-78046519D01*
X203423202Y-78036798D01*
X203413481Y-78026073D01*
X203404858Y-78014447D01*
X203397417Y-78002031D01*
X203391228Y-77988946D01*
X203386351Y-77975317D01*
X203382834Y-77961276D01*
X203380710Y-77946958D01*
X203380000Y-77932500D01*
X203380000Y-77637500D01*
X203380710Y-77623042D01*
X203382834Y-77608724D01*
X203386351Y-77594683D01*
X203391228Y-77581054D01*
X203397417Y-77567969D01*
X203404858Y-77555553D01*
X203413481Y-77543927D01*
X203423202Y-77533202D01*
X203433927Y-77523481D01*
X203445553Y-77514858D01*
X203457969Y-77507417D01*
X203471054Y-77501228D01*
X203484683Y-77496351D01*
X203498724Y-77492834D01*
X203513042Y-77490710D01*
X203527500Y-77490000D01*
X203872500Y-77490000D01*
X203886958Y-77490710D01*
G37*
D11*
X182550000Y-71875000D03*
X182550000Y-72525000D03*
X182550000Y-73175000D03*
X182550000Y-73825000D03*
X182550000Y-74475000D03*
X182550000Y-75125000D03*
X182550000Y-75775000D03*
X182550000Y-76425000D03*
X182550000Y-77075000D03*
X182550000Y-77725000D03*
X176650000Y-77725000D03*
X176650000Y-77075000D03*
X176650000Y-76425000D03*
X176650000Y-75775000D03*
X176650000Y-75125000D03*
X176650000Y-74475000D03*
X176650000Y-73825000D03*
X176650000Y-73175000D03*
X176650000Y-72525000D03*
X176650000Y-71875000D03*
D12*
X202150000Y-80800000D03*
X186650000Y-80800000D03*
D13*
X201250000Y-71200000D03*
D14*
X186650000Y-71200000D03*
D15*
X187800000Y-70700000D03*
X190000000Y-70700000D03*
X188900000Y-70700000D03*
X191100000Y-70700000D03*
X192200000Y-70700000D03*
X193300000Y-70700000D03*
X196600000Y-70700000D03*
X195500000Y-70700000D03*
X194400000Y-70700000D03*
D11*
X182550000Y-81075000D03*
X182550000Y-81725000D03*
X182550000Y-82375000D03*
X182550000Y-83025000D03*
X182550000Y-83675000D03*
X182550000Y-84325000D03*
X182550000Y-84975000D03*
X182550000Y-85625000D03*
X182550000Y-86275000D03*
X182550000Y-86925000D03*
X176650000Y-86925000D03*
X176650000Y-86275000D03*
X176650000Y-85625000D03*
X176650000Y-84975000D03*
X176650000Y-84325000D03*
X176650000Y-83675000D03*
X176650000Y-83025000D03*
X176650000Y-82375000D03*
X176650000Y-81725000D03*
X176650000Y-81075000D03*
D16*
X205650000Y-82662500D03*
D10*
G36*
X208202917Y-82276853D02*
G01*
X208240271Y-82282394D01*
X208276902Y-82291569D01*
X208312457Y-82304291D01*
X208346593Y-82320437D01*
X208378983Y-82339850D01*
X208409315Y-82362346D01*
X208437295Y-82387705D01*
X208462654Y-82415685D01*
X208485150Y-82446017D01*
X208504563Y-82478407D01*
X208520709Y-82512543D01*
X208533431Y-82548098D01*
X208542606Y-82584729D01*
X208548147Y-82622083D01*
X208550000Y-82659800D01*
X208550000Y-83190200D01*
X208548147Y-83227917D01*
X208542606Y-83265271D01*
X208533431Y-83301902D01*
X208520709Y-83337457D01*
X208504563Y-83371593D01*
X208485150Y-83403983D01*
X208462654Y-83434315D01*
X208437295Y-83462295D01*
X208409315Y-83487654D01*
X208378983Y-83510150D01*
X208346593Y-83529563D01*
X208312457Y-83545709D01*
X208276902Y-83558431D01*
X208240271Y-83567606D01*
X208202917Y-83573147D01*
X208165200Y-83575000D01*
X205684800Y-83575000D01*
X205647083Y-83573147D01*
X205609729Y-83567606D01*
X205573098Y-83558431D01*
X205537543Y-83545709D01*
X205503407Y-83529563D01*
X205471017Y-83510150D01*
X205440685Y-83487654D01*
X205412705Y-83462295D01*
X205387346Y-83434315D01*
X205364850Y-83403983D01*
X205345437Y-83371593D01*
X205329291Y-83337457D01*
X205316569Y-83301902D01*
X205307394Y-83265271D01*
X205301853Y-83227917D01*
X205300000Y-83190200D01*
X205300000Y-82659800D01*
X205301853Y-82622083D01*
X205307394Y-82584729D01*
X205316569Y-82548098D01*
X205329291Y-82512543D01*
X205345437Y-82478407D01*
X205364850Y-82446017D01*
X205387346Y-82415685D01*
X205412705Y-82387705D01*
X205440685Y-82362346D01*
X205471017Y-82339850D01*
X205503407Y-82320437D01*
X205537543Y-82304291D01*
X205573098Y-82291569D01*
X205609729Y-82282394D01*
X205647083Y-82276853D01*
X205684800Y-82275000D01*
X208165200Y-82275000D01*
X208202917Y-82276853D01*
G37*
G36*
X208202917Y-87726853D02*
G01*
X208240271Y-87732394D01*
X208276902Y-87741569D01*
X208312457Y-87754291D01*
X208346593Y-87770437D01*
X208378983Y-87789850D01*
X208409315Y-87812346D01*
X208437295Y-87837705D01*
X208462654Y-87865685D01*
X208485150Y-87896017D01*
X208504563Y-87928407D01*
X208520709Y-87962543D01*
X208533431Y-87998098D01*
X208542606Y-88034729D01*
X208548147Y-88072083D01*
X208550000Y-88109800D01*
X208550000Y-88640200D01*
X208548147Y-88677917D01*
X208542606Y-88715271D01*
X208533431Y-88751902D01*
X208520709Y-88787457D01*
X208504563Y-88821593D01*
X208485150Y-88853983D01*
X208462654Y-88884315D01*
X208437295Y-88912295D01*
X208409315Y-88937654D01*
X208378983Y-88960150D01*
X208346593Y-88979563D01*
X208312457Y-88995709D01*
X208276902Y-89008431D01*
X208240271Y-89017606D01*
X208202917Y-89023147D01*
X208165200Y-89025000D01*
X205684800Y-89025000D01*
X205647083Y-89023147D01*
X205609729Y-89017606D01*
X205573098Y-89008431D01*
X205537543Y-88995709D01*
X205503407Y-88979563D01*
X205471017Y-88960150D01*
X205440685Y-88937654D01*
X205412705Y-88912295D01*
X205387346Y-88884315D01*
X205364850Y-88853983D01*
X205345437Y-88821593D01*
X205329291Y-88787457D01*
X205316569Y-88751902D01*
X205307394Y-88715271D01*
X205301853Y-88677917D01*
X205300000Y-88640200D01*
X205300000Y-88109800D01*
X205301853Y-88072083D01*
X205307394Y-88034729D01*
X205316569Y-87998098D01*
X205329291Y-87962543D01*
X205345437Y-87928407D01*
X205364850Y-87896017D01*
X205387346Y-87865685D01*
X205412705Y-87837705D01*
X205440685Y-87812346D01*
X205471017Y-87789850D01*
X205503407Y-87770437D01*
X205537543Y-87754291D01*
X205573098Y-87741569D01*
X205609729Y-87732394D01*
X205647083Y-87726853D01*
X205684800Y-87725000D01*
X208165200Y-87725000D01*
X208202917Y-87726853D01*
G37*
D16*
X205650000Y-88637500D03*
D17*
X204320000Y-88550000D03*
X204320000Y-82750000D03*
D18*
X204525000Y-86950000D03*
X204525000Y-86300000D03*
X204525000Y-85650000D03*
X204525000Y-85000000D03*
X204525000Y-84350000D03*
D19*
X207600000Y-86612500D03*
X207600000Y-84687500D03*
M02*
